<?xml version="1.0" encoding="UTF-8" standalone="no"?>
<!DOCTYPE svg PUBLIC "-//W3C//DTD SVG 1.1//EN"
 "http://www.w3.org/Graphics/SVG/1.1/DTD/svg11.dtd">
<!-- Generated by graphviz version 2.43.0 (0)
 -->
<!-- Title: utils/circular_buffer.hpp Pages: 1 -->
<!--zoomable 162 -->
<svg id="main" version="1.1" xmlns="http://www.w3.org/2000/svg" xmlns:xlink="http://www.w3.org/1999/xlink" xml:space="preserve" onload="init(evt)">
<style type="text/css"><![CDATA[
.edge:hover path { stroke: red; }
.edge:hover polygon { stroke: red; fill: red; }
]]></style>
<script type="text/javascript"><![CDATA[
var edges = document.getElementsByTagName('g');
if (edges && edges.length) {
  for (var i=0;i<edges.length;i++) {
    if (edges[i].id.substr(0,4)=='edge') {
      edges[i].setAttribute('class','edge');
    }
  }
}
]]></script>
        <defs>
                <circle id="rim" cx="0" cy="0" r="7"/>
                <circle id="rim2" cx="0" cy="0" r="3.5"/>
                <g id="zoomPlus">
                        <use xlink:href="#rim" fill="#404040">
                                <set attributeName="fill" to="#808080" begin="zoomplus.mouseover" end="zoomplus.mouseout"/>
                        </use>
                        <path d="M-4,0h8M0,-4v8" fill="none" stroke="white" stroke-width="1.5" pointer-events="none"/>
                </g>
                <g id="zoomMin">
                        <use xlink:href="#rim" fill="#404040">
                                <set attributeName="fill" to="#808080" begin="zoomminus.mouseover" end="zoomminus.mouseout"/>
                        </use>
                        <path d="M-4,0h8" fill="none" stroke="white" stroke-width="1.5" pointer-events="none"/>
                </g>
                <g id="dirArrow">
                        <path fill="none" stroke="white" stroke-width="1.5" d="M0,-3.0v7 M-2.5,-0.5L0,-3.0L2.5,-0.5"/>
                </g>
               <g id="resetDef">
                       <use xlink:href="#rim2" fill="#404040">
                               <set attributeName="fill" to="#808080" begin="reset.mouseover" end="reset.mouseout"/>
                       </use>
               </g>
        </defs>

<script type="text/javascript">
var viewWidth = 5118;
var viewHeight = 162;
var sectionId = 'dynsection-0';
</script>
<script xlink:href="svgpan.js"/>
<svg id="graph" class="graph">
<g id="viewport">
<title>utils/circular_buffer.hpp</title>
<polygon fill="white" stroke="transparent" points="-4,4 -4,-158 5114,-158 5114,4 -4,4"/>
<!-- Node1 -->
<g id="node1" class="node">
<title>Node1</title>
<g id="a_node1"><a xlink:title=" ">
<polygon fill="#bfbfbf" stroke="black" points="1662.5,-134.5 1662.5,-153.5 1793.5,-153.5 1793.5,-134.5 1662.5,-134.5"/>
<text text-anchor="middle" x="1728" y="-141.5" font-family="Helvetica,sans-Serif" font-size="10.00">utils/circular_buffer.hpp</text>
</a>
</g>
</g>
<!-- Node2 -->
<g id="node2" class="node">
<title>Node2</title>
<g id="a_node2"><a xlink:href="simulator_8hpp.html" target="_top" xlink:title=" ">
<polygon fill="white" stroke="red" points="1682,-78.5 1682,-97.5 1774,-97.5 1774,-78.5 1682,-78.5"/>
<text text-anchor="middle" x="1728" y="-85.5" font-family="Helvetica,sans-Serif" font-size="10.00">../simulator.hpp</text>
</a>
</g>
</g>
<!-- Node1&#45;&gt;Node2 -->
<g id="edge1" class="edge">
<title>Node1&#45;&gt;Node2</title>
<path fill="none" stroke="midnightblue" d="M1722.83,-134.08C1721.32,-126.93 1720.89,-116.64 1721.54,-107.69"/>
<polygon fill="midnightblue" stroke="midnightblue" points="1725.02,-108.13 1722.87,-97.75 1718.08,-107.2 1725.02,-108.13"/>
</g>
<!-- Node2&#45;&gt;Node1 -->
<g id="edge34" class="edge">
<title>Node2&#45;&gt;Node1</title>
<path fill="none" stroke="midnightblue" d="M1733.13,-97.75C1734.66,-104.86 1735.1,-115.14 1734.47,-124.1"/>
<polygon fill="midnightblue" stroke="midnightblue" points="1730.99,-123.71 1733.17,-134.08 1737.93,-124.62 1730.99,-123.71"/>
</g>
<!-- Node2&#45;&gt;Node2 -->
<g id="edge28" class="edge">
<title>Node2&#45;&gt;Node2</title>
<path fill="none" stroke="midnightblue" d="M1755.3,-97.53C1773.84,-100.31 1792,-97.13 1792,-88 1792,-80.58 1780.01,-77.09 1765.57,-77.54"/>
<polygon fill="midnightblue" stroke="midnightblue" points="1764.94,-74.08 1755.3,-78.47 1765.57,-81.05 1764.94,-74.08"/>
</g>
<!-- Node3 -->
<g id="node3" class="node">
<title>Node3</title>
<g id="a_node3"><a xlink:title=" ">
<polygon fill="white" stroke="#bfbfbf" points="0,-11.5 0,-30.5 56,-30.5 56,-11.5 0,-11.5"/>
<text text-anchor="middle" x="28" y="-18.5" font-family="Helvetica,sans-Serif" font-size="10.00">unistd.h</text>
</a>
</g>
</g>
<!-- Node2&#45;&gt;Node3 -->
<g id="edge2" class="edge">
<title>Node2&#45;&gt;Node3</title>
<path fill="none" stroke="midnightblue" d="M1681.74,-87.03C1429.4,-87.02 224.74,-84.72 65,-42 59.67,-40.57 54.26,-38.25 49.29,-35.68"/>
<polygon fill="midnightblue" stroke="midnightblue" points="50.81,-32.52 40.39,-30.6 47.34,-38.6 50.81,-32.52"/>
</g>
<!-- Node4 -->
<g id="node4" class="node">
<title>Node4</title>
<g id="a_node4"><a xlink:title=" ">
<polygon fill="white" stroke="#bfbfbf" points="74.5,-11.5 74.5,-30.5 131.5,-30.5 131.5,-11.5 74.5,-11.5"/>
<text text-anchor="middle" x="103" y="-18.5" font-family="Helvetica,sans-Serif" font-size="10.00">getopt.h</text>
</a>
</g>
</g>
<!-- Node2&#45;&gt;Node4 -->
<g id="edge3" class="edge">
<title>Node2&#45;&gt;Node4</title>
<path fill="none" stroke="midnightblue" d="M1681.83,-86.97C1436.59,-86.61 292.1,-82.78 140,-42 134.67,-40.57 129.26,-38.24 124.29,-35.67"/>
<polygon fill="midnightblue" stroke="midnightblue" points="125.81,-32.51 115.39,-30.6 122.34,-38.59 125.81,-32.51"/>
</g>
<!-- Node5 -->
<g id="node5" class="node">
<title>Node5</title>
<g id="a_node5"><a xlink:title=" ">
<polygon fill="white" stroke="#bfbfbf" points="149.5,-11.5 149.5,-30.5 214.5,-30.5 214.5,-11.5 149.5,-11.5"/>
<text text-anchor="middle" x="182" y="-18.5" font-family="Helvetica,sans-Serif" font-size="10.00">inttypes.h</text>
</a>
</g>
</g>
<!-- Node2&#45;&gt;Node5 -->
<g id="edge4" class="edge">
<title>Node2&#45;&gt;Node5</title>
<path fill="none" stroke="midnightblue" d="M1681.95,-86.78C1444.88,-85.48 367.42,-77.63 223,-42 216.89,-40.49 210.63,-38 204.89,-35.27"/>
<polygon fill="midnightblue" stroke="midnightblue" points="206.35,-32.08 195.86,-30.59 203.13,-38.3 206.35,-32.08"/>
</g>
<!-- Node6 -->
<g id="node6" class="node">
<title>Node6</title>
<g id="a_node6"><a xlink:title=" ">
<polygon fill="white" stroke="#bfbfbf" points="232.5,-11.5 232.5,-30.5 275.5,-30.5 275.5,-11.5 232.5,-11.5"/>
<text text-anchor="middle" x="254" y="-18.5" font-family="Helvetica,sans-Serif" font-size="10.00">zlib.h</text>
</a>
</g>
</g>
<!-- Node2&#45;&gt;Node6 -->
<g id="edge5" class="edge">
<title>Node2&#45;&gt;Node6</title>
<path fill="none" stroke="midnightblue" d="M1681.87,-87.03C1450.35,-86.97 420.8,-84.32 285,-42 280.73,-40.67 276.49,-38.58 272.58,-36.24"/>
<polygon fill="midnightblue" stroke="midnightblue" points="274.43,-33.27 264.18,-30.58 270.52,-39.08 274.43,-33.27"/>
</g>
<!-- Node7 -->
<g id="node7" class="node">
<title>Node7</title>
<g id="a_node7"><a xlink:title=" ">
<polygon fill="white" stroke="#bfbfbf" points="294,-11.5 294,-30.5 350,-30.5 350,-11.5 294,-11.5"/>
<text text-anchor="middle" x="322" y="-18.5" font-family="Helvetica,sans-Serif" font-size="10.00">assert.h</text>
</a>
</g>
</g>
<!-- Node2&#45;&gt;Node7 -->
<g id="edge6" class="edge">
<title>Node2&#45;&gt;Node7</title>
<path fill="none" stroke="midnightblue" d="M1681.72,-86.74C1457.41,-85.3 488.77,-77.11 359,-42 353.67,-40.56 348.27,-38.23 343.29,-35.65"/>
<polygon fill="midnightblue" stroke="midnightblue" points="344.82,-32.49 334.4,-30.58 341.35,-38.57 344.82,-32.49"/>
</g>
<!-- Node8 -->
<g id="node8" class="node">
<title>Node8</title>
<g id="a_node8"><a xlink:title=" ">
<polygon fill="white" stroke="#bfbfbf" points="368,-11.5 368,-30.5 436,-30.5 436,-11.5 368,-11.5"/>
<text text-anchor="middle" x="402" y="-18.5" font-family="Helvetica,sans-Serif" font-size="10.00">sys/time.h</text>
</a>
</g>
</g>
<!-- Node2&#45;&gt;Node8 -->
<g id="edge7" class="edge">
<title>Node2&#45;&gt;Node8</title>
<path fill="none" stroke="midnightblue" d="M1681.84,-86.47C1466.61,-83.85 566.99,-71.23 445,-42 438.48,-40.44 431.77,-37.85 425.63,-35.04"/>
<polygon fill="midnightblue" stroke="midnightblue" points="427.1,-31.87 416.59,-30.57 424,-38.14 427.1,-31.87"/>
</g>
<!-- Node9 -->
<g id="node9" class="node">
<title>Node9</title>
<g id="a_node9"><a xlink:title=" ">
<polygon fill="white" stroke="#bfbfbf" points="454,-11.5 454,-30.5 514,-30.5 514,-11.5 454,-11.5"/>
<text text-anchor="middle" x="484" y="-18.5" font-family="Helvetica,sans-Serif" font-size="10.00">iostream</text>
</a>
</g>
</g>
<!-- Node2&#45;&gt;Node9 -->
<g id="edge8" class="edge">
<title>Node2&#45;&gt;Node9</title>
<path fill="none" stroke="midnightblue" d="M1681.89,-86.46C1474.87,-83.88 636.49,-71.66 523,-42 517.29,-40.51 511.47,-38.09 506.12,-35.44"/>
<polygon fill="midnightblue" stroke="midnightblue" points="507.59,-32.25 497.13,-30.57 504.26,-38.41 507.59,-32.25"/>
</g>
<!-- Node10 -->
<g id="node10" class="node">
<title>Node10</title>
<g id="a_node10"><a xlink:title=" ">
<polygon fill="white" stroke="#bfbfbf" points="532,-11.5 532,-30.5 588,-30.5 588,-11.5 532,-11.5"/>
<text text-anchor="middle" x="560" y="-18.5" font-family="Helvetica,sans-Serif" font-size="10.00">iomanip</text>
</a>
</g>
</g>
<!-- Node2&#45;&gt;Node10 -->
<g id="edge9" class="edge">
<title>Node2&#45;&gt;Node10</title>
<path fill="none" stroke="midnightblue" d="M1681.73,-86.39C1482.45,-83.62 702.65,-70.97 597,-42 591.68,-40.54 586.28,-38.2 581.3,-35.63"/>
<polygon fill="midnightblue" stroke="midnightblue" points="582.82,-32.47 572.4,-30.56 579.36,-38.55 582.82,-32.47"/>
</g>
<!-- Node11 -->
<g id="node11" class="node">
<title>Node11</title>
<g id="a_node11"><a xlink:title=" ">
<polygon fill="white" stroke="#bfbfbf" points="606.5,-11.5 606.5,-30.5 653.5,-30.5 653.5,-11.5 606.5,-11.5"/>
<text text-anchor="middle" x="630" y="-18.5" font-family="Helvetica,sans-Serif" font-size="10.00">cmath</text>
</a>
</g>
</g>
<!-- Node2&#45;&gt;Node11 -->
<g id="edge10" class="edge">
<title>Node2&#45;&gt;Node11</title>
<path fill="none" stroke="midnightblue" d="M1681.84,-86.4C1490.01,-83.73 761.32,-71.72 663,-42 658.4,-40.61 653.79,-38.43 649.54,-36.01"/>
<polygon fill="midnightblue" stroke="midnightblue" points="651.25,-32.95 640.93,-30.55 647.5,-38.86 651.25,-32.95"/>
</g>
<!-- Node12 -->
<g id="node12" class="node">
<title>Node12</title>
<g id="a_node12"><a xlink:title=" ">
<polygon fill="white" stroke="#bfbfbf" points="672,-11.5 672,-30.5 722,-30.5 722,-11.5 672,-11.5"/>
<text text-anchor="middle" x="697" y="-18.5" font-family="Helvetica,sans-Serif" font-size="10.00">chrono</text>
</a>
</g>
</g>
<!-- Node2&#45;&gt;Node12 -->
<g id="edge11" class="edge">
<title>Node2&#45;&gt;Node12</title>
<path fill="none" stroke="midnightblue" d="M1681.71,-86.22C1497.58,-82.95 822.67,-69.2 731,-42 726.17,-40.57 721.3,-38.3 716.82,-35.81"/>
<polygon fill="midnightblue" stroke="midnightblue" points="718.65,-32.82 708.3,-30.54 714.97,-38.78 718.65,-32.82"/>
</g>
<!-- Node13 -->
<g id="node13" class="node">
<title>Node13</title>
<g id="a_node13"><a xlink:title=" ">
<polygon fill="white" stroke="#bfbfbf" points="740,-11.5 740,-30.5 788,-30.5 788,-11.5 740,-11.5"/>
<text text-anchor="middle" x="764" y="-18.5" font-family="Helvetica,sans-Serif" font-size="10.00">thread</text>
</a>
</g>
</g>
<!-- Node2&#45;&gt;Node13 -->
<g id="edge12" class="edge">
<title>Node2&#45;&gt;Node13</title>
<path fill="none" stroke="midnightblue" d="M1681.8,-86.1C1505.66,-82.48 881.92,-67.95 797,-42 792.41,-40.6 787.8,-38.41 783.54,-35.99"/>
<polygon fill="midnightblue" stroke="midnightblue" points="785.26,-32.93 774.94,-30.53 781.51,-38.84 785.26,-32.93"/>
</g>
<!-- Node14 -->
<g id="node14" class="node">
<title>Node14</title>
<g id="a_node14"><a xlink:title=" ">
<polygon fill="white" stroke="#bfbfbf" points="806,-11.5 806,-30.5 852,-30.5 852,-11.5 806,-11.5"/>
<text text-anchor="middle" x="829" y="-18.5" font-family="Helvetica,sans-Serif" font-size="10.00">cstdio</text>
</a>
</g>
</g>
<!-- Node2&#45;&gt;Node14 -->
<g id="edge13" class="edge">
<title>Node2&#45;&gt;Node14</title>
<path fill="none" stroke="midnightblue" d="M1681.83,-85.96C1513.63,-81.98 939.39,-66.7 861,-42 856.64,-40.63 852.28,-38.52 848.25,-36.17"/>
<polygon fill="midnightblue" stroke="midnightblue" points="849.86,-33.05 839.57,-30.52 846.04,-38.91 849.86,-33.05"/>
</g>
<!-- Node15 -->
<g id="node15" class="node">
<title>Node15</title>
<g id="a_node15"><a xlink:title=" ">
<polygon fill="white" stroke="#bfbfbf" points="870.5,-11.5 870.5,-30.5 919.5,-30.5 919.5,-11.5 870.5,-11.5"/>
<text text-anchor="middle" x="895" y="-18.5" font-family="Helvetica,sans-Serif" font-size="10.00">cstdlib</text>
</a>
</g>
</g>
<!-- Node2&#45;&gt;Node15 -->
<g id="edge14" class="edge">
<title>Node2&#45;&gt;Node15</title>
<path fill="none" stroke="midnightblue" d="M1681.77,-87.24C1533.48,-87.58 1071.2,-85.05 929,-42 924.17,-40.54 919.31,-38.26 914.83,-35.76"/>
<polygon fill="midnightblue" stroke="midnightblue" points="916.66,-32.78 906.31,-30.51 912.99,-38.74 916.66,-32.78"/>
</g>
<!-- Node16 -->
<g id="node16" class="node">
<title>Node16</title>
<g id="a_node16"><a xlink:title=" ">
<polygon fill="white" stroke="#bfbfbf" points="938,-11.5 938,-30.5 982,-30.5 982,-11.5 938,-11.5"/>
<text text-anchor="middle" x="960" y="-18.5" font-family="Helvetica,sans-Serif" font-size="10.00">string</text>
</a>
</g>
</g>
<!-- Node2&#45;&gt;Node16 -->
<g id="edge15" class="edge">
<title>Node2&#45;&gt;Node16</title>
<path fill="none" stroke="midnightblue" d="M1681.61,-87.22C1540.81,-87.42 1120.11,-84.35 991,-42 986.94,-40.67 982.89,-38.67 979.12,-36.45"/>
<polygon fill="midnightblue" stroke="midnightblue" points="980.75,-33.33 970.49,-30.7 976.87,-39.16 980.75,-33.33"/>
</g>
<!-- Node17 -->
<g id="node17" class="node">
<title>Node17</title>
<g id="a_node17"><a xlink:title=" ">
<polygon fill="white" stroke="#bfbfbf" points="1000,-11.5 1000,-30.5 1050,-30.5 1050,-11.5 1000,-11.5"/>
<text text-anchor="middle" x="1025" y="-18.5" font-family="Helvetica,sans-Serif" font-size="10.00">cstring</text>
</a>
</g>
</g>
<!-- Node2&#45;&gt;Node17 -->
<g id="edge16" class="edge">
<title>Node2&#45;&gt;Node17</title>
<path fill="none" stroke="midnightblue" d="M1681.8,-86.65C1550.26,-85.22 1175.65,-78.01 1059,-42 1054.38,-40.58 1049.73,-38.42 1045.41,-36.04"/>
<polygon fill="midnightblue" stroke="midnightblue" points="1046.99,-32.9 1036.63,-30.68 1043.34,-38.88 1046.99,-32.9"/>
</g>
<!-- Node18 -->
<g id="node18" class="node">
<title>Node18</title>
<g id="a_node18"><a xlink:title=" ">
<polygon fill="white" stroke="#bfbfbf" points="1068.5,-11.5 1068.5,-30.5 1123.5,-30.5 1123.5,-11.5 1068.5,-11.5"/>
<text text-anchor="middle" x="1096" y="-18.5" font-family="Helvetica,sans-Serif" font-size="10.00">fstream</text>
</a>
</g>
</g>
<!-- Node2&#45;&gt;Node18 -->
<g id="edge17" class="edge">
<title>Node2&#45;&gt;Node18</title>
<path fill="none" stroke="midnightblue" d="M1681.72,-86.06C1560.27,-83.2 1234.75,-72.8 1132,-42 1127.04,-40.51 1122,-38.27 1117.33,-35.81"/>
<polygon fill="midnightblue" stroke="midnightblue" points="1118.81,-32.62 1108.4,-30.64 1115.3,-38.68 1118.81,-32.62"/>
</g>
<!-- Node19 -->
<g id="node19" class="node">
<title>Node19</title>
<g id="a_node19"><a xlink:title=" ">
<polygon fill="white" stroke="#bfbfbf" points="1141.5,-11.5 1141.5,-30.5 1188.5,-30.5 1188.5,-11.5 1141.5,-11.5"/>
<text text-anchor="middle" x="1165" y="-18.5" font-family="Helvetica,sans-Serif" font-size="10.00">vector</text>
</a>
</g>
</g>
<!-- Node2&#45;&gt;Node19 -->
<g id="edge18" class="edge">
<title>Node2&#45;&gt;Node19</title>
<path fill="none" stroke="midnightblue" d="M1681.96,-85.78C1570.25,-82.4 1287.45,-71.13 1198,-42 1193.51,-40.54 1188.98,-38.36 1184.79,-35.98"/>
<polygon fill="midnightblue" stroke="midnightblue" points="1186.6,-32.98 1176.27,-30.62 1182.87,-38.91 1186.6,-32.98"/>
</g>
<!-- Node20 -->
<g id="node20" class="node">
<title>Node20</title>
<g id="a_node20"><a xlink:title=" ">
<polygon fill="white" stroke="#bfbfbf" points="1207,-11.5 1207,-30.5 1239,-30.5 1239,-11.5 1207,-11.5"/>
<text text-anchor="middle" x="1223" y="-18.5" font-family="Helvetica,sans-Serif" font-size="10.00">list</text>
</a>
</g>
</g>
<!-- Node2&#45;&gt;Node20 -->
<g id="edge19" class="edge">
<title>Node2&#45;&gt;Node20</title>
<path fill="none" stroke="midnightblue" d="M1681.85,-86.03C1577.42,-83.29 1325.99,-73.52 1248,-42 1245,-40.79 1242.08,-39.1 1239.35,-37.21"/>
<polygon fill="midnightblue" stroke="midnightblue" points="1241.42,-34.37 1231.43,-30.82 1237.02,-39.82 1241.42,-34.37"/>
</g>
<!-- Node21 -->
<g id="node21" class="node">
<title>Node21</title>
<g id="a_node21"><a xlink:title=" ">
<polygon fill="white" stroke="#bfbfbf" points="1257.5,-11.5 1257.5,-30.5 1304.5,-30.5 1304.5,-11.5 1257.5,-11.5"/>
<text text-anchor="middle" x="1281" y="-18.5" font-family="Helvetica,sans-Serif" font-size="10.00">queue</text>
</a>
</g>
</g>
<!-- Node2&#45;&gt;Node21 -->
<g id="edge20" class="edge">
<title>Node2&#45;&gt;Node21</title>
<path fill="none" stroke="midnightblue" d="M1681.85,-84.51C1588.66,-79.07 1381.19,-64.76 1314,-42 1309.52,-40.48 1305.01,-38.29 1300.82,-35.9"/>
<polygon fill="midnightblue" stroke="midnightblue" points="1302.63,-32.9 1292.3,-30.55 1298.91,-38.83 1302.63,-32.9"/>
</g>
<!-- Node22 -->
<g id="node22" class="node">
<title>Node22</title>
<g id="a_node22"><a xlink:title=" ">
<polygon fill="white" stroke="#bfbfbf" points="1323,-11.5 1323,-30.5 1387,-30.5 1387,-11.5 1323,-11.5"/>
<text text-anchor="middle" x="1355" y="-18.5" font-family="Helvetica,sans-Serif" font-size="10.00">algorithm</text>
</a>
</g>
</g>
<!-- Node2&#45;&gt;Node22 -->
<g id="edge21" class="edge">
<title>Node2&#45;&gt;Node22</title>
<path fill="none" stroke="midnightblue" d="M1681.91,-85.38C1616.89,-82.06 1495.08,-72.03 1396,-42 1390.32,-40.28 1384.44,-37.85 1378.98,-35.27"/>
<polygon fill="midnightblue" stroke="midnightblue" points="1380.22,-31.98 1369.72,-30.6 1377.07,-38.23 1380.22,-31.98"/>
</g>
<!-- Node23 -->
<g id="node23" class="node">
<title>Node23</title>
<g id="a_node23"><a xlink:title=" ">
<polygon fill="white" stroke="#bfbfbf" points="1405,-11.5 1405,-30.5 1443,-30.5 1443,-11.5 1405,-11.5"/>
<text text-anchor="middle" x="1424" y="-18.5" font-family="Helvetica,sans-Serif" font-size="10.00">map</text>
</a>
</g>
</g>
<!-- Node2&#45;&gt;Node23 -->
<g id="edge22" class="edge">
<title>Node2&#45;&gt;Node23</title>
<path fill="none" stroke="midnightblue" d="M1681.81,-85.85C1625.55,-83.03 1528.53,-73.54 1452,-42 1448.58,-40.59 1445.18,-38.7 1441.99,-36.63"/>
<polygon fill="midnightblue" stroke="midnightblue" points="1443.85,-33.66 1433.7,-30.62 1439.74,-39.33 1443.85,-33.66"/>
</g>
<!-- Node24 -->
<g id="node24" class="node">
<title>Node24</title>
<g id="a_node24"><a xlink:title=" ">
<polygon fill="white" stroke="#bfbfbf" points="1461,-11.5 1461,-30.5 1513,-30.5 1513,-11.5 1461,-11.5"/>
<text text-anchor="middle" x="1487" y="-18.5" font-family="Helvetica,sans-Serif" font-size="10.00">cassert</text>
</a>
</g>
</g>
<!-- Node2&#45;&gt;Node24 -->
<g id="edge23" class="edge">
<title>Node2&#45;&gt;Node24</title>
<path fill="none" stroke="midnightblue" d="M1681.84,-81.02C1639.31,-74.57 1574.96,-62.37 1522,-42 1517.54,-40.29 1512.98,-38.07 1508.68,-35.73"/>
<polygon fill="midnightblue" stroke="midnightblue" points="1510.23,-32.59 1499.83,-30.59 1506.71,-38.64 1510.23,-32.59"/>
</g>
<!-- Node25 -->
<g id="node25" class="node">
<title>Node25</title>
<g id="a_node25"><a xlink:title=" ">
<polygon fill="white" stroke="#bfbfbf" points="1531.5,-11.5 1531.5,-30.5 1614.5,-30.5 1614.5,-11.5 1531.5,-11.5"/>
<text text-anchor="middle" x="1573" y="-18.5" font-family="Helvetica,sans-Serif" font-size="10.00">libconfig.h++</text>
</a>
</g>
</g>
<!-- Node2&#45;&gt;Node25 -->
<g id="edge24" class="edge">
<title>Node2&#45;&gt;Node25</title>
<path fill="none" stroke="midnightblue" d="M1707.42,-78.37C1680.67,-67.15 1633.75,-47.48 1603.03,-34.59"/>
<polygon fill="midnightblue" stroke="midnightblue" points="1604.24,-31.31 1593.67,-30.67 1601.54,-37.76 1604.24,-31.31"/>
</g>
<!-- Node26 -->
<g id="node26" class="node">
<title>Node26</title>
<g id="a_node26"><a xlink:href="defines_8hpp.html" target="_top" xlink:title=" ">
<polygon fill="white" stroke="black" points="1632.5,-11.5 1632.5,-30.5 1705.5,-30.5 1705.5,-11.5 1632.5,-11.5"/>
<text text-anchor="middle" x="1669" y="-18.5" font-family="Helvetica,sans-Serif" font-size="10.00">defines.hpp</text>
</a>
</g>
</g>
<!-- Node2&#45;&gt;Node26 -->
<g id="edge25" class="edge">
<title>Node2&#45;&gt;Node26</title>
<path fill="none" stroke="midnightblue" d="M1720.04,-78.23C1710.75,-68 1695.2,-50.86 1683.7,-38.19"/>
<polygon fill="midnightblue" stroke="midnightblue" points="1686.14,-35.68 1676.83,-30.63 1680.96,-40.38 1686.14,-35.68"/>
</g>
<!-- Node27 -->
<g id="node27" class="node">
<title>Node27</title>
<g id="a_node27"><a xlink:href="enumerations_8hpp.html" target="_top" xlink:title=" ">
<polygon fill="white" stroke="black" points="1723.5,-11.5 1723.5,-30.5 1852.5,-30.5 1852.5,-11.5 1723.5,-11.5"/>
<text text-anchor="middle" x="1788" y="-18.5" font-family="Helvetica,sans-Serif" font-size="10.00">utils/enumerations.hpp</text>
</a>
</g>
</g>
<!-- Node2&#45;&gt;Node27 -->
<g id="edge26" class="edge">
<title>Node2&#45;&gt;Node27</title>
<path fill="none" stroke="midnightblue" d="M1736.09,-78.23C1745.54,-68 1761.36,-50.86 1773.05,-38.19"/>
<polygon fill="midnightblue" stroke="midnightblue" points="1775.83,-40.35 1780.04,-30.63 1770.68,-35.6 1775.83,-40.35"/>
</g>
<!-- Node28 -->
<g id="node28" class="node">
<title>Node28</title>
<g id="a_node28"><a xlink:href="macros_8hpp.html" target="_top" xlink:title=" ">
<polygon fill="white" stroke="black" points="1871,-11.5 1871,-30.5 1969,-30.5 1969,-11.5 1871,-11.5"/>
<text text-anchor="middle" x="1920" y="-18.5" font-family="Helvetica,sans-Serif" font-size="10.00">utils/macros.hpp</text>
</a>
</g>
</g>
<!-- Node2&#45;&gt;Node28 -->
<g id="edge27" class="edge">
<title>Node2&#45;&gt;Node28</title>
<path fill="none" stroke="midnightblue" d="M1753.71,-78.43C1780.7,-69.43 1824.36,-54.81 1862,-42 1869.73,-39.37 1878.03,-36.52 1885.86,-33.82"/>
<polygon fill="midnightblue" stroke="midnightblue" points="1887.15,-37.08 1895.46,-30.51 1884.87,-30.46 1887.15,-37.08"/>
</g>
<!-- Node29 -->
<g id="node29" class="node">
<title>Node29</title>
<g id="a_node29"><a xlink:href="orcs__engine_8hpp.html" target="_top" xlink:title=" ">
<polygon fill="white" stroke="black" points="1987,-11.5 1987,-30.5 2089,-30.5 2089,-11.5 1987,-11.5"/>
<text text-anchor="middle" x="2038" y="-18.5" font-family="Helvetica,sans-Serif" font-size="10.00">./orcs_engine.hpp</text>
</a>
</g>
</g>
<!-- Node2&#45;&gt;Node29 -->
<g id="edge29" class="edge">
<title>Node2&#45;&gt;Node29</title>
<path fill="none" stroke="midnightblue" d="M1774.04,-80.74C1824.53,-73.41 1907.71,-59.94 1978,-42 1986.97,-39.71 1996.53,-36.76 2005.33,-33.83"/>
<polygon fill="midnightblue" stroke="midnightblue" points="2006.54,-37.12 2014.87,-30.58 2004.27,-30.5 2006.54,-37.12"/>
</g>
<!-- Node30 -->
<g id="node30" class="node">
<title>Node30</title>
<g id="a_node30"><a xlink:href="config_8hpp.html" target="_top" xlink:title=" ">
<polygon fill="white" stroke="black" points="2107.5,-11.5 2107.5,-30.5 2212.5,-30.5 2212.5,-11.5 2107.5,-11.5"/>
<text text-anchor="middle" x="2160" y="-18.5" font-family="Helvetica,sans-Serif" font-size="10.00">./config/config.hpp</text>
</a>
</g>
</g>
<!-- Node2&#45;&gt;Node30 -->
<g id="edge30" class="edge">
<title>Node2&#45;&gt;Node30</title>
<path fill="none" stroke="midnightblue" d="M1774.04,-84.24C1844.49,-79.37 1982.98,-67.3 2098,-42 2107.65,-39.88 2117.94,-36.87 2127.3,-33.84"/>
<polygon fill="midnightblue" stroke="midnightblue" points="2128.66,-37.07 2137.03,-30.57 2126.44,-30.44 2128.66,-37.07"/>
</g>
<!-- Node31 -->
<g id="node31" class="node">
<title>Node31</title>
<g id="a_node31"><a xlink:href="trace__reader_8hpp.html" target="_top" xlink:title=" ">
<polygon fill="white" stroke="black" points="2231,-11.5 2231,-30.5 2335,-30.5 2335,-11.5 2231,-11.5"/>
<text text-anchor="middle" x="2283" y="-18.5" font-family="Helvetica,sans-Serif" font-size="10.00">./trace_reader.hpp</text>
</a>
</g>
</g>
<!-- Node2&#45;&gt;Node31 -->
<g id="edge31" class="edge">
<title>Node2&#45;&gt;Node31</title>
<path fill="none" stroke="midnightblue" d="M1774.14,-86.26C1862.14,-84.09 2059.65,-75.56 2222,-42 2231.7,-40 2242.01,-36.97 2251.35,-33.88"/>
<polygon fill="midnightblue" stroke="midnightblue" points="2252.71,-37.11 2261.02,-30.54 2250.42,-30.5 2252.71,-37.11"/>
</g>
<!-- Node32 -->
<g id="node32" class="node">
<title>Node32</title>
<g id="a_node32"><a xlink:href="memory__request__client_8hpp.html" target="_top" xlink:title=" ">
<polygon fill="white" stroke="black" points="2353,-6 2353,-36 2491,-36 2491,-6 2353,-6"/>
<text text-anchor="start" x="2361" y="-24" font-family="Helvetica,sans-Serif" font-size="10.00">./main_memory/memory</text>
<text text-anchor="middle" x="2422" y="-13" font-family="Helvetica,sans-Serif" font-size="10.00">_request_client.hpp</text>
</a>
</g>
</g>
<!-- Node2&#45;&gt;Node32 -->
<g id="edge32" class="edge">
<title>Node2&#45;&gt;Node32</title>
<path fill="none" stroke="midnightblue" d="M1774.31,-86.43C1877.35,-84.54 2133.14,-76.45 2344,-42 2350.16,-40.99 2356.54,-39.73 2362.88,-38.33"/>
<polygon fill="midnightblue" stroke="midnightblue" points="2363.82,-41.71 2372.77,-36.04 2362.23,-34.89 2363.82,-41.71"/>
</g>
<!-- Node33 -->
<g id="node33" class="node">
<title>Node33</title>
<g id="a_node33"><a xlink:href="opcode__package_8hpp.html" target="_top" xlink:title=" ">
<polygon fill="white" stroke="black" points="2509,-11.5 2509,-30.5 2677,-30.5 2677,-11.5 2509,-11.5"/>
<text text-anchor="middle" x="2593" y="-18.5" font-family="Helvetica,sans-Serif" font-size="10.00">./package/opcode_package.hpp</text>
</a>
</g>
</g>
<!-- Node2&#45;&gt;Node33 -->
<g id="edge33" class="edge">
<title>Node2&#45;&gt;Node33</title>
<path fill="none" stroke="midnightblue" d="M1774.36,-86.77C1894.68,-85.65 2226.62,-79.14 2500,-42 2516.24,-39.79 2533.87,-36.29 2549.37,-32.83"/>
<polygon fill="midnightblue" stroke="midnightblue" points="2550.24,-36.22 2559.21,-30.58 2548.68,-29.4 2550.24,-36.22"/>
</g>
<!-- Node34 -->
<g id="node34" class="node">
<title>Node34</title>
<g id="a_node34"><a xlink:href="utils_8hpp.html" target="_top" xlink:title=" ">
<polygon fill="white" stroke="black" points="2694.5,-11.5 2694.5,-30.5 2783.5,-30.5 2783.5,-11.5 2694.5,-11.5"/>
<text text-anchor="middle" x="2739" y="-18.5" font-family="Helvetica,sans-Serif" font-size="10.00">./utils/utils.hpp</text>
</a>
</g>
</g>
<!-- Node2&#45;&gt;Node34 -->
<g id="edge35" class="edge">
<title>Node2&#45;&gt;Node34</title>
<path fill="none" stroke="midnightblue" d="M1774.17,-86.74C1940.49,-85.52 2508.58,-78.68 2686,-42 2694.26,-40.29 2702.94,-37.48 2710.82,-34.5"/>
<polygon fill="midnightblue" stroke="midnightblue" points="2712.32,-37.67 2720.3,-30.71 2709.71,-31.18 2712.32,-37.67"/>
</g>
<!-- Node35 -->
<g id="node35" class="node">
<title>Node35</title>
<g id="a_node35"><a xlink:href="disambiguation_8hpp.html" target="_top" xlink:title=" ">
<polygon fill="white" stroke="black" points="2801.5,-6 2801.5,-36 2998.5,-36 2998.5,-6 2801.5,-6"/>
<text text-anchor="start" x="2809.5" y="-24" font-family="Helvetica,sans-Serif" font-size="10.00">./processor/memory</text>
<text text-anchor="middle" x="2900" y="-13" font-family="Helvetica,sans-Serif" font-size="10.00">_disambiguation/disambiguation.hpp</text>
</a>
</g>
</g>
<!-- Node2&#45;&gt;Node35 -->
<g id="edge36" class="edge">
<title>Node2&#45;&gt;Node35</title>
<path fill="none" stroke="midnightblue" d="M1774.11,-87.39C1922.48,-88.16 2400.67,-86.72 2793,-42 2802.79,-40.88 2813.02,-39.39 2823.12,-37.73"/>
<polygon fill="midnightblue" stroke="midnightblue" points="2823.89,-41.15 2833.15,-36.01 2822.71,-34.25 2823.89,-41.15"/>
</g>
<!-- Node36 -->
<g id="node36" class="node">
<title>Node36</title>
<g id="a_node36"><a xlink:href="disambiguation__hashed_8hpp.html" target="_top" xlink:title=" ">
<polygon fill="white" stroke="black" points="3017,-0.5 3017,-41.5 3193,-41.5 3193,-0.5 3017,-0.5"/>
<text text-anchor="start" x="3025" y="-29.5" font-family="Helvetica,sans-Serif" font-size="10.00">./processor/memory</text>
<text text-anchor="start" x="3025" y="-18.5" font-family="Helvetica,sans-Serif" font-size="10.00">_disambiguation/disambiguation</text>
<text text-anchor="middle" x="3105" y="-7.5" font-family="Helvetica,sans-Serif" font-size="10.00">_hashed.hpp</text>
</a>
</g>
</g>
<!-- Node2&#45;&gt;Node36 -->
<g id="edge37" class="edge">
<title>Node2&#45;&gt;Node36</title>
<path fill="none" stroke="midnightblue" d="M1774.05,-86.42C1970.74,-83.78 2741.9,-71.8 3006.85,-42"/>
<polygon fill="midnightblue" stroke="midnightblue" points="3007.29,-45.47 3016.82,-40.84 3006.48,-38.52 3007.29,-45.47"/>
</g>
<!-- Node37 -->
<g id="node37" class="node">
<title>Node37</title>
<g id="a_node37"><a xlink:href="uop__package_8hpp.html" target="_top" xlink:title=" ">
<polygon fill="white" stroke="black" points="3211.5,-11.5 3211.5,-30.5 3362.5,-30.5 3362.5,-11.5 3211.5,-11.5"/>
<text text-anchor="middle" x="3287" y="-18.5" font-family="Helvetica,sans-Serif" font-size="10.00">./package/uop_package.hpp</text>
</a>
</g>
</g>
<!-- Node2&#45;&gt;Node37 -->
<g id="edge38" class="edge">
<title>Node2&#45;&gt;Node37</title>
<path fill="none" stroke="midnightblue" d="M1774.32,-86.84C1992.16,-85.87 2916.12,-79.61 3202,-42 3217,-40.03 3233.22,-36.55 3247.43,-33.05"/>
<polygon fill="midnightblue" stroke="midnightblue" points="3248.55,-36.38 3257.37,-30.51 3246.82,-29.59 3248.55,-36.38"/>
</g>
<!-- Node38 -->
<g id="node38" class="node">
<title>Node38</title>
<g id="a_node38"><a xlink:href="memory__package_8hpp.html" target="_top" xlink:title=" ">
<polygon fill="white" stroke="black" points="3381,-11.5 3381,-30.5 3555,-30.5 3555,-11.5 3381,-11.5"/>
<text text-anchor="middle" x="3468" y="-18.5" font-family="Helvetica,sans-Serif" font-size="10.00">./package/memory_package.hpp</text>
</a>
</g>
</g>
<!-- Node2&#45;&gt;Node38 -->
<g id="edge39" class="edge">
<title>Node2&#45;&gt;Node38</title>
<path fill="none" stroke="midnightblue" d="M1774.12,-86.85C2006.45,-85.91 3050.12,-79.63 3372,-42 3389.36,-39.97 3408.24,-36.35 3424.63,-32.74"/>
<polygon fill="midnightblue" stroke="midnightblue" points="3425.5,-36.14 3434.47,-30.51 3423.95,-29.31 3425.5,-36.14"/>
</g>
<!-- Node39 -->
<g id="node39" class="node">
<title>Node39</title>
<g id="a_node39"><a xlink:href="reorder__buffer__line_8hpp.html" target="_top" xlink:title=" ">
<polygon fill="white" stroke="black" points="3573,-6 3573,-36 3681,-36 3681,-6 3573,-6"/>
<text text-anchor="start" x="3581" y="-24" font-family="Helvetica,sans-Serif" font-size="10.00">./processor/reorder</text>
<text text-anchor="middle" x="3627" y="-13" font-family="Helvetica,sans-Serif" font-size="10.00">_buffer_line.hpp</text>
</a>
</g>
</g>
<!-- Node2&#45;&gt;Node39 -->
<g id="edge40" class="edge">
<title>Node2&#45;&gt;Node39</title>
<path fill="none" stroke="midnightblue" d="M1774.06,-86.65C2040.9,-84.51 3382.89,-72.33 3564,-42 3568.97,-41.17 3574.08,-40.03 3579.15,-38.73"/>
<polygon fill="midnightblue" stroke="midnightblue" points="3580.09,-42.1 3588.78,-36.03 3578.2,-35.36 3580.09,-42.1"/>
</g>
<!-- Node40 -->
<g id="node40" class="node">
<title>Node40</title>
<g id="a_node40"><a xlink:href="memory__order__buffer__line_8hpp.html" target="_top" xlink:title=" ">
<polygon fill="white" stroke="black" points="3699.5,-6 3699.5,-36 3824.5,-36 3824.5,-6 3699.5,-6"/>
<text text-anchor="start" x="3707.5" y="-24" font-family="Helvetica,sans-Serif" font-size="10.00">./processor/memory</text>
<text text-anchor="middle" x="3762" y="-13" font-family="Helvetica,sans-Serif" font-size="10.00">_order_buffer_line.hpp</text>
</a>
</g>
</g>
<!-- Node2&#45;&gt;Node40 -->
<g id="edge41" class="edge">
<title>Node2&#45;&gt;Node40</title>
<path fill="none" stroke="midnightblue" d="M1774.01,-86.63C2051.36,-84.3 3495.15,-70.84 3690,-42 3695.92,-41.12 3702.04,-39.91 3708.11,-38.52"/>
<polygon fill="midnightblue" stroke="midnightblue" points="3709.33,-41.82 3718.2,-36.02 3707.66,-35.03 3709.33,-41.82"/>
</g>
<!-- Node41 -->
<g id="node41" class="node">
<title>Node41</title>
<g id="a_node41"><a xlink:href="processor_8hpp.html" target="_top" xlink:title=" ">
<polygon fill="white" stroke="black" points="3843,-11.5 3843,-30.5 3983,-30.5 3983,-11.5 3843,-11.5"/>
<text text-anchor="middle" x="3913" y="-18.5" font-family="Helvetica,sans-Serif" font-size="10.00">./processor/processor.hpp</text>
</a>
</g>
</g>
<!-- Node2&#45;&gt;Node41 -->
<g id="edge42" class="edge">
<title>Node2&#45;&gt;Node41</title>
<path fill="none" stroke="midnightblue" d="M1774.05,-86.64C2063.27,-84.31 3623.7,-70.49 3834,-42 3847.72,-40.14 3862.49,-36.78 3875.51,-33.34"/>
<polygon fill="midnightblue" stroke="midnightblue" points="3876.8,-36.61 3885.52,-30.59 3874.95,-29.87 3876.8,-36.61"/>
</g>
<!-- Node42 -->
<g id="node42" class="node">
<title>Node42</title>
<g id="a_node42"><a xlink:href="btb__line_8hpp.html" target="_top" xlink:title=" ">
<polygon fill="white" stroke="black" points="4001,-6 4001,-36 4105,-36 4105,-6 4001,-6"/>
<text text-anchor="start" x="4009" y="-24" font-family="Helvetica,sans-Serif" font-size="10.00">./branch_predictor</text>
<text text-anchor="middle" x="4053" y="-13" font-family="Helvetica,sans-Serif" font-size="10.00">/btb_line.hpp</text>
</a>
</g>
</g>
<!-- Node2&#45;&gt;Node42 -->
<g id="edge43" class="edge">
<title>Node2&#45;&gt;Node42</title>
<path fill="none" stroke="midnightblue" d="M1774.07,-86.9C2075.97,-86.17 3766.24,-80.37 3992,-42 3996.7,-41.2 4001.53,-40.11 4006.31,-38.85"/>
<polygon fill="midnightblue" stroke="midnightblue" points="4007.38,-42.19 4016.02,-36.06 4005.44,-35.46 4007.38,-42.19"/>
</g>
<!-- Node43 -->
<g id="node43" class="node">
<title>Node43</title>
<g id="a_node43"><a xlink:href="btb_8hpp.html" target="_top" xlink:title=" ">
<polygon fill="white" stroke="black" points="4123,-6 4123,-36 4227,-36 4227,-6 4123,-6"/>
<text text-anchor="start" x="4131" y="-24" font-family="Helvetica,sans-Serif" font-size="10.00">./branch_predictor</text>
<text text-anchor="middle" x="4175" y="-13" font-family="Helvetica,sans-Serif" font-size="10.00">/btb.hpp</text>
</a>
</g>
</g>
<!-- Node2&#45;&gt;Node43 -->
<g id="edge44" class="edge">
<title>Node2&#45;&gt;Node43</title>
<path fill="none" stroke="midnightblue" d="M1774.03,-86.96C2085.15,-86.54 3875.42,-82.42 4114,-42 4118.7,-41.2 4123.53,-40.12 4128.31,-38.86"/>
<polygon fill="midnightblue" stroke="midnightblue" points="4129.38,-42.19 4138.02,-36.07 4127.45,-35.46 4129.38,-42.19"/>
</g>
<!-- Node44 -->
<g id="node44" class="node">
<title>Node44</title>
<g id="a_node44"><a xlink:href="predictor_8hpp.html" target="_top" xlink:title=" ">
<polygon fill="white" stroke="black" points="4245,-6 4245,-36 4349,-36 4349,-6 4245,-6"/>
<text text-anchor="start" x="4253" y="-24" font-family="Helvetica,sans-Serif" font-size="10.00">./branch_predictor</text>
<text text-anchor="middle" x="4297" y="-13" font-family="Helvetica,sans-Serif" font-size="10.00">/predictor.hpp</text>
</a>
</g>
</g>
<!-- Node2&#45;&gt;Node44 -->
<g id="edge45" class="edge">
<title>Node2&#45;&gt;Node44</title>
<path fill="none" stroke="midnightblue" d="M1774.05,-87C2094.34,-86.9 3984.6,-84.48 4236,-42 4240.7,-41.21 4245.53,-40.12 4250.31,-38.86"/>
<polygon fill="midnightblue" stroke="midnightblue" points="4251.38,-42.2 4260.02,-36.07 4249.45,-35.47 4251.38,-42.2"/>
</g>
<!-- Node45 -->
<g id="node45" class="node">
<title>Node45</title>
<g id="a_node45"><a xlink:href="piecewise_8hpp.html" target="_top" xlink:title=" ">
<polygon fill="white" stroke="black" points="4367,-6 4367,-36 4471,-36 4471,-6 4367,-6"/>
<text text-anchor="start" x="4375" y="-24" font-family="Helvetica,sans-Serif" font-size="10.00">./branch_predictor</text>
<text text-anchor="middle" x="4419" y="-13" font-family="Helvetica,sans-Serif" font-size="10.00">/piecewise.hpp</text>
</a>
</g>
</g>
<!-- Node2&#45;&gt;Node45 -->
<g id="edge46" class="edge">
<title>Node2&#45;&gt;Node45</title>
<path fill="none" stroke="midnightblue" d="M1774.16,-87.04C2103.69,-87.23 4093.79,-86.53 4358,-42 4362.7,-41.21 4367.53,-40.12 4372.32,-38.86"/>
<polygon fill="midnightblue" stroke="midnightblue" points="4373.38,-42.2 4382.02,-36.08 4371.45,-35.47 4373.38,-42.2"/>
</g>
<!-- Node46 -->
<g id="node46" class="node">
<title>Node46</title>
<g id="a_node46"><a xlink:href="two_bit_8hpp.html" target="_top" xlink:title=" ">
<polygon fill="white" stroke="black" points="4489,-6 4489,-36 4593,-36 4593,-6 4489,-6"/>
<text text-anchor="start" x="4497" y="-24" font-family="Helvetica,sans-Serif" font-size="10.00">./branch_predictor</text>
<text text-anchor="middle" x="4541" y="-13" font-family="Helvetica,sans-Serif" font-size="10.00">/twoBit.hpp</text>
</a>
</g>
</g>
<!-- Node2&#45;&gt;Node46 -->
<g id="edge47" class="edge">
<title>Node2&#45;&gt;Node46</title>
<path fill="none" stroke="midnightblue" d="M1774.12,-87.08C2112.23,-87.56 4202.93,-88.59 4480,-42 4484.7,-41.21 4489.53,-40.13 4494.32,-38.87"/>
<polygon fill="midnightblue" stroke="midnightblue" points="4495.38,-42.2 4504.03,-36.08 4493.45,-35.48 4495.38,-42.2"/>
</g>
<!-- Node47 -->
<g id="node47" class="node">
<title>Node47</title>
<g id="a_node47"><a xlink:href="branch__predictor_8hpp.html" target="_top" xlink:title=" ">
<polygon fill="white" stroke="black" points="4611,-6 4611,-36 4733,-36 4733,-6 4611,-6"/>
<text text-anchor="start" x="4619" y="-24" font-family="Helvetica,sans-Serif" font-size="10.00">./branch_predictor</text>
<text text-anchor="middle" x="4672" y="-13" font-family="Helvetica,sans-Serif" font-size="10.00">/branch_predictor.hpp</text>
</a>
</g>
</g>
<!-- Node2&#45;&gt;Node47 -->
<g id="edge48" class="edge">
<title>Node2&#45;&gt;Node47</title>
<path fill="none" stroke="midnightblue" d="M1774.19,-87.01C2120.99,-86.97 4311.22,-85.05 4602,-42 4607.77,-41.15 4613.73,-39.95 4619.63,-38.56"/>
<polygon fill="midnightblue" stroke="midnightblue" points="4620.61,-41.93 4629.45,-36.08 4618.89,-35.14 4620.61,-41.93"/>
</g>
<!-- Node48 -->
<g id="node48" class="node">
<title>Node48</title>
<g id="a_node48"><a xlink:href="linha_8hpp.html" target="_top" xlink:title=" ">
<polygon fill="white" stroke="black" points="4751.5,-11.5 4751.5,-30.5 4850.5,-30.5 4850.5,-11.5 4751.5,-11.5"/>
<text text-anchor="middle" x="4801" y="-18.5" font-family="Helvetica,sans-Serif" font-size="10.00">./cache/linha.hpp</text>
</a>
</g>
</g>
<!-- Node2&#45;&gt;Node48 -->
<g id="edge49" class="edge">
<title>Node2&#45;&gt;Node48</title>
<path fill="none" stroke="midnightblue" d="M1774.27,-86.72C2142.58,-84.44 4589.43,-68.33 4742,-42 4751.78,-40.31 4762.14,-37.26 4771.39,-34.05"/>
<polygon fill="midnightblue" stroke="midnightblue" points="4772.75,-37.28 4780.93,-30.55 4770.34,-30.71 4772.75,-37.28"/>
</g>
<!-- Node49 -->
<g id="node49" class="node">
<title>Node49</title>
<g id="a_node49"><a xlink:href="cache_set_8hpp.html" target="_top" xlink:title=" ">
<polygon fill="white" stroke="black" points="4868.5,-11.5 4868.5,-30.5 4987.5,-30.5 4987.5,-11.5 4868.5,-11.5"/>
<text text-anchor="middle" x="4928" y="-18.5" font-family="Helvetica,sans-Serif" font-size="10.00">./cache/cacheSet.hpp</text>
</a>
</g>
</g>
<!-- Node2&#45;&gt;Node49 -->
<g id="edge50" class="edge">
<title>Node2&#45;&gt;Node49</title>
<path fill="none" stroke="midnightblue" d="M1774.21,-87.09C2138.54,-87.74 4542.1,-90.11 4860,-42 4871.64,-40.24 4884.09,-37 4895.1,-33.63"/>
<polygon fill="midnightblue" stroke="midnightblue" points="4896.29,-36.92 4904.75,-30.54 4894.16,-30.26 4896.29,-36.92"/>
</g>
<!-- Node50 -->
<g id="node50" class="node">
<title>Node50</title>
<g id="a_node50"><a xlink:href="cache_8hpp.html" target="_top" xlink:title=" ">
<polygon fill="white" stroke="black" points="5006,-11.5 5006,-30.5 5110,-30.5 5110,-11.5 5006,-11.5"/>
<text text-anchor="middle" x="5058" y="-18.5" font-family="Helvetica,sans-Serif" font-size="10.00">./cache/cache.hpp</text>
</a>
</g>
</g>
<!-- Node2&#45;&gt;Node50 -->
<g id="edge51" class="edge">
<title>Node2&#45;&gt;Node50</title>
<path fill="none" stroke="midnightblue" d="M1774.14,-86.76C2159.38,-84.74 4830.79,-69.73 4997,-42 5007.2,-40.3 5018.02,-37.2 5027.67,-33.95"/>
<polygon fill="midnightblue" stroke="midnightblue" points="5028.97,-37.2 5037.22,-30.55 5026.63,-30.6 5028.97,-37.2"/>
</g>
</g>
</svg>
        <g id="navigator" transform="translate(0 0)" fill="#404254">
                <rect fill="#f2f5e9" fill-opacity="0.5" stroke="#606060" stroke-width=".5" x="0" y="0" width="60" height="60"/>
                <use id="zoomplus" xlink:href="#zoomPlus" x="17" y="9" onmousedown="handleZoom(evt,'in')"/>
                <use id="zoomminus" xlink:href="#zoomMin" x="42" y="9" onmousedown="handleZoom(evt,'out')"/>
                <use id="reset" xlink:href="#resetDef" x="30" y="36" onmousedown="handleReset()"/>
                <g id="arrowUp" xlink:href="#dirArrow" transform="translate(30 24)" onmousedown="handlePan(0,-1)">
                  <use xlink:href="#rim" fill="#404040">
                        <set attributeName="fill" to="#808080" begin="arrowUp.mouseover" end="arrowUp.mouseout"/>
                  </use>
                  <path fill="none" stroke="white" stroke-width="1.5" d="M0,-3.0v7 M-2.5,-0.5L0,-3.0L2.5,-0.5"/>
                </g>
                <g id="arrowRight" xlink:href="#dirArrow" transform="rotate(90) translate(36 -43)" onmousedown="handlePan(1,0)">
                  <use xlink:href="#rim" fill="#404040">
                        <set attributeName="fill" to="#808080" begin="arrowRight.mouseover" end="arrowRight.mouseout"/>
                  </use>
                  <path fill="none" stroke="white" stroke-width="1.5" d="M0,-3.0v7 M-2.5,-0.5L0,-3.0L2.5,-0.5"/>
                </g>
                <g id="arrowDown" xlink:href="#dirArrow" transform="rotate(180) translate(-30 -48)" onmousedown="handlePan(0,1)">
                  <use xlink:href="#rim" fill="#404040">
                        <set attributeName="fill" to="#808080" begin="arrowDown.mouseover" end="arrowDown.mouseout"/>
                  </use>
                  <path fill="none" stroke="white" stroke-width="1.5" d="M0,-3.0v7 M-2.5,-0.5L0,-3.0L2.5,-0.5"/>
                </g>
                <g id="arrowLeft" xlink:href="#dirArrow" transform="rotate(270) translate(-36 17)" onmousedown="handlePan(-1,0)">
                  <use xlink:href="#rim" fill="#404040">
                        <set attributeName="fill" to="#808080" begin="arrowLeft.mouseover" end="arrowLeft.mouseout"/>
                  </use>
                  <path fill="none" stroke="white" stroke-width="1.5" d="M0,-3.0v7 M-2.5,-0.5L0,-3.0L2.5,-0.5"/>
                </g>
        </g>
        <svg viewBox="0 0 15 15" width="100%" height="30px" preserveAspectRatio="xMaxYMin meet">
         <g id="arrow_out" transform="scale(0.3 0.3)">
          <a xlink:href="circular__buffer_8hpp__incl_org.svg" target="_base">
           <rect id="button" ry="5" rx="5" y="6" x="6" height="38" width="38"
                fill="#f2f5e9" fill-opacity="0.5" stroke="#606060" stroke-width="1.0"/>
           <path id="arrow"
             d="M 11.500037,31.436501 C 11.940474,20.09759 22.043105,11.32322 32.158766,21.979434 L 37.068811,17.246167 C 37.068811,17.246167 37.088388,32 37.088388,32 L 22.160133,31.978069 C 22.160133,31.978069 26.997745,27.140456 26.997745,27.140456 C 18.528582,18.264221 13.291696,25.230495 11.500037,31.436501 z"
             style="fill:#404040;"/>
          </a>
         </g>
        </svg>
</svg>
