<?xml version="1.0" encoding="UTF-8" standalone="no"?>
<!DOCTYPE svg PUBLIC "-//W3C//DTD SVG 1.1//EN"
 "http://www.w3.org/Graphics/SVG/1.1/DTD/svg11.dtd">
<!-- Generated by graphviz version 2.43.0 (0)
 -->
<!-- Title: utils/circular_buffer.hpp Pages: 1 -->
<!--zoomable 151 -->
<svg id="main" version="1.1" xmlns="http://www.w3.org/2000/svg" xmlns:xlink="http://www.w3.org/1999/xlink" xml:space="preserve" onload="init(evt)">
<style type="text/css"><![CDATA[
.edge:hover path { stroke: red; }
.edge:hover polygon { stroke: red; fill: red; }
]]></style>
<script type="text/javascript"><![CDATA[
var edges = document.getElementsByTagName('g');
if (edges && edges.length) {
  for (var i=0;i<edges.length;i++) {
    if (edges[i].id.substr(0,4)=='edge') {
      edges[i].setAttribute('class','edge');
    }
  }
}
]]></script>
        <defs>
                <circle id="rim" cx="0" cy="0" r="7"/>
                <circle id="rim2" cx="0" cy="0" r="3.5"/>
                <g id="zoomPlus">
                        <use xlink:href="#rim" fill="#404040">
                                <set attributeName="fill" to="#808080" begin="zoomplus.mouseover" end="zoomplus.mouseout"/>
                        </use>
                        <path d="M-4,0h8M0,-4v8" fill="none" stroke="white" stroke-width="1.5" pointer-events="none"/>
                </g>
                <g id="zoomMin">
                        <use xlink:href="#rim" fill="#404040">
                                <set attributeName="fill" to="#808080" begin="zoomminus.mouseover" end="zoomminus.mouseout"/>
                        </use>
                        <path d="M-4,0h8" fill="none" stroke="white" stroke-width="1.5" pointer-events="none"/>
                </g>
                <g id="dirArrow">
                        <path fill="none" stroke="white" stroke-width="1.5" d="M0,-3.0v7 M-2.5,-0.5L0,-3.0L2.5,-0.5"/>
                </g>
               <g id="resetDef">
                       <use xlink:href="#rim2" fill="#404040">
                               <set attributeName="fill" to="#808080" begin="reset.mouseover" end="reset.mouseout"/>
                       </use>
               </g>
        </defs>

<script type="text/javascript">
var viewWidth = 3924;
var viewHeight = 151;
var sectionId = 'dynsection-1';
</script>
<script xlink:href="svgpan.js"/>
<svg id="graph" class="graph">
<g id="viewport">
<title>utils/circular_buffer.hpp</title>
<polygon fill="white" stroke="transparent" points="-4,4 -4,-147 3919.5,-147 3919.5,4 -4,4"/>
<!-- Node1 -->
<g id="node1" class="node">
<title>Node1</title>
<g id="a_node1"><a xlink:title=" ">
<polygon fill="#bfbfbf" stroke="black" points="1906.5,-123.5 1906.5,-142.5 2037.5,-142.5 2037.5,-123.5 1906.5,-123.5"/>
<text text-anchor="middle" x="1972" y="-130.5" font-family="Helvetica,sans-Serif" font-size="10.00">utils/circular_buffer.hpp</text>
</a>
</g>
</g>
<!-- Node2 -->
<g id="node2" class="node">
<title>Node2</title>
<g id="a_node2"><a xlink:href="simulator_8hpp.html" target="_top" xlink:title=" ">
<polygon fill="white" stroke="black" points="1930.5,-67.5 1930.5,-86.5 2013.5,-86.5 2013.5,-67.5 1930.5,-67.5"/>
<text text-anchor="middle" x="1972" y="-74.5" font-family="Helvetica,sans-Serif" font-size="10.00">simulator.hpp</text>
</a>
</g>
</g>
<!-- Node1&#45;&gt;Node2 -->
<g id="edge1" class="edge">
<title>Node1&#45;&gt;Node2</title>
<path fill="none" stroke="midnightblue" d="M1965.53,-113.1C1964.9,-104.14 1965.34,-93.86 1966.87,-86.75"/>
<polygon fill="midnightblue" stroke="midnightblue" points="1962.07,-113.62 1966.83,-123.08 1969.01,-112.71 1962.07,-113.62"/>
</g>
<!-- Node2&#45;&gt;Node1 -->
<g id="edge25" class="edge">
<title>Node2&#45;&gt;Node1</title>
<path fill="none" stroke="midnightblue" d="M1978.46,-96.69C1979.11,-105.64 1978.68,-115.93 1977.17,-123.08"/>
<polygon fill="midnightblue" stroke="midnightblue" points="1981.92,-96.2 1977.13,-86.75 1974.98,-97.13 1981.92,-96.2"/>
</g>
<!-- Node2&#45;&gt;Node2 -->
<g id="edge23" class="edge">
<title>Node2&#45;&gt;Node2</title>
<path fill="none" stroke="midnightblue" d="M2007.7,-87.48C2020.78,-87.77 2031.5,-84.28 2031.5,-77 2031.5,-67.87 2014.62,-64.69 1997.38,-67.47"/>
<polygon fill="midnightblue" stroke="midnightblue" points="2007.66,-83.96 1997.38,-86.53 2007.01,-90.93 2007.66,-83.96"/>
</g>
<!-- Node3 -->
<g id="node3" class="node">
<title>Node3</title>
<g id="a_node3"><a xlink:href="branch__predictor_8cpp.html" target="_top" xlink:title=" ">
<polygon fill="white" stroke="black" points="0,-0.5 0,-30.5 134,-30.5 134,-0.5 0,-0.5"/>
<text text-anchor="start" x="8" y="-18.5" font-family="Helvetica,sans-Serif" font-size="10.00">branch_predictor/branch</text>
<text text-anchor="middle" x="67" y="-7.5" font-family="Helvetica,sans-Serif" font-size="10.00">_predictor.cpp</text>
</a>
</g>
</g>
<!-- Node2&#45;&gt;Node3 -->
<g id="edge2" class="edge">
<title>Node2&#45;&gt;Node3</title>
<path fill="none" stroke="midnightblue" d="M1920.21,-75.87C1660.83,-75.06 501.24,-69.32 143,-31 140.06,-30.69 137.07,-30.32 134.05,-29.91"/>
<polygon fill="midnightblue" stroke="midnightblue" points="1920.46,-79.37 1930.47,-75.9 1920.48,-72.37 1920.46,-79.37"/>
</g>
<!-- Node4 -->
<g id="node4" class="node">
<title>Node4</title>
<g id="a_node4"><a xlink:href="piecewise_8cpp.html" target="_top" xlink:title=" ">
<polygon fill="white" stroke="black" points="152,-6 152,-25 322,-25 322,-6 152,-6"/>
<text text-anchor="middle" x="237" y="-13" font-family="Helvetica,sans-Serif" font-size="10.00">branch_predictor/piecewise.cpp</text>
</a>
</g>
</g>
<!-- Node2&#45;&gt;Node4 -->
<g id="edge3" class="edge">
<title>Node2&#45;&gt;Node4</title>
<path fill="none" stroke="midnightblue" d="M1920.18,-75.46C1677.36,-72.78 650.54,-59.91 331,-31 315.87,-29.63 299.47,-27.37 284.68,-25.04"/>
<polygon fill="midnightblue" stroke="midnightblue" points="1920.45,-78.96 1930.49,-75.57 1920.52,-71.96 1920.45,-78.96"/>
</g>
<!-- Node5 -->
<g id="node5" class="node">
<title>Node5</title>
<g id="a_node5"><a xlink:href="two_bit_8cpp.html" target="_top" xlink:title=" ">
<polygon fill="white" stroke="black" points="340.5,-6 340.5,-25 493.5,-25 493.5,-6 340.5,-6"/>
<text text-anchor="middle" x="417" y="-13" font-family="Helvetica,sans-Serif" font-size="10.00">branch_predictor/twoBit.cpp</text>
</a>
</g>
</g>
<!-- Node2&#45;&gt;Node5 -->
<g id="edge4" class="edge">
<title>Node2&#45;&gt;Node5</title>
<path fill="none" stroke="midnightblue" d="M1920.15,-75.38C1693.16,-72.5 785.69,-59.4 502,-31 488.3,-29.63 473.46,-27.37 460.08,-25.04"/>
<polygon fill="midnightblue" stroke="midnightblue" points="1920.4,-78.88 1930.44,-75.51 1920.48,-71.88 1920.4,-78.88"/>
</g>
<!-- Node6 -->
<g id="node6" class="node">
<title>Node6</title>
<g id="a_node6"><a xlink:href="cache_8cpp.html" target="_top" xlink:title=" ">
<polygon fill="white" stroke="black" points="511.5,-6 511.5,-25 608.5,-25 608.5,-6 511.5,-6"/>
<text text-anchor="middle" x="560" y="-13" font-family="Helvetica,sans-Serif" font-size="10.00">cache/cache.cpp</text>
</a>
</g>
</g>
<!-- Node2&#45;&gt;Node6 -->
<g id="edge5" class="edge">
<title>Node2&#45;&gt;Node6</title>
<path fill="none" stroke="midnightblue" d="M1920.3,-75.77C1704.61,-74.6 875.65,-67.75 617,-31 607.6,-29.66 597.5,-27.39 588.46,-25.02"/>
<polygon fill="midnightblue" stroke="midnightblue" points="1920.38,-79.27 1930.4,-75.83 1920.42,-72.27 1920.38,-79.27"/>
</g>
<!-- Node7 -->
<g id="node7" class="node">
<title>Node7</title>
<g id="a_node7"><a xlink:href="cache__manager_8cpp.html" target="_top" xlink:title=" ">
<polygon fill="white" stroke="black" points="626.5,-6 626.5,-25 771.5,-25 771.5,-6 626.5,-6"/>
<text text-anchor="middle" x="699" y="-13" font-family="Helvetica,sans-Serif" font-size="10.00">cache/cache_manager.cpp</text>
</a>
</g>
</g>
<!-- Node2&#45;&gt;Node7 -->
<g id="edge6" class="edge">
<title>Node2&#45;&gt;Node7</title>
<path fill="none" stroke="midnightblue" d="M1920.03,-76.58C1753.7,-77.88 1219.64,-77.85 781,-31 767.92,-29.6 753.78,-27.37 740.98,-25.06"/>
<polygon fill="midnightblue" stroke="midnightblue" points="1920.48,-80.07 1930.45,-76.49 1920.42,-73.07 1920.48,-80.07"/>
</g>
<!-- Node8 -->
<g id="node8" class="node">
<title>Node8</title>
<g id="a_node8"><a xlink:href="config_8cpp.html" target="_top" xlink:title=" ">
<polygon fill="white" stroke="black" points="790,-6 790,-25 888,-25 888,-6 790,-6"/>
<text text-anchor="middle" x="839" y="-13" font-family="Helvetica,sans-Serif" font-size="10.00">config/config.cpp</text>
</a>
</g>
</g>
<!-- Node2&#45;&gt;Node8 -->
<g id="edge7" class="edge">
<title>Node2&#45;&gt;Node8</title>
<path fill="none" stroke="midnightblue" d="M1920.36,-75.23C1734.24,-72.23 1098.18,-60.05 897,-31 887.55,-29.64 877.4,-27.38 868.28,-25.05"/>
<polygon fill="midnightblue" stroke="midnightblue" points="1920.38,-78.73 1930.43,-75.39 1920.49,-71.73 1920.38,-78.73"/>
</g>
<!-- Node9 -->
<g id="node9" class="node">
<title>Node9</title>
<g id="a_node9"><a xlink:href="hive__controller_8cpp.html" target="_top" xlink:title=" ">
<polygon fill="white" stroke="black" points="906.5,-6 906.5,-25 1039.5,-25 1039.5,-6 906.5,-6"/>
<text text-anchor="middle" x="973" y="-13" font-family="Helvetica,sans-Serif" font-size="10.00">hive/hive_controller.cpp</text>
</a>
</g>
</g>
<!-- Node2&#45;&gt;Node9 -->
<g id="edge8" class="edge">
<title>Node2&#45;&gt;Node9</title>
<path fill="none" stroke="midnightblue" d="M1920.38,-76.01C1779.92,-75.48 1379.26,-70.36 1049,-31 1036.86,-29.55 1023.75,-27.3 1011.89,-25"/>
<polygon fill="midnightblue" stroke="midnightblue" points="1920.42,-79.51 1930.43,-76.04 1920.44,-72.51 1920.42,-79.51"/>
</g>
<!-- Node10 -->
<g id="node10" class="node">
<title>Node10</title>
<g id="a_node10"><a xlink:href="memory__channel_8cpp.html" target="_top" xlink:title=" ">
<polygon fill="white" stroke="black" points="1058,-0.5 1058,-30.5 1190,-30.5 1190,-0.5 1058,-0.5"/>
<text text-anchor="start" x="1066" y="-18.5" font-family="Helvetica,sans-Serif" font-size="10.00">main_memory/memory</text>
<text text-anchor="middle" x="1124" y="-7.5" font-family="Helvetica,sans-Serif" font-size="10.00">_channel.cpp</text>
</a>
</g>
</g>
<!-- Node2&#45;&gt;Node10 -->
<g id="edge9" class="edge">
<title>Node2&#45;&gt;Node10</title>
<path fill="none" stroke="midnightblue" d="M1920.32,-75.36C1795.75,-73.3 1469.18,-64.83 1199,-31 1196.1,-30.64 1193.15,-30.23 1190.18,-29.79"/>
<polygon fill="midnightblue" stroke="midnightblue" points="1920.29,-78.86 1930.34,-75.52 1920.4,-71.86 1920.29,-78.86"/>
</g>
<!-- Node11 -->
<g id="node11" class="node">
<title>Node11</title>
<g id="a_node11"><a xlink:href="memory__controller_8cpp.html" target="_top" xlink:title=" ">
<polygon fill="white" stroke="black" points="1208,-0.5 1208,-30.5 1340,-30.5 1340,-0.5 1208,-0.5"/>
<text text-anchor="start" x="1216" y="-18.5" font-family="Helvetica,sans-Serif" font-size="10.00">main_memory/memory</text>
<text text-anchor="middle" x="1274" y="-7.5" font-family="Helvetica,sans-Serif" font-size="10.00">_controller.cpp</text>
</a>
</g>
</g>
<!-- Node2&#45;&gt;Node11 -->
<g id="edge10" class="edge">
<title>Node2&#45;&gt;Node11</title>
<path fill="none" stroke="midnightblue" d="M1920.06,-74.34C1812.89,-70.44 1559.68,-58.87 1349,-31 1346.11,-30.62 1343.16,-30.19 1340.18,-29.74"/>
<polygon fill="midnightblue" stroke="midnightblue" points="1920.15,-77.84 1930.27,-74.7 1920.4,-70.85 1920.15,-77.84"/>
</g>
<!-- Node12 -->
<g id="node12" class="node">
<title>Node12</title>
<g id="a_node12"><a xlink:href="memory__request__client_8cpp.html" target="_top" xlink:title=" ">
<polygon fill="white" stroke="black" points="1358,-0.5 1358,-30.5 1490,-30.5 1490,-0.5 1358,-0.5"/>
<text text-anchor="start" x="1366" y="-18.5" font-family="Helvetica,sans-Serif" font-size="10.00">main_memory/memory</text>
<text text-anchor="middle" x="1424" y="-7.5" font-family="Helvetica,sans-Serif" font-size="10.00">_request_client.cpp</text>
</a>
</g>
</g>
<!-- Node2&#45;&gt;Node12 -->
<g id="edge11" class="edge">
<title>Node2&#45;&gt;Node12</title>
<path fill="none" stroke="midnightblue" d="M1920.24,-72.71C1833.03,-66.8 1651.41,-52.93 1499,-31 1496.11,-30.58 1493.17,-30.13 1490.19,-29.66"/>
<polygon fill="midnightblue" stroke="midnightblue" points="1920.19,-76.22 1930.4,-73.39 1920.66,-69.23 1920.19,-76.22"/>
</g>
<!-- Node13 -->
<g id="node13" class="node">
<title>Node13</title>
<g id="a_node13"><a xlink:href="orcs__engine_8cpp.html" target="_top" xlink:title=" ">
<polygon fill="white" stroke="black" points="1508.5,-6 1508.5,-25 1603.5,-25 1603.5,-6 1508.5,-6"/>
<text text-anchor="middle" x="1556" y="-13" font-family="Helvetica,sans-Serif" font-size="10.00">orcs_engine.cpp</text>
</a>
</g>
</g>
<!-- Node2&#45;&gt;Node13 -->
<g id="edge12" class="edge">
<title>Node2&#45;&gt;Node13</title>
<path fill="none" stroke="midnightblue" d="M1920.08,-71.63C1849.81,-65.24 1720.72,-51.78 1612,-31 1603.52,-29.38 1594.41,-27.21 1586.06,-25.05"/>
<polygon fill="midnightblue" stroke="midnightblue" points="1920.15,-75.15 1930.42,-72.56 1920.78,-68.18 1920.15,-75.15"/>
</g>
<!-- Node14 -->
<g id="node14" class="node">
<title>Node14</title>
<g id="a_node14"><a xlink:href="memory__package_8cpp.html" target="_top" xlink:title=" ">
<polygon fill="white" stroke="black" points="1621.5,-6 1621.5,-25 1788.5,-25 1788.5,-6 1621.5,-6"/>
<text text-anchor="middle" x="1705" y="-13" font-family="Helvetica,sans-Serif" font-size="10.00">package/memory_package.cpp</text>
</a>
</g>
</g>
<!-- Node2&#45;&gt;Node14 -->
<g id="edge13" class="edge">
<title>Node2&#45;&gt;Node14</title>
<path fill="none" stroke="midnightblue" d="M1923.8,-65.26C1872,-53.72 1790.73,-35.61 1743.18,-25.01"/>
<polygon fill="midnightblue" stroke="midnightblue" points="1923.22,-68.72 1933.75,-67.48 1924.75,-61.88 1923.22,-68.72"/>
</g>
<!-- Node15 -->
<g id="node15" class="node">
<title>Node15</title>
<g id="a_node15"><a xlink:href="opcode__package_8cpp.html" target="_top" xlink:title=" ">
<polygon fill="white" stroke="black" points="1806.5,-6 1806.5,-25 1967.5,-25 1967.5,-6 1806.5,-6"/>
<text text-anchor="middle" x="1887" y="-13" font-family="Helvetica,sans-Serif" font-size="10.00">package/opcode_package.cpp</text>
</a>
</g>
</g>
<!-- Node2&#45;&gt;Node15 -->
<g id="edge14" class="edge">
<title>Node2&#45;&gt;Node15</title>
<path fill="none" stroke="midnightblue" d="M1951.45,-61.61C1935.1,-50.17 1912.78,-34.55 1899.16,-25.01"/>
<polygon fill="midnightblue" stroke="midnightblue" points="1949.62,-64.61 1959.82,-67.48 1953.64,-58.87 1949.62,-64.61"/>
</g>
<!-- Node16 -->
<g id="node16" class="node">
<title>Node16</title>
<g id="a_node16"><a xlink:href="uop__package_8cpp.html" target="_top" xlink:title=" ">
<polygon fill="white" stroke="black" points="1986,-6 1986,-25 2130,-25 2130,-6 1986,-6"/>
<text text-anchor="middle" x="2058" y="-13" font-family="Helvetica,sans-Serif" font-size="10.00">package/uop_package.cpp</text>
</a>
</g>
</g>
<!-- Node2&#45;&gt;Node16 -->
<g id="edge15" class="edge">
<title>Node2&#45;&gt;Node16</title>
<path fill="none" stroke="midnightblue" d="M1992.8,-61.61C2009.34,-50.17 2031.92,-34.55 2045.7,-25.01"/>
<polygon fill="midnightblue" stroke="midnightblue" points="1990.55,-58.91 1984.32,-67.48 1994.54,-64.66 1990.55,-58.91"/>
</g>
<!-- Node17 -->
<g id="node17" class="node">
<title>Node17</title>
<g id="a_node17"><a xlink:href="prefetcher_8cpp.html" target="_top" xlink:title=" ">
<polygon fill="white" stroke="black" points="2148,-6 2148,-25 2288,-25 2288,-6 2148,-6"/>
<text text-anchor="middle" x="2218" y="-13" font-family="Helvetica,sans-Serif" font-size="10.00">prefetcher/prefetcher.cpp</text>
</a>
</g>
</g>
<!-- Node2&#45;&gt;Node17 -->
<g id="edge16" class="edge">
<title>Node2&#45;&gt;Node17</title>
<path fill="none" stroke="midnightblue" d="M2017.01,-65.11C2064.76,-53.57 2139.19,-35.56 2182.82,-25.01"/>
<polygon fill="midnightblue" stroke="midnightblue" points="2016.14,-61.72 2007.25,-67.48 2017.79,-68.53 2016.14,-61.72"/>
</g>
<!-- Node18 -->
<g id="node18" class="node">
<title>Node18</title>
<g id="a_node18"><a xlink:href="stride__prefetcher_8cpp.html" target="_top" xlink:title=" ">
<polygon fill="white" stroke="black" points="2306.5,-6 2306.5,-25 2479.5,-25 2479.5,-6 2306.5,-6"/>
<text text-anchor="middle" x="2393" y="-13" font-family="Helvetica,sans-Serif" font-size="10.00">prefetcher/stride_prefetcher.cpp</text>
</a>
</g>
</g>
<!-- Node2&#45;&gt;Node18 -->
<g id="edge17" class="edge">
<title>Node2&#45;&gt;Node18</title>
<path fill="none" stroke="midnightblue" d="M2023.83,-69.02C2088,-60.34 2200.61,-44.95 2297,-31 2310.1,-29.1 2324.19,-27.01 2337.43,-25.01"/>
<polygon fill="midnightblue" stroke="midnightblue" points="2023.02,-65.6 2013.58,-70.41 2023.96,-72.54 2023.02,-65.6"/>
</g>
<!-- Node19 -->
<g id="node19" class="node">
<title>Node19</title>
<g id="a_node19"><a xlink:href="disambiguation__hashed_8cpp.html" target="_top" xlink:title=" ">
<polygon fill="white" stroke="black" points="2497.5,-0.5 2497.5,-30.5 2686.5,-30.5 2686.5,-0.5 2497.5,-0.5"/>
<text text-anchor="start" x="2505.5" y="-18.5" font-family="Helvetica,sans-Serif" font-size="10.00">processor/memory_disambiguation</text>
<text text-anchor="middle" x="2592" y="-7.5" font-family="Helvetica,sans-Serif" font-size="10.00">/disambiguation_hashed.cpp</text>
</a>
</g>
</g>
<!-- Node2&#45;&gt;Node19 -->
<g id="edge18" class="edge">
<title>Node2&#45;&gt;Node19</title>
<path fill="none" stroke="midnightblue" d="M2023.63,-72.42C2116.77,-65.75 2319.02,-50.35 2489,-31 2491.78,-30.68 2494.6,-30.35 2497.45,-30.01"/>
<polygon fill="midnightblue" stroke="midnightblue" points="2023.35,-68.93 2013.62,-73.13 2023.85,-75.91 2023.35,-68.93"/>
</g>
<!-- Node20 -->
<g id="node20" class="node">
<title>Node20</title>
<g id="a_node20"><a xlink:href="memory__order__buffer__line_8cpp.html" target="_top" xlink:title=" ">
<polygon fill="white" stroke="black" points="2704.5,-0.5 2704.5,-30.5 2843.5,-30.5 2843.5,-0.5 2704.5,-0.5"/>
<text text-anchor="start" x="2712.5" y="-18.5" font-family="Helvetica,sans-Serif" font-size="10.00">processor/memory_order</text>
<text text-anchor="middle" x="2774" y="-7.5" font-family="Helvetica,sans-Serif" font-size="10.00">_buffer_line.cpp</text>
</a>
</g>
</g>
<!-- Node2&#45;&gt;Node20 -->
<g id="edge19" class="edge">
<title>Node2&#45;&gt;Node20</title>
<path fill="none" stroke="midnightblue" d="M2024.09,-74.94C2143.39,-72.02 2445.46,-61.96 2696,-31 2698.73,-30.66 2701.52,-30.29 2704.32,-29.89"/>
<polygon fill="midnightblue" stroke="midnightblue" points="2023.7,-71.44 2013.79,-75.18 2023.87,-78.44 2023.7,-71.44"/>
</g>
<!-- Node21 -->
<g id="node21" class="node">
<title>Node21</title>
<g id="a_node21"><a xlink:href="processor_8cpp.html" target="_top" xlink:title=" ">
<polygon fill="white" stroke="black" points="2862,-6 2862,-25 2996,-25 2996,-6 2862,-6"/>
<text text-anchor="middle" x="2929" y="-13" font-family="Helvetica,sans-Serif" font-size="10.00">processor/processor.cpp</text>
</a>
</g>
</g>
<!-- Node2&#45;&gt;Node21 -->
<g id="edge20" class="edge">
<title>Node2&#45;&gt;Node21</title>
<path fill="none" stroke="midnightblue" d="M2024.07,-75.83C2160.6,-74.86 2539.94,-68.68 2853,-31 2865,-29.56 2877.96,-27.33 2889.72,-25.06"/>
<polygon fill="midnightblue" stroke="midnightblue" points="2023.88,-72.33 2013.9,-75.9 2023.93,-79.33 2023.88,-72.33"/>
</g>
<!-- Node22 -->
<g id="node22" class="node">
<title>Node22</title>
<g id="a_node22"><a xlink:href="reorder__buffer__line_8cpp.html" target="_top" xlink:title=" ">
<polygon fill="white" stroke="black" points="3014,-0.5 3014,-30.5 3150,-30.5 3150,-0.5 3014,-0.5"/>
<text text-anchor="start" x="3022" y="-18.5" font-family="Helvetica,sans-Serif" font-size="10.00">processor/reorder_buffer</text>
<text text-anchor="middle" x="3082" y="-7.5" font-family="Helvetica,sans-Serif" font-size="10.00">_line.cpp</text>
</a>
</g>
</g>
<!-- Node2&#45;&gt;Node22 -->
<g id="edge21" class="edge">
<title>Node2&#45;&gt;Node22</title>
<path fill="none" stroke="midnightblue" d="M2024.41,-76.35C2176.53,-76.8 2631.02,-74.14 3005,-31 3007.84,-30.67 3010.73,-30.3 3013.64,-29.9"/>
<polygon fill="midnightblue" stroke="midnightblue" points="2024,-72.85 2013.99,-76.31 2023.98,-79.85 2024,-72.85"/>
</g>
<!-- Node23 -->
<g id="node23" class="node">
<title>Node23</title>
<g id="a_node23"><a xlink:href="simulator_8cpp.html" target="_top" xlink:title=" ">
<polygon fill="white" stroke="black" points="3168.5,-6 3168.5,-25 3251.5,-25 3251.5,-6 3168.5,-6"/>
<text text-anchor="middle" x="3210" y="-13" font-family="Helvetica,sans-Serif" font-size="10.00">simulator.cpp</text>
</a>
</g>
</g>
<!-- Node2&#45;&gt;Node23 -->
<g id="edge22" class="edge">
<title>Node2&#45;&gt;Node23</title>
<path fill="none" stroke="midnightblue" d="M2023.68,-75.68C2222.15,-74.21 2935.4,-66.5 3159,-31 3167.45,-29.66 3176.5,-27.38 3184.58,-25.02"/>
<polygon fill="midnightblue" stroke="midnightblue" points="2023.5,-72.18 2013.53,-75.76 2023.56,-79.18 2023.5,-72.18"/>
</g>
<!-- Node24 -->
<g id="node24" class="node">
<title>Node24</title>
<g id="a_node24"><a xlink:href="trace__reader_8cpp.html" target="_top" xlink:title=" ">
<polygon fill="white" stroke="black" points="3270,-6 3270,-25 3368,-25 3368,-6 3270,-6"/>
<text text-anchor="middle" x="3319" y="-13" font-family="Helvetica,sans-Serif" font-size="10.00">trace_reader.cpp</text>
</a>
</g>
</g>
<!-- Node2&#45;&gt;Node24 -->
<g id="edge24" class="edge">
<title>Node2&#45;&gt;Node24</title>
<path fill="none" stroke="midnightblue" d="M2023.9,-75.64C2233.24,-73.97 3015.97,-65.52 3261,-31 3270.56,-29.65 3280.83,-27.37 3290.03,-25.01"/>
<polygon fill="midnightblue" stroke="midnightblue" points="2023.77,-72.14 2013.79,-75.72 2023.82,-79.14 2023.77,-72.14"/>
</g>
<!-- Node25 -->
<g id="node25" class="node">
<title>Node25</title>
<g id="a_node25"><a xlink:href="enumerations_8cpp.html" target="_top" xlink:title=" ">
<polygon fill="white" stroke="black" points="3386,-6 3386,-25 3514,-25 3514,-6 3386,-6"/>
<text text-anchor="middle" x="3450" y="-13" font-family="Helvetica,sans-Serif" font-size="10.00">utils/enumerations.cpp</text>
</a>
</g>
</g>
<!-- Node2&#45;&gt;Node25 -->
<g id="edge26" class="edge">
<title>Node2&#45;&gt;Node25</title>
<path fill="none" stroke="midnightblue" d="M2023.75,-75.48C2244.35,-73.09 3107.15,-61.91 3377,-31 3388.81,-29.65 3401.56,-27.39 3413.05,-25.06"/>
<polygon fill="midnightblue" stroke="midnightblue" points="2023.7,-71.98 2013.74,-75.59 2023.77,-78.98 2023.7,-71.98"/>
</g>
<!-- Node26 -->
<g id="node26" class="node">
<title>Node26</title>
<g id="a_node26"><a xlink:href="utils_8cpp.html" target="_top" xlink:title=" ">
<polygon fill="white" stroke="black" points="3532,-6 3532,-25 3614,-25 3614,-6 3532,-6"/>
<text text-anchor="middle" x="3573" y="-13" font-family="Helvetica,sans-Serif" font-size="10.00">utils/utils.cpp</text>
</a>
</g>
</g>
<!-- Node2&#45;&gt;Node26 -->
<g id="edge27" class="edge">
<title>Node2&#45;&gt;Node26</title>
<path fill="none" stroke="midnightblue" d="M2024.11,-76.26C2259.45,-77.14 3224.7,-77.8 3523,-31 3531.3,-29.7 3540.17,-27.43 3548.1,-25.06"/>
<polygon fill="midnightblue" stroke="midnightblue" points="2023.79,-72.76 2013.78,-76.22 2023.76,-79.76 2023.79,-72.76"/>
</g>
<!-- Node27 -->
<g id="node27" class="node">
<title>Node27</title>
<g id="a_node27"><a xlink:href="vima__controller_8cpp.html" target="_top" xlink:title=" ">
<polygon fill="white" stroke="black" points="3632,-6 3632,-25 3772,-25 3772,-6 3632,-6"/>
<text text-anchor="middle" x="3702" y="-13" font-family="Helvetica,sans-Serif" font-size="10.00">vima/vima_controller.cpp</text>
</a>
</g>
</g>
<!-- Node2&#45;&gt;Node27 -->
<g id="edge28" class="edge">
<title>Node2&#45;&gt;Node27</title>
<path fill="none" stroke="midnightblue" d="M2023.79,-75.67C2267.52,-73.92 3301.8,-64.65 3623,-31 3635.9,-29.65 3649.85,-27.37 3662.39,-25.01"/>
<polygon fill="midnightblue" stroke="midnightblue" points="2023.76,-72.17 2013.78,-75.74 2023.81,-79.16 2023.76,-72.17"/>
</g>
<!-- Node28 -->
<g id="node28" class="node">
<title>Node28</title>
<g id="a_node28"><a xlink:href="vima__vector_8cpp.html" target="_top" xlink:title=" ">
<polygon fill="white" stroke="black" points="3790.5,-6 3790.5,-25 3915.5,-25 3915.5,-6 3790.5,-6"/>
<text text-anchor="middle" x="3853" y="-13" font-family="Helvetica,sans-Serif" font-size="10.00">vima/vima_vector.cpp</text>
</a>
</g>
</g>
<!-- Node2&#45;&gt;Node28 -->
<g id="edge29" class="edge">
<title>Node2&#45;&gt;Node28</title>
<path fill="none" stroke="midnightblue" d="M2024.07,-75.93C2282.31,-75.38 3427.27,-70.71 3781,-31 3792.78,-29.68 3805.51,-27.4 3816.93,-25.04"/>
<polygon fill="midnightblue" stroke="midnightblue" points="2023.84,-72.43 2013.85,-75.95 2023.85,-79.43 2023.84,-72.43"/>
</g>
</g>
</svg>
        <g id="navigator" transform="translate(0 0)" fill="#404254">
                <rect fill="#f2f5e9" fill-opacity="0.5" stroke="#606060" stroke-width=".5" x="0" y="0" width="60" height="60"/>
                <use id="zoomplus" xlink:href="#zoomPlus" x="17" y="9" onmousedown="handleZoom(evt,'in')"/>
                <use id="zoomminus" xlink:href="#zoomMin" x="42" y="9" onmousedown="handleZoom(evt,'out')"/>
                <use id="reset" xlink:href="#resetDef" x="30" y="36" onmousedown="handleReset()"/>
                <g id="arrowUp" xlink:href="#dirArrow" transform="translate(30 24)" onmousedown="handlePan(0,-1)">
                  <use xlink:href="#rim" fill="#404040">
                        <set attributeName="fill" to="#808080" begin="arrowUp.mouseover" end="arrowUp.mouseout"/>
                  </use>
                  <path fill="none" stroke="white" stroke-width="1.5" d="M0,-3.0v7 M-2.5,-0.5L0,-3.0L2.5,-0.5"/>
                </g>
                <g id="arrowRight" xlink:href="#dirArrow" transform="rotate(90) translate(36 -43)" onmousedown="handlePan(1,0)">
                  <use xlink:href="#rim" fill="#404040">
                        <set attributeName="fill" to="#808080" begin="arrowRight.mouseover" end="arrowRight.mouseout"/>
                  </use>
                  <path fill="none" stroke="white" stroke-width="1.5" d="M0,-3.0v7 M-2.5,-0.5L0,-3.0L2.5,-0.5"/>
                </g>
                <g id="arrowDown" xlink:href="#dirArrow" transform="rotate(180) translate(-30 -48)" onmousedown="handlePan(0,1)">
                  <use xlink:href="#rim" fill="#404040">
                        <set attributeName="fill" to="#808080" begin="arrowDown.mouseover" end="arrowDown.mouseout"/>
                  </use>
                  <path fill="none" stroke="white" stroke-width="1.5" d="M0,-3.0v7 M-2.5,-0.5L0,-3.0L2.5,-0.5"/>
                </g>
                <g id="arrowLeft" xlink:href="#dirArrow" transform="rotate(270) translate(-36 17)" onmousedown="handlePan(-1,0)">
                  <use xlink:href="#rim" fill="#404040">
                        <set attributeName="fill" to="#808080" begin="arrowLeft.mouseover" end="arrowLeft.mouseout"/>
                  </use>
                  <path fill="none" stroke="white" stroke-width="1.5" d="M0,-3.0v7 M-2.5,-0.5L0,-3.0L2.5,-0.5"/>
                </g>
        </g>
        <svg viewBox="0 0 15 15" width="100%" height="30px" preserveAspectRatio="xMaxYMin meet">
         <g id="arrow_out" transform="scale(0.3 0.3)">
          <a xlink:href="circular__buffer_8hpp__dep__incl_org.svg" target="_base">
           <rect id="button" ry="5" rx="5" y="6" x="6" height="38" width="38"
                fill="#f2f5e9" fill-opacity="0.5" stroke="#606060" stroke-width="1.0"/>
           <path id="arrow"
             d="M 11.500037,31.436501 C 11.940474,20.09759 22.043105,11.32322 32.158766,21.979434 L 37.068811,17.246167 C 37.068811,17.246167 37.088388,32 37.088388,32 L 22.160133,31.978069 C 22.160133,31.978069 26.997745,27.140456 26.997745,27.140456 C 18.528582,18.264221 13.291696,25.230495 11.500037,31.436501 z"
             style="fill:#404040;"/>
          </a>
         </g>
        </svg>
</svg>
