<?xml version="1.0" encoding="UTF-8" standalone="no"?>
<!DOCTYPE svg PUBLIC "-//W3C//DTD SVG 1.1//EN"
 "http://www.w3.org/Graphics/SVG/1.1/DTD/svg11.dtd">
<!-- Generated by graphviz version 2.43.0 (0)
 -->
<!-- Title: hive_controller_t::check_wait Pages: 1 -->
<!--zoomable 120 -->
<svg id="main" version="1.1" xmlns="http://www.w3.org/2000/svg" xmlns:xlink="http://www.w3.org/1999/xlink" xml:space="preserve" onload="init(evt)">
<style type="text/css"><![CDATA[
.edge:hover path { stroke: red; }
.edge:hover polygon { stroke: red; fill: red; }
]]></style>
<script type="text/javascript"><![CDATA[
var edges = document.getElementsByTagName('g');
if (edges && edges.length) {
  for (var i=0;i<edges.length;i++) {
    if (edges[i].id.substr(0,4)=='edge') {
      edges[i].setAttribute('class','edge');
    }
  }
}
]]></script>
        <defs>
                <circle id="rim" cx="0" cy="0" r="7"/>
                <circle id="rim2" cx="0" cy="0" r="3.5"/>
                <g id="zoomPlus">
                        <use xlink:href="#rim" fill="#404040">
                                <set attributeName="fill" to="#808080" begin="zoomplus.mouseover" end="zoomplus.mouseout"/>
                        </use>
                        <path d="M-4,0h8M0,-4v8" fill="none" stroke="white" stroke-width="1.5" pointer-events="none"/>
                </g>
                <g id="zoomMin">
                        <use xlink:href="#rim" fill="#404040">
                                <set attributeName="fill" to="#808080" begin="zoomminus.mouseover" end="zoomminus.mouseout"/>
                        </use>
                        <path d="M-4,0h8" fill="none" stroke="white" stroke-width="1.5" pointer-events="none"/>
                </g>
                <g id="dirArrow">
                        <path fill="none" stroke="white" stroke-width="1.5" d="M0,-3.0v7 M-2.5,-0.5L0,-3.0L2.5,-0.5"/>
                </g>
               <g id="resetDef">
                       <use xlink:href="#rim2" fill="#404040">
                               <set attributeName="fill" to="#808080" begin="reset.mouseover" end="reset.mouseout"/>
                       </use>
               </g>
        </defs>

<script type="text/javascript">
var viewWidth = 541;
var viewHeight = 120;
var sectionId = 'dynsection-5';
</script>
<script xlink:href="svgpan.js"/>
<svg id="graph" class="graph">
<g id="viewport">
<title>hive_controller_t::check_wait</title>
<polygon fill="white" stroke="transparent" points="-4,4 -4,-116.47 537,-116.47 537,4 -4,4"/>
<!-- Node1 -->
<g id="node1" class="node">
<title>Node1</title>
<g id="a_node1"><a xlink:title=" ">
<polygon fill="#bfbfbf" stroke="black" points="0,-45.7 0,-75.7 104,-75.7 104,-45.7 0,-45.7"/>
<text text-anchor="start" x="8" y="-63.7" font-family="Helvetica,sans-Serif" font-size="10.00">hive_controller_t::</text>
<text text-anchor="middle" x="52" y="-52.7" font-family="Helvetica,sans-Serif" font-size="10.00">check_wait</text>
</a>
</g>
</g>
<!-- Node2 -->
<g id="node2" class="node">
<title>Node2</title>
<g id="a_node2"><a xlink:href="enumerations_8cpp.html#abb39d040475b58d11b29c242b33091e1" target="_top" xlink:title="Enumerates the MEMORY OPERATION OF MOB,debug only.">
<polygon fill="white" stroke="black" points="343,-81.2 343,-100.2 533,-100.2 533,-81.2 343,-81.2"/>
<text text-anchor="middle" x="438" y="-88.2" font-family="Helvetica,sans-Serif" font-size="10.00">get_enum_memory_operation_char</text>
</a>
</g>
</g>
<!-- Node1&#45;&gt;Node2 -->
<g id="edge1" class="edge">
<title>Node1&#45;&gt;Node2</title>
<path fill="none" stroke="midnightblue" d="M77.45,-75.8C94.33,-85.31 117.68,-96.7 140,-101.7 220.56,-119.73 316.43,-110.92 377.01,-101.79"/>
<polygon fill="midnightblue" stroke="midnightblue" points="377.82,-105.2 387.16,-100.2 376.74,-98.29 377.82,-105.2"/>
</g>
<!-- Node3 -->
<g id="node3" class="node">
<title>Node3</title>
<g id="a_node3"><a xlink:href="enumerations_8cpp.html#a4f1219a7c31d137c368e36cea5be9128" target="_top" xlink:title="Enumerates the package state,.">
<polygon fill="white" stroke="black" points="140,-73.2 140,-92.2 307,-92.2 307,-73.2 140,-73.2"/>
<text text-anchor="middle" x="223.5" y="-80.2" font-family="Helvetica,sans-Serif" font-size="10.00">get_enum_package_state_char</text>
</a>
</g>
</g>
<!-- Node1&#45;&gt;Node3 -->
<g id="edge2" class="edge">
<title>Node1&#45;&gt;Node3</title>
<path fill="none" stroke="midnightblue" d="M104.32,-67.36C115.35,-68.79 127.29,-70.34 139.19,-71.88"/>
<polygon fill="midnightblue" stroke="midnightblue" points="138.79,-75.36 149.16,-73.18 139.69,-68.42 138.79,-75.36"/>
</g>
<!-- Node4 -->
<g id="node4" class="node">
<title>Node4</title>
<g id="a_node4"><a xlink:href="classorcs__engine__t.html#a1c033e3455736ba89052a40c69ebe0af" target="_top" xlink:title=" ">
<polygon fill="white" stroke="black" points="385,-1.7 385,-31.7 491,-31.7 491,-1.7 385,-1.7"/>
<text text-anchor="start" x="393" y="-19.7" font-family="Helvetica,sans-Serif" font-size="10.00">orcs_engine_t::get</text>
<text text-anchor="middle" x="438" y="-8.7" font-family="Helvetica,sans-Serif" font-size="10.00">_global_cycle</text>
</a>
</g>
</g>
<!-- Node1&#45;&gt;Node4 -->
<g id="edge3" class="edge">
<title>Node1&#45;&gt;Node4</title>
<path fill="none" stroke="midnightblue" d="M73.93,-45.52C90.82,-34.26 115.7,-19.84 140,-13.7 219.04,6.29 313.73,0.44 374.6,-6.95"/>
<polygon fill="midnightblue" stroke="midnightblue" points="374.45,-10.46 384.81,-8.24 375.33,-3.51 374.45,-10.46"/>
</g>
<!-- Node5 -->
<g id="node5" class="node">
<title>Node5</title>
<g id="a_node5"><a xlink:href="classhive__controller__t.html#a8b7b32733e7a463f9691639e07502313" target="_top" xlink:title=" ">
<polygon fill="white" stroke="black" points="171.5,-23.7 171.5,-53.7 275.5,-53.7 275.5,-23.7 171.5,-23.7"/>
<text text-anchor="start" x="179.5" y="-41.7" font-family="Helvetica,sans-Serif" font-size="10.00">hive_controller_t::</text>
<text text-anchor="middle" x="223.5" y="-30.7" font-family="Helvetica,sans-Serif" font-size="10.00">instruction_ready</text>
</a>
</g>
</g>
<!-- Node1&#45;&gt;Node5 -->
<g id="edge4" class="edge">
<title>Node1&#45;&gt;Node5</title>
<path fill="none" stroke="midnightblue" d="M104.32,-54.04C122.24,-51.71 142.54,-49.08 161.19,-46.65"/>
<polygon fill="midnightblue" stroke="midnightblue" points="161.89,-50.09 171.36,-45.33 160.99,-43.15 161.89,-50.09"/>
</g>
<!-- Node5&#45;&gt;Node2 -->
<g id="edge5" class="edge">
<title>Node5&#45;&gt;Node2</title>
<path fill="none" stroke="midnightblue" d="M275.67,-51.22C309.73,-59.55 354.22,-70.44 387.85,-78.67"/>
<polygon fill="midnightblue" stroke="midnightblue" points="387.37,-82.16 397.92,-81.13 389.04,-75.36 387.37,-82.16"/>
</g>
<!-- Node5&#45;&gt;Node4 -->
<g id="edge6" class="edge">
<title>Node5&#45;&gt;Node4</title>
<path fill="none" stroke="midnightblue" d="M275.67,-33.4C305.48,-30.31 343.28,-26.4 374.8,-23.14"/>
<polygon fill="midnightblue" stroke="midnightblue" points="375.21,-26.61 384.8,-22.1 374.49,-19.65 375.21,-26.61"/>
</g>
</g>
</svg>
        <g id="navigator" transform="translate(0 0)" fill="#404254">
                <rect fill="#f2f5e9" fill-opacity="0.5" stroke="#606060" stroke-width=".5" x="0" y="0" width="60" height="60"/>
                <use id="zoomplus" xlink:href="#zoomPlus" x="17" y="9" onmousedown="handleZoom(evt,'in')"/>
                <use id="zoomminus" xlink:href="#zoomMin" x="42" y="9" onmousedown="handleZoom(evt,'out')"/>
                <use id="reset" xlink:href="#resetDef" x="30" y="36" onmousedown="handleReset()"/>
                <g id="arrowUp" xlink:href="#dirArrow" transform="translate(30 24)" onmousedown="handlePan(0,-1)">
                  <use xlink:href="#rim" fill="#404040">
                        <set attributeName="fill" to="#808080" begin="arrowUp.mouseover" end="arrowUp.mouseout"/>
                  </use>
                  <path fill="none" stroke="white" stroke-width="1.5" d="M0,-3.0v7 M-2.5,-0.5L0,-3.0L2.5,-0.5"/>
                </g>
                <g id="arrowRight" xlink:href="#dirArrow" transform="rotate(90) translate(36 -43)" onmousedown="handlePan(1,0)">
                  <use xlink:href="#rim" fill="#404040">
                        <set attributeName="fill" to="#808080" begin="arrowRight.mouseover" end="arrowRight.mouseout"/>
                  </use>
                  <path fill="none" stroke="white" stroke-width="1.5" d="M0,-3.0v7 M-2.5,-0.5L0,-3.0L2.5,-0.5"/>
                </g>
                <g id="arrowDown" xlink:href="#dirArrow" transform="rotate(180) translate(-30 -48)" onmousedown="handlePan(0,1)">
                  <use xlink:href="#rim" fill="#404040">
                        <set attributeName="fill" to="#808080" begin="arrowDown.mouseover" end="arrowDown.mouseout"/>
                  </use>
                  <path fill="none" stroke="white" stroke-width="1.5" d="M0,-3.0v7 M-2.5,-0.5L0,-3.0L2.5,-0.5"/>
                </g>
                <g id="arrowLeft" xlink:href="#dirArrow" transform="rotate(270) translate(-36 17)" onmousedown="handlePan(-1,0)">
                  <use xlink:href="#rim" fill="#404040">
                        <set attributeName="fill" to="#808080" begin="arrowLeft.mouseover" end="arrowLeft.mouseout"/>
                  </use>
                  <path fill="none" stroke="white" stroke-width="1.5" d="M0,-3.0v7 M-2.5,-0.5L0,-3.0L2.5,-0.5"/>
                </g>
        </g>
        <svg viewBox="0 0 15 15" width="100%" height="30px" preserveAspectRatio="xMaxYMin meet">
         <g id="arrow_out" transform="scale(0.3 0.3)">
          <a xlink:href="classhive__controller__t_a4da4a2eac19b19c65a6936cfa0008087_cgraph_org.svg" target="_base">
           <rect id="button" ry="5" rx="5" y="6" x="6" height="38" width="38"
                fill="#f2f5e9" fill-opacity="0.5" stroke="#606060" stroke-width="1.0"/>
           <path id="arrow"
             d="M 11.500037,31.436501 C 11.940474,20.09759 22.043105,11.32322 32.158766,21.979434 L 37.068811,17.246167 C 37.068811,17.246167 37.088388,32 37.088388,32 L 22.160133,31.978069 C 22.160133,31.978069 26.997745,27.140456 26.997745,27.140456 C 18.528582,18.264221 13.291696,25.230495 11.500037,31.436501 z"
             style="fill:#404040;"/>
          </a>
         </g>
        </svg>
</svg>
