<?xml version="1.0" encoding="UTF-8" standalone="no"?>
<!DOCTYPE svg PUBLIC "-//W3C//DTD SVG 1.1//EN"
 "http://www.w3.org/Graphics/SVG/1.1/DTD/svg11.dtd">
<!-- Generated by graphviz version 2.43.0 (0)
 -->
<!-- Title: trace_reader_t::allocate Pages: 1 -->
<svg width="467pt" height="186pt"
 viewBox="0.00 0.00 467.00 186.00" xmlns="http://www.w3.org/2000/svg" xmlns:xlink="http://www.w3.org/1999/xlink">
<g id="graph0" class="graph" transform="scale(1 1) rotate(0) translate(4 182)">
<title>trace_reader_t::allocate</title>
<polygon fill="white" stroke="transparent" points="-4,4 -4,-182 463,-182 463,4 -4,4"/>
<!-- Node1 -->
<g id="node1" class="node">
<title>Node1</title>
<g id="a_node1"><a xlink:title=" ">
<polygon fill="#bfbfbf" stroke="black" points="0,-79 0,-98 132,-98 132,-79 0,-79"/>
<text text-anchor="middle" x="66" y="-86" font-family="Helvetica,sans-Serif" font-size="10.00">trace_reader_t::allocate</text>
</a>
</g>
</g>
<!-- Node2 -->
<g id="node2" class="node">
<title>Node2</title>
<g id="a_node2"><a xlink:href="classtrace__reader__t.html#a73bce5307e99c47565887fb33fe97bdd" target="_top" xlink:title=" ">
<polygon fill="white" stroke="black" points="175,-147.5 175,-177.5 298,-177.5 298,-147.5 175,-147.5"/>
<text text-anchor="start" x="183" y="-165.5" font-family="Helvetica,sans-Serif" font-size="10.00">trace_reader_t::define</text>
<text text-anchor="middle" x="236.5" y="-154.5" font-family="Helvetica,sans-Serif" font-size="10.00">_binary_bbl_size</text>
</a>
</g>
</g>
<!-- Node1&#45;&gt;Node2 -->
<g id="edge1" class="edge">
<title>Node1&#45;&gt;Node2</title>
<path fill="none" stroke="midnightblue" d="M84.94,-98.19C104.91,-108.78 138.27,-125.91 168,-138.5 172.35,-140.34 176.9,-142.17 181.49,-143.94"/>
<polygon fill="midnightblue" stroke="midnightblue" points="180.32,-147.24 190.92,-147.49 182.79,-140.69 180.32,-147.24"/>
</g>
<!-- Node3 -->
<g id="node3" class="node">
<title>Node3</title>
<g id="a_node3"><a xlink:href="classtrace__reader__t.html#a1452182cd9b39b2ec9996384dd3742c6" target="_top" xlink:title=" ">
<polygon fill="white" stroke="black" points="168,-98.5 168,-128.5 305,-128.5 305,-98.5 168,-98.5"/>
<text text-anchor="start" x="176" y="-116.5" font-family="Helvetica,sans-Serif" font-size="10.00">trace_reader_t::generate</text>
<text text-anchor="middle" x="236.5" y="-105.5" font-family="Helvetica,sans-Serif" font-size="10.00">_binary_dict</text>
</a>
</g>
</g>
<!-- Node1&#45;&gt;Node3 -->
<g id="edge2" class="edge">
<title>Node1&#45;&gt;Node3</title>
<path fill="none" stroke="midnightblue" d="M131.18,-98.02C139.9,-99.32 148.92,-100.65 157.84,-101.98"/>
<polygon fill="midnightblue" stroke="midnightblue" points="157.45,-105.46 167.85,-103.46 158.48,-98.53 157.45,-105.46"/>
</g>
<!-- Node5 -->
<g id="node5" class="node">
<title>Node5</title>
<g id="a_node5"><a xlink:href="classtrace__reader__t.html#a1246abc71e9daf1fc170f6893277ce35" target="_top" xlink:title="Generate the static dictionary.">
<polygon fill="white" stroke="black" points="182,-49.5 182,-79.5 291,-79.5 291,-49.5 182,-49.5"/>
<text text-anchor="start" x="190" y="-67.5" font-family="Helvetica,sans-Serif" font-size="10.00">trace_reader_t::get</text>
<text text-anchor="middle" x="236.5" y="-56.5" font-family="Helvetica,sans-Serif" font-size="10.00">_total_bbls</text>
</a>
</g>
</g>
<!-- Node1&#45;&gt;Node5 -->
<g id="edge4" class="edge">
<title>Node1&#45;&gt;Node5</title>
<path fill="none" stroke="midnightblue" d="M132.15,-79.22C145.15,-77.37 158.8,-75.42 171.76,-73.58"/>
<polygon fill="midnightblue" stroke="midnightblue" points="172.57,-77 181.98,-72.12 171.59,-70.07 172.57,-77"/>
</g>
<!-- Node6 -->
<g id="node6" class="node">
<title>Node6</title>
<g id="a_node6"><a xlink:href="classtrace__reader__t.html#adfed38210458877325d23c50e26c4ee4" target="_top" xlink:title="Get the total number of opcodes.">
<polygon fill="white" stroke="black" points="182,-0.5 182,-30.5 291,-30.5 291,-0.5 182,-0.5"/>
<text text-anchor="start" x="190" y="-18.5" font-family="Helvetica,sans-Serif" font-size="10.00">trace_reader_t::get</text>
<text text-anchor="middle" x="236.5" y="-7.5" font-family="Helvetica,sans-Serif" font-size="10.00">_trace_size</text>
</a>
</g>
</g>
<!-- Node1&#45;&gt;Node6 -->
<g id="edge5" class="edge">
<title>Node1&#45;&gt;Node6</title>
<path fill="none" stroke="midnightblue" d="M85.76,-78.97C105.87,-68.9 138.84,-52.8 168,-40.5 173.04,-38.38 178.32,-36.25 183.63,-34.18"/>
<polygon fill="midnightblue" stroke="midnightblue" points="185.06,-37.38 193.14,-30.53 182.55,-30.84 185.06,-37.38"/>
</g>
<!-- Node4 -->
<g id="node4" class="node">
<title>Node4</title>
<g id="a_node4"><a xlink:href="classtrace__reader__t.html#a10afb91dba0b6058a427ee1bd14ffd87" target="_top" xlink:title=" ">
<polygon fill="white" stroke="black" points="341,-98.5 341,-128.5 459,-128.5 459,-98.5 341,-98.5"/>
<text text-anchor="start" x="349" y="-116.5" font-family="Helvetica,sans-Serif" font-size="10.00">trace_reader_t::trace</text>
<text text-anchor="middle" x="400" y="-105.5" font-family="Helvetica,sans-Serif" font-size="10.00">_string_to_opcode</text>
</a>
</g>
</g>
<!-- Node3&#45;&gt;Node4 -->
<g id="edge3" class="edge">
<title>Node3&#45;&gt;Node4</title>
<path fill="none" stroke="midnightblue" d="M305.05,-113.5C313.53,-113.5 322.21,-113.5 330.71,-113.5"/>
<polygon fill="midnightblue" stroke="midnightblue" points="330.94,-117 340.94,-113.5 330.94,-110 330.94,-117"/>
</g>
</g>
</svg>
