<?xml version="1.0" encoding="UTF-8" standalone="no"?>
<!DOCTYPE svg PUBLIC "-//W3C//DTD SVG 1.1//EN"
 "http://www.w3.org/Graphics/SVG/1.1/DTD/svg11.dtd">
<!-- Generated by graphviz version 2.43.0 (0)
 -->
<!-- Title: cache_t::returnLine Pages: 1 -->
<!--zoomable 271 -->
<svg id="main" version="1.1" xmlns="http://www.w3.org/2000/svg" xmlns:xlink="http://www.w3.org/1999/xlink" xml:space="preserve" onload="init(evt)">
<style type="text/css"><![CDATA[
.edge:hover path { stroke: red; }
.edge:hover polygon { stroke: red; fill: red; }
]]></style>
<script type="text/javascript"><![CDATA[
var edges = document.getElementsByTagName('g');
if (edges && edges.length) {
  for (var i=0;i<edges.length;i++) {
    if (edges[i].id.substr(0,4)=='edge') {
      edges[i].setAttribute('class','edge');
    }
  }
}
]]></script>
        <defs>
                <circle id="rim" cx="0" cy="0" r="7"/>
                <circle id="rim2" cx="0" cy="0" r="3.5"/>
                <g id="zoomPlus">
                        <use xlink:href="#rim" fill="#404040">
                                <set attributeName="fill" to="#808080" begin="zoomplus.mouseover" end="zoomplus.mouseout"/>
                        </use>
                        <path d="M-4,0h8M0,-4v8" fill="none" stroke="white" stroke-width="1.5" pointer-events="none"/>
                </g>
                <g id="zoomMin">
                        <use xlink:href="#rim" fill="#404040">
                                <set attributeName="fill" to="#808080" begin="zoomminus.mouseover" end="zoomminus.mouseout"/>
                        </use>
                        <path d="M-4,0h8" fill="none" stroke="white" stroke-width="1.5" pointer-events="none"/>
                </g>
                <g id="dirArrow">
                        <path fill="none" stroke="white" stroke-width="1.5" d="M0,-3.0v7 M-2.5,-0.5L0,-3.0L2.5,-0.5"/>
                </g>
               <g id="resetDef">
                       <use xlink:href="#rim2" fill="#404040">
                               <set attributeName="fill" to="#808080" begin="reset.mouseover" end="reset.mouseout"/>
                       </use>
               </g>
        </defs>

<script type="text/javascript">
var viewWidth = 861;
var viewHeight = 271;
var sectionId = 'dynsection-7';
</script>
<script xlink:href="svgpan.js"/>
<svg id="graph" class="graph">
<g id="viewport">
<title>cache_t::returnLine</title>
<polygon fill="white" stroke="transparent" points="-4,4 -4,-266.67 857,-266.67 857,4 -4,4"/>
<!-- Node1 -->
<g id="node1" class="node">
<title>Node1</title>
<g id="a_node1"><a xlink:title=" ">
<polygon fill="#bfbfbf" stroke="black" points="0,-15.42 0,-34.42 110,-34.42 110,-15.42 0,-15.42"/>
<text text-anchor="middle" x="55" y="-22.42" font-family="Helvetica,sans-Serif" font-size="10.00">cache_t::returnLine</text>
</a>
</g>
</g>
<!-- Node2 -->
<g id="node2" class="node">
<title>Node2</title>
<g id="a_node2"><a xlink:href="classorcs__engine__t.html#a1c033e3455736ba89052a40c69ebe0af" target="_top" xlink:title=" ">
<polygon fill="white" stroke="black" points="705,-104.92 705,-134.92 811,-134.92 811,-104.92 705,-104.92"/>
<text text-anchor="start" x="713" y="-122.92" font-family="Helvetica,sans-Serif" font-size="10.00">orcs_engine_t::get</text>
<text text-anchor="middle" x="758" y="-111.92" font-family="Helvetica,sans-Serif" font-size="10.00">_global_cycle</text>
</a>
</g>
</g>
<!-- Node1&#45;&gt;Node2 -->
<g id="edge1" class="edge">
<title>Node1&#45;&gt;Node2</title>
<path fill="none" stroke="midnightblue" d="M110.29,-19.3C158.08,-14.65 229.57,-8.42 292,-5.92 363.5,-3.04 382.34,5.36 453,-5.92 533.36,-18.74 550.98,-33.88 627,-62.92 657.11,-74.42 690.39,-89.04 715.73,-100.6"/>
<polygon fill="midnightblue" stroke="midnightblue" points="714.49,-103.88 725.04,-104.87 717.41,-97.52 714.49,-103.88"/>
</g>
<!-- Node3 -->
<g id="node3" class="node">
<title>Node3</title>
<g id="a_node3"><a xlink:href="classcache__t.html#a064ff4698c44668e702fda0a95278185" target="_top" xlink:title=" ">
<polygon fill="white" stroke="black" points="146,-53.42 146,-72.42 256,-72.42 256,-53.42 146,-53.42"/>
<text text-anchor="middle" x="201" y="-60.42" font-family="Helvetica,sans-Serif" font-size="10.00">cache_t::installLine</text>
</a>
</g>
</g>
<!-- Node1&#45;&gt;Node3 -->
<g id="edge2" class="edge">
<title>Node1&#45;&gt;Node3</title>
<path fill="none" stroke="midnightblue" d="M92.34,-34.5C111.08,-39.45 134.14,-45.54 154.11,-50.8"/>
<polygon fill="midnightblue" stroke="midnightblue" points="153.36,-54.23 163.92,-53.4 155.15,-47.46 153.36,-54.23"/>
</g>
<!-- Node5 -->
<g id="node5" class="node">
<title>Node5</title>
<g id="a_node5"><a xlink:href="classcache__t.html#a8fa855f06d00efbcdbe0f4c64add2242" target="_top" xlink:title=" ">
<polygon fill="white" stroke="black" points="292,-15.42 292,-34.42 453,-34.42 453,-15.42 292,-15.42"/>
<text text-anchor="middle" x="372.5" y="-22.42" font-family="Helvetica,sans-Serif" font-size="10.00">cache_t::tagIdxSetCalculation</text>
</a>
</g>
</g>
<!-- Node1&#45;&gt;Node5 -->
<g id="edge17" class="edge">
<title>Node1&#45;&gt;Node5</title>
<path fill="none" stroke="midnightblue" d="M110.24,-24.92C157.34,-24.92 226.49,-24.92 281.82,-24.92"/>
<polygon fill="midnightblue" stroke="midnightblue" points="281.98,-28.42 291.98,-24.92 281.98,-21.42 281.98,-28.42"/>
</g>
<!-- Node3&#45;&gt;Node2 -->
<g id="edge3" class="edge">
<title>Node3&#45;&gt;Node2</title>
<path fill="none" stroke="midnightblue" d="M256.1,-61.21C337.27,-59.59 495.12,-60.02 627,-81.92 653.28,-86.28 681.77,-94.23 705.36,-101.73"/>
<polygon fill="midnightblue" stroke="midnightblue" points="704.55,-105.15 715.15,-104.9 706.72,-98.49 704.55,-105.15"/>
</g>
<!-- Node4 -->
<g id="node4" class="node">
<title>Node4</title>
<g id="a_node4"><a xlink:href="classcache__t.html#a08af353e5ef8b2c78f4d7a3cc57bf8fc" target="_top" xlink:title=" ">
<polygon fill="white" stroke="black" points="319,-91.42 319,-110.42 426,-110.42 426,-91.42 319,-91.42"/>
<text text-anchor="middle" x="372.5" y="-98.42" font-family="Helvetica,sans-Serif" font-size="10.00">cache_t::searchLru</text>
</a>
</g>
</g>
<!-- Node3&#45;&gt;Node4 -->
<g id="edge4" class="edge">
<title>Node3&#45;&gt;Node4</title>
<path fill="none" stroke="midnightblue" d="M244.77,-72.5C267.34,-77.56 295.22,-83.82 319.08,-89.16"/>
<polygon fill="midnightblue" stroke="midnightblue" points="318.51,-92.62 329.04,-91.4 320.04,-85.79 318.51,-92.62"/>
</g>
<!-- Node3&#45;&gt;Node5 -->
<g id="edge5" class="edge">
<title>Node3&#45;&gt;Node5</title>
<path fill="none" stroke="midnightblue" d="M244.77,-53.33C267.34,-48.27 295.22,-42.02 319.08,-36.67"/>
<polygon fill="midnightblue" stroke="midnightblue" points="320.04,-40.04 329.04,-34.44 318.51,-33.21 320.04,-40.04"/>
</g>
<!-- Node6 -->
<g id="node6" class="node">
<title>Node6</title>
<g id="a_node6"><a xlink:href="classcache__t.html#ac2fe482915a79b89e82582255421f7c0" target="_top" xlink:title=" ">
<polygon fill="white" stroke="black" points="318,-151.42 318,-170.42 427,-170.42 427,-151.42 318,-151.42"/>
<text text-anchor="middle" x="372.5" y="-158.42" font-family="Helvetica,sans-Serif" font-size="10.00">cache_t::writeBack</text>
</a>
</g>
</g>
<!-- Node3&#45;&gt;Node6 -->
<g id="edge6" class="edge">
<title>Node3&#45;&gt;Node6</title>
<path fill="none" stroke="midnightblue" d="M216.41,-72.6C233.98,-84.28 264.72,-104.28 292,-119.92 308.51,-129.38 327.44,-139.18 342.68,-146.82"/>
<polygon fill="midnightblue" stroke="midnightblue" points="341.13,-149.96 351.64,-151.28 344.25,-143.69 341.13,-149.96"/>
</g>
<!-- Node6&#45;&gt;Node2 -->
<g id="edge13" class="edge">
<title>Node6&#45;&gt;Node2</title>
<path fill="none" stroke="midnightblue" d="M427.23,-155.17C497.51,-147.66 620.43,-134.52 694.72,-126.57"/>
<polygon fill="midnightblue" stroke="midnightblue" points="695.29,-130.03 704.86,-125.49 694.55,-123.07 695.29,-130.03"/>
</g>
<!-- Node7 -->
<g id="node7" class="node">
<title>Node7</title>
<g id="a_node7"><a xlink:href="classline__t.html#a5b92a71c2f16f2a194f9863284215556" target="_top" xlink:title=" ">
<polygon fill="white" stroke="black" points="708.5,-236.42 708.5,-255.42 807.5,-255.42 807.5,-236.42 708.5,-236.42"/>
<text text-anchor="middle" x="758" y="-243.42" font-family="Helvetica,sans-Serif" font-size="10.00">line_t::clean_line</text>
</a>
</g>
</g>
<!-- Node6&#45;&gt;Node7 -->
<g id="edge7" class="edge">
<title>Node6&#45;&gt;Node7</title>
<path fill="none" stroke="midnightblue" d="M382.19,-170.51C400,-189.38 442.87,-230.77 489,-245.92 558.08,-268.6 642.69,-263.59 698.13,-256.24"/>
<polygon fill="midnightblue" stroke="midnightblue" points="698.71,-259.69 708.13,-254.85 697.74,-252.76 698.71,-259.69"/>
</g>
<!-- Node8 -->
<g id="node8" class="node">
<title>Node8</title>
<g id="a_node8"><a xlink:href="classcache__t.html#a926d33bfce8203d4291ee5e11fe58678" target="_top" xlink:title=" ">
<polygon fill="white" stroke="black" points="500.5,-217.42 500.5,-236.42 615.5,-236.42 615.5,-217.42 500.5,-217.42"/>
<text text-anchor="middle" x="558" y="-224.42" font-family="Helvetica,sans-Serif" font-size="10.00">cache_t::copyLevels</text>
</a>
</g>
</g>
<!-- Node6&#45;&gt;Node8 -->
<g id="edge8" class="edge">
<title>Node6&#45;&gt;Node8</title>
<path fill="none" stroke="midnightblue" d="M394.93,-170.5C417.92,-180.57 455.61,-196.5 489,-207.92 495.62,-210.18 502.68,-212.38 509.64,-214.43"/>
<polygon fill="midnightblue" stroke="midnightblue" points="509.13,-217.93 519.71,-217.32 511.06,-211.2 509.13,-217.93"/>
</g>
<!-- Node9 -->
<g id="node9" class="node">
<title>Node9</title>
<g id="a_node9"><a xlink:href="classcache__t.html#abaf4210052b55d606e99604f6c2056b0" target="_top" xlink:title=" ">
<polygon fill="white" stroke="black" points="489,-91.42 489,-110.42 627,-110.42 627,-91.42 489,-91.42"/>
<text text-anchor="middle" x="558" y="-98.42" font-family="Helvetica,sans-Serif" font-size="10.00">cache_t::copyNextLevels</text>
</a>
</g>
</g>
<!-- Node6&#45;&gt;Node9 -->
<g id="edge11" class="edge">
<title>Node6&#45;&gt;Node9</title>
<path fill="none" stroke="midnightblue" d="M402.58,-151.41C433.76,-141.21 483.44,-124.97 518,-113.67"/>
<polygon fill="midnightblue" stroke="midnightblue" points="519.34,-116.91 527.76,-110.48 517.16,-110.26 519.34,-116.91"/>
</g>
<!-- Node10 -->
<g id="node10" class="node">
<title>Node10</title>
<g id="a_node10"><a xlink:href="classmemory__controller__t.html#ad78d3fe5a6cf2ee6e22f9e563dd6e20e" target="_top" xlink:title=" ">
<polygon fill="white" stroke="black" points="498.5,-167.92 498.5,-197.92 617.5,-197.92 617.5,-167.92 498.5,-167.92"/>
<text text-anchor="start" x="506.5" y="-185.92" font-family="Helvetica,sans-Serif" font-size="10.00">memory_controller_t</text>
<text text-anchor="middle" x="558" y="-174.92" font-family="Helvetica,sans-Serif" font-size="10.00">::requestDRAM</text>
</a>
</g>
</g>
<!-- Node6&#45;&gt;Node10 -->
<g id="edge14" class="edge">
<title>Node6&#45;&gt;Node10</title>
<path fill="none" stroke="midnightblue" d="M427.07,-167.34C446.16,-169.63 467.94,-172.24 488.14,-174.66"/>
<polygon fill="midnightblue" stroke="midnightblue" points="487.88,-178.15 498.22,-175.87 488.71,-171.2 487.88,-178.15"/>
</g>
<!-- Node8&#45;&gt;Node2 -->
<g id="edge10" class="edge">
<title>Node8&#45;&gt;Node2</title>
<path fill="none" stroke="midnightblue" d="M607.43,-217.38C614.3,-214.91 621.05,-211.8 627,-207.92 648.15,-194.09 643.06,-179.44 663,-163.92 675.6,-154.11 690.73,-145.82 705.14,-139.17"/>
<polygon fill="midnightblue" stroke="midnightblue" points="706.74,-142.29 714.47,-135.04 703.91,-135.89 706.74,-142.29"/>
</g>
<!-- Node8&#45;&gt;Node7 -->
<g id="edge9" class="edge">
<title>Node8&#45;&gt;Node7</title>
<path fill="none" stroke="midnightblue" d="M615.74,-232.36C641.56,-234.84 672.11,-237.77 698.19,-240.27"/>
<polygon fill="midnightblue" stroke="midnightblue" points="698.02,-243.77 708.31,-241.24 698.69,-236.8 698.02,-243.77"/>
</g>
<!-- Node9&#45;&gt;Node2 -->
<g id="edge12" class="edge">
<title>Node9&#45;&gt;Node2</title>
<path fill="none" stroke="midnightblue" d="M627.14,-107.45C649.06,-109.56 673.23,-111.88 694.71,-113.94"/>
<polygon fill="midnightblue" stroke="midnightblue" points="694.4,-117.42 704.69,-114.9 695.07,-110.46 694.4,-117.42"/>
</g>
<!-- Node10&#45;&gt;Node2 -->
<g id="edge16" class="edge">
<title>Node10&#45;&gt;Node2</title>
<path fill="none" stroke="midnightblue" d="M606.17,-167.91C634.33,-158.95 670.28,-147.51 700.02,-138.05"/>
<polygon fill="midnightblue" stroke="midnightblue" points="701.38,-141.29 709.84,-134.92 699.25,-134.62 701.38,-141.29"/>
</g>
<!-- Node11 -->
<g id="node11" class="node">
<title>Node11</title>
<g id="a_node11"><a xlink:href="enumerations_8cpp.html#abb39d040475b58d11b29c242b33091e1" target="_top" xlink:title="Enumerates the MEMORY OPERATION OF MOB,debug only.">
<polygon fill="white" stroke="black" points="663,-173.42 663,-192.42 853,-192.42 853,-173.42 663,-173.42"/>
<text text-anchor="middle" x="758" y="-180.42" font-family="Helvetica,sans-Serif" font-size="10.00">get_enum_memory_operation_char</text>
</a>
</g>
</g>
<!-- Node10&#45;&gt;Node11 -->
<g id="edge15" class="edge">
<title>Node10&#45;&gt;Node11</title>
<path fill="none" stroke="midnightblue" d="M617.6,-182.92C628.74,-182.92 640.7,-182.92 652.76,-182.92"/>
<polygon fill="midnightblue" stroke="midnightblue" points="652.9,-186.42 662.9,-182.92 652.9,-179.42 652.9,-186.42"/>
</g>
</g>
</svg>
        <g id="navigator" transform="translate(0 0)" fill="#404254">
                <rect fill="#f2f5e9" fill-opacity="0.5" stroke="#606060" stroke-width=".5" x="0" y="0" width="60" height="60"/>
                <use id="zoomplus" xlink:href="#zoomPlus" x="17" y="9" onmousedown="handleZoom(evt,'in')"/>
                <use id="zoomminus" xlink:href="#zoomMin" x="42" y="9" onmousedown="handleZoom(evt,'out')"/>
                <use id="reset" xlink:href="#resetDef" x="30" y="36" onmousedown="handleReset()"/>
                <g id="arrowUp" xlink:href="#dirArrow" transform="translate(30 24)" onmousedown="handlePan(0,-1)">
                  <use xlink:href="#rim" fill="#404040">
                        <set attributeName="fill" to="#808080" begin="arrowUp.mouseover" end="arrowUp.mouseout"/>
                  </use>
                  <path fill="none" stroke="white" stroke-width="1.5" d="M0,-3.0v7 M-2.5,-0.5L0,-3.0L2.5,-0.5"/>
                </g>
                <g id="arrowRight" xlink:href="#dirArrow" transform="rotate(90) translate(36 -43)" onmousedown="handlePan(1,0)">
                  <use xlink:href="#rim" fill="#404040">
                        <set attributeName="fill" to="#808080" begin="arrowRight.mouseover" end="arrowRight.mouseout"/>
                  </use>
                  <path fill="none" stroke="white" stroke-width="1.5" d="M0,-3.0v7 M-2.5,-0.5L0,-3.0L2.5,-0.5"/>
                </g>
                <g id="arrowDown" xlink:href="#dirArrow" transform="rotate(180) translate(-30 -48)" onmousedown="handlePan(0,1)">
                  <use xlink:href="#rim" fill="#404040">
                        <set attributeName="fill" to="#808080" begin="arrowDown.mouseover" end="arrowDown.mouseout"/>
                  </use>
                  <path fill="none" stroke="white" stroke-width="1.5" d="M0,-3.0v7 M-2.5,-0.5L0,-3.0L2.5,-0.5"/>
                </g>
                <g id="arrowLeft" xlink:href="#dirArrow" transform="rotate(270) translate(-36 17)" onmousedown="handlePan(-1,0)">
                  <use xlink:href="#rim" fill="#404040">
                        <set attributeName="fill" to="#808080" begin="arrowLeft.mouseover" end="arrowLeft.mouseout"/>
                  </use>
                  <path fill="none" stroke="white" stroke-width="1.5" d="M0,-3.0v7 M-2.5,-0.5L0,-3.0L2.5,-0.5"/>
                </g>
        </g>
        <svg viewBox="0 0 15 15" width="100%" height="30px" preserveAspectRatio="xMaxYMin meet">
         <g id="arrow_out" transform="scale(0.3 0.3)">
          <a xlink:href="classcache__t_aab55f380c45fb623cdc5160902cbdefa_cgraph_org.svg" target="_base">
           <rect id="button" ry="5" rx="5" y="6" x="6" height="38" width="38"
                fill="#f2f5e9" fill-opacity="0.5" stroke="#606060" stroke-width="1.0"/>
           <path id="arrow"
             d="M 11.500037,31.436501 C 11.940474,20.09759 22.043105,11.32322 32.158766,21.979434 L 37.068811,17.246167 C 37.068811,17.246167 37.088388,32 37.088388,32 L 22.160133,31.978069 C 22.160133,31.978069 26.997745,27.140456 26.997745,27.140456 C 18.528582,18.264221 13.291696,25.230495 11.500037,31.436501 z"
             style="fill:#404040;"/>
          </a>
         </g>
        </svg>
</svg>
