<?xml version="1.0" encoding="UTF-8" standalone="no"?>
<!DOCTYPE svg PUBLIC "-//W3C//DTD SVG 1.1//EN"
 "http://www.w3.org/Graphics/SVG/1.1/DTD/svg11.dtd">
<!-- Generated by graphviz version 2.43.0 (0)
 -->
<!-- Title: cache_manager_t::installCacheLines Pages: 1 -->
<!--zoomable 292 -->
<svg id="main" version="1.1" xmlns="http://www.w3.org/2000/svg" xmlns:xlink="http://www.w3.org/1999/xlink" xml:space="preserve" onload="init(evt)">
<style type="text/css"><![CDATA[
.edge:hover path { stroke: red; }
.edge:hover polygon { stroke: red; fill: red; }
]]></style>
<script type="text/javascript"><![CDATA[
var edges = document.getElementsByTagName('g');
if (edges && edges.length) {
  for (var i=0;i<edges.length;i++) {
    if (edges[i].id.substr(0,4)=='edge') {
      edges[i].setAttribute('class','edge');
    }
  }
}
]]></script>
        <defs>
                <circle id="rim" cx="0" cy="0" r="7"/>
                <circle id="rim2" cx="0" cy="0" r="3.5"/>
                <g id="zoomPlus">
                        <use xlink:href="#rim" fill="#404040">
                                <set attributeName="fill" to="#808080" begin="zoomplus.mouseover" end="zoomplus.mouseout"/>
                        </use>
                        <path d="M-4,0h8M0,-4v8" fill="none" stroke="white" stroke-width="1.5" pointer-events="none"/>
                </g>
                <g id="zoomMin">
                        <use xlink:href="#rim" fill="#404040">
                                <set attributeName="fill" to="#808080" begin="zoomminus.mouseover" end="zoomminus.mouseout"/>
                        </use>
                        <path d="M-4,0h8" fill="none" stroke="white" stroke-width="1.5" pointer-events="none"/>
                </g>
                <g id="dirArrow">
                        <path fill="none" stroke="white" stroke-width="1.5" d="M0,-3.0v7 M-2.5,-0.5L0,-3.0L2.5,-0.5"/>
                </g>
               <g id="resetDef">
                       <use xlink:href="#rim2" fill="#404040">
                               <set attributeName="fill" to="#808080" begin="reset.mouseover" end="reset.mouseout"/>
                       </use>
               </g>
        </defs>

<script type="text/javascript">
var viewWidth = 890;
var viewHeight = 292;
var sectionId = 'dynsection-9';
</script>
<script xlink:href="svgpan.js"/>
<svg id="graph" class="graph">
<g id="viewport">
<title>cache_manager_t::installCacheLines</title>
<polygon fill="white" stroke="transparent" points="-4,4 -4,-288.41 886,-288.41 886,4 -4,4"/>
<!-- Node1 -->
<g id="node1" class="node">
<title>Node1</title>
<g id="a_node1"><a xlink:title=" ">
<polygon fill="#bfbfbf" stroke="black" points="0,-52 0,-82 139,-82 139,-52 0,-52"/>
<text text-anchor="start" x="8" y="-70" font-family="Helvetica,sans-Serif" font-size="10.00">cache_manager_t::install</text>
<text text-anchor="middle" x="69.5" y="-59" font-family="Helvetica,sans-Serif" font-size="10.00">CacheLines</text>
</a>
</g>
</g>
<!-- Node2 -->
<g id="node2" class="node">
<title>Node2</title>
<g id="a_node2"><a xlink:href="classcache__t.html#a064ff4698c44668e702fda0a95278185" target="_top" xlink:title=" ">
<polygon fill="white" stroke="black" points="175,-57.5 175,-76.5 285,-76.5 285,-57.5 175,-57.5"/>
<text text-anchor="middle" x="230" y="-64.5" font-family="Helvetica,sans-Serif" font-size="10.00">cache_t::installLine</text>
</a>
</g>
</g>
<!-- Node1&#45;&gt;Node2 -->
<g id="edge1" class="edge">
<title>Node1&#45;&gt;Node2</title>
<path fill="none" stroke="midnightblue" d="M139.1,-67C147.54,-67 156.16,-67 164.54,-67"/>
<polygon fill="midnightblue" stroke="midnightblue" points="164.62,-70.5 174.62,-67 164.62,-63.5 164.62,-70.5"/>
</g>
<!-- Node3 -->
<g id="node3" class="node">
<title>Node3</title>
<g id="a_node3"><a xlink:href="classorcs__engine__t.html#a1c033e3455736ba89052a40c69ebe0af" target="_top" xlink:title=" ">
<polygon fill="white" stroke="black" points="734,-159 734,-189 840,-189 840,-159 734,-159"/>
<text text-anchor="start" x="742" y="-177" font-family="Helvetica,sans-Serif" font-size="10.00">orcs_engine_t::get</text>
<text text-anchor="middle" x="787" y="-166" font-family="Helvetica,sans-Serif" font-size="10.00">_global_cycle</text>
</a>
</g>
</g>
<!-- Node2&#45;&gt;Node3 -->
<g id="edge2" class="edge">
<title>Node2&#45;&gt;Node3</title>
<path fill="none" stroke="midnightblue" d="M285.22,-69.5C392.43,-74.79 623.96,-88.03 656,-105 678.33,-116.83 670.76,-135.31 692,-149 701.66,-155.23 712.83,-159.91 724.02,-163.43"/>
<polygon fill="midnightblue" stroke="midnightblue" points="723.25,-166.85 733.82,-166.23 725.17,-160.12 723.25,-166.85"/>
</g>
<!-- Node4 -->
<g id="node4" class="node">
<title>Node4</title>
<g id="a_node4"><a xlink:href="classcache__t.html#a08af353e5ef8b2c78f4d7a3cc57bf8fc" target="_top" xlink:title=" ">
<polygon fill="white" stroke="black" points="348,-38.5 348,-57.5 455,-57.5 455,-38.5 348,-38.5"/>
<text text-anchor="middle" x="401.5" y="-45.5" font-family="Helvetica,sans-Serif" font-size="10.00">cache_t::searchLru</text>
</a>
</g>
</g>
<!-- Node2&#45;&gt;Node4 -->
<g id="edge3" class="edge">
<title>Node2&#45;&gt;Node4</title>
<path fill="none" stroke="midnightblue" d="M285.1,-60.94C301.86,-59.06 320.48,-56.97 337.78,-55.03"/>
<polygon fill="midnightblue" stroke="midnightblue" points="338.24,-58.5 347.78,-53.91 337.46,-51.54 338.24,-58.5"/>
</g>
<!-- Node5 -->
<g id="node5" class="node">
<title>Node5</title>
<g id="a_node5"><a xlink:href="classcache__t.html#a8fa855f06d00efbcdbe0f4c64add2242" target="_top" xlink:title=" ">
<polygon fill="white" stroke="black" points="321,-0.5 321,-19.5 482,-19.5 482,-0.5 321,-0.5"/>
<text text-anchor="middle" x="401.5" y="-7.5" font-family="Helvetica,sans-Serif" font-size="10.00">cache_t::tagIdxSetCalculation</text>
</a>
</g>
</g>
<!-- Node2&#45;&gt;Node5 -->
<g id="edge4" class="edge">
<title>Node2&#45;&gt;Node5</title>
<path fill="none" stroke="midnightblue" d="M251.01,-57.42C269.01,-49.08 296.34,-37.09 321,-29 328.67,-26.48 336.85,-24.15 344.95,-22.04"/>
<polygon fill="midnightblue" stroke="midnightblue" points="345.89,-25.41 354.73,-19.57 344.18,-18.62 345.89,-25.41"/>
</g>
<!-- Node6 -->
<g id="node6" class="node">
<title>Node6</title>
<g id="a_node6"><a xlink:href="classcache__t.html#ac2fe482915a79b89e82582255421f7c0" target="_top" xlink:title=" ">
<polygon fill="white" stroke="black" points="347,-183.5 347,-202.5 456,-202.5 456,-183.5 347,-183.5"/>
<text text-anchor="middle" x="401.5" y="-190.5" font-family="Helvetica,sans-Serif" font-size="10.00">cache_t::writeBack</text>
</a>
</g>
</g>
<!-- Node2&#45;&gt;Node6 -->
<g id="edge5" class="edge">
<title>Node2&#45;&gt;Node6</title>
<path fill="none" stroke="midnightblue" d="M244.02,-76.68C273.18,-98.35 343.94,-150.96 379.45,-177.35"/>
<polygon fill="midnightblue" stroke="midnightblue" points="377.56,-180.3 387.67,-183.46 381.73,-174.69 377.56,-180.3"/>
</g>
<!-- Node6&#45;&gt;Node3 -->
<g id="edge12" class="edge">
<title>Node6&#45;&gt;Node3</title>
<path fill="none" stroke="midnightblue" d="M456.48,-195.26C507.86,-196.88 587.3,-197.99 656,-193 678.19,-191.39 702.35,-188.24 723.75,-184.97"/>
<polygon fill="midnightblue" stroke="midnightblue" points="724.35,-188.42 733.69,-183.41 723.27,-181.5 724.35,-188.42"/>
</g>
<!-- Node7 -->
<g id="node7" class="node">
<title>Node7</title>
<g id="a_node7"><a xlink:href="classline__t.html#a5b92a71c2f16f2a194f9863284215556" target="_top" xlink:title=" ">
<polygon fill="white" stroke="black" points="737.5,-259.5 737.5,-278.5 836.5,-278.5 836.5,-259.5 737.5,-259.5"/>
<text text-anchor="middle" x="787" y="-266.5" font-family="Helvetica,sans-Serif" font-size="10.00">line_t::clean_line</text>
</a>
</g>
</g>
<!-- Node6&#45;&gt;Node7 -->
<g id="edge6" class="edge">
<title>Node6&#45;&gt;Node7</title>
<path fill="none" stroke="midnightblue" d="M412.56,-202.67C431.4,-220.01 474.08,-255.85 518,-269 587.65,-289.86 672.14,-285.25 727.39,-278.5"/>
<polygon fill="midnightblue" stroke="midnightblue" points="727.88,-281.96 737.35,-277.22 726.99,-275.02 727.88,-281.96"/>
</g>
<!-- Node8 -->
<g id="node8" class="node">
<title>Node8</title>
<g id="a_node8"><a xlink:href="classcache__t.html#a926d33bfce8203d4291ee5e11fe58678" target="_top" xlink:title=" ">
<polygon fill="white" stroke="black" points="529.5,-240.5 529.5,-259.5 644.5,-259.5 644.5,-240.5 529.5,-240.5"/>
<text text-anchor="middle" x="587" y="-247.5" font-family="Helvetica,sans-Serif" font-size="10.00">cache_t::copyLevels</text>
</a>
</g>
</g>
<!-- Node6&#45;&gt;Node8 -->
<g id="edge7" class="edge">
<title>Node6&#45;&gt;Node8</title>
<path fill="none" stroke="midnightblue" d="M433.21,-202.54C464.04,-212.12 511.7,-226.92 545.58,-237.45"/>
<polygon fill="midnightblue" stroke="midnightblue" points="544.6,-240.8 555.19,-240.43 546.67,-234.12 544.6,-240.8"/>
</g>
<!-- Node9 -->
<g id="node9" class="node">
<title>Node9</title>
<g id="a_node9"><a xlink:href="classcache__t.html#abaf4210052b55d606e99604f6c2056b0" target="_top" xlink:title=" ">
<polygon fill="white" stroke="black" points="518,-164.5 518,-183.5 656,-183.5 656,-164.5 518,-164.5"/>
<text text-anchor="middle" x="587" y="-171.5" font-family="Helvetica,sans-Serif" font-size="10.00">cache_t::copyNextLevels</text>
</a>
</g>
</g>
<!-- Node6&#45;&gt;Node9 -->
<g id="edge10" class="edge">
<title>Node6&#45;&gt;Node9</title>
<path fill="none" stroke="midnightblue" d="M456.07,-187.45C472.25,-185.78 490.36,-183.9 507.81,-182.1"/>
<polygon fill="midnightblue" stroke="midnightblue" points="508.39,-185.55 517.98,-181.04 507.67,-178.59 508.39,-185.55"/>
</g>
<!-- Node10 -->
<g id="node10" class="node">
<title>Node10</title>
<g id="a_node10"><a xlink:href="classmemory__controller__t.html#ad78d3fe5a6cf2ee6e22f9e563dd6e20e" target="_top" xlink:title=" ">
<polygon fill="white" stroke="black" points="527.5,-115 527.5,-145 646.5,-145 646.5,-115 527.5,-115"/>
<text text-anchor="start" x="535.5" y="-133" font-family="Helvetica,sans-Serif" font-size="10.00">memory_controller_t</text>
<text text-anchor="middle" x="587" y="-122" font-family="Helvetica,sans-Serif" font-size="10.00">::requestDRAM</text>
</a>
</g>
</g>
<!-- Node6&#45;&gt;Node10 -->
<g id="edge13" class="edge">
<title>Node6&#45;&gt;Node10</title>
<path fill="none" stroke="midnightblue" d="M430.37,-183.43C457.38,-174.16 499.06,-159.85 532.48,-148.37"/>
<polygon fill="midnightblue" stroke="midnightblue" points="533.8,-151.62 542.12,-145.07 531.53,-145 533.8,-151.62"/>
</g>
<!-- Node8&#45;&gt;Node3 -->
<g id="edge9" class="edge">
<title>Node8&#45;&gt;Node3</title>
<path fill="none" stroke="midnightblue" d="M615.88,-240.45C628.22,-236.15 642.88,-230.94 656,-226 684.02,-215.46 715.16,-203.02 739.94,-192.96"/>
<polygon fill="midnightblue" stroke="midnightblue" points="741.51,-196.1 749.45,-189.09 738.87,-189.62 741.51,-196.1"/>
</g>
<!-- Node8&#45;&gt;Node7 -->
<g id="edge8" class="edge">
<title>Node8&#45;&gt;Node7</title>
<path fill="none" stroke="midnightblue" d="M644.74,-255.44C670.56,-257.92 701.11,-260.85 727.19,-263.36"/>
<polygon fill="midnightblue" stroke="midnightblue" points="727.02,-266.86 737.31,-264.33 727.69,-259.89 727.02,-266.86"/>
</g>
<!-- Node9&#45;&gt;Node3 -->
<g id="edge11" class="edge">
<title>Node9&#45;&gt;Node3</title>
<path fill="none" stroke="midnightblue" d="M656.14,-174C677.96,-174 702.01,-174 723.41,-174"/>
<polygon fill="midnightblue" stroke="midnightblue" points="723.69,-177.5 733.69,-174 723.69,-170.5 723.69,-177.5"/>
</g>
<!-- Node10&#45;&gt;Node3 -->
<g id="edge15" class="edge">
<title>Node10&#45;&gt;Node3</title>
<path fill="none" stroke="midnightblue" d="M646.6,-143.02C670.96,-148.44 699.25,-154.72 723.96,-160.21"/>
<polygon fill="midnightblue" stroke="midnightblue" points="723.42,-163.68 733.94,-162.43 724.94,-156.85 723.42,-163.68"/>
</g>
<!-- Node11 -->
<g id="node11" class="node">
<title>Node11</title>
<g id="a_node11"><a xlink:href="enumerations_8cpp.html#abb39d040475b58d11b29c242b33091e1" target="_top" xlink:title="Enumerates the MEMORY OPERATION OF MOB,debug only.">
<polygon fill="white" stroke="black" points="692,-120.5 692,-139.5 882,-139.5 882,-120.5 692,-120.5"/>
<text text-anchor="middle" x="787" y="-127.5" font-family="Helvetica,sans-Serif" font-size="10.00">get_enum_memory_operation_char</text>
</a>
</g>
</g>
<!-- Node10&#45;&gt;Node11 -->
<g id="edge14" class="edge">
<title>Node10&#45;&gt;Node11</title>
<path fill="none" stroke="midnightblue" d="M646.6,-130C657.74,-130 669.7,-130 681.76,-130"/>
<polygon fill="midnightblue" stroke="midnightblue" points="681.9,-133.5 691.9,-130 681.9,-126.5 681.9,-133.5"/>
</g>
</g>
</svg>
        <g id="navigator" transform="translate(0 0)" fill="#404254">
                <rect fill="#f2f5e9" fill-opacity="0.5" stroke="#606060" stroke-width=".5" x="0" y="0" width="60" height="60"/>
                <use id="zoomplus" xlink:href="#zoomPlus" x="17" y="9" onmousedown="handleZoom(evt,'in')"/>
                <use id="zoomminus" xlink:href="#zoomMin" x="42" y="9" onmousedown="handleZoom(evt,'out')"/>
                <use id="reset" xlink:href="#resetDef" x="30" y="36" onmousedown="handleReset()"/>
                <g id="arrowUp" xlink:href="#dirArrow" transform="translate(30 24)" onmousedown="handlePan(0,-1)">
                  <use xlink:href="#rim" fill="#404040">
                        <set attributeName="fill" to="#808080" begin="arrowUp.mouseover" end="arrowUp.mouseout"/>
                  </use>
                  <path fill="none" stroke="white" stroke-width="1.5" d="M0,-3.0v7 M-2.5,-0.5L0,-3.0L2.5,-0.5"/>
                </g>
                <g id="arrowRight" xlink:href="#dirArrow" transform="rotate(90) translate(36 -43)" onmousedown="handlePan(1,0)">
                  <use xlink:href="#rim" fill="#404040">
                        <set attributeName="fill" to="#808080" begin="arrowRight.mouseover" end="arrowRight.mouseout"/>
                  </use>
                  <path fill="none" stroke="white" stroke-width="1.5" d="M0,-3.0v7 M-2.5,-0.5L0,-3.0L2.5,-0.5"/>
                </g>
                <g id="arrowDown" xlink:href="#dirArrow" transform="rotate(180) translate(-30 -48)" onmousedown="handlePan(0,1)">
                  <use xlink:href="#rim" fill="#404040">
                        <set attributeName="fill" to="#808080" begin="arrowDown.mouseover" end="arrowDown.mouseout"/>
                  </use>
                  <path fill="none" stroke="white" stroke-width="1.5" d="M0,-3.0v7 M-2.5,-0.5L0,-3.0L2.5,-0.5"/>
                </g>
                <g id="arrowLeft" xlink:href="#dirArrow" transform="rotate(270) translate(-36 17)" onmousedown="handlePan(-1,0)">
                  <use xlink:href="#rim" fill="#404040">
                        <set attributeName="fill" to="#808080" begin="arrowLeft.mouseover" end="arrowLeft.mouseout"/>
                  </use>
                  <path fill="none" stroke="white" stroke-width="1.5" d="M0,-3.0v7 M-2.5,-0.5L0,-3.0L2.5,-0.5"/>
                </g>
        </g>
        <svg viewBox="0 0 15 15" width="100%" height="30px" preserveAspectRatio="xMaxYMin meet">
         <g id="arrow_out" transform="scale(0.3 0.3)">
          <a xlink:href="classcache__manager__t_aa76b32aba8726cac910c9d30d9bc1713_cgraph_org.svg" target="_base">
           <rect id="button" ry="5" rx="5" y="6" x="6" height="38" width="38"
                fill="#f2f5e9" fill-opacity="0.5" stroke="#606060" stroke-width="1.0"/>
           <path id="arrow"
             d="M 11.500037,31.436501 C 11.940474,20.09759 22.043105,11.32322 32.158766,21.979434 L 37.068811,17.246167 C 37.068811,17.246167 37.088388,32 37.088388,32 L 22.160133,31.978069 C 22.160133,31.978069 26.997745,27.140456 26.997745,27.140456 C 18.528582,18.264221 13.291696,25.230495 11.500037,31.436501 z"
             style="fill:#404040;"/>
          </a>
         </g>
        </svg>
</svg>
