<?xml version="1.0" encoding="UTF-8" standalone="no"?>
<!DOCTYPE svg PUBLIC "-//W3C//DTD SVG 1.1//EN"
 "http://www.w3.org/Graphics/SVG/1.1/DTD/svg11.dtd">
<!-- Generated by graphviz version 2.43.0 (0)
 -->
<!-- Title: reorder_buffer_line_t Pages: 1 -->
<svg width="401pt" height="173pt"
 viewBox="0.00 0.00 400.50 173.00" xmlns="http://www.w3.org/2000/svg" xmlns:xlink="http://www.w3.org/1999/xlink">
<g id="graph0" class="graph" transform="scale(1 1) rotate(0) translate(4 169)">
<title>reorder_buffer_line_t</title>
<polygon fill="white" stroke="transparent" points="-4,4 -4,-169 396.5,-169 396.5,4 -4,4"/>
<!-- Node1 -->
<g id="node1" class="node">
<title>Node1</title>
<g id="a_node1"><a xlink:title=" ">
<polygon fill="#bfbfbf" stroke="black" points="159.5,-78.5 159.5,-97.5 277.5,-97.5 277.5,-78.5 159.5,-78.5"/>
<text text-anchor="middle" x="218.5" y="-85.5" font-family="Helvetica,sans-Serif" font-size="10.00">reorder_buffer_line_t</text>
</a>
</g>
</g>
<!-- Node1&#45;&gt;Node1 -->
<g id="edge2" class="edge">
<title>Node1&#45;&gt;Node1</title>
<path fill="none" stroke="#9a32cd" stroke-dasharray="5,2" d="M287.53,-92.41C292.48,-91.41 295.5,-89.94 295.5,-88 295.5,-84.97 288.13,-83.09 277.58,-82.35"/>
<polygon fill="#9a32cd" stroke="#9a32cd" points="287.07,-88.94 277.58,-93.65 287.93,-95.89 287.07,-88.94"/>
<text text-anchor="middle" x="344" y="-85.5" font-family="Helvetica,sans-Serif" font-size="10.00"> reg_deps_ptr_array</text>
</g>
<!-- Node3 -->
<g id="node3" class="node">
<title>Node3</title>
<g id="a_node3"><a xlink:href="classmemory__order__buffer__line__t.html" target="_top" xlink:title=" ">
<polygon fill="white" stroke="black" points="96.5,-0.5 96.5,-30.5 218.5,-30.5 218.5,-0.5 96.5,-0.5"/>
<text text-anchor="start" x="104.5" y="-18.5" font-family="Helvetica,sans-Serif" font-size="10.00">memory_order_buffer</text>
<text text-anchor="middle" x="157.5" y="-7.5" font-family="Helvetica,sans-Serif" font-size="10.00">_line_t</text>
</a>
</g>
</g>
<!-- Node1&#45;&gt;Node3 -->
<g id="edge5" class="edge">
<title>Node1&#45;&gt;Node3</title>
<path fill="none" stroke="#9a32cd" stroke-dasharray="5,2" d="M169.53,-73.82C163.6,-70.26 158.31,-65.74 154.5,-60 148.81,-51.42 150.01,-39.68 152.39,-30.56"/>
<polygon fill="#9a32cd" stroke="#9a32cd" points="168.06,-77 178.57,-78.39 171.22,-70.76 168.06,-77"/>
<text text-anchor="middle" x="173.5" y="-52" font-family="Helvetica,sans-Serif" font-size="10.00"> rob_ptr</text>
</g>
<!-- Node2 -->
<g id="node2" class="node">
<title>Node2</title>
<g id="a_node2"><a xlink:href="classuop__package__t.html" target="_top" xlink:title=" ">
<polygon fill="white" stroke="black" points="174,-145.5 174,-164.5 263,-164.5 263,-145.5 174,-145.5"/>
<text text-anchor="middle" x="218.5" y="-152.5" font-family="Helvetica,sans-Serif" font-size="10.00">uop_package_t</text>
</a>
</g>
</g>
<!-- Node2&#45;&gt;Node1 -->
<g id="edge1" class="edge">
<title>Node2&#45;&gt;Node1</title>
<path fill="none" stroke="#9a32cd" stroke-dasharray="5,2" d="M218.5,-135.04C218.5,-122.67 218.5,-107.12 218.5,-97.63"/>
<polygon fill="#9a32cd" stroke="#9a32cd" points="215,-135.23 218.5,-145.23 222,-135.23 215,-135.23"/>
<text text-anchor="middle" x="229.5" y="-119" font-family="Helvetica,sans-Serif" font-size="10.00"> uop</text>
</g>
<!-- Node3&#45;&gt;Node1 -->
<g id="edge3" class="edge">
<title>Node3&#45;&gt;Node1</title>
<path fill="none" stroke="#9a32cd" stroke-dasharray="5,2" d="M185.14,-37.42C189.18,-41.06 193.11,-44.98 196.5,-49 204.16,-58.09 210.66,-70.21 214.56,-78.3"/>
<polygon fill="#9a32cd" stroke="#9a32cd" points="187.25,-34.62 177.37,-30.81 182.72,-39.96 187.25,-34.62"/>
<text text-anchor="middle" x="225.5" y="-52" font-family="Helvetica,sans-Serif" font-size="10.00"> mob_ptr</text>
</g>
<!-- Node3&#45;&gt;Node3 -->
<g id="edge6" class="edge">
<title>Node3&#45;&gt;Node3</title>
<path fill="none" stroke="#9a32cd" stroke-dasharray="5,2" d="M228.99,-20.58C233.67,-19.4 236.5,-17.7 236.5,-15.5 236.5,-11.97 229.25,-9.76 218.78,-8.85"/>
<polygon fill="#9a32cd" stroke="#9a32cd" points="228.13,-17.17 218.78,-22.15 229.2,-24.09 228.13,-17.17"/>
<text text-anchor="middle" x="290" y="-13" font-family="Helvetica,sans-Serif" font-size="10.00"> mem_deps_ptr_array</text>
</g>
<!-- Node4 -->
<g id="node4" class="node">
<title>Node4</title>
<g id="a_node4"><a xlink:href="classmemory__request__client__t.html" target="_top" xlink:title=" ">
<polygon fill="white" stroke="black" points="0,-78.5 0,-97.5 141,-97.5 141,-78.5 0,-78.5"/>
<text text-anchor="middle" x="70.5" y="-85.5" font-family="Helvetica,sans-Serif" font-size="10.00">memory_request_client_t</text>
</a>
</g>
</g>
<!-- Node4&#45;&gt;Node3 -->
<g id="edge4" class="edge">
<title>Node4&#45;&gt;Node3</title>
<path fill="none" stroke="midnightblue" d="M89.28,-71.78C104.37,-59.55 125.42,-42.5 140.13,-30.58"/>
<polygon fill="midnightblue" stroke="midnightblue" points="86.73,-69.34 81.17,-78.36 91.14,-74.78 86.73,-69.34"/>
</g>
</g>
</svg>
