<?xml version="1.0" encoding="UTF-8" standalone="no"?>
<!DOCTYPE svg PUBLIC "-//W3C//DTD SVG 1.1//EN"
 "http://www.w3.org/Graphics/SVG/1.1/DTD/svg11.dtd">
<!-- Generated by graphviz version 2.43.0 (0)
 -->
<!-- Title: cacheSet_t Pages: 1 -->
<svg width="162pt" height="95pt"
 viewBox="0.00 0.00 162.00 95.00" xmlns="http://www.w3.org/2000/svg" xmlns:xlink="http://www.w3.org/1999/xlink">
<g id="graph0" class="graph" transform="scale(1 1) rotate(0) translate(4 91)">
<title>cacheSet_t</title>
<polygon fill="white" stroke="transparent" points="-4,4 -4,-91 158,-91 158,4 -4,4"/>
<!-- Node1 -->
<g id="node1" class="node">
<title>Node1</title>
<g id="a_node1"><a xlink:title=" ">
<polygon fill="#bfbfbf" stroke="black" points="0,-0.5 0,-19.5 70,-19.5 70,-0.5 0,-0.5"/>
<text text-anchor="middle" x="35" y="-7.5" font-family="Helvetica,sans-Serif" font-size="10.00">cacheSet_t</text>
</a>
</g>
</g>
<!-- Node2 -->
<g id="node2" class="node">
<title>Node2</title>
<g id="a_node2"><a xlink:href="classline__t.html" target="_top" xlink:title=" ">
<polygon fill="white" stroke="black" points="13,-67.5 13,-86.5 57,-86.5 57,-67.5 13,-67.5"/>
<text text-anchor="middle" x="35" y="-74.5" font-family="Helvetica,sans-Serif" font-size="10.00">line_t</text>
</a>
</g>
</g>
<!-- Node2&#45;&gt;Node1 -->
<g id="edge1" class="edge">
<title>Node2&#45;&gt;Node1</title>
<path fill="none" stroke="#9a32cd" stroke-dasharray="5,2" d="M35,-57.04C35,-44.67 35,-29.12 35,-19.63"/>
<polygon fill="#9a32cd" stroke="#9a32cd" points="31.5,-57.23 35,-67.23 38.5,-57.23 31.5,-57.23"/>
<text text-anchor="middle" x="48.5" y="-41" font-family="Helvetica,sans-Serif" font-size="10.00"> lines</text>
</g>
<!-- Node2&#45;&gt;Node2 -->
<g id="edge2" class="edge">
<title>Node2&#45;&gt;Node2</title>
<path fill="none" stroke="#9a32cd" stroke-dasharray="5,2" d="M67.4,-82.37C71.95,-81.49 75,-79.7 75,-77 75,-72.56 66.8,-70.59 57.21,-71.07"/>
<polygon fill="#9a32cd" stroke="#9a32cd" points="67.01,-78.89 57.21,-82.93 67.39,-85.88 67.01,-78.89"/>
<text text-anchor="middle" x="114.5" y="-74.5" font-family="Helvetica,sans-Serif" font-size="10.00"> line_ptr_caches</text>
</g>
</g>
</svg>
