<?xml version="1.0" encoding="UTF-8" standalone="no"?>
<!DOCTYPE svg PUBLIC "-//W3C//DTD SVG 1.1//EN"
 "http://www.w3.org/Graphics/SVG/1.1/DTD/svg11.dtd">
<!-- Generated by graphviz version 2.43.0 (0)
 -->
<!-- Title: processor_t::fetch Pages: 1 -->
<!--zoomable 815 -->
<svg id="main" version="1.1" xmlns="http://www.w3.org/2000/svg" xmlns:xlink="http://www.w3.org/1999/xlink" xml:space="preserve" onload="init(evt)">
<style type="text/css"><![CDATA[
.edge:hover path { stroke: red; }
.edge:hover polygon { stroke: red; fill: red; }
]]></style>
<script type="text/javascript"><![CDATA[
var edges = document.getElementsByTagName('g');
if (edges && edges.length) {
  for (var i=0;i<edges.length;i++) {
    if (edges[i].id.substr(0,4)=='edge') {
      edges[i].setAttribute('class','edge');
    }
  }
}
]]></script>
        <defs>
                <circle id="rim" cx="0" cy="0" r="7"/>
                <circle id="rim2" cx="0" cy="0" r="3.5"/>
                <g id="zoomPlus">
                        <use xlink:href="#rim" fill="#404040">
                                <set attributeName="fill" to="#808080" begin="zoomplus.mouseover" end="zoomplus.mouseout"/>
                        </use>
                        <path d="M-4,0h8M0,-4v8" fill="none" stroke="white" stroke-width="1.5" pointer-events="none"/>
                </g>
                <g id="zoomMin">
                        <use xlink:href="#rim" fill="#404040">
                                <set attributeName="fill" to="#808080" begin="zoomminus.mouseover" end="zoomminus.mouseout"/>
                        </use>
                        <path d="M-4,0h8" fill="none" stroke="white" stroke-width="1.5" pointer-events="none"/>
                </g>
                <g id="dirArrow">
                        <path fill="none" stroke="white" stroke-width="1.5" d="M0,-3.0v7 M-2.5,-0.5L0,-3.0L2.5,-0.5"/>
                </g>
               <g id="resetDef">
                       <use xlink:href="#rim2" fill="#404040">
                               <set attributeName="fill" to="#808080" begin="reset.mouseover" end="reset.mouseout"/>
                       </use>
               </g>
        </defs>

<script type="text/javascript">
var viewWidth = 741;
var viewHeight = 815;
var sectionId = 'dynsection-10';
</script>
<script xlink:href="svgpan.js"/>
<svg id="graph" class="graph">
<g id="viewport">
<title>processor_t::fetch</title>
<polygon fill="white" stroke="transparent" points="-4,4 -4,-811 737,-811 737,4 -4,4"/>
<!-- Node1 -->
<g id="node1" class="node">
<title>Node1</title>
<g id="a_node1"><a xlink:title=" ">
<polygon fill="#bfbfbf" stroke="black" points="0,-417 0,-436 104,-436 104,-417 0,-417"/>
<text text-anchor="middle" x="52" y="-424" font-family="Helvetica,sans-Serif" font-size="10.00">processor_t::fetch</text>
</a>
</g>
</g>
<!-- Node2 -->
<g id="node2" class="node">
<title>Node2</title>
<g id="a_node2"><a xlink:href="classcache__manager__t.html#a9abccd4bc20a33397cc207c091ffc0bc" target="_top" xlink:title=" ">
<polygon fill="white" stroke="black" points="145,-767 145,-786 299,-786 299,-767 145,-767"/>
<text text-anchor="middle" x="222" y="-774" font-family="Helvetica,sans-Serif" font-size="10.00">cache_manager_t::available</text>
</a>
</g>
</g>
<!-- Node1&#45;&gt;Node2 -->
<g id="edge1" class="edge">
<title>Node1&#45;&gt;Node2</title>
<path fill="none" stroke="midnightblue" d="M53.45,-436.02C55.76,-475.39 69.1,-627.91 140,-723.5 152.5,-740.36 172.08,-753.38 188.86,-762.3"/>
<polygon fill="midnightblue" stroke="midnightblue" points="187.32,-765.44 197.83,-766.83 190.48,-759.19 187.32,-765.44"/>
</g>
<!-- Node4 -->
<g id="node4" class="node">
<title>Node4</title>
<g id="a_node4"><a xlink:href="classopcode__package__t.html#a67b78e521cdf87d4a6277d01bc58272b" target="_top" xlink:title=" ">
<polygon fill="white" stroke="black" points="147.5,-604.5 147.5,-634.5 296.5,-634.5 296.5,-604.5 147.5,-604.5"/>
<text text-anchor="start" x="155.5" y="-622.5" font-family="Helvetica,sans-Serif" font-size="10.00">opcode_package_t::content</text>
<text text-anchor="middle" x="222" y="-611.5" font-family="Helvetica,sans-Serif" font-size="10.00">_to_string2</text>
</a>
</g>
</g>
<!-- Node1&#45;&gt;Node4 -->
<g id="edge3" class="edge">
<title>Node1&#45;&gt;Node4</title>
<path fill="none" stroke="midnightblue" d="M61.4,-436.16C76.92,-454 111.14,-493.35 140,-526.5 160.82,-550.42 184.66,-577.78 201.05,-596.6"/>
<polygon fill="midnightblue" stroke="midnightblue" points="198.6,-599.12 207.81,-604.36 203.88,-594.52 198.6,-599.12"/>
</g>
<!-- Node6 -->
<g id="node6" class="node">
<title>Node6</title>
<g id="a_node6"><a xlink:href="enumerations_8cpp.html#a29b4f0c7eca5c960bab850a56e5e411c" target="_top" xlink:title=" ">
<polygon fill="white" stroke="black" points="362.5,-727.5 362.5,-757.5 484.5,-757.5 484.5,-727.5 362.5,-727.5"/>
<text text-anchor="start" x="370.5" y="-745.5" font-family="Helvetica,sans-Serif" font-size="10.00">get_enum_instruction</text>
<text text-anchor="middle" x="423.5" y="-734.5" font-family="Helvetica,sans-Serif" font-size="10.00">_operation_char</text>
</a>
</g>
</g>
<!-- Node1&#45;&gt;Node6 -->
<g id="edge9" class="edge">
<title>Node1&#45;&gt;Node6</title>
<path fill="none" stroke="midnightblue" d="M54.08,-436.31C58.33,-470.14 76.84,-583.19 140,-644.5 197.69,-700.5 288.98,-724.61 352.09,-734.92"/>
<polygon fill="midnightblue" stroke="midnightblue" points="351.94,-738.44 362.36,-736.52 353.02,-731.52 351.94,-738.44"/>
</g>
<!-- Node10 -->
<g id="node10" class="node">
<title>Node10</title>
<g id="a_node10"><a xlink:href="enumerations_8cpp.html#abb39d040475b58d11b29c242b33091e1" target="_top" xlink:title="Enumerates the MEMORY OPERATION OF MOB,debug only.">
<polygon fill="white" stroke="black" points="543,-465 543,-484 733,-484 733,-465 543,-465"/>
<text text-anchor="middle" x="638" y="-472" font-family="Helvetica,sans-Serif" font-size="10.00">get_enum_memory_operation_char</text>
</a>
</g>
</g>
<!-- Node1&#45;&gt;Node10 -->
<g id="edge10" class="edge">
<title>Node1&#45;&gt;Node10</title>
<path fill="none" stroke="midnightblue" d="M69.39,-436.13C86.44,-445.68 114.2,-459.95 140,-467.5 296.93,-513.45 343.91,-505.36 507,-493.5 529,-491.9 552.92,-488.8 574.18,-485.56"/>
<polygon fill="midnightblue" stroke="midnightblue" points="574.72,-489.02 584.06,-484.01 573.64,-482.1 574.72,-489.02"/>
</g>
<!-- Node11 -->
<g id="node11" class="node">
<title>Node11</title>
<g id="a_node11"><a xlink:href="classorcs__engine__t.html#a1c033e3455736ba89052a40c69ebe0af" target="_top" xlink:title=" ">
<polygon fill="white" stroke="black" points="585,-307.5 585,-337.5 691,-337.5 691,-307.5 585,-307.5"/>
<text text-anchor="start" x="593" y="-325.5" font-family="Helvetica,sans-Serif" font-size="10.00">orcs_engine_t::get</text>
<text text-anchor="middle" x="638" y="-314.5" font-family="Helvetica,sans-Serif" font-size="10.00">_global_cycle</text>
</a>
</g>
</g>
<!-- Node1&#45;&gt;Node11 -->
<g id="edge11" class="edge">
<title>Node1&#45;&gt;Node11</title>
<path fill="none" stroke="midnightblue" d="M67.06,-416.95C83.69,-406.17 112.59,-389.02 140,-380.5 180.65,-367.87 450.36,-340.58 574.57,-328.48"/>
<polygon fill="midnightblue" stroke="midnightblue" points="575.08,-331.95 584.7,-327.5 574.41,-324.98 575.08,-331.95"/>
</g>
<!-- Node12 -->
<g id="node12" class="node">
<title>Node12</title>
<g id="a_node12"><a xlink:href="classopcode__package__t.html#a2626dd96d965b6af59811e8284f4eafa" target="_top" xlink:title=" ">
<polygon fill="white" stroke="black" points="145.5,-389.5 145.5,-419.5 298.5,-419.5 298.5,-389.5 145.5,-389.5"/>
<text text-anchor="start" x="153.5" y="-407.5" font-family="Helvetica,sans-Serif" font-size="10.00">opcode_package_t::package</text>
<text text-anchor="middle" x="222" y="-396.5" font-family="Helvetica,sans-Serif" font-size="10.00">_clean</text>
</a>
</g>
</g>
<!-- Node1&#45;&gt;Node12 -->
<g id="edge12" class="edge">
<title>Node1&#45;&gt;Node12</title>
<path fill="none" stroke="midnightblue" d="M104.32,-419.78C114.12,-418.5 124.62,-417.12 135.16,-415.74"/>
<polygon fill="midnightblue" stroke="midnightblue" points="135.79,-419.19 145.26,-414.42 134.89,-412.25 135.79,-419.19"/>
</g>
<!-- Node13 -->
<g id="node13" class="node">
<title>Node13</title>
<g id="a_node13"><a xlink:href="classcache__manager__t.html#a0e4328a6d039b46fedab6919517db075" target="_top" xlink:title=" ">
<polygon fill="white" stroke="black" points="140,-439 140,-458 304,-458 304,-439 140,-439"/>
<text text-anchor="middle" x="222" y="-446" font-family="Helvetica,sans-Serif" font-size="10.00">cache_manager_t::searchData</text>
</a>
</g>
</g>
<!-- Node1&#45;&gt;Node13 -->
<g id="edge13" class="edge">
<title>Node1&#45;&gt;Node13</title>
<path fill="none" stroke="midnightblue" d="M104.32,-433.22C115.07,-434.63 126.66,-436.15 138.22,-437.66"/>
<polygon fill="midnightblue" stroke="midnightblue" points="137.98,-441.16 148.35,-438.99 138.89,-434.22 137.98,-441.16"/>
</g>
<!-- Node15 -->
<g id="node15" class="node">
<title>Node15</title>
<g id="a_node15"><a xlink:href="classbranch__predictor__t.html#aaf87ef1f72c9cb7f792877ba49b58977" target="_top" xlink:title=" ">
<polygon fill="white" stroke="black" points="168.5,-214.5 168.5,-244.5 275.5,-244.5 275.5,-214.5 168.5,-214.5"/>
<text text-anchor="start" x="176.5" y="-232.5" font-family="Helvetica,sans-Serif" font-size="10.00">branch_predictor_t</text>
<text text-anchor="middle" x="222" y="-221.5" font-family="Helvetica,sans-Serif" font-size="10.00">::solveBranch</text>
</a>
</g>
</g>
<!-- Node1&#45;&gt;Node15 -->
<g id="edge18" class="edge">
<title>Node1&#45;&gt;Node15</title>
<path fill="none" stroke="midnightblue" d="M57.71,-416.89C69.41,-393.62 101.63,-333.11 140,-291.5 154.28,-276.01 172.78,-261.53 188.5,-250.46"/>
<polygon fill="midnightblue" stroke="midnightblue" points="190.64,-253.23 196.9,-244.68 186.68,-247.47 190.64,-253.23"/>
</g>
<!-- Node21 -->
<g id="node21" class="node">
<title>Node21</title>
<g id="a_node21"><a xlink:href="classtrace__reader__t.html#ae9133afcfcc6137dc6b81fa0035864a4" target="_top" xlink:title=" ">
<polygon fill="white" stroke="black" points="163,-66.5 163,-96.5 281,-96.5 281,-66.5 163,-66.5"/>
<text text-anchor="start" x="171" y="-84.5" font-family="Helvetica,sans-Serif" font-size="10.00">trace_reader_t::trace</text>
<text text-anchor="middle" x="222" y="-73.5" font-family="Helvetica,sans-Serif" font-size="10.00">_fetch</text>
</a>
</g>
</g>
<!-- Node1&#45;&gt;Node21 -->
<g id="edge27" class="edge">
<title>Node1&#45;&gt;Node21</title>
<path fill="none" stroke="midnightblue" d="M55.97,-416.89C65.84,-385.44 99.26,-283.16 140,-204.5 158.85,-168.1 185.86,-129.06 203.41,-104.95"/>
<polygon fill="midnightblue" stroke="midnightblue" points="206.32,-106.91 209.42,-96.78 200.68,-102.76 206.32,-106.91"/>
</g>
<!-- Node25 -->
<g id="node25" class="node">
<title>Node25</title>
<g id="a_node25"><a xlink:href="classmemory__request__client__t.html#acadcca4b5382d385ac1bc8f281ccf985" target="_top" xlink:title=" ">
<polygon fill="white" stroke="black" points="156,-301.5 156,-331.5 288,-331.5 288,-301.5 156,-301.5"/>
<text text-anchor="start" x="164" y="-319.5" font-family="Helvetica,sans-Serif" font-size="10.00">memory_request_client</text>
<text text-anchor="middle" x="222" y="-308.5" font-family="Helvetica,sans-Serif" font-size="10.00">_t::updatePackageWait</text>
</a>
</g>
</g>
<!-- Node1&#45;&gt;Node25 -->
<g id="edge31" class="edge">
<title>Node1&#45;&gt;Node25</title>
<path fill="none" stroke="midnightblue" d="M61.19,-416.83C75.6,-400.34 107.09,-366.63 140,-346.5 146.66,-342.43 153.95,-338.77 161.35,-335.53"/>
<polygon fill="midnightblue" stroke="midnightblue" points="162.84,-338.7 170.74,-331.65 160.17,-332.23 162.84,-338.7"/>
</g>
<!-- Node3 -->
<g id="node3" class="node">
<title>Node3</title>
<g id="a_node3"><a xlink:href="classcache__manager__t.html#a1d0eab3491ced37cfc80481d8e71274f" target="_top" xlink:title=" ">
<polygon fill="white" stroke="black" points="347.5,-776.5 347.5,-806.5 499.5,-806.5 499.5,-776.5 347.5,-776.5"/>
<text text-anchor="start" x="355.5" y="-794.5" font-family="Helvetica,sans-Serif" font-size="10.00">cache_manager_t::generate</text>
<text text-anchor="middle" x="423.5" y="-783.5" font-family="Helvetica,sans-Serif" font-size="10.00">IndexArray</text>
</a>
</g>
</g>
<!-- Node2&#45;&gt;Node3 -->
<g id="edge2" class="edge">
<title>Node2&#45;&gt;Node3</title>
<path fill="none" stroke="midnightblue" d="M299.28,-782.24C311.69,-783.17 324.61,-784.14 337.22,-785.09"/>
<polygon fill="midnightblue" stroke="midnightblue" points="337.02,-788.58 347.25,-785.84 337.55,-781.6 337.02,-788.58"/>
</g>
<!-- Node5 -->
<g id="node5" class="node">
<title>Node5</title>
<g id="a_node5"><a xlink:href="classutils__t.html#ae3f4242cda49254d8d43f5d012d00419" target="_top" xlink:title=" ">
<polygon fill="white" stroke="black" points="371.5,-541.5 371.5,-571.5 475.5,-571.5 475.5,-541.5 371.5,-541.5"/>
<text text-anchor="start" x="379.5" y="-559.5" font-family="Helvetica,sans-Serif" font-size="10.00">utils_t::big_uint64</text>
<text text-anchor="middle" x="423.5" y="-548.5" font-family="Helvetica,sans-Serif" font-size="10.00">_to_string</text>
</a>
</g>
</g>
<!-- Node4&#45;&gt;Node5 -->
<g id="edge4" class="edge">
<title>Node4&#45;&gt;Node5</title>
<path fill="none" stroke="midnightblue" d="M268.49,-604.49C290.12,-597.42 316.36,-588.92 340,-581.5 347.33,-579.2 355.04,-576.82 362.67,-574.48"/>
<polygon fill="midnightblue" stroke="midnightblue" points="363.74,-577.81 372.28,-571.55 361.69,-571.12 363.74,-577.81"/>
</g>
<!-- Node4&#45;&gt;Node6 -->
<g id="edge5" class="edge">
<title>Node4&#45;&gt;Node6</title>
<path fill="none" stroke="midnightblue" d="M237.06,-634.64C257.7,-656.02 298.28,-694.94 340,-717.5 344.14,-719.74 348.51,-721.81 352.99,-723.71"/>
<polygon fill="midnightblue" stroke="midnightblue" points="351.72,-726.97 362.31,-727.39 354.29,-720.46 351.72,-726.97"/>
</g>
<!-- Node7 -->
<g id="node7" class="node">
<title>Node7</title>
<g id="a_node7"><a xlink:href="enumerations_8cpp.html#a4f1219a7c31d137c368e36cea5be9128" target="_top" xlink:title="Enumerates the package state,.">
<polygon fill="white" stroke="black" points="340,-689 340,-708 507,-708 507,-689 340,-689"/>
<text text-anchor="middle" x="423.5" y="-696" font-family="Helvetica,sans-Serif" font-size="10.00">get_enum_package_state_char</text>
</a>
</g>
</g>
<!-- Node4&#45;&gt;Node7 -->
<g id="edge6" class="edge">
<title>Node4&#45;&gt;Node7</title>
<path fill="none" stroke="midnightblue" d="M248.19,-634.74C271.35,-648.18 306.98,-667.44 340,-679.5 347.01,-682.06 354.48,-684.35 361.96,-686.38"/>
<polygon fill="midnightblue" stroke="midnightblue" points="361.19,-689.8 371.75,-688.9 362.94,-683.02 361.19,-689.8"/>
</g>
<!-- Node8 -->
<g id="node8" class="node">
<title>Node8</title>
<g id="a_node8"><a xlink:href="classutils__t.html#a07f0f224928b89eb53c4430d05799916" target="_top" xlink:title=" ">
<polygon fill="white" stroke="black" points="374.5,-639.5 374.5,-669.5 472.5,-669.5 472.5,-639.5 374.5,-639.5"/>
<text text-anchor="start" x="382.5" y="-657.5" font-family="Helvetica,sans-Serif" font-size="10.00">utils_t::uint32_to</text>
<text text-anchor="middle" x="423.5" y="-646.5" font-family="Helvetica,sans-Serif" font-size="10.00">_string</text>
</a>
</g>
</g>
<!-- Node4&#45;&gt;Node8 -->
<g id="edge7" class="edge">
<title>Node4&#45;&gt;Node8</title>
<path fill="none" stroke="midnightblue" d="M296.72,-632.43C319.04,-636.35 343.23,-640.59 364.38,-644.3"/>
<polygon fill="midnightblue" stroke="midnightblue" points="364.04,-647.8 374.49,-646.08 365.25,-640.9 364.04,-647.8"/>
</g>
<!-- Node9 -->
<g id="node9" class="node">
<title>Node9</title>
<g id="a_node9"><a xlink:href="classutils__t.html#aa30deed2def3a1339369e6806073e9fd" target="_top" xlink:title=" ">
<polygon fill="white" stroke="black" points="374.5,-590.5 374.5,-620.5 472.5,-620.5 472.5,-590.5 374.5,-590.5"/>
<text text-anchor="start" x="382.5" y="-608.5" font-family="Helvetica,sans-Serif" font-size="10.00">utils_t::uint64_to</text>
<text text-anchor="middle" x="423.5" y="-597.5" font-family="Helvetica,sans-Serif" font-size="10.00">_string</text>
</a>
</g>
</g>
<!-- Node4&#45;&gt;Node9 -->
<g id="edge8" class="edge">
<title>Node4&#45;&gt;Node9</title>
<path fill="none" stroke="midnightblue" d="M296.72,-614.33C319.04,-612.76 343.23,-611.06 364.38,-609.58"/>
<polygon fill="midnightblue" stroke="midnightblue" points="364.76,-613.06 374.49,-608.87 364.27,-606.08 364.76,-613.06"/>
</g>
<!-- Node13&#45;&gt;Node10 -->
<g id="edge14" class="edge">
<title>Node13&#45;&gt;Node10</title>
<path fill="none" stroke="midnightblue" d="M304.24,-447.91C361.11,-448.13 438.81,-449.7 507,-455.5 528.29,-457.31 551.4,-460.34 572.16,-463.45"/>
<polygon fill="midnightblue" stroke="midnightblue" points="571.72,-466.93 582.14,-464.99 572.78,-460.01 571.72,-466.93"/>
</g>
<!-- Node13&#45;&gt;Node11 -->
<g id="edge15" class="edge">
<title>Node13&#45;&gt;Node11</title>
<path fill="none" stroke="midnightblue" d="M265.11,-438.91C277.64,-435.98 291.4,-432.68 304,-429.5 394.63,-406.6 418.35,-404.13 507,-374.5 536.23,-364.73 568.4,-351.88 593.42,-341.4"/>
<polygon fill="midnightblue" stroke="midnightblue" points="594.79,-344.62 602.64,-337.51 592.07,-338.17 594.79,-344.62"/>
</g>
<!-- Node14 -->
<g id="node14" class="node">
<title>Node14</title>
<g id="a_node14"><a xlink:href="classcache__manager__t.html#a0a94cd6337296baa14acfe4c640ce821" target="_top" xlink:title=" ">
<polygon fill="white" stroke="black" points="360.5,-465 360.5,-484 486.5,-484 486.5,-465 360.5,-465"/>
<text text-anchor="middle" x="423.5" y="-472" font-family="Helvetica,sans-Serif" font-size="10.00">cache_manager_t::isIn</text>
</a>
</g>
</g>
<!-- Node13&#45;&gt;Node14 -->
<g id="edge16" class="edge">
<title>Node13&#45;&gt;Node14</title>
<path fill="none" stroke="midnightblue" d="M296.15,-458.03C313.72,-460.32 332.48,-462.77 350.02,-465.05"/>
<polygon fill="midnightblue" stroke="midnightblue" points="349.82,-468.56 360.19,-466.38 350.72,-461.62 349.82,-468.56"/>
</g>
<!-- Node14&#45;&gt;Node10 -->
<g id="edge17" class="edge">
<title>Node14&#45;&gt;Node10</title>
<path fill="none" stroke="midnightblue" d="M486.54,-474.5C501.01,-474.5 516.81,-474.5 532.56,-474.5"/>
<polygon fill="midnightblue" stroke="midnightblue" points="532.89,-478 542.89,-474.5 532.89,-471 532.89,-478"/>
</g>
<!-- Node16 -->
<g id="node16" class="node">
<title>Node16</title>
<g id="a_node16"><a xlink:href="classbranch__predictor__t.html#aaf038e4b94dc76bef079dc36536bc64a" target="_top" xlink:title=" ">
<polygon fill="white" stroke="black" points="370,-214.5 370,-244.5 477,-244.5 477,-214.5 370,-214.5"/>
<text text-anchor="start" x="378" y="-232.5" font-family="Helvetica,sans-Serif" font-size="10.00">branch_predictor_t</text>
<text text-anchor="middle" x="423.5" y="-221.5" font-family="Helvetica,sans-Serif" font-size="10.00">::installLine</text>
</a>
</g>
</g>
<!-- Node15&#45;&gt;Node16 -->
<g id="edge19" class="edge">
<title>Node15&#45;&gt;Node16</title>
<path fill="none" stroke="midnightblue" d="M275.68,-229.5C301.47,-229.5 332.72,-229.5 359.74,-229.5"/>
<polygon fill="midnightblue" stroke="midnightblue" points="359.87,-233 369.87,-229.5 359.87,-226 359.87,-233"/>
</g>
<!-- Node18 -->
<g id="node18" class="node">
<title>Node18</title>
<g id="a_node18"><a xlink:href="classpredictor__t.html#a6a8c6286dc9f4b44defe272dee86d986" target="_top" xlink:title=" ">
<polygon fill="white" stroke="black" points="583.5,-157 583.5,-176 692.5,-176 692.5,-157 583.5,-157"/>
<text text-anchor="middle" x="638" y="-164" font-family="Helvetica,sans-Serif" font-size="10.00">predictor_t::predict</text>
</a>
</g>
</g>
<!-- Node15&#45;&gt;Node18 -->
<g id="edge22" class="edge">
<title>Node15&#45;&gt;Node18</title>
<path fill="none" stroke="midnightblue" d="M275.53,-217.3C295.63,-212.89 318.81,-208.11 340,-204.5 420.05,-190.85 512.99,-179.71 573.29,-173.1"/>
<polygon fill="midnightblue" stroke="midnightblue" points="573.85,-176.56 583.42,-172 573.1,-169.6 573.85,-176.56"/>
</g>
<!-- Node19 -->
<g id="node19" class="node">
<title>Node19</title>
<g id="a_node19"><a xlink:href="classbranch__predictor__t.html#a93ca4b66a60913420d5f8a7968b1a435" target="_top" xlink:title=" ">
<polygon fill="white" stroke="black" points="370,-263.5 370,-293.5 477,-293.5 477,-263.5 370,-263.5"/>
<text text-anchor="start" x="378" y="-281.5" font-family="Helvetica,sans-Serif" font-size="10.00">branch_predictor_t</text>
<text text-anchor="middle" x="423.5" y="-270.5" font-family="Helvetica,sans-Serif" font-size="10.00">::searchLine</text>
</a>
</g>
</g>
<!-- Node15&#45;&gt;Node19 -->
<g id="edge23" class="edge">
<title>Node15&#45;&gt;Node19</title>
<path fill="none" stroke="midnightblue" d="M275.68,-242.44C301.59,-248.8 332.99,-256.52 360.1,-263.17"/>
<polygon fill="midnightblue" stroke="midnightblue" points="359.33,-266.59 369.87,-265.57 361,-259.79 359.33,-266.59"/>
</g>
<!-- Node20 -->
<g id="node20" class="node">
<title>Node20</title>
<g id="a_node20"><a xlink:href="classpredictor__t.html#af9273acebe7a746ca40ce7d7b755dbea" target="_top" xlink:title=" ">
<polygon fill="white" stroke="black" points="374.5,-138 374.5,-157 472.5,-157 472.5,-138 374.5,-138"/>
<text text-anchor="middle" x="423.5" y="-145" font-family="Helvetica,sans-Serif" font-size="10.00">predictor_t::train</text>
</a>
</g>
</g>
<!-- Node15&#45;&gt;Node20 -->
<g id="edge25" class="edge">
<title>Node15&#45;&gt;Node20</title>
<path fill="none" stroke="midnightblue" d="M250.27,-214.26C273.59,-201.64 308.31,-183.85 340,-171.5 350.96,-167.23 363.01,-163.31 374.42,-159.93"/>
<polygon fill="midnightblue" stroke="midnightblue" points="375.6,-163.23 384.24,-157.11 373.67,-156.51 375.6,-163.23"/>
</g>
<!-- Node16&#45;&gt;Node11 -->
<g id="edge20" class="edge">
<title>Node16&#45;&gt;Node11</title>
<path fill="none" stroke="midnightblue" d="M477.42,-243.15C487.37,-246.2 497.6,-249.69 507,-253.5 540.95,-267.28 577.65,-287.27 603.37,-302.19"/>
<polygon fill="midnightblue" stroke="midnightblue" points="601.93,-305.4 612.33,-307.44 605.47,-299.36 601.93,-305.4"/>
</g>
<!-- Node17 -->
<g id="node17" class="node">
<title>Node17</title>
<g id="a_node17"><a xlink:href="classbranch__predictor__t.html#a6a2b73786ad287926fcf5b4fc215dc10" target="_top" xlink:title=" ">
<polygon fill="white" stroke="black" points="584.5,-214.5 584.5,-244.5 691.5,-244.5 691.5,-214.5 584.5,-214.5"/>
<text text-anchor="start" x="592.5" y="-232.5" font-family="Helvetica,sans-Serif" font-size="10.00">branch_predictor_t</text>
<text text-anchor="middle" x="638" y="-221.5" font-family="Helvetica,sans-Serif" font-size="10.00">::searchLRU</text>
</a>
</g>
</g>
<!-- Node16&#45;&gt;Node17 -->
<g id="edge21" class="edge">
<title>Node16&#45;&gt;Node17</title>
<path fill="none" stroke="midnightblue" d="M477.03,-229.5C506.4,-229.5 543.21,-229.5 574.11,-229.5"/>
<polygon fill="midnightblue" stroke="midnightblue" points="574.34,-233 584.34,-229.5 574.34,-226 574.34,-233"/>
</g>
<!-- Node19&#45;&gt;Node11 -->
<g id="edge24" class="edge">
<title>Node19&#45;&gt;Node11</title>
<path fill="none" stroke="midnightblue" d="M477.03,-289.38C506.64,-295.51 543.8,-303.2 574.86,-309.63"/>
<polygon fill="midnightblue" stroke="midnightblue" points="574.21,-313.07 584.71,-311.67 575.63,-306.22 574.21,-313.07"/>
</g>
<!-- Node20&#45;&gt;Node18 -->
<g id="edge26" class="edge">
<title>Node20&#45;&gt;Node18</title>
<path fill="none" stroke="midnightblue" d="M472.72,-151.81C502.44,-154.47 540.91,-157.91 573.14,-160.79"/>
<polygon fill="midnightblue" stroke="midnightblue" points="573.1,-164.3 583.37,-161.7 573.72,-157.33 573.1,-164.3"/>
</g>
<!-- Node22 -->
<g id="node22" class="node">
<title>Node22</title>
<g id="a_node22"><a xlink:href="classtrace__reader__t.html#a3e15e6fd52af798652b7575d45416707" target="_top" xlink:title=" ">
<polygon fill="white" stroke="black" points="356,-50 356,-69 491,-69 491,-50 356,-50"/>
<text text-anchor="middle" x="423.5" y="-57" font-family="Helvetica,sans-Serif" font-size="10.00">trace_reader_t::pin_next</text>
</a>
</g>
</g>
<!-- Node21&#45;&gt;Node22 -->
<g id="edge28" class="edge">
<title>Node21&#45;&gt;Node22</title>
<path fill="none" stroke="midnightblue" d="M281.24,-75.08C301.4,-72.85 324.3,-70.33 345.72,-67.97"/>
<polygon fill="midnightblue" stroke="midnightblue" points="346.2,-71.43 355.76,-66.86 345.44,-64.48 346.2,-71.43"/>
</g>
<!-- Node23 -->
<g id="node23" class="node">
<title>Node23</title>
<g id="a_node23"><a xlink:href="classtrace__reader__t.html#a88a2bc1524df3a15805e80782a66b123" target="_top" xlink:title=" ">
<polygon fill="white" stroke="black" points="364.5,-0.5 364.5,-30.5 482.5,-30.5 482.5,-0.5 364.5,-0.5"/>
<text text-anchor="start" x="372.5" y="-18.5" font-family="Helvetica,sans-Serif" font-size="10.00">trace_reader_t::trace</text>
<text text-anchor="middle" x="423.5" y="-7.5" font-family="Helvetica,sans-Serif" font-size="10.00">_next_dynamic</text>
</a>
</g>
</g>
<!-- Node21&#45;&gt;Node23 -->
<g id="edge29" class="edge">
<title>Node21&#45;&gt;Node23</title>
<path fill="none" stroke="midnightblue" d="M264.55,-66.45C286.84,-58.5 314.83,-48.72 340,-40.5 346.94,-38.23 354.24,-35.92 361.5,-33.66"/>
<polygon fill="midnightblue" stroke="midnightblue" points="362.82,-36.92 371.34,-30.63 360.76,-30.23 362.82,-36.92"/>
</g>
<!-- Node24 -->
<g id="node24" class="node">
<title>Node24</title>
<g id="a_node24"><a xlink:href="classtrace__reader__t.html#aa4ece66726f19a6036d739463e303256" target="_top" xlink:title=" ">
<polygon fill="white" stroke="black" points="364.5,-88.5 364.5,-118.5 482.5,-118.5 482.5,-88.5 364.5,-88.5"/>
<text text-anchor="start" x="372.5" y="-106.5" font-family="Helvetica,sans-Serif" font-size="10.00">trace_reader_t::trace</text>
<text text-anchor="middle" x="423.5" y="-95.5" font-family="Helvetica,sans-Serif" font-size="10.00">_next_memory</text>
</a>
</g>
</g>
<!-- Node21&#45;&gt;Node24 -->
<g id="edge30" class="edge">
<title>Node21&#45;&gt;Node24</title>
<path fill="none" stroke="midnightblue" d="M281.24,-87.92C304.08,-90.44 330.46,-93.35 354.2,-95.97"/>
<polygon fill="midnightblue" stroke="midnightblue" points="353.86,-99.45 364.19,-97.07 354.63,-92.49 353.86,-99.45"/>
</g>
<!-- Node25&#45;&gt;Node11 -->
<g id="edge32" class="edge">
<title>Node25&#45;&gt;Node11</title>
<path fill="none" stroke="midnightblue" d="M288.14,-317.44C366.6,-318.58 497.43,-320.48 574.63,-321.6"/>
<polygon fill="midnightblue" stroke="midnightblue" points="574.64,-325.1 584.69,-321.74 574.74,-318.1 574.64,-325.1"/>
</g>
</g>
</svg>
        <g id="navigator" transform="translate(0 0)" fill="#404254">
                <rect fill="#f2f5e9" fill-opacity="0.5" stroke="#606060" stroke-width=".5" x="0" y="0" width="60" height="60"/>
                <use id="zoomplus" xlink:href="#zoomPlus" x="17" y="9" onmousedown="handleZoom(evt,'in')"/>
                <use id="zoomminus" xlink:href="#zoomMin" x="42" y="9" onmousedown="handleZoom(evt,'out')"/>
                <use id="reset" xlink:href="#resetDef" x="30" y="36" onmousedown="handleReset()"/>
                <g id="arrowUp" xlink:href="#dirArrow" transform="translate(30 24)" onmousedown="handlePan(0,-1)">
                  <use xlink:href="#rim" fill="#404040">
                        <set attributeName="fill" to="#808080" begin="arrowUp.mouseover" end="arrowUp.mouseout"/>
                  </use>
                  <path fill="none" stroke="white" stroke-width="1.5" d="M0,-3.0v7 M-2.5,-0.5L0,-3.0L2.5,-0.5"/>
                </g>
                <g id="arrowRight" xlink:href="#dirArrow" transform="rotate(90) translate(36 -43)" onmousedown="handlePan(1,0)">
                  <use xlink:href="#rim" fill="#404040">
                        <set attributeName="fill" to="#808080" begin="arrowRight.mouseover" end="arrowRight.mouseout"/>
                  </use>
                  <path fill="none" stroke="white" stroke-width="1.5" d="M0,-3.0v7 M-2.5,-0.5L0,-3.0L2.5,-0.5"/>
                </g>
                <g id="arrowDown" xlink:href="#dirArrow" transform="rotate(180) translate(-30 -48)" onmousedown="handlePan(0,1)">
                  <use xlink:href="#rim" fill="#404040">
                        <set attributeName="fill" to="#808080" begin="arrowDown.mouseover" end="arrowDown.mouseout"/>
                  </use>
                  <path fill="none" stroke="white" stroke-width="1.5" d="M0,-3.0v7 M-2.5,-0.5L0,-3.0L2.5,-0.5"/>
                </g>
                <g id="arrowLeft" xlink:href="#dirArrow" transform="rotate(270) translate(-36 17)" onmousedown="handlePan(-1,0)">
                  <use xlink:href="#rim" fill="#404040">
                        <set attributeName="fill" to="#808080" begin="arrowLeft.mouseover" end="arrowLeft.mouseout"/>
                  </use>
                  <path fill="none" stroke="white" stroke-width="1.5" d="M0,-3.0v7 M-2.5,-0.5L0,-3.0L2.5,-0.5"/>
                </g>
        </g>
        <svg viewBox="0 0 15 15" width="100%" height="30px" preserveAspectRatio="xMaxYMin meet">
         <g id="arrow_out" transform="scale(0.3 0.3)">
          <a xlink:href="classprocessor__t_a4230c749732989bffe36e7cfb71ae2d5_cgraph_org.svg" target="_base">
           <rect id="button" ry="5" rx="5" y="6" x="6" height="38" width="38"
                fill="#f2f5e9" fill-opacity="0.5" stroke="#606060" stroke-width="1.0"/>
           <path id="arrow"
             d="M 11.500037,31.436501 C 11.940474,20.09759 22.043105,11.32322 32.158766,21.979434 L 37.068811,17.246167 C 37.068811,17.246167 37.088388,32 37.088388,32 L 22.160133,31.978069 C 22.160133,31.978069 26.997745,27.140456 26.997745,27.140456 C 18.528582,18.264221 13.291696,25.230495 11.500037,31.436501 z"
             style="fill:#404040;"/>
          </a>
         </g>
        </svg>
</svg>
