<?xml version="1.0" encoding="UTF-8" standalone="no"?>
<!DOCTYPE svg PUBLIC "-//W3C//DTD SVG 1.1//EN"
 "http://www.w3.org/Graphics/SVG/1.1/DTD/svg11.dtd">
<!-- Generated by graphviz version 2.43.0 (0)
 -->
<!-- Title: processor_t::remove_front_mob_write Pages: 1 -->
<svg width="513pt" height="242pt"
 viewBox="0.00 0.00 513.00 241.50" xmlns="http://www.w3.org/2000/svg" xmlns:xlink="http://www.w3.org/1999/xlink">
<g id="graph0" class="graph" transform="scale(1 1) rotate(0) translate(4 237.5)">
<title>processor_t::remove_front_mob_write</title>
<polygon fill="white" stroke="transparent" points="-4,4 -4,-237.5 509,-237.5 509,4 -4,4"/>
<!-- Node1 -->
<g id="node1" class="node">
<title>Node1</title>
<g id="a_node1"><a xlink:title=" ">
<polygon fill="#bfbfbf" stroke="black" points="0,-82.5 0,-112.5 116,-112.5 116,-82.5 0,-82.5"/>
<text text-anchor="start" x="8" y="-100.5" font-family="Helvetica,sans-Serif" font-size="10.00">processor_t::remove</text>
<text text-anchor="middle" x="58" y="-89.5" font-family="Helvetica,sans-Serif" font-size="10.00">_front_mob_write</text>
</a>
</g>
</g>
<!-- Node2 -->
<g id="node2" class="node">
<title>Node2</title>
<g id="a_node2"><a xlink:href="classmemory__order__buffer__line__t.html#ab207bfff4362a0f5976d62747ab18109" target="_top" xlink:title=" ">
<polygon fill="white" stroke="black" points="154.5,-126 154.5,-167 276.5,-167 276.5,-126 154.5,-126"/>
<text text-anchor="start" x="162.5" y="-155" font-family="Helvetica,sans-Serif" font-size="10.00">memory_order_buffer</text>
<text text-anchor="start" x="162.5" y="-144" font-family="Helvetica,sans-Serif" font-size="10.00">_line_t::content_to</text>
<text text-anchor="middle" x="215.5" y="-133" font-family="Helvetica,sans-Serif" font-size="10.00">_string</text>
</a>
</g>
</g>
<!-- Node1&#45;&gt;Node2 -->
<g id="edge1" class="edge">
<title>Node1&#45;&gt;Node2</title>
<path fill="none" stroke="midnightblue" d="M106.92,-112.6C118.87,-116.37 131.92,-120.48 144.69,-124.5"/>
<polygon fill="midnightblue" stroke="midnightblue" points="143.78,-127.89 154.37,-127.55 145.89,-121.21 143.78,-127.89"/>
</g>
<!-- Node4 -->
<g id="node4" class="node">
<title>Node4</title>
<g id="a_node4"><a xlink:href="enumerations_8cpp.html#abb39d040475b58d11b29c242b33091e1" target="_top" xlink:title="Enumerates the MEMORY OPERATION OF MOB,debug only.">
<polygon fill="white" stroke="black" points="315,-214 315,-233 505,-233 505,-214 315,-214"/>
<text text-anchor="middle" x="410" y="-221" font-family="Helvetica,sans-Serif" font-size="10.00">get_enum_memory_operation_char</text>
</a>
</g>
</g>
<!-- Node1&#45;&gt;Node4 -->
<g id="edge7" class="edge">
<title>Node1&#45;&gt;Node4</title>
<path fill="none" stroke="midnightblue" d="M72.12,-112.71C88.77,-130.95 119.26,-160.99 152,-176.5 199.36,-198.94 256.31,-210.7 304.56,-216.85"/>
<polygon fill="midnightblue" stroke="midnightblue" points="304.37,-220.35 314.71,-218.07 305.21,-213.4 304.37,-220.35"/>
</g>
<!-- Node5 -->
<g id="node5" class="node">
<title>Node5</title>
<g id="a_node5"><a xlink:href="enumerations_8cpp.html#a4f1219a7c31d137c368e36cea5be9128" target="_top" xlink:title="Enumerates the package state,.">
<polygon fill="white" stroke="black" points="326.5,-50 326.5,-69 493.5,-69 493.5,-50 326.5,-50"/>
<text text-anchor="middle" x="410" y="-57" font-family="Helvetica,sans-Serif" font-size="10.00">get_enum_package_state_char</text>
</a>
</g>
</g>
<!-- Node1&#45;&gt;Node5 -->
<g id="edge8" class="edge">
<title>Node1&#45;&gt;Node5</title>
<path fill="none" stroke="midnightblue" d="M116.01,-91.31C170.16,-85.43 252.52,-76.49 316.14,-69.58"/>
<polygon fill="midnightblue" stroke="midnightblue" points="316.62,-73.05 326.19,-68.49 315.87,-66.09 316.62,-73.05"/>
</g>
<!-- Node8 -->
<g id="node8" class="node">
<title>Node8</title>
<g id="a_node8"><a xlink:href="classorcs__engine__t.html#a1c033e3455736ba89052a40c69ebe0af" target="_top" xlink:title=" ">
<polygon fill="white" stroke="black" points="357,-0.5 357,-30.5 463,-30.5 463,-0.5 357,-0.5"/>
<text text-anchor="start" x="365" y="-18.5" font-family="Helvetica,sans-Serif" font-size="10.00">orcs_engine_t::get</text>
<text text-anchor="middle" x="410" y="-7.5" font-family="Helvetica,sans-Serif" font-size="10.00">_global_cycle</text>
</a>
</g>
</g>
<!-- Node1&#45;&gt;Node8 -->
<g id="edge9" class="edge">
<title>Node1&#45;&gt;Node8</title>
<path fill="none" stroke="midnightblue" d="M116.48,-82.37C128.21,-79.37 140.49,-76.28 152,-73.5 218.27,-57.47 294.5,-40.45 346.62,-29.02"/>
<polygon fill="midnightblue" stroke="midnightblue" points="347.7,-32.37 356.72,-26.81 346.2,-25.53 347.7,-32.37"/>
</g>
<!-- Node9 -->
<g id="node9" class="node">
<title>Node9</title>
<g id="a_node9"><a xlink:href="classmemory__order__buffer__line__t.html#a604d280b24282534c4785ce0c1bd7fa9" target="_top" xlink:title=" ">
<polygon fill="white" stroke="black" points="152,-0.5 152,-30.5 279,-30.5 279,-0.5 152,-0.5"/>
<text text-anchor="start" x="160" y="-18.5" font-family="Helvetica,sans-Serif" font-size="10.00">memory_order_buffer</text>
<text text-anchor="middle" x="215.5" y="-7.5" font-family="Helvetica,sans-Serif" font-size="10.00">_line_t::package_clean</text>
</a>
</g>
</g>
<!-- Node1&#45;&gt;Node9 -->
<g id="edge10" class="edge">
<title>Node1&#45;&gt;Node9</title>
<path fill="none" stroke="midnightblue" d="M84.82,-82.49C103.35,-71.86 129.01,-57.43 152,-45.5 158.68,-42.03 165.83,-38.47 172.82,-35.06"/>
<polygon fill="midnightblue" stroke="midnightblue" points="174.71,-38.04 182.19,-30.54 171.67,-31.73 174.71,-38.04"/>
</g>
<!-- Node3 -->
<g id="node3" class="node">
<title>Node3</title>
<g id="a_node3"><a xlink:href="classutils__t.html#a6119f6b64f0de103f7e051345fe2e87f" target="_top" xlink:title=" ">
<polygon fill="white" stroke="black" points="349,-176 349,-195 471,-195 471,-176 349,-176"/>
<text text-anchor="middle" x="410" y="-183" font-family="Helvetica,sans-Serif" font-size="10.00">utils_t::bool_to_string</text>
</a>
</g>
</g>
<!-- Node2&#45;&gt;Node3 -->
<g id="edge2" class="edge">
<title>Node2&#45;&gt;Node3</title>
<path fill="none" stroke="midnightblue" d="M276.66,-158.72C289.32,-161.29 302.6,-163.99 315,-166.5 326.86,-168.9 339.55,-171.47 351.66,-173.92"/>
<polygon fill="midnightblue" stroke="midnightblue" points="351.17,-177.39 361.66,-175.94 352.55,-170.53 351.17,-177.39"/>
</g>
<!-- Node2&#45;&gt;Node4 -->
<g id="edge3" class="edge">
<title>Node2&#45;&gt;Node4</title>
<path fill="none" stroke="midnightblue" d="M245.8,-167.26C264.73,-179.77 290.35,-195.06 315,-204.5 321.97,-207.17 329.39,-209.49 336.88,-211.5"/>
<polygon fill="midnightblue" stroke="midnightblue" points="336.18,-214.93 346.73,-213.96 337.88,-208.14 336.18,-214.93"/>
</g>
<!-- Node2&#45;&gt;Node5 -->
<g id="edge4" class="edge">
<title>Node2&#45;&gt;Node5</title>
<path fill="none" stroke="midnightblue" d="M256.3,-125.91C264.02,-121.45 271.91,-116.55 279,-111.5 296.44,-99.09 295.9,-89.16 315,-79.5 320.67,-76.63 326.73,-74.18 332.94,-72.07"/>
<polygon fill="midnightblue" stroke="midnightblue" points="334.26,-75.33 342.79,-69.05 332.2,-68.64 334.26,-75.33"/>
</g>
<!-- Node6 -->
<g id="node6" class="node">
<title>Node6</title>
<g id="a_node6"><a xlink:href="classutils__t.html#a710d0f0a1d8f5561bb63460d2c833391" target="_top" xlink:title=" ">
<polygon fill="white" stroke="black" points="347.5,-138 347.5,-157 472.5,-157 472.5,-138 347.5,-138"/>
<text text-anchor="middle" x="410" y="-145" font-family="Helvetica,sans-Serif" font-size="10.00">utils_t::int32_to_string</text>
</a>
</g>
</g>
<!-- Node2&#45;&gt;Node6 -->
<g id="edge5" class="edge">
<title>Node2&#45;&gt;Node6</title>
<path fill="none" stroke="midnightblue" d="M276.62,-146.81C295.78,-146.91 317.18,-147.02 337.09,-147.13"/>
<polygon fill="midnightblue" stroke="midnightblue" points="337.33,-150.63 347.35,-147.18 337.37,-143.63 337.33,-150.63"/>
</g>
<!-- Node7 -->
<g id="node7" class="node">
<title>Node7</title>
<g id="a_node7"><a xlink:href="classutils__t.html#aa30deed2def3a1339369e6806073e9fd" target="_top" xlink:title=" ">
<polygon fill="white" stroke="black" points="361,-88.5 361,-118.5 459,-118.5 459,-88.5 361,-88.5"/>
<text text-anchor="start" x="369" y="-106.5" font-family="Helvetica,sans-Serif" font-size="10.00">utils_t::uint64_to</text>
<text text-anchor="middle" x="410" y="-95.5" font-family="Helvetica,sans-Serif" font-size="10.00">_string</text>
</a>
</g>
</g>
<!-- Node2&#45;&gt;Node7 -->
<g id="edge6" class="edge">
<title>Node2&#45;&gt;Node7</title>
<path fill="none" stroke="midnightblue" d="M276.62,-133.07C300.36,-127.77 327.54,-121.7 351.07,-116.44"/>
<polygon fill="midnightblue" stroke="midnightblue" points="351.91,-119.84 360.91,-114.24 350.38,-113.01 351.91,-119.84"/>
</g>
<!-- Node9&#45;&gt;Node8 -->
<g id="edge11" class="edge">
<title>Node9&#45;&gt;Node8</title>
<path fill="none" stroke="midnightblue" d="M279.27,-15.5C300.96,-15.5 325.24,-15.5 346.88,-15.5"/>
<polygon fill="midnightblue" stroke="midnightblue" points="346.94,-19 356.94,-15.5 346.94,-12 346.94,-19"/>
</g>
</g>
</svg>
