<?xml version="1.0" encoding="UTF-8" standalone="no"?>
<!DOCTYPE svg PUBLIC "-//W3C//DTD SVG 1.1//EN"
 "http://www.w3.org/Graphics/SVG/1.1/DTD/svg11.dtd">
<!-- Generated by graphviz version 2.43.0 (0)
 -->
<!-- Title: processor_t::remove_front_mob_hive Pages: 1 -->
<svg width="429pt" height="61pt"
 viewBox="0.00 0.00 429.00 61.00" xmlns="http://www.w3.org/2000/svg" xmlns:xlink="http://www.w3.org/1999/xlink">
<g id="graph0" class="graph" transform="scale(1 1) rotate(0) translate(4 57)">
<title>processor_t::remove_front_mob_hive</title>
<polygon fill="white" stroke="transparent" points="-4,4 -4,-57 425,-57 425,4 -4,4"/>
<!-- Node1 -->
<g id="node1" class="node">
<title>Node1</title>
<g id="a_node1"><a xlink:title=" ">
<polygon fill="#bfbfbf" stroke="black" points="0,-22.5 0,-52.5 116,-52.5 116,-22.5 0,-22.5"/>
<text text-anchor="start" x="8" y="-40.5" font-family="Helvetica,sans-Serif" font-size="10.00">processor_t::remove</text>
<text text-anchor="middle" x="58" y="-29.5" font-family="Helvetica,sans-Serif" font-size="10.00">_front_mob_hive</text>
</a>
</g>
</g>
<!-- Node2 -->
<g id="node2" class="node">
<title>Node2</title>
<g id="a_node2"><a xlink:href="classorcs__engine__t.html#a1c033e3455736ba89052a40c69ebe0af" target="_top" xlink:title=" ">
<polygon fill="white" stroke="black" points="315,-22.5 315,-52.5 421,-52.5 421,-22.5 315,-22.5"/>
<text text-anchor="start" x="323" y="-40.5" font-family="Helvetica,sans-Serif" font-size="10.00">orcs_engine_t::get</text>
<text text-anchor="middle" x="368" y="-29.5" font-family="Helvetica,sans-Serif" font-size="10.00">_global_cycle</text>
</a>
</g>
</g>
<!-- Node1&#45;&gt;Node2 -->
<g id="edge1" class="edge">
<title>Node1&#45;&gt;Node2</title>
<path fill="none" stroke="midnightblue" d="M116.05,-39.63C127.93,-39.99 140.37,-40.31 152,-40.5 208.44,-41.41 222.56,-41.46 279,-40.5 287.35,-40.36 296.14,-40.14 304.81,-39.88"/>
<polygon fill="midnightblue" stroke="midnightblue" points="305.01,-43.38 314.89,-39.57 304.79,-36.38 305.01,-43.38"/>
</g>
<!-- Node3 -->
<g id="node3" class="node">
<title>Node3</title>
<g id="a_node3"><a xlink:href="classmemory__order__buffer__line__t.html#a604d280b24282534c4785ce0c1bd7fa9" target="_top" xlink:title=" ">
<polygon fill="white" stroke="black" points="152,-0.5 152,-30.5 279,-30.5 279,-0.5 152,-0.5"/>
<text text-anchor="start" x="160" y="-18.5" font-family="Helvetica,sans-Serif" font-size="10.00">memory_order_buffer</text>
<text text-anchor="middle" x="215.5" y="-7.5" font-family="Helvetica,sans-Serif" font-size="10.00">_line_t::package_clean</text>
</a>
</g>
</g>
<!-- Node1&#45;&gt;Node3 -->
<g id="edge2" class="edge">
<title>Node1&#45;&gt;Node3</title>
<path fill="none" stroke="midnightblue" d="M116.02,-29.43C124.43,-28.24 133.19,-27 141.86,-25.78"/>
<polygon fill="midnightblue" stroke="midnightblue" points="142.57,-29.21 151.98,-24.34 141.59,-22.28 142.57,-29.21"/>
</g>
<!-- Node3&#45;&gt;Node2 -->
<g id="edge3" class="edge">
<title>Node3&#45;&gt;Node2</title>
<path fill="none" stroke="midnightblue" d="M279.02,-24.64C287.61,-25.89 296.43,-27.18 305.01,-28.44"/>
<polygon fill="midnightblue" stroke="midnightblue" points="304.55,-31.91 314.95,-29.89 305.56,-24.98 304.55,-31.91"/>
</g>
</g>
</svg>
