<?xml version="1.0" encoding="UTF-8" standalone="no"?>
<!DOCTYPE svg PUBLIC "-//W3C//DTD SVG 1.1//EN"
 "http://www.w3.org/Graphics/SVG/1.1/DTD/svg11.dtd">
<!-- Generated by graphviz version 2.43.0 (0)
 -->
<!-- Title: processor_t::dispatch Pages: 1 -->
<svg width="749pt" height="361pt"
 viewBox="0.00 0.00 749.00 361.00" xmlns="http://www.w3.org/2000/svg" xmlns:xlink="http://www.w3.org/1999/xlink">
<g id="graph0" class="graph" transform="scale(1 1) rotate(0) translate(4 357)">
<title>processor_t::dispatch</title>
<polygon fill="white" stroke="transparent" points="-4,4 -4,-357 745,-357 745,4 -4,4"/>
<!-- Node1 -->
<g id="node1" class="node">
<title>Node1</title>
<g id="a_node1"><a xlink:title=" ">
<polygon fill="#bfbfbf" stroke="black" points="0,-111 0,-130 120,-130 120,-111 0,-111"/>
<text text-anchor="middle" x="60" y="-118" font-family="Helvetica,sans-Serif" font-size="10.00">processor_t::dispatch</text>
</a>
</g>
</g>
<!-- Node2 -->
<g id="node2" class="node">
<title>Node2</title>
<g id="a_node2"><a xlink:href="classreorder__buffer__line__t.html#a2a9e8c57dc5b9bf026066c34c2c96111" target="_top" xlink:title=" ">
<polygon fill="white" stroke="black" points="193.5,-142.5 193.5,-172.5 309.5,-172.5 309.5,-142.5 193.5,-142.5"/>
<text text-anchor="start" x="201.5" y="-160.5" font-family="Helvetica,sans-Serif" font-size="10.00">reorder_buffer_line</text>
<text text-anchor="middle" x="251.5" y="-149.5" font-family="Helvetica,sans-Serif" font-size="10.00">_t::content_to_string</text>
</a>
</g>
</g>
<!-- Node1&#45;&gt;Node2 -->
<g id="edge1" class="edge">
<title>Node1&#45;&gt;Node2</title>
<path fill="none" stroke="midnightblue" d="M109.8,-130.03C132.26,-134.41 159.26,-139.69 183.58,-144.43"/>
<polygon fill="midnightblue" stroke="midnightblue" points="182.97,-147.88 193.46,-146.36 184.31,-141.01 182.97,-147.88"/>
</g>
<!-- Node6 -->
<g id="node6" class="node">
<title>Node6</title>
<g id="a_node6"><a xlink:href="enumerations_8cpp.html#a29b4f0c7eca5c960bab850a56e5e411c" target="_top" xlink:title=" ">
<polygon fill="white" stroke="black" points="585,-322.5 585,-352.5 707,-352.5 707,-322.5 585,-322.5"/>
<text text-anchor="start" x="593" y="-340.5" font-family="Helvetica,sans-Serif" font-size="10.00">get_enum_instruction</text>
<text text-anchor="middle" x="646" y="-329.5" font-family="Helvetica,sans-Serif" font-size="10.00">_operation_char</text>
</a>
</g>
</g>
<!-- Node1&#45;&gt;Node6 -->
<g id="edge17" class="edge">
<title>Node1&#45;&gt;Node6</title>
<path fill="none" stroke="midnightblue" d="M75.25,-130.19C93.63,-142.55 126.72,-164.4 156,-181.5 254.55,-239.05 274.37,-266.53 383,-301.5 446.03,-321.79 521.18,-330.64 574.8,-334.51"/>
<polygon fill="midnightblue" stroke="midnightblue" points="574.68,-338.01 584.89,-335.19 575.15,-331.02 574.68,-338.01"/>
</g>
<!-- Node14 -->
<g id="node14" class="node">
<title>Node14</title>
<g id="a_node14"><a xlink:href="classorcs__engine__t.html#a1c033e3455736ba89052a40c69ebe0af" target="_top" xlink:title=" ">
<polygon fill="white" stroke="black" points="396,-0.5 396,-30.5 502,-30.5 502,-0.5 396,-0.5"/>
<text text-anchor="start" x="404" y="-18.5" font-family="Helvetica,sans-Serif" font-size="10.00">orcs_engine_t::get</text>
<text text-anchor="middle" x="449" y="-7.5" font-family="Helvetica,sans-Serif" font-size="10.00">_global_cycle</text>
</a>
</g>
</g>
<!-- Node1&#45;&gt;Node14 -->
<g id="edge18" class="edge">
<title>Node1&#45;&gt;Node14</title>
<path fill="none" stroke="midnightblue" d="M103.93,-110.99C160.13,-98.28 261.55,-74.44 347,-49.5 363.03,-44.82 380.31,-39.21 395.97,-33.92"/>
<polygon fill="midnightblue" stroke="midnightblue" points="397.15,-37.21 405.49,-30.67 394.89,-30.59 397.15,-37.21"/>
</g>
<!-- Node15 -->
<g id="node15" class="node">
<title>Node15</title>
<g id="a_node15"><a xlink:href="classuop__package__t.html#a5b30b643c82424f1cb1ea9e8d53239ed" target="_top" xlink:title=" ">
<polygon fill="white" stroke="black" points="156,-21 156,-40 347,-40 347,-21 156,-21"/>
<text text-anchor="middle" x="251.5" y="-28" font-family="Helvetica,sans-Serif" font-size="10.00">uop_package_t::updatePackageWait</text>
</a>
</g>
</g>
<!-- Node1&#45;&gt;Node15 -->
<g id="edge19" class="edge">
<title>Node1&#45;&gt;Node15</title>
<path fill="none" stroke="midnightblue" d="M81.28,-110.87C114.9,-94.9 182.33,-62.88 221.15,-44.44"/>
<polygon fill="midnightblue" stroke="midnightblue" points="222.83,-47.51 230.37,-40.06 219.83,-41.19 222.83,-47.51"/>
</g>
<!-- Node3 -->
<g id="node3" class="node">
<title>Node3</title>
<g id="a_node3"><a xlink:href="classutils__t.html#a6119f6b64f0de103f7e051345fe2e87f" target="_top" xlink:title=" ">
<polygon fill="white" stroke="black" points="585,-23 585,-42 707,-42 707,-23 585,-23"/>
<text text-anchor="middle" x="646" y="-30" font-family="Helvetica,sans-Serif" font-size="10.00">utils_t::bool_to_string</text>
</a>
</g>
</g>
<!-- Node2&#45;&gt;Node3 -->
<g id="edge2" class="edge">
<title>Node2&#45;&gt;Node3</title>
<path fill="none" stroke="midnightblue" d="M272.08,-142.42C296.62,-124.32 340.6,-94.41 383,-78.5 445.45,-55.06 520.84,-43.43 574.68,-37.74"/>
<polygon fill="midnightblue" stroke="midnightblue" points="575.22,-41.2 584.81,-36.71 574.51,-34.24 575.22,-41.2"/>
</g>
<!-- Node4 -->
<g id="node4" class="node">
<title>Node4</title>
<g id="a_node4"><a xlink:href="classuop__package__t.html#a61c87d245f4d27f08261c2cfcc729e90" target="_top" xlink:title="Convert Instruction variables into String.">
<polygon fill="white" stroke="black" points="383,-235.5 383,-265.5 515,-265.5 515,-235.5 383,-235.5"/>
<text text-anchor="start" x="391" y="-253.5" font-family="Helvetica,sans-Serif" font-size="10.00">uop_package_t::content</text>
<text text-anchor="middle" x="449" y="-242.5" font-family="Helvetica,sans-Serif" font-size="10.00">_to_string</text>
</a>
</g>
</g>
<!-- Node2&#45;&gt;Node4 -->
<g id="edge3" class="edge">
<title>Node2&#45;&gt;Node4</title>
<path fill="none" stroke="midnightblue" d="M279.55,-172.74C305.64,-187.17 346.44,-209.01 383,-225.5 387.63,-227.59 392.5,-229.67 397.39,-231.68"/>
<polygon fill="midnightblue" stroke="midnightblue" points="396.21,-234.98 406.79,-235.46 398.82,-228.48 396.21,-234.98"/>
</g>
<!-- Node7 -->
<g id="node7" class="node">
<title>Node7</title>
<g id="a_node7"><a xlink:href="classutils__t.html#a07f0f224928b89eb53c4430d05799916" target="_top" xlink:title=" ">
<polygon fill="white" stroke="black" points="597,-273.5 597,-303.5 695,-303.5 695,-273.5 597,-273.5"/>
<text text-anchor="start" x="605" y="-291.5" font-family="Helvetica,sans-Serif" font-size="10.00">utils_t::uint32_to</text>
<text text-anchor="middle" x="646" y="-280.5" font-family="Helvetica,sans-Serif" font-size="10.00">_string</text>
</a>
</g>
</g>
<!-- Node2&#45;&gt;Node7 -->
<g id="edge15" class="edge">
<title>Node2&#45;&gt;Node7</title>
<path fill="none" stroke="midnightblue" d="M263.72,-172.83C284.05,-199.22 329.86,-252.52 383,-274.5 448.64,-301.65 531.54,-300.92 586.3,-296.2"/>
<polygon fill="midnightblue" stroke="midnightblue" points="586.9,-299.66 596.53,-295.24 586.25,-292.69 586.9,-299.66"/>
</g>
<!-- Node8 -->
<g id="node8" class="node">
<title>Node8</title>
<g id="a_node8"><a xlink:href="classutils__t.html#aa30deed2def3a1339369e6806073e9fd" target="_top" xlink:title=" ">
<polygon fill="white" stroke="black" points="597,-175.5 597,-205.5 695,-205.5 695,-175.5 597,-175.5"/>
<text text-anchor="start" x="605" y="-193.5" font-family="Helvetica,sans-Serif" font-size="10.00">utils_t::uint64_to</text>
<text text-anchor="middle" x="646" y="-182.5" font-family="Helvetica,sans-Serif" font-size="10.00">_string</text>
</a>
</g>
</g>
<!-- Node2&#45;&gt;Node8 -->
<g id="edge16" class="edge">
<title>Node2&#45;&gt;Node8</title>
<path fill="none" stroke="midnightblue" d="M309.64,-161.06C362.85,-164.51 444.35,-170.14 515,-176.5 538.53,-178.62 564.41,-181.33 586.84,-183.8"/>
<polygon fill="midnightblue" stroke="midnightblue" points="586.56,-187.29 596.88,-184.91 587.33,-180.33 586.56,-187.29"/>
</g>
<!-- Node9 -->
<g id="node9" class="node">
<title>Node9</title>
<g id="a_node9"><a xlink:href="classmemory__order__buffer__line__t.html#ab207bfff4362a0f5976d62747ab18109" target="_top" xlink:title=" ">
<polygon fill="white" stroke="black" points="388,-88 388,-129 510,-129 510,-88 388,-88"/>
<text text-anchor="start" x="396" y="-117" font-family="Helvetica,sans-Serif" font-size="10.00">memory_order_buffer</text>
<text text-anchor="start" x="396" y="-106" font-family="Helvetica,sans-Serif" font-size="10.00">_line_t::content_to</text>
<text text-anchor="middle" x="449" y="-95" font-family="Helvetica,sans-Serif" font-size="10.00">_string</text>
</a>
</g>
</g>
<!-- Node2&#45;&gt;Node9 -->
<g id="edge8" class="edge">
<title>Node2&#45;&gt;Node9</title>
<path fill="none" stroke="midnightblue" d="M309.57,-143.2C330.97,-137.83 355.54,-131.67 377.99,-126.05"/>
<polygon fill="midnightblue" stroke="midnightblue" points="378.94,-129.42 387.79,-123.59 377.24,-122.63 378.94,-129.42"/>
</g>
<!-- Node13 -->
<g id="node13" class="node">
<title>Node13</title>
<g id="a_node13"><a xlink:href="enumerations_8cpp.html#ad105be945954dbff8a0b2ce5a2a93b98" target="_top" xlink:title="Enumerates the processor stages, used to indicate when the branch will be solved.">
<polygon fill="white" stroke="black" points="390,-186.5 390,-216.5 508,-216.5 508,-186.5 390,-186.5"/>
<text text-anchor="start" x="398" y="-204.5" font-family="Helvetica,sans-Serif" font-size="10.00">get_enum_processor</text>
<text text-anchor="middle" x="449" y="-193.5" font-family="Helvetica,sans-Serif" font-size="10.00">_stage_char</text>
</a>
</g>
</g>
<!-- Node2&#45;&gt;Node13 -->
<g id="edge14" class="edge">
<title>Node2&#45;&gt;Node13</title>
<path fill="none" stroke="midnightblue" d="M309.57,-170.34C331.56,-175.29 356.9,-181 379.83,-186.16"/>
<polygon fill="midnightblue" stroke="midnightblue" points="379.32,-189.63 389.84,-188.41 380.85,-182.8 379.32,-189.63"/>
</g>
<!-- Node5 -->
<g id="node5" class="node">
<title>Node5</title>
<g id="a_node5"><a xlink:href="classutils__t.html#ae3f4242cda49254d8d43f5d012d00419" target="_top" xlink:title=" ">
<polygon fill="white" stroke="black" points="594,-224.5 594,-254.5 698,-254.5 698,-224.5 594,-224.5"/>
<text text-anchor="start" x="602" y="-242.5" font-family="Helvetica,sans-Serif" font-size="10.00">utils_t::big_uint64</text>
<text text-anchor="middle" x="646" y="-231.5" font-family="Helvetica,sans-Serif" font-size="10.00">_to_string</text>
</a>
</g>
</g>
<!-- Node4&#45;&gt;Node5 -->
<g id="edge4" class="edge">
<title>Node4&#45;&gt;Node5</title>
<path fill="none" stroke="midnightblue" d="M515.2,-246.82C537.28,-245.58 561.85,-244.19 583.62,-242.96"/>
<polygon fill="midnightblue" stroke="midnightblue" points="583.95,-246.45 593.74,-242.39 583.56,-239.46 583.95,-246.45"/>
</g>
<!-- Node4&#45;&gt;Node6 -->
<g id="edge5" class="edge">
<title>Node4&#45;&gt;Node6</title>
<path fill="none" stroke="midnightblue" d="M470.25,-265.76C489.94,-279.94 521.16,-300.75 551,-313.5 558.68,-316.78 566.91,-319.69 575.2,-322.25"/>
<polygon fill="midnightblue" stroke="midnightblue" points="574.33,-325.65 584.91,-325.1 576.3,-318.93 574.33,-325.65"/>
</g>
<!-- Node4&#45;&gt;Node7 -->
<g id="edge6" class="edge">
<title>Node4&#45;&gt;Node7</title>
<path fill="none" stroke="midnightblue" d="M515.2,-263.21C538.34,-267.72 564.22,-272.76 586.74,-277.15"/>
<polygon fill="midnightblue" stroke="midnightblue" points="586.35,-280.64 596.83,-279.11 587.68,-273.76 586.35,-280.64"/>
</g>
<!-- Node4&#45;&gt;Node8 -->
<g id="edge7" class="edge">
<title>Node4&#45;&gt;Node8</title>
<path fill="none" stroke="midnightblue" d="M489.53,-235.45C508.06,-228.65 530.52,-220.75 551,-214.5 562.58,-210.97 575.07,-207.53 587.04,-204.4"/>
<polygon fill="midnightblue" stroke="midnightblue" points="588.13,-207.74 596.94,-201.86 586.39,-200.96 588.13,-207.74"/>
</g>
<!-- Node9&#45;&gt;Node3 -->
<g id="edge9" class="edge">
<title>Node9&#45;&gt;Node3</title>
<path fill="none" stroke="midnightblue" d="M489.03,-87.93C497.63,-83.27 506.66,-78.29 515,-73.5 531.26,-64.16 533.55,-58.35 551,-51.5 558.69,-48.48 566.92,-45.92 575.21,-43.75"/>
<polygon fill="midnightblue" stroke="midnightblue" points="576.04,-47.15 584.92,-41.38 574.38,-40.35 576.04,-47.15"/>
</g>
<!-- Node9&#45;&gt;Node8 -->
<g id="edge13" class="edge">
<title>Node9&#45;&gt;Node8</title>
<path fill="none" stroke="midnightblue" d="M489.03,-129.07C497.63,-133.73 506.66,-138.71 515,-143.5 531.26,-152.84 533.76,-158.12 551,-165.5 562.28,-170.33 574.73,-174.43 586.78,-177.82"/>
<polygon fill="midnightblue" stroke="midnightblue" points="586.2,-181.29 596.76,-180.51 588.02,-174.53 586.2,-181.29"/>
</g>
<!-- Node10 -->
<g id="node10" class="node">
<title>Node10</title>
<g id="a_node10"><a xlink:href="enumerations_8cpp.html#abb39d040475b58d11b29c242b33091e1" target="_top" xlink:title="Enumerates the MEMORY OPERATION OF MOB,debug only.">
<polygon fill="white" stroke="black" points="551,-137 551,-156 741,-156 741,-137 551,-137"/>
<text text-anchor="middle" x="646" y="-144" font-family="Helvetica,sans-Serif" font-size="10.00">get_enum_memory_operation_char</text>
</a>
</g>
</g>
<!-- Node9&#45;&gt;Node10 -->
<g id="edge10" class="edge">
<title>Node9&#45;&gt;Node10</title>
<path fill="none" stroke="midnightblue" d="M510.1,-120.21C534.28,-124.92 562.09,-130.34 586.15,-135.03"/>
<polygon fill="midnightblue" stroke="midnightblue" points="585.72,-138.51 596.21,-136.99 587.06,-131.64 585.72,-138.51"/>
</g>
<!-- Node11 -->
<g id="node11" class="node">
<title>Node11</title>
<g id="a_node11"><a xlink:href="enumerations_8cpp.html#a4f1219a7c31d137c368e36cea5be9128" target="_top" xlink:title="Enumerates the package state,.">
<polygon fill="white" stroke="black" points="562.5,-99 562.5,-118 729.5,-118 729.5,-99 562.5,-99"/>
<text text-anchor="middle" x="646" y="-106" font-family="Helvetica,sans-Serif" font-size="10.00">get_enum_package_state_char</text>
</a>
</g>
</g>
<!-- Node9&#45;&gt;Node11 -->
<g id="edge11" class="edge">
<title>Node9&#45;&gt;Node11</title>
<path fill="none" stroke="midnightblue" d="M510.1,-108.5C523.33,-108.5 537.66,-108.5 551.85,-108.5"/>
<polygon fill="midnightblue" stroke="midnightblue" points="552.15,-112 562.15,-108.5 552.15,-105 552.15,-112"/>
</g>
<!-- Node12 -->
<g id="node12" class="node">
<title>Node12</title>
<g id="a_node12"><a xlink:href="classutils__t.html#a710d0f0a1d8f5561bb63460d2c833391" target="_top" xlink:title=" ">
<polygon fill="white" stroke="black" points="583.5,-61 583.5,-80 708.5,-80 708.5,-61 583.5,-61"/>
<text text-anchor="middle" x="646" y="-68" font-family="Helvetica,sans-Serif" font-size="10.00">utils_t::int32_to_string</text>
</a>
</g>
</g>
<!-- Node9&#45;&gt;Node12 -->
<g id="edge12" class="edge">
<title>Node9&#45;&gt;Node12</title>
<path fill="none" stroke="midnightblue" d="M510.1,-96.79C534.28,-92.08 562.09,-86.66 586.15,-81.97"/>
<polygon fill="midnightblue" stroke="midnightblue" points="587.06,-85.36 596.21,-80.01 585.72,-78.49 587.06,-85.36"/>
</g>
<!-- Node15&#45;&gt;Node14 -->
<g id="edge20" class="edge">
<title>Node15&#45;&gt;Node14</title>
<path fill="none" stroke="midnightblue" d="M347.1,-23.24C360.2,-22.24 373.37,-21.23 385.68,-20.28"/>
<polygon fill="midnightblue" stroke="midnightblue" points="386.09,-23.76 395.79,-19.51 385.55,-16.78 386.09,-23.76"/>
</g>
</g>
</svg>
