<?xml version="1.0" encoding="UTF-8" standalone="no"?>
<!DOCTYPE svg PUBLIC "-//W3C//DTD SVG 1.1//EN"
 "http://www.w3.org/Graphics/SVG/1.1/DTD/svg11.dtd">
<!-- Generated by graphviz version 2.43.0 (0)
 -->
<!-- Title: cache_manager_t::instantiate_cache Pages: 1 -->
<!--zoomable 250 -->
<svg id="main" version="1.1" xmlns="http://www.w3.org/2000/svg" xmlns:xlink="http://www.w3.org/1999/xlink" xml:space="preserve" onload="init(evt)">
<style type="text/css"><![CDATA[
.edge:hover path { stroke: red; }
.edge:hover polygon { stroke: red; fill: red; }
]]></style>
<script type="text/javascript"><![CDATA[
var edges = document.getElementsByTagName('g');
if (edges && edges.length) {
  for (var i=0;i<edges.length;i++) {
    if (edges[i].id.substr(0,4)=='edge') {
      edges[i].setAttribute('class','edge');
    }
  }
}
]]></script>
        <defs>
                <circle id="rim" cx="0" cy="0" r="7"/>
                <circle id="rim2" cx="0" cy="0" r="3.5"/>
                <g id="zoomPlus">
                        <use xlink:href="#rim" fill="#404040">
                                <set attributeName="fill" to="#808080" begin="zoomplus.mouseover" end="zoomplus.mouseout"/>
                        </use>
                        <path d="M-4,0h8M0,-4v8" fill="none" stroke="white" stroke-width="1.5" pointer-events="none"/>
                </g>
                <g id="zoomMin">
                        <use xlink:href="#rim" fill="#404040">
                                <set attributeName="fill" to="#808080" begin="zoomminus.mouseover" end="zoomminus.mouseout"/>
                        </use>
                        <path d="M-4,0h8" fill="none" stroke="white" stroke-width="1.5" pointer-events="none"/>
                </g>
                <g id="dirArrow">
                        <path fill="none" stroke="white" stroke-width="1.5" d="M0,-3.0v7 M-2.5,-0.5L0,-3.0L2.5,-0.5"/>
                </g>
               <g id="resetDef">
                       <use xlink:href="#rim2" fill="#404040">
                               <set attributeName="fill" to="#808080" begin="reset.mouseover" end="reset.mouseout"/>
                       </use>
               </g>
        </defs>

<script type="text/javascript">
var viewWidth = 665;
var viewHeight = 250;
var sectionId = 'dynsection-10';
</script>
<script xlink:href="svgpan.js"/>
<svg id="graph" class="graph">
<g id="viewport">
<title>cache_manager_t::instantiate_cache</title>
<polygon fill="white" stroke="transparent" points="-4,4 -4,-245.5 661,-245.5 661,4 -4,4"/>
<!-- Node1 -->
<g id="node1" class="node">
<title>Node1</title>
<g id="a_node1"><a xlink:title=" ">
<polygon fill="#bfbfbf" stroke="black" points="0,-73.5 0,-103.5 161,-103.5 161,-73.5 0,-73.5"/>
<text text-anchor="start" x="8" y="-91.5" font-family="Helvetica,sans-Serif" font-size="10.00">cache_manager_t::instantiate</text>
<text text-anchor="middle" x="80.5" y="-80.5" font-family="Helvetica,sans-Serif" font-size="10.00">_cache</text>
</a>
</g>
</g>
<!-- Node2 -->
<g id="node2" class="node">
<title>Node2</title>
<g id="a_node2"><a xlink:href="classcache__t.html#abd6a392dc731acb10e955d9a9b4856e9" target="_top" xlink:title=" ">
<polygon fill="white" stroke="black" points="216,-148 216,-167 315,-167 315,-148 216,-148"/>
<text text-anchor="middle" x="265.5" y="-155" font-family="Helvetica,sans-Serif" font-size="10.00">cache_t::allocate</text>
</a>
</g>
</g>
<!-- Node1&#45;&gt;Node2 -->
<g id="edge1" class="edge">
<title>Node1&#45;&gt;Node2</title>
<path fill="none" stroke="midnightblue" d="M113.4,-103.68C136.34,-114.26 168.18,-128.26 197,-138.5 203.47,-140.8 210.37,-143.01 217.2,-145.06"/>
<polygon fill="midnightblue" stroke="midnightblue" points="216.5,-148.5 227.08,-147.93 218.46,-141.78 216.5,-148.5"/>
</g>
<!-- Node8 -->
<g id="node8" class="node">
<title>Node8</title>
<g id="a_node8"><a xlink:href="classcache__manager__t.html#a0ad6eb9a43a5d6c06ae3892c1d5c0674" target="_top" xlink:title=" ">
<polygon fill="white" stroke="black" points="197,-49.5 197,-79.5 334,-79.5 334,-49.5 197,-49.5"/>
<text text-anchor="start" x="205" y="-67.5" font-family="Helvetica,sans-Serif" font-size="10.00">cache_manager_t::check</text>
<text text-anchor="middle" x="265.5" y="-56.5" font-family="Helvetica,sans-Serif" font-size="10.00">_cache</text>
</a>
</g>
</g>
<!-- Node1&#45;&gt;Node8 -->
<g id="edge7" class="edge">
<title>Node1&#45;&gt;Node8</title>
<path fill="none" stroke="midnightblue" d="M161.23,-78.04C169.66,-76.94 178.21,-75.82 186.62,-74.71"/>
<polygon fill="midnightblue" stroke="midnightblue" points="187.31,-78.15 196.77,-73.38 186.4,-71.21 187.31,-78.15"/>
</g>
<!-- Node9 -->
<g id="node9" class="node">
<title>Node9</title>
<g id="a_node9"><a xlink:href="classcache__manager__t.html#a76e133c90c8da4b11f2ee516c4b818e7" target="_top" xlink:title=" ">
<polygon fill="white" stroke="black" points="203,-98.5 203,-128.5 328,-128.5 328,-98.5 203,-98.5"/>
<text text-anchor="start" x="211" y="-116.5" font-family="Helvetica,sans-Serif" font-size="10.00">cache_manager_t::get</text>
<text text-anchor="middle" x="265.5" y="-105.5" font-family="Helvetica,sans-Serif" font-size="10.00">_cache_info</text>
</a>
</g>
</g>
<!-- Node1&#45;&gt;Node9 -->
<g id="edge9" class="edge">
<title>Node1&#45;&gt;Node9</title>
<path fill="none" stroke="midnightblue" d="M161.23,-99.39C171.71,-100.82 182.39,-102.28 192.72,-103.69"/>
<polygon fill="midnightblue" stroke="midnightblue" points="192.54,-107.2 202.92,-105.09 193.48,-100.27 192.54,-107.2"/>
</g>
<!-- Node10 -->
<g id="node10" class="node">
<title>Node10</title>
<g id="a_node10"><a xlink:href="classcache__manager__t.html#a3cf1931ee488ca42525ee8e9d4b9c813" target="_top" xlink:title=" ">
<polygon fill="white" stroke="black" points="203,-0.5 203,-30.5 328,-30.5 328,-0.5 203,-0.5"/>
<text text-anchor="start" x="211" y="-18.5" font-family="Helvetica,sans-Serif" font-size="10.00">cache_manager_t::get</text>
<text text-anchor="middle" x="265.5" y="-7.5" font-family="Helvetica,sans-Serif" font-size="10.00">_cache_levels</text>
</a>
</g>
</g>
<!-- Node1&#45;&gt;Node10 -->
<g id="edge11" class="edge">
<title>Node1&#45;&gt;Node10</title>
<path fill="none" stroke="midnightblue" d="M115.4,-73.49C138.3,-63.51 169.3,-50.29 197,-39.5 201.54,-37.73 206.27,-35.94 211.03,-34.18"/>
<polygon fill="midnightblue" stroke="midnightblue" points="212.6,-37.33 220.79,-30.61 210.19,-30.76 212.6,-37.33"/>
</g>
<!-- Node3 -->
<g id="node3" class="node">
<title>Node3</title>
<g id="a_node3"><a xlink:href="classline__t.html#aa935a6ea8da96e58699f841b579d1c3b" target="_top" xlink:title=" ">
<polygon fill="white" stroke="black" points="387,-222 387,-241 476,-241 476,-222 387,-222"/>
<text text-anchor="middle" x="431.5" y="-229" font-family="Helvetica,sans-Serif" font-size="10.00">line_t::allocate</text>
</a>
</g>
</g>
<!-- Node2&#45;&gt;Node3 -->
<g id="edge2" class="edge">
<title>Node2&#45;&gt;Node3</title>
<path fill="none" stroke="midnightblue" d="M282.19,-167.01C302.09,-178.8 337.71,-198.99 370,-212.5 375.2,-214.68 380.75,-216.75 386.29,-218.66"/>
<polygon fill="midnightblue" stroke="midnightblue" points="385.59,-222.12 396.19,-221.93 387.79,-215.47 385.59,-222.12"/>
</g>
<!-- Node4 -->
<g id="node4" class="node">
<title>Node4</title>
<g id="a_node4"><a xlink:href="classline__t.html#a5b92a71c2f16f2a194f9863284215556" target="_top" xlink:title=" ">
<polygon fill="white" stroke="black" points="382,-184 382,-203 481,-203 481,-184 382,-184"/>
<text text-anchor="middle" x="431.5" y="-191" font-family="Helvetica,sans-Serif" font-size="10.00">line_t::clean_line</text>
</a>
</g>
</g>
<!-- Node2&#45;&gt;Node4 -->
<g id="edge3" class="edge">
<title>Node2&#45;&gt;Node4</title>
<path fill="none" stroke="midnightblue" d="M310.02,-167.05C330.58,-171.57 355.32,-177 377.01,-181.76"/>
<polygon fill="midnightblue" stroke="midnightblue" points="376.55,-185.24 387.06,-183.97 378.05,-178.4 376.55,-185.24"/>
</g>
<!-- Node5 -->
<g id="node5" class="node">
<title>Node5</title>
<g id="a_node5"><a xlink:href="classutils__t.html#a9db286f7de201c5b004f35c6bcf3d99f" target="_top" xlink:title=" ">
<polygon fill="white" stroke="black" points="379.5,-96.5 379.5,-126.5 483.5,-126.5 483.5,-96.5 379.5,-96.5"/>
<text text-anchor="start" x="387.5" y="-114.5" font-family="Helvetica,sans-Serif" font-size="10.00">utils_t::get_power</text>
<text text-anchor="middle" x="431.5" y="-103.5" font-family="Helvetica,sans-Serif" font-size="10.00">_of_two</text>
</a>
</g>
</g>
<!-- Node2&#45;&gt;Node5 -->
<g id="edge4" class="edge">
<title>Node2&#45;&gt;Node5</title>
<path fill="none" stroke="midnightblue" d="M300.48,-147.97C320.43,-142.37 346.23,-135.14 369.59,-128.59"/>
<polygon fill="midnightblue" stroke="midnightblue" points="370.74,-131.9 379.42,-125.83 368.85,-125.16 370.74,-131.9"/>
</g>
<!-- Node7 -->
<g id="node7" class="node">
<title>Node7</title>
<g id="a_node7"><a xlink:href="classconfigure__t.html#a15917e4f43ded0a072c8f1017a9f5035" target="_top" xlink:title=" ">
<polygon fill="white" stroke="black" points="370,-146 370,-165 493,-165 493,-146 370,-146"/>
<text text-anchor="middle" x="431.5" y="-153" font-family="Helvetica,sans-Serif" font-size="10.00">configure_t::getConfig</text>
</a>
</g>
</g>
<!-- Node2&#45;&gt;Node7 -->
<g id="edge6" class="edge">
<title>Node2&#45;&gt;Node7</title>
<path fill="none" stroke="midnightblue" d="M315.26,-156.91C329.15,-156.74 344.56,-156.55 359.49,-156.37"/>
<polygon fill="midnightblue" stroke="midnightblue" points="359.76,-159.86 369.71,-156.24 359.67,-152.86 359.76,-159.86"/>
</g>
<!-- Node6 -->
<g id="node6" class="node">
<title>Node6</title>
<g id="a_node6"><a xlink:href="classutils__t.html#a8dc759ed0961089212af1407f56dde35" target="_top" xlink:title=" ">
<polygon fill="white" stroke="black" points="529,-73.5 529,-103.5 657,-103.5 657,-73.5 529,-73.5"/>
<text text-anchor="start" x="537" y="-91.5" font-family="Helvetica,sans-Serif" font-size="10.00">utils_t::check_if_power</text>
<text text-anchor="middle" x="593" y="-80.5" font-family="Helvetica,sans-Serif" font-size="10.00">_of_two</text>
</a>
</g>
</g>
<!-- Node5&#45;&gt;Node6 -->
<g id="edge5" class="edge">
<title>Node5&#45;&gt;Node6</title>
<path fill="none" stroke="midnightblue" d="M483.84,-104.1C494.9,-102.5 506.8,-100.79 518.51,-99.1"/>
<polygon fill="midnightblue" stroke="midnightblue" points="519.34,-102.51 528.74,-97.62 518.34,-95.59 519.34,-102.51"/>
</g>
<!-- Node8&#45;&gt;Node6 -->
<g id="edge8" class="edge">
<title>Node8&#45;&gt;Node6</title>
<path fill="none" stroke="midnightblue" d="M334.34,-69.5C388.27,-73.48 463.59,-79.03 518.86,-83.11"/>
<polygon fill="midnightblue" stroke="midnightblue" points="518.71,-86.61 528.94,-83.85 519.23,-79.62 518.71,-86.61"/>
</g>
<!-- Node9&#45;&gt;Node5 -->
<g id="edge10" class="edge">
<title>Node9&#45;&gt;Node5</title>
<path fill="none" stroke="midnightblue" d="M328.03,-112.75C341.51,-112.59 355.76,-112.41 369.23,-112.25"/>
<polygon fill="midnightblue" stroke="midnightblue" points="369.38,-115.75 379.34,-112.12 369.3,-108.75 369.38,-115.75"/>
</g>
</g>
</svg>
        <g id="navigator" transform="translate(0 0)" fill="#404254">
                <rect fill="#f2f5e9" fill-opacity="0.5" stroke="#606060" stroke-width=".5" x="0" y="0" width="60" height="60"/>
                <use id="zoomplus" xlink:href="#zoomPlus" x="17" y="9" onmousedown="handleZoom(evt,'in')"/>
                <use id="zoomminus" xlink:href="#zoomMin" x="42" y="9" onmousedown="handleZoom(evt,'out')"/>
                <use id="reset" xlink:href="#resetDef" x="30" y="36" onmousedown="handleReset()"/>
                <g id="arrowUp" xlink:href="#dirArrow" transform="translate(30 24)" onmousedown="handlePan(0,-1)">
                  <use xlink:href="#rim" fill="#404040">
                        <set attributeName="fill" to="#808080" begin="arrowUp.mouseover" end="arrowUp.mouseout"/>
                  </use>
                  <path fill="none" stroke="white" stroke-width="1.5" d="M0,-3.0v7 M-2.5,-0.5L0,-3.0L2.5,-0.5"/>
                </g>
                <g id="arrowRight" xlink:href="#dirArrow" transform="rotate(90) translate(36 -43)" onmousedown="handlePan(1,0)">
                  <use xlink:href="#rim" fill="#404040">
                        <set attributeName="fill" to="#808080" begin="arrowRight.mouseover" end="arrowRight.mouseout"/>
                  </use>
                  <path fill="none" stroke="white" stroke-width="1.5" d="M0,-3.0v7 M-2.5,-0.5L0,-3.0L2.5,-0.5"/>
                </g>
                <g id="arrowDown" xlink:href="#dirArrow" transform="rotate(180) translate(-30 -48)" onmousedown="handlePan(0,1)">
                  <use xlink:href="#rim" fill="#404040">
                        <set attributeName="fill" to="#808080" begin="arrowDown.mouseover" end="arrowDown.mouseout"/>
                  </use>
                  <path fill="none" stroke="white" stroke-width="1.5" d="M0,-3.0v7 M-2.5,-0.5L0,-3.0L2.5,-0.5"/>
                </g>
                <g id="arrowLeft" xlink:href="#dirArrow" transform="rotate(270) translate(-36 17)" onmousedown="handlePan(-1,0)">
                  <use xlink:href="#rim" fill="#404040">
                        <set attributeName="fill" to="#808080" begin="arrowLeft.mouseover" end="arrowLeft.mouseout"/>
                  </use>
                  <path fill="none" stroke="white" stroke-width="1.5" d="M0,-3.0v7 M-2.5,-0.5L0,-3.0L2.5,-0.5"/>
                </g>
        </g>
        <svg viewBox="0 0 15 15" width="100%" height="30px" preserveAspectRatio="xMaxYMin meet">
         <g id="arrow_out" transform="scale(0.3 0.3)">
          <a xlink:href="classcache__manager__t_a1e3c496c5f816599aebe42b32ac345ad_cgraph_org.svg" target="_base">
           <rect id="button" ry="5" rx="5" y="6" x="6" height="38" width="38"
                fill="#f2f5e9" fill-opacity="0.5" stroke="#606060" stroke-width="1.0"/>
           <path id="arrow"
             d="M 11.500037,31.436501 C 11.940474,20.09759 22.043105,11.32322 32.158766,21.979434 L 37.068811,17.246167 C 37.068811,17.246167 37.088388,32 37.088388,32 L 22.160133,31.978069 C 22.160133,31.978069 26.997745,27.140456 26.997745,27.140456 C 18.528582,18.264221 13.291696,25.230495 11.500037,31.436501 z"
             style="fill:#404040;"/>
          </a>
         </g>
        </svg>
</svg>
