<?xml version="1.0" encoding="UTF-8" standalone="no"?>
<!DOCTYPE svg PUBLIC "-//W3C//DTD SVG 1.1//EN"
 "http://www.w3.org/Graphics/SVG/1.1/DTD/svg11.dtd">
<!-- Generated by graphviz version 2.43.0 (0)
 -->
<!-- Title: trace_reader_t Pages: 1 -->
<svg width="149pt" height="152pt"
 viewBox="0.00 0.00 149.00 152.00" xmlns="http://www.w3.org/2000/svg" xmlns:xlink="http://www.w3.org/1999/xlink">
<g id="graph0" class="graph" transform="scale(1 1) rotate(0) translate(4 148)">
<title>trace_reader_t</title>
<polygon fill="white" stroke="transparent" points="-4,4 -4,-148 145,-148 145,4 -4,4"/>
<!-- Node1 -->
<g id="node1" class="node">
<title>Node1</title>
<g id="a_node1"><a xlink:title=" ">
<polygon fill="#bfbfbf" stroke="black" points="27,-0.5 27,-19.5 114,-19.5 114,-0.5 27,-0.5"/>
<text text-anchor="middle" x="70.5" y="-7.5" font-family="Helvetica,sans-Serif" font-size="10.00">trace_reader_t</text>
</a>
</g>
</g>
<!-- Node2 -->
<g id="node2" class="node">
<title>Node2</title>
<g id="a_node2"><a xlink:href="classopcode__package__t.html" target="_top" xlink:title=" ">
<polygon fill="white" stroke="black" points="17,-67.5 17,-86.5 124,-86.5 124,-67.5 17,-67.5"/>
<text text-anchor="middle" x="70.5" y="-74.5" font-family="Helvetica,sans-Serif" font-size="10.00">opcode_package_t</text>
</a>
</g>
</g>
<!-- Node2&#45;&gt;Node1 -->
<g id="edge1" class="edge">
<title>Node2&#45;&gt;Node1</title>
<path fill="none" stroke="#9a32cd" stroke-dasharray="5,2" d="M70.5,-57.04C70.5,-44.67 70.5,-29.12 70.5,-19.63"/>
<polygon fill="#9a32cd" stroke="#9a32cd" points="67,-57.23 70.5,-67.23 74,-57.23 67,-57.23"/>
<text text-anchor="middle" x="99.5" y="-41" font-family="Helvetica,sans-Serif" font-size="10.00"> binary_dict</text>
</g>
<!-- Node3 -->
<g id="node3" class="node">
<title>Node3</title>
<g id="a_node3"><a xlink:href="classmemory__request__client__t.html" target="_top" xlink:title=" ">
<polygon fill="white" stroke="black" points="0,-124.5 0,-143.5 141,-143.5 141,-124.5 0,-124.5"/>
<text text-anchor="middle" x="70.5" y="-131.5" font-family="Helvetica,sans-Serif" font-size="10.00">memory_request_client_t</text>
</a>
</g>
</g>
<!-- Node3&#45;&gt;Node2 -->
<g id="edge2" class="edge">
<title>Node3&#45;&gt;Node2</title>
<path fill="none" stroke="midnightblue" d="M70.5,-114.12C70.5,-104.82 70.5,-94.06 70.5,-86.71"/>
<polygon fill="midnightblue" stroke="midnightblue" points="67,-114.41 70.5,-124.41 74,-114.41 67,-114.41"/>
</g>
</g>
</svg>
