<?xml version="1.0" encoding="UTF-8" standalone="no"?>
<!DOCTYPE svg PUBLIC "-//W3C//DTD SVG 1.1//EN"
 "http://www.w3.org/Graphics/SVG/1.1/DTD/svg11.dtd">
<!-- Generated by graphviz version 2.43.0 (0)
 -->
<!-- Title: vima_controller_t::search_cache Pages: 1 -->
<svg width="260pt" height="137pt"
 viewBox="0.00 0.00 260.00 137.00" xmlns="http://www.w3.org/2000/svg" xmlns:xlink="http://www.w3.org/1999/xlink">
<g id="graph0" class="graph" transform="scale(1 1) rotate(0) translate(4 133)">
<title>vima_controller_t::search_cache</title>
<polygon fill="white" stroke="transparent" points="-4,4 -4,-133 256,-133 256,4 -4,4"/>
<!-- Node1 -->
<g id="node1" class="node">
<title>Node1</title>
<g id="a_node1"><a xlink:title=" ">
<polygon fill="#bfbfbf" stroke="black" points="0,-49.5 0,-79.5 108,-79.5 108,-49.5 0,-49.5"/>
<text text-anchor="start" x="8" y="-67.5" font-family="Helvetica,sans-Serif" font-size="10.00">vima_controller_t::</text>
<text text-anchor="middle" x="54" y="-56.5" font-family="Helvetica,sans-Serif" font-size="10.00">search_cache</text>
</a>
</g>
</g>
<!-- Node2 -->
<g id="node2" class="node">
<title>Node2</title>
<g id="a_node2"><a xlink:href="classorcs__engine__t.html#a1c033e3455736ba89052a40c69ebe0af" target="_top" xlink:title=" ">
<polygon fill="white" stroke="black" points="145,-98.5 145,-128.5 251,-128.5 251,-98.5 145,-98.5"/>
<text text-anchor="start" x="153" y="-116.5" font-family="Helvetica,sans-Serif" font-size="10.00">orcs_engine_t::get</text>
<text text-anchor="middle" x="198" y="-105.5" font-family="Helvetica,sans-Serif" font-size="10.00">_global_cycle</text>
</a>
</g>
</g>
<!-- Node1&#45;&gt;Node2 -->
<g id="edge1" class="edge">
<title>Node1&#45;&gt;Node2</title>
<path fill="none" stroke="midnightblue" d="M98.76,-79.6C112.94,-84.49 128.81,-89.97 143.6,-95.07"/>
<polygon fill="midnightblue" stroke="midnightblue" points="142.54,-98.41 153.14,-98.36 144.83,-91.79 142.54,-98.41"/>
</g>
<!-- Node3 -->
<g id="node3" class="node">
<title>Node3</title>
<g id="a_node3"><a xlink:href="classvima__controller__t.html#a452fd1a40274b4e4123630adbb5c0143" target="_top" xlink:title=" ">
<polygon fill="white" stroke="black" points="144,-49.5 144,-79.5 252,-79.5 252,-49.5 144,-49.5"/>
<text text-anchor="start" x="152" y="-67.5" font-family="Helvetica,sans-Serif" font-size="10.00">vima_controller_t::</text>
<text text-anchor="middle" x="198" y="-56.5" font-family="Helvetica,sans-Serif" font-size="10.00">get_index</text>
</a>
</g>
</g>
<!-- Node1&#45;&gt;Node3 -->
<g id="edge2" class="edge">
<title>Node1&#45;&gt;Node3</title>
<path fill="none" stroke="midnightblue" d="M108.28,-64.5C116.56,-64.5 125.18,-64.5 133.66,-64.5"/>
<polygon fill="midnightblue" stroke="midnightblue" points="133.89,-68 143.89,-64.5 133.89,-61 133.89,-68"/>
</g>
<!-- Node4 -->
<g id="node4" class="node">
<title>Node4</title>
<g id="a_node4"><a xlink:href="classvima__controller__t.html#a5204c0e05186f8b07324ce44f7c76b1a" target="_top" xlink:title=" ">
<polygon fill="white" stroke="black" points="144,-0.5 144,-30.5 252,-30.5 252,-0.5 144,-0.5"/>
<text text-anchor="start" x="152" y="-18.5" font-family="Helvetica,sans-Serif" font-size="10.00">vima_controller_t::</text>
<text text-anchor="middle" x="198" y="-7.5" font-family="Helvetica,sans-Serif" font-size="10.00">get_tag</text>
</a>
</g>
</g>
<!-- Node1&#45;&gt;Node4 -->
<g id="edge3" class="edge">
<title>Node1&#45;&gt;Node4</title>
<path fill="none" stroke="midnightblue" d="M98.76,-49.4C112.94,-44.51 128.81,-39.03 143.6,-33.93"/>
<polygon fill="midnightblue" stroke="midnightblue" points="144.83,-37.21 153.14,-30.64 142.54,-30.59 144.83,-37.21"/>
</g>
</g>
</svg>
