<?xml version="1.0" encoding="UTF-8" standalone="no"?>
<!DOCTYPE svg PUBLIC "-//W3C//DTD SVG 1.1//EN"
 "http://www.w3.org/Graphics/SVG/1.1/DTD/svg11.dtd">
<!-- Generated by graphviz version 2.43.0 (0)
 -->
<!-- Title: vima_controller_t::allocate Pages: 1 -->
<svg width="606pt" height="86pt"
 viewBox="0.00 0.00 606.00 85.50" xmlns="http://www.w3.org/2000/svg" xmlns:xlink="http://www.w3.org/1999/xlink">
<g id="graph0" class="graph" transform="scale(1 1) rotate(0) translate(4 81.5)">
<title>vima_controller_t::allocate</title>
<polygon fill="white" stroke="transparent" points="-4,4 -4,-81.5 602,-81.5 602,4 -4,4"/>
<!-- Node1 -->
<g id="node1" class="node">
<title>Node1</title>
<g id="a_node1"><a xlink:title=" ">
<polygon fill="#bfbfbf" stroke="black" points="0,-17 0,-47 108,-47 108,-17 0,-17"/>
<text text-anchor="start" x="8" y="-35" font-family="Helvetica,sans-Serif" font-size="10.00">vima_controller_t::</text>
<text text-anchor="middle" x="54" y="-24" font-family="Helvetica,sans-Serif" font-size="10.00">allocate</text>
</a>
</g>
</g>
<!-- Node2 -->
<g id="node2" class="node">
<title>Node2</title>
<g id="a_node2"><a xlink:href="classvima__vector__t.html#a970f13671aaaea20f14067412b1a0265" target="_top" xlink:title=" ">
<polygon fill="white" stroke="black" points="144,-22.5 144,-41.5 275,-41.5 275,-22.5 144,-22.5"/>
<text text-anchor="middle" x="209.5" y="-29.5" font-family="Helvetica,sans-Serif" font-size="10.00">vima_vector_t::allocate</text>
</a>
</g>
</g>
<!-- Node1&#45;&gt;Node2 -->
<g id="edge1" class="edge">
<title>Node1&#45;&gt;Node2</title>
<path fill="none" stroke="midnightblue" d="M108.26,-32C116.53,-32 125.21,-32 133.86,-32"/>
<polygon fill="midnightblue" stroke="midnightblue" points="133.97,-35.5 143.97,-32 133.97,-28.5 133.97,-35.5"/>
</g>
<!-- Node3 -->
<g id="node3" class="node">
<title>Node3</title>
<g id="a_node3"><a xlink:href="classutils__t.html#a9db286f7de201c5b004f35c6bcf3d99f" target="_top" xlink:title=" ">
<polygon fill="white" stroke="black" points="320.5,-47 320.5,-77 424.5,-77 424.5,-47 320.5,-47"/>
<text text-anchor="start" x="328.5" y="-65" font-family="Helvetica,sans-Serif" font-size="10.00">utils_t::get_power</text>
<text text-anchor="middle" x="372.5" y="-54" font-family="Helvetica,sans-Serif" font-size="10.00">_of_two</text>
</a>
</g>
</g>
<!-- Node1&#45;&gt;Node3 -->
<g id="edge5" class="edge">
<title>Node1&#45;&gt;Node3</title>
<path fill="none" stroke="midnightblue" d="M108.41,-44.87C120.08,-47.27 132.41,-49.49 144,-51 199.96,-58.28 264.22,-60.86 310.15,-61.72"/>
<polygon fill="midnightblue" stroke="midnightblue" points="310.18,-65.22 320.24,-61.89 310.3,-58.22 310.18,-65.22"/>
</g>
<!-- Node5 -->
<g id="node5" class="node">
<title>Node5</title>
<g id="a_node5"><a xlink:href="classconfigure__t.html#a15917e4f43ded0a072c8f1017a9f5035" target="_top" xlink:title=" ">
<polygon fill="white" stroke="black" points="311,-0.5 311,-19.5 434,-19.5 434,-0.5 311,-0.5"/>
<text text-anchor="middle" x="372.5" y="-7.5" font-family="Helvetica,sans-Serif" font-size="10.00">configure_t::getConfig</text>
</a>
</g>
</g>
<!-- Node1&#45;&gt;Node5 -->
<g id="edge6" class="edge">
<title>Node1&#45;&gt;Node5</title>
<path fill="none" stroke="midnightblue" d="M108.37,-18.82C120.04,-16.44 132.38,-14.3 144,-13 196.26,-7.14 255.69,-6.56 300.7,-7.36"/>
<polygon fill="midnightblue" stroke="midnightblue" points="300.88,-10.86 310.95,-7.57 301.02,-3.86 300.88,-10.86"/>
</g>
<!-- Node2&#45;&gt;Node3 -->
<g id="edge2" class="edge">
<title>Node2&#45;&gt;Node3</title>
<path fill="none" stroke="midnightblue" d="M261.88,-41.57C277.21,-44.43 294.16,-47.59 310.06,-50.55"/>
<polygon fill="midnightblue" stroke="midnightblue" points="309.86,-54.07 320.33,-52.46 311.14,-47.19 309.86,-54.07"/>
</g>
<!-- Node2&#45;&gt;Node5 -->
<g id="edge4" class="edge">
<title>Node2&#45;&gt;Node5</title>
<path fill="none" stroke="midnightblue" d="M275.06,-23.18C283.55,-22.02 292.28,-20.82 300.86,-19.65"/>
<polygon fill="midnightblue" stroke="midnightblue" points="301.41,-23.11 310.85,-18.29 300.46,-16.17 301.41,-23.11"/>
</g>
<!-- Node4 -->
<g id="node4" class="node">
<title>Node4</title>
<g id="a_node4"><a xlink:href="classutils__t.html#a8dc759ed0961089212af1407f56dde35" target="_top" xlink:title=" ">
<polygon fill="white" stroke="black" points="470,-47 470,-77 598,-77 598,-47 470,-47"/>
<text text-anchor="start" x="478" y="-65" font-family="Helvetica,sans-Serif" font-size="10.00">utils_t::check_if_power</text>
<text text-anchor="middle" x="534" y="-54" font-family="Helvetica,sans-Serif" font-size="10.00">_of_two</text>
</a>
</g>
</g>
<!-- Node3&#45;&gt;Node4 -->
<g id="edge3" class="edge">
<title>Node3&#45;&gt;Node4</title>
<path fill="none" stroke="midnightblue" d="M424.84,-62C435.9,-62 447.8,-62 459.51,-62"/>
<polygon fill="midnightblue" stroke="midnightblue" points="459.74,-65.5 469.74,-62 459.74,-58.5 459.74,-65.5"/>
</g>
</g>
</svg>
