<?xml version="1.0" encoding="UTF-8" standalone="no"?>
<!DOCTYPE svg PUBLIC "-//W3C//DTD SVG 1.1//EN"
 "http://www.w3.org/Graphics/SVG/1.1/DTD/svg11.dtd">
<!-- Generated by graphviz version 2.43.0 (0)
 -->
<!-- Title: orcs_engine_t Pages: 1 -->
<!--zoomable 629 -->
<svg id="main" version="1.1" xmlns="http://www.w3.org/2000/svg" xmlns:xlink="http://www.w3.org/1999/xlink" xml:space="preserve" onload="init(evt)">
<style type="text/css"><![CDATA[
.edge:hover path { stroke: red; }
.edge:hover polygon { stroke: red; fill: red; }
]]></style>
<script type="text/javascript"><![CDATA[
var edges = document.getElementsByTagName('g');
if (edges && edges.length) {
  for (var i=0;i<edges.length;i++) {
    if (edges[i].id.substr(0,4)=='edge') {
      edges[i].setAttribute('class','edge');
    }
  }
}
]]></script>
        <defs>
                <circle id="rim" cx="0" cy="0" r="7"/>
                <circle id="rim2" cx="0" cy="0" r="3.5"/>
                <g id="zoomPlus">
                        <use xlink:href="#rim" fill="#404040">
                                <set attributeName="fill" to="#808080" begin="zoomplus.mouseover" end="zoomplus.mouseout"/>
                        </use>
                        <path d="M-4,0h8M0,-4v8" fill="none" stroke="white" stroke-width="1.5" pointer-events="none"/>
                </g>
                <g id="zoomMin">
                        <use xlink:href="#rim" fill="#404040">
                                <set attributeName="fill" to="#808080" begin="zoomminus.mouseover" end="zoomminus.mouseout"/>
                        </use>
                        <path d="M-4,0h8" fill="none" stroke="white" stroke-width="1.5" pointer-events="none"/>
                </g>
                <g id="dirArrow">
                        <path fill="none" stroke="white" stroke-width="1.5" d="M0,-3.0v7 M-2.5,-0.5L0,-3.0L2.5,-0.5"/>
                </g>
               <g id="resetDef">
                       <use xlink:href="#rim2" fill="#404040">
                               <set attributeName="fill" to="#808080" begin="reset.mouseover" end="reset.mouseout"/>
                       </use>
               </g>
        </defs>

<script type="text/javascript">
var viewWidth = 1042;
var viewHeight = 629;
var sectionId = 'dynsection-0';
</script>
<script xlink:href="svgpan.js"/>
<svg id="graph" class="graph">
<g id="viewport">
<title>orcs_engine_t</title>
<polygon fill="white" stroke="transparent" points="-4,4 -4,-624.95 1038,-624.95 1038,4 -4,4"/>
<!-- Node1 -->
<g id="node1" class="node">
<title>Node1</title>
<g id="a_node1"><a xlink:title=" ">
<polygon fill="#bfbfbf" stroke="black" points="950,-251.45 950,-270.45 1034,-270.45 1034,-251.45 950,-251.45"/>
<text text-anchor="middle" x="992" y="-258.45" font-family="Helvetica,sans-Serif" font-size="10.00">orcs_engine_t</text>
</a>
</g>
</g>
<!-- Node2 -->
<g id="node2" class="node">
<title>Node2</title>
<g id="a_node2"><a xlink:href="classtrace__reader__t.html" target="_top" xlink:title=" ">
<polygon fill="white" stroke="black" points="714,-535.45 714,-554.45 801,-554.45 801,-535.45 714,-535.45"/>
<text text-anchor="middle" x="757.5" y="-542.45" font-family="Helvetica,sans-Serif" font-size="10.00">trace_reader_t</text>
</a>
</g>
</g>
<!-- Node2&#45;&gt;Node1 -->
<g id="edge1" class="edge">
<title>Node2&#45;&gt;Node1</title>
<path fill="none" stroke="#9a32cd" stroke-dasharray="5,2" d="M785.1,-530.27C822.59,-508.35 890.98,-463.74 932,-408.95 966.15,-363.34 983.54,-295.3 989.04,-270.46"/>
<polygon fill="#9a32cd" stroke="#9a32cd" points="783.2,-527.32 776.27,-535.34 786.68,-533.39 783.2,-527.32"/>
<text text-anchor="middle" x="883.5" y="-499.95" font-family="Helvetica,sans-Serif" font-size="10.00"> trace_reader</text>
</g>
<!-- Node3 -->
<g id="node3" class="node">
<title>Node3</title>
<g id="a_node3"><a xlink:href="classopcode__package__t.html" target="_top" xlink:title=" ">
<polygon fill="white" stroke="black" points="438.5,-570.45 438.5,-589.45 545.5,-589.45 545.5,-570.45 438.5,-570.45"/>
<text text-anchor="middle" x="492" y="-577.45" font-family="Helvetica,sans-Serif" font-size="10.00">opcode_package_t</text>
</a>
</g>
</g>
<!-- Node3&#45;&gt;Node2 -->
<g id="edge2" class="edge">
<title>Node3&#45;&gt;Node2</title>
<path fill="none" stroke="#9a32cd" stroke-dasharray="5,2" d="M526.58,-592.76C564.72,-605.34 628.34,-620.32 680,-602.95 708.44,-593.39 734.7,-568.6 747.79,-554.72"/>
<polygon fill="#9a32cd" stroke="#9a32cd" points="527.59,-589.4 517,-589.47 525.32,-596.02 527.59,-589.4"/>
<text text-anchor="middle" x="625.5" y="-612.95" font-family="Helvetica,sans-Serif" font-size="10.00"> binary_dict</text>
</g>
<!-- Node6 -->
<g id="node6" class="node">
<title>Node6</title>
<g id="a_node6"><a xlink:href="classprocessor__t.html" target="_top" xlink:title=" ">
<polygon fill="white" stroke="black" points="721,-364.45 721,-383.45 794,-383.45 794,-364.45 721,-364.45"/>
<text text-anchor="middle" x="757.5" y="-371.45" font-family="Helvetica,sans-Serif" font-size="10.00">processor_t</text>
</a>
</g>
</g>
<!-- Node3&#45;&gt;Node6 -->
<g id="edge6" class="edge">
<title>Node3&#45;&gt;Node6</title>
<path fill="none" stroke="#9a32cd" stroke-dasharray="5,2" d="M556.15,-576.38C606.95,-572.87 671.25,-566.77 680,-557.95 705.97,-531.76 674.73,-421.57 698,-392.95 703.73,-385.91 712.1,-381.45 720.73,-378.63"/>
<polygon fill="#9a32cd" stroke="#9a32cd" points="555.62,-572.9 545.87,-577.06 556.08,-579.89 555.62,-572.9"/>
<text text-anchor="middle" x="625.5" y="-587.95" font-family="Helvetica,sans-Serif" font-size="10.00"> opcodeError</text>
<text text-anchor="middle" x="625.5" y="-576.95" font-family="Helvetica,sans-Serif" font-size="10.00">previousBranch</text>
</g>
<!-- Node4 -->
<g id="node4" class="node">
<title>Node4</title>
<g id="a_node4"><a xlink:href="classmemory__request__client__t.html" target="_top" xlink:title=" ">
<polygon fill="white" stroke="black" points="186,-492.45 186,-511.45 327,-511.45 327,-492.45 186,-492.45"/>
<text text-anchor="middle" x="256.5" y="-499.45" font-family="Helvetica,sans-Serif" font-size="10.00">memory_request_client_t</text>
</a>
</g>
</g>
<!-- Node4&#45;&gt;Node3 -->
<g id="edge3" class="edge">
<title>Node4&#45;&gt;Node3</title>
<path fill="none" stroke="midnightblue" d="M295.9,-514.78C342.71,-530.41 420.71,-556.47 462.5,-570.43"/>
<polygon fill="midnightblue" stroke="midnightblue" points="296.73,-511.36 286.13,-511.51 294.51,-518 296.73,-511.36"/>
</g>
<!-- Node9 -->
<g id="node9" class="node">
<title>Node9</title>
<g id="a_node9"><a xlink:href="classmemory__order__buffer__line__t.html" target="_top" xlink:title=" ">
<polygon fill="white" stroke="black" points="431,-436.95 431,-466.95 553,-466.95 553,-436.95 431,-436.95"/>
<text text-anchor="start" x="439" y="-454.95" font-family="Helvetica,sans-Serif" font-size="10.00">memory_order_buffer</text>
<text text-anchor="middle" x="492" y="-443.95" font-family="Helvetica,sans-Serif" font-size="10.00">_line_t</text>
</a>
</g>
</g>
<!-- Node4&#45;&gt;Node9 -->
<g id="edge11" class="edge">
<title>Node4&#45;&gt;Node9</title>
<path fill="none" stroke="midnightblue" d="M312.17,-490.24C347.75,-482.62 394.18,-472.68 430.82,-464.84"/>
<polygon fill="midnightblue" stroke="midnightblue" points="311.01,-486.91 301.97,-492.43 312.48,-493.76 311.01,-486.91"/>
</g>
<!-- Node5 -->
<g id="node5" class="node">
<title>Node5</title>
<g id="a_node5"><a xlink:href="classconfigure__t.html" target="_top" xlink:title=" ">
<polygon fill="white" stroke="black" points="722,-402.45 722,-421.45 793,-421.45 793,-402.45 722,-402.45"/>
<text text-anchor="middle" x="757.5" y="-409.45" font-family="Helvetica,sans-Serif" font-size="10.00">configure_t</text>
</a>
</g>
</g>
<!-- Node5&#45;&gt;Node1 -->
<g id="edge4" class="edge">
<title>Node5&#45;&gt;Node1</title>
<path fill="none" stroke="#9a32cd" stroke-dasharray="5,2" d="M803.15,-404.04C840.72,-395.57 894.2,-379.07 932,-348.95 959.62,-326.94 979,-288.45 986.96,-270.57"/>
<polygon fill="#9a32cd" stroke="#9a32cd" points="802.05,-400.69 793.01,-406.22 803.52,-407.54 802.05,-400.69"/>
<text text-anchor="middle" x="883.5" y="-396.95" font-family="Helvetica,sans-Serif" font-size="10.00"> configuration</text>
</g>
<!-- Node6&#45;&gt;Node1 -->
<g id="edge5" class="edge">
<title>Node6&#45;&gt;Node1</title>
<path fill="none" stroke="#9a32cd" stroke-dasharray="5,2" d="M787.55,-359.83C835.54,-336.51 930.18,-290.51 971.23,-270.56"/>
<polygon fill="#9a32cd" stroke="#9a32cd" points="785.79,-356.8 778.32,-364.32 788.85,-363.09 785.79,-356.8"/>
<text text-anchor="middle" x="883.5" y="-336.95" font-family="Helvetica,sans-Serif" font-size="10.00"> processor</text>
</g>
<!-- Node7 -->
<g id="node7" class="node">
<title>Node7</title>
<g id="a_node7"><a xlink:href="classreorder__buffer__line__t.html" target="_top" xlink:title=" ">
<polygon fill="white" stroke="black" points="197.5,-408.45 197.5,-427.45 315.5,-427.45 315.5,-408.45 197.5,-408.45"/>
<text text-anchor="middle" x="256.5" y="-415.45" font-family="Helvetica,sans-Serif" font-size="10.00">reorder_buffer_line_t</text>
</a>
</g>
</g>
<!-- Node7&#45;&gt;Node6 -->
<g id="edge7" class="edge">
<title>Node7&#45;&gt;Node6</title>
<path fill="none" stroke="#9a32cd" stroke-dasharray="5,2" d="M291.3,-404.88C325.81,-392.28 381.22,-374.11 431,-366.95 535.34,-351.93 660.41,-362.51 720.63,-369.36"/>
<polygon fill="#9a32cd" stroke="#9a32cd" points="289.88,-401.67 281.72,-408.43 292.31,-408.23 289.88,-401.67"/>
<text text-anchor="middle" x="492" y="-380.95" font-family="Helvetica,sans-Serif" font-size="10.00"> register_alias_table</text>
<text text-anchor="middle" x="492" y="-369.95" font-family="Helvetica,sans-Serif" font-size="10.00">reorderBuffer</text>
</g>
<!-- Node7&#45;&gt;Node7 -->
<g id="edge9" class="edge">
<title>Node7&#45;&gt;Node7</title>
<path fill="none" stroke="#9a32cd" stroke-dasharray="5,2" d="M234.55,-436.98C235.75,-442.08 243.06,-445.95 256.5,-445.95 277.47,-445.95 283.54,-436.52 274.69,-427.71"/>
<polygon fill="#9a32cd" stroke="#9a32cd" points="237.8,-438.29 238.31,-427.71 231.31,-435.66 237.8,-438.29"/>
<text text-anchor="middle" x="256.5" y="-448.95" font-family="Helvetica,sans-Serif" font-size="10.00"> reg_deps_ptr_array</text>
</g>
<!-- Node7&#45;&gt;Node9 -->
<g id="edge12" class="edge">
<title>Node7&#45;&gt;Node9</title>
<path fill="none" stroke="#9a32cd" stroke-dasharray="5,2" d="M325.63,-427.87C358.94,-432.72 398.67,-438.51 430.84,-443.19"/>
<polygon fill="#9a32cd" stroke="#9a32cd" points="325.92,-424.38 315.52,-426.4 324.91,-431.3 325.92,-424.38"/>
<text text-anchor="middle" x="379" y="-442.95" font-family="Helvetica,sans-Serif" font-size="10.00"> rob_ptr</text>
</g>
<!-- Node8 -->
<g id="node8" class="node">
<title>Node8</title>
<g id="a_node8"><a xlink:href="classuop__package__t.html" target="_top" xlink:title=" ">
<polygon fill="white" stroke="black" points="0,-408.45 0,-427.45 89,-427.45 89,-408.45 0,-408.45"/>
<text text-anchor="middle" x="44.5" y="-415.45" font-family="Helvetica,sans-Serif" font-size="10.00">uop_package_t</text>
</a>
</g>
</g>
<!-- Node8&#45;&gt;Node7 -->
<g id="edge8" class="edge">
<title>Node8&#45;&gt;Node7</title>
<path fill="none" stroke="#9a32cd" stroke-dasharray="5,2" d="M99.29,-417.95C129.27,-417.95 166.63,-417.95 197.3,-417.95"/>
<polygon fill="#9a32cd" stroke="#9a32cd" points="99.01,-414.45 89.01,-417.95 99.01,-421.45 99.01,-414.45"/>
<text text-anchor="middle" x="137.5" y="-420.95" font-family="Helvetica,sans-Serif" font-size="10.00"> uop</text>
</g>
<!-- Node9&#45;&gt;Node6 -->
<g id="edge15" class="edge">
<title>Node9&#45;&gt;Node6</title>
<path fill="none" stroke="#9a32cd" stroke-dasharray="5,2" d="M544.88,-433.74C553.55,-430.96 562.49,-428.26 571,-425.95 618.78,-412.99 633.62,-420.28 680,-402.95 688.57,-399.75 689.61,-396.6 698,-392.95 706.03,-389.45 714.92,-386.25 723.29,-383.51"/>
<polygon fill="#9a32cd" stroke="#9a32cd" points="543.66,-430.46 535.24,-436.9 545.83,-437.12 543.66,-430.46"/>
<text text-anchor="start" x="571" y="-549.95" font-family="Helvetica,sans-Serif" font-size="10.00"> memory_order_buffer</text>
<text text-anchor="middle" x="625.5" y="-538.95" font-family="Helvetica,sans-Serif" font-size="10.00">_hive</text>
<text text-anchor="start" x="571" y="-527.95" font-family="Helvetica,sans-Serif" font-size="10.00">memory_order_buffer</text>
<text text-anchor="middle" x="625.5" y="-516.95" font-family="Helvetica,sans-Serif" font-size="10.00">_read</text>
<text text-anchor="start" x="571" y="-505.95" font-family="Helvetica,sans-Serif" font-size="10.00">memory_order_buffer</text>
<text text-anchor="middle" x="625.5" y="-494.95" font-family="Helvetica,sans-Serif" font-size="10.00">_vima</text>
<text text-anchor="start" x="571" y="-483.95" font-family="Helvetica,sans-Serif" font-size="10.00">memory_order_buffer</text>
<text text-anchor="middle" x="625.5" y="-472.95" font-family="Helvetica,sans-Serif" font-size="10.00">_write</text>
<text text-anchor="middle" x="625.5" y="-461.95" font-family="Helvetica,sans-Serif" font-size="10.00">oldest_hive_to_send</text>
<text text-anchor="middle" x="625.5" y="-450.95" font-family="Helvetica,sans-Serif" font-size="10.00">oldest_read_to_send</text>
<text text-anchor="middle" x="625.5" y="-439.95" font-family="Helvetica,sans-Serif" font-size="10.00">oldest_vima_to_send</text>
<text text-anchor="middle" x="625.5" y="-428.95" font-family="Helvetica,sans-Serif" font-size="10.00">oldest_write_to_send</text>
</g>
<!-- Node9&#45;&gt;Node7 -->
<g id="edge10" class="edge">
<title>Node9&#45;&gt;Node7</title>
<path fill="none" stroke="#9a32cd" stroke-dasharray="5,2" d="M444.88,-432.86C440.18,-430.88 435.49,-428.88 431,-426.95 422.96,-423.49 421.56,-420.79 413,-418.95 381.33,-412.12 345.18,-411.48 315.72,-412.72"/>
<polygon fill="#9a32cd" stroke="#9a32cd" points="443.88,-436.24 454.45,-436.88 446.59,-429.78 443.88,-436.24"/>
<text text-anchor="middle" x="379" y="-421.95" font-family="Helvetica,sans-Serif" font-size="10.00"> mob_ptr</text>
</g>
<!-- Node9&#45;&gt;Node9 -->
<g id="edge13" class="edge">
<title>Node9&#45;&gt;Node9</title>
<path fill="none" stroke="#9a32cd" stroke-dasharray="5,2" d="M472.1,-477.41C474.57,-482.13 481.2,-485.45 492,-485.45 509.72,-485.45 516.22,-476.51 511.52,-467.11"/>
<polygon fill="#9a32cd" stroke="#9a32cd" points="475.61,-477.23 472.48,-467.11 468.61,-476.97 475.61,-477.23"/>
<text text-anchor="middle" x="492" y="-488.45" font-family="Helvetica,sans-Serif" font-size="10.00"> mem_deps_ptr_array</text>
</g>
<!-- Node10 -->
<g id="node10" class="node">
<title>Node10</title>
<g id="a_node10"><a xlink:href="classdesambiguation__t.html" target="_top" xlink:title=" ">
<polygon fill="white" stroke="black" points="440,-398.45 440,-417.45 544,-417.45 544,-398.45 440,-398.45"/>
<text text-anchor="middle" x="492" y="-405.45" font-family="Helvetica,sans-Serif" font-size="10.00">desambiguation_t</text>
</a>
</g>
</g>
<!-- Node10&#45;&gt;Node6 -->
<g id="edge14" class="edge">
<title>Node10&#45;&gt;Node6</title>
<path fill="none" stroke="#9a32cd" stroke-dasharray="5,2" d="M545.27,-396.44C553.84,-394.78 562.65,-393.21 571,-391.95 622.83,-384.14 683.35,-379.01 720.8,-376.29"/>
<polygon fill="#9a32cd" stroke="#9a32cd" points="544.48,-393.02 535.36,-398.41 545.85,-399.89 544.48,-393.02"/>
<text text-anchor="middle" x="625.5" y="-394.95" font-family="Helvetica,sans-Serif" font-size="10.00"> disambiguator</text>
</g>
<!-- Node11 -->
<g id="node11" class="node">
<title>Node11</title>
<g id="a_node11"><a xlink:href="classbranch__predictor__t.html" target="_top" xlink:title=" ">
<polygon fill="white" stroke="black" points="704,-269.45 704,-288.45 811,-288.45 811,-269.45 704,-269.45"/>
<text text-anchor="middle" x="757.5" y="-276.45" font-family="Helvetica,sans-Serif" font-size="10.00">branch_predictor_t</text>
</a>
</g>
</g>
<!-- Node11&#45;&gt;Node1 -->
<g id="edge16" class="edge">
<title>Node11&#45;&gt;Node1</title>
<path fill="none" stroke="#9a32cd" stroke-dasharray="5,2" d="M821.36,-274.08C862.11,-270.93 914.05,-266.91 949.65,-264.15"/>
<polygon fill="#9a32cd" stroke="#9a32cd" points="820.96,-270.6 811.26,-274.87 821.5,-277.58 820.96,-270.6"/>
<text text-anchor="middle" x="883.5" y="-274.95" font-family="Helvetica,sans-Serif" font-size="10.00"> branchPredictor</text>
</g>
<!-- Node12 -->
<g id="node12" class="node">
<title>Node12</title>
<g id="a_node12"><a xlink:href="classbtb__t.html" target="_top" xlink:title=" ">
<polygon fill="white" stroke="black" points="471.5,-302.45 471.5,-321.45 512.5,-321.45 512.5,-302.45 471.5,-302.45"/>
<text text-anchor="middle" x="492" y="-309.45" font-family="Helvetica,sans-Serif" font-size="10.00">btb_t</text>
</a>
</g>
</g>
<!-- Node12&#45;&gt;Node11 -->
<g id="edge17" class="edge">
<title>Node12&#45;&gt;Node11</title>
<path fill="none" stroke="#9a32cd" stroke-dasharray="5,2" d="M522.75,-308.69C559.67,-304.59 624.54,-297.2 680,-289.95 687.72,-288.94 695.86,-287.83 703.85,-286.7"/>
<polygon fill="#9a32cd" stroke="#9a32cd" points="522.23,-305.22 512.67,-309.8 523,-312.18 522.23,-305.22"/>
<text text-anchor="middle" x="625.5" y="-304.95" font-family="Helvetica,sans-Serif" font-size="10.00"> btb</text>
</g>
<!-- Node13 -->
<g id="node13" class="node">
<title>Node13</title>
<g id="a_node13"><a xlink:href="classbtb__line__t.html" target="_top" xlink:title=" ">
<polygon fill="white" stroke="black" points="224,-302.45 224,-321.45 289,-321.45 289,-302.45 224,-302.45"/>
<text text-anchor="middle" x="256.5" y="-309.45" font-family="Helvetica,sans-Serif" font-size="10.00">btb_line_t</text>
</a>
</g>
</g>
<!-- Node13&#45;&gt;Node12 -->
<g id="edge18" class="edge">
<title>Node13&#45;&gt;Node12</title>
<path fill="none" stroke="#9a32cd" stroke-dasharray="5,2" d="M299.48,-311.95C350.27,-311.95 433.63,-311.95 471.36,-311.95"/>
<polygon fill="#9a32cd" stroke="#9a32cd" points="299.48,-308.45 289.48,-311.95 299.48,-315.45 299.48,-308.45"/>
<text text-anchor="middle" x="379" y="-314.95" font-family="Helvetica,sans-Serif" font-size="10.00"> btb_entry</text>
</g>
<!-- Node14 -->
<g id="node14" class="node">
<title>Node14</title>
<g id="a_node14"><a xlink:href="classpredictor__t.html" target="_top" xlink:title=" ">
<polygon fill="white" stroke="black" points="457.5,-264.45 457.5,-283.45 526.5,-283.45 526.5,-264.45 457.5,-264.45"/>
<text text-anchor="middle" x="492" y="-271.45" font-family="Helvetica,sans-Serif" font-size="10.00">predictor_t</text>
</a>
</g>
</g>
<!-- Node14&#45;&gt;Node11 -->
<g id="edge19" class="edge">
<title>Node14&#45;&gt;Node11</title>
<path fill="none" stroke="#9a32cd" stroke-dasharray="5,2" d="M536.88,-274.78C582.84,-275.65 655.02,-277.02 703.98,-277.95"/>
<polygon fill="#9a32cd" stroke="#9a32cd" points="536.7,-271.28 526.64,-274.59 536.57,-278.28 536.7,-271.28"/>
<text text-anchor="middle" x="625.5" y="-279.95" font-family="Helvetica,sans-Serif" font-size="10.00"> branchPredictor</text>
</g>
<!-- Node15 -->
<g id="node15" class="node">
<title>Node15</title>
<g id="a_node15"><a xlink:href="classcache__manager__t.html" target="_top" xlink:title=" ">
<polygon fill="white" stroke="black" points="706,-231.45 706,-250.45 809,-250.45 809,-231.45 706,-231.45"/>
<text text-anchor="middle" x="757.5" y="-238.45" font-family="Helvetica,sans-Serif" font-size="10.00">cache_manager_t</text>
</a>
</g>
</g>
<!-- Node15&#45;&gt;Node1 -->
<g id="edge20" class="edge">
<title>Node15&#45;&gt;Node1</title>
<path fill="none" stroke="#9a32cd" stroke-dasharray="5,2" d="M819.2,-242.13C852.58,-243.27 894.68,-245.52 932,-249.95 937.79,-250.64 943.88,-251.55 949.84,-252.56"/>
<polygon fill="#9a32cd" stroke="#9a32cd" points="819.24,-238.63 809.14,-241.81 819.02,-245.63 819.24,-238.63"/>
<text text-anchor="middle" x="883.5" y="-252.95" font-family="Helvetica,sans-Serif" font-size="10.00"> cacheManager</text>
</g>
<!-- Node16 -->
<g id="node16" class="node">
<title>Node16</title>
<g id="a_node16"><a xlink:href="classcache__t.html" target="_top" xlink:title=" ">
<polygon fill="white" stroke="black" points="465,-160.45 465,-179.45 519,-179.45 519,-160.45 465,-160.45"/>
<text text-anchor="middle" x="492" y="-167.45" font-family="Helvetica,sans-Serif" font-size="10.00">cache_t</text>
</a>
</g>
</g>
<!-- Node16&#45;&gt;Node15 -->
<g id="edge21" class="edge">
<title>Node16&#45;&gt;Node15</title>
<path fill="none" stroke="#9a32cd" stroke-dasharray="5,2" d="M529.11,-176.12C567.09,-183.01 628.4,-195.28 680,-210.95 698.84,-216.67 719.6,-224.94 734.73,-231.35"/>
<polygon fill="#9a32cd" stroke="#9a32cd" points="529.5,-172.63 519.04,-174.32 528.27,-179.52 529.5,-172.63"/>
<text text-anchor="middle" x="625.5" y="-224.95" font-family="Helvetica,sans-Serif" font-size="10.00"> data_cache</text>
<text text-anchor="middle" x="625.5" y="-213.95" font-family="Helvetica,sans-Serif" font-size="10.00">instruction_cache</text>
</g>
<!-- Node24 -->
<g id="node24" class="node">
<title>Node24</title>
<g id="a_node24"><a xlink:href="classhive__controller__t.html" target="_top" xlink:title=" ">
<polygon fill="white" stroke="black" points="708.5,-154.45 708.5,-173.45 806.5,-173.45 806.5,-154.45 708.5,-154.45"/>
<text text-anchor="middle" x="757.5" y="-161.45" font-family="Helvetica,sans-Serif" font-size="10.00">hive_controller_t</text>
</a>
</g>
</g>
<!-- Node16&#45;&gt;Node24 -->
<g id="edge31" class="edge">
<title>Node16&#45;&gt;Node24</title>
<path fill="none" stroke="#9a32cd" stroke-dasharray="5,2" d="M529.4,-167.17C542.51,-166.29 557.41,-165.42 571,-164.95 617.67,-163.33 670.98,-163.22 708.44,-163.44"/>
<polygon fill="#9a32cd" stroke="#9a32cd" points="529.07,-163.69 519.34,-167.88 529.56,-170.67 529.07,-163.69"/>
<text text-anchor="middle" x="625.5" y="-167.95" font-family="Helvetica,sans-Serif" font-size="10.00"> data_cache</text>
</g>
<!-- Node17 -->
<g id="node17" class="node">
<title>Node17</title>
<g id="a_node17"><a xlink:href="classcache_set__t.html" target="_top" xlink:title=" ">
<polygon fill="white" stroke="black" points="221.5,-160.45 221.5,-179.45 291.5,-179.45 291.5,-160.45 221.5,-160.45"/>
<text text-anchor="middle" x="256.5" y="-167.45" font-family="Helvetica,sans-Serif" font-size="10.00">cacheSet_t</text>
</a>
</g>
</g>
<!-- Node17&#45;&gt;Node16 -->
<g id="edge22" class="edge">
<title>Node17&#45;&gt;Node16</title>
<path fill="none" stroke="#9a32cd" stroke-dasharray="5,2" d="M302.09,-169.95C350.22,-169.95 425.28,-169.95 464.74,-169.95"/>
<polygon fill="#9a32cd" stroke="#9a32cd" points="301.95,-166.45 291.95,-169.95 301.95,-173.45 301.95,-166.45"/>
<text text-anchor="middle" x="379" y="-172.95" font-family="Helvetica,sans-Serif" font-size="10.00"> sets</text>
</g>
<!-- Node18 -->
<g id="node18" class="node">
<title>Node18</title>
<g id="a_node18"><a xlink:href="classline__t.html" target="_top" xlink:title=" ">
<polygon fill="white" stroke="black" points="22.5,-160.45 22.5,-179.45 66.5,-179.45 66.5,-160.45 22.5,-160.45"/>
<text text-anchor="middle" x="44.5" y="-167.45" font-family="Helvetica,sans-Serif" font-size="10.00">line_t</text>
</a>
</g>
</g>
<!-- Node18&#45;&gt;Node17 -->
<g id="edge23" class="edge">
<title>Node18&#45;&gt;Node17</title>
<path fill="none" stroke="#9a32cd" stroke-dasharray="5,2" d="M76.97,-169.95C115.75,-169.95 181.4,-169.95 221.36,-169.95"/>
<polygon fill="#9a32cd" stroke="#9a32cd" points="76.79,-166.45 66.79,-169.95 76.79,-173.45 76.79,-166.45"/>
<text text-anchor="middle" x="137.5" y="-172.95" font-family="Helvetica,sans-Serif" font-size="10.00"> lines</text>
</g>
<!-- Node18&#45;&gt;Node18 -->
<g id="edge24" class="edge">
<title>Node18&#45;&gt;Node18</title>
<path fill="none" stroke="#9a32cd" stroke-dasharray="5,2" d="M27.46,-189.35C28.6,-194.26 34.28,-197.95 44.5,-197.95 60.85,-197.95 65.58,-188.52 58.68,-179.71"/>
<polygon fill="#9a32cd" stroke="#9a32cd" points="30.84,-190.29 30.32,-179.71 24.12,-188.3 30.84,-190.29"/>
<text text-anchor="middle" x="44.5" y="-200.95" font-family="Helvetica,sans-Serif" font-size="10.00"> line_ptr_caches</text>
</g>
<!-- Node19 -->
<g id="node19" class="node">
<title>Node19</title>
<g id="a_node19"><a xlink:href="classprefetcher__t.html" target="_top" xlink:title=" ">
<polygon fill="white" stroke="black" points="454,-226.45 454,-245.45 530,-245.45 530,-226.45 454,-226.45"/>
<text text-anchor="middle" x="492" y="-233.45" font-family="Helvetica,sans-Serif" font-size="10.00">prefetcher_t</text>
</a>
</g>
</g>
<!-- Node19&#45;&gt;Node15 -->
<g id="edge25" class="edge">
<title>Node19&#45;&gt;Node15</title>
<path fill="none" stroke="#9a32cd" stroke-dasharray="5,2" d="M540.35,-236.85C587.05,-237.73 658.19,-239.08 705.96,-239.99"/>
<polygon fill="#9a32cd" stroke="#9a32cd" points="540.26,-233.35 530.19,-236.66 540.13,-240.34 540.26,-233.35"/>
<text text-anchor="middle" x="625.5" y="-241.95" font-family="Helvetica,sans-Serif" font-size="10.00"> prefetcher</text>
</g>
<!-- Node20 -->
<g id="node20" class="node">
<title>Node20</title>
<g id="a_node20"><a xlink:href="classstride__prefetcher__t.html" target="_top" xlink:title=" ">
<polygon fill="white" stroke="black" points="202,-227.45 202,-246.45 311,-246.45 311,-227.45 202,-227.45"/>
<text text-anchor="middle" x="256.5" y="-234.45" font-family="Helvetica,sans-Serif" font-size="10.00">stride_prefetcher_t</text>
</a>
</g>
</g>
<!-- Node20&#45;&gt;Node19 -->
<g id="edge26" class="edge">
<title>Node20&#45;&gt;Node19</title>
<path fill="none" stroke="#9a32cd" stroke-dasharray="5,2" d="M321.31,-236.68C363.78,-236.49 418.09,-236.26 453.68,-236.11"/>
<polygon fill="#9a32cd" stroke="#9a32cd" points="321.05,-233.18 311.07,-236.72 321.08,-240.18 321.05,-233.18"/>
<text text-anchor="middle" x="379" y="-238.95" font-family="Helvetica,sans-Serif" font-size="10.00"> prefetcher</text>
</g>
<!-- Node21 -->
<g id="node21" class="node">
<title>Node21</title>
<g id="a_node21"><a xlink:href="classstride__table__t.html" target="_top" xlink:title=" ">
<polygon fill="white" stroke="black" points="3,-227.45 3,-246.45 86,-246.45 86,-227.45 3,-227.45"/>
<text text-anchor="middle" x="44.5" y="-234.45" font-family="Helvetica,sans-Serif" font-size="10.00">stride_table_t</text>
</a>
</g>
</g>
<!-- Node21&#45;&gt;Node20 -->
<g id="edge27" class="edge">
<title>Node21&#45;&gt;Node20</title>
<path fill="none" stroke="#9a32cd" stroke-dasharray="5,2" d="M96.25,-236.95C128.16,-236.95 169.29,-236.95 201.75,-236.95"/>
<polygon fill="#9a32cd" stroke="#9a32cd" points="96.24,-233.45 86.24,-236.95 96.24,-240.45 96.24,-233.45"/>
<text text-anchor="middle" x="137.5" y="-239.95" font-family="Helvetica,sans-Serif" font-size="10.00"> stride_table</text>
</g>
<!-- Node22 -->
<g id="node22" class="node">
<title>Node22</title>
<g id="a_node22"><a xlink:href="classmemory__controller__t.html" target="_top" xlink:title=" ">
<polygon fill="white" stroke="black" points="698,-106.45 698,-125.45 817,-125.45 817,-106.45 698,-106.45"/>
<text text-anchor="middle" x="757.5" y="-113.45" font-family="Helvetica,sans-Serif" font-size="10.00">memory_controller_t</text>
</a>
</g>
</g>
<!-- Node22&#45;&gt;Node1 -->
<g id="edge28" class="edge">
<title>Node22&#45;&gt;Node1</title>
<path fill="none" stroke="#9a32cd" stroke-dasharray="5,2" d="M826.38,-127.85C860.6,-136.39 901.25,-150.63 932,-173.95 959.92,-195.12 979.15,-233.47 987.02,-251.33"/>
<polygon fill="#9a32cd" stroke="#9a32cd" points="826.99,-124.4 816.45,-125.48 825.37,-131.21 826.99,-124.4"/>
<text text-anchor="middle" x="883.5" y="-176.95" font-family="Helvetica,sans-Serif" font-size="10.00"> memory_controller</text>
</g>
<!-- Node23 -->
<g id="node23" class="node">
<title>Node23</title>
<g id="a_node23"><a xlink:href="classmemory__channel__t.html" target="_top" xlink:title=" ">
<polygon fill="white" stroke="black" points="437,-75.45 437,-94.45 547,-94.45 547,-75.45 437,-75.45"/>
<text text-anchor="middle" x="492" y="-82.45" font-family="Helvetica,sans-Serif" font-size="10.00">memory_channel_t</text>
</a>
</g>
</g>
<!-- Node23&#45;&gt;Node22 -->
<g id="edge29" class="edge">
<title>Node23&#45;&gt;Node22</title>
<path fill="none" stroke="#9a32cd" stroke-dasharray="5,2" d="M557.42,-91.89C593.49,-95.85 639.27,-101 680,-105.95 685.72,-106.64 691.67,-107.39 697.62,-108.14"/>
<polygon fill="#9a32cd" stroke="#9a32cd" points="557.36,-88.37 547.04,-90.76 556.6,-95.32 557.36,-88.37"/>
<text text-anchor="middle" x="625.5" y="-108.95" font-family="Helvetica,sans-Serif" font-size="10.00"> channels</text>
</g>
<!-- Node24&#45;&gt;Node1 -->
<g id="edge30" class="edge">
<title>Node24&#45;&gt;Node1</title>
<path fill="none" stroke="#9a32cd" stroke-dasharray="5,2" d="M799.46,-176.58C835.14,-188.11 887.92,-206.43 932,-226.95 947.43,-234.13 964.17,-243.99 975.87,-251.25"/>
<polygon fill="#9a32cd" stroke="#9a32cd" points="800.46,-173.23 789.87,-173.51 798.33,-179.89 800.46,-173.23"/>
<text text-anchor="middle" x="883.5" y="-229.95" font-family="Helvetica,sans-Serif" font-size="10.00"> hive_controller</text>
</g>
<!-- Node25 -->
<g id="node25" class="node">
<title>Node25</title>
<g id="a_node25"><a xlink:href="classmemory__package__t.html" target="_top" xlink:title=" ">
<polygon fill="white" stroke="black" points="200,-94.45 200,-113.45 313,-113.45 313,-94.45 200,-94.45"/>
<text text-anchor="middle" x="256.5" y="-101.45" font-family="Helvetica,sans-Serif" font-size="10.00">memory_package_t</text>
</a>
</g>
</g>
<!-- Node25&#45;&gt;Node24 -->
<g id="edge32" class="edge">
<title>Node25&#45;&gt;Node24</title>
<path fill="none" stroke="#9a32cd" stroke-dasharray="5,2" d="M323.46,-111.88C425.37,-124.13 618.7,-147.38 708.47,-158.17"/>
<polygon fill="#9a32cd" stroke="#9a32cd" points="323.64,-108.38 313.29,-110.66 322.8,-115.33 323.64,-108.38"/>
<text text-anchor="middle" x="492" y="-140.95" font-family="Helvetica,sans-Serif" font-size="10.00"> hive_sub_requests</text>
</g>
<!-- Node27 -->
<g id="node27" class="node">
<title>Node27</title>
<g id="a_node27"><a xlink:href="classvima__vector__t.html" target="_top" xlink:title=" ">
<polygon fill="white" stroke="black" points="449,-16.45 449,-35.45 535,-35.45 535,-16.45 449,-16.45"/>
<text text-anchor="middle" x="492" y="-23.45" font-family="Helvetica,sans-Serif" font-size="10.00">vima_vector_t</text>
</a>
</g>
</g>
<!-- Node25&#45;&gt;Node27 -->
<g id="edge35" class="edge">
<title>Node25&#45;&gt;Node27</title>
<path fill="none" stroke="#9a32cd" stroke-dasharray="5,2" d="M295.9,-91.12C342.71,-75.49 420.71,-49.43 462.5,-35.47"/>
<polygon fill="#9a32cd" stroke="#9a32cd" points="294.51,-87.9 286.13,-94.39 296.73,-94.54 294.51,-87.9"/>
<text text-anchor="middle" x="379" y="-77.95" font-family="Helvetica,sans-Serif" font-size="10.00"> sub_requests</text>
</g>
<!-- Node26 -->
<g id="node26" class="node">
<title>Node26</title>
<g id="a_node26"><a xlink:href="classvima__controller__t.html" target="_top" xlink:title=" ">
<polygon fill="white" stroke="black" points="706.5,-27.45 706.5,-46.45 808.5,-46.45 808.5,-27.45 706.5,-27.45"/>
<text text-anchor="middle" x="757.5" y="-34.45" font-family="Helvetica,sans-Serif" font-size="10.00">vima_controller_t</text>
</a>
</g>
</g>
<!-- Node26&#45;&gt;Node1 -->
<g id="edge33" class="edge">
<title>Node26&#45;&gt;Node1</title>
<path fill="none" stroke="#9a32cd" stroke-dasharray="5,2" d="M810.39,-49.42C848.46,-60.97 899.07,-81.65 932,-115.95 970.77,-156.34 985.35,-225.62 989.56,-251.14"/>
<polygon fill="#9a32cd" stroke="#9a32cd" points="811.08,-45.98 800.5,-46.54 809.12,-52.7 811.08,-45.98"/>
<text text-anchor="middle" x="883.5" y="-118.95" font-family="Helvetica,sans-Serif" font-size="10.00"> vima_controller</text>
</g>
<!-- Node27&#45;&gt;Node26 -->
<g id="edge34" class="edge">
<title>Node27&#45;&gt;Node26</title>
<path fill="none" stroke="#9a32cd" stroke-dasharray="5,2" d="M532.86,-13.68C544.99,-10.51 558.43,-7.54 571,-5.95 619.06,0.11 632.45,3.32 680,-5.95 700.96,-10.03 723.43,-19.87 738.56,-27.37"/>
<polygon fill="#9a32cd" stroke="#9a32cd" points="531.75,-10.35 523.03,-16.37 533.6,-17.11 531.75,-10.35"/>
<text text-anchor="middle" x="625.5" y="-74.95" font-family="Helvetica,sans-Serif" font-size="10.00"> cache</text>
<text text-anchor="middle" x="625.5" y="-63.95" font-family="Helvetica,sans-Serif" font-size="10.00">read1</text>
<text text-anchor="middle" x="625.5" y="-52.95" font-family="Helvetica,sans-Serif" font-size="10.00">read1_unbalanced</text>
<text text-anchor="middle" x="625.5" y="-41.95" font-family="Helvetica,sans-Serif" font-size="10.00">read2</text>
<text text-anchor="middle" x="625.5" y="-30.95" font-family="Helvetica,sans-Serif" font-size="10.00">read2_unbalanced</text>
<text text-anchor="middle" x="625.5" y="-19.95" font-family="Helvetica,sans-Serif" font-size="10.00">write</text>
<text text-anchor="middle" x="625.5" y="-8.95" font-family="Helvetica,sans-Serif" font-size="10.00">write_unbalanced</text>
</g>
</g>
</svg>
        <g id="navigator" transform="translate(0 0)" fill="#404254">
                <rect fill="#f2f5e9" fill-opacity="0.5" stroke="#606060" stroke-width=".5" x="0" y="0" width="60" height="60"/>
                <use id="zoomplus" xlink:href="#zoomPlus" x="17" y="9" onmousedown="handleZoom(evt,'in')"/>
                <use id="zoomminus" xlink:href="#zoomMin" x="42" y="9" onmousedown="handleZoom(evt,'out')"/>
                <use id="reset" xlink:href="#resetDef" x="30" y="36" onmousedown="handleReset()"/>
                <g id="arrowUp" xlink:href="#dirArrow" transform="translate(30 24)" onmousedown="handlePan(0,-1)">
                  <use xlink:href="#rim" fill="#404040">
                        <set attributeName="fill" to="#808080" begin="arrowUp.mouseover" end="arrowUp.mouseout"/>
                  </use>
                  <path fill="none" stroke="white" stroke-width="1.5" d="M0,-3.0v7 M-2.5,-0.5L0,-3.0L2.5,-0.5"/>
                </g>
                <g id="arrowRight" xlink:href="#dirArrow" transform="rotate(90) translate(36 -43)" onmousedown="handlePan(1,0)">
                  <use xlink:href="#rim" fill="#404040">
                        <set attributeName="fill" to="#808080" begin="arrowRight.mouseover" end="arrowRight.mouseout"/>
                  </use>
                  <path fill="none" stroke="white" stroke-width="1.5" d="M0,-3.0v7 M-2.5,-0.5L0,-3.0L2.5,-0.5"/>
                </g>
                <g id="arrowDown" xlink:href="#dirArrow" transform="rotate(180) translate(-30 -48)" onmousedown="handlePan(0,1)">
                  <use xlink:href="#rim" fill="#404040">
                        <set attributeName="fill" to="#808080" begin="arrowDown.mouseover" end="arrowDown.mouseout"/>
                  </use>
                  <path fill="none" stroke="white" stroke-width="1.5" d="M0,-3.0v7 M-2.5,-0.5L0,-3.0L2.5,-0.5"/>
                </g>
                <g id="arrowLeft" xlink:href="#dirArrow" transform="rotate(270) translate(-36 17)" onmousedown="handlePan(-1,0)">
                  <use xlink:href="#rim" fill="#404040">
                        <set attributeName="fill" to="#808080" begin="arrowLeft.mouseover" end="arrowLeft.mouseout"/>
                  </use>
                  <path fill="none" stroke="white" stroke-width="1.5" d="M0,-3.0v7 M-2.5,-0.5L0,-3.0L2.5,-0.5"/>
                </g>
        </g>
        <svg viewBox="0 0 15 15" width="100%" height="30px" preserveAspectRatio="xMaxYMin meet">
         <g id="arrow_out" transform="scale(0.3 0.3)">
          <a xlink:href="classorcs__engine__t__coll__graph_org.svg" target="_base">
           <rect id="button" ry="5" rx="5" y="6" x="6" height="38" width="38"
                fill="#f2f5e9" fill-opacity="0.5" stroke="#606060" stroke-width="1.0"/>
           <path id="arrow"
             d="M 11.500037,31.436501 C 11.940474,20.09759 22.043105,11.32322 32.158766,21.979434 L 37.068811,17.246167 C 37.068811,17.246167 37.088388,32 37.088388,32 L 22.160133,31.978069 C 22.160133,31.978069 26.997745,27.140456 26.997745,27.140456 C 18.528582,18.264221 13.291696,25.230495 11.500037,31.436501 z"
             style="fill:#404040;"/>
          </a>
         </g>
        </svg>
</svg>
