<?xml version="1.0" encoding="UTF-8" standalone="no"?>
<!DOCTYPE svg PUBLIC "-//W3C//DTD SVG 1.1//EN"
 "http://www.w3.org/Graphics/SVG/1.1/DTD/svg11.dtd">
<!-- Generated by graphviz version 2.43.0 (0)
 -->
<!-- Title: orcs_engine_t::allocate Pages: 1 -->
<svg width="301pt" height="88pt"
 viewBox="0.00 0.00 301.00 88.00" xmlns="http://www.w3.org/2000/svg" xmlns:xlink="http://www.w3.org/1999/xlink">
<g id="graph0" class="graph" transform="scale(1 1) rotate(0) translate(4 84)">
<title>orcs_engine_t::allocate</title>
<polygon fill="white" stroke="transparent" points="-4,4 -4,-84 297,-84 297,4 -4,4"/>
<!-- Node1 -->
<g id="node1" class="node">
<title>Node1</title>
<g id="a_node1"><a xlink:title=" ">
<polygon fill="#bfbfbf" stroke="black" points="0,-30 0,-49 129,-49 129,-30 0,-30"/>
<text text-anchor="middle" x="64.5" y="-37" font-family="Helvetica,sans-Serif" font-size="10.00">orcs_engine_t::allocate</text>
</a>
</g>
</g>
<!-- Node2 -->
<g id="node2" class="node">
<title>Node2</title>
<g id="a_node2"><a xlink:href="classutils__t.html#a8dc759ed0961089212af1407f56dde35" target="_top" xlink:title=" ">
<polygon fill="white" stroke="black" points="165,-49.5 165,-79.5 293,-79.5 293,-49.5 165,-49.5"/>
<text text-anchor="start" x="173" y="-67.5" font-family="Helvetica,sans-Serif" font-size="10.00">utils_t::check_if_power</text>
<text text-anchor="middle" x="229" y="-56.5" font-family="Helvetica,sans-Serif" font-size="10.00">_of_two</text>
</a>
</g>
</g>
<!-- Node1&#45;&gt;Node2 -->
<g id="edge1" class="edge">
<title>Node1&#45;&gt;Node2</title>
<path fill="none" stroke="midnightblue" d="M127.4,-49.02C136.42,-50.41 145.78,-51.85 155,-53.27"/>
<polygon fill="midnightblue" stroke="midnightblue" points="154.51,-56.74 164.93,-54.8 155.58,-49.82 154.51,-56.74"/>
</g>
<!-- Node3 -->
<g id="node3" class="node">
<title>Node3</title>
<g id="a_node3"><a xlink:href="classutils__t.html#a78406e6a4a89aa7586c75b46744ae479" target="_top" xlink:title=" ">
<polygon fill="white" stroke="black" points="168.5,-0.5 168.5,-30.5 289.5,-30.5 289.5,-0.5 168.5,-0.5"/>
<text text-anchor="start" x="176.5" y="-18.5" font-family="Helvetica,sans-Serif" font-size="10.00">utils_t::process_mem</text>
<text text-anchor="middle" x="229" y="-7.5" font-family="Helvetica,sans-Serif" font-size="10.00">_usage</text>
</a>
</g>
</g>
<!-- Node1&#45;&gt;Node3 -->
<g id="edge2" class="edge">
<title>Node1&#45;&gt;Node3</title>
<path fill="none" stroke="midnightblue" d="M129.26,-30.08C138.83,-28.67 148.74,-27.21 158.42,-25.78"/>
<polygon fill="midnightblue" stroke="midnightblue" points="159.02,-29.23 168.4,-24.3 158,-22.3 159.02,-29.23"/>
</g>
</g>
</svg>
