<?xml version="1.0" encoding="UTF-8" standalone="no"?>
<!DOCTYPE svg PUBLIC "-//W3C//DTD SVG 1.1//EN"
 "http://www.w3.org/Graphics/SVG/1.1/DTD/svg11.dtd">
<!-- Generated by graphviz version 2.43.0 (0)
 -->
<!-- Title: cache_t::installLine Pages: 1 -->
<svg width="715pt" height="292pt"
 viewBox="0.00 0.00 715.00 292.41" xmlns="http://www.w3.org/2000/svg" xmlns:xlink="http://www.w3.org/1999/xlink">
<g id="graph0" class="graph" transform="scale(1 1) rotate(0) translate(4 288.41)">
<title>cache_t::installLine</title>
<polygon fill="white" stroke="transparent" points="-4,4 -4,-288.41 711,-288.41 711,4 -4,4"/>
<!-- Node1 -->
<g id="node1" class="node">
<title>Node1</title>
<g id="a_node1"><a xlink:title=" ">
<polygon fill="#bfbfbf" stroke="black" points="0,-57.5 0,-76.5 110,-76.5 110,-57.5 0,-57.5"/>
<text text-anchor="middle" x="55" y="-64.5" font-family="Helvetica,sans-Serif" font-size="10.00">cache_t::installLine</text>
</a>
</g>
</g>
<!-- Node2 -->
<g id="node2" class="node">
<title>Node2</title>
<g id="a_node2"><a xlink:href="classorcs__engine__t.html#a1c033e3455736ba89052a40c69ebe0af" target="_top" xlink:title=" ">
<polygon fill="white" stroke="black" points="559,-159 559,-189 665,-189 665,-159 559,-159"/>
<text text-anchor="start" x="567" y="-177" font-family="Helvetica,sans-Serif" font-size="10.00">orcs_engine_t::get</text>
<text text-anchor="middle" x="612" y="-166" font-family="Helvetica,sans-Serif" font-size="10.00">_global_cycle</text>
</a>
</g>
</g>
<!-- Node1&#45;&gt;Node2 -->
<g id="edge1" class="edge">
<title>Node1&#45;&gt;Node2</title>
<path fill="none" stroke="midnightblue" d="M110.22,-69.5C217.43,-74.79 448.96,-88.03 481,-105 503.33,-116.83 495.76,-135.31 517,-149 526.66,-155.23 537.83,-159.91 549.02,-163.43"/>
<polygon fill="midnightblue" stroke="midnightblue" points="548.25,-166.85 558.82,-166.23 550.17,-160.12 548.25,-166.85"/>
</g>
<!-- Node3 -->
<g id="node3" class="node">
<title>Node3</title>
<g id="a_node3"><a xlink:href="classcache__t.html#a08af353e5ef8b2c78f4d7a3cc57bf8fc" target="_top" xlink:title=" ">
<polygon fill="white" stroke="black" points="173,-38.5 173,-57.5 280,-57.5 280,-38.5 173,-38.5"/>
<text text-anchor="middle" x="226.5" y="-45.5" font-family="Helvetica,sans-Serif" font-size="10.00">cache_t::searchLru</text>
</a>
</g>
</g>
<!-- Node1&#45;&gt;Node3 -->
<g id="edge2" class="edge">
<title>Node1&#45;&gt;Node3</title>
<path fill="none" stroke="midnightblue" d="M110.1,-60.94C126.86,-59.06 145.48,-56.97 162.78,-55.03"/>
<polygon fill="midnightblue" stroke="midnightblue" points="163.24,-58.5 172.78,-53.91 162.46,-51.54 163.24,-58.5"/>
</g>
<!-- Node4 -->
<g id="node4" class="node">
<title>Node4</title>
<g id="a_node4"><a xlink:href="classcache__t.html#a8fa855f06d00efbcdbe0f4c64add2242" target="_top" xlink:title=" ">
<polygon fill="white" stroke="black" points="146,-0.5 146,-19.5 307,-19.5 307,-0.5 146,-0.5"/>
<text text-anchor="middle" x="226.5" y="-7.5" font-family="Helvetica,sans-Serif" font-size="10.00">cache_t::tagIdxSetCalculation</text>
</a>
</g>
</g>
<!-- Node1&#45;&gt;Node4 -->
<g id="edge3" class="edge">
<title>Node1&#45;&gt;Node4</title>
<path fill="none" stroke="midnightblue" d="M76.01,-57.42C94.01,-49.08 121.34,-37.09 146,-29 153.67,-26.48 161.85,-24.15 169.95,-22.04"/>
<polygon fill="midnightblue" stroke="midnightblue" points="170.89,-25.41 179.73,-19.57 169.18,-18.62 170.89,-25.41"/>
</g>
<!-- Node5 -->
<g id="node5" class="node">
<title>Node5</title>
<g id="a_node5"><a xlink:href="classcache__t.html#ac2fe482915a79b89e82582255421f7c0" target="_top" xlink:title=" ">
<polygon fill="white" stroke="black" points="172,-183.5 172,-202.5 281,-202.5 281,-183.5 172,-183.5"/>
<text text-anchor="middle" x="226.5" y="-190.5" font-family="Helvetica,sans-Serif" font-size="10.00">cache_t::writeBack</text>
</a>
</g>
</g>
<!-- Node1&#45;&gt;Node5 -->
<g id="edge4" class="edge">
<title>Node1&#45;&gt;Node5</title>
<path fill="none" stroke="midnightblue" d="M69.02,-76.68C98.18,-98.35 168.94,-150.96 204.45,-177.35"/>
<polygon fill="midnightblue" stroke="midnightblue" points="202.56,-180.3 212.67,-183.46 206.73,-174.69 202.56,-180.3"/>
</g>
<!-- Node5&#45;&gt;Node2 -->
<g id="edge11" class="edge">
<title>Node5&#45;&gt;Node2</title>
<path fill="none" stroke="midnightblue" d="M281.48,-195.26C332.86,-196.88 412.3,-197.99 481,-193 503.19,-191.39 527.35,-188.24 548.75,-184.97"/>
<polygon fill="midnightblue" stroke="midnightblue" points="549.35,-188.42 558.69,-183.41 548.27,-181.5 549.35,-188.42"/>
</g>
<!-- Node6 -->
<g id="node6" class="node">
<title>Node6</title>
<g id="a_node6"><a xlink:href="classline__t.html#a5b92a71c2f16f2a194f9863284215556" target="_top" xlink:title=" ">
<polygon fill="white" stroke="black" points="562.5,-259.5 562.5,-278.5 661.5,-278.5 661.5,-259.5 562.5,-259.5"/>
<text text-anchor="middle" x="612" y="-266.5" font-family="Helvetica,sans-Serif" font-size="10.00">line_t::clean_line</text>
</a>
</g>
</g>
<!-- Node5&#45;&gt;Node6 -->
<g id="edge5" class="edge">
<title>Node5&#45;&gt;Node6</title>
<path fill="none" stroke="midnightblue" d="M237.56,-202.67C256.4,-220.01 299.08,-255.85 343,-269 412.65,-289.86 497.14,-285.25 552.39,-278.5"/>
<polygon fill="midnightblue" stroke="midnightblue" points="552.88,-281.96 562.35,-277.22 551.99,-275.02 552.88,-281.96"/>
</g>
<!-- Node7 -->
<g id="node7" class="node">
<title>Node7</title>
<g id="a_node7"><a xlink:href="classcache__t.html#a926d33bfce8203d4291ee5e11fe58678" target="_top" xlink:title=" ">
<polygon fill="white" stroke="black" points="354.5,-240.5 354.5,-259.5 469.5,-259.5 469.5,-240.5 354.5,-240.5"/>
<text text-anchor="middle" x="412" y="-247.5" font-family="Helvetica,sans-Serif" font-size="10.00">cache_t::copyLevels</text>
</a>
</g>
</g>
<!-- Node5&#45;&gt;Node7 -->
<g id="edge6" class="edge">
<title>Node5&#45;&gt;Node7</title>
<path fill="none" stroke="midnightblue" d="M258.21,-202.54C289.04,-212.12 336.7,-226.92 370.58,-237.45"/>
<polygon fill="midnightblue" stroke="midnightblue" points="369.6,-240.8 380.19,-240.43 371.67,-234.12 369.6,-240.8"/>
</g>
<!-- Node8 -->
<g id="node8" class="node">
<title>Node8</title>
<g id="a_node8"><a xlink:href="classcache__t.html#abaf4210052b55d606e99604f6c2056b0" target="_top" xlink:title=" ">
<polygon fill="white" stroke="black" points="343,-164.5 343,-183.5 481,-183.5 481,-164.5 343,-164.5"/>
<text text-anchor="middle" x="412" y="-171.5" font-family="Helvetica,sans-Serif" font-size="10.00">cache_t::copyNextLevels</text>
</a>
</g>
</g>
<!-- Node5&#45;&gt;Node8 -->
<g id="edge9" class="edge">
<title>Node5&#45;&gt;Node8</title>
<path fill="none" stroke="midnightblue" d="M281.07,-187.45C297.25,-185.78 315.36,-183.9 332.81,-182.1"/>
<polygon fill="midnightblue" stroke="midnightblue" points="333.39,-185.55 342.98,-181.04 332.67,-178.59 333.39,-185.55"/>
</g>
<!-- Node9 -->
<g id="node9" class="node">
<title>Node9</title>
<g id="a_node9"><a xlink:href="classmemory__controller__t.html#ad78d3fe5a6cf2ee6e22f9e563dd6e20e" target="_top" xlink:title=" ">
<polygon fill="white" stroke="black" points="352.5,-115 352.5,-145 471.5,-145 471.5,-115 352.5,-115"/>
<text text-anchor="start" x="360.5" y="-133" font-family="Helvetica,sans-Serif" font-size="10.00">memory_controller_t</text>
<text text-anchor="middle" x="412" y="-122" font-family="Helvetica,sans-Serif" font-size="10.00">::requestDRAM</text>
</a>
</g>
</g>
<!-- Node5&#45;&gt;Node9 -->
<g id="edge12" class="edge">
<title>Node5&#45;&gt;Node9</title>
<path fill="none" stroke="midnightblue" d="M255.37,-183.43C282.38,-174.16 324.06,-159.85 357.48,-148.37"/>
<polygon fill="midnightblue" stroke="midnightblue" points="358.8,-151.62 367.12,-145.07 356.53,-145 358.8,-151.62"/>
</g>
<!-- Node7&#45;&gt;Node2 -->
<g id="edge8" class="edge">
<title>Node7&#45;&gt;Node2</title>
<path fill="none" stroke="midnightblue" d="M440.88,-240.45C453.22,-236.15 467.88,-230.94 481,-226 509.02,-215.46 540.16,-203.02 564.94,-192.96"/>
<polygon fill="midnightblue" stroke="midnightblue" points="566.51,-196.1 574.45,-189.09 563.87,-189.62 566.51,-196.1"/>
</g>
<!-- Node7&#45;&gt;Node6 -->
<g id="edge7" class="edge">
<title>Node7&#45;&gt;Node6</title>
<path fill="none" stroke="midnightblue" d="M469.74,-255.44C495.56,-257.92 526.11,-260.85 552.19,-263.36"/>
<polygon fill="midnightblue" stroke="midnightblue" points="552.02,-266.86 562.31,-264.33 552.69,-259.89 552.02,-266.86"/>
</g>
<!-- Node8&#45;&gt;Node2 -->
<g id="edge10" class="edge">
<title>Node8&#45;&gt;Node2</title>
<path fill="none" stroke="midnightblue" d="M481.14,-174C502.96,-174 527.01,-174 548.41,-174"/>
<polygon fill="midnightblue" stroke="midnightblue" points="548.69,-177.5 558.69,-174 548.69,-170.5 548.69,-177.5"/>
</g>
<!-- Node9&#45;&gt;Node2 -->
<g id="edge14" class="edge">
<title>Node9&#45;&gt;Node2</title>
<path fill="none" stroke="midnightblue" d="M471.6,-143.02C495.96,-148.44 524.25,-154.72 548.96,-160.21"/>
<polygon fill="midnightblue" stroke="midnightblue" points="548.42,-163.68 558.94,-162.43 549.94,-156.85 548.42,-163.68"/>
</g>
<!-- Node10 -->
<g id="node10" class="node">
<title>Node10</title>
<g id="a_node10"><a xlink:href="enumerations_8cpp.html#abb39d040475b58d11b29c242b33091e1" target="_top" xlink:title="Enumerates the MEMORY OPERATION OF MOB,debug only.">
<polygon fill="white" stroke="black" points="517,-120.5 517,-139.5 707,-139.5 707,-120.5 517,-120.5"/>
<text text-anchor="middle" x="612" y="-127.5" font-family="Helvetica,sans-Serif" font-size="10.00">get_enum_memory_operation_char</text>
</a>
</g>
</g>
<!-- Node9&#45;&gt;Node10 -->
<g id="edge13" class="edge">
<title>Node9&#45;&gt;Node10</title>
<path fill="none" stroke="midnightblue" d="M471.6,-130C482.74,-130 494.7,-130 506.76,-130"/>
<polygon fill="midnightblue" stroke="midnightblue" points="506.9,-133.5 516.9,-130 506.9,-126.5 506.9,-133.5"/>
</g>
</g>
</svg>
