<?xml version="1.0" encoding="UTF-8" standalone="no"?>
<!DOCTYPE svg PUBLIC "-//W3C//DTD SVG 1.1//EN"
 "http://www.w3.org/Graphics/SVG/1.1/DTD/svg11.dtd">
<!-- Generated by graphviz version 2.43.0 (0)
 -->
<!-- Title: processor_t::clean_mob_hive Pages: 1 -->
<svg width="460pt" height="225pt"
 viewBox="0.00 0.00 460.00 225.00" xmlns="http://www.w3.org/2000/svg" xmlns:xlink="http://www.w3.org/1999/xlink">
<g id="graph0" class="graph" transform="scale(1 1) rotate(0) translate(4 221)">
<title>processor_t::clean_mob_hive</title>
<polygon fill="white" stroke="transparent" points="-4,4 -4,-221 456,-221 456,4 -4,4"/>
<!-- Node1 -->
<g id="node1" class="node">
<title>Node1</title>
<g id="a_node1"><a xlink:title=" ">
<polygon fill="#bfbfbf" stroke="black" points="0,-98.5 0,-128.5 105,-128.5 105,-98.5 0,-98.5"/>
<text text-anchor="start" x="8" y="-116.5" font-family="Helvetica,sans-Serif" font-size="10.00">processor_t::clean</text>
<text text-anchor="middle" x="52.5" y="-105.5" font-family="Helvetica,sans-Serif" font-size="10.00">_mob_hive</text>
</a>
</g>
</g>
<!-- Node2 -->
<g id="node2" class="node">
<title>Node2</title>
<g id="a_node2"><a xlink:href="enumerations_8cpp.html#ad105be945954dbff8a0b2ce5a2a93b98" target="_top" xlink:title="Enumerates the processor stages, used to indicate when the branch will be solved.">
<polygon fill="white" stroke="black" points="166.5,-186.5 166.5,-216.5 284.5,-216.5 284.5,-186.5 166.5,-186.5"/>
<text text-anchor="start" x="174.5" y="-204.5" font-family="Helvetica,sans-Serif" font-size="10.00">get_enum_processor</text>
<text text-anchor="middle" x="225.5" y="-193.5" font-family="Helvetica,sans-Serif" font-size="10.00">_stage_char</text>
</a>
</g>
</g>
<!-- Node1&#45;&gt;Node2 -->
<g id="edge1" class="edge">
<title>Node1&#45;&gt;Node2</title>
<path fill="none" stroke="midnightblue" d="M73.17,-128.54C90.38,-141.19 116.4,-159.16 141,-171.5 149.19,-175.61 158.08,-179.43 166.91,-182.87"/>
<polygon fill="midnightblue" stroke="midnightblue" points="165.83,-186.21 176.42,-186.46 168.3,-179.66 165.83,-186.21"/>
</g>
<!-- Node3 -->
<g id="node3" class="node">
<title>Node3</title>
<g id="a_node3"><a xlink:href="classorcs__engine__t.html#a1c033e3455736ba89052a40c69ebe0af" target="_top" xlink:title=" ">
<polygon fill="white" stroke="black" points="346,-49.5 346,-79.5 452,-79.5 452,-49.5 346,-49.5"/>
<text text-anchor="start" x="354" y="-67.5" font-family="Helvetica,sans-Serif" font-size="10.00">orcs_engine_t::get</text>
<text text-anchor="middle" x="399" y="-56.5" font-family="Helvetica,sans-Serif" font-size="10.00">_global_cycle</text>
</a>
</g>
</g>
<!-- Node1&#45;&gt;Node3 -->
<g id="edge2" class="edge">
<title>Node1&#45;&gt;Node3</title>
<path fill="none" stroke="midnightblue" d="M95.78,-128.61C147.82,-144.75 238.12,-164.71 310,-138.5 337.81,-128.36 362.93,-105.14 379.14,-87.39"/>
<polygon fill="midnightblue" stroke="midnightblue" points="381.95,-89.5 385.94,-79.69 376.7,-84.87 381.95,-89.5"/>
</g>
<!-- Node4 -->
<g id="node4" class="node">
<title>Node4</title>
<g id="a_node4"><a xlink:href="classdesambiguation__t.html#a5c526b3dcc16c2e45af95aadd1f00c4d" target="_top" xlink:title=" ">
<polygon fill="white" stroke="black" points="157,-98.5 157,-128.5 294,-128.5 294,-98.5 157,-98.5"/>
<text text-anchor="start" x="165" y="-116.5" font-family="Helvetica,sans-Serif" font-size="10.00">desambiguation_t::solve</text>
<text text-anchor="middle" x="225.5" y="-105.5" font-family="Helvetica,sans-Serif" font-size="10.00">_memory_dependences</text>
</a>
</g>
</g>
<!-- Node1&#45;&gt;Node4 -->
<g id="edge3" class="edge">
<title>Node1&#45;&gt;Node4</title>
<path fill="none" stroke="midnightblue" d="M105.27,-113.5C118.32,-113.5 132.62,-113.5 146.65,-113.5"/>
<polygon fill="midnightblue" stroke="midnightblue" points="146.79,-117 156.79,-113.5 146.79,-110 146.79,-117"/>
</g>
<!-- Node5 -->
<g id="node5" class="node">
<title>Node5</title>
<g id="a_node5"><a xlink:href="classprocessor__t.html#ab540e86ab9de9721a2075a88a2349454" target="_top" xlink:title=" ">
<polygon fill="white" stroke="black" points="161,-49.5 161,-79.5 290,-79.5 290,-49.5 161,-49.5"/>
<text text-anchor="start" x="169" y="-67.5" font-family="Helvetica,sans-Serif" font-size="10.00">processor_t::solve</text>
<text text-anchor="middle" x="225.5" y="-56.5" font-family="Helvetica,sans-Serif" font-size="10.00">_registers_dependency</text>
</a>
</g>
</g>
<!-- Node1&#45;&gt;Node5 -->
<g id="edge4" class="edge">
<title>Node1&#45;&gt;Node5</title>
<path fill="none" stroke="midnightblue" d="M105.27,-98.67C123.27,-93.51 143.64,-87.67 162.39,-82.3"/>
<polygon fill="midnightblue" stroke="midnightblue" points="163.37,-85.66 172.02,-79.54 161.44,-78.93 163.37,-85.66"/>
</g>
<!-- Node6 -->
<g id="node6" class="node">
<title>Node6</title>
<g id="a_node6"><a xlink:href="classuop__package__t.html#ab9107a1302625134f30a9afac742f110" target="_top" xlink:title=" ">
<polygon fill="white" stroke="black" points="141,-0.5 141,-30.5 310,-30.5 310,-0.5 141,-0.5"/>
<text text-anchor="start" x="149" y="-18.5" font-family="Helvetica,sans-Serif" font-size="10.00">uop_package_t::updatePackage</text>
<text text-anchor="middle" x="225.5" y="-7.5" font-family="Helvetica,sans-Serif" font-size="10.00">Ready</text>
</a>
</g>
</g>
<!-- Node1&#45;&gt;Node6 -->
<g id="edge6" class="edge">
<title>Node1&#45;&gt;Node6</title>
<path fill="none" stroke="midnightblue" d="M67.91,-98.24C84.21,-81.81 112.25,-55.95 141,-40.5 145.19,-38.25 149.62,-36.17 154.16,-34.26"/>
<polygon fill="midnightblue" stroke="midnightblue" points="155.55,-37.47 163.58,-30.57 152.99,-30.95 155.55,-37.47"/>
</g>
<!-- Node5&#45;&gt;Node3 -->
<g id="edge5" class="edge">
<title>Node5&#45;&gt;Node3</title>
<path fill="none" stroke="midnightblue" d="M290.36,-64.5C305.22,-64.5 321.01,-64.5 335.8,-64.5"/>
<polygon fill="midnightblue" stroke="midnightblue" points="335.85,-68 345.85,-64.5 335.85,-61 335.85,-68"/>
</g>
<!-- Node6&#45;&gt;Node3 -->
<g id="edge7" class="edge">
<title>Node6&#45;&gt;Node3</title>
<path fill="none" stroke="midnightblue" d="M279.36,-30.6C297.29,-35.73 317.49,-41.5 336.07,-46.81"/>
<polygon fill="midnightblue" stroke="midnightblue" points="335.33,-50.23 345.91,-49.62 337.25,-43.5 335.33,-50.23"/>
</g>
</g>
</svg>
