<?xml version="1.0" encoding="UTF-8" standalone="no"?>
<!DOCTYPE svg PUBLIC "-//W3C//DTD SVG 1.1//EN"
 "http://www.w3.org/Graphics/SVG/1.1/DTD/svg11.dtd">
<!-- Generated by graphviz version 2.43.0 (0)
 -->
<!-- Title: processor_t::decode Pages: 1 -->
<svg width="491pt" height="215pt"
 viewBox="0.00 0.00 491.00 214.50" xmlns="http://www.w3.org/2000/svg" xmlns:xlink="http://www.w3.org/1999/xlink">
<g id="graph0" class="graph" transform="scale(1 1) rotate(0) translate(4 210.5)">
<title>processor_t::decode</title>
<polygon fill="white" stroke="transparent" points="-4,4 -4,-210.5 487,-210.5 487,4 -4,4"/>
<!-- Node1 -->
<g id="node1" class="node">
<title>Node1</title>
<g id="a_node1"><a xlink:title=" ">
<polygon fill="#bfbfbf" stroke="black" points="0,-93.5 0,-112.5 114,-112.5 114,-93.5 0,-93.5"/>
<text text-anchor="middle" x="57" y="-100.5" font-family="Helvetica,sans-Serif" font-size="10.00">processor_t::decode</text>
</a>
</g>
</g>
<!-- Node2 -->
<g id="node2" class="node">
<title>Node2</title>
<g id="a_node2"><a xlink:href="enumerations_8cpp.html#a29b4f0c7eca5c960bab850a56e5e411c" target="_top" xlink:title=" ">
<polygon fill="white" stroke="black" points="184.5,-176 184.5,-206 306.5,-206 306.5,-176 184.5,-176"/>
<text text-anchor="start" x="192.5" y="-194" font-family="Helvetica,sans-Serif" font-size="10.00">get_enum_instruction</text>
<text text-anchor="middle" x="245.5" y="-183" font-family="Helvetica,sans-Serif" font-size="10.00">_operation_char</text>
</a>
</g>
</g>
<!-- Node1&#45;&gt;Node2 -->
<g id="edge1" class="edge">
<title>Node1&#45;&gt;Node2</title>
<path fill="none" stroke="midnightblue" d="M70.8,-112.56C88.05,-125.09 120.03,-147.08 150,-161 159.13,-165.24 169.03,-169.11 178.85,-172.56"/>
<polygon fill="midnightblue" stroke="midnightblue" points="178.04,-175.98 188.63,-175.86 180.28,-169.35 178.04,-175.98"/>
</g>
<!-- Node3 -->
<g id="node3" class="node">
<title>Node3</title>
<g id="a_node3"><a xlink:href="classorcs__engine__t.html#a1c033e3455736ba89052a40c69ebe0af" target="_top" xlink:title=" ">
<polygon fill="white" stroke="black" points="377,-39 377,-69 483,-69 483,-39 377,-39"/>
<text text-anchor="start" x="385" y="-57" font-family="Helvetica,sans-Serif" font-size="10.00">orcs_engine_t::get</text>
<text text-anchor="middle" x="430" y="-46" font-family="Helvetica,sans-Serif" font-size="10.00">_global_cycle</text>
</a>
</g>
</g>
<!-- Node1&#45;&gt;Node3 -->
<g id="edge2" class="edge">
<title>Node1&#45;&gt;Node3</title>
<path fill="none" stroke="midnightblue" d="M84.33,-112.59C135.53,-129.68 251.33,-160.69 341,-128 368.81,-117.86 393.93,-94.64 410.14,-76.89"/>
<polygon fill="midnightblue" stroke="midnightblue" points="412.95,-79 416.94,-69.19 407.7,-74.37 412.95,-79"/>
</g>
<!-- Node4 -->
<g id="node4" class="node">
<title>Node4</title>
<g id="a_node4"><a xlink:href="classuop__package__t.html#a273ee9c8f907e3fcc415009f8dec34e1" target="_top" xlink:title=" ">
<polygon fill="white" stroke="black" points="180,-88 180,-118 311,-118 311,-88 180,-88"/>
<text text-anchor="start" x="188" y="-106" font-family="Helvetica,sans-Serif" font-size="10.00">uop_package_t::opcode</text>
<text text-anchor="middle" x="245.5" y="-95" font-family="Helvetica,sans-Serif" font-size="10.00">_to_uop</text>
</a>
</g>
</g>
<!-- Node1&#45;&gt;Node4 -->
<g id="edge3" class="edge">
<title>Node1&#45;&gt;Node4</title>
<path fill="none" stroke="midnightblue" d="M114.21,-103C131.67,-103 151.21,-103 169.73,-103"/>
<polygon fill="midnightblue" stroke="midnightblue" points="169.9,-106.5 179.9,-103 169.9,-99.5 169.9,-106.5"/>
</g>
<!-- Node5 -->
<g id="node5" class="node">
<title>Node5</title>
<g id="a_node5"><a xlink:href="classuop__package__t.html#a16775f00efc03adcde9ac66548393182" target="_top" xlink:title=" ">
<polygon fill="white" stroke="black" points="177.5,-39 177.5,-69 313.5,-69 313.5,-39 177.5,-39"/>
<text text-anchor="start" x="185.5" y="-57" font-family="Helvetica,sans-Serif" font-size="10.00">uop_package_t::package</text>
<text text-anchor="middle" x="245.5" y="-46" font-family="Helvetica,sans-Serif" font-size="10.00">_clean</text>
</a>
</g>
</g>
<!-- Node1&#45;&gt;Node5 -->
<g id="edge4" class="edge">
<title>Node1&#45;&gt;Node5</title>
<path fill="none" stroke="midnightblue" d="M94.4,-93.44C118.01,-87.23 149.49,-78.96 177.52,-71.6"/>
<polygon fill="midnightblue" stroke="midnightblue" points="178.49,-74.96 187.27,-69.04 176.71,-68.19 178.49,-74.96"/>
</g>
<!-- Node6 -->
<g id="node6" class="node">
<title>Node6</title>
<g id="a_node6"><a xlink:href="classuop__package__t.html#a5b30b643c82424f1cb1ea9e8d53239ed" target="_top" xlink:title=" ">
<polygon fill="white" stroke="black" points="150,-0.5 150,-19.5 341,-19.5 341,-0.5 150,-0.5"/>
<text text-anchor="middle" x="245.5" y="-7.5" font-family="Helvetica,sans-Serif" font-size="10.00">uop_package_t::updatePackageWait</text>
</a>
</g>
</g>
<!-- Node1&#45;&gt;Node6 -->
<g id="edge6" class="edge">
<title>Node1&#45;&gt;Node6</title>
<path fill="none" stroke="midnightblue" d="M66.93,-93.49C82.31,-77.7 115.5,-46.23 150,-30 156.22,-27.07 162.87,-24.57 169.65,-22.44"/>
<polygon fill="midnightblue" stroke="midnightblue" points="171.01,-25.69 179.65,-19.56 169.07,-18.96 171.01,-25.69"/>
</g>
<!-- Node5&#45;&gt;Node3 -->
<g id="edge5" class="edge">
<title>Node5&#45;&gt;Node3</title>
<path fill="none" stroke="midnightblue" d="M313.68,-54C330.93,-54 349.42,-54 366.43,-54"/>
<polygon fill="midnightblue" stroke="midnightblue" points="366.81,-57.5 376.81,-54 366.81,-50.5 366.81,-57.5"/>
</g>
<!-- Node6&#45;&gt;Node3 -->
<g id="edge7" class="edge">
<title>Node6&#45;&gt;Node3</title>
<path fill="none" stroke="midnightblue" d="M294.21,-19.54C309.23,-22.69 325.84,-26.33 341,-30 349.39,-32.03 358.19,-34.28 366.85,-36.57"/>
<polygon fill="midnightblue" stroke="midnightblue" points="365.98,-39.96 376.55,-39.16 367.79,-33.2 365.98,-39.96"/>
</g>
</g>
</svg>
