<?xml version="1.0" encoding="UTF-8" standalone="no"?>
<!DOCTYPE svg PUBLIC "-//W3C//DTD SVG 1.1//EN"
 "http://www.w3.org/Graphics/SVG/1.1/DTD/svg11.dtd">
<!-- Generated by graphviz version 2.43.0 (0)
 -->
<!-- Title: memory_controller_t::set_masks Pages: 1 -->
<svg width="431pt" height="61pt"
 viewBox="0.00 0.00 431.00 61.00" xmlns="http://www.w3.org/2000/svg" xmlns:xlink="http://www.w3.org/1999/xlink">
<g id="graph0" class="graph" transform="scale(1 1) rotate(0) translate(4 57)">
<title>memory_controller_t::set_masks</title>
<polygon fill="white" stroke="transparent" points="-4,4 -4,-57 427,-57 427,4 -4,4"/>
<!-- Node1 -->
<g id="node1" class="node">
<title>Node1</title>
<g id="a_node1"><a xlink:title=" ">
<polygon fill="#bfbfbf" stroke="black" points="0,-22.5 0,-52.5 119,-52.5 119,-22.5 0,-22.5"/>
<text text-anchor="start" x="8" y="-40.5" font-family="Helvetica,sans-Serif" font-size="10.00">memory_controller_t</text>
<text text-anchor="middle" x="59.5" y="-29.5" font-family="Helvetica,sans-Serif" font-size="10.00">::set_masks</text>
</a>
</g>
</g>
<!-- Node2 -->
<g id="node2" class="node">
<title>Node2</title>
<g id="a_node2"><a xlink:href="classutils__t.html#a8dc759ed0961089212af1407f56dde35" target="_top" xlink:title=" ">
<polygon fill="white" stroke="black" points="295,-22.5 295,-52.5 423,-52.5 423,-22.5 295,-22.5"/>
<text text-anchor="start" x="303" y="-40.5" font-family="Helvetica,sans-Serif" font-size="10.00">utils_t::check_if_power</text>
<text text-anchor="middle" x="359" y="-29.5" font-family="Helvetica,sans-Serif" font-size="10.00">_of_two</text>
</a>
</g>
</g>
<!-- Node1&#45;&gt;Node2 -->
<g id="edge1" class="edge">
<title>Node1&#45;&gt;Node2</title>
<path fill="none" stroke="midnightblue" d="M119.22,-39.65C131.06,-40.01 143.43,-40.32 155,-40.5 201.22,-41.23 212.78,-41.2 259,-40.5 267.34,-40.37 276.08,-40.19 284.76,-39.97"/>
<polygon fill="midnightblue" stroke="midnightblue" points="284.99,-43.46 294.9,-39.7 284.81,-36.47 284.99,-43.46"/>
</g>
<!-- Node3 -->
<g id="node3" class="node">
<title>Node3</title>
<g id="a_node3"><a xlink:href="classutils__t.html#a9db286f7de201c5b004f35c6bcf3d99f" target="_top" xlink:title=" ">
<polygon fill="white" stroke="black" points="155,-0.5 155,-30.5 259,-30.5 259,-0.5 155,-0.5"/>
<text text-anchor="start" x="163" y="-18.5" font-family="Helvetica,sans-Serif" font-size="10.00">utils_t::get_power</text>
<text text-anchor="middle" x="207" y="-7.5" font-family="Helvetica,sans-Serif" font-size="10.00">_of_two</text>
</a>
</g>
</g>
<!-- Node1&#45;&gt;Node3 -->
<g id="edge2" class="edge">
<title>Node1&#45;&gt;Node3</title>
<path fill="none" stroke="midnightblue" d="M119.26,-28.62C127.76,-27.33 136.53,-26 145.08,-24.71"/>
<polygon fill="midnightblue" stroke="midnightblue" points="145.61,-28.17 154.98,-23.22 144.56,-21.25 145.61,-28.17"/>
</g>
<!-- Node3&#45;&gt;Node2 -->
<g id="edge3" class="edge">
<title>Node3&#45;&gt;Node2</title>
<path fill="none" stroke="midnightblue" d="M259.2,-23.01C267.44,-24.22 276.1,-25.49 284.73,-26.75"/>
<polygon fill="midnightblue" stroke="midnightblue" points="284.42,-30.25 294.82,-28.23 285.44,-23.32 284.42,-30.25"/>
</g>
</g>
</svg>
