<?xml version="1.0" encoding="UTF-8" standalone="no"?>
<!DOCTYPE svg PUBLIC "-//W3C//DTD SVG 1.1//EN"
 "http://www.w3.org/Graphics/SVG/1.1/DTD/svg11.dtd">
<!-- Generated by graphviz version 2.43.0 (0)
 -->
<!-- Title: processor_t::mob_write Pages: 1 -->
<!--zoomable 628 -->
<svg id="main" version="1.1" xmlns="http://www.w3.org/2000/svg" xmlns:xlink="http://www.w3.org/1999/xlink" xml:space="preserve" onload="init(evt)">
<style type="text/css"><![CDATA[
.edge:hover path { stroke: red; }
.edge:hover polygon { stroke: red; fill: red; }
]]></style>
<script type="text/javascript"><![CDATA[
var edges = document.getElementsByTagName('g');
if (edges && edges.length) {
  for (var i=0;i<edges.length;i++) {
    if (edges[i].id.substr(0,4)=='edge') {
      edges[i].setAttribute('class','edge');
    }
  }
}
]]></script>
        <defs>
                <circle id="rim" cx="0" cy="0" r="7"/>
                <circle id="rim2" cx="0" cy="0" r="3.5"/>
                <g id="zoomPlus">
                        <use xlink:href="#rim" fill="#404040">
                                <set attributeName="fill" to="#808080" begin="zoomplus.mouseover" end="zoomplus.mouseout"/>
                        </use>
                        <path d="M-4,0h8M0,-4v8" fill="none" stroke="white" stroke-width="1.5" pointer-events="none"/>
                </g>
                <g id="zoomMin">
                        <use xlink:href="#rim" fill="#404040">
                                <set attributeName="fill" to="#808080" begin="zoomminus.mouseover" end="zoomminus.mouseout"/>
                        </use>
                        <path d="M-4,0h8" fill="none" stroke="white" stroke-width="1.5" pointer-events="none"/>
                </g>
                <g id="dirArrow">
                        <path fill="none" stroke="white" stroke-width="1.5" d="M0,-3.0v7 M-2.5,-0.5L0,-3.0L2.5,-0.5"/>
                </g>
               <g id="resetDef">
                       <use xlink:href="#rim2" fill="#404040">
                               <set attributeName="fill" to="#808080" begin="reset.mouseover" end="reset.mouseout"/>
                       </use>
               </g>
        </defs>

<script type="text/javascript">
var viewWidth = 758;
var viewHeight = 628;
var sectionId = 'dynsection-18';
</script>
<script xlink:href="svgpan.js"/>
<svg id="graph" class="graph">
<g id="viewport">
<title>processor_t::mob_write</title>
<polygon fill="white" stroke="transparent" points="-4,4 -4,-624 754,-624 754,4 -4,4"/>
<!-- Node1 -->
<g id="node1" class="node">
<title>Node1</title>
<g id="a_node1"><a xlink:title=" ">
<polygon fill="#bfbfbf" stroke="black" points="0,-175 0,-194 131,-194 131,-175 0,-175"/>
<text text-anchor="middle" x="65.5" y="-182" font-family="Helvetica,sans-Serif" font-size="10.00">processor_t::mob_write</text>
</a>
</g>
</g>
<!-- Node2 -->
<g id="node2" class="node">
<title>Node2</title>
<g id="a_node2"><a xlink:href="classcache__manager__t.html#a9abccd4bc20a33397cc207c091ffc0bc" target="_top" xlink:title=" ">
<polygon fill="white" stroke="black" points="174.5,-592 174.5,-611 328.5,-611 328.5,-592 174.5,-592"/>
<text text-anchor="middle" x="251.5" y="-599" font-family="Helvetica,sans-Serif" font-size="10.00">cache_manager_t::available</text>
</a>
</g>
</g>
<!-- Node1&#45;&gt;Node2 -->
<g id="edge1" class="edge">
<title>Node1&#45;&gt;Node2</title>
<path fill="none" stroke="midnightblue" d="M67.74,-194.29C74.84,-248.97 112.01,-516.08 167,-574.5 172.1,-579.92 178.29,-584.25 184.97,-587.71"/>
<polygon fill="midnightblue" stroke="midnightblue" points="183.77,-591.01 194.32,-591.92 186.64,-584.63 183.77,-591.01"/>
</g>
<!-- Node4 -->
<g id="node4" class="node">
<title>Node4</title>
<g id="a_node4"><a xlink:href="enumerations_8cpp.html#abb39d040475b58d11b29c242b33091e1" target="_top" xlink:title="Enumerates the MEMORY OPERATION OF MOB,debug only.">
<polygon fill="white" stroke="black" points="560,-489 560,-508 750,-508 750,-489 560,-489"/>
<text text-anchor="middle" x="655" y="-496" font-family="Helvetica,sans-Serif" font-size="10.00">get_enum_memory_operation_char</text>
</a>
</g>
</g>
<!-- Node1&#45;&gt;Node4 -->
<g id="edge3" class="edge">
<title>Node1&#45;&gt;Node4</title>
<path fill="none" stroke="midnightblue" d="M68.3,-194.13C75.14,-228.44 102.52,-346.39 167,-416.5 236.99,-492.61 271.72,-501.3 372,-526.5 456.67,-547.78 559.46,-526.11 614.56,-510.8"/>
<polygon fill="midnightblue" stroke="midnightblue" points="615.63,-514.14 624.28,-508.03 613.71,-507.41 615.63,-514.14"/>
</g>
<!-- Node5 -->
<g id="node5" class="node">
<title>Node5</title>
<g id="a_node5"><a xlink:href="classorcs__engine__t.html#a1c033e3455736ba89052a40c69ebe0af" target="_top" xlink:title=" ">
<polygon fill="white" stroke="black" points="602,-169.5 602,-199.5 708,-199.5 708,-169.5 602,-169.5"/>
<text text-anchor="start" x="610" y="-187.5" font-family="Helvetica,sans-Serif" font-size="10.00">orcs_engine_t::get</text>
<text text-anchor="middle" x="655" y="-176.5" font-family="Helvetica,sans-Serif" font-size="10.00">_global_cycle</text>
</a>
</g>
</g>
<!-- Node1&#45;&gt;Node5 -->
<g id="edge4" class="edge">
<title>Node1&#45;&gt;Node5</title>
<path fill="none" stroke="midnightblue" d="M131.05,-184.5C244.8,-184.5 479.47,-184.5 591.64,-184.5"/>
<polygon fill="midnightblue" stroke="midnightblue" points="591.78,-188 601.78,-184.5 591.78,-181 591.78,-188"/>
</g>
<!-- Node6 -->
<g id="node6" class="node">
<title>Node6</title>
<g id="a_node6"><a xlink:href="classprocessor__t.html#aa7230de4cfee2b7a447fa181a7417ba8" target="_top" xlink:title=" ">
<polygon fill="white" stroke="black" points="387,-125.5 387,-155.5 509,-155.5 509,-125.5 387,-125.5"/>
<text text-anchor="start" x="395" y="-143.5" font-family="Helvetica,sans-Serif" font-size="10.00">processor_t::get_next</text>
<text text-anchor="middle" x="448" y="-132.5" font-family="Helvetica,sans-Serif" font-size="10.00">_op_store</text>
</a>
</g>
</g>
<!-- Node1&#45;&gt;Node6 -->
<g id="edge5" class="edge">
<title>Node1&#45;&gt;Node6</title>
<path fill="none" stroke="midnightblue" d="M131.07,-175.2C143.01,-173.57 155.37,-171.93 167,-170.5 238.26,-161.72 319.91,-153.14 376.57,-147.42"/>
<polygon fill="midnightblue" stroke="midnightblue" points="377.26,-150.87 386.86,-146.39 376.56,-143.91 377.26,-150.87"/>
</g>
<!-- Node7 -->
<g id="node7" class="node">
<title>Node7</title>
<g id="a_node7"><a xlink:href="classprocessor__t.html#a7c56b2294325149b4d392a595879935a" target="_top" xlink:title=" ">
<polygon fill="white" stroke="black" points="193.5,-292.5 193.5,-322.5 309.5,-322.5 309.5,-292.5 193.5,-292.5"/>
<text text-anchor="start" x="201.5" y="-310.5" font-family="Helvetica,sans-Serif" font-size="10.00">processor_t::remove</text>
<text text-anchor="middle" x="251.5" y="-299.5" font-family="Helvetica,sans-Serif" font-size="10.00">_front_mob_write</text>
</a>
</g>
</g>
<!-- Node1&#45;&gt;Node7 -->
<g id="edge7" class="edge">
<title>Node1&#45;&gt;Node7</title>
<path fill="none" stroke="midnightblue" d="M80.94,-194.15C110.69,-214.04 179.42,-259.98 219.64,-286.87"/>
<polygon fill="midnightblue" stroke="midnightblue" points="217.75,-289.82 228.01,-292.47 221.64,-284 217.75,-289.82"/>
</g>
<!-- Node14 -->
<g id="node14" class="node">
<title>Node14</title>
<g id="a_node14"><a xlink:href="classcache__manager__t.html#a0e4328a6d039b46fedab6919517db075" target="_top" xlink:title=" ">
<polygon fill="white" stroke="black" points="169.5,-388 169.5,-407 333.5,-407 333.5,-388 169.5,-388"/>
<text text-anchor="middle" x="251.5" y="-395" font-family="Helvetica,sans-Serif" font-size="10.00">cache_manager_t::searchData</text>
</a>
</g>
</g>
<!-- Node1&#45;&gt;Node14 -->
<g id="edge19" class="edge">
<title>Node1&#45;&gt;Node14</title>
<path fill="none" stroke="midnightblue" d="M71.73,-194.16C85.33,-218.77 123.76,-285.16 167,-331.5 185.25,-351.06 209.56,-369.6 227.24,-382.02"/>
<polygon fill="midnightblue" stroke="midnightblue" points="225.6,-385.14 235.82,-387.94 229.57,-379.38 225.6,-385.14"/>
</g>
<!-- Node16 -->
<g id="node16" class="node">
<title>Node16</title>
<g id="a_node16"><a xlink:href="classdesambiguation__t.html#a5c526b3dcc16c2e45af95aadd1f00c4d" target="_top" xlink:title=" ">
<polygon fill="white" stroke="black" points="183,-0.5 183,-30.5 320,-30.5 320,-0.5 183,-0.5"/>
<text text-anchor="start" x="191" y="-18.5" font-family="Helvetica,sans-Serif" font-size="10.00">desambiguation_t::solve</text>
<text text-anchor="middle" x="251.5" y="-7.5" font-family="Helvetica,sans-Serif" font-size="10.00">_memory_dependences</text>
</a>
</g>
</g>
<!-- Node1&#45;&gt;Node16 -->
<g id="edge24" class="edge">
<title>Node1&#45;&gt;Node16</title>
<path fill="none" stroke="midnightblue" d="M70.47,-174.66C81.57,-148.45 115.48,-76.46 167,-39.5 169.14,-37.96 171.39,-36.52 173.7,-35.17"/>
<polygon fill="midnightblue" stroke="midnightblue" points="175.66,-38.1 182.95,-30.41 172.46,-31.88 175.66,-38.1"/>
</g>
<!-- Node17 -->
<g id="node17" class="node">
<title>Node17</title>
<g id="a_node17"><a xlink:href="classprocessor__t.html#ab540e86ab9de9721a2075a88a2349454" target="_top" xlink:title=" ">
<polygon fill="white" stroke="black" points="383.5,-76.5 383.5,-106.5 512.5,-106.5 512.5,-76.5 383.5,-76.5"/>
<text text-anchor="start" x="391.5" y="-94.5" font-family="Helvetica,sans-Serif" font-size="10.00">processor_t::solve</text>
<text text-anchor="middle" x="448" y="-83.5" font-family="Helvetica,sans-Serif" font-size="10.00">_registers_dependency</text>
</a>
</g>
</g>
<!-- Node1&#45;&gt;Node17 -->
<g id="edge25" class="edge">
<title>Node1&#45;&gt;Node17</title>
<path fill="none" stroke="midnightblue" d="M90.15,-174.94C110.32,-167.05 140.22,-155.98 167,-148.5 236.07,-129.2 316.43,-113.52 373.29,-103.53"/>
<polygon fill="midnightblue" stroke="midnightblue" points="374.02,-106.96 383.28,-101.79 372.82,-100.06 374.02,-106.96"/>
</g>
<!-- Node18 -->
<g id="node18" class="node">
<title>Node18</title>
<g id="a_node18"><a xlink:href="classuop__package__t.html#ab9107a1302625134f30a9afac742f110" target="_top" xlink:title=" ">
<polygon fill="white" stroke="black" points="167,-49.5 167,-79.5 336,-79.5 336,-49.5 167,-49.5"/>
<text text-anchor="start" x="175" y="-67.5" font-family="Helvetica,sans-Serif" font-size="10.00">uop_package_t::updatePackage</text>
<text text-anchor="middle" x="251.5" y="-56.5" font-family="Helvetica,sans-Serif" font-size="10.00">Ready</text>
</a>
</g>
</g>
<!-- Node1&#45;&gt;Node18 -->
<g id="edge27" class="edge">
<title>Node1&#45;&gt;Node18</title>
<path fill="none" stroke="midnightblue" d="M74.96,-174.76C91.16,-156.64 128.37,-117.53 167,-94.5 173.96,-90.35 181.59,-86.64 189.31,-83.36"/>
<polygon fill="midnightblue" stroke="midnightblue" points="190.76,-86.55 198.74,-79.58 188.16,-80.05 190.76,-86.55"/>
</g>
<!-- Node3 -->
<g id="node3" class="node">
<title>Node3</title>
<g id="a_node3"><a xlink:href="classcache__manager__t.html#a1d0eab3491ced37cfc80481d8e71274f" target="_top" xlink:title=" ">
<polygon fill="white" stroke="black" points="372,-589.5 372,-619.5 524,-619.5 524,-589.5 372,-589.5"/>
<text text-anchor="start" x="380" y="-607.5" font-family="Helvetica,sans-Serif" font-size="10.00">cache_manager_t::generate</text>
<text text-anchor="middle" x="448" y="-596.5" font-family="Helvetica,sans-Serif" font-size="10.00">IndexArray</text>
</a>
</g>
</g>
<!-- Node2&#45;&gt;Node3 -->
<g id="edge2" class="edge">
<title>Node2&#45;&gt;Node3</title>
<path fill="none" stroke="midnightblue" d="M328.53,-602.67C339.47,-602.84 350.77,-603.02 361.87,-603.19"/>
<polygon fill="midnightblue" stroke="midnightblue" points="361.92,-606.69 371.98,-603.34 362.03,-599.69 361.92,-606.69"/>
</g>
<!-- Node6&#45;&gt;Node5 -->
<g id="edge6" class="edge">
<title>Node6&#45;&gt;Node5</title>
<path fill="none" stroke="midnightblue" d="M509.12,-153.4C535.21,-159 565.74,-165.56 592.03,-171.2"/>
<polygon fill="midnightblue" stroke="midnightblue" points="591.36,-174.64 601.88,-173.31 592.83,-167.79 591.36,-174.64"/>
</g>
<!-- Node7&#45;&gt;Node4 -->
<g id="edge14" class="edge">
<title>Node7&#45;&gt;Node4</title>
<path fill="none" stroke="midnightblue" d="M272.89,-322.65C290.55,-336.27 316.29,-357.33 336,-378.5 354.42,-398.28 349.56,-412.44 372,-427.5 429.82,-466.3 457.64,-444.39 524,-465.5 540.36,-470.7 543.53,-474.67 560,-479.5 569.13,-482.18 578.87,-484.61 588.49,-486.76"/>
<polygon fill="midnightblue" stroke="midnightblue" points="587.93,-490.22 598.44,-488.91 589.41,-483.38 587.93,-490.22"/>
</g>
<!-- Node7&#45;&gt;Node5 -->
<g id="edge16" class="edge">
<title>Node7&#45;&gt;Node5</title>
<path fill="none" stroke="midnightblue" d="M274.86,-292.41C298.15,-277.37 336.18,-254.66 372,-241.5 444.98,-214.69 533.47,-199.41 591.62,-191.55"/>
<polygon fill="midnightblue" stroke="midnightblue" points="592.3,-194.99 601.76,-190.21 591.39,-188.05 592.3,-194.99"/>
</g>
<!-- Node8 -->
<g id="node8" class="node">
<title>Node8</title>
<g id="a_node8"><a xlink:href="classmemory__order__buffer__line__t.html#ab207bfff4362a0f5976d62747ab18109" target="_top" xlink:title=" ">
<polygon fill="white" stroke="black" points="387,-377 387,-418 509,-418 509,-377 387,-377"/>
<text text-anchor="start" x="395" y="-406" font-family="Helvetica,sans-Serif" font-size="10.00">memory_order_buffer</text>
<text text-anchor="start" x="395" y="-395" font-family="Helvetica,sans-Serif" font-size="10.00">_line_t::content_to</text>
<text text-anchor="middle" x="448" y="-384" font-family="Helvetica,sans-Serif" font-size="10.00">_string</text>
</a>
</g>
</g>
<!-- Node7&#45;&gt;Node8 -->
<g id="edge8" class="edge">
<title>Node7&#45;&gt;Node8</title>
<path fill="none" stroke="midnightblue" d="M285.05,-322.56C314.51,-336.19 358.46,-356.53 393.15,-372.58"/>
<polygon fill="midnightblue" stroke="midnightblue" points="392.12,-375.96 402.67,-376.99 395.06,-369.61 392.12,-375.96"/>
</g>
<!-- Node10 -->
<g id="node10" class="node">
<title>Node10</title>
<g id="a_node10"><a xlink:href="enumerations_8cpp.html#a4f1219a7c31d137c368e36cea5be9128" target="_top" xlink:title="Enumerates the package state,.">
<polygon fill="white" stroke="black" points="571.5,-325 571.5,-344 738.5,-344 738.5,-325 571.5,-325"/>
<text text-anchor="middle" x="655" y="-332" font-family="Helvetica,sans-Serif" font-size="10.00">get_enum_package_state_char</text>
</a>
</g>
</g>
<!-- Node7&#45;&gt;Node10 -->
<g id="edge15" class="edge">
<title>Node7&#45;&gt;Node10</title>
<path fill="none" stroke="midnightblue" d="M309.6,-311.34C375.07,-315.74 483.36,-323.02 561.04,-328.25"/>
<polygon fill="midnightblue" stroke="midnightblue" points="561.09,-331.76 571.31,-328.94 561.56,-324.78 561.09,-331.76"/>
</g>
<!-- Node13 -->
<g id="node13" class="node">
<title>Node13</title>
<g id="a_node13"><a xlink:href="classmemory__order__buffer__line__t.html#a604d280b24282534c4785ce0c1bd7fa9" target="_top" xlink:title=" ">
<polygon fill="white" stroke="black" points="384.5,-251.5 384.5,-281.5 511.5,-281.5 511.5,-251.5 384.5,-251.5"/>
<text text-anchor="start" x="392.5" y="-269.5" font-family="Helvetica,sans-Serif" font-size="10.00">memory_order_buffer</text>
<text text-anchor="middle" x="448" y="-258.5" font-family="Helvetica,sans-Serif" font-size="10.00">_line_t::package_clean</text>
</a>
</g>
</g>
<!-- Node7&#45;&gt;Node13 -->
<g id="edge17" class="edge">
<title>Node7&#45;&gt;Node13</title>
<path fill="none" stroke="midnightblue" d="M309.54,-295.48C329.77,-291.21 352.81,-286.36 374.17,-281.85"/>
<polygon fill="midnightblue" stroke="midnightblue" points="375.11,-285.23 384.17,-279.74 373.66,-278.38 375.11,-285.23"/>
</g>
<!-- Node8&#45;&gt;Node4 -->
<g id="edge10" class="edge">
<title>Node8&#45;&gt;Node4</title>
<path fill="none" stroke="midnightblue" d="M501.75,-418.14C509.59,-422.31 517.28,-427.1 524,-432.5 544.51,-448.98 537.68,-465.56 560,-479.5 563.4,-481.62 566.99,-483.51 570.7,-485.2"/>
<polygon fill="midnightblue" stroke="midnightblue" points="569.57,-488.52 580.16,-488.98 572.17,-482.02 569.57,-488.52"/>
</g>
<!-- Node9 -->
<g id="node9" class="node">
<title>Node9</title>
<g id="a_node9"><a xlink:href="classutils__t.html#a6119f6b64f0de103f7e051345fe2e87f" target="_top" xlink:title=" ">
<polygon fill="white" stroke="black" points="594,-401 594,-420 716,-420 716,-401 594,-401"/>
<text text-anchor="middle" x="655" y="-408" font-family="Helvetica,sans-Serif" font-size="10.00">utils_t::bool_to_string</text>
</a>
</g>
</g>
<!-- Node8&#45;&gt;Node9 -->
<g id="edge9" class="edge">
<title>Node8&#45;&gt;Node9</title>
<path fill="none" stroke="midnightblue" d="M509.12,-401.31C532.48,-402.79 559.41,-404.5 583.67,-406.04"/>
<polygon fill="midnightblue" stroke="midnightblue" points="583.68,-409.55 593.88,-406.69 584.12,-402.56 583.68,-409.55"/>
</g>
<!-- Node8&#45;&gt;Node10 -->
<g id="edge11" class="edge">
<title>Node8&#45;&gt;Node10</title>
<path fill="none" stroke="midnightblue" d="M495.34,-376.99C515,-368.86 538.34,-359.93 560,-353.5 569.12,-350.79 578.86,-348.35 588.47,-346.18"/>
<polygon fill="midnightblue" stroke="midnightblue" points="589.39,-349.57 598.42,-344.03 587.91,-342.72 589.39,-349.57"/>
</g>
<!-- Node11 -->
<g id="node11" class="node">
<title>Node11</title>
<g id="a_node11"><a xlink:href="classutils__t.html#a710d0f0a1d8f5561bb63460d2c833391" target="_top" xlink:title=" ">
<polygon fill="white" stroke="black" points="592.5,-363 592.5,-382 717.5,-382 717.5,-363 592.5,-363"/>
<text text-anchor="middle" x="655" y="-370" font-family="Helvetica,sans-Serif" font-size="10.00">utils_t::int32_to_string</text>
</a>
</g>
</g>
<!-- Node8&#45;&gt;Node11 -->
<g id="edge12" class="edge">
<title>Node8&#45;&gt;Node11</title>
<path fill="none" stroke="midnightblue" d="M509.12,-390.17C532.07,-387.37 558.46,-384.15 582.38,-381.23"/>
<polygon fill="midnightblue" stroke="midnightblue" points="582.95,-384.69 592.46,-380.01 582.11,-377.74 582.95,-384.69"/>
</g>
<!-- Node12 -->
<g id="node12" class="node">
<title>Node12</title>
<g id="a_node12"><a xlink:href="classutils__t.html#aa30deed2def3a1339369e6806073e9fd" target="_top" xlink:title=" ">
<polygon fill="white" stroke="black" points="606,-439.5 606,-469.5 704,-469.5 704,-439.5 606,-439.5"/>
<text text-anchor="start" x="614" y="-457.5" font-family="Helvetica,sans-Serif" font-size="10.00">utils_t::uint64_to</text>
<text text-anchor="middle" x="655" y="-446.5" font-family="Helvetica,sans-Serif" font-size="10.00">_string</text>
</a>
</g>
</g>
<!-- Node8&#45;&gt;Node12 -->
<g id="edge13" class="edge">
<title>Node8&#45;&gt;Node12</title>
<path fill="none" stroke="midnightblue" d="M509.14,-415.08C525.61,-419.83 543.48,-424.92 560,-429.5 571.57,-432.71 583.96,-436.06 595.83,-439.23"/>
<polygon fill="midnightblue" stroke="midnightblue" points="595.08,-442.65 605.64,-441.84 596.88,-435.89 595.08,-442.65"/>
</g>
<!-- Node13&#45;&gt;Node5 -->
<g id="edge18" class="edge">
<title>Node13&#45;&gt;Node5</title>
<path fill="none" stroke="midnightblue" d="M486.6,-251.46C520.45,-237.92 570.34,-217.97 606.85,-203.36"/>
<polygon fill="midnightblue" stroke="midnightblue" points="608.31,-206.55 616.29,-199.58 605.71,-200.05 608.31,-206.55"/>
</g>
<!-- Node14&#45;&gt;Node4 -->
<g id="edge20" class="edge">
<title>Node14&#45;&gt;Node4</title>
<path fill="none" stroke="midnightblue" d="M259.22,-407.01C275.5,-429.12 319.63,-483.62 372,-503.5 449.3,-532.84 547.32,-521.3 605.09,-510.04"/>
<polygon fill="midnightblue" stroke="midnightblue" points="605.94,-513.44 615.05,-508.03 604.55,-506.58 605.94,-513.44"/>
</g>
<!-- Node14&#45;&gt;Node5 -->
<g id="edge21" class="edge">
<title>Node14&#45;&gt;Node5</title>
<path fill="none" stroke="midnightblue" d="M286.19,-387.92C339.06,-372.08 443.77,-337.48 524,-290.5 565.04,-266.47 606.63,-229.95 631.36,-206.67"/>
<polygon fill="midnightblue" stroke="midnightblue" points="633.95,-209.04 638.78,-199.61 629.12,-203.97 633.95,-209.04"/>
</g>
<!-- Node15 -->
<g id="node15" class="node">
<title>Node15</title>
<g id="a_node15"><a xlink:href="classcache__manager__t.html#a0a94cd6337296baa14acfe4c640ce821" target="_top" xlink:title=" ">
<polygon fill="white" stroke="black" points="385,-475 385,-494 511,-494 511,-475 385,-475"/>
<text text-anchor="middle" x="448" y="-482" font-family="Helvetica,sans-Serif" font-size="10.00">cache_manager_t::isIn</text>
</a>
</g>
</g>
<!-- Node14&#45;&gt;Node15 -->
<g id="edge22" class="edge">
<title>Node14&#45;&gt;Node15</title>
<path fill="none" stroke="midnightblue" d="M268.68,-407.21C291.25,-420.47 333.72,-444.43 372,-460.5 381.93,-464.67 392.86,-468.55 403.23,-471.92"/>
<polygon fill="midnightblue" stroke="midnightblue" points="402.35,-475.31 412.94,-474.98 404.46,-468.64 402.35,-475.31"/>
</g>
<!-- Node15&#45;&gt;Node4 -->
<g id="edge23" class="edge">
<title>Node15&#45;&gt;Node4</title>
<path fill="none" stroke="midnightblue" d="M511.06,-488.74C523.37,-489.58 536.59,-490.48 549.86,-491.39"/>
<polygon fill="midnightblue" stroke="midnightblue" points="549.78,-494.89 559.99,-492.08 550.25,-487.91 549.78,-494.89"/>
</g>
<!-- Node17&#45;&gt;Node5 -->
<g id="edge26" class="edge">
<title>Node17&#45;&gt;Node5</title>
<path fill="none" stroke="midnightblue" d="M500.28,-106.56C508.31,-109.3 516.44,-112.31 524,-115.5 557.55,-129.64 594.03,-149.42 619.78,-164.18"/>
<polygon fill="midnightblue" stroke="midnightblue" points="618.35,-167.39 628.76,-169.37 621.86,-161.33 618.35,-167.39"/>
</g>
<!-- Node18&#45;&gt;Node5 -->
<g id="edge28" class="edge">
<title>Node18&#45;&gt;Node5</title>
<path fill="none" stroke="midnightblue" d="M336.18,-50.04C391.39,-44.08 464.28,-43.19 524,-66.5 572.89,-85.59 614.82,-132.38 637.04,-160.98"/>
<polygon fill="midnightblue" stroke="midnightblue" points="634.46,-163.36 643.29,-169.21 640.04,-159.13 634.46,-163.36"/>
</g>
</g>
</svg>
        <g id="navigator" transform="translate(0 0)" fill="#404254">
                <rect fill="#f2f5e9" fill-opacity="0.5" stroke="#606060" stroke-width=".5" x="0" y="0" width="60" height="60"/>
                <use id="zoomplus" xlink:href="#zoomPlus" x="17" y="9" onmousedown="handleZoom(evt,'in')"/>
                <use id="zoomminus" xlink:href="#zoomMin" x="42" y="9" onmousedown="handleZoom(evt,'out')"/>
                <use id="reset" xlink:href="#resetDef" x="30" y="36" onmousedown="handleReset()"/>
                <g id="arrowUp" xlink:href="#dirArrow" transform="translate(30 24)" onmousedown="handlePan(0,-1)">
                  <use xlink:href="#rim" fill="#404040">
                        <set attributeName="fill" to="#808080" begin="arrowUp.mouseover" end="arrowUp.mouseout"/>
                  </use>
                  <path fill="none" stroke="white" stroke-width="1.5" d="M0,-3.0v7 M-2.5,-0.5L0,-3.0L2.5,-0.5"/>
                </g>
                <g id="arrowRight" xlink:href="#dirArrow" transform="rotate(90) translate(36 -43)" onmousedown="handlePan(1,0)">
                  <use xlink:href="#rim" fill="#404040">
                        <set attributeName="fill" to="#808080" begin="arrowRight.mouseover" end="arrowRight.mouseout"/>
                  </use>
                  <path fill="none" stroke="white" stroke-width="1.5" d="M0,-3.0v7 M-2.5,-0.5L0,-3.0L2.5,-0.5"/>
                </g>
                <g id="arrowDown" xlink:href="#dirArrow" transform="rotate(180) translate(-30 -48)" onmousedown="handlePan(0,1)">
                  <use xlink:href="#rim" fill="#404040">
                        <set attributeName="fill" to="#808080" begin="arrowDown.mouseover" end="arrowDown.mouseout"/>
                  </use>
                  <path fill="none" stroke="white" stroke-width="1.5" d="M0,-3.0v7 M-2.5,-0.5L0,-3.0L2.5,-0.5"/>
                </g>
                <g id="arrowLeft" xlink:href="#dirArrow" transform="rotate(270) translate(-36 17)" onmousedown="handlePan(-1,0)">
                  <use xlink:href="#rim" fill="#404040">
                        <set attributeName="fill" to="#808080" begin="arrowLeft.mouseover" end="arrowLeft.mouseout"/>
                  </use>
                  <path fill="none" stroke="white" stroke-width="1.5" d="M0,-3.0v7 M-2.5,-0.5L0,-3.0L2.5,-0.5"/>
                </g>
        </g>
        <svg viewBox="0 0 15 15" width="100%" height="30px" preserveAspectRatio="xMaxYMin meet">
         <g id="arrow_out" transform="scale(0.3 0.3)">
          <a xlink:href="classprocessor__t_a90a8c46ba17814623b91803134e8f4dc_cgraph_org.svg" target="_base">
           <rect id="button" ry="5" rx="5" y="6" x="6" height="38" width="38"
                fill="#f2f5e9" fill-opacity="0.5" stroke="#606060" stroke-width="1.0"/>
           <path id="arrow"
             d="M 11.500037,31.436501 C 11.940474,20.09759 22.043105,11.32322 32.158766,21.979434 L 37.068811,17.246167 C 37.068811,17.246167 37.088388,32 37.088388,32 L 22.160133,31.978069 C 22.160133,31.978069 26.997745,27.140456 26.997745,27.140456 C 18.528582,18.264221 13.291696,25.230495 11.500037,31.436501 z"
             style="fill:#404040;"/>
          </a>
         </g>
        </svg>
</svg>
