<?xml version="1.0" encoding="UTF-8" standalone="no"?>
<!DOCTYPE svg PUBLIC "-//W3C//DTD SVG 1.1//EN"
 "http://www.w3.org/Graphics/SVG/1.1/DTD/svg11.dtd">
<!-- Generated by graphviz version 2.43.0 (0)
 -->
<!-- Title: cache_t::allocate Pages: 1 -->
<svg width="430pt" height="154pt"
 viewBox="0.00 0.00 430.00 154.00" xmlns="http://www.w3.org/2000/svg" xmlns:xlink="http://www.w3.org/1999/xlink">
<g id="graph0" class="graph" transform="scale(1 1) rotate(0) translate(4 150)">
<title>cache_t::allocate</title>
<polygon fill="white" stroke="transparent" points="-4,4 -4,-150 426,-150 426,4 -4,4"/>
<!-- Node1 -->
<g id="node1" class="node">
<title>Node1</title>
<g id="a_node1"><a xlink:title=" ">
<polygon fill="#bfbfbf" stroke="black" points="0,-66.5 0,-85.5 99,-85.5 99,-66.5 0,-66.5"/>
<text text-anchor="middle" x="49.5" y="-73.5" font-family="Helvetica,sans-Serif" font-size="10.00">cache_t::allocate</text>
</a>
</g>
</g>
<!-- Node2 -->
<g id="node2" class="node">
<title>Node2</title>
<g id="a_node2"><a xlink:href="classline__t.html#aa935a6ea8da96e58699f841b579d1c3b" target="_top" xlink:title=" ">
<polygon fill="white" stroke="black" points="152,-126.5 152,-145.5 241,-145.5 241,-126.5 152,-126.5"/>
<text text-anchor="middle" x="196.5" y="-133.5" font-family="Helvetica,sans-Serif" font-size="10.00">line_t::allocate</text>
</a>
</g>
</g>
<!-- Node1&#45;&gt;Node2 -->
<g id="edge1" class="edge">
<title>Node1&#45;&gt;Node2</title>
<path fill="none" stroke="midnightblue" d="M68.29,-85.58C85.15,-94.44 111.36,-107.61 135,-117 140.51,-119.19 146.37,-121.29 152.2,-123.26"/>
<polygon fill="midnightblue" stroke="midnightblue" points="151.31,-126.65 161.91,-126.42 153.48,-119.99 151.31,-126.65"/>
</g>
<!-- Node3 -->
<g id="node3" class="node">
<title>Node3</title>
<g id="a_node3"><a xlink:href="classline__t.html#a5b92a71c2f16f2a194f9863284215556" target="_top" xlink:title=" ">
<polygon fill="white" stroke="black" points="147,-88.5 147,-107.5 246,-107.5 246,-88.5 147,-88.5"/>
<text text-anchor="middle" x="196.5" y="-95.5" font-family="Helvetica,sans-Serif" font-size="10.00">line_t::clean_line</text>
</a>
</g>
</g>
<!-- Node1&#45;&gt;Node3 -->
<g id="edge2" class="edge">
<title>Node1&#45;&gt;Node3</title>
<path fill="none" stroke="midnightblue" d="M99.19,-83.39C111.14,-85.2 124.07,-87.16 136.45,-89.04"/>
<polygon fill="midnightblue" stroke="midnightblue" points="136.28,-92.56 146.7,-90.6 137.33,-85.63 136.28,-92.56"/>
</g>
<!-- Node4 -->
<g id="node4" class="node">
<title>Node4</title>
<g id="a_node4"><a xlink:href="classutils__t.html#a9db286f7de201c5b004f35c6bcf3d99f" target="_top" xlink:title=" ">
<polygon fill="white" stroke="black" points="144.5,-39 144.5,-69 248.5,-69 248.5,-39 144.5,-39"/>
<text text-anchor="start" x="152.5" y="-57" font-family="Helvetica,sans-Serif" font-size="10.00">utils_t::get_power</text>
<text text-anchor="middle" x="196.5" y="-46" font-family="Helvetica,sans-Serif" font-size="10.00">_of_two</text>
</a>
</g>
</g>
<!-- Node1&#45;&gt;Node4 -->
<g id="edge3" class="edge">
<title>Node1&#45;&gt;Node4</title>
<path fill="none" stroke="midnightblue" d="M99.19,-68.61C110.39,-66.91 122.44,-65.09 134.1,-63.32"/>
<polygon fill="midnightblue" stroke="midnightblue" points="134.85,-66.74 144.21,-61.78 133.8,-59.82 134.85,-66.74"/>
</g>
<!-- Node6 -->
<g id="node6" class="node">
<title>Node6</title>
<g id="a_node6"><a xlink:href="classconfigure__t.html#a15917e4f43ded0a072c8f1017a9f5035" target="_top" xlink:title=" ">
<polygon fill="white" stroke="black" points="135,-0.5 135,-19.5 258,-19.5 258,-0.5 135,-0.5"/>
<text text-anchor="middle" x="196.5" y="-7.5" font-family="Helvetica,sans-Serif" font-size="10.00">configure_t::getConfig</text>
</a>
</g>
</g>
<!-- Node1&#45;&gt;Node6 -->
<g id="edge5" class="edge">
<title>Node1&#45;&gt;Node6</title>
<path fill="none" stroke="midnightblue" d="M65.96,-66.48C82.59,-56.51 110.02,-40.82 135,-30 140.86,-27.46 147.16,-25.05 153.39,-22.84"/>
<polygon fill="midnightblue" stroke="midnightblue" points="154.74,-26.08 163.07,-19.53 152.48,-19.45 154.74,-26.08"/>
</g>
<!-- Node5 -->
<g id="node5" class="node">
<title>Node5</title>
<g id="a_node5"><a xlink:href="classutils__t.html#a8dc759ed0961089212af1407f56dde35" target="_top" xlink:title=" ">
<polygon fill="white" stroke="black" points="294,-39 294,-69 422,-69 422,-39 294,-39"/>
<text text-anchor="start" x="302" y="-57" font-family="Helvetica,sans-Serif" font-size="10.00">utils_t::check_if_power</text>
<text text-anchor="middle" x="358" y="-46" font-family="Helvetica,sans-Serif" font-size="10.00">_of_two</text>
</a>
</g>
</g>
<!-- Node4&#45;&gt;Node5 -->
<g id="edge4" class="edge">
<title>Node4&#45;&gt;Node5</title>
<path fill="none" stroke="midnightblue" d="M248.84,-54C259.9,-54 271.8,-54 283.51,-54"/>
<polygon fill="midnightblue" stroke="midnightblue" points="283.74,-57.5 293.74,-54 283.74,-50.5 283.74,-57.5"/>
</g>
</g>
</svg>
