<?xml version="1.0" encoding="UTF-8" standalone="no"?>
<!DOCTYPE svg PUBLIC "-//W3C//DTD SVG 1.1//EN"
 "http://www.w3.org/Graphics/SVG/1.1/DTD/svg11.dtd">
<!-- Generated by graphviz version 2.43.0 (0)
 -->
<!-- Title: cache_manager_t::print_requests Pages: 1 -->
<svg width="365pt" height="116pt"
 viewBox="0.00 0.00 365.00 115.50" xmlns="http://www.w3.org/2000/svg" xmlns:xlink="http://www.w3.org/1999/xlink">
<g id="graph0" class="graph" transform="scale(1 1) rotate(0) translate(4 111.5)">
<title>cache_manager_t::print_requests</title>
<polygon fill="white" stroke="transparent" points="-4,4 -4,-111.5 361,-111.5 361,4 -4,4"/>
<!-- Node1 -->
<g id="node1" class="node">
<title>Node1</title>
<g id="a_node1"><a xlink:title=" ">
<polygon fill="#bfbfbf" stroke="black" points="0,-44.5 0,-74.5 131,-74.5 131,-44.5 0,-44.5"/>
<text text-anchor="start" x="8" y="-62.5" font-family="Helvetica,sans-Serif" font-size="10.00">cache_manager_t::print</text>
<text text-anchor="middle" x="65.5" y="-51.5" font-family="Helvetica,sans-Serif" font-size="10.00">_requests</text>
</a>
</g>
</g>
<!-- Node2 -->
<g id="node2" class="node">
<title>Node2</title>
<g id="a_node2"><a xlink:href="enumerations_8cpp.html#abb39d040475b58d11b29c242b33091e1" target="_top" xlink:title="Enumerates the MEMORY OPERATION OF MOB,debug only.">
<polygon fill="white" stroke="black" points="167,-88 167,-107 357,-107 357,-88 167,-88"/>
<text text-anchor="middle" x="262" y="-95" font-family="Helvetica,sans-Serif" font-size="10.00">get_enum_memory_operation_char</text>
</a>
</g>
</g>
<!-- Node1&#45;&gt;Node2 -->
<g id="edge1" class="edge">
<title>Node1&#45;&gt;Node2</title>
<path fill="none" stroke="midnightblue" d="M131.27,-72.15C154.17,-76.63 179.79,-81.63 202.17,-86.01"/>
<polygon fill="midnightblue" stroke="midnightblue" points="201.72,-89.48 212.21,-87.97 203.06,-82.61 201.72,-89.48"/>
</g>
<!-- Node3 -->
<g id="node3" class="node">
<title>Node3</title>
<g id="a_node3"><a xlink:href="enumerations_8cpp.html#a4f1219a7c31d137c368e36cea5be9128" target="_top" xlink:title="Enumerates the package state,.">
<polygon fill="white" stroke="black" points="178.5,-50 178.5,-69 345.5,-69 345.5,-50 178.5,-50"/>
<text text-anchor="middle" x="262" y="-57" font-family="Helvetica,sans-Serif" font-size="10.00">get_enum_package_state_char</text>
</a>
</g>
</g>
<!-- Node1&#45;&gt;Node3 -->
<g id="edge2" class="edge">
<title>Node1&#45;&gt;Node3</title>
<path fill="none" stroke="midnightblue" d="M131.27,-59.5C143.01,-59.5 155.46,-59.5 167.83,-59.5"/>
<polygon fill="midnightblue" stroke="midnightblue" points="168.18,-63 178.18,-59.5 168.18,-56 168.18,-63"/>
</g>
<!-- Node4 -->
<g id="node4" class="node">
<title>Node4</title>
<g id="a_node4"><a xlink:href="classorcs__engine__t.html#a1c033e3455736ba89052a40c69ebe0af" target="_top" xlink:title=" ">
<polygon fill="white" stroke="black" points="209,-0.5 209,-30.5 315,-30.5 315,-0.5 209,-0.5"/>
<text text-anchor="start" x="217" y="-18.5" font-family="Helvetica,sans-Serif" font-size="10.00">orcs_engine_t::get</text>
<text text-anchor="middle" x="262" y="-7.5" font-family="Helvetica,sans-Serif" font-size="10.00">_global_cycle</text>
</a>
</g>
</g>
<!-- Node1&#45;&gt;Node4 -->
<g id="edge3" class="edge">
<title>Node1&#45;&gt;Node4</title>
<path fill="none" stroke="midnightblue" d="M131.27,-44.85C153.02,-39.93 177.22,-34.45 198.77,-29.58"/>
<polygon fill="midnightblue" stroke="midnightblue" points="199.81,-32.93 208.79,-27.31 198.26,-26.1 199.81,-32.93"/>
</g>
</g>
</svg>
