<?xml version="1.0" encoding="UTF-8" standalone="no"?>
<!DOCTYPE svg PUBLIC "-//W3C//DTD SVG 1.1//EN"
 "http://www.w3.org/Graphics/SVG/1.1/DTD/svg11.dtd">
<!-- Generated by graphviz version 2.43.0 (0)
 -->
<!-- Title: cache_manager_t::cache_search Pages: 1 -->
<svg width="1118pt" height="539pt"
 viewBox="0.00 0.00 1118.00 539.22" xmlns="http://www.w3.org/2000/svg" xmlns:xlink="http://www.w3.org/1999/xlink">
<g id="graph0" class="graph" transform="scale(1 1) rotate(0) translate(4 535.22)">
<title>cache_manager_t::cache_search</title>
<polygon fill="white" stroke="transparent" points="-4,4 -4,-535.22 1114,-535.22 1114,4 -4,4"/>
<!-- Node1 -->
<g id="node1" class="node">
<title>Node1</title>
<g id="a_node1"><a xlink:title=" ">
<polygon fill="#bfbfbf" stroke="black" points="0,-353.22 0,-383.22 137,-383.22 137,-353.22 0,-353.22"/>
<text text-anchor="start" x="8" y="-371.22" font-family="Helvetica,sans-Serif" font-size="10.00">cache_manager_t::cache</text>
<text text-anchor="middle" x="68.5" y="-360.22" font-family="Helvetica,sans-Serif" font-size="10.00">_search</text>
</a>
</g>
</g>
<!-- Node2 -->
<g id="node2" class="node">
<title>Node2</title>
<g id="a_node2"><a xlink:href="enumerations_8cpp.html#ab2f1f56df233c1decaf1c4736bbdba39" target="_top" xlink:title=" ">
<polygon fill="white" stroke="black" points="187,-511.72 187,-530.72 339,-530.72 339,-511.72 187,-511.72"/>
<text text-anchor="middle" x="263" y="-518.72" font-family="Helvetica,sans-Serif" font-size="10.00">get_enum_cache_type_char</text>
</a>
</g>
</g>
<!-- Node1&#45;&gt;Node2 -->
<g id="edge1" class="edge">
<title>Node1&#45;&gt;Node2</title>
<path fill="none" stroke="midnightblue" d="M77.49,-383.57C92.44,-410.77 127.34,-467.37 173,-497.22 179.86,-501.7 187.53,-505.35 195.42,-508.32"/>
<polygon fill="midnightblue" stroke="midnightblue" points="194.51,-511.71 205.11,-511.62 196.77,-505.08 194.51,-511.71"/>
</g>
<!-- Node3 -->
<g id="node3" class="node">
<title>Node3</title>
<g id="a_node3"><a xlink:href="enumerations_8cpp.html#abb39d040475b58d11b29c242b33091e1" target="_top" xlink:title="Enumerates the MEMORY OPERATION OF MOB,debug only.">
<polygon fill="white" stroke="black" points="920,-426.72 920,-445.72 1110,-445.72 1110,-426.72 920,-426.72"/>
<text text-anchor="middle" x="1015" y="-433.72" font-family="Helvetica,sans-Serif" font-size="10.00">get_enum_memory_operation_char</text>
</a>
</g>
</g>
<!-- Node1&#45;&gt;Node3 -->
<g id="edge2" class="edge">
<title>Node1&#45;&gt;Node3</title>
<path fill="none" stroke="midnightblue" d="M97.64,-383.25C158.7,-414.43 308.66,-483.22 443,-483.22 443,-483.22 443,-483.22 616.5,-483.22 735.72,-483.22 765.94,-479.82 884,-463.22 910.86,-459.44 940.5,-453.43 964.69,-448.04"/>
<polygon fill="midnightblue" stroke="midnightblue" points="965.71,-451.4 974.69,-445.78 964.17,-444.57 965.71,-451.4"/>
</g>
<!-- Node4 -->
<g id="node4" class="node">
<title>Node4</title>
<g id="a_node4"><a xlink:href="classorcs__engine__t.html#a1c033e3455736ba89052a40c69ebe0af" target="_top" xlink:title=" ">
<polygon fill="white" stroke="black" points="962,-211.22 962,-241.22 1068,-241.22 1068,-211.22 962,-211.22"/>
<text text-anchor="start" x="970" y="-229.22" font-family="Helvetica,sans-Serif" font-size="10.00">orcs_engine_t::get</text>
<text text-anchor="middle" x="1015" y="-218.22" font-family="Helvetica,sans-Serif" font-size="10.00">_global_cycle</text>
</a>
</g>
</g>
<!-- Node1&#45;&gt;Node4 -->
<g id="edge3" class="edge">
<title>Node1&#45;&gt;Node4</title>
<path fill="none" stroke="midnightblue" d="M137.24,-361.83C212.02,-355.33 335.98,-346.22 443,-346.22 443,-346.22 443,-346.22 616.5,-346.22 737.53,-346.22 769.82,-335.37 884,-295.22 919.15,-282.86 956.43,-262.2 982.01,-246.7"/>
<polygon fill="midnightblue" stroke="midnightblue" points="983.86,-249.67 990.55,-241.45 980.2,-243.7 983.86,-249.67"/>
</g>
<!-- Node5 -->
<g id="node5" class="node">
<title>Node5</title>
<g id="a_node5"><a xlink:href="classcache__t.html#aab55f380c45fb623cdc5160902cbdefa" target="_top" xlink:title=" ">
<polygon fill="white" stroke="black" points="208,-284.72 208,-303.72 318,-303.72 318,-284.72 208,-284.72"/>
<text text-anchor="middle" x="263" y="-291.72" font-family="Helvetica,sans-Serif" font-size="10.00">cache_t::returnLine</text>
</a>
</g>
</g>
<!-- Node1&#45;&gt;Node5 -->
<g id="edge4" class="edge">
<title>Node1&#45;&gt;Node5</title>
<path fill="none" stroke="midnightblue" d="M108.92,-353.07C143.81,-339.65 194.22,-320.28 227.53,-307.47"/>
<polygon fill="midnightblue" stroke="midnightblue" points="229.21,-310.58 237.28,-303.72 226.69,-304.04 229.21,-310.58"/>
</g>
<!-- Node14 -->
<g id="node14" class="node">
<title>Node14</title>
<g id="a_node14"><a xlink:href="classcache__manager__t.html#a926b91caae4bcb5f785cb756f4da1a52" target="_top" xlink:title=" ">
<polygon fill="white" stroke="black" points="173,-151.72 173,-170.72 353,-170.72 353,-151.72 173,-151.72"/>
<text text-anchor="middle" x="263" y="-158.72" font-family="Helvetica,sans-Serif" font-size="10.00">cache_manager_t::searchAddress</text>
</a>
</g>
</g>
<!-- Node1&#45;&gt;Node14 -->
<g id="edge22" class="edge">
<title>Node1&#45;&gt;Node14</title>
<path fill="none" stroke="midnightblue" d="M78,-352.96C94.05,-325.03 130.99,-264.75 173,-223.22 191.99,-204.45 217.25,-187.45 236,-176.02"/>
<polygon fill="midnightblue" stroke="midnightblue" points="237.84,-179 244.63,-170.87 234.25,-172.99 237.84,-179"/>
</g>
<!-- Node16 -->
<g id="node16" class="node">
<title>Node16</title>
<g id="a_node16"><a xlink:href="classmemory__package__t.html#aca3c3a3d460dea3665ef057672deb04b" target="_top" xlink:title=" ">
<polygon fill="white" stroke="black" points="732,-424.22 732,-454.22 884,-454.22 884,-424.22 732,-424.22"/>
<text text-anchor="start" x="740" y="-442.22" font-family="Helvetica,sans-Serif" font-size="10.00">memory_package_t::update</text>
<text text-anchor="middle" x="808" y="-431.22" font-family="Helvetica,sans-Serif" font-size="10.00">PackageUntreated</text>
</a>
</g>
</g>
<!-- Node1&#45;&gt;Node16 -->
<g id="edge26" class="edge">
<title>Node1&#45;&gt;Node16</title>
<path fill="none" stroke="midnightblue" d="M137.24,-382.42C149.12,-384.6 161.39,-386.64 173,-388.22 368.28,-414.86 599.44,-429.14 721.53,-435.35"/>
<polygon fill="midnightblue" stroke="midnightblue" points="721.4,-438.85 731.56,-435.86 721.75,-431.86 721.4,-438.85"/>
</g>
<!-- Node18 -->
<g id="node18" class="node">
<title>Node18</title>
<g id="a_node18"><a xlink:href="classmemory__package__t.html#a961024a3c9d618cc27d9a0237b185274" target="_top" xlink:title=" ">
<polygon fill="white" stroke="black" points="732,-375.22 732,-405.22 884,-405.22 884,-375.22 732,-375.22"/>
<text text-anchor="start" x="740" y="-393.22" font-family="Helvetica,sans-Serif" font-size="10.00">memory_package_t::update</text>
<text text-anchor="middle" x="808" y="-382.22" font-family="Helvetica,sans-Serif" font-size="10.00">PackageWait</text>
</a>
</g>
</g>
<!-- Node1&#45;&gt;Node18 -->
<g id="edge30" class="edge">
<title>Node1&#45;&gt;Node18</title>
<path fill="none" stroke="midnightblue" d="M137.23,-370.24C271.98,-374.26 573.42,-383.25 721.53,-387.67"/>
<polygon fill="midnightblue" stroke="midnightblue" points="721.83,-391.18 731.93,-387.98 722.04,-384.18 721.83,-391.18"/>
</g>
<!-- Node19 -->
<g id="node19" class="node">
<title>Node19</title>
<g id="a_node19"><a xlink:href="classcache__t.html#a6b29703ff92a473a4ceb7dcd00d1206d" target="_top" xlink:title=" ">
<polygon fill="white" stroke="black" points="401.5,-175.72 401.5,-194.72 486.5,-194.72 486.5,-175.72 401.5,-175.72"/>
<text text-anchor="middle" x="444" y="-182.72" font-family="Helvetica,sans-Serif" font-size="10.00">cache_t::write</text>
</a>
</g>
</g>
<!-- Node1&#45;&gt;Node19 -->
<g id="edge34" class="edge">
<title>Node1&#45;&gt;Node19</title>
<path fill="none" stroke="midnightblue" d="M82.78,-352.98C101.19,-332.68 136.38,-296.83 173,-275.22 243.25,-233.77 335.18,-208.35 391.61,-195.53"/>
<polygon fill="midnightblue" stroke="midnightblue" points="392.38,-198.94 401.38,-193.35 390.86,-192.11 392.38,-198.94"/>
</g>
<!-- Node5&#45;&gt;Node4 -->
<g id="edge5" class="edge">
<title>Node5&#45;&gt;Node4</title>
<path fill="none" stroke="midnightblue" d="M318.06,-297.3C426.47,-302.33 677.7,-308.3 884,-270.22 913.06,-264.86 944.48,-254.36 969.15,-244.97"/>
<polygon fill="midnightblue" stroke="midnightblue" points="970.54,-248.18 978.6,-241.3 968.01,-241.66 970.54,-248.18"/>
</g>
<!-- Node6 -->
<g id="node6" class="node">
<title>Node6</title>
<g id="a_node6"><a xlink:href="classcache__t.html#a064ff4698c44668e702fda0a95278185" target="_top" xlink:title=" ">
<polygon fill="white" stroke="black" points="389,-251.72 389,-270.72 499,-270.72 499,-251.72 389,-251.72"/>
<text text-anchor="middle" x="444" y="-258.72" font-family="Helvetica,sans-Serif" font-size="10.00">cache_t::installLine</text>
</a>
</g>
</g>
<!-- Node5&#45;&gt;Node6 -->
<g id="edge6" class="edge">
<title>Node5&#45;&gt;Node6</title>
<path fill="none" stroke="midnightblue" d="M315.77,-284.68C336.28,-280.9 360.01,-276.52 381.39,-272.58"/>
<polygon fill="midnightblue" stroke="midnightblue" points="382.14,-276 391.34,-270.74 380.87,-269.11 382.14,-276"/>
</g>
<!-- Node8 -->
<g id="node8" class="node">
<title>Node8</title>
<g id="a_node8"><a xlink:href="classcache__t.html#a8fa855f06d00efbcdbe0f4c64add2242" target="_top" xlink:title=" ">
<polygon fill="white" stroke="black" points="535,-137.72 535,-156.72 696,-156.72 696,-137.72 535,-137.72"/>
<text text-anchor="middle" x="615.5" y="-144.72" font-family="Helvetica,sans-Serif" font-size="10.00">cache_t::tagIdxSetCalculation</text>
</a>
</g>
</g>
<!-- Node5&#45;&gt;Node8 -->
<g id="edge21" class="edge">
<title>Node5&#45;&gt;Node8</title>
<path fill="none" stroke="midnightblue" d="M285.96,-284.6C310.8,-273.84 352.53,-256.09 389,-242.22 437.35,-223.83 455.52,-232.24 499,-204.22 518.55,-191.62 514.85,-177.85 535,-166.22 538.91,-163.96 543.07,-161.98 547.37,-160.22"/>
<polygon fill="midnightblue" stroke="midnightblue" points="548.73,-163.45 556.93,-156.75 546.34,-156.87 548.73,-163.45"/>
</g>
<!-- Node6&#45;&gt;Node4 -->
<g id="edge7" class="edge">
<title>Node6&#45;&gt;Node4</title>
<path fill="none" stroke="midnightblue" d="M499.24,-262.6C582.33,-264.09 745.99,-264.6 884,-250.22 906.27,-247.9 930.44,-243.86 951.84,-239.76"/>
<polygon fill="midnightblue" stroke="midnightblue" points="952.63,-243.17 961.77,-237.8 951.29,-236.3 952.63,-243.17"/>
</g>
<!-- Node7 -->
<g id="node7" class="node">
<title>Node7</title>
<g id="a_node7"><a xlink:href="classcache__t.html#a08af353e5ef8b2c78f4d7a3cc57bf8fc" target="_top" xlink:title=" ">
<polygon fill="white" stroke="black" points="562,-219.72 562,-238.72 669,-238.72 669,-219.72 562,-219.72"/>
<text text-anchor="middle" x="615.5" y="-226.72" font-family="Helvetica,sans-Serif" font-size="10.00">cache_t::searchLru</text>
</a>
</g>
</g>
<!-- Node6&#45;&gt;Node7 -->
<g id="edge8" class="edge">
<title>Node6&#45;&gt;Node7</title>
<path fill="none" stroke="midnightblue" d="M495.4,-251.71C513.84,-248.22 534.91,-244.25 554.14,-240.62"/>
<polygon fill="midnightblue" stroke="midnightblue" points="554.83,-244.05 564,-238.75 553.53,-237.17 554.83,-244.05"/>
</g>
<!-- Node6&#45;&gt;Node8 -->
<g id="edge9" class="edge">
<title>Node6&#45;&gt;Node8</title>
<path fill="none" stroke="midnightblue" d="M476.07,-251.69C484.22,-248.11 492.53,-243.37 499,-237.22 524.65,-212.85 507.23,-188.14 535,-166.22 537.3,-164.41 539.74,-162.76 542.29,-161.27"/>
<polygon fill="midnightblue" stroke="midnightblue" points="543.93,-164.36 551.32,-156.77 540.81,-158.1 543.93,-164.36"/>
</g>
<!-- Node9 -->
<g id="node9" class="node">
<title>Node9</title>
<g id="a_node9"><a xlink:href="classcache__t.html#ac2fe482915a79b89e82582255421f7c0" target="_top" xlink:title=" ">
<polygon fill="white" stroke="black" points="561,-175.72 561,-194.72 670,-194.72 670,-175.72 561,-175.72"/>
<text text-anchor="middle" x="615.5" y="-182.72" font-family="Helvetica,sans-Serif" font-size="10.00">cache_t::writeBack</text>
</a>
</g>
</g>
<!-- Node6&#45;&gt;Node9 -->
<g id="edge10" class="edge">
<title>Node6&#45;&gt;Node9</title>
<path fill="none" stroke="midnightblue" d="M469.5,-251.71C478.96,-247.69 489.71,-242.67 499,-237.22 516.25,-227.09 517.21,-219.35 535,-210.22 544.46,-205.36 555.05,-201.24 565.33,-197.82"/>
<polygon fill="midnightblue" stroke="midnightblue" points="566.56,-201.1 575.04,-194.76 564.45,-194.42 566.56,-201.1"/>
</g>
<!-- Node9&#45;&gt;Node4 -->
<g id="edge17" class="edge">
<title>Node9&#45;&gt;Node4</title>
<path fill="none" stroke="midnightblue" d="M656.32,-175.72C678.46,-170.92 706.6,-165.62 732,-163.22 799.26,-156.87 818.16,-148.11 884,-163.22 919.49,-171.37 956.53,-190.53 981.95,-205.6"/>
<polygon fill="midnightblue" stroke="midnightblue" points="980.4,-208.75 990.77,-210.94 984.03,-202.77 980.4,-208.75"/>
</g>
<!-- Node10 -->
<g id="node10" class="node">
<title>Node10</title>
<g id="a_node10"><a xlink:href="classline__t.html#a5b92a71c2f16f2a194f9863284215556" target="_top" xlink:title=" ">
<polygon fill="white" stroke="black" points="965.5,-77.72 965.5,-96.72 1064.5,-96.72 1064.5,-77.72 965.5,-77.72"/>
<text text-anchor="middle" x="1015" y="-84.72" font-family="Helvetica,sans-Serif" font-size="10.00">line_t::clean_line</text>
</a>
</g>
</g>
<!-- Node9&#45;&gt;Node10 -->
<g id="edge11" class="edge">
<title>Node9&#45;&gt;Node10</title>
<path fill="none" stroke="midnightblue" d="M670.1,-179.45C679.45,-176.57 688.55,-172.35 696,-166.22 725.79,-141.69 699.55,-108.09 732,-87.22 806.58,-39.25 916.79,-59.16 974.88,-74.91"/>
<polygon fill="midnightblue" stroke="midnightblue" points="974.19,-78.35 984.76,-77.69 976.08,-71.61 974.19,-78.35"/>
</g>
<!-- Node11 -->
<g id="node11" class="node">
<title>Node11</title>
<g id="a_node11"><a xlink:href="classcache__t.html#a926d33bfce8203d4291ee5e11fe58678" target="_top" xlink:title=" ">
<polygon fill="white" stroke="black" points="750.5,-96.72 750.5,-115.72 865.5,-115.72 865.5,-96.72 750.5,-96.72"/>
<text text-anchor="middle" x="808" y="-103.72" font-family="Helvetica,sans-Serif" font-size="10.00">cache_t::copyLevels</text>
</a>
</g>
</g>
<!-- Node9&#45;&gt;Node11 -->
<g id="edge12" class="edge">
<title>Node9&#45;&gt;Node11</title>
<path fill="none" stroke="midnightblue" d="M670.2,-176.67C679.14,-174.06 688.07,-170.65 696,-166.22 715.75,-155.17 712.68,-142 732,-130.22 739.22,-125.82 747.32,-122.15 755.46,-119.1"/>
<polygon fill="midnightblue" stroke="midnightblue" points="756.67,-122.39 764.99,-115.82 754.39,-115.77 756.67,-122.39"/>
</g>
<!-- Node12 -->
<g id="node12" class="node">
<title>Node12</title>
<g id="a_node12"><a xlink:href="classcache__t.html#abaf4210052b55d606e99604f6c2056b0" target="_top" xlink:title=" ">
<polygon fill="white" stroke="black" points="739,-172.72 739,-191.72 877,-191.72 877,-172.72 739,-172.72"/>
<text text-anchor="middle" x="808" y="-179.72" font-family="Helvetica,sans-Serif" font-size="10.00">cache_t::copyNextLevels</text>
</a>
</g>
</g>
<!-- Node9&#45;&gt;Node12 -->
<g id="edge15" class="edge">
<title>Node9&#45;&gt;Node12</title>
<path fill="none" stroke="midnightblue" d="M670.07,-184.38C688.25,-184.09 708.96,-183.76 728.66,-183.45"/>
<polygon fill="midnightblue" stroke="midnightblue" points="728.91,-186.95 738.86,-183.29 728.8,-179.95 728.91,-186.95"/>
</g>
<!-- Node13 -->
<g id="node13" class="node">
<title>Node13</title>
<g id="a_node13"><a xlink:href="classmemory__controller__t.html#ad78d3fe5a6cf2ee6e22f9e563dd6e20e" target="_top" xlink:title=" ">
<polygon fill="white" stroke="black" points="748.5,-211.22 748.5,-241.22 867.5,-241.22 867.5,-211.22 748.5,-211.22"/>
<text text-anchor="start" x="756.5" y="-229.22" font-family="Helvetica,sans-Serif" font-size="10.00">memory_controller_t</text>
<text text-anchor="middle" x="808" y="-218.22" font-family="Helvetica,sans-Serif" font-size="10.00">::requestDRAM</text>
</a>
</g>
</g>
<!-- Node9&#45;&gt;Node13 -->
<g id="edge18" class="edge">
<title>Node9&#45;&gt;Node13</title>
<path fill="none" stroke="midnightblue" d="M660.68,-194.73C683.68,-199.68 712.32,-205.84 738.14,-211.4"/>
<polygon fill="midnightblue" stroke="midnightblue" points="737.74,-214.89 748.26,-213.58 739.22,-208.05 737.74,-214.89"/>
</g>
<!-- Node11&#45;&gt;Node4 -->
<g id="edge14" class="edge">
<title>Node11&#45;&gt;Node4</title>
<path fill="none" stroke="midnightblue" d="M846.96,-115.74C859.13,-119.47 872.44,-124.3 884,-130.22 923.72,-150.54 964.26,-182.66 989.27,-204.08"/>
<polygon fill="midnightblue" stroke="midnightblue" points="987.28,-206.99 997.13,-210.9 991.87,-201.7 987.28,-206.99"/>
</g>
<!-- Node11&#45;&gt;Node10 -->
<g id="edge13" class="edge">
<title>Node11&#45;&gt;Node10</title>
<path fill="none" stroke="midnightblue" d="M865.56,-100.98C893.43,-98.4 927,-95.28 955.17,-92.67"/>
<polygon fill="midnightblue" stroke="midnightblue" points="955.65,-96.14 965.28,-91.74 955,-89.17 955.65,-96.14"/>
</g>
<!-- Node12&#45;&gt;Node4 -->
<g id="edge16" class="edge">
<title>Node12&#45;&gt;Node4</title>
<path fill="none" stroke="midnightblue" d="M853.48,-191.77C882.28,-197.95 920.18,-206.08 951.93,-212.9"/>
<polygon fill="midnightblue" stroke="midnightblue" points="951.49,-216.38 962,-215.06 952.96,-209.54 951.49,-216.38"/>
</g>
<!-- Node13&#45;&gt;Node3 -->
<g id="edge19" class="edge">
<title>Node13&#45;&gt;Node3</title>
<path fill="none" stroke="midnightblue" d="M817.09,-241.23C839.93,-283.37 904.22,-400.44 920,-412.22 925.85,-416.58 932.4,-420.16 939.27,-423.09"/>
<polygon fill="midnightblue" stroke="midnightblue" points="938.18,-426.42 948.77,-426.69 940.66,-419.87 938.18,-426.42"/>
</g>
<!-- Node13&#45;&gt;Node4 -->
<g id="edge20" class="edge">
<title>Node13&#45;&gt;Node4</title>
<path fill="none" stroke="midnightblue" d="M867.74,-226.22C894.08,-226.22 925.15,-226.22 951.87,-226.22"/>
<polygon fill="midnightblue" stroke="midnightblue" points="951.88,-229.72 961.88,-226.22 951.88,-222.72 951.88,-229.72"/>
</g>
<!-- Node15 -->
<g id="node15" class="node">
<title>Node15</title>
<g id="a_node15"><a xlink:href="classcache__t.html#ab35480bbdb86dc151edb0a3fa64d9e2d" target="_top" xlink:title=" ">
<polygon fill="white" stroke="black" points="403,-137.72 403,-156.72 485,-156.72 485,-137.72 403,-137.72"/>
<text text-anchor="middle" x="444" y="-144.72" font-family="Helvetica,sans-Serif" font-size="10.00">cache_t::read</text>
</a>
</g>
</g>
<!-- Node14&#45;&gt;Node15 -->
<g id="edge23" class="edge">
<title>Node14&#45;&gt;Node15</title>
<path fill="none" stroke="midnightblue" d="M353.24,-154.24C366.78,-153.18 380.34,-152.12 392.66,-151.16"/>
<polygon fill="midnightblue" stroke="midnightblue" points="393,-154.64 402.69,-150.37 392.45,-147.66 393,-154.64"/>
</g>
<!-- Node15&#45;&gt;Node4 -->
<g id="edge24" class="edge">
<title>Node15&#45;&gt;Node4</title>
<path fill="none" stroke="midnightblue" d="M450.71,-137.63C463.12,-117.85 494.69,-72.9 535,-55.22 677.06,7.1 748.14,25.66 884,-49.22 910.24,-63.68 902.74,-81.73 920,-106.22 944.55,-141.05 975.4,-179.54 994.92,-203.3"/>
<polygon fill="midnightblue" stroke="midnightblue" points="992.26,-205.58 1001.32,-211.07 997.66,-201.12 992.26,-205.58"/>
</g>
<!-- Node15&#45;&gt;Node8 -->
<g id="edge25" class="edge">
<title>Node15&#45;&gt;Node8</title>
<path fill="none" stroke="midnightblue" d="M485.17,-147.22C497.14,-147.22 510.78,-147.22 524.59,-147.22"/>
<polygon fill="midnightblue" stroke="midnightblue" points="524.67,-150.72 534.67,-147.22 524.67,-143.72 524.67,-150.72"/>
</g>
<!-- Node16&#45;&gt;Node3 -->
<g id="edge27" class="edge">
<title>Node16&#45;&gt;Node3</title>
<path fill="none" stroke="midnightblue" d="M884.17,-438.12C892.55,-438 901.19,-437.87 909.84,-437.74"/>
<polygon fill="midnightblue" stroke="midnightblue" points="910.05,-441.24 920,-437.6 909.95,-434.24 910.05,-441.24"/>
</g>
<!-- Node16&#45;&gt;Node4 -->
<g id="edge29" class="edge">
<title>Node16&#45;&gt;Node4</title>
<path fill="none" stroke="midnightblue" d="M867.03,-424.18C873.05,-421.39 878.84,-418.09 884,-414.22 914.74,-391.15 973.4,-295.34 1000.12,-250.09"/>
<polygon fill="midnightblue" stroke="midnightblue" points="1003.27,-251.64 1005.32,-241.25 997.23,-248.1 1003.27,-251.64"/>
</g>
<!-- Node17 -->
<g id="node17" class="node">
<title>Node17</title>
<g id="a_node17"><a xlink:href="enumerations_8cpp.html#a4f1219a7c31d137c368e36cea5be9128" target="_top" xlink:title="Enumerates the package state,.">
<polygon fill="white" stroke="black" points="931.5,-383.72 931.5,-402.72 1098.5,-402.72 1098.5,-383.72 931.5,-383.72"/>
<text text-anchor="middle" x="1015" y="-390.72" font-family="Helvetica,sans-Serif" font-size="10.00">get_enum_package_state_char</text>
</a>
</g>
</g>
<!-- Node16&#45;&gt;Node17 -->
<g id="edge28" class="edge">
<title>Node16&#45;&gt;Node17</title>
<path fill="none" stroke="midnightblue" d="M876.12,-424.16C903.85,-417.94 935.52,-410.83 961.51,-405"/>
<polygon fill="midnightblue" stroke="midnightblue" points="962.54,-408.35 971.54,-402.75 961.01,-401.52 962.54,-408.35"/>
</g>
<!-- Node18&#45;&gt;Node3 -->
<g id="edge31" class="edge">
<title>Node18&#45;&gt;Node3</title>
<path fill="none" stroke="midnightblue" d="M876.12,-405.28C903.85,-411.5 935.52,-418.61 961.51,-424.44"/>
<polygon fill="midnightblue" stroke="midnightblue" points="961.01,-427.92 971.54,-426.69 962.54,-421.09 961.01,-427.92"/>
</g>
<!-- Node18&#45;&gt;Node4 -->
<g id="edge33" class="edge">
<title>Node18&#45;&gt;Node4</title>
<path fill="none" stroke="midnightblue" d="M855.36,-375.22C865.21,-371.08 875.26,-366.08 884,-360.22 930.56,-329.01 973.54,-278.82 996.53,-249.53"/>
<polygon fill="midnightblue" stroke="midnightblue" points="999.38,-251.56 1002.73,-241.51 993.85,-247.28 999.38,-251.56"/>
</g>
<!-- Node18&#45;&gt;Node17 -->
<g id="edge32" class="edge">
<title>Node18&#45;&gt;Node17</title>
<path fill="none" stroke="midnightblue" d="M884.17,-391.32C896.13,-391.5 908.63,-391.68 920.95,-391.86"/>
<polygon fill="midnightblue" stroke="midnightblue" points="921.18,-395.36 931.23,-392.01 921.28,-388.36 921.18,-395.36"/>
</g>
<!-- Node19&#45;&gt;Node4 -->
<g id="edge35" class="edge">
<title>Node19&#45;&gt;Node4</title>
<path fill="none" stroke="midnightblue" d="M479.85,-175.7C486.48,-173.14 493.16,-170.01 499,-166.22 518.52,-153.56 514.68,-139.55 535,-128.22 671.39,-52.14 740.73,-25.05 884,-87.22 938.3,-110.78 980.27,-169.44 1000.57,-202.54"/>
<polygon fill="midnightblue" stroke="midnightblue" points="997.58,-204.35 1005.71,-211.14 1003.59,-200.76 997.58,-204.35"/>
</g>
<!-- Node19&#45;&gt;Node7 -->
<g id="edge36" class="edge">
<title>Node19&#45;&gt;Node7</title>
<path fill="none" stroke="midnightblue" d="M481.78,-194.77C507.1,-201.34 540.94,-210.13 568.11,-217.18"/>
<polygon fill="midnightblue" stroke="midnightblue" points="567.23,-220.57 577.79,-219.69 568.99,-213.79 567.23,-220.57"/>
</g>
<!-- Node19&#45;&gt;Node8 -->
<g id="edge37" class="edge">
<title>Node19&#45;&gt;Node8</title>
<path fill="none" stroke="midnightblue" d="M486.9,-175.83C509.54,-170.75 537.73,-164.43 561.85,-159.02"/>
<polygon fill="midnightblue" stroke="midnightblue" points="562.91,-162.37 571.91,-156.77 561.38,-155.54 562.91,-162.37"/>
</g>
<!-- Node19&#45;&gt;Node9 -->
<g id="edge38" class="edge">
<title>Node19&#45;&gt;Node9</title>
<path fill="none" stroke="midnightblue" d="M486.9,-185.22C506.11,-185.22 529.3,-185.22 550.62,-185.22"/>
<polygon fill="midnightblue" stroke="midnightblue" points="550.91,-188.72 560.91,-185.22 550.91,-181.72 550.91,-188.72"/>
</g>
</g>
</svg>
