<?xml version="1.0" encoding="UTF-8" standalone="no"?>
<!DOCTYPE svg PUBLIC "-//W3C//DTD SVG 1.1//EN"
 "http://www.w3.org/Graphics/SVG/1.1/DTD/svg11.dtd">
<!-- Generated by graphviz version 2.43.0 (0)
 -->
<!-- Title: cache_manager_t::process Pages: 1 -->
<!--zoomable 751 -->
<svg id="main" version="1.1" xmlns="http://www.w3.org/2000/svg" xmlns:xlink="http://www.w3.org/1999/xlink" xml:space="preserve" onload="init(evt)">
<style type="text/css"><![CDATA[
.edge:hover path { stroke: red; }
.edge:hover polygon { stroke: red; fill: red; }
]]></style>
<script type="text/javascript"><![CDATA[
var edges = document.getElementsByTagName('g');
if (edges && edges.length) {
  for (var i=0;i<edges.length;i++) {
    if (edges[i].id.substr(0,4)=='edge') {
      edges[i].setAttribute('class','edge');
    }
  }
}
]]></script>
        <defs>
                <circle id="rim" cx="0" cy="0" r="7"/>
                <circle id="rim2" cx="0" cy="0" r="3.5"/>
                <g id="zoomPlus">
                        <use xlink:href="#rim" fill="#404040">
                                <set attributeName="fill" to="#808080" begin="zoomplus.mouseover" end="zoomplus.mouseout"/>
                        </use>
                        <path d="M-4,0h8M0,-4v8" fill="none" stroke="white" stroke-width="1.5" pointer-events="none"/>
                </g>
                <g id="zoomMin">
                        <use xlink:href="#rim" fill="#404040">
                                <set attributeName="fill" to="#808080" begin="zoomminus.mouseover" end="zoomminus.mouseout"/>
                        </use>
                        <path d="M-4,0h8" fill="none" stroke="white" stroke-width="1.5" pointer-events="none"/>
                </g>
                <g id="dirArrow">
                        <path fill="none" stroke="white" stroke-width="1.5" d="M0,-3.0v7 M-2.5,-0.5L0,-3.0L2.5,-0.5"/>
                </g>
               <g id="resetDef">
                       <use xlink:href="#rim2" fill="#404040">
                               <set attributeName="fill" to="#808080" begin="reset.mouseover" end="reset.mouseout"/>
                       </use>
               </g>
        </defs>

<script type="text/javascript">
var viewWidth = 1318;
var viewHeight = 751;
var sectionId = 'dynsection-13';
</script>
<script xlink:href="svgpan.js"/>
<svg id="graph" class="graph">
<g id="viewport">
<title>cache_manager_t::process</title>
<polygon fill="white" stroke="transparent" points="-4,4 -4,-746.53 1314,-746.53 1314,4 -4,4"/>
<!-- Node1 -->
<g id="node1" class="node">
<title>Node1</title>
<g id="a_node1"><a xlink:title=" ">
<polygon fill="#bfbfbf" stroke="black" points="0,-523.5 0,-542.5 146,-542.5 146,-523.5 0,-523.5"/>
<text text-anchor="middle" x="73" y="-530.5" font-family="Helvetica,sans-Serif" font-size="10.00">cache_manager_t::process</text>
</a>
</g>
</g>
<!-- Node2 -->
<g id="node2" class="node">
<title>Node2</title>
<g id="a_node2"><a xlink:href="classhive__controller__t.html#a864f0251e1bbb2cab301037d2995f25a" target="_top" xlink:title=" ">
<polygon fill="white" stroke="black" points="956,-643 956,-673 1060,-673 1060,-643 956,-643"/>
<text text-anchor="start" x="964" y="-661" font-family="Helvetica,sans-Serif" font-size="10.00">hive_controller_t::</text>
<text text-anchor="middle" x="1008" y="-650" font-family="Helvetica,sans-Serif" font-size="10.00">addRequest</text>
</a>
</g>
</g>
<!-- Node1&#45;&gt;Node2 -->
<g id="edge1" class="edge">
<title>Node1&#45;&gt;Node2</title>
<path fill="none" stroke="midnightblue" d="M91.59,-542.54C145.36,-570.78 312.98,-652 462,-652 462,-652 462,-652 645,-652 750.59,-652 873.48,-654.58 945.5,-656.36"/>
<polygon fill="midnightblue" stroke="midnightblue" points="945.66,-659.87 955.75,-656.62 945.84,-652.87 945.66,-659.87"/>
</g>
<!-- Node3 -->
<g id="node3" class="node">
<title>Node3</title>
<g id="a_node3"><a xlink:href="enumerations_8cpp.html#abb39d040475b58d11b29c242b33091e1" target="_top" xlink:title="Enumerates the MEMORY OPERATION OF MOB,debug only.">
<polygon fill="white" stroke="black" points="1120,-577.5 1120,-596.5 1310,-596.5 1310,-577.5 1120,-577.5"/>
<text text-anchor="middle" x="1215" y="-584.5" font-family="Helvetica,sans-Serif" font-size="10.00">get_enum_memory_operation_char</text>
</a>
</g>
</g>
<!-- Node1&#45;&gt;Node3 -->
<g id="edge47" class="edge">
<title>Node1&#45;&gt;Node3</title>
<path fill="none" stroke="midnightblue" d="M82.53,-542.52C99.61,-560.98 139.94,-601.79 182,-624 296.23,-684.33 332.82,-702 462,-702 462,-702 462,-702 816.5,-702 935.69,-702 984.9,-749.22 1084,-683 1113.75,-663.12 1092.15,-633.46 1120,-611 1125.29,-606.74 1131.24,-603.22 1137.51,-600.33"/>
<polygon fill="midnightblue" stroke="midnightblue" points="1138.96,-603.52 1146.9,-596.51 1136.32,-597.03 1138.96,-603.52"/>
</g>
<!-- Node4 -->
<g id="node4" class="node">
<title>Node4</title>
<g id="a_node4"><a xlink:href="enumerations_8cpp.html#a4f1219a7c31d137c368e36cea5be9128" target="_top" xlink:title="Enumerates the package state,.">
<polygon fill="white" stroke="black" points="1131.5,-620.5 1131.5,-639.5 1298.5,-639.5 1298.5,-620.5 1131.5,-620.5"/>
<text text-anchor="middle" x="1215" y="-627.5" font-family="Helvetica,sans-Serif" font-size="10.00">get_enum_package_state_char</text>
</a>
</g>
</g>
<!-- Node1&#45;&gt;Node4 -->
<g id="edge48" class="edge">
<title>Node1&#45;&gt;Node4</title>
<path fill="none" stroke="midnightblue" d="M78.73,-542.84C91.51,-568.35 129.38,-636.96 182,-671 289.61,-740.61 333.83,-740 462,-740 462,-740 462,-740 816.5,-740 935.95,-740 971.2,-753.3 1084,-714 1127.62,-698.8 1171.27,-666.14 1195.25,-646.32"/>
<polygon fill="midnightblue" stroke="midnightblue" points="1197.76,-648.78 1203.15,-639.66 1193.25,-643.43 1197.76,-648.78"/>
</g>
<!-- Node5 -->
<g id="node5" class="node">
<title>Node5</title>
<g id="a_node5"><a xlink:href="classorcs__engine__t.html#a1c033e3455736ba89052a40c69ebe0af" target="_top" xlink:title=" ">
<polygon fill="white" stroke="black" points="1162,-280 1162,-310 1268,-310 1268,-280 1162,-280"/>
<text text-anchor="start" x="1170" y="-298" font-family="Helvetica,sans-Serif" font-size="10.00">orcs_engine_t::get</text>
<text text-anchor="middle" x="1215" y="-287" font-family="Helvetica,sans-Serif" font-size="10.00">_global_cycle</text>
</a>
</g>
</g>
<!-- Node1&#45;&gt;Node5 -->
<g id="edge49" class="edge">
<title>Node1&#45;&gt;Node5</title>
<path fill="none" stroke="midnightblue" d="M74.97,-523.49C79.64,-482.03 102.83,-314.36 182,-208 267.59,-93.03 318.67,-48 462,-48 462,-48 462,-48 816.5,-48 935.87,-48 983.26,-7.96 1084,-72 1157.31,-118.6 1194.13,-222.48 1207.69,-270.18"/>
<polygon fill="midnightblue" stroke="midnightblue" points="1204.36,-271.27 1210.38,-279.99 1211.12,-269.42 1204.36,-271.27"/>
</g>
<!-- Node6 -->
<g id="node6" class="node">
<title>Node6</title>
<g id="a_node6"><a xlink:href="classvima__controller__t.html#a78795ac4492ba15bc945f597dd5b9ecb" target="_top" xlink:title=" ">
<polygon fill="white" stroke="black" points="205.5,-218 205.5,-248 313.5,-248 313.5,-218 205.5,-218"/>
<text text-anchor="start" x="213.5" y="-236" font-family="Helvetica,sans-Serif" font-size="10.00">vima_controller_t::</text>
<text text-anchor="middle" x="259.5" y="-225" font-family="Helvetica,sans-Serif" font-size="10.00">addRequest</text>
</a>
</g>
</g>
<!-- Node1&#45;&gt;Node6 -->
<g id="edge5" class="edge">
<title>Node1&#45;&gt;Node6</title>
<path fill="none" stroke="midnightblue" d="M79.93,-523.36C105.39,-481.96 205.88,-318.56 243.86,-256.81"/>
<polygon fill="midnightblue" stroke="midnightblue" points="246.94,-258.48 249.19,-248.13 240.97,-254.82 246.94,-258.48"/>
</g>
<!-- Node7 -->
<g id="node7" class="node">
<title>Node7</title>
<g id="a_node7"><a xlink:href="classcache__manager__t.html#ac6ec547ecf2b8d52bf8169bc79d66e70" target="_top" xlink:title=" ">
<polygon fill="white" stroke="black" points="191,-425 191,-455 328,-455 328,-425 191,-425"/>
<text text-anchor="start" x="199" y="-443" font-family="Helvetica,sans-Serif" font-size="10.00">cache_manager_t::cache</text>
<text text-anchor="middle" x="259.5" y="-432" font-family="Helvetica,sans-Serif" font-size="10.00">_search</text>
</a>
</g>
</g>
<!-- Node1&#45;&gt;Node7 -->
<g id="edge7" class="edge">
<title>Node1&#45;&gt;Node7</title>
<path fill="none" stroke="midnightblue" d="M93.05,-523.4C122.8,-508.4 180.89,-479.12 219.7,-459.56"/>
<polygon fill="midnightblue" stroke="midnightblue" points="221.29,-462.68 228.64,-455.05 218.14,-456.43 221.29,-462.68"/>
</g>
<!-- Node17 -->
<g id="node17" class="node">
<title>Node17</title>
<g id="a_node17"><a xlink:href="classmemory__controller__t.html#ad78d3fe5a6cf2ee6e22f9e563dd6e20e" target="_top" xlink:title=" ">
<polygon fill="white" stroke="black" points="948.5,-457 948.5,-487 1067.5,-487 1067.5,-457 948.5,-457"/>
<text text-anchor="start" x="956.5" y="-475" font-family="Helvetica,sans-Serif" font-size="10.00">memory_controller_t</text>
<text text-anchor="middle" x="1008" y="-464" font-family="Helvetica,sans-Serif" font-size="10.00">::requestDRAM</text>
</a>
</g>
</g>
<!-- Node1&#45;&gt;Node17 -->
<g id="edge50" class="edge">
<title>Node1&#45;&gt;Node17</title>
<path fill="none" stroke="midnightblue" d="M146.19,-534.55C206.75,-535.76 295.52,-537.35 373,-538 453,-538.67 473.21,-543.77 553,-538 690.5,-528.06 849.6,-501.39 938.24,-485.16"/>
<polygon fill="midnightblue" stroke="midnightblue" points="938.97,-488.58 948.17,-483.33 937.7,-481.7 938.97,-488.58"/>
</g>
<!-- Node23 -->
<g id="node23" class="node">
<title>Node23</title>
<g id="a_node23"><a xlink:href="enumerations_8cpp.html#a78d7739a46b0406e1b2589e0e20f3643" target="_top" xlink:title="Enumerates the cache level,.">
<polygon fill="white" stroke="black" points="182,-0.5 182,-19.5 337,-19.5 337,-0.5 182,-0.5"/>
<text text-anchor="middle" x="259.5" y="-7.5" font-family="Helvetica,sans-Serif" font-size="10.00">get_enum_cache_level_char</text>
</a>
</g>
</g>
<!-- Node1&#45;&gt;Node23 -->
<g id="edge46" class="edge">
<title>Node1&#45;&gt;Node23</title>
<path fill="none" stroke="midnightblue" d="M74.77,-523.49C80.02,-461.07 112.37,-110.26 182,-34 185.49,-30.18 189.58,-26.96 194.02,-24.25"/>
<polygon fill="midnightblue" stroke="midnightblue" points="195.65,-27.35 202.93,-19.65 192.44,-21.13 195.65,-27.35"/>
</g>
<!-- Node2&#45;&gt;Node3 -->
<g id="edge2" class="edge">
<title>Node2&#45;&gt;Node3</title>
<path fill="none" stroke="midnightblue" d="M1060.12,-643.61C1068.24,-640.76 1076.45,-637.55 1084,-634 1101.19,-625.93 1102.58,-618.56 1120,-611 1130.86,-606.29 1142.85,-602.35 1154.53,-599.13"/>
<polygon fill="midnightblue" stroke="midnightblue" points="1155.44,-602.5 1164.23,-596.58 1153.67,-595.73 1155.44,-602.5"/>
</g>
<!-- Node2&#45;&gt;Node4 -->
<g id="edge3" class="edge">
<title>Node2&#45;&gt;Node4</title>
<path fill="none" stroke="midnightblue" d="M1060.2,-651.01C1082.51,-647.96 1109.18,-644.32 1134,-640.93"/>
<polygon fill="midnightblue" stroke="midnightblue" points="1134.7,-644.36 1144.14,-639.54 1133.76,-637.43 1134.7,-644.36"/>
</g>
<!-- Node2&#45;&gt;Node5 -->
<g id="edge4" class="edge">
<title>Node2&#45;&gt;Node5</title>
<path fill="none" stroke="midnightblue" d="M1060.05,-650.11C1069.15,-646.54 1077.72,-641.4 1084,-634 1154.94,-550.43 1071.01,-488.06 1120,-390 1134.99,-360 1163.01,-333.59 1184.58,-316.28"/>
<polygon fill="midnightblue" stroke="midnightblue" points="1186.76,-319.02 1192.49,-310.11 1182.45,-313.51 1186.76,-319.02"/>
</g>
<!-- Node6&#45;&gt;Node5 -->
<g id="edge6" class="edge">
<title>Node6&#45;&gt;Node5</title>
<path fill="none" stroke="midnightblue" d="M268.99,-217.98C285.22,-190.91 323.45,-134.5 373,-110 480.99,-56.59 522.53,-86 643,-86 643,-86 643,-86 816.5,-86 935.87,-86 980.64,-50.29 1084,-110 1147.9,-146.92 1188.06,-229.38 1204.88,-270.59"/>
<polygon fill="midnightblue" stroke="midnightblue" points="1201.63,-271.88 1208.57,-279.89 1208.14,-269.31 1201.63,-271.88"/>
</g>
<!-- Node7&#45;&gt;Node3 -->
<g id="edge9" class="edge">
<title>Node7&#45;&gt;Node3</title>
<path fill="none" stroke="midnightblue" d="M328.22,-452.12C342.95,-454.57 358.48,-457 373,-459 687.83,-502.37 775.57,-458.38 1084,-535 1120.19,-543.99 1159.69,-560.88 1185.53,-572.97"/>
<polygon fill="midnightblue" stroke="midnightblue" points="1184.2,-576.21 1194.74,-577.34 1187.21,-569.89 1184.2,-576.21"/>
</g>
<!-- Node7&#45;&gt;Node5 -->
<g id="edge10" class="edge">
<title>Node7&#45;&gt;Node5</title>
<path fill="none" stroke="midnightblue" d="M267.02,-424.89C280.45,-393.66 312.02,-319.7 337,-257 353.71,-215.05 337.73,-190.19 373,-162 467.67,-86.35 521.82,-124 643,-124 643,-124 643,-124 816.5,-124 935.87,-124 977.47,-94.14 1084,-148 1138.47,-175.54 1180.37,-236.53 1200.62,-270.66"/>
<polygon fill="midnightblue" stroke="midnightblue" points="1197.71,-272.62 1205.74,-279.53 1203.77,-269.12 1197.71,-272.62"/>
</g>
<!-- Node8 -->
<g id="node8" class="node">
<title>Node8</title>
<g id="a_node8"><a xlink:href="enumerations_8cpp.html#ab2f1f56df233c1decaf1c4736bbdba39" target="_top" xlink:title=" ">
<polygon fill="white" stroke="black" points="387,-430.5 387,-449.5 539,-449.5 539,-430.5 387,-430.5"/>
<text text-anchor="middle" x="463" y="-437.5" font-family="Helvetica,sans-Serif" font-size="10.00">get_enum_cache_type_char</text>
</a>
</g>
</g>
<!-- Node7&#45;&gt;Node8 -->
<g id="edge8" class="edge">
<title>Node7&#45;&gt;Node8</title>
<path fill="none" stroke="midnightblue" d="M328.16,-440C343.78,-440 360.6,-440 376.86,-440"/>
<polygon fill="midnightblue" stroke="midnightblue" points="376.89,-443.5 386.89,-440 376.89,-436.5 376.89,-443.5"/>
</g>
<!-- Node9 -->
<g id="node9" class="node">
<title>Node9</title>
<g id="a_node9"><a xlink:href="classcache__t.html#aab55f380c45fb623cdc5160902cbdefa" target="_top" xlink:title=" ">
<polygon fill="white" stroke="black" points="408,-247.5 408,-266.5 518,-266.5 518,-247.5 408,-247.5"/>
<text text-anchor="middle" x="463" y="-254.5" font-family="Helvetica,sans-Serif" font-size="10.00">cache_t::returnLine</text>
</a>
</g>
</g>
<!-- Node7&#45;&gt;Node9 -->
<g id="edge11" class="edge">
<title>Node7&#45;&gt;Node9</title>
<path fill="none" stroke="midnightblue" d="M277.33,-424.71C314.95,-390.55 405.55,-308.26 444.13,-273.23"/>
<polygon fill="midnightblue" stroke="midnightblue" points="446.48,-275.82 451.53,-266.51 441.77,-270.64 446.48,-275.82"/>
</g>
<!-- Node18 -->
<g id="node18" class="node">
<title>Node18</title>
<g id="a_node18"><a xlink:href="classcache__manager__t.html#a926b91caae4bcb5f785cb756f4da1a52" target="_top" xlink:title=" ">
<polygon fill="white" stroke="black" points="373,-171.5 373,-190.5 553,-190.5 553,-171.5 373,-171.5"/>
<text text-anchor="middle" x="463" y="-178.5" font-family="Helvetica,sans-Serif" font-size="10.00">cache_manager_t::searchAddress</text>
</a>
</g>
</g>
<!-- Node7&#45;&gt;Node18 -->
<g id="edge29" class="edge">
<title>Node7&#45;&gt;Node18</title>
<path fill="none" stroke="midnightblue" d="M265.89,-424.98C279.33,-389.14 317.32,-297.22 373,-238 389.88,-220.05 413.55,-205.24 432.23,-195.22"/>
<polygon fill="midnightblue" stroke="midnightblue" points="433.95,-198.27 441.22,-190.56 430.73,-192.06 433.95,-198.27"/>
</g>
<!-- Node20 -->
<g id="node20" class="node">
<title>Node20</title>
<g id="a_node20"><a xlink:href="classmemory__package__t.html#aca3c3a3d460dea3665ef057672deb04b" target="_top" xlink:title=" ">
<polygon fill="white" stroke="black" points="932,-594 932,-624 1084,-624 1084,-594 932,-594"/>
<text text-anchor="start" x="940" y="-612" font-family="Helvetica,sans-Serif" font-size="10.00">memory_package_t::update</text>
<text text-anchor="middle" x="1008" y="-601" font-family="Helvetica,sans-Serif" font-size="10.00">PackageUntreated</text>
</a>
</g>
</g>
<!-- Node7&#45;&gt;Node20 -->
<g id="edge33" class="edge">
<title>Node7&#45;&gt;Node20</title>
<path fill="none" stroke="midnightblue" d="M272.45,-455.08C291.19,-477.5 329.84,-519.03 373,-538 555.7,-618.29 795.3,-620.73 921.19,-615.13"/>
<polygon fill="midnightblue" stroke="midnightblue" points="921.71,-618.61 931.53,-614.64 921.38,-611.62 921.71,-618.61"/>
</g>
<!-- Node21 -->
<g id="node21" class="node">
<title>Node21</title>
<g id="a_node21"><a xlink:href="classmemory__package__t.html#a961024a3c9d618cc27d9a0237b185274" target="_top" xlink:title=" ">
<polygon fill="white" stroke="black" points="932,-545 932,-575 1084,-575 1084,-545 932,-545"/>
<text text-anchor="start" x="940" y="-563" font-family="Helvetica,sans-Serif" font-size="10.00">memory_package_t::update</text>
<text text-anchor="middle" x="1008" y="-552" font-family="Helvetica,sans-Serif" font-size="10.00">PackageWait</text>
</a>
</g>
</g>
<!-- Node7&#45;&gt;Node21 -->
<g id="edge37" class="edge">
<title>Node7&#45;&gt;Node21</title>
<path fill="none" stroke="midnightblue" d="M279.03,-455.22C300.27,-471.7 336.84,-497.21 373,-509 472.68,-541.5 773.3,-553.85 921.93,-558.06"/>
<polygon fill="midnightblue" stroke="midnightblue" points="921.84,-561.55 931.93,-558.33 922.03,-554.56 921.84,-561.55"/>
</g>
<!-- Node22 -->
<g id="node22" class="node">
<title>Node22</title>
<g id="a_node22"><a xlink:href="classcache__t.html#a6b29703ff92a473a4ceb7dcd00d1206d" target="_top" xlink:title=" ">
<polygon fill="white" stroke="black" points="601.5,-342.5 601.5,-361.5 686.5,-361.5 686.5,-342.5 601.5,-342.5"/>
<text text-anchor="middle" x="644" y="-349.5" font-family="Helvetica,sans-Serif" font-size="10.00">cache_t::write</text>
</a>
</g>
</g>
<!-- Node7&#45;&gt;Node22 -->
<g id="edge41" class="edge">
<title>Node7&#45;&gt;Node22</title>
<path fill="none" stroke="midnightblue" d="M325.82,-424.97C400.91,-407.7 522.63,-379.69 591.4,-363.87"/>
<polygon fill="midnightblue" stroke="midnightblue" points="592.6,-367.19 601.56,-361.53 591.03,-360.37 592.6,-367.19"/>
</g>
<!-- Node9&#45;&gt;Node5 -->
<g id="edge12" class="edge">
<title>Node9&#45;&gt;Node5</title>
<path fill="none" stroke="midnightblue" d="M516.23,-247.47C570.64,-238.07 658.46,-224.34 735,-219 890.34,-208.16 933.06,-211.73 1084,-250 1111.9,-257.07 1142.34,-267.46 1166.74,-276.47"/>
<polygon fill="midnightblue" stroke="midnightblue" points="1165.53,-279.75 1176.12,-279.98 1167.98,-273.2 1165.53,-279.75"/>
</g>
<!-- Node10 -->
<g id="node10" class="node">
<title>Node10</title>
<g id="a_node10"><a xlink:href="classcache__t.html#a064ff4698c44668e702fda0a95278185" target="_top" xlink:title=" ">
<polygon fill="white" stroke="black" points="589,-266.5 589,-285.5 699,-285.5 699,-266.5 589,-266.5"/>
<text text-anchor="middle" x="644" y="-273.5" font-family="Helvetica,sans-Serif" font-size="10.00">cache_t::installLine</text>
</a>
</g>
</g>
<!-- Node9&#45;&gt;Node10 -->
<g id="edge13" class="edge">
<title>Node9&#45;&gt;Node10</title>
<path fill="none" stroke="midnightblue" d="M518.19,-262.75C537.29,-264.78 558.95,-267.08 578.8,-269.19"/>
<polygon fill="midnightblue" stroke="midnightblue" points="578.68,-272.69 588.99,-270.27 579.42,-265.73 578.68,-272.69"/>
</g>
<!-- Node12 -->
<g id="node12" class="node">
<title>Node12</title>
<g id="a_node12"><a xlink:href="classcache__t.html#a8fa855f06d00efbcdbe0f4c64add2242" target="_top" xlink:title=" ">
<polygon fill="white" stroke="black" points="735,-228.5 735,-247.5 896,-247.5 896,-228.5 735,-228.5"/>
<text text-anchor="middle" x="815.5" y="-235.5" font-family="Helvetica,sans-Serif" font-size="10.00">cache_t::tagIdxSetCalculation</text>
</a>
</g>
</g>
<!-- Node9&#45;&gt;Node12 -->
<g id="edge28" class="edge">
<title>Node9&#45;&gt;Node12</title>
<path fill="none" stroke="midnightblue" d="M518.38,-254.05C573.41,-251.07 659.44,-246.41 724.62,-242.87"/>
<polygon fill="midnightblue" stroke="midnightblue" points="725.1,-246.35 734.9,-242.32 724.72,-239.36 725.1,-246.35"/>
</g>
<!-- Node10&#45;&gt;Node5 -->
<g id="edge14" class="edge">
<title>Node10&#45;&gt;Node5</title>
<path fill="none" stroke="midnightblue" d="M699.22,-271.15C799.72,-262.58 1011.32,-246.59 1084,-257 1111,-260.87 1140.23,-269.03 1164.12,-276.81"/>
<polygon fill="midnightblue" stroke="midnightblue" points="1163.08,-280.15 1173.67,-279.99 1165.29,-273.51 1163.08,-280.15"/>
</g>
<!-- Node11 -->
<g id="node11" class="node">
<title>Node11</title>
<g id="a_node11"><a xlink:href="classcache__t.html#a08af353e5ef8b2c78f4d7a3cc57bf8fc" target="_top" xlink:title=" ">
<polygon fill="white" stroke="black" points="762,-304.5 762,-323.5 869,-323.5 869,-304.5 762,-304.5"/>
<text text-anchor="middle" x="815.5" y="-311.5" font-family="Helvetica,sans-Serif" font-size="10.00">cache_t::searchLru</text>
</a>
</g>
</g>
<!-- Node10&#45;&gt;Node11 -->
<g id="edge15" class="edge">
<title>Node10&#45;&gt;Node11</title>
<path fill="none" stroke="midnightblue" d="M687.77,-285.59C710.34,-290.65 738.22,-296.9 762.08,-302.25"/>
<polygon fill="midnightblue" stroke="midnightblue" points="761.51,-305.71 772.04,-304.48 763.04,-298.88 761.51,-305.71"/>
</g>
<!-- Node10&#45;&gt;Node12 -->
<g id="edge16" class="edge">
<title>Node10&#45;&gt;Node12</title>
<path fill="none" stroke="midnightblue" d="M687.77,-266.41C710.34,-261.35 738.22,-255.1 762.08,-249.75"/>
<polygon fill="midnightblue" stroke="midnightblue" points="763.04,-253.12 772.04,-247.52 761.51,-246.29 763.04,-253.12"/>
</g>
<!-- Node13 -->
<g id="node13" class="node">
<title>Node13</title>
<g id="a_node13"><a xlink:href="classcache__t.html#ac2fe482915a79b89e82582255421f7c0" target="_top" xlink:title=" ">
<polygon fill="white" stroke="black" points="761,-342.5 761,-361.5 870,-361.5 870,-342.5 761,-342.5"/>
<text text-anchor="middle" x="815.5" y="-349.5" font-family="Helvetica,sans-Serif" font-size="10.00">cache_t::writeBack</text>
</a>
</g>
</g>
<!-- Node10&#45;&gt;Node13 -->
<g id="edge17" class="edge">
<title>Node10&#45;&gt;Node13</title>
<path fill="none" stroke="midnightblue" d="M657.09,-285.51C673.72,-298.14 705.01,-320.34 735,-333 740.92,-335.5 747.23,-337.71 753.61,-339.65"/>
<polygon fill="midnightblue" stroke="midnightblue" points="753.08,-343.14 763.65,-342.49 754.98,-336.4 753.08,-343.14"/>
</g>
<!-- Node13&#45;&gt;Node5 -->
<g id="edge24" class="edge">
<title>Node13&#45;&gt;Node5</title>
<path fill="none" stroke="midnightblue" d="M870.11,-344.31C943.32,-333.81 1074.31,-315.03 1151.77,-303.92"/>
<polygon fill="midnightblue" stroke="midnightblue" points="1152.47,-307.36 1161.87,-302.48 1151.48,-300.43 1152.47,-307.36"/>
</g>
<!-- Node14 -->
<g id="node14" class="node">
<title>Node14</title>
<g id="a_node14"><a xlink:href="classline__t.html#a5b92a71c2f16f2a194f9863284215556" target="_top" xlink:title=" ">
<polygon fill="white" stroke="black" points="1165.5,-399.5 1165.5,-418.5 1264.5,-418.5 1264.5,-399.5 1165.5,-399.5"/>
<text text-anchor="middle" x="1215" y="-406.5" font-family="Helvetica,sans-Serif" font-size="10.00">line_t::clean_line</text>
</a>
</g>
</g>
<!-- Node13&#45;&gt;Node14 -->
<g id="edge18" class="edge">
<title>Node13&#45;&gt;Node14</title>
<path fill="none" stroke="midnightblue" d="M830.63,-361.67C851.63,-375.39 892.8,-399.85 932,-409 1007.56,-426.63 1097.65,-422.43 1155.31,-416.67"/>
<polygon fill="midnightblue" stroke="midnightblue" points="1155.76,-420.15 1165.34,-415.62 1155.03,-413.19 1155.76,-420.15"/>
</g>
<!-- Node15 -->
<g id="node15" class="node">
<title>Node15</title>
<g id="a_node15"><a xlink:href="classcache__t.html#a926d33bfce8203d4291ee5e11fe58678" target="_top" xlink:title=" ">
<polygon fill="white" stroke="black" points="950.5,-380.5 950.5,-399.5 1065.5,-399.5 1065.5,-380.5 950.5,-380.5"/>
<text text-anchor="middle" x="1008" y="-387.5" font-family="Helvetica,sans-Serif" font-size="10.00">cache_t::copyLevels</text>
</a>
</g>
</g>
<!-- Node13&#45;&gt;Node15 -->
<g id="edge19" class="edge">
<title>Node13&#45;&gt;Node15</title>
<path fill="none" stroke="midnightblue" d="M864.57,-361.59C890.28,-366.72 922.11,-373.07 949.16,-378.46"/>
<polygon fill="midnightblue" stroke="midnightblue" points="948.78,-381.96 959.27,-380.48 950.15,-375.09 948.78,-381.96"/>
</g>
<!-- Node16 -->
<g id="node16" class="node">
<title>Node16</title>
<g id="a_node16"><a xlink:href="classcache__t.html#abaf4210052b55d606e99604f6c2056b0" target="_top" xlink:title=" ">
<polygon fill="white" stroke="black" points="939,-266.5 939,-285.5 1077,-285.5 1077,-266.5 939,-266.5"/>
<text text-anchor="middle" x="1008" y="-273.5" font-family="Helvetica,sans-Serif" font-size="10.00">cache_t::copyNextLevels</text>
</a>
</g>
</g>
<!-- Node13&#45;&gt;Node16 -->
<g id="edge22" class="edge">
<title>Node13&#45;&gt;Node16</title>
<path fill="none" stroke="midnightblue" d="M870.04,-343.16C879,-340.58 887.98,-337.26 896,-333 915.17,-322.82 913.23,-310.89 932,-300 939.65,-295.56 948.21,-291.84 956.75,-288.74"/>
<polygon fill="midnightblue" stroke="midnightblue" points="957.97,-292.03 966.33,-285.52 955.73,-285.39 957.97,-292.03"/>
</g>
<!-- Node13&#45;&gt;Node17 -->
<g id="edge25" class="edge">
<title>Node13&#45;&gt;Node17</title>
<path fill="none" stroke="midnightblue" d="M826.61,-361.51C845.87,-379.22 889.67,-417.7 932,-442 938.84,-445.93 946.3,-449.58 953.77,-452.88"/>
<polygon fill="midnightblue" stroke="midnightblue" points="952.62,-456.2 963.19,-456.88 955.35,-449.75 952.62,-456.2"/>
</g>
<!-- Node15&#45;&gt;Node5 -->
<g id="edge21" class="edge">
<title>Node15&#45;&gt;Node5</title>
<path fill="none" stroke="midnightblue" d="M1043.48,-380.47C1056.39,-376.51 1071.06,-371.55 1084,-366 1118.25,-351.32 1155.38,-330.51 1181.16,-315.21"/>
<polygon fill="midnightblue" stroke="midnightblue" points="1183,-318.19 1189.78,-310.05 1179.4,-312.19 1183,-318.19"/>
</g>
<!-- Node15&#45;&gt;Node14 -->
<g id="edge20" class="edge">
<title>Node15&#45;&gt;Node14</title>
<path fill="none" stroke="midnightblue" d="M1065.56,-395.24C1093.43,-397.82 1127,-400.94 1155.17,-403.55"/>
<polygon fill="midnightblue" stroke="midnightblue" points="1155,-407.05 1165.28,-404.48 1155.65,-400.08 1155,-407.05"/>
</g>
<!-- Node16&#45;&gt;Node5 -->
<g id="edge23" class="edge">
<title>Node16&#45;&gt;Node5</title>
<path fill="none" stroke="midnightblue" d="M1077.26,-282.33C1101.31,-284.56 1128.19,-287.05 1151.72,-289.23"/>
<polygon fill="midnightblue" stroke="midnightblue" points="1151.64,-292.74 1161.92,-290.17 1152.29,-285.77 1151.64,-292.74"/>
</g>
<!-- Node17&#45;&gt;Node3 -->
<g id="edge26" class="edge">
<title>Node17&#45;&gt;Node3</title>
<path fill="none" stroke="midnightblue" d="M1050.92,-487.07C1061.88,-491.46 1073.55,-496.56 1084,-502 1124.27,-522.95 1167.78,-553.1 1192.87,-571.29"/>
<polygon fill="midnightblue" stroke="midnightblue" points="1191.1,-574.33 1201.24,-577.42 1195.23,-568.69 1191.1,-574.33"/>
</g>
<!-- Node17&#45;&gt;Node5 -->
<g id="edge27" class="edge">
<title>Node17&#45;&gt;Node5</title>
<path fill="none" stroke="midnightblue" d="M1027.28,-456.83C1042.52,-444.14 1064.77,-425.5 1084,-409 1120.95,-377.29 1163.27,-339.99 1189.32,-316.92"/>
<polygon fill="midnightblue" stroke="midnightblue" points="1191.7,-319.49 1196.86,-310.24 1187.05,-314.25 1191.7,-319.49"/>
</g>
<!-- Node19 -->
<g id="node19" class="node">
<title>Node19</title>
<g id="a_node19"><a xlink:href="classcache__t.html#ab35480bbdb86dc151edb0a3fa64d9e2d" target="_top" xlink:title=" ">
<polygon fill="white" stroke="black" points="603,-152.5 603,-171.5 685,-171.5 685,-152.5 603,-152.5"/>
<text text-anchor="middle" x="644" y="-159.5" font-family="Helvetica,sans-Serif" font-size="10.00">cache_t::read</text>
</a>
</g>
</g>
<!-- Node18&#45;&gt;Node19 -->
<g id="edge30" class="edge">
<title>Node18&#45;&gt;Node19</title>
<path fill="none" stroke="midnightblue" d="M553.24,-171.53C566.78,-170.09 580.34,-168.65 592.66,-167.34"/>
<polygon fill="midnightblue" stroke="midnightblue" points="593.12,-170.81 602.69,-166.28 592.38,-163.85 593.12,-170.81"/>
</g>
<!-- Node19&#45;&gt;Node5 -->
<g id="edge31" class="edge">
<title>Node19&#45;&gt;Node5</title>
<path fill="none" stroke="midnightblue" d="M685.23,-156.01C764.71,-145.9 946.1,-131.53 1084,-186 1130.42,-204.34 1172.35,-246.16 1195.39,-272.34"/>
<polygon fill="midnightblue" stroke="midnightblue" points="1192.74,-274.63 1201.92,-279.92 1198.05,-270.06 1192.74,-274.63"/>
</g>
<!-- Node19&#45;&gt;Node12 -->
<g id="edge32" class="edge">
<title>Node19&#45;&gt;Node12</title>
<path fill="none" stroke="midnightblue" d="M666.47,-171.63C696.14,-184.93 749.87,-209.02 783.78,-224.23"/>
<polygon fill="midnightblue" stroke="midnightblue" points="782.65,-227.55 793.21,-228.45 785.51,-221.17 782.65,-227.55"/>
</g>
<!-- Node20&#45;&gt;Node3 -->
<g id="edge34" class="edge">
<title>Node20&#45;&gt;Node3</title>
<path fill="none" stroke="midnightblue" d="M1084.17,-600.93C1094.3,-599.85 1104.82,-598.72 1115.28,-597.59"/>
<polygon fill="midnightblue" stroke="midnightblue" points="1115.71,-601.07 1125.28,-596.52 1114.97,-594.11 1115.71,-601.07"/>
</g>
<!-- Node20&#45;&gt;Node4 -->
<g id="edge35" class="edge">
<title>Node20&#45;&gt;Node4</title>
<path fill="none" stroke="midnightblue" d="M1084.17,-616.7C1096.13,-617.93 1108.63,-619.21 1120.95,-620.47"/>
<polygon fill="midnightblue" stroke="midnightblue" points="1120.93,-623.98 1131.23,-621.52 1121.64,-617.02 1120.93,-623.98"/>
</g>
<!-- Node20&#45;&gt;Node5 -->
<g id="edge36" class="edge">
<title>Node20&#45;&gt;Node5</title>
<path fill="none" stroke="midnightblue" d="M1072.43,-593.83C1076.73,-591.08 1080.67,-587.83 1084,-584 1141.58,-517.86 1079.37,-467.71 1120,-390 1135.54,-360.28 1163.5,-333.84 1184.89,-316.45"/>
<polygon fill="midnightblue" stroke="midnightblue" points="1187.07,-319.19 1192.74,-310.23 1182.72,-313.7 1187.07,-319.19"/>
</g>
<!-- Node21&#45;&gt;Node3 -->
<g id="edge38" class="edge">
<title>Node21&#45;&gt;Node3</title>
<path fill="none" stroke="midnightblue" d="M1084.17,-569.9C1099.54,-571.93 1115.8,-574.07 1131.42,-576.12"/>
<polygon fill="midnightblue" stroke="midnightblue" points="1131.2,-579.62 1141.57,-577.46 1132.11,-572.68 1131.2,-579.62"/>
</g>
<!-- Node21&#45;&gt;Node4 -->
<g id="edge39" class="edge">
<title>Node21&#45;&gt;Node4</title>
<path fill="none" stroke="midnightblue" d="M1061.66,-575.08C1069.27,-577.77 1076.91,-580.76 1084,-584 1101.05,-591.8 1102.72,-598.71 1120,-606 1131.15,-610.71 1143.45,-614.66 1155.38,-617.92"/>
<polygon fill="midnightblue" stroke="midnightblue" points="1154.71,-621.36 1165.27,-620.49 1156.47,-614.59 1154.71,-621.36"/>
</g>
<!-- Node21&#45;&gt;Node5 -->
<g id="edge40" class="edge">
<title>Node21&#45;&gt;Node5</title>
<path fill="none" stroke="midnightblue" d="M1032.61,-544.95C1049.08,-533.36 1070.45,-515.98 1084,-496 1111.92,-454.82 1093.84,-432.32 1120,-390 1137.77,-361.25 1165.75,-334.46 1186.57,-316.71"/>
<polygon fill="midnightblue" stroke="midnightblue" points="1189.01,-319.23 1194.44,-310.13 1184.52,-313.86 1189.01,-319.23"/>
</g>
<!-- Node22&#45;&gt;Node5 -->
<g id="edge42" class="edge">
<title>Node22&#45;&gt;Node5</title>
<path fill="none" stroke="midnightblue" d="M681.51,-361.51C697.76,-365.27 717.21,-369.14 735,-371 806.17,-378.43 824.71,-377.21 896,-371 980.51,-363.64 1001.73,-358.71 1084,-338 1110.74,-331.27 1139.95,-321.81 1163.89,-313.47"/>
<polygon fill="midnightblue" stroke="midnightblue" points="1165.19,-316.72 1173.46,-310.1 1162.87,-310.12 1165.19,-316.72"/>
</g>
<!-- Node22&#45;&gt;Node11 -->
<g id="edge43" class="edge">
<title>Node22&#45;&gt;Node11</title>
<path fill="none" stroke="midnightblue" d="M686.9,-342.61C709.54,-337.53 737.73,-331.21 761.85,-325.8"/>
<polygon fill="midnightblue" stroke="midnightblue" points="762.91,-329.15 771.91,-323.55 761.38,-322.32 762.91,-329.15"/>
</g>
<!-- Node22&#45;&gt;Node12 -->
<g id="edge44" class="edge">
<title>Node22&#45;&gt;Node12</title>
<path fill="none" stroke="midnightblue" d="M659.16,-342.48C688.5,-322.74 756.15,-277.24 791.71,-253.32"/>
<polygon fill="midnightblue" stroke="midnightblue" points="793.68,-256.22 800.02,-247.74 789.77,-250.41 793.68,-256.22"/>
</g>
<!-- Node22&#45;&gt;Node13 -->
<g id="edge45" class="edge">
<title>Node22&#45;&gt;Node13</title>
<path fill="none" stroke="midnightblue" d="M686.9,-352C706.11,-352 729.3,-352 750.62,-352"/>
<polygon fill="midnightblue" stroke="midnightblue" points="750.91,-355.5 760.91,-352 750.91,-348.5 750.91,-355.5"/>
</g>
</g>
</svg>
        <g id="navigator" transform="translate(0 0)" fill="#404254">
                <rect fill="#f2f5e9" fill-opacity="0.5" stroke="#606060" stroke-width=".5" x="0" y="0" width="60" height="60"/>
                <use id="zoomplus" xlink:href="#zoomPlus" x="17" y="9" onmousedown="handleZoom(evt,'in')"/>
                <use id="zoomminus" xlink:href="#zoomMin" x="42" y="9" onmousedown="handleZoom(evt,'out')"/>
                <use id="reset" xlink:href="#resetDef" x="30" y="36" onmousedown="handleReset()"/>
                <g id="arrowUp" xlink:href="#dirArrow" transform="translate(30 24)" onmousedown="handlePan(0,-1)">
                  <use xlink:href="#rim" fill="#404040">
                        <set attributeName="fill" to="#808080" begin="arrowUp.mouseover" end="arrowUp.mouseout"/>
                  </use>
                  <path fill="none" stroke="white" stroke-width="1.5" d="M0,-3.0v7 M-2.5,-0.5L0,-3.0L2.5,-0.5"/>
                </g>
                <g id="arrowRight" xlink:href="#dirArrow" transform="rotate(90) translate(36 -43)" onmousedown="handlePan(1,0)">
                  <use xlink:href="#rim" fill="#404040">
                        <set attributeName="fill" to="#808080" begin="arrowRight.mouseover" end="arrowRight.mouseout"/>
                  </use>
                  <path fill="none" stroke="white" stroke-width="1.5" d="M0,-3.0v7 M-2.5,-0.5L0,-3.0L2.5,-0.5"/>
                </g>
                <g id="arrowDown" xlink:href="#dirArrow" transform="rotate(180) translate(-30 -48)" onmousedown="handlePan(0,1)">
                  <use xlink:href="#rim" fill="#404040">
                        <set attributeName="fill" to="#808080" begin="arrowDown.mouseover" end="arrowDown.mouseout"/>
                  </use>
                  <path fill="none" stroke="white" stroke-width="1.5" d="M0,-3.0v7 M-2.5,-0.5L0,-3.0L2.5,-0.5"/>
                </g>
                <g id="arrowLeft" xlink:href="#dirArrow" transform="rotate(270) translate(-36 17)" onmousedown="handlePan(-1,0)">
                  <use xlink:href="#rim" fill="#404040">
                        <set attributeName="fill" to="#808080" begin="arrowLeft.mouseover" end="arrowLeft.mouseout"/>
                  </use>
                  <path fill="none" stroke="white" stroke-width="1.5" d="M0,-3.0v7 M-2.5,-0.5L0,-3.0L2.5,-0.5"/>
                </g>
        </g>
        <svg viewBox="0 0 15 15" width="100%" height="30px" preserveAspectRatio="xMaxYMin meet">
         <g id="arrow_out" transform="scale(0.3 0.3)">
          <a xlink:href="classcache__manager__t_a777bf25f873455973ba3464314947865_cgraph_org.svg" target="_base">
           <rect id="button" ry="5" rx="5" y="6" x="6" height="38" width="38"
                fill="#f2f5e9" fill-opacity="0.5" stroke="#606060" stroke-width="1.0"/>
           <path id="arrow"
             d="M 11.500037,31.436501 C 11.940474,20.09759 22.043105,11.32322 32.158766,21.979434 L 37.068811,17.246167 C 37.068811,17.246167 37.088388,32 37.088388,32 L 22.160133,31.978069 C 22.160133,31.978069 26.997745,27.140456 26.997745,27.140456 C 18.528582,18.264221 13.291696,25.230495 11.500037,31.436501 z"
             style="fill:#404040;"/>
          </a>
         </g>
        </svg>
</svg>
