<?xml version="1.0" encoding="UTF-8" standalone="no"?>
<!DOCTYPE svg PUBLIC "-//W3C//DTD SVG 1.1//EN"
 "http://www.w3.org/Graphics/SVG/1.1/DTD/svg11.dtd">
<!-- Generated by graphviz version 2.43.0 (0)
 -->
<!-- Title: processor_t::statistics Pages: 1 -->
<svg width="322pt" height="203pt"
 viewBox="0.00 0.00 322.00 202.50" xmlns="http://www.w3.org/2000/svg" xmlns:xlink="http://www.w3.org/1999/xlink">
<g id="graph0" class="graph" transform="scale(1 1) rotate(0) translate(4 198.5)">
<title>processor_t::statistics</title>
<polygon fill="white" stroke="transparent" points="-4,4 -4,-198.5 318,-198.5 318,4 -4,4"/>
<!-- Node1 -->
<g id="node1" class="node">
<title>Node1</title>
<g id="a_node1"><a xlink:title=" ">
<polygon fill="#bfbfbf" stroke="black" points="0,-76.5 0,-95.5 123,-95.5 123,-76.5 0,-76.5"/>
<text text-anchor="middle" x="61.5" y="-83.5" font-family="Helvetica,sans-Serif" font-size="10.00">processor_t::statistics</text>
</a>
</g>
</g>
<!-- Node2 -->
<g id="node2" class="node">
<title>Node2</title>
<g id="a_node2"><a xlink:href="classcache__manager__t.html#a1d0eab3491ced37cfc80481d8e71274f" target="_top" xlink:title=" ">
<polygon fill="white" stroke="black" points="160.5,-164 160.5,-194 312.5,-194 312.5,-164 160.5,-164"/>
<text text-anchor="start" x="168.5" y="-182" font-family="Helvetica,sans-Serif" font-size="10.00">cache_manager_t::generate</text>
<text text-anchor="middle" x="236.5" y="-171" font-family="Helvetica,sans-Serif" font-size="10.00">IndexArray</text>
</a>
</g>
</g>
<!-- Node1&#45;&gt;Node2 -->
<g id="edge1" class="edge">
<title>Node1&#45;&gt;Node2</title>
<path fill="none" stroke="midnightblue" d="M73.34,-95.53C90.45,-110.15 125.27,-138.19 159,-155 162.71,-156.85 166.6,-158.6 170.57,-160.24"/>
<polygon fill="midnightblue" stroke="midnightblue" points="169.35,-163.52 179.93,-163.87 171.88,-156.99 169.35,-163.52"/>
</g>
<!-- Node3 -->
<g id="node3" class="node">
<title>Node3</title>
<g id="a_node3"><a xlink:href="enumerations_8cpp.html#a29b4f0c7eca5c960bab850a56e5e411c" target="_top" xlink:title=" ">
<polygon fill="white" stroke="black" points="175.5,-115 175.5,-145 297.5,-145 297.5,-115 175.5,-115"/>
<text text-anchor="start" x="183.5" y="-133" font-family="Helvetica,sans-Serif" font-size="10.00">get_enum_instruction</text>
<text text-anchor="middle" x="236.5" y="-122" font-family="Helvetica,sans-Serif" font-size="10.00">_operation_char</text>
</a>
</g>
</g>
<!-- Node1&#45;&gt;Node3 -->
<g id="edge2" class="edge">
<title>Node1&#45;&gt;Node3</title>
<path fill="none" stroke="midnightblue" d="M100.04,-95.55C119.43,-100.48 143.71,-106.66 166.35,-112.41"/>
<polygon fill="midnightblue" stroke="midnightblue" points="165.71,-115.86 176.27,-114.93 167.44,-109.08 165.71,-115.86"/>
</g>
<!-- Node4 -->
<g id="node4" class="node">
<title>Node4</title>
<g id="a_node4"><a xlink:href="classutils__t.html#aeb2b5b79b513745a3fd1196b8c192f88" target="_top" xlink:title=" ">
<polygon fill="white" stroke="black" points="174,-76.5 174,-95.5 299,-95.5 299,-76.5 174,-76.5"/>
<text text-anchor="middle" x="236.5" y="-83.5" font-family="Helvetica,sans-Serif" font-size="10.00">utils_t::largeSeparator</text>
</a>
</g>
</g>
<!-- Node1&#45;&gt;Node4 -->
<g id="edge3" class="edge">
<title>Node1&#45;&gt;Node4</title>
<path fill="none" stroke="midnightblue" d="M123.01,-86C136.13,-86 150.13,-86 163.64,-86"/>
<polygon fill="midnightblue" stroke="midnightblue" points="163.86,-89.5 173.86,-86 163.86,-82.5 163.86,-89.5"/>
</g>
<!-- Node5 -->
<g id="node5" class="node">
<title>Node5</title>
<g id="a_node5"><a xlink:href="classutils__t.html#abafa243d8076ea3a7469a3a84920dcf2" target="_top" xlink:title=" ">
<polygon fill="white" stroke="black" points="169.5,-38.5 169.5,-57.5 303.5,-57.5 303.5,-38.5 169.5,-38.5"/>
<text text-anchor="middle" x="236.5" y="-45.5" font-family="Helvetica,sans-Serif" font-size="10.00">utils_t::largestSeparator</text>
</a>
</g>
</g>
<!-- Node1&#45;&gt;Node5 -->
<g id="edge4" class="edge">
<title>Node1&#45;&gt;Node5</title>
<path fill="none" stroke="midnightblue" d="M106.16,-76.41C129.29,-71.33 157.9,-65.04 182.33,-59.68"/>
<polygon fill="midnightblue" stroke="midnightblue" points="183.14,-63.08 192.16,-57.52 181.64,-56.25 183.14,-63.08"/>
</g>
<!-- Node6 -->
<g id="node6" class="node">
<title>Node6</title>
<g id="a_node6"><a xlink:href="classdesambiguation__t.html#aad8000e66f0f0ff1c1ef86a153b94110" target="_top" xlink:title=" ">
<polygon fill="white" stroke="black" points="159,-0.5 159,-19.5 314,-19.5 314,-0.5 159,-0.5"/>
<text text-anchor="middle" x="236.5" y="-7.5" font-family="Helvetica,sans-Serif" font-size="10.00">desambiguation_t::statistics</text>
</a>
</g>
</g>
<!-- Node1&#45;&gt;Node6 -->
<g id="edge5" class="edge">
<title>Node1&#45;&gt;Node6</title>
<path fill="none" stroke="midnightblue" d="M75.9,-76.37C93.96,-63.8 127.49,-41.9 159,-29 165.13,-26.49 171.67,-24.25 178.25,-22.27"/>
<polygon fill="midnightblue" stroke="midnightblue" points="179.21,-25.64 187.88,-19.55 177.31,-18.9 179.21,-25.64"/>
</g>
</g>
</svg>
