<?xml version="1.0" encoding="UTF-8" standalone="no"?>
<!DOCTYPE svg PUBLIC "-//W3C//DTD SVG 1.1//EN"
 "http://www.w3.org/Graphics/SVG/1.1/DTD/svg11.dtd">
<!-- Generated by graphviz version 2.43.0 (0)
 -->
<!-- Title: cache_manager_t::allocate Pages: 1 -->
<!--zoomable 269 -->
<svg id="main" version="1.1" xmlns="http://www.w3.org/2000/svg" xmlns:xlink="http://www.w3.org/1999/xlink" xml:space="preserve" onload="init(evt)">
<style type="text/css"><![CDATA[
.edge:hover path { stroke: red; }
.edge:hover polygon { stroke: red; fill: red; }
]]></style>
<script type="text/javascript"><![CDATA[
var edges = document.getElementsByTagName('g');
if (edges && edges.length) {
  for (var i=0;i<edges.length;i++) {
    if (edges[i].id.substr(0,4)=='edge') {
      edges[i].setAttribute('class','edge');
    }
  }
}
]]></script>
        <defs>
                <circle id="rim" cx="0" cy="0" r="7"/>
                <circle id="rim2" cx="0" cy="0" r="3.5"/>
                <g id="zoomPlus">
                        <use xlink:href="#rim" fill="#404040">
                                <set attributeName="fill" to="#808080" begin="zoomplus.mouseover" end="zoomplus.mouseout"/>
                        </use>
                        <path d="M-4,0h8M0,-4v8" fill="none" stroke="white" stroke-width="1.5" pointer-events="none"/>
                </g>
                <g id="zoomMin">
                        <use xlink:href="#rim" fill="#404040">
                                <set attributeName="fill" to="#808080" begin="zoomminus.mouseover" end="zoomminus.mouseout"/>
                        </use>
                        <path d="M-4,0h8" fill="none" stroke="white" stroke-width="1.5" pointer-events="none"/>
                </g>
                <g id="dirArrow">
                        <path fill="none" stroke="white" stroke-width="1.5" d="M0,-3.0v7 M-2.5,-0.5L0,-3.0L2.5,-0.5"/>
                </g>
               <g id="resetDef">
                       <use xlink:href="#rim2" fill="#404040">
                               <set attributeName="fill" to="#808080" begin="reset.mouseover" end="reset.mouseout"/>
                       </use>
               </g>
        </defs>

<script type="text/javascript">
var viewWidth = 851;
var viewHeight = 269;
var sectionId = 'dynsection-1';
</script>
<script xlink:href="svgpan.js"/>
<svg id="graph" class="graph">
<g id="viewport">
<title>cache_manager_t::allocate</title>
<polygon fill="white" stroke="transparent" points="-4,4 -4,-264.76 847,-264.76 847,4 -4,4"/>
<!-- Node1 -->
<g id="node1" class="node">
<title>Node1</title>
<g id="a_node1"><a xlink:title=" ">
<polygon fill="#bfbfbf" stroke="black" points="0,-150.76 0,-169.76 148,-169.76 148,-150.76 0,-150.76"/>
<text text-anchor="middle" x="74" y="-157.76" font-family="Helvetica,sans-Serif" font-size="10.00">cache_manager_t::allocate</text>
</a>
</g>
</g>
<!-- Node2 -->
<g id="node2" class="node">
<title>Node2</title>
<g id="a_node2"><a xlink:href="classprefetcher__t.html#a62d920092f778fded99003f7ced7bd76" target="_top" xlink:title=" ">
<polygon fill="white" stroke="black" points="204,-232.76 204,-251.76 325,-251.76 325,-232.76 204,-232.76"/>
<text text-anchor="middle" x="264.5" y="-239.76" font-family="Helvetica,sans-Serif" font-size="10.00">prefetcher_t::allocate</text>
</a>
</g>
</g>
<!-- Node1&#45;&gt;Node2 -->
<g id="edge1" class="edge">
<title>Node1&#45;&gt;Node2</title>
<path fill="none" stroke="midnightblue" d="M92.02,-169.79C113.17,-181.41 150.58,-201.23 184,-215.26 196.3,-220.42 209.97,-225.35 222.46,-229.54"/>
<polygon fill="midnightblue" stroke="midnightblue" points="221.57,-232.93 232.17,-232.74 223.76,-226.29 221.57,-232.93"/>
</g>
<!-- Node4 -->
<g id="node4" class="node">
<title>Node4</title>
<g id="a_node4"><a xlink:href="classconfigure__t.html#a15917e4f43ded0a072c8f1017a9f5035" target="_top" xlink:title=" ">
<polygon fill="white" stroke="black" points="549,-191.76 549,-210.76 672,-210.76 672,-191.76 549,-191.76"/>
<text text-anchor="middle" x="610.5" y="-198.76" font-family="Helvetica,sans-Serif" font-size="10.00">configure_t::getConfig</text>
</a>
</g>
</g>
<!-- Node1&#45;&gt;Node4 -->
<g id="edge6" class="edge">
<title>Node1&#45;&gt;Node4</title>
<path fill="none" stroke="midnightblue" d="M148.2,-165.88C251.03,-173.76 437.01,-188.03 538.59,-195.82"/>
<polygon fill="midnightblue" stroke="midnightblue" points="538.51,-199.32 548.75,-196.6 539.04,-192.35 538.51,-199.32"/>
</g>
<!-- Node5 -->
<g id="node5" class="node">
<title>Node5</title>
<g id="a_node5"><a xlink:href="classutils__t.html#a9db286f7de201c5b004f35c6bcf3d99f" target="_top" xlink:title=" ">
<polygon fill="white" stroke="black" points="558.5,-13.26 558.5,-43.26 662.5,-43.26 662.5,-13.26 558.5,-13.26"/>
<text text-anchor="start" x="566.5" y="-31.26" font-family="Helvetica,sans-Serif" font-size="10.00">utils_t::get_power</text>
<text text-anchor="middle" x="610.5" y="-20.26" font-family="Helvetica,sans-Serif" font-size="10.00">_of_two</text>
</a>
</g>
</g>
<!-- Node1&#45;&gt;Node5 -->
<g id="edge4" class="edge">
<title>Node1&#45;&gt;Node5</title>
<path fill="none" stroke="midnightblue" d="M87.8,-150.74C128.17,-121.42 257.45,-32.87 381,-6.26 436.9,5.78 501.91,-2.59 548.26,-12.27"/>
<polygon fill="midnightblue" stroke="midnightblue" points="547.64,-15.71 558.16,-14.41 549.13,-8.87 547.64,-15.71"/>
</g>
<!-- Node7 -->
<g id="node7" class="node">
<title>Node7</title>
<g id="a_node7"><a xlink:href="classcache__manager__t.html#a1e3c496c5f816599aebe42b32ac345ad" target="_top" xlink:title=" ">
<polygon fill="white" stroke="black" points="184,-104.26 184,-134.26 345,-134.26 345,-104.26 184,-104.26"/>
<text text-anchor="start" x="192" y="-122.26" font-family="Helvetica,sans-Serif" font-size="10.00">cache_manager_t::instantiate</text>
<text text-anchor="middle" x="264.5" y="-111.26" font-family="Helvetica,sans-Serif" font-size="10.00">_cache</text>
</a>
</g>
</g>
<!-- Node1&#45;&gt;Node7 -->
<g id="edge7" class="edge">
<title>Node1&#45;&gt;Node7</title>
<path fill="none" stroke="midnightblue" d="M118.72,-150.75C138.24,-146.51 161.86,-141.37 184.31,-136.49"/>
<polygon fill="midnightblue" stroke="midnightblue" points="185.15,-139.88 194.18,-134.34 183.66,-133.04 185.15,-139.88"/>
</g>
<!-- Node3 -->
<g id="node3" class="node">
<title>Node3</title>
<g id="a_node3"><a xlink:href="classstride__prefetcher__t.html#aea73a6e5159b3979a81f9583f3658b91" target="_top" xlink:title=" ">
<polygon fill="white" stroke="black" points="389,-230.26 389,-260.26 498,-260.26 498,-230.26 389,-230.26"/>
<text text-anchor="start" x="397" y="-248.26" font-family="Helvetica,sans-Serif" font-size="10.00">stride_prefetcher_t</text>
<text text-anchor="middle" x="443.5" y="-237.26" font-family="Helvetica,sans-Serif" font-size="10.00">::allocate</text>
</a>
</g>
</g>
<!-- Node2&#45;&gt;Node3 -->
<g id="edge2" class="edge">
<title>Node2&#45;&gt;Node3</title>
<path fill="none" stroke="midnightblue" d="M325.42,-243.28C342.61,-243.57 361.41,-243.89 378.81,-244.18"/>
<polygon fill="midnightblue" stroke="midnightblue" points="378.82,-247.68 388.88,-244.35 378.94,-240.68 378.82,-247.68"/>
</g>
<!-- Node3&#45;&gt;Node4 -->
<g id="edge3" class="edge">
<title>Node3&#45;&gt;Node4</title>
<path fill="none" stroke="midnightblue" d="M498.07,-230.97C519.34,-225.3 543.54,-218.85 563.95,-213.41"/>
<polygon fill="midnightblue" stroke="midnightblue" points="564.87,-216.78 573.63,-210.83 563.07,-210.02 564.87,-216.78"/>
</g>
<!-- Node6 -->
<g id="node6" class="node">
<title>Node6</title>
<g id="a_node6"><a xlink:href="classutils__t.html#a8dc759ed0961089212af1407f56dde35" target="_top" xlink:title=" ">
<polygon fill="white" stroke="black" points="715,-37.26 715,-67.26 843,-67.26 843,-37.26 715,-37.26"/>
<text text-anchor="start" x="723" y="-55.26" font-family="Helvetica,sans-Serif" font-size="10.00">utils_t::check_if_power</text>
<text text-anchor="middle" x="779" y="-44.26" font-family="Helvetica,sans-Serif" font-size="10.00">_of_two</text>
</a>
</g>
</g>
<!-- Node5&#45;&gt;Node6 -->
<g id="edge5" class="edge">
<title>Node5&#45;&gt;Node6</title>
<path fill="none" stroke="midnightblue" d="M662.81,-35.66C676.04,-37.56 690.53,-39.65 704.64,-41.69"/>
<polygon fill="midnightblue" stroke="midnightblue" points="704.42,-45.19 714.82,-43.15 705.42,-38.26 704.42,-45.19"/>
</g>
<!-- Node8 -->
<g id="node8" class="node">
<title>Node8</title>
<g id="a_node8"><a xlink:href="classcache__t.html#abd6a392dc731acb10e955d9a9b4856e9" target="_top" xlink:title=" ">
<polygon fill="white" stroke="black" points="394,-153.76 394,-172.76 493,-172.76 493,-153.76 394,-153.76"/>
<text text-anchor="middle" x="443.5" y="-160.76" font-family="Helvetica,sans-Serif" font-size="10.00">cache_t::allocate</text>
</a>
</g>
</g>
<!-- Node7&#45;&gt;Node8 -->
<g id="edge8" class="edge">
<title>Node7&#45;&gt;Node8</title>
<path fill="none" stroke="midnightblue" d="M325.92,-134.28C348.31,-139.85 373.38,-146.08 394.51,-151.33"/>
<polygon fill="midnightblue" stroke="midnightblue" points="393.69,-154.73 404.23,-153.75 395.37,-147.94 393.69,-154.73"/>
</g>
<!-- Node11 -->
<g id="node11" class="node">
<title>Node11</title>
<g id="a_node11"><a xlink:href="classcache__manager__t.html#a0ad6eb9a43a5d6c06ae3892c1d5c0674" target="_top" xlink:title=" ">
<polygon fill="white" stroke="black" points="542,-62.26 542,-92.26 679,-92.26 679,-62.26 542,-62.26"/>
<text text-anchor="start" x="550" y="-80.26" font-family="Helvetica,sans-Serif" font-size="10.00">cache_manager_t::check</text>
<text text-anchor="middle" x="610.5" y="-69.26" font-family="Helvetica,sans-Serif" font-size="10.00">_cache</text>
</a>
</g>
</g>
<!-- Node7&#45;&gt;Node11 -->
<g id="edge13" class="edge">
<title>Node7&#45;&gt;Node11</title>
<path fill="none" stroke="midnightblue" d="M330.61,-104.23C346.98,-100.87 364.58,-97.6 381,-95.26 430.89,-88.14 487.33,-83.66 531.64,-80.95"/>
<polygon fill="midnightblue" stroke="midnightblue" points="531.99,-84.44 541.76,-80.35 531.57,-77.45 531.99,-84.44"/>
</g>
<!-- Node12 -->
<g id="node12" class="node">
<title>Node12</title>
<g id="a_node12"><a xlink:href="classcache__manager__t.html#a76e133c90c8da4b11f2ee516c4b818e7" target="_top" xlink:title=" ">
<polygon fill="white" stroke="black" points="381,-16.26 381,-46.26 506,-46.26 506,-16.26 381,-16.26"/>
<text text-anchor="start" x="389" y="-34.26" font-family="Helvetica,sans-Serif" font-size="10.00">cache_manager_t::get</text>
<text text-anchor="middle" x="443.5" y="-23.26" font-family="Helvetica,sans-Serif" font-size="10.00">_cache_info</text>
</a>
</g>
</g>
<!-- Node7&#45;&gt;Node12 -->
<g id="edge15" class="edge">
<title>Node7&#45;&gt;Node12</title>
<path fill="none" stroke="midnightblue" d="M295.37,-104.14C318.66,-92.38 351.84,-75.69 381,-61.26 387.81,-57.89 395.05,-54.33 402.09,-50.89"/>
<polygon fill="midnightblue" stroke="midnightblue" points="404.04,-53.83 411.49,-46.3 400.97,-47.54 404.04,-53.83"/>
</g>
<!-- Node13 -->
<g id="node13" class="node">
<title>Node13</title>
<g id="a_node13"><a xlink:href="classcache__manager__t.html#a3cf1931ee488ca42525ee8e9d4b9c813" target="_top" xlink:title=" ">
<polygon fill="white" stroke="black" points="381,-104.26 381,-134.26 506,-134.26 506,-104.26 381,-104.26"/>
<text text-anchor="start" x="389" y="-122.26" font-family="Helvetica,sans-Serif" font-size="10.00">cache_manager_t::get</text>
<text text-anchor="middle" x="443.5" y="-111.26" font-family="Helvetica,sans-Serif" font-size="10.00">_cache_levels</text>
</a>
</g>
</g>
<!-- Node7&#45;&gt;Node13 -->
<g id="edge17" class="edge">
<title>Node7&#45;&gt;Node13</title>
<path fill="none" stroke="midnightblue" d="M345.2,-119.26C353.68,-119.26 362.27,-119.26 370.65,-119.26"/>
<polygon fill="midnightblue" stroke="midnightblue" points="370.75,-122.76 380.75,-119.26 370.75,-115.76 370.75,-122.76"/>
</g>
<!-- Node8&#45;&gt;Node4 -->
<g id="edge12" class="edge">
<title>Node8&#45;&gt;Node4</title>
<path fill="none" stroke="midnightblue" d="M486.14,-172.85C508.01,-177.89 535.01,-184.1 558.16,-189.44"/>
<polygon fill="midnightblue" stroke="midnightblue" points="557.63,-192.91 568.16,-191.74 559.2,-186.09 557.63,-192.91"/>
</g>
<!-- Node8&#45;&gt;Node5 -->
<g id="edge11" class="edge">
<title>Node8&#45;&gt;Node5</title>
<path fill="none" stroke="midnightblue" d="M491.6,-153.67C496.86,-151.22 501.82,-148.13 506,-144.26 537.92,-114.71 510.91,-83.68 542,-53.26 544.37,-50.94 546.97,-48.84 549.73,-46.93"/>
<polygon fill="midnightblue" stroke="midnightblue" points="551.61,-49.88 558.41,-41.75 548.03,-43.87 551.61,-49.88"/>
</g>
<!-- Node9 -->
<g id="node9" class="node">
<title>Node9</title>
<g id="a_node9"><a xlink:href="classline__t.html#aa935a6ea8da96e58699f841b579d1c3b" target="_top" xlink:title=" ">
<polygon fill="white" stroke="black" points="566,-115.76 566,-134.76 655,-134.76 655,-115.76 566,-115.76"/>
<text text-anchor="middle" x="610.5" y="-122.76" font-family="Helvetica,sans-Serif" font-size="10.00">line_t::allocate</text>
</a>
</g>
</g>
<!-- Node8&#45;&gt;Node9 -->
<g id="edge9" class="edge">
<title>Node8&#45;&gt;Node9</title>
<path fill="none" stroke="midnightblue" d="M486.14,-153.67C508.01,-148.63 535.01,-142.42 558.16,-137.08"/>
<polygon fill="midnightblue" stroke="midnightblue" points="559.2,-140.44 568.16,-134.78 557.63,-133.61 559.2,-140.44"/>
</g>
<!-- Node10 -->
<g id="node10" class="node">
<title>Node10</title>
<g id="a_node10"><a xlink:href="classline__t.html#a5b92a71c2f16f2a194f9863284215556" target="_top" xlink:title=" ">
<polygon fill="white" stroke="black" points="561,-153.76 561,-172.76 660,-172.76 660,-153.76 561,-153.76"/>
<text text-anchor="middle" x="610.5" y="-160.76" font-family="Helvetica,sans-Serif" font-size="10.00">line_t::clean_line</text>
</a>
</g>
</g>
<!-- Node8&#45;&gt;Node10 -->
<g id="edge10" class="edge">
<title>Node8&#45;&gt;Node10</title>
<path fill="none" stroke="midnightblue" d="M493.11,-163.26C511.24,-163.26 532.02,-163.26 550.95,-163.26"/>
<polygon fill="midnightblue" stroke="midnightblue" points="550.95,-166.76 560.95,-163.26 550.95,-159.76 550.95,-166.76"/>
</g>
<!-- Node11&#45;&gt;Node6 -->
<g id="edge14" class="edge">
<title>Node11&#45;&gt;Node6</title>
<path fill="none" stroke="midnightblue" d="M679.22,-67.09C687.7,-65.82 696.4,-64.51 704.95,-63.23"/>
<polygon fill="midnightblue" stroke="midnightblue" points="705.54,-66.68 714.91,-61.73 704.5,-59.76 705.54,-66.68"/>
</g>
<!-- Node12&#45;&gt;Node5 -->
<g id="edge16" class="edge">
<title>Node12&#45;&gt;Node5</title>
<path fill="none" stroke="midnightblue" d="M506.41,-30.13C520.04,-29.89 534.46,-29.62 548.07,-29.38"/>
<polygon fill="midnightblue" stroke="midnightblue" points="548.36,-32.87 558.29,-29.19 548.23,-25.87 548.36,-32.87"/>
</g>
</g>
</svg>
        <g id="navigator" transform="translate(0 0)" fill="#404254">
                <rect fill="#f2f5e9" fill-opacity="0.5" stroke="#606060" stroke-width=".5" x="0" y="0" width="60" height="60"/>
                <use id="zoomplus" xlink:href="#zoomPlus" x="17" y="9" onmousedown="handleZoom(evt,'in')"/>
                <use id="zoomminus" xlink:href="#zoomMin" x="42" y="9" onmousedown="handleZoom(evt,'out')"/>
                <use id="reset" xlink:href="#resetDef" x="30" y="36" onmousedown="handleReset()"/>
                <g id="arrowUp" xlink:href="#dirArrow" transform="translate(30 24)" onmousedown="handlePan(0,-1)">
                  <use xlink:href="#rim" fill="#404040">
                        <set attributeName="fill" to="#808080" begin="arrowUp.mouseover" end="arrowUp.mouseout"/>
                  </use>
                  <path fill="none" stroke="white" stroke-width="1.5" d="M0,-3.0v7 M-2.5,-0.5L0,-3.0L2.5,-0.5"/>
                </g>
                <g id="arrowRight" xlink:href="#dirArrow" transform="rotate(90) translate(36 -43)" onmousedown="handlePan(1,0)">
                  <use xlink:href="#rim" fill="#404040">
                        <set attributeName="fill" to="#808080" begin="arrowRight.mouseover" end="arrowRight.mouseout"/>
                  </use>
                  <path fill="none" stroke="white" stroke-width="1.5" d="M0,-3.0v7 M-2.5,-0.5L0,-3.0L2.5,-0.5"/>
                </g>
                <g id="arrowDown" xlink:href="#dirArrow" transform="rotate(180) translate(-30 -48)" onmousedown="handlePan(0,1)">
                  <use xlink:href="#rim" fill="#404040">
                        <set attributeName="fill" to="#808080" begin="arrowDown.mouseover" end="arrowDown.mouseout"/>
                  </use>
                  <path fill="none" stroke="white" stroke-width="1.5" d="M0,-3.0v7 M-2.5,-0.5L0,-3.0L2.5,-0.5"/>
                </g>
                <g id="arrowLeft" xlink:href="#dirArrow" transform="rotate(270) translate(-36 17)" onmousedown="handlePan(-1,0)">
                  <use xlink:href="#rim" fill="#404040">
                        <set attributeName="fill" to="#808080" begin="arrowLeft.mouseover" end="arrowLeft.mouseout"/>
                  </use>
                  <path fill="none" stroke="white" stroke-width="1.5" d="M0,-3.0v7 M-2.5,-0.5L0,-3.0L2.5,-0.5"/>
                </g>
        </g>
        <svg viewBox="0 0 15 15" width="100%" height="30px" preserveAspectRatio="xMaxYMin meet">
         <g id="arrow_out" transform="scale(0.3 0.3)">
          <a xlink:href="classcache__manager__t_aea6063e09d38c2e9e35a0809bfc22542_cgraph_org.svg" target="_base">
           <rect id="button" ry="5" rx="5" y="6" x="6" height="38" width="38"
                fill="#f2f5e9" fill-opacity="0.5" stroke="#606060" stroke-width="1.0"/>
           <path id="arrow"
             d="M 11.500037,31.436501 C 11.940474,20.09759 22.043105,11.32322 32.158766,21.979434 L 37.068811,17.246167 C 37.068811,17.246167 37.088388,32 37.088388,32 L 22.160133,31.978069 C 22.160133,31.978069 26.997745,27.140456 26.997745,27.140456 C 18.528582,18.264221 13.291696,25.230495 11.500037,31.436501 z"
             style="fill:#404040;"/>
          </a>
         </g>
        </svg>
</svg>
