<?xml version="1.0" encoding="UTF-8" standalone="no"?>
<!DOCTYPE svg PUBLIC "-//W3C//DTD SVG 1.1//EN"
 "http://www.w3.org/Graphics/SVG/1.1/DTD/svg11.dtd">
<!-- Generated by graphviz version 2.43.0 (0)
 -->
<!-- Title: vima_controller_t Pages: 1 -->
<svg width="155pt" height="228pt"
 viewBox="0.00 0.00 154.50 228.00" xmlns="http://www.w3.org/2000/svg" xmlns:xlink="http://www.w3.org/1999/xlink">
<g id="graph0" class="graph" transform="scale(1 1) rotate(0) translate(4 224)">
<title>vima_controller_t</title>
<polygon fill="white" stroke="transparent" points="-4,4 -4,-224 150.5,-224 150.5,4 -4,4"/>
<!-- Node1 -->
<g id="node1" class="node">
<title>Node1</title>
<g id="a_node1"><a xlink:title=" ">
<polygon fill="#bfbfbf" stroke="black" points="5.5,-0.5 5.5,-19.5 107.5,-19.5 107.5,-0.5 5.5,-0.5"/>
<text text-anchor="middle" x="56.5" y="-7.5" font-family="Helvetica,sans-Serif" font-size="10.00">vima_controller_t</text>
</a>
</g>
</g>
<!-- Node2 -->
<g id="node2" class="node">
<title>Node2</title>
<g id="a_node2"><a xlink:href="classvima__vector__t.html" target="_top" xlink:title=" ">
<polygon fill="white" stroke="black" points="13.5,-133.5 13.5,-152.5 99.5,-152.5 99.5,-133.5 13.5,-133.5"/>
<text text-anchor="middle" x="56.5" y="-140.5" font-family="Helvetica,sans-Serif" font-size="10.00">vima_vector_t</text>
</a>
</g>
</g>
<!-- Node2&#45;&gt;Node1 -->
<g id="edge1" class="edge">
<title>Node2&#45;&gt;Node1</title>
<path fill="none" stroke="#9a32cd" stroke-dasharray="5,2" d="M56.5,-123.09C56.5,-94.36 56.5,-40.82 56.5,-19.8"/>
<polygon fill="#9a32cd" stroke="#9a32cd" points="53,-123.4 56.5,-133.4 60,-123.4 53,-123.4"/>
<text text-anchor="middle" x="101.5" y="-107" font-family="Helvetica,sans-Serif" font-size="10.00"> cache</text>
<text text-anchor="middle" x="101.5" y="-96" font-family="Helvetica,sans-Serif" font-size="10.00">read1</text>
<text text-anchor="middle" x="101.5" y="-85" font-family="Helvetica,sans-Serif" font-size="10.00">read1_unbalanced</text>
<text text-anchor="middle" x="101.5" y="-74" font-family="Helvetica,sans-Serif" font-size="10.00">read2</text>
<text text-anchor="middle" x="101.5" y="-63" font-family="Helvetica,sans-Serif" font-size="10.00">read2_unbalanced</text>
<text text-anchor="middle" x="101.5" y="-52" font-family="Helvetica,sans-Serif" font-size="10.00">write</text>
<text text-anchor="middle" x="101.5" y="-41" font-family="Helvetica,sans-Serif" font-size="10.00">write_unbalanced</text>
</g>
<!-- Node3 -->
<g id="node3" class="node">
<title>Node3</title>
<g id="a_node3"><a xlink:href="classmemory__package__t.html" target="_top" xlink:title=" ">
<polygon fill="white" stroke="black" points="0,-200.5 0,-219.5 113,-219.5 113,-200.5 0,-200.5"/>
<text text-anchor="middle" x="56.5" y="-207.5" font-family="Helvetica,sans-Serif" font-size="10.00">memory_package_t</text>
</a>
</g>
</g>
<!-- Node3&#45;&gt;Node2 -->
<g id="edge2" class="edge">
<title>Node3&#45;&gt;Node2</title>
<path fill="none" stroke="#9a32cd" stroke-dasharray="5,2" d="M56.5,-190.04C56.5,-177.67 56.5,-162.12 56.5,-152.63"/>
<polygon fill="#9a32cd" stroke="#9a32cd" points="53,-190.23 56.5,-200.23 60,-190.23 53,-190.23"/>
<text text-anchor="middle" x="90.5" y="-174" font-family="Helvetica,sans-Serif" font-size="10.00"> sub_requests</text>
</g>
</g>
</svg>
