<?xml version="1.0" encoding="UTF-8" standalone="no"?>
<!DOCTYPE svg PUBLIC "-//W3C//DTD SVG 1.1//EN"
 "http://www.w3.org/Graphics/SVG/1.1/DTD/svg11.dtd">
<!-- Generated by graphviz version 2.43.0 (0)
 -->
<!-- Title: cache_t::writeBack Pages: 1 -->
<svg width="517pt" height="176pt"
 viewBox="0.00 0.00 517.00 175.74" xmlns="http://www.w3.org/2000/svg" xmlns:xlink="http://www.w3.org/1999/xlink">
<g id="graph0" class="graph" transform="scale(1 1) rotate(0) translate(4 171.74)">
<title>cache_t::writeBack</title>
<polygon fill="white" stroke="transparent" points="-4,4 -4,-171.74 513,-171.74 513,4 -4,4"/>
<!-- Node1 -->
<g id="node1" class="node">
<title>Node1</title>
<g id="a_node1"><a xlink:title=" ">
<polygon fill="#bfbfbf" stroke="black" points="0,-88 0,-107 109,-107 109,-88 0,-88"/>
<text text-anchor="middle" x="54.5" y="-95" font-family="Helvetica,sans-Serif" font-size="10.00">cache_t::writeBack</text>
</a>
</g>
</g>
<!-- Node2 -->
<g id="node2" class="node">
<title>Node2</title>
<g id="a_node2"><a xlink:href="classline__t.html#a5b92a71c2f16f2a194f9863284215556" target="_top" xlink:title=" ">
<polygon fill="white" stroke="black" points="364.5,-137 364.5,-156 463.5,-156 463.5,-137 364.5,-137"/>
<text text-anchor="middle" x="414" y="-144" font-family="Helvetica,sans-Serif" font-size="10.00">line_t::clean_line</text>
</a>
</g>
</g>
<!-- Node1&#45;&gt;Node2 -->
<g id="edge1" class="edge">
<title>Node1&#45;&gt;Node2</title>
<path fill="none" stroke="midnightblue" d="M66.06,-107.14C81.85,-120.81 113.16,-145.22 145,-154.5 216.73,-175.4 303.87,-166.95 358.89,-157.73"/>
<polygon fill="midnightblue" stroke="midnightblue" points="359.53,-161.18 368.78,-156.01 358.33,-154.28 359.53,-161.18"/>
</g>
<!-- Node3 -->
<g id="node3" class="node">
<title>Node3</title>
<g id="a_node3"><a xlink:href="classcache__t.html#a926d33bfce8203d4291ee5e11fe58678" target="_top" xlink:title=" ">
<polygon fill="white" stroke="black" points="156.5,-126 156.5,-145 271.5,-145 271.5,-126 156.5,-126"/>
<text text-anchor="middle" x="214" y="-133" font-family="Helvetica,sans-Serif" font-size="10.00">cache_t::copyLevels</text>
</a>
</g>
</g>
<!-- Node1&#45;&gt;Node3 -->
<g id="edge2" class="edge">
<title>Node1&#45;&gt;Node3</title>
<path fill="none" stroke="midnightblue" d="M95.24,-107.09C116.03,-112.1 141.66,-118.29 163.7,-123.61"/>
<polygon fill="midnightblue" stroke="midnightblue" points="163,-127.04 173.54,-125.98 164.64,-120.23 163,-127.04"/>
</g>
<!-- Node4 -->
<g id="node4" class="node">
<title>Node4</title>
<g id="a_node4"><a xlink:href="classorcs__engine__t.html#a1c033e3455736ba89052a40c69ebe0af" target="_top" xlink:title=" ">
<polygon fill="white" stroke="black" points="361,-71.5 361,-101.5 467,-101.5 467,-71.5 361,-71.5"/>
<text text-anchor="start" x="369" y="-89.5" font-family="Helvetica,sans-Serif" font-size="10.00">orcs_engine_t::get</text>
<text text-anchor="middle" x="414" y="-78.5" font-family="Helvetica,sans-Serif" font-size="10.00">_global_cycle</text>
</a>
</g>
</g>
<!-- Node1&#45;&gt;Node4 -->
<g id="edge7" class="edge">
<title>Node1&#45;&gt;Node4</title>
<path fill="none" stroke="midnightblue" d="M109.02,-95.85C173.68,-93.86 282.28,-90.52 350.66,-88.42"/>
<polygon fill="midnightblue" stroke="midnightblue" points="350.97,-91.91 360.86,-88.1 350.76,-84.91 350.97,-91.91"/>
</g>
<!-- Node5 -->
<g id="node5" class="node">
<title>Node5</title>
<g id="a_node5"><a xlink:href="classcache__t.html#abaf4210052b55d606e99604f6c2056b0" target="_top" xlink:title=" ">
<polygon fill="white" stroke="black" points="145,-50 145,-69 283,-69 283,-50 145,-50"/>
<text text-anchor="middle" x="214" y="-57" font-family="Helvetica,sans-Serif" font-size="10.00">cache_t::copyNextLevels</text>
</a>
</g>
</g>
<!-- Node1&#45;&gt;Node5 -->
<g id="edge5" class="edge">
<title>Node1&#45;&gt;Node5</title>
<path fill="none" stroke="midnightblue" d="M95.24,-87.91C116.03,-82.9 141.66,-76.71 163.7,-71.39"/>
<polygon fill="midnightblue" stroke="midnightblue" points="164.64,-74.77 173.54,-69.02 163,-67.96 164.64,-74.77"/>
</g>
<!-- Node6 -->
<g id="node6" class="node">
<title>Node6</title>
<g id="a_node6"><a xlink:href="classmemory__controller__t.html#ad78d3fe5a6cf2ee6e22f9e563dd6e20e" target="_top" xlink:title=" ">
<polygon fill="white" stroke="black" points="154.5,-0.5 154.5,-30.5 273.5,-30.5 273.5,-0.5 154.5,-0.5"/>
<text text-anchor="start" x="162.5" y="-18.5" font-family="Helvetica,sans-Serif" font-size="10.00">memory_controller_t</text>
<text text-anchor="middle" x="214" y="-7.5" font-family="Helvetica,sans-Serif" font-size="10.00">::requestDRAM</text>
</a>
</g>
</g>
<!-- Node1&#45;&gt;Node6 -->
<g id="edge8" class="edge">
<title>Node1&#45;&gt;Node6</title>
<path fill="none" stroke="midnightblue" d="M68.62,-87.87C85.61,-75.7 116.44,-54.64 145,-40.5 149.28,-38.38 153.79,-36.34 158.37,-34.4"/>
<polygon fill="midnightblue" stroke="midnightblue" points="159.85,-37.57 167.8,-30.57 157.22,-31.09 159.85,-37.57"/>
</g>
<!-- Node3&#45;&gt;Node2 -->
<g id="edge3" class="edge">
<title>Node3&#45;&gt;Node2</title>
<path fill="none" stroke="midnightblue" d="M271.74,-138.65C297.56,-140.09 328.11,-141.78 354.19,-143.23"/>
<polygon fill="midnightblue" stroke="midnightblue" points="354.13,-146.73 364.31,-143.8 354.52,-139.75 354.13,-146.73"/>
</g>
<!-- Node3&#45;&gt;Node4 -->
<g id="edge4" class="edge">
<title>Node3&#45;&gt;Node4</title>
<path fill="none" stroke="midnightblue" d="M253.65,-125.94C281.27,-119.1 319.03,-109.76 350.86,-101.88"/>
<polygon fill="midnightblue" stroke="midnightblue" points="352.1,-105.18 360.96,-99.38 350.41,-98.38 352.1,-105.18"/>
</g>
<!-- Node5&#45;&gt;Node4 -->
<g id="edge6" class="edge">
<title>Node5&#45;&gt;Node4</title>
<path fill="none" stroke="midnightblue" d="M283.14,-68.79C305.06,-71.78 329.23,-75.08 350.71,-78.01"/>
<polygon fill="midnightblue" stroke="midnightblue" points="350.31,-81.48 360.69,-79.37 351.25,-74.55 350.31,-81.48"/>
</g>
<!-- Node6&#45;&gt;Node4 -->
<g id="edge10" class="edge">
<title>Node6&#45;&gt;Node4</title>
<path fill="none" stroke="midnightblue" d="M256.99,-30.56C287.44,-41.48 328.81,-56.31 361.29,-67.96"/>
<polygon fill="midnightblue" stroke="midnightblue" points="360.48,-71.38 371.07,-71.46 362.84,-64.79 360.48,-71.38"/>
</g>
<!-- Node7 -->
<g id="node7" class="node">
<title>Node7</title>
<g id="a_node7"><a xlink:href="enumerations_8cpp.html#abb39d040475b58d11b29c242b33091e1" target="_top" xlink:title="Enumerates the MEMORY OPERATION OF MOB,debug only.">
<polygon fill="white" stroke="black" points="319,-6 319,-25 509,-25 509,-6 319,-6"/>
<text text-anchor="middle" x="414" y="-13" font-family="Helvetica,sans-Serif" font-size="10.00">get_enum_memory_operation_char</text>
</a>
</g>
</g>
<!-- Node6&#45;&gt;Node7 -->
<g id="edge9" class="edge">
<title>Node6&#45;&gt;Node7</title>
<path fill="none" stroke="midnightblue" d="M273.6,-15.5C284.74,-15.5 296.7,-15.5 308.76,-15.5"/>
<polygon fill="midnightblue" stroke="midnightblue" points="308.9,-19 318.9,-15.5 308.9,-12 308.9,-19"/>
</g>
</g>
</svg>
