<?xml version="1.0" encoding="UTF-8" standalone="no"?>
<!DOCTYPE svg PUBLIC "-//W3C//DTD SVG 1.1//EN"
 "http://www.w3.org/Graphics/SVG/1.1/DTD/svg11.dtd">
<!-- Generated by graphviz version 2.43.0 (0)
 -->
<!-- Title: processor_t Pages: 1 -->
<!--zoomable 362 -->
<svg id="main" version="1.1" xmlns="http://www.w3.org/2000/svg" xmlns:xlink="http://www.w3.org/1999/xlink" xml:space="preserve" onload="init(evt)">
<style type="text/css"><![CDATA[
.edge:hover path { stroke: red; }
.edge:hover polygon { stroke: red; fill: red; }
]]></style>
<script type="text/javascript"><![CDATA[
var edges = document.getElementsByTagName('g');
if (edges && edges.length) {
  for (var i=0;i<edges.length;i++) {
    if (edges[i].id.substr(0,4)=='edge') {
      edges[i].setAttribute('class','edge');
    }
  }
}
]]></script>
        <defs>
                <circle id="rim" cx="0" cy="0" r="7"/>
                <circle id="rim2" cx="0" cy="0" r="3.5"/>
                <g id="zoomPlus">
                        <use xlink:href="#rim" fill="#404040">
                                <set attributeName="fill" to="#808080" begin="zoomplus.mouseover" end="zoomplus.mouseout"/>
                        </use>
                        <path d="M-4,0h8M0,-4v8" fill="none" stroke="white" stroke-width="1.5" pointer-events="none"/>
                </g>
                <g id="zoomMin">
                        <use xlink:href="#rim" fill="#404040">
                                <set attributeName="fill" to="#808080" begin="zoomminus.mouseover" end="zoomminus.mouseout"/>
                        </use>
                        <path d="M-4,0h8" fill="none" stroke="white" stroke-width="1.5" pointer-events="none"/>
                </g>
                <g id="dirArrow">
                        <path fill="none" stroke="white" stroke-width="1.5" d="M0,-3.0v7 M-2.5,-0.5L0,-3.0L2.5,-0.5"/>
                </g>
               <g id="resetDef">
                       <use xlink:href="#rim2" fill="#404040">
                               <set attributeName="fill" to="#808080" begin="reset.mouseover" end="reset.mouseout"/>
                       </use>
               </g>
        </defs>

<script type="text/javascript">
var viewWidth = 650;
var viewHeight = 362;
var sectionId = 'dynsection-0';
</script>
<script xlink:href="svgpan.js"/>
<svg id="graph" class="graph">
<g id="viewport">
<title>processor_t</title>
<polygon fill="white" stroke="transparent" points="-4,4 -4,-358 645.5,-358 645.5,4 -4,4"/>
<!-- Node1 -->
<g id="node1" class="node">
<title>Node1</title>
<g id="a_node1"><a xlink:title=" ">
<polygon fill="#bfbfbf" stroke="black" points="178,-0.5 178,-19.5 251,-19.5 251,-0.5 178,-0.5"/>
<text text-anchor="middle" x="214.5" y="-7.5" font-family="Helvetica,sans-Serif" font-size="10.00">processor_t</text>
</a>
</g>
</g>
<!-- Node2 -->
<g id="node2" class="node">
<title>Node2</title>
<g id="a_node2"><a xlink:href="classopcode__package__t.html" target="_top" xlink:title=" ">
<polygon fill="white" stroke="black" points="0,-228.5 0,-247.5 107,-247.5 107,-228.5 0,-228.5"/>
<text text-anchor="middle" x="53.5" y="-235.5" font-family="Helvetica,sans-Serif" font-size="10.00">opcode_package_t</text>
</a>
</g>
</g>
<!-- Node2&#45;&gt;Node1 -->
<g id="edge1" class="edge">
<title>Node2&#45;&gt;Node1</title>
<path fill="none" stroke="#9a32cd" stroke-dasharray="5,2" d="M48.78,-218.41C41.86,-186.66 32.68,-121.21 61.5,-78 87.49,-39.04 141.58,-22.57 177.97,-15.72"/>
<polygon fill="#9a32cd" stroke="#9a32cd" points="45.45,-219.56 51.15,-228.49 52.27,-217.95 45.45,-219.56"/>
<text text-anchor="middle" x="99.5" y="-147" font-family="Helvetica,sans-Serif" font-size="10.00"> opcodeError</text>
<text text-anchor="middle" x="99.5" y="-136" font-family="Helvetica,sans-Serif" font-size="10.00">previousBranch</text>
</g>
<!-- Node3 -->
<g id="node3" class="node">
<title>Node3</title>
<g id="a_node3"><a xlink:href="classmemory__request__client__t.html" target="_top" xlink:title=" ">
<polygon fill="white" stroke="black" points="6,-334.5 6,-353.5 147,-353.5 147,-334.5 6,-334.5"/>
<text text-anchor="middle" x="76.5" y="-341.5" font-family="Helvetica,sans-Serif" font-size="10.00">memory_request_client_t</text>
</a>
</g>
</g>
<!-- Node3&#45;&gt;Node2 -->
<g id="edge2" class="edge">
<title>Node3&#45;&gt;Node2</title>
<path fill="none" stroke="midnightblue" d="M72.39,-324.43C67.38,-301.77 59.12,-264.41 55.41,-247.63"/>
<polygon fill="midnightblue" stroke="midnightblue" points="69.04,-325.48 74.62,-334.49 75.88,-323.97 69.04,-325.48"/>
</g>
<!-- Node6 -->
<g id="node6" class="node">
<title>Node6</title>
<g id="a_node6"><a xlink:href="classmemory__order__buffer__line__t.html" target="_top" xlink:title=" ">
<polygon fill="white" stroke="black" points="98.5,-266.5 98.5,-296.5 220.5,-296.5 220.5,-266.5 98.5,-266.5"/>
<text text-anchor="start" x="106.5" y="-284.5" font-family="Helvetica,sans-Serif" font-size="10.00">memory_order_buffer</text>
<text text-anchor="middle" x="159.5" y="-273.5" font-family="Helvetica,sans-Serif" font-size="10.00">_line_t</text>
</a>
</g>
</g>
<!-- Node3&#45;&gt;Node6 -->
<g id="edge7" class="edge">
<title>Node3&#45;&gt;Node6</title>
<path fill="none" stroke="midnightblue" d="M96.83,-328.18C110.07,-318.53 127.24,-306.01 140.26,-296.53"/>
<polygon fill="midnightblue" stroke="midnightblue" points="94.41,-325.61 88.39,-334.33 98.53,-331.27 94.41,-325.61"/>
</g>
<!-- Node4 -->
<g id="node4" class="node">
<title>Node4</title>
<g id="a_node4"><a xlink:href="classreorder__buffer__line__t.html" target="_top" xlink:title=" ">
<polygon fill="white" stroke="black" points="286.5,-134.5 286.5,-153.5 404.5,-153.5 404.5,-134.5 286.5,-134.5"/>
<text text-anchor="middle" x="345.5" y="-141.5" font-family="Helvetica,sans-Serif" font-size="10.00">reorder_buffer_line_t</text>
</a>
</g>
</g>
<!-- Node4&#45;&gt;Node1 -->
<g id="edge3" class="edge">
<title>Node4&#45;&gt;Node1</title>
<path fill="none" stroke="#9a32cd" stroke-dasharray="5,2" d="M329.52,-126.9C301.5,-98.67 244.46,-41.19 222.96,-19.52"/>
<polygon fill="#9a32cd" stroke="#9a32cd" points="327.38,-129.71 336.9,-134.34 332.34,-124.78 327.38,-129.71"/>
<text text-anchor="middle" x="311.5" y="-52" font-family="Helvetica,sans-Serif" font-size="10.00"> register_alias_table</text>
<text text-anchor="middle" x="311.5" y="-41" font-family="Helvetica,sans-Serif" font-size="10.00">reorderBuffer</text>
</g>
<!-- Node4&#45;&gt;Node4 -->
<g id="edge5" class="edge">
<title>Node4&#45;&gt;Node4</title>
<path fill="none" stroke="#9a32cd" stroke-dasharray="5,2" d="M369.25,-157.52C394.3,-165.93 422.5,-161.42 422.5,-144 422.5,-124.36 386.63,-121.13 359.87,-134.33"/>
<polygon fill="#9a32cd" stroke="#9a32cd" points="370.45,-154.23 359.87,-153.67 367.79,-160.71 370.45,-154.23"/>
<text text-anchor="middle" x="471" y="-141.5" font-family="Helvetica,sans-Serif" font-size="10.00"> reg_deps_ptr_array</text>
</g>
<!-- Node4&#45;&gt;Node6 -->
<g id="edge8" class="edge">
<title>Node4&#45;&gt;Node6</title>
<path fill="none" stroke="#9a32cd" stroke-dasharray="5,2" d="M341.37,-163.78C335.24,-187.12 321.44,-226.5 294.5,-248 273.68,-264.62 245.68,-272.95 220.58,-277.04"/>
<polygon fill="#9a32cd" stroke="#9a32cd" points="344.85,-164.3 343.79,-153.76 338.04,-162.66 344.85,-164.3"/>
<text text-anchor="middle" x="331.5" y="-235.5" font-family="Helvetica,sans-Serif" font-size="10.00"> rob_ptr</text>
</g>
<!-- Node5 -->
<g id="node5" class="node">
<title>Node5</title>
<g id="a_node5"><a xlink:href="classuop__package__t.html" target="_top" xlink:title=" ">
<polygon fill="white" stroke="black" points="364,-272 364,-291 453,-291 453,-272 364,-272"/>
<text text-anchor="middle" x="408.5" y="-279" font-family="Helvetica,sans-Serif" font-size="10.00">uop_package_t</text>
</a>
</g>
</g>
<!-- Node5&#45;&gt;Node4 -->
<g id="edge4" class="edge">
<title>Node5&#45;&gt;Node4</title>
<path fill="none" stroke="#9a32cd" stroke-dasharray="5,2" d="M400.11,-262.45C386.4,-232.98 359.73,-175.61 349.57,-153.75"/>
<polygon fill="#9a32cd" stroke="#9a32cd" points="396.98,-264.02 404.37,-271.61 403.32,-261.07 396.98,-264.02"/>
<text text-anchor="middle" x="404.5" y="-235.5" font-family="Helvetica,sans-Serif" font-size="10.00"> uop</text>
</g>
<!-- Node6&#45;&gt;Node1 -->
<g id="edge11" class="edge">
<title>Node6&#45;&gt;Node1</title>
<path fill="none" stroke="#9a32cd" stroke-dasharray="5,2" d="M156.35,-255.93C152.28,-217.03 147.96,-139.35 168.5,-78 176.38,-54.45 195.17,-31.61 206.14,-19.64"/>
<polygon fill="#9a32cd" stroke="#9a32cd" points="152.92,-256.73 157.52,-266.27 159.87,-255.94 152.92,-256.73"/>
<text text-anchor="start" x="168.5" y="-202" font-family="Helvetica,sans-Serif" font-size="10.00"> memory_order_buffer</text>
<text text-anchor="middle" x="223" y="-191" font-family="Helvetica,sans-Serif" font-size="10.00">_hive</text>
<text text-anchor="start" x="168.5" y="-180" font-family="Helvetica,sans-Serif" font-size="10.00">memory_order_buffer</text>
<text text-anchor="middle" x="223" y="-169" font-family="Helvetica,sans-Serif" font-size="10.00">_read</text>
<text text-anchor="start" x="168.5" y="-158" font-family="Helvetica,sans-Serif" font-size="10.00">memory_order_buffer</text>
<text text-anchor="middle" x="223" y="-147" font-family="Helvetica,sans-Serif" font-size="10.00">_vima</text>
<text text-anchor="start" x="168.5" y="-136" font-family="Helvetica,sans-Serif" font-size="10.00">memory_order_buffer</text>
<text text-anchor="middle" x="223" y="-125" font-family="Helvetica,sans-Serif" font-size="10.00">_write</text>
<text text-anchor="middle" x="223" y="-114" font-family="Helvetica,sans-Serif" font-size="10.00">oldest_hive_to_send</text>
<text text-anchor="middle" x="223" y="-103" font-family="Helvetica,sans-Serif" font-size="10.00">oldest_read_to_send</text>
<text text-anchor="middle" x="223" y="-92" font-family="Helvetica,sans-Serif" font-size="10.00">oldest_vima_to_send</text>
<text text-anchor="middle" x="223" y="-81" font-family="Helvetica,sans-Serif" font-size="10.00">oldest_write_to_send</text>
</g>
<!-- Node6&#45;&gt;Node4 -->
<g id="edge6" class="edge">
<title>Node6&#45;&gt;Node4</title>
<path fill="none" stroke="#9a32cd" stroke-dasharray="5,2" d="M193.69,-261.22C216.63,-247.8 247.17,-228.96 272.5,-210 297.22,-191.49 323.69,-166.45 336.92,-153.51"/>
<polygon fill="#9a32cd" stroke="#9a32cd" points="191.89,-258.22 184.99,-266.27 195.4,-264.28 191.89,-258.22"/>
<text text-anchor="middle" x="268.5" y="-235.5" font-family="Helvetica,sans-Serif" font-size="10.00"> mob_ptr</text>
</g>
<!-- Node6&#45;&gt;Node6 -->
<g id="edge9" class="edge">
<title>Node6&#45;&gt;Node6</title>
<path fill="none" stroke="#9a32cd" stroke-dasharray="5,2" d="M230.99,-286.04C235.67,-284.99 238.5,-283.47 238.5,-281.5 238.5,-278.35 231.25,-276.36 220.78,-275.55"/>
<polygon fill="#9a32cd" stroke="#9a32cd" points="230.21,-282.62 220.78,-287.45 231.16,-289.55 230.21,-282.62"/>
<text text-anchor="middle" x="292" y="-279" font-family="Helvetica,sans-Serif" font-size="10.00"> mem_deps_ptr_array</text>
</g>
<!-- Node7 -->
<g id="node7" class="node">
<title>Node7</title>
<g id="a_node7"><a xlink:href="classdesambiguation__t.html" target="_top" xlink:title=" ">
<polygon fill="white" stroke="black" points="537.5,-134.5 537.5,-153.5 641.5,-153.5 641.5,-134.5 537.5,-134.5"/>
<text text-anchor="middle" x="589.5" y="-141.5" font-family="Helvetica,sans-Serif" font-size="10.00">desambiguation_t</text>
</a>
</g>
</g>
<!-- Node7&#45;&gt;Node1 -->
<g id="edge10" class="edge">
<title>Node7&#45;&gt;Node1</title>
<path fill="none" stroke="#9a32cd" stroke-dasharray="5,2" d="M577.97,-126C566.98,-111.11 549.08,-90.03 528.5,-78 438.51,-25.41 312.44,-13.9 251.02,-11.52"/>
<polygon fill="#9a32cd" stroke="#9a32cd" points="575.24,-128.21 583.89,-134.34 580.95,-124.16 575.24,-128.21"/>
<text text-anchor="middle" x="526.5" y="-46.5" font-family="Helvetica,sans-Serif" font-size="10.00"> disambiguator</text>
</g>
</g>
</svg>
        <g id="navigator" transform="translate(0 0)" fill="#404254">
                <rect fill="#f2f5e9" fill-opacity="0.5" stroke="#606060" stroke-width=".5" x="0" y="0" width="60" height="60"/>
                <use id="zoomplus" xlink:href="#zoomPlus" x="17" y="9" onmousedown="handleZoom(evt,'in')"/>
                <use id="zoomminus" xlink:href="#zoomMin" x="42" y="9" onmousedown="handleZoom(evt,'out')"/>
                <use id="reset" xlink:href="#resetDef" x="30" y="36" onmousedown="handleReset()"/>
                <g id="arrowUp" xlink:href="#dirArrow" transform="translate(30 24)" onmousedown="handlePan(0,-1)">
                  <use xlink:href="#rim" fill="#404040">
                        <set attributeName="fill" to="#808080" begin="arrowUp.mouseover" end="arrowUp.mouseout"/>
                  </use>
                  <path fill="none" stroke="white" stroke-width="1.5" d="M0,-3.0v7 M-2.5,-0.5L0,-3.0L2.5,-0.5"/>
                </g>
                <g id="arrowRight" xlink:href="#dirArrow" transform="rotate(90) translate(36 -43)" onmousedown="handlePan(1,0)">
                  <use xlink:href="#rim" fill="#404040">
                        <set attributeName="fill" to="#808080" begin="arrowRight.mouseover" end="arrowRight.mouseout"/>
                  </use>
                  <path fill="none" stroke="white" stroke-width="1.5" d="M0,-3.0v7 M-2.5,-0.5L0,-3.0L2.5,-0.5"/>
                </g>
                <g id="arrowDown" xlink:href="#dirArrow" transform="rotate(180) translate(-30 -48)" onmousedown="handlePan(0,1)">
                  <use xlink:href="#rim" fill="#404040">
                        <set attributeName="fill" to="#808080" begin="arrowDown.mouseover" end="arrowDown.mouseout"/>
                  </use>
                  <path fill="none" stroke="white" stroke-width="1.5" d="M0,-3.0v7 M-2.5,-0.5L0,-3.0L2.5,-0.5"/>
                </g>
                <g id="arrowLeft" xlink:href="#dirArrow" transform="rotate(270) translate(-36 17)" onmousedown="handlePan(-1,0)">
                  <use xlink:href="#rim" fill="#404040">
                        <set attributeName="fill" to="#808080" begin="arrowLeft.mouseover" end="arrowLeft.mouseout"/>
                  </use>
                  <path fill="none" stroke="white" stroke-width="1.5" d="M0,-3.0v7 M-2.5,-0.5L0,-3.0L2.5,-0.5"/>
                </g>
        </g>
        <svg viewBox="0 0 15 15" width="100%" height="30px" preserveAspectRatio="xMaxYMin meet">
         <g id="arrow_out" transform="scale(0.3 0.3)">
          <a xlink:href="classprocessor__t__coll__graph_org.svg" target="_base">
           <rect id="button" ry="5" rx="5" y="6" x="6" height="38" width="38"
                fill="#f2f5e9" fill-opacity="0.5" stroke="#606060" stroke-width="1.0"/>
           <path id="arrow"
             d="M 11.500037,31.436501 C 11.940474,20.09759 22.043105,11.32322 32.158766,21.979434 L 37.068811,17.246167 C 37.068811,17.246167 37.088388,32 37.088388,32 L 22.160133,31.978069 C 22.160133,31.978069 26.997745,27.140456 26.997745,27.140456 C 18.528582,18.264221 13.291696,25.230495 11.500037,31.436501 z"
             style="fill:#404040;"/>
          </a>
         </g>
        </svg>
</svg>
