<?xml version="1.0" encoding="UTF-8" standalone="no"?>
<!DOCTYPE svg PUBLIC "-//W3C//DTD SVG 1.1//EN"
 "http://www.w3.org/Graphics/SVG/1.1/DTD/svg11.dtd">
<!-- Generated by graphviz version 2.43.0 (0)
 -->
<!-- Title: hive_controller_t::process Pages: 1 -->
<svg width="681pt" height="253pt"
 viewBox="0.00 0.00 681.00 253.00" xmlns="http://www.w3.org/2000/svg" xmlns:xlink="http://www.w3.org/1999/xlink">
<g id="graph0" class="graph" transform="scale(1 1) rotate(0) translate(4 249)">
<title>hive_controller_t::process</title>
<polygon fill="white" stroke="transparent" points="-4,4 -4,-249 677,-249 677,4 -4,4"/>
<!-- Node1 -->
<g id="node1" class="node">
<title>Node1</title>
<g id="a_node1"><a xlink:title=" ">
<polygon fill="#bfbfbf" stroke="black" points="0,-107.5 0,-137.5 104,-137.5 104,-107.5 0,-107.5"/>
<text text-anchor="start" x="8" y="-125.5" font-family="Helvetica,sans-Serif" font-size="10.00">hive_controller_t::</text>
<text text-anchor="middle" x="52" y="-114.5" font-family="Helvetica,sans-Serif" font-size="10.00">process</text>
</a>
</g>
</g>
<!-- Node2 -->
<g id="node2" class="node">
<title>Node2</title>
<g id="a_node2"><a xlink:href="classhive__controller__t.html#a8095d50b2031e0fc20ef02eebb0a24af" target="_top" xlink:title=" ">
<polygon fill="white" stroke="black" points="311.5,-0.5 311.5,-30.5 415.5,-30.5 415.5,-0.5 311.5,-0.5"/>
<text text-anchor="start" x="319.5" y="-18.5" font-family="Helvetica,sans-Serif" font-size="10.00">hive_controller_t::</text>
<text text-anchor="middle" x="363.5" y="-7.5" font-family="Helvetica,sans-Serif" font-size="10.00">check_transmit</text>
</a>
</g>
</g>
<!-- Node1&#45;&gt;Node2 -->
<g id="edge1" class="edge">
<title>Node1&#45;&gt;Node2</title>
<path fill="none" stroke="midnightblue" d="M96.69,-107.4C152.56,-88.08 249.27,-54.65 309.35,-33.87"/>
<polygon fill="midnightblue" stroke="midnightblue" points="310.73,-37.1 319.03,-30.53 308.44,-30.49 310.73,-37.1"/>
</g>
<!-- Node5 -->
<g id="node5" class="node">
<title>Node5</title>
<g id="a_node5"><a xlink:href="classhive__controller__t.html#a4da4a2eac19b19c65a6936cfa0008087" target="_top" xlink:title=" ">
<polygon fill="white" stroke="black" points="140,-107.5 140,-137.5 244,-137.5 244,-107.5 140,-107.5"/>
<text text-anchor="start" x="148" y="-125.5" font-family="Helvetica,sans-Serif" font-size="10.00">hive_controller_t::</text>
<text text-anchor="middle" x="192" y="-114.5" font-family="Helvetica,sans-Serif" font-size="10.00">check_wait</text>
</a>
</g>
</g>
<!-- Node1&#45;&gt;Node5 -->
<g id="edge4" class="edge">
<title>Node1&#45;&gt;Node5</title>
<path fill="none" stroke="midnightblue" d="M104.39,-122.5C112.56,-122.5 121.08,-122.5 129.46,-122.5"/>
<polygon fill="midnightblue" stroke="midnightblue" points="129.57,-126 139.57,-122.5 129.57,-119 129.57,-126"/>
</g>
<!-- Node8 -->
<g id="node8" class="node">
<title>Node8</title>
<g id="a_node8"><a xlink:href="classhive__controller__t.html#a30fafb16c33a00e44c32427bc4f8c542" target="_top" xlink:title=" ">
<polygon fill="white" stroke="black" points="140,-194.5 140,-224.5 244,-224.5 244,-194.5 140,-194.5"/>
<text text-anchor="start" x="148" y="-212.5" font-family="Helvetica,sans-Serif" font-size="10.00">hive_controller_t::</text>
<text text-anchor="middle" x="192" y="-201.5" font-family="Helvetica,sans-Serif" font-size="10.00">hive_dispatch</text>
</a>
</g>
</g>
<!-- Node1&#45;&gt;Node8 -->
<g id="edge11" class="edge">
<title>Node1&#45;&gt;Node8</title>
<path fill="none" stroke="midnightblue" d="M77.04,-137.65C99.46,-151.79 133.1,-173 158.02,-188.71"/>
<polygon fill="midnightblue" stroke="midnightblue" points="156.45,-191.86 166.77,-194.23 160.18,-185.93 156.45,-191.86"/>
</g>
<!-- Node3 -->
<g id="node3" class="node">
<title>Node3</title>
<g id="a_node3"><a xlink:href="enumerations_8cpp.html#abb39d040475b58d11b29c242b33091e1" target="_top" xlink:title="Enumerates the MEMORY OPERATION OF MOB,debug only.">
<polygon fill="white" stroke="black" points="483,-50 483,-69 673,-69 673,-50 483,-50"/>
<text text-anchor="middle" x="578" y="-57" font-family="Helvetica,sans-Serif" font-size="10.00">get_enum_memory_operation_char</text>
</a>
</g>
</g>
<!-- Node2&#45;&gt;Node3 -->
<g id="edge2" class="edge">
<title>Node2&#45;&gt;Node3</title>
<path fill="none" stroke="midnightblue" d="M415.67,-26.1C447.5,-32.69 488.45,-41.16 521.12,-47.93"/>
<polygon fill="midnightblue" stroke="midnightblue" points="520.48,-51.37 530.98,-49.97 521.9,-44.52 520.48,-51.37"/>
</g>
<!-- Node4 -->
<g id="node4" class="node">
<title>Node4</title>
<g id="a_node4"><a xlink:href="classorcs__engine__t.html#a1c033e3455736ba89052a40c69ebe0af" target="_top" xlink:title=" ">
<polygon fill="white" stroke="black" points="525,-129.5 525,-159.5 631,-159.5 631,-129.5 525,-129.5"/>
<text text-anchor="start" x="533" y="-147.5" font-family="Helvetica,sans-Serif" font-size="10.00">orcs_engine_t::get</text>
<text text-anchor="middle" x="578" y="-136.5" font-family="Helvetica,sans-Serif" font-size="10.00">_global_cycle</text>
</a>
</g>
</g>
<!-- Node2&#45;&gt;Node4 -->
<g id="edge3" class="edge">
<title>Node2&#45;&gt;Node4</title>
<path fill="none" stroke="midnightblue" d="M389.29,-30.55C427.42,-53.69 500.51,-98.07 543.37,-124.09"/>
<polygon fill="midnightblue" stroke="midnightblue" points="541.67,-127.15 552.04,-129.35 545.31,-121.16 541.67,-127.15"/>
</g>
<!-- Node5&#45;&gt;Node3 -->
<g id="edge5" class="edge">
<title>Node5&#45;&gt;Node3</title>
<path fill="none" stroke="midnightblue" d="M216.32,-107.42C233.26,-97.31 257.14,-84.73 280,-78.5 342.43,-61.49 414.85,-56.57 472.55,-55.99"/>
<polygon fill="midnightblue" stroke="midnightblue" points="472.8,-59.49 482.78,-55.93 472.76,-52.49 472.8,-59.49"/>
</g>
<!-- Node5&#45;&gt;Node4 -->
<g id="edge7" class="edge">
<title>Node5&#45;&gt;Node4</title>
<path fill="none" stroke="midnightblue" d="M215.48,-137.59C232.41,-148 256.62,-160.92 280,-166.5 359.68,-185.5 454.49,-172.56 515.18,-159.93"/>
<polygon fill="midnightblue" stroke="midnightblue" points="515.95,-163.35 524.99,-157.83 514.48,-156.5 515.95,-163.35"/>
</g>
<!-- Node6 -->
<g id="node6" class="node">
<title>Node6</title>
<g id="a_node6"><a xlink:href="enumerations_8cpp.html#a4f1219a7c31d137c368e36cea5be9128" target="_top" xlink:title="Enumerates the package state,.">
<polygon fill="white" stroke="black" points="280,-138 280,-157 447,-157 447,-138 280,-138"/>
<text text-anchor="middle" x="363.5" y="-145" font-family="Helvetica,sans-Serif" font-size="10.00">get_enum_package_state_char</text>
</a>
</g>
</g>
<!-- Node5&#45;&gt;Node6 -->
<g id="edge6" class="edge">
<title>Node5&#45;&gt;Node6</title>
<path fill="none" stroke="midnightblue" d="M244.32,-130.07C258.01,-132.09 273.1,-134.31 287.77,-136.48"/>
<polygon fill="midnightblue" stroke="midnightblue" points="287.44,-139.97 297.85,-137.96 288.46,-133.04 287.44,-139.97"/>
</g>
<!-- Node7 -->
<g id="node7" class="node">
<title>Node7</title>
<g id="a_node7"><a xlink:href="classhive__controller__t.html#a8b7b32733e7a463f9691639e07502313" target="_top" xlink:title=" ">
<polygon fill="white" stroke="black" points="311.5,-88.5 311.5,-118.5 415.5,-118.5 415.5,-88.5 311.5,-88.5"/>
<text text-anchor="start" x="319.5" y="-106.5" font-family="Helvetica,sans-Serif" font-size="10.00">hive_controller_t::</text>
<text text-anchor="middle" x="363.5" y="-95.5" font-family="Helvetica,sans-Serif" font-size="10.00">instruction_ready</text>
</a>
</g>
</g>
<!-- Node5&#45;&gt;Node7 -->
<g id="edge8" class="edge">
<title>Node5&#45;&gt;Node7</title>
<path fill="none" stroke="midnightblue" d="M244.32,-116.75C262.24,-114.74 282.54,-112.46 301.19,-110.37"/>
<polygon fill="midnightblue" stroke="midnightblue" points="301.81,-113.82 311.36,-109.23 301.03,-106.87 301.81,-113.82"/>
</g>
<!-- Node7&#45;&gt;Node3 -->
<g id="edge9" class="edge">
<title>Node7&#45;&gt;Node3</title>
<path fill="none" stroke="midnightblue" d="M415.67,-92.9C447.5,-86.31 488.45,-77.84 521.12,-71.07"/>
<polygon fill="midnightblue" stroke="midnightblue" points="521.9,-74.48 530.98,-69.03 520.48,-67.63 521.9,-74.48"/>
</g>
<!-- Node7&#45;&gt;Node4 -->
<g id="edge10" class="edge">
<title>Node7&#45;&gt;Node4</title>
<path fill="none" stroke="midnightblue" d="M415.67,-113.37C445.48,-119.12 483.28,-126.42 514.8,-132.5"/>
<polygon fill="midnightblue" stroke="midnightblue" points="514.32,-135.97 524.8,-134.43 515.64,-129.1 514.32,-135.97"/>
</g>
<!-- Node9 -->
<g id="node9" class="node">
<title>Node9</title>
<g id="a_node9"><a xlink:href="classhive__controller__t.html#a91496fe8178df85c1a83b62cd1e63150" target="_top" xlink:title=" ">
<polygon fill="white" stroke="black" points="311.5,-214.5 311.5,-244.5 415.5,-244.5 415.5,-214.5 311.5,-214.5"/>
<text text-anchor="start" x="319.5" y="-232.5" font-family="Helvetica,sans-Serif" font-size="10.00">hive_controller_t::</text>
<text text-anchor="middle" x="363.5" y="-221.5" font-family="Helvetica,sans-Serif" font-size="10.00">set_sub_requests</text>
</a>
</g>
</g>
<!-- Node8&#45;&gt;Node9 -->
<g id="edge12" class="edge">
<title>Node8&#45;&gt;Node9</title>
<path fill="none" stroke="midnightblue" d="M244.32,-215.55C262.24,-217.67 282.54,-220.06 301.19,-222.27"/>
<polygon fill="midnightblue" stroke="midnightblue" points="301.02,-225.77 311.36,-223.47 301.84,-218.82 301.02,-225.77"/>
</g>
<!-- Node9&#45;&gt;Node4 -->
<g id="edge13" class="edge">
<title>Node9&#45;&gt;Node4</title>
<path fill="none" stroke="midnightblue" d="M407.48,-214.35C420.25,-209.72 434.23,-204.52 447,-199.5 476.02,-188.09 508.31,-174.44 533.45,-163.59"/>
<polygon fill="midnightblue" stroke="midnightblue" points="534.92,-166.76 542.71,-159.58 532.14,-160.34 534.92,-166.76"/>
</g>
</g>
</svg>
