<?xml version="1.0" encoding="UTF-8" standalone="no"?>
<!DOCTYPE svg PUBLIC "-//W3C//DTD SVG 1.1//EN"
 "http://www.w3.org/Graphics/SVG/1.1/DTD/svg11.dtd">
<!-- Generated by graphviz version 2.43.0 (0)
 -->
<!-- Title: stride_prefetcher_t::installStride Pages: 1 -->
<svg width="262pt" height="88pt"
 viewBox="0.00 0.00 262.00 88.00" xmlns="http://www.w3.org/2000/svg" xmlns:xlink="http://www.w3.org/1999/xlink">
<g id="graph0" class="graph" transform="scale(1 1) rotate(0) translate(4 84)">
<title>stride_prefetcher_t::installStride</title>
<polygon fill="white" stroke="transparent" points="-4,4 -4,-84 258,-84 258,4 -4,4"/>
<!-- Node1 -->
<g id="node1" class="node">
<title>Node1</title>
<g id="a_node1"><a xlink:title=" ">
<polygon fill="#bfbfbf" stroke="black" points="0,-24.5 0,-54.5 109,-54.5 109,-24.5 0,-24.5"/>
<text text-anchor="start" x="8" y="-42.5" font-family="Helvetica,sans-Serif" font-size="10.00">stride_prefetcher_t</text>
<text text-anchor="middle" x="54.5" y="-31.5" font-family="Helvetica,sans-Serif" font-size="10.00">::installStride</text>
</a>
</g>
</g>
<!-- Node2 -->
<g id="node2" class="node">
<title>Node2</title>
<g id="a_node2"><a xlink:href="classorcs__engine__t.html#a1c033e3455736ba89052a40c69ebe0af" target="_top" xlink:title=" ">
<polygon fill="white" stroke="black" points="146.5,-49.5 146.5,-79.5 252.5,-79.5 252.5,-49.5 146.5,-49.5"/>
<text text-anchor="start" x="154.5" y="-67.5" font-family="Helvetica,sans-Serif" font-size="10.00">orcs_engine_t::get</text>
<text text-anchor="middle" x="199.5" y="-56.5" font-family="Helvetica,sans-Serif" font-size="10.00">_global_cycle</text>
</a>
</g>
</g>
<!-- Node1&#45;&gt;Node2 -->
<g id="edge1" class="edge">
<title>Node1&#45;&gt;Node2</title>
<path fill="none" stroke="midnightblue" d="M109.15,-48.88C118.02,-50.43 127.28,-52.05 136.34,-53.63"/>
<polygon fill="midnightblue" stroke="midnightblue" points="135.99,-57.12 146.44,-55.4 137.19,-50.23 135.99,-57.12"/>
</g>
<!-- Node3 -->
<g id="node3" class="node">
<title>Node3</title>
<g id="a_node3"><a xlink:href="classstride__prefetcher__t.html#a133b8d9ea4b8f14d75ccb4022209a153" target="_top" xlink:title=" ">
<polygon fill="white" stroke="black" points="145,-0.5 145,-30.5 254,-30.5 254,-0.5 145,-0.5"/>
<text text-anchor="start" x="153" y="-18.5" font-family="Helvetica,sans-Serif" font-size="10.00">stride_prefetcher_t</text>
<text text-anchor="middle" x="199.5" y="-7.5" font-family="Helvetica,sans-Serif" font-size="10.00">::searchLRU</text>
</a>
</g>
</g>
<!-- Node1&#45;&gt;Node3 -->
<g id="edge2" class="edge">
<title>Node1&#45;&gt;Node3</title>
<path fill="none" stroke="midnightblue" d="M109.15,-30.5C117.47,-29.1 126.13,-27.65 134.65,-26.22"/>
<polygon fill="midnightblue" stroke="midnightblue" points="135.26,-29.66 144.54,-24.56 134.1,-22.76 135.26,-29.66"/>
</g>
</g>
</svg>
