<?xml version="1.0" encoding="UTF-8" standalone="no"?>
<!DOCTYPE svg PUBLIC "-//W3C//DTD SVG 1.1//EN"
 "http://www.w3.org/Graphics/SVG/1.1/DTD/svg11.dtd">
<!-- Generated by graphviz version 2.43.0 (0)
 -->
<!-- Title: branch_predictor_t::solveBranch Pages: 1 -->
<svg width="403pt" height="165pt"
 viewBox="0.00 0.00 403.00 164.50" xmlns="http://www.w3.org/2000/svg" xmlns:xlink="http://www.w3.org/1999/xlink">
<g id="graph0" class="graph" transform="scale(1 1) rotate(0) translate(4 160.5)">
<title>branch_predictor_t::solveBranch</title>
<polygon fill="white" stroke="transparent" points="-4,4 -4,-160.5 399,-160.5 399,4 -4,4"/>
<!-- Node1 -->
<g id="node1" class="node">
<title>Node1</title>
<g id="a_node1"><a xlink:title=" ">
<polygon fill="#bfbfbf" stroke="black" points="0,-55 0,-85 107,-85 107,-55 0,-55"/>
<text text-anchor="start" x="8" y="-73" font-family="Helvetica,sans-Serif" font-size="10.00">branch_predictor_t</text>
<text text-anchor="middle" x="53.5" y="-62" font-family="Helvetica,sans-Serif" font-size="10.00">::solveBranch</text>
</a>
</g>
</g>
<!-- Node2 -->
<g id="node2" class="node">
<title>Node2</title>
<g id="a_node2"><a xlink:href="classbranch__predictor__t.html#aaf038e4b94dc76bef079dc36536bc64a" target="_top" xlink:title=" ">
<polygon fill="white" stroke="black" points="143,-77 143,-107 250,-107 250,-77 143,-77"/>
<text text-anchor="start" x="151" y="-95" font-family="Helvetica,sans-Serif" font-size="10.00">branch_predictor_t</text>
<text text-anchor="middle" x="196.5" y="-84" font-family="Helvetica,sans-Serif" font-size="10.00">::installLine</text>
</a>
</g>
</g>
<!-- Node1&#45;&gt;Node2 -->
<g id="edge1" class="edge">
<title>Node1&#45;&gt;Node2</title>
<path fill="none" stroke="midnightblue" d="M107,-78.19C115.44,-79.51 124.26,-80.88 132.9,-82.23"/>
<polygon fill="midnightblue" stroke="midnightblue" points="132.53,-85.72 142.95,-83.8 133.61,-78.8 132.53,-85.72"/>
</g>
<!-- Node5 -->
<g id="node5" class="node">
<title>Node5</title>
<g id="a_node5"><a xlink:href="classpredictor__t.html#a6a8c6286dc9f4b44defe272dee86d986" target="_top" xlink:title=" ">
<polygon fill="white" stroke="black" points="286,-19.5 286,-38.5 395,-38.5 395,-19.5 286,-19.5"/>
<text text-anchor="middle" x="340.5" y="-26.5" font-family="Helvetica,sans-Serif" font-size="10.00">predictor_t::predict</text>
</a>
</g>
</g>
<!-- Node1&#45;&gt;Node5 -->
<g id="edge4" class="edge">
<title>Node1&#45;&gt;Node5</title>
<path fill="none" stroke="midnightblue" d="M107.11,-62.43C154.65,-55.59 224.77,-45.5 275.55,-38.2"/>
<polygon fill="midnightblue" stroke="midnightblue" points="276.35,-41.62 285.75,-36.73 275.35,-34.69 276.35,-41.62"/>
</g>
<!-- Node6 -->
<g id="node6" class="node">
<title>Node6</title>
<g id="a_node6"><a xlink:href="classbranch__predictor__t.html#a93ca4b66a60913420d5f8a7968b1a435" target="_top" xlink:title=" ">
<polygon fill="white" stroke="black" points="143,-126 143,-156 250,-156 250,-126 143,-126"/>
<text text-anchor="start" x="151" y="-144" font-family="Helvetica,sans-Serif" font-size="10.00">branch_predictor_t</text>
<text text-anchor="middle" x="196.5" y="-133" font-family="Helvetica,sans-Serif" font-size="10.00">::searchLine</text>
</a>
</g>
</g>
<!-- Node1&#45;&gt;Node6 -->
<g id="edge5" class="edge">
<title>Node1&#45;&gt;Node6</title>
<path fill="none" stroke="midnightblue" d="M83.07,-85.17C100.34,-94.26 122.85,-105.97 143,-116 146.71,-117.85 150.58,-119.75 154.47,-121.63"/>
<polygon fill="midnightblue" stroke="midnightblue" points="152.96,-124.79 163.49,-125.97 156,-118.48 152.96,-124.79"/>
</g>
<!-- Node7 -->
<g id="node7" class="node">
<title>Node7</title>
<g id="a_node7"><a xlink:href="classpredictor__t.html#af9273acebe7a746ca40ce7d7b755dbea" target="_top" xlink:title=" ">
<polygon fill="white" stroke="black" points="147.5,-0.5 147.5,-19.5 245.5,-19.5 245.5,-0.5 147.5,-0.5"/>
<text text-anchor="middle" x="196.5" y="-7.5" font-family="Helvetica,sans-Serif" font-size="10.00">predictor_t::train</text>
</a>
</g>
</g>
<!-- Node1&#45;&gt;Node7 -->
<g id="edge7" class="edge">
<title>Node1&#45;&gt;Node7</title>
<path fill="none" stroke="midnightblue" d="M90.08,-54.86C112.72,-45.23 141.79,-32.86 163.66,-23.55"/>
<polygon fill="midnightblue" stroke="midnightblue" points="165.33,-26.64 173.16,-19.51 162.59,-20.2 165.33,-26.64"/>
</g>
<!-- Node3 -->
<g id="node3" class="node">
<title>Node3</title>
<g id="a_node3"><a xlink:href="classorcs__engine__t.html#a1c033e3455736ba89052a40c69ebe0af" target="_top" xlink:title=" ">
<polygon fill="white" stroke="black" points="287.5,-126 287.5,-156 393.5,-156 393.5,-126 287.5,-126"/>
<text text-anchor="start" x="295.5" y="-144" font-family="Helvetica,sans-Serif" font-size="10.00">orcs_engine_t::get</text>
<text text-anchor="middle" x="340.5" y="-133" font-family="Helvetica,sans-Serif" font-size="10.00">_global_cycle</text>
</a>
</g>
</g>
<!-- Node2&#45;&gt;Node3 -->
<g id="edge2" class="edge">
<title>Node2&#45;&gt;Node3</title>
<path fill="none" stroke="midnightblue" d="M241.26,-107.1C255.44,-111.99 271.31,-117.47 286.1,-122.57"/>
<polygon fill="midnightblue" stroke="midnightblue" points="285.04,-125.91 295.64,-125.86 287.33,-119.29 285.04,-125.91"/>
</g>
<!-- Node4 -->
<g id="node4" class="node">
<title>Node4</title>
<g id="a_node4"><a xlink:href="classbranch__predictor__t.html#a6a2b73786ad287926fcf5b4fc215dc10" target="_top" xlink:title=" ">
<polygon fill="white" stroke="black" points="287,-77 287,-107 394,-107 394,-77 287,-77"/>
<text text-anchor="start" x="295" y="-95" font-family="Helvetica,sans-Serif" font-size="10.00">branch_predictor_t</text>
<text text-anchor="middle" x="340.5" y="-84" font-family="Helvetica,sans-Serif" font-size="10.00">::searchLRU</text>
</a>
</g>
</g>
<!-- Node2&#45;&gt;Node4 -->
<g id="edge3" class="edge">
<title>Node2&#45;&gt;Node4</title>
<path fill="none" stroke="midnightblue" d="M250.38,-92C258.88,-92 267.75,-92 276.46,-92"/>
<polygon fill="midnightblue" stroke="midnightblue" points="276.58,-95.5 286.58,-92 276.58,-88.5 276.58,-95.5"/>
</g>
<!-- Node6&#45;&gt;Node3 -->
<g id="edge6" class="edge">
<title>Node6&#45;&gt;Node3</title>
<path fill="none" stroke="midnightblue" d="M250.38,-141C258.99,-141 267.99,-141 276.81,-141"/>
<polygon fill="midnightblue" stroke="midnightblue" points="277.05,-144.5 287.05,-141 277.05,-137.5 277.05,-144.5"/>
</g>
<!-- Node7&#45;&gt;Node5 -->
<g id="edge8" class="edge">
<title>Node7&#45;&gt;Node5</title>
<path fill="none" stroke="midnightblue" d="M245.57,-16.43C255.23,-17.72 265.52,-19.1 275.61,-20.45"/>
<polygon fill="midnightblue" stroke="midnightblue" points="275.24,-23.93 285.61,-21.79 276.17,-16.99 275.24,-23.93"/>
</g>
</g>
</svg>
