<?xml version="1.0" encoding="UTF-8" standalone="no"?>
<!DOCTYPE svg PUBLIC "-//W3C//DTD SVG 1.1//EN"
 "http://www.w3.org/Graphics/SVG/1.1/DTD/svg11.dtd">
<!-- Generated by graphviz version 2.43.0 (0)
 -->
<!-- Title: cache_manager_t::install Pages: 1 -->
<svg width="1078pt" height="364pt"
 viewBox="0.00 0.00 1078.00 363.99" xmlns="http://www.w3.org/2000/svg" xmlns:xlink="http://www.w3.org/1999/xlink">
<g id="graph0" class="graph" transform="scale(1 1) rotate(0) translate(4 359.99)">
<title>cache_manager_t::install</title>
<polygon fill="white" stroke="transparent" points="-4,4 -4,-359.99 1074,-359.99 1074,4 -4,4"/>
<!-- Node1 -->
<g id="node1" class="node">
<title>Node1</title>
<g id="a_node1"><a xlink:title=" ">
<polygon fill="#bfbfbf" stroke="black" points="0,-264.99 0,-283.99 139,-283.99 139,-264.99 0,-264.99"/>
<text text-anchor="middle" x="69.5" y="-271.99" font-family="Helvetica,sans-Serif" font-size="10.00">cache_manager_t::install</text>
</a>
</g>
</g>
<!-- Node2 -->
<g id="node2" class="node">
<title>Node2</title>
<g id="a_node2"><a xlink:href="classcache__manager__t.html#a1d0eab3491ced37cfc80481d8e71274f" target="_top" xlink:title=" ">
<polygon fill="white" stroke="black" points="175,-325.49 175,-355.49 327,-355.49 327,-325.49 175,-325.49"/>
<text text-anchor="start" x="183" y="-343.49" font-family="Helvetica,sans-Serif" font-size="10.00">cache_manager_t::generate</text>
<text text-anchor="middle" x="251" y="-332.49" font-family="Helvetica,sans-Serif" font-size="10.00">IndexArray</text>
</a>
</g>
</g>
<!-- Node1&#45;&gt;Node2 -->
<g id="edge1" class="edge">
<title>Node1&#45;&gt;Node2</title>
<path fill="none" stroke="midnightblue" d="M96.6,-284.08C123.42,-293.94 165.85,-309.54 199.29,-321.84"/>
<polygon fill="midnightblue" stroke="midnightblue" points="198.32,-325.21 208.91,-325.38 200.74,-318.64 198.32,-325.21"/>
</g>
<!-- Node3 -->
<g id="node3" class="node">
<title>Node3</title>
<g id="a_node3"><a xlink:href="classorcs__engine__t.html#a1c033e3455736ba89052a40c69ebe0af" target="_top" xlink:title=" ">
<polygon fill="white" stroke="black" points="922,-148.49 922,-178.49 1028,-178.49 1028,-148.49 922,-148.49"/>
<text text-anchor="start" x="930" y="-166.49" font-family="Helvetica,sans-Serif" font-size="10.00">orcs_engine_t::get</text>
<text text-anchor="middle" x="975" y="-155.49" font-family="Helvetica,sans-Serif" font-size="10.00">_global_cycle</text>
</a>
</g>
</g>
<!-- Node1&#45;&gt;Node3 -->
<g id="edge2" class="edge">
<title>Node1&#45;&gt;Node3</title>
<path fill="none" stroke="midnightblue" d="M139.12,-281.42C208.97,-287.87 320.41,-296.49 417,-296.49 417,-296.49 417,-296.49 590.5,-296.49 726.18,-296.49 874.69,-221.26 939.99,-183.96"/>
<polygon fill="midnightblue" stroke="midnightblue" points="942.1,-186.78 949.01,-178.74 938.6,-180.72 942.1,-186.78"/>
</g>
<!-- Node4 -->
<g id="node4" class="node">
<title>Node4</title>
<g id="a_node4"><a xlink:href="classcache__manager__t.html#aa76b32aba8726cac910c9d30d9bc1713" target="_top" xlink:title=" ">
<polygon fill="white" stroke="black" points="181.5,-237.49 181.5,-267.49 320.5,-267.49 320.5,-237.49 181.5,-237.49"/>
<text text-anchor="start" x="189.5" y="-255.49" font-family="Helvetica,sans-Serif" font-size="10.00">cache_manager_t::install</text>
<text text-anchor="middle" x="251" y="-244.49" font-family="Helvetica,sans-Serif" font-size="10.00">CacheLines</text>
</a>
</g>
</g>
<!-- Node1&#45;&gt;Node4 -->
<g id="edge3" class="edge">
<title>Node1&#45;&gt;Node4</title>
<path fill="none" stroke="midnightblue" d="M139.13,-266.07C149.63,-264.79 160.54,-263.45 171.24,-262.14"/>
<polygon fill="midnightblue" stroke="midnightblue" points="171.91,-265.58 181.41,-260.89 171.06,-258.64 171.91,-265.58"/>
</g>
<!-- Node14 -->
<g id="node14" class="node">
<title>Node14</title>
<g id="a_node14"><a xlink:href="classcache__t.html#a6b29703ff92a473a4ceb7dcd00d1206d" target="_top" xlink:title=" ">
<polygon fill="white" stroke="black" points="375.5,-198.99 375.5,-217.99 460.5,-217.99 460.5,-198.99 375.5,-198.99"/>
<text text-anchor="middle" x="418" y="-205.99" font-family="Helvetica,sans-Serif" font-size="10.00">cache_t::write</text>
</a>
</g>
</g>
<!-- Node1&#45;&gt;Node14 -->
<g id="edge19" class="edge">
<title>Node1&#45;&gt;Node14</title>
<path fill="none" stroke="midnightblue" d="M87.61,-264.82C107.8,-253.93 142.72,-236.68 175,-228.49 239.09,-212.22 315.49,-208.38 365.05,-207.84"/>
<polygon fill="midnightblue" stroke="midnightblue" points="365.23,-211.34 375.21,-207.77 365.18,-204.34 365.23,-211.34"/>
</g>
<!-- Node5 -->
<g id="node5" class="node">
<title>Node5</title>
<g id="a_node5"><a xlink:href="classcache__t.html#a064ff4698c44668e702fda0a95278185" target="_top" xlink:title=" ">
<polygon fill="white" stroke="black" points="363,-242.99 363,-261.99 473,-261.99 473,-242.99 363,-242.99"/>
<text text-anchor="middle" x="418" y="-249.99" font-family="Helvetica,sans-Serif" font-size="10.00">cache_t::installLine</text>
</a>
</g>
</g>
<!-- Node4&#45;&gt;Node5 -->
<g id="edge4" class="edge">
<title>Node4&#45;&gt;Node5</title>
<path fill="none" stroke="midnightblue" d="M320.54,-252.49C331.1,-252.49 341.97,-252.49 352.44,-252.49"/>
<polygon fill="midnightblue" stroke="midnightblue" points="352.75,-255.99 362.75,-252.49 352.75,-248.99 352.75,-255.99"/>
</g>
<!-- Node5&#45;&gt;Node3 -->
<g id="edge5" class="edge">
<title>Node5&#45;&gt;Node3</title>
<path fill="none" stroke="midnightblue" d="M446.17,-262.11C463.82,-267.84 487.47,-274.55 509,-277.49 579.9,-287.15 599.59,-290.25 670,-277.49 769.62,-259.42 879.09,-210.59 935.56,-183.06"/>
<polygon fill="midnightblue" stroke="midnightblue" points="937.39,-186.06 944.81,-178.5 934.3,-179.78 937.39,-186.06"/>
</g>
<!-- Node6 -->
<g id="node6" class="node">
<title>Node6</title>
<g id="a_node6"><a xlink:href="classcache__t.html#a08af353e5ef8b2c78f4d7a3cc57bf8fc" target="_top" xlink:title=" ">
<polygon fill="white" stroke="black" points="536,-210.99 536,-229.99 643,-229.99 643,-210.99 536,-210.99"/>
<text text-anchor="middle" x="589.5" y="-217.99" font-family="Helvetica,sans-Serif" font-size="10.00">cache_t::searchLru</text>
</a>
</g>
</g>
<!-- Node5&#45;&gt;Node6 -->
<g id="edge6" class="edge">
<title>Node5&#45;&gt;Node6</title>
<path fill="none" stroke="midnightblue" d="M469.4,-242.97C487.84,-239.49 508.91,-235.51 528.14,-231.88"/>
<polygon fill="midnightblue" stroke="midnightblue" points="528.83,-235.31 538,-230.02 527.53,-228.44 528.83,-235.31"/>
</g>
<!-- Node7 -->
<g id="node7" class="node">
<title>Node7</title>
<g id="a_node7"><a xlink:href="classcache__t.html#a8fa855f06d00efbcdbe0f4c64add2242" target="_top" xlink:title=" ">
<polygon fill="white" stroke="black" points="509,-248.99 509,-267.99 670,-267.99 670,-248.99 509,-248.99"/>
<text text-anchor="middle" x="589.5" y="-255.99" font-family="Helvetica,sans-Serif" font-size="10.00">cache_t::tagIdxSetCalculation</text>
</a>
</g>
</g>
<!-- Node5&#45;&gt;Node7 -->
<g id="edge7" class="edge">
<title>Node5&#45;&gt;Node7</title>
<path fill="none" stroke="midnightblue" d="M473.1,-254.4C481.31,-254.69 489.98,-255 498.71,-255.31"/>
<polygon fill="midnightblue" stroke="midnightblue" points="498.85,-258.81 508.97,-255.67 499.1,-251.82 498.85,-258.81"/>
</g>
<!-- Node8 -->
<g id="node8" class="node">
<title>Node8</title>
<g id="a_node8"><a xlink:href="classcache__t.html#ac2fe482915a79b89e82582255421f7c0" target="_top" xlink:title=" ">
<polygon fill="white" stroke="black" points="535,-115.99 535,-134.99 644,-134.99 644,-115.99 535,-115.99"/>
<text text-anchor="middle" x="589.5" y="-122.99" font-family="Helvetica,sans-Serif" font-size="10.00">cache_t::writeBack</text>
</a>
</g>
</g>
<!-- Node5&#45;&gt;Node8 -->
<g id="edge8" class="edge">
<title>Node5&#45;&gt;Node8</title>
<path fill="none" stroke="midnightblue" d="M443.45,-242.96C453,-238.79 463.83,-233.47 473,-227.49 511.9,-202.08 551.18,-164.2 572.42,-142.47"/>
<polygon fill="midnightblue" stroke="midnightblue" points="574.96,-144.87 579.39,-135.24 569.93,-140.01 574.96,-144.87"/>
</g>
<!-- Node8&#45;&gt;Node3 -->
<g id="edge15" class="edge">
<title>Node8&#45;&gt;Node3</title>
<path fill="none" stroke="midnightblue" d="M642.1,-135.02C662.01,-138.42 685.01,-142.02 706,-144.49 776.29,-152.74 857.4,-157.88 911.81,-160.71"/>
<polygon fill="midnightblue" stroke="midnightblue" points="911.82,-164.21 921.99,-161.22 912.18,-157.22 911.82,-164.21"/>
</g>
<!-- Node9 -->
<g id="node9" class="node">
<title>Node9</title>
<g id="a_node9"><a xlink:href="classline__t.html#a5b92a71c2f16f2a194f9863284215556" target="_top" xlink:title=" ">
<polygon fill="white" stroke="black" points="925.5,-74.99 925.5,-93.99 1024.5,-93.99 1024.5,-74.99 925.5,-74.99"/>
<text text-anchor="middle" x="975" y="-81.99" font-family="Helvetica,sans-Serif" font-size="10.00">line_t::clean_line</text>
</a>
</g>
</g>
<!-- Node8&#45;&gt;Node9 -->
<g id="edge9" class="edge">
<title>Node8&#45;&gt;Node9</title>
<path fill="none" stroke="midnightblue" d="M596.89,-115.9C612.4,-93.61 654.59,-38.64 706,-18.49 763.1,3.9 788.57,7.78 844,-18.49 866.83,-29.31 858.56,-49.12 880,-62.49 890.66,-69.13 903.14,-73.77 915.45,-77.01"/>
<polygon fill="midnightblue" stroke="midnightblue" points="914.72,-80.44 925.26,-79.32 916.33,-73.62 914.72,-80.44"/>
</g>
<!-- Node10 -->
<g id="node10" class="node">
<title>Node10</title>
<g id="a_node10"><a xlink:href="classcache__t.html#a926d33bfce8203d4291ee5e11fe58678" target="_top" xlink:title=" ">
<polygon fill="white" stroke="black" points="717.5,-77.99 717.5,-96.99 832.5,-96.99 832.5,-77.99 717.5,-77.99"/>
<text text-anchor="middle" x="775" y="-84.99" font-family="Helvetica,sans-Serif" font-size="10.00">cache_t::copyLevels</text>
</a>
</g>
</g>
<!-- Node8&#45;&gt;Node10 -->
<g id="edge10" class="edge">
<title>Node8&#45;&gt;Node10</title>
<path fill="none" stroke="midnightblue" d="M636.8,-115.9C661.46,-110.79 691.96,-104.47 717.94,-99.09"/>
<polygon fill="midnightblue" stroke="midnightblue" points="718.95,-102.46 728.03,-97.01 717.53,-95.61 718.95,-102.46"/>
</g>
<!-- Node11 -->
<g id="node11" class="node">
<title>Node11</title>
<g id="a_node11"><a xlink:href="classcache__t.html#abaf4210052b55d606e99604f6c2056b0" target="_top" xlink:title=" ">
<polygon fill="white" stroke="black" points="706,-115.99 706,-134.99 844,-134.99 844,-115.99 706,-115.99"/>
<text text-anchor="middle" x="775" y="-122.99" font-family="Helvetica,sans-Serif" font-size="10.00">cache_t::copyNextLevels</text>
</a>
</g>
</g>
<!-- Node8&#45;&gt;Node11 -->
<g id="edge13" class="edge">
<title>Node8&#45;&gt;Node11</title>
<path fill="none" stroke="midnightblue" d="M644.07,-125.49C660.25,-125.49 678.36,-125.49 695.81,-125.49"/>
<polygon fill="midnightblue" stroke="midnightblue" points="695.98,-128.99 705.98,-125.49 695.98,-121.99 695.98,-128.99"/>
</g>
<!-- Node12 -->
<g id="node12" class="node">
<title>Node12</title>
<g id="a_node12"><a xlink:href="classmemory__controller__t.html#ad78d3fe5a6cf2ee6e22f9e563dd6e20e" target="_top" xlink:title=" ">
<polygon fill="white" stroke="black" points="715.5,-28.49 715.5,-58.49 834.5,-58.49 834.5,-28.49 715.5,-28.49"/>
<text text-anchor="start" x="723.5" y="-46.49" font-family="Helvetica,sans-Serif" font-size="10.00">memory_controller_t</text>
<text text-anchor="middle" x="775" y="-35.49" font-family="Helvetica,sans-Serif" font-size="10.00">::requestDRAM</text>
</a>
</g>
</g>
<!-- Node8&#45;&gt;Node12 -->
<g id="edge16" class="edge">
<title>Node8&#45;&gt;Node12</title>
<path fill="none" stroke="midnightblue" d="M608.62,-115.79C631.13,-103.93 670.86,-83.57 706,-68.49 710.98,-66.35 716.22,-64.22 721.48,-62.16"/>
<polygon fill="midnightblue" stroke="midnightblue" points="722.84,-65.39 730.92,-58.54 720.33,-58.85 722.84,-65.39"/>
</g>
<!-- Node10&#45;&gt;Node3 -->
<g id="edge12" class="edge">
<title>Node10&#45;&gt;Node3</title>
<path fill="none" stroke="midnightblue" d="M813.71,-97C823.65,-99.79 834.3,-103.02 844,-106.49 874.66,-117.43 908.3,-132.26 933.68,-144.05"/>
<polygon fill="midnightblue" stroke="midnightblue" points="932.44,-147.33 942.98,-148.41 935.41,-140.99 932.44,-147.33"/>
</g>
<!-- Node10&#45;&gt;Node9 -->
<g id="edge11" class="edge">
<title>Node10&#45;&gt;Node9</title>
<path fill="none" stroke="midnightblue" d="M832.74,-86.63C858.56,-86.24 889.11,-85.77 915.19,-85.38"/>
<polygon fill="midnightblue" stroke="midnightblue" points="915.36,-88.88 925.31,-85.22 915.26,-81.88 915.36,-88.88"/>
</g>
<!-- Node11&#45;&gt;Node3 -->
<g id="edge14" class="edge">
<title>Node11&#45;&gt;Node3</title>
<path fill="none" stroke="midnightblue" d="M825.71,-135.03C851.83,-140.04 884.09,-146.23 911.85,-151.56"/>
<polygon fill="midnightblue" stroke="midnightblue" points="911.37,-155.03 921.85,-153.48 912.69,-148.16 911.37,-155.03"/>
</g>
<!-- Node12&#45;&gt;Node3 -->
<g id="edge18" class="edge">
<title>Node12&#45;&gt;Node3</title>
<path fill="none" stroke="midnightblue" d="M824.75,-58.55C831.43,-61.43 838.04,-64.73 844,-68.49 862.89,-80.37 862.5,-89.63 880,-103.49 898.23,-117.92 920.03,-132.01 938.05,-142.91"/>
<polygon fill="midnightblue" stroke="midnightblue" points="936.71,-146.18 947.09,-148.3 940.3,-140.17 936.71,-146.18"/>
</g>
<!-- Node13 -->
<g id="node13" class="node">
<title>Node13</title>
<g id="a_node13"><a xlink:href="enumerations_8cpp.html#abb39d040475b58d11b29c242b33091e1" target="_top" xlink:title="Enumerates the MEMORY OPERATION OF MOB,debug only.">
<polygon fill="white" stroke="black" points="880,-33.99 880,-52.99 1070,-52.99 1070,-33.99 880,-33.99"/>
<text text-anchor="middle" x="975" y="-40.99" font-family="Helvetica,sans-Serif" font-size="10.00">get_enum_memory_operation_char</text>
</a>
</g>
</g>
<!-- Node12&#45;&gt;Node13 -->
<g id="edge17" class="edge">
<title>Node12&#45;&gt;Node13</title>
<path fill="none" stroke="midnightblue" d="M834.6,-43.49C845.74,-43.49 857.7,-43.49 869.76,-43.49"/>
<polygon fill="midnightblue" stroke="midnightblue" points="869.9,-46.99 879.9,-43.49 869.9,-39.99 869.9,-46.99"/>
</g>
<!-- Node14&#45;&gt;Node3 -->
<g id="edge20" class="edge">
<title>Node14&#45;&gt;Node3</title>
<path fill="none" stroke="midnightblue" d="M460.72,-205.1C557.5,-197.26 797.73,-177.78 911.87,-168.52"/>
<polygon fill="midnightblue" stroke="midnightblue" points="912.17,-172.01 921.86,-167.71 911.61,-165.03 912.17,-172.01"/>
</g>
<!-- Node14&#45;&gt;Node6 -->
<g id="edge21" class="edge">
<title>Node14&#45;&gt;Node6</title>
<path fill="none" stroke="midnightblue" d="M460.9,-211.45C480.45,-212.84 504.13,-214.51 525.75,-216.04"/>
<polygon fill="midnightblue" stroke="midnightblue" points="525.62,-219.54 535.85,-216.76 526.12,-212.56 525.62,-219.54"/>
</g>
<!-- Node14&#45;&gt;Node7 -->
<g id="edge22" class="edge">
<title>Node14&#45;&gt;Node7</title>
<path fill="none" stroke="midnightblue" d="M444.78,-218.11C462.66,-224.6 487.1,-233.11 509,-239.49 517.41,-241.93 526.4,-244.31 535.18,-246.5"/>
<polygon fill="midnightblue" stroke="midnightblue" points="534.43,-249.92 544.98,-248.89 536.09,-243.12 534.43,-249.92"/>
</g>
<!-- Node14&#45;&gt;Node8 -->
<g id="edge23" class="edge">
<title>Node14&#45;&gt;Node8</title>
<path fill="none" stroke="midnightblue" d="M438.44,-198.97C468.25,-184.37 525.4,-156.38 559.93,-139.48"/>
<polygon fill="midnightblue" stroke="midnightblue" points="561.58,-142.57 569.02,-135.02 558.5,-136.28 561.58,-142.57"/>
</g>
</g>
</svg>
