<?xml version="1.0" encoding="UTF-8" standalone="no"?>
<!DOCTYPE svg PUBLIC "-//W3C//DTD SVG 1.1//EN"
 "http://www.w3.org/Graphics/SVG/1.1/DTD/svg11.dtd">
<!-- Generated by graphviz version 2.43.0 (0)
 -->
<!-- Title: cache_t::write Pages: 1 -->
<!--zoomable 292 -->
<svg id="main" version="1.1" xmlns="http://www.w3.org/2000/svg" xmlns:xlink="http://www.w3.org/1999/xlink" xml:space="preserve" onload="init(evt)">
<style type="text/css"><![CDATA[
.edge:hover path { stroke: red; }
.edge:hover polygon { stroke: red; fill: red; }
]]></style>
<script type="text/javascript"><![CDATA[
var edges = document.getElementsByTagName('g');
if (edges && edges.length) {
  for (var i=0;i<edges.length;i++) {
    if (edges[i].id.substr(0,4)=='edge') {
      edges[i].setAttribute('class','edge');
    }
  }
}
]]></script>
        <defs>
                <circle id="rim" cx="0" cy="0" r="7"/>
                <circle id="rim2" cx="0" cy="0" r="3.5"/>
                <g id="zoomPlus">
                        <use xlink:href="#rim" fill="#404040">
                                <set attributeName="fill" to="#808080" begin="zoomplus.mouseover" end="zoomplus.mouseout"/>
                        </use>
                        <path d="M-4,0h8M0,-4v8" fill="none" stroke="white" stroke-width="1.5" pointer-events="none"/>
                </g>
                <g id="zoomMin">
                        <use xlink:href="#rim" fill="#404040">
                                <set attributeName="fill" to="#808080" begin="zoomminus.mouseover" end="zoomminus.mouseout"/>
                        </use>
                        <path d="M-4,0h8" fill="none" stroke="white" stroke-width="1.5" pointer-events="none"/>
                </g>
                <g id="dirArrow">
                        <path fill="none" stroke="white" stroke-width="1.5" d="M0,-3.0v7 M-2.5,-0.5L0,-3.0L2.5,-0.5"/>
                </g>
               <g id="resetDef">
                       <use xlink:href="#rim2" fill="#404040">
                               <set attributeName="fill" to="#808080" begin="reset.mouseover" end="reset.mouseout"/>
                       </use>
               </g>
        </defs>

<script type="text/javascript">
var viewWidth = 690;
var viewHeight = 292;
var sectionId = 'dynsection-9';
</script>
<script xlink:href="svgpan.js"/>
<svg id="graph" class="graph">
<g id="viewport">
<title>cache_t::write</title>
<polygon fill="white" stroke="transparent" points="-4,4 -4,-288.41 686,-288.41 686,4 -4,4"/>
<!-- Node1 -->
<g id="node1" class="node">
<title>Node1</title>
<g id="a_node1"><a xlink:title=" ">
<polygon fill="#bfbfbf" stroke="black" points="0,-57.5 0,-76.5 85,-76.5 85,-57.5 0,-57.5"/>
<text text-anchor="middle" x="42.5" y="-64.5" font-family="Helvetica,sans-Serif" font-size="10.00">cache_t::write</text>
</a>
</g>
</g>
<!-- Node2 -->
<g id="node2" class="node">
<title>Node2</title>
<g id="a_node2"><a xlink:href="classorcs__engine__t.html#a1c033e3455736ba89052a40c69ebe0af" target="_top" xlink:title=" ">
<polygon fill="white" stroke="black" points="534,-159 534,-189 640,-189 640,-159 534,-159"/>
<text text-anchor="start" x="542" y="-177" font-family="Helvetica,sans-Serif" font-size="10.00">orcs_engine_t::get</text>
<text text-anchor="middle" x="587" y="-166" font-family="Helvetica,sans-Serif" font-size="10.00">_global_cycle</text>
</a>
</g>
</g>
<!-- Node1&#45;&gt;Node2 -->
<g id="edge1" class="edge">
<title>Node1&#45;&gt;Node2</title>
<path fill="none" stroke="midnightblue" d="M85.31,-66.82C176.99,-67.05 392.57,-71.29 456,-105 478.31,-116.86 470.76,-135.31 492,-149 501.66,-155.23 512.83,-159.91 524.02,-163.43"/>
<polygon fill="midnightblue" stroke="midnightblue" points="523.25,-166.85 533.82,-166.23 525.17,-160.12 523.25,-166.85"/>
</g>
<!-- Node3 -->
<g id="node3" class="node">
<title>Node3</title>
<g id="a_node3"><a xlink:href="classcache__t.html#a08af353e5ef8b2c78f4d7a3cc57bf8fc" target="_top" xlink:title=" ">
<polygon fill="white" stroke="black" points="148,-38.5 148,-57.5 255,-57.5 255,-38.5 148,-38.5"/>
<text text-anchor="middle" x="201.5" y="-45.5" font-family="Helvetica,sans-Serif" font-size="10.00">cache_t::searchLru</text>
</a>
</g>
</g>
<!-- Node1&#45;&gt;Node3 -->
<g id="edge2" class="edge">
<title>Node1&#45;&gt;Node3</title>
<path fill="none" stroke="midnightblue" d="M85.16,-61.96C101.26,-60.01 120.03,-57.74 137.7,-55.6"/>
<polygon fill="midnightblue" stroke="midnightblue" points="138.44,-59.04 147.94,-54.36 137.6,-52.09 138.44,-59.04"/>
</g>
<!-- Node4 -->
<g id="node4" class="node">
<title>Node4</title>
<g id="a_node4"><a xlink:href="classcache__t.html#a8fa855f06d00efbcdbe0f4c64add2242" target="_top" xlink:title=" ">
<polygon fill="white" stroke="black" points="121,-0.5 121,-19.5 282,-19.5 282,-0.5 121,-0.5"/>
<text text-anchor="middle" x="201.5" y="-7.5" font-family="Helvetica,sans-Serif" font-size="10.00">cache_t::tagIdxSetCalculation</text>
</a>
</g>
</g>
<!-- Node1&#45;&gt;Node4 -->
<g id="edge3" class="edge">
<title>Node1&#45;&gt;Node4</title>
<path fill="none" stroke="midnightblue" d="M60.26,-57.43C75.65,-48.97 99.28,-36.81 121,-29 128.06,-26.46 135.59,-24.16 143.1,-22.11"/>
<polygon fill="midnightblue" stroke="midnightblue" points="144.12,-25.46 152.91,-19.56 142.35,-18.69 144.12,-25.46"/>
</g>
<!-- Node5 -->
<g id="node5" class="node">
<title>Node5</title>
<g id="a_node5"><a xlink:href="classcache__t.html#ac2fe482915a79b89e82582255421f7c0" target="_top" xlink:title=" ">
<polygon fill="white" stroke="black" points="147,-183.5 147,-202.5 256,-202.5 256,-183.5 147,-183.5"/>
<text text-anchor="middle" x="201.5" y="-190.5" font-family="Helvetica,sans-Serif" font-size="10.00">cache_t::writeBack</text>
</a>
</g>
</g>
<!-- Node1&#45;&gt;Node5 -->
<g id="edge4" class="edge">
<title>Node1&#45;&gt;Node5</title>
<path fill="none" stroke="midnightblue" d="M55.56,-76.68C82.45,-98.26 147.56,-150.51 180.58,-177.01"/>
<polygon fill="midnightblue" stroke="midnightblue" points="178.63,-179.93 188.61,-183.46 183.01,-174.47 178.63,-179.93"/>
</g>
<!-- Node5&#45;&gt;Node2 -->
<g id="edge11" class="edge">
<title>Node5&#45;&gt;Node2</title>
<path fill="none" stroke="midnightblue" d="M256.48,-195.26C307.86,-196.88 387.3,-197.99 456,-193 478.19,-191.39 502.35,-188.24 523.75,-184.97"/>
<polygon fill="midnightblue" stroke="midnightblue" points="524.35,-188.42 533.69,-183.41 523.27,-181.5 524.35,-188.42"/>
</g>
<!-- Node6 -->
<g id="node6" class="node">
<title>Node6</title>
<g id="a_node6"><a xlink:href="classline__t.html#a5b92a71c2f16f2a194f9863284215556" target="_top" xlink:title=" ">
<polygon fill="white" stroke="black" points="537.5,-259.5 537.5,-278.5 636.5,-278.5 636.5,-259.5 537.5,-259.5"/>
<text text-anchor="middle" x="587" y="-266.5" font-family="Helvetica,sans-Serif" font-size="10.00">line_t::clean_line</text>
</a>
</g>
</g>
<!-- Node5&#45;&gt;Node6 -->
<g id="edge5" class="edge">
<title>Node5&#45;&gt;Node6</title>
<path fill="none" stroke="midnightblue" d="M212.56,-202.67C231.4,-220.01 274.08,-255.85 318,-269 387.65,-289.86 472.14,-285.25 527.39,-278.5"/>
<polygon fill="midnightblue" stroke="midnightblue" points="527.88,-281.96 537.35,-277.22 526.99,-275.02 527.88,-281.96"/>
</g>
<!-- Node7 -->
<g id="node7" class="node">
<title>Node7</title>
<g id="a_node7"><a xlink:href="classcache__t.html#a926d33bfce8203d4291ee5e11fe58678" target="_top" xlink:title=" ">
<polygon fill="white" stroke="black" points="329.5,-240.5 329.5,-259.5 444.5,-259.5 444.5,-240.5 329.5,-240.5"/>
<text text-anchor="middle" x="387" y="-247.5" font-family="Helvetica,sans-Serif" font-size="10.00">cache_t::copyLevels</text>
</a>
</g>
</g>
<!-- Node5&#45;&gt;Node7 -->
<g id="edge6" class="edge">
<title>Node5&#45;&gt;Node7</title>
<path fill="none" stroke="midnightblue" d="M233.21,-202.54C264.04,-212.12 311.7,-226.92 345.58,-237.45"/>
<polygon fill="midnightblue" stroke="midnightblue" points="344.6,-240.8 355.19,-240.43 346.67,-234.12 344.6,-240.8"/>
</g>
<!-- Node8 -->
<g id="node8" class="node">
<title>Node8</title>
<g id="a_node8"><a xlink:href="classcache__t.html#abaf4210052b55d606e99604f6c2056b0" target="_top" xlink:title=" ">
<polygon fill="white" stroke="black" points="318,-164.5 318,-183.5 456,-183.5 456,-164.5 318,-164.5"/>
<text text-anchor="middle" x="387" y="-171.5" font-family="Helvetica,sans-Serif" font-size="10.00">cache_t::copyNextLevels</text>
</a>
</g>
</g>
<!-- Node5&#45;&gt;Node8 -->
<g id="edge9" class="edge">
<title>Node5&#45;&gt;Node8</title>
<path fill="none" stroke="midnightblue" d="M256.07,-187.45C272.25,-185.78 290.36,-183.9 307.81,-182.1"/>
<polygon fill="midnightblue" stroke="midnightblue" points="308.39,-185.55 317.98,-181.04 307.67,-178.59 308.39,-185.55"/>
</g>
<!-- Node9 -->
<g id="node9" class="node">
<title>Node9</title>
<g id="a_node9"><a xlink:href="classmemory__controller__t.html#ad78d3fe5a6cf2ee6e22f9e563dd6e20e" target="_top" xlink:title=" ">
<polygon fill="white" stroke="black" points="327.5,-115 327.5,-145 446.5,-145 446.5,-115 327.5,-115"/>
<text text-anchor="start" x="335.5" y="-133" font-family="Helvetica,sans-Serif" font-size="10.00">memory_controller_t</text>
<text text-anchor="middle" x="387" y="-122" font-family="Helvetica,sans-Serif" font-size="10.00">::requestDRAM</text>
</a>
</g>
</g>
<!-- Node5&#45;&gt;Node9 -->
<g id="edge12" class="edge">
<title>Node5&#45;&gt;Node9</title>
<path fill="none" stroke="midnightblue" d="M230.37,-183.43C257.38,-174.16 299.06,-159.85 332.48,-148.37"/>
<polygon fill="midnightblue" stroke="midnightblue" points="333.8,-151.62 342.12,-145.07 331.53,-145 333.8,-151.62"/>
</g>
<!-- Node7&#45;&gt;Node2 -->
<g id="edge8" class="edge">
<title>Node7&#45;&gt;Node2</title>
<path fill="none" stroke="midnightblue" d="M415.88,-240.45C428.22,-236.15 442.88,-230.94 456,-226 484.02,-215.46 515.16,-203.02 539.94,-192.96"/>
<polygon fill="midnightblue" stroke="midnightblue" points="541.51,-196.1 549.45,-189.09 538.87,-189.62 541.51,-196.1"/>
</g>
<!-- Node7&#45;&gt;Node6 -->
<g id="edge7" class="edge">
<title>Node7&#45;&gt;Node6</title>
<path fill="none" stroke="midnightblue" d="M444.74,-255.44C470.56,-257.92 501.11,-260.85 527.19,-263.36"/>
<polygon fill="midnightblue" stroke="midnightblue" points="527.02,-266.86 537.31,-264.33 527.69,-259.89 527.02,-266.86"/>
</g>
<!-- Node8&#45;&gt;Node2 -->
<g id="edge10" class="edge">
<title>Node8&#45;&gt;Node2</title>
<path fill="none" stroke="midnightblue" d="M456.14,-174C477.96,-174 502.01,-174 523.41,-174"/>
<polygon fill="midnightblue" stroke="midnightblue" points="523.69,-177.5 533.69,-174 523.69,-170.5 523.69,-177.5"/>
</g>
<!-- Node9&#45;&gt;Node2 -->
<g id="edge14" class="edge">
<title>Node9&#45;&gt;Node2</title>
<path fill="none" stroke="midnightblue" d="M446.6,-143.02C470.96,-148.44 499.25,-154.72 523.96,-160.21"/>
<polygon fill="midnightblue" stroke="midnightblue" points="523.42,-163.68 533.94,-162.43 524.94,-156.85 523.42,-163.68"/>
</g>
<!-- Node10 -->
<g id="node10" class="node">
<title>Node10</title>
<g id="a_node10"><a xlink:href="enumerations_8cpp.html#abb39d040475b58d11b29c242b33091e1" target="_top" xlink:title="Enumerates the MEMORY OPERATION OF MOB,debug only.">
<polygon fill="white" stroke="black" points="492,-120.5 492,-139.5 682,-139.5 682,-120.5 492,-120.5"/>
<text text-anchor="middle" x="587" y="-127.5" font-family="Helvetica,sans-Serif" font-size="10.00">get_enum_memory_operation_char</text>
</a>
</g>
</g>
<!-- Node9&#45;&gt;Node10 -->
<g id="edge13" class="edge">
<title>Node9&#45;&gt;Node10</title>
<path fill="none" stroke="midnightblue" d="M446.6,-130C457.74,-130 469.7,-130 481.76,-130"/>
<polygon fill="midnightblue" stroke="midnightblue" points="481.9,-133.5 491.9,-130 481.9,-126.5 481.9,-133.5"/>
</g>
</g>
</svg>
        <g id="navigator" transform="translate(0 0)" fill="#404254">
                <rect fill="#f2f5e9" fill-opacity="0.5" stroke="#606060" stroke-width=".5" x="0" y="0" width="60" height="60"/>
                <use id="zoomplus" xlink:href="#zoomPlus" x="17" y="9" onmousedown="handleZoom(evt,'in')"/>
                <use id="zoomminus" xlink:href="#zoomMin" x="42" y="9" onmousedown="handleZoom(evt,'out')"/>
                <use id="reset" xlink:href="#resetDef" x="30" y="36" onmousedown="handleReset()"/>
                <g id="arrowUp" xlink:href="#dirArrow" transform="translate(30 24)" onmousedown="handlePan(0,-1)">
                  <use xlink:href="#rim" fill="#404040">
                        <set attributeName="fill" to="#808080" begin="arrowUp.mouseover" end="arrowUp.mouseout"/>
                  </use>
                  <path fill="none" stroke="white" stroke-width="1.5" d="M0,-3.0v7 M-2.5,-0.5L0,-3.0L2.5,-0.5"/>
                </g>
                <g id="arrowRight" xlink:href="#dirArrow" transform="rotate(90) translate(36 -43)" onmousedown="handlePan(1,0)">
                  <use xlink:href="#rim" fill="#404040">
                        <set attributeName="fill" to="#808080" begin="arrowRight.mouseover" end="arrowRight.mouseout"/>
                  </use>
                  <path fill="none" stroke="white" stroke-width="1.5" d="M0,-3.0v7 M-2.5,-0.5L0,-3.0L2.5,-0.5"/>
                </g>
                <g id="arrowDown" xlink:href="#dirArrow" transform="rotate(180) translate(-30 -48)" onmousedown="handlePan(0,1)">
                  <use xlink:href="#rim" fill="#404040">
                        <set attributeName="fill" to="#808080" begin="arrowDown.mouseover" end="arrowDown.mouseout"/>
                  </use>
                  <path fill="none" stroke="white" stroke-width="1.5" d="M0,-3.0v7 M-2.5,-0.5L0,-3.0L2.5,-0.5"/>
                </g>
                <g id="arrowLeft" xlink:href="#dirArrow" transform="rotate(270) translate(-36 17)" onmousedown="handlePan(-1,0)">
                  <use xlink:href="#rim" fill="#404040">
                        <set attributeName="fill" to="#808080" begin="arrowLeft.mouseover" end="arrowLeft.mouseout"/>
                  </use>
                  <path fill="none" stroke="white" stroke-width="1.5" d="M0,-3.0v7 M-2.5,-0.5L0,-3.0L2.5,-0.5"/>
                </g>
        </g>
        <svg viewBox="0 0 15 15" width="100%" height="30px" preserveAspectRatio="xMaxYMin meet">
         <g id="arrow_out" transform="scale(0.3 0.3)">
          <a xlink:href="classcache__t_a6b29703ff92a473a4ceb7dcd00d1206d_cgraph_org.svg" target="_base">
           <rect id="button" ry="5" rx="5" y="6" x="6" height="38" width="38"
                fill="#f2f5e9" fill-opacity="0.5" stroke="#606060" stroke-width="1.0"/>
           <path id="arrow"
             d="M 11.500037,31.436501 C 11.940474,20.09759 22.043105,11.32322 32.158766,21.979434 L 37.068811,17.246167 C 37.068811,17.246167 37.088388,32 37.088388,32 L 22.160133,31.978069 C 22.160133,31.978069 26.997745,27.140456 26.997745,27.140456 C 18.528582,18.264221 13.291696,25.230495 11.500037,31.436501 z"
             style="fill:#404040;"/>
          </a>
         </g>
        </svg>
</svg>
