<?xml version="1.0" encoding="UTF-8" standalone="no"?>
<!DOCTYPE svg PUBLIC "-//W3C//DTD SVG 1.1//EN"
 "http://www.w3.org/Graphics/SVG/1.1/DTD/svg11.dtd">
<!-- Generated by graphviz version 2.43.0 (0)
 -->
<!-- Title: vima_controller_t::clock Pages: 1 -->
<!--zoomable 415 -->
<svg id="main" version="1.1" xmlns="http://www.w3.org/2000/svg" xmlns:xlink="http://www.w3.org/1999/xlink" xml:space="preserve" onload="init(evt)">
<style type="text/css"><![CDATA[
.edge:hover path { stroke: red; }
.edge:hover polygon { stroke: red; fill: red; }
]]></style>
<script type="text/javascript"><![CDATA[
var edges = document.getElementsByTagName('g');
if (edges && edges.length) {
  for (var i=0;i<edges.length;i++) {
    if (edges[i].id.substr(0,4)=='edge') {
      edges[i].setAttribute('class','edge');
    }
  }
}
]]></script>
        <defs>
                <circle id="rim" cx="0" cy="0" r="7"/>
                <circle id="rim2" cx="0" cy="0" r="3.5"/>
                <g id="zoomPlus">
                        <use xlink:href="#rim" fill="#404040">
                                <set attributeName="fill" to="#808080" begin="zoomplus.mouseover" end="zoomplus.mouseout"/>
                        </use>
                        <path d="M-4,0h8M0,-4v8" fill="none" stroke="white" stroke-width="1.5" pointer-events="none"/>
                </g>
                <g id="zoomMin">
                        <use xlink:href="#rim" fill="#404040">
                                <set attributeName="fill" to="#808080" begin="zoomminus.mouseover" end="zoomminus.mouseout"/>
                        </use>
                        <path d="M-4,0h8" fill="none" stroke="white" stroke-width="1.5" pointer-events="none"/>
                </g>
                <g id="dirArrow">
                        <path fill="none" stroke="white" stroke-width="1.5" d="M0,-3.0v7 M-2.5,-0.5L0,-3.0L2.5,-0.5"/>
                </g>
               <g id="resetDef">
                       <use xlink:href="#rim2" fill="#404040">
                               <set attributeName="fill" to="#808080" begin="reset.mouseover" end="reset.mouseout"/>
                       </use>
               </g>
        </defs>

<script type="text/javascript">
var viewWidth = 651;
var viewHeight = 415;
var sectionId = 'dynsection-5';
</script>
<script xlink:href="svgpan.js"/>
<svg id="graph" class="graph">
<g id="viewport">
<title>vima_controller_t::clock</title>
<polygon fill="white" stroke="transparent" points="-4,4 -4,-410.82 647,-410.82 647,4 -4,4"/>
<!-- Node1 -->
<g id="node1" class="node">
<title>Node1</title>
<g id="a_node1"><a xlink:title=" ">
<polygon fill="#bfbfbf" stroke="black" points="0,-156.32 0,-186.32 108,-186.32 108,-156.32 0,-156.32"/>
<text text-anchor="start" x="8" y="-174.32" font-family="Helvetica,sans-Serif" font-size="10.00">vima_controller_t::</text>
<text text-anchor="middle" x="54" y="-163.32" font-family="Helvetica,sans-Serif" font-size="10.00">clock</text>
</a>
</g>
</g>
<!-- Node2 -->
<g id="node2" class="node">
<title>Node2</title>
<g id="a_node2"><a xlink:href="classvima__controller__t.html#a9ae21ca712231747eb4a8bbdc5d3e3e6" target="_top" xlink:title=" ">
<polygon fill="white" stroke="black" points="149,-332.32 149,-362.32 257,-362.32 257,-332.32 149,-332.32"/>
<text text-anchor="start" x="157" y="-350.32" font-family="Helvetica,sans-Serif" font-size="10.00">vima_controller_t::</text>
<text text-anchor="middle" x="203" y="-339.32" font-family="Helvetica,sans-Serif" font-size="10.00">check_cache</text>
</a>
</g>
</g>
<!-- Node1&#45;&gt;Node2 -->
<g id="edge1" class="edge">
<title>Node1&#45;&gt;Node2</title>
<path fill="none" stroke="midnightblue" d="M67.53,-186.33C93.29,-217.16 152.31,-287.82 182.87,-324.42"/>
<polygon fill="midnightblue" stroke="midnightblue" points="180.19,-326.67 189.29,-332.1 185.57,-322.18 180.19,-326.67"/>
</g>
<!-- Node3 -->
<g id="node3" class="node">
<title>Node3</title>
<g id="a_node3"><a xlink:href="classorcs__engine__t.html#a1c033e3455736ba89052a40c69ebe0af" target="_top" xlink:title=" ">
<polygon fill="white" stroke="black" points="495,-200.32 495,-230.32 601,-230.32 601,-200.32 495,-200.32"/>
<text text-anchor="start" x="503" y="-218.32" font-family="Helvetica,sans-Serif" font-size="10.00">orcs_engine_t::get</text>
<text text-anchor="middle" x="548" y="-207.32" font-family="Helvetica,sans-Serif" font-size="10.00">_global_cycle</text>
</a>
</g>
</g>
<!-- Node1&#45;&gt;Node3 -->
<g id="edge16" class="edge">
<title>Node1&#45;&gt;Node3</title>
<path fill="none" stroke="midnightblue" d="M107,-186.42C119.08,-189.63 131.94,-192.8 144,-195.32 211.74,-209.46 228.99,-213.19 298,-218.32 350.74,-222.24 364.11,-218.93 417,-218.32 439.02,-218.07 463.13,-217.57 484.54,-217.05"/>
<polygon fill="midnightblue" stroke="midnightblue" points="484.91,-220.54 494.82,-216.8 484.74,-213.55 484.91,-220.54"/>
</g>
<!-- Node7 -->
<g id="node7" class="node">
<title>Node7</title>
<g id="a_node7"><a xlink:href="classvima__controller__t.html#ac1123448bf23f55b4fc892e98daa3477" target="_top" xlink:title=" ">
<polygon fill="white" stroke="black" points="303.5,-178.32 303.5,-208.32 411.5,-208.32 411.5,-178.32 303.5,-178.32"/>
<text text-anchor="start" x="311.5" y="-196.32" font-family="Helvetica,sans-Serif" font-size="10.00">vima_controller_t::</text>
<text text-anchor="middle" x="357.5" y="-185.32" font-family="Helvetica,sans-Serif" font-size="10.00">check_completion</text>
</a>
</g>
</g>
<!-- Node1&#45;&gt;Node7 -->
<g id="edge8" class="edge">
<title>Node1&#45;&gt;Node7</title>
<path fill="none" stroke="midnightblue" d="M108.21,-175.2C159.82,-178.97 238.17,-184.69 293.02,-188.69"/>
<polygon fill="midnightblue" stroke="midnightblue" points="293.09,-192.2 303.32,-189.44 293.6,-185.22 293.09,-192.2"/>
</g>
<!-- Node8 -->
<g id="node8" class="node">
<title>Node8</title>
<g id="a_node8"><a xlink:href="classvima__vector__t.html#ac8311e5ca5d93c3307935b8a197a9f74" target="_top" xlink:title=" ">
<polygon fill="white" stroke="black" points="144,-63.82 144,-82.82 262,-82.82 262,-63.82 144,-63.82"/>
<text text-anchor="middle" x="203" y="-70.82" font-family="Helvetica,sans-Serif" font-size="10.00">vima_vector_t::clock</text>
</a>
</g>
</g>
<!-- Node1&#45;&gt;Node8 -->
<g id="edge10" class="edge">
<title>Node1&#45;&gt;Node8</title>
<path fill="none" stroke="midnightblue" d="M77.65,-156.22C105.14,-137.89 151.26,-107.15 178.94,-88.69"/>
<polygon fill="midnightblue" stroke="midnightblue" points="181.19,-91.4 187.57,-82.94 177.31,-85.58 181.19,-91.4"/>
</g>
<!-- Node10 -->
<g id="node10" class="node">
<title>Node10</title>
<g id="a_node10"><a xlink:href="enumerations_8cpp.html#abb39d040475b58d11b29c242b33091e1" target="_top" xlink:title="Enumerates the MEMORY OPERATION OF MOB,debug only.">
<polygon fill="white" stroke="black" points="453,-19.82 453,-38.82 643,-38.82 643,-19.82 453,-19.82"/>
<text text-anchor="middle" x="548" y="-26.82" font-family="Helvetica,sans-Serif" font-size="10.00">get_enum_memory_operation_char</text>
</a>
</g>
</g>
<!-- Node1&#45;&gt;Node10 -->
<g id="edge15" class="edge">
<title>Node1&#45;&gt;Node10</title>
<path fill="none" stroke="midnightblue" d="M62.64,-156.02C75.85,-131.11 105.29,-81.79 144,-54.32 202.68,-12.67 226.92,-15.57 298,-4.32 368.06,6.77 450.02,-6.45 500.22,-17.49"/>
<polygon fill="midnightblue" stroke="midnightblue" points="499.6,-20.94 510.13,-19.73 501.15,-14.11 499.6,-20.94"/>
</g>
<!-- Node11 -->
<g id="node11" class="node">
<title>Node11</title>
<g id="a_node11"><a xlink:href="classvima__controller__t.html#ad4d9dbf89599fe22bec6695539b80374" target="_top" xlink:title=" ">
<polygon fill="white" stroke="black" points="149,-134.32 149,-164.32 257,-164.32 257,-134.32 149,-134.32"/>
<text text-anchor="start" x="157" y="-152.32" font-family="Helvetica,sans-Serif" font-size="10.00">vima_controller_t::</text>
<text text-anchor="middle" x="203" y="-141.32" font-family="Helvetica,sans-Serif" font-size="10.00">instruction_ready</text>
</a>
</g>
</g>
<!-- Node1&#45;&gt;Node11 -->
<g id="edge17" class="edge">
<title>Node1&#45;&gt;Node11</title>
<path fill="none" stroke="midnightblue" d="M108.07,-163.38C117.94,-161.9 128.34,-160.34 138.49,-158.82"/>
<polygon fill="midnightblue" stroke="midnightblue" points="139.14,-162.27 148.51,-157.32 138.11,-155.34 139.14,-162.27"/>
</g>
<!-- Node2&#45;&gt;Node3 -->
<g id="edge2" class="edge">
<title>Node2&#45;&gt;Node3</title>
<path fill="none" stroke="midnightblue" d="M257,-343.33C301.22,-338.56 365.16,-328.27 417,-306.32 457.34,-289.24 497.73,-258.27 522.54,-237.25"/>
<polygon fill="midnightblue" stroke="midnightblue" points="525.04,-239.72 530.33,-230.54 520.47,-234.41 525.04,-239.72"/>
</g>
<!-- Node4 -->
<g id="node4" class="node">
<title>Node4</title>
<g id="a_node4"><a xlink:href="classvima__controller__t.html#a5204c0e05186f8b07324ce44f7c76b1a" target="_top" xlink:title=" ">
<polygon fill="white" stroke="black" points="494,-376.32 494,-406.32 602,-406.32 602,-376.32 494,-376.32"/>
<text text-anchor="start" x="502" y="-394.32" font-family="Helvetica,sans-Serif" font-size="10.00">vima_controller_t::</text>
<text text-anchor="middle" x="548" y="-383.32" font-family="Helvetica,sans-Serif" font-size="10.00">get_tag</text>
</a>
</g>
</g>
<!-- Node2&#45;&gt;Node4 -->
<g id="edge3" class="edge">
<title>Node2&#45;&gt;Node4</title>
<path fill="none" stroke="midnightblue" d="M226.79,-362.51C245.15,-373.77 272.07,-388.2 298,-394.32 359.8,-408.91 432.65,-405.77 483.53,-400.44"/>
<polygon fill="midnightblue" stroke="midnightblue" points="484.17,-403.89 493.72,-399.31 483.4,-396.94 484.17,-403.89"/>
</g>
<!-- Node5 -->
<g id="node5" class="node">
<title>Node5</title>
<g id="a_node5"><a xlink:href="classvima__controller__t.html#a9571c1c74c26f6b5e2382effa9ce20f4" target="_top" xlink:title=" ">
<polygon fill="white" stroke="black" points="303.5,-354.32 303.5,-384.32 411.5,-384.32 411.5,-354.32 303.5,-354.32"/>
<text text-anchor="start" x="311.5" y="-372.32" font-family="Helvetica,sans-Serif" font-size="10.00">vima_controller_t::</text>
<text text-anchor="middle" x="357.5" y="-361.32" font-family="Helvetica,sans-Serif" font-size="10.00">search_cache</text>
</a>
</g>
</g>
<!-- Node2&#45;&gt;Node5 -->
<g id="edge4" class="edge">
<title>Node2&#45;&gt;Node5</title>
<path fill="none" stroke="midnightblue" d="M257.34,-355.01C269.01,-356.7 281.48,-358.5 293.49,-360.23"/>
<polygon fill="midnightblue" stroke="midnightblue" points="293.05,-363.7 303.45,-361.67 294.05,-356.77 293.05,-363.7"/>
</g>
<!-- Node5&#45;&gt;Node3 -->
<g id="edge5" class="edge">
<title>Node5&#45;&gt;Node3</title>
<path fill="none" stroke="midnightblue" d="M391.96,-354.25C400.41,-349.89 409.28,-344.81 417,-339.32 459.86,-308.87 502.64,-264.76 526.86,-238.18"/>
<polygon fill="midnightblue" stroke="midnightblue" points="529.66,-240.29 533.76,-230.53 524.47,-235.61 529.66,-240.29"/>
</g>
<!-- Node5&#45;&gt;Node4 -->
<g id="edge7" class="edge">
<title>Node5&#45;&gt;Node4</title>
<path fill="none" stroke="midnightblue" d="M411.51,-375.51C433.9,-378.12 460.15,-381.18 483.55,-383.91"/>
<polygon fill="midnightblue" stroke="midnightblue" points="483.4,-387.42 493.74,-385.1 484.21,-380.47 483.4,-387.42"/>
</g>
<!-- Node6 -->
<g id="node6" class="node">
<title>Node6</title>
<g id="a_node6"><a xlink:href="classvima__controller__t.html#a452fd1a40274b4e4123630adbb5c0143" target="_top" xlink:title=" ">
<polygon fill="white" stroke="black" points="494,-327.32 494,-357.32 602,-357.32 602,-327.32 494,-327.32"/>
<text text-anchor="start" x="502" y="-345.32" font-family="Helvetica,sans-Serif" font-size="10.00">vima_controller_t::</text>
<text text-anchor="middle" x="548" y="-334.32" font-family="Helvetica,sans-Serif" font-size="10.00">get_index</text>
</a>
</g>
</g>
<!-- Node5&#45;&gt;Node6 -->
<g id="edge6" class="edge">
<title>Node5&#45;&gt;Node6</title>
<path fill="none" stroke="midnightblue" d="M411.51,-361.73C433.9,-358.52 460.15,-354.76 483.55,-351.41"/>
<polygon fill="midnightblue" stroke="midnightblue" points="484.33,-354.83 493.74,-349.95 483.34,-347.9 484.33,-354.83"/>
</g>
<!-- Node7&#45;&gt;Node3 -->
<g id="edge9" class="edge">
<title>Node7&#45;&gt;Node3</title>
<path fill="none" stroke="midnightblue" d="M411.51,-199.51C434.28,-202.16 461.06,-205.29 484.76,-208.06"/>
<polygon fill="midnightblue" stroke="midnightblue" points="484.38,-211.53 494.71,-209.22 485.19,-204.58 484.38,-211.53"/>
</g>
<!-- Node8&#45;&gt;Node3 -->
<g id="edge11" class="edge">
<title>Node8&#45;&gt;Node3</title>
<path fill="none" stroke="midnightblue" d="M234.45,-82.83C276.21,-96.18 353.34,-121.93 417,-149.32 449.3,-163.22 484.84,-181.47 510.58,-195.26"/>
<polygon fill="midnightblue" stroke="midnightblue" points="509.13,-198.45 519.59,-200.12 512.45,-192.29 509.13,-198.45"/>
</g>
<!-- Node9 -->
<g id="node9" class="node">
<title>Node9</title>
<g id="a_node9"><a xlink:href="classmemory__controller__t.html#ad78d3fe5a6cf2ee6e22f9e563dd6e20e" target="_top" xlink:title=" ">
<polygon fill="white" stroke="black" points="298,-14.32 298,-44.32 417,-44.32 417,-14.32 298,-14.32"/>
<text text-anchor="start" x="306" y="-32.32" font-family="Helvetica,sans-Serif" font-size="10.00">memory_controller_t</text>
<text text-anchor="middle" x="357.5" y="-21.32" font-family="Helvetica,sans-Serif" font-size="10.00">::requestDRAM</text>
</a>
</g>
</g>
<!-- Node8&#45;&gt;Node9 -->
<g id="edge12" class="edge">
<title>Node8&#45;&gt;Node9</title>
<path fill="none" stroke="midnightblue" d="M237.09,-63.77C253.88,-58.93 274.82,-52.88 294.47,-47.22"/>
<polygon fill="midnightblue" stroke="midnightblue" points="295.65,-50.52 304.28,-44.38 293.71,-43.79 295.65,-50.52"/>
</g>
<!-- Node9&#45;&gt;Node3 -->
<g id="edge14" class="edge">
<title>Node9&#45;&gt;Node3</title>
<path fill="none" stroke="midnightblue" d="M393.63,-44.43C401.69,-48.67 409.96,-53.69 417,-59.32 466.06,-98.58 509.82,-158.8 531.88,-191.75"/>
<polygon fill="midnightblue" stroke="midnightblue" points="529.09,-193.87 537.52,-200.29 534.93,-190.01 529.09,-193.87"/>
</g>
<!-- Node9&#45;&gt;Node10 -->
<g id="edge13" class="edge">
<title>Node9&#45;&gt;Node10</title>
<path fill="none" stroke="midnightblue" d="M417.11,-29.32C425.27,-29.32 433.84,-29.32 442.53,-29.32"/>
<polygon fill="midnightblue" stroke="midnightblue" points="442.77,-32.82 452.77,-29.32 442.77,-25.82 442.77,-32.82"/>
</g>
<!-- Node11&#45;&gt;Node3 -->
<g id="edge19" class="edge">
<title>Node11&#45;&gt;Node3</title>
<path fill="none" stroke="midnightblue" d="M257.08,-150.68C300.51,-152.66 363.32,-157.49 417,-169.32 446.21,-175.75 477.86,-186.86 502.62,-196.55"/>
<polygon fill="midnightblue" stroke="midnightblue" points="501.51,-199.87 512.1,-200.32 504.1,-193.37 501.51,-199.87"/>
</g>
<!-- Node11&#45;&gt;Node10 -->
<g id="edge18" class="edge">
<title>Node11&#45;&gt;Node10</title>
<path fill="none" stroke="midnightblue" d="M247.09,-134.24C315.07,-110.46 446.01,-64.65 509.99,-42.27"/>
<polygon fill="midnightblue" stroke="midnightblue" points="511.38,-45.49 519.67,-38.88 509.07,-38.88 511.38,-45.49"/>
</g>
<!-- Node12 -->
<g id="node12" class="node">
<title>Node12</title>
<g id="a_node12"><a xlink:href="classvima__controller__t.html#ad9e225754f26f5c6a7d56315b77fe001" target="_top" xlink:title=" ">
<polygon fill="white" stroke="black" points="303.5,-266.32 303.5,-296.32 411.5,-296.32 411.5,-266.32 303.5,-266.32"/>
<text text-anchor="start" x="311.5" y="-284.32" font-family="Helvetica,sans-Serif" font-size="10.00">vima_controller_t::</text>
<text text-anchor="middle" x="357.5" y="-273.32" font-family="Helvetica,sans-Serif" font-size="10.00">write_to_cache</text>
</a>
</g>
</g>
<!-- Node11&#45;&gt;Node12 -->
<g id="edge20" class="edge">
<title>Node11&#45;&gt;Node12</title>
<path fill="none" stroke="midnightblue" d="M221.49,-164.46C248.35,-187.71 299.9,-232.32 330.94,-259.2"/>
<polygon fill="midnightblue" stroke="midnightblue" points="328.89,-262.05 338.74,-265.95 333.47,-256.76 328.89,-262.05"/>
</g>
<!-- Node12&#45;&gt;Node3 -->
<g id="edge21" class="edge">
<title>Node12&#45;&gt;Node3</title>
<path fill="none" stroke="midnightblue" d="M401.75,-266.18C429.28,-256.54 465.14,-243.98 494.33,-233.76"/>
<polygon fill="midnightblue" stroke="midnightblue" points="495.67,-237 503.96,-230.39 493.36,-230.39 495.67,-237"/>
</g>
<!-- Node12&#45;&gt;Node4 -->
<g id="edge22" class="edge">
<title>Node12&#45;&gt;Node4</title>
<path fill="none" stroke="midnightblue" d="M370.92,-296.5C387.57,-315.86 419.02,-349.01 453,-367.32 462.54,-372.46 473.21,-376.53 483.86,-379.74"/>
<polygon fill="midnightblue" stroke="midnightblue" points="483.02,-383.14 493.59,-382.46 484.9,-376.4 483.02,-383.14"/>
</g>
</g>
</svg>
        <g id="navigator" transform="translate(0 0)" fill="#404254">
                <rect fill="#f2f5e9" fill-opacity="0.5" stroke="#606060" stroke-width=".5" x="0" y="0" width="60" height="60"/>
                <use id="zoomplus" xlink:href="#zoomPlus" x="17" y="9" onmousedown="handleZoom(evt,'in')"/>
                <use id="zoomminus" xlink:href="#zoomMin" x="42" y="9" onmousedown="handleZoom(evt,'out')"/>
                <use id="reset" xlink:href="#resetDef" x="30" y="36" onmousedown="handleReset()"/>
                <g id="arrowUp" xlink:href="#dirArrow" transform="translate(30 24)" onmousedown="handlePan(0,-1)">
                  <use xlink:href="#rim" fill="#404040">
                        <set attributeName="fill" to="#808080" begin="arrowUp.mouseover" end="arrowUp.mouseout"/>
                  </use>
                  <path fill="none" stroke="white" stroke-width="1.5" d="M0,-3.0v7 M-2.5,-0.5L0,-3.0L2.5,-0.5"/>
                </g>
                <g id="arrowRight" xlink:href="#dirArrow" transform="rotate(90) translate(36 -43)" onmousedown="handlePan(1,0)">
                  <use xlink:href="#rim" fill="#404040">
                        <set attributeName="fill" to="#808080" begin="arrowRight.mouseover" end="arrowRight.mouseout"/>
                  </use>
                  <path fill="none" stroke="white" stroke-width="1.5" d="M0,-3.0v7 M-2.5,-0.5L0,-3.0L2.5,-0.5"/>
                </g>
                <g id="arrowDown" xlink:href="#dirArrow" transform="rotate(180) translate(-30 -48)" onmousedown="handlePan(0,1)">
                  <use xlink:href="#rim" fill="#404040">
                        <set attributeName="fill" to="#808080" begin="arrowDown.mouseover" end="arrowDown.mouseout"/>
                  </use>
                  <path fill="none" stroke="white" stroke-width="1.5" d="M0,-3.0v7 M-2.5,-0.5L0,-3.0L2.5,-0.5"/>
                </g>
                <g id="arrowLeft" xlink:href="#dirArrow" transform="rotate(270) translate(-36 17)" onmousedown="handlePan(-1,0)">
                  <use xlink:href="#rim" fill="#404040">
                        <set attributeName="fill" to="#808080" begin="arrowLeft.mouseover" end="arrowLeft.mouseout"/>
                  </use>
                  <path fill="none" stroke="white" stroke-width="1.5" d="M0,-3.0v7 M-2.5,-0.5L0,-3.0L2.5,-0.5"/>
                </g>
        </g>
        <svg viewBox="0 0 15 15" width="100%" height="30px" preserveAspectRatio="xMaxYMin meet">
         <g id="arrow_out" transform="scale(0.3 0.3)">
          <a xlink:href="classvima__controller__t_a73d7a7381958a2a041a4987a1e370744_cgraph_org.svg" target="_base">
           <rect id="button" ry="5" rx="5" y="6" x="6" height="38" width="38"
                fill="#f2f5e9" fill-opacity="0.5" stroke="#606060" stroke-width="1.0"/>
           <path id="arrow"
             d="M 11.500037,31.436501 C 11.940474,20.09759 22.043105,11.32322 32.158766,21.979434 L 37.068811,17.246167 C 37.068811,17.246167 37.088388,32 37.088388,32 L 22.160133,31.978069 C 22.160133,31.978069 26.997745,27.140456 26.997745,27.140456 C 18.528582,18.264221 13.291696,25.230495 11.500037,31.436501 z"
             style="fill:#404040;"/>
          </a>
         </g>
        </svg>
</svg>
