<?xml version="1.0" encoding="UTF-8" standalone="no"?>
<!DOCTYPE svg PUBLIC "-//W3C//DTD SVG 1.1//EN"
 "http://www.w3.org/Graphics/SVG/1.1/DTD/svg11.dtd">
<!-- Generated by graphviz version 2.43.0 (0)
 -->
<!-- Title: memory_order_buffer_line_t Pages: 1 -->
<svg width="363pt" height="163pt"
 viewBox="0.00 0.00 362.50 163.00" xmlns="http://www.w3.org/2000/svg" xmlns:xlink="http://www.w3.org/1999/xlink">
<g id="graph0" class="graph" transform="scale(1 1) rotate(0) translate(4 159)">
<title>memory_order_buffer_line_t</title>
<polygon fill="white" stroke="transparent" points="-4,4 -4,-159 358.5,-159 358.5,4 -4,4"/>
<!-- Node1 -->
<g id="node1" class="node">
<title>Node1</title>
<g id="a_node1"><a xlink:title=" ">
<polygon fill="#bfbfbf" stroke="black" points="107.5,-67.5 107.5,-97.5 229.5,-97.5 229.5,-67.5 107.5,-67.5"/>
<text text-anchor="start" x="115.5" y="-85.5" font-family="Helvetica,sans-Serif" font-size="10.00">memory_order_buffer</text>
<text text-anchor="middle" x="168.5" y="-74.5" font-family="Helvetica,sans-Serif" font-size="10.00">_line_t</text>
</a>
</g>
</g>
<!-- Node1&#45;&gt;Node1 -->
<g id="edge6" class="edge">
<title>Node1&#45;&gt;Node1</title>
<path fill="none" stroke="#9a32cd" stroke-dasharray="5,2" d="M239.99,-87.04C244.67,-85.99 247.5,-84.47 247.5,-82.5 247.5,-79.35 240.25,-77.36 229.78,-76.55"/>
<polygon fill="#9a32cd" stroke="#9a32cd" points="239.21,-83.62 229.78,-88.45 240.16,-90.55 239.21,-83.62"/>
<text text-anchor="middle" x="301" y="-80" font-family="Helvetica,sans-Serif" font-size="10.00"> mem_deps_ptr_array</text>
</g>
<!-- Node3 -->
<g id="node3" class="node">
<title>Node3</title>
<g id="a_node3"><a xlink:href="classreorder__buffer__line__t.html" target="_top" xlink:title=" ">
<polygon fill="white" stroke="black" points="42.5,-0.5 42.5,-19.5 160.5,-19.5 160.5,-0.5 42.5,-0.5"/>
<text text-anchor="middle" x="101.5" y="-7.5" font-family="Helvetica,sans-Serif" font-size="10.00">reorder_buffer_line_t</text>
</a>
</g>
</g>
<!-- Node1&#45;&gt;Node3 -->
<g id="edge5" class="edge">
<title>Node1&#45;&gt;Node3</title>
<path fill="none" stroke="#9a32cd" stroke-dasharray="5,2" d="M110.79,-61.98C105.98,-58.35 101.73,-54.06 98.5,-49 92.87,-40.19 95.34,-27.78 98.04,-19.57"/>
<polygon fill="#9a32cd" stroke="#9a32cd" points="109.03,-65.01 119.33,-67.48 112.82,-59.12 109.03,-65.01"/>
<text text-anchor="middle" x="120.5" y="-41" font-family="Helvetica,sans-Serif" font-size="10.00"> mob_ptr</text>
</g>
<!-- Node2 -->
<g id="node2" class="node">
<title>Node2</title>
<g id="a_node2"><a xlink:href="classmemory__request__client__t.html" target="_top" xlink:title=" ">
<polygon fill="white" stroke="black" points="98,-135.5 98,-154.5 239,-154.5 239,-135.5 98,-135.5"/>
<text text-anchor="middle" x="168.5" y="-142.5" font-family="Helvetica,sans-Serif" font-size="10.00">memory_request_client_t</text>
</a>
</g>
</g>
<!-- Node2&#45;&gt;Node1 -->
<g id="edge1" class="edge">
<title>Node2&#45;&gt;Node1</title>
<path fill="none" stroke="midnightblue" d="M168.5,-125.22C168.5,-116.36 168.5,-105.96 168.5,-97.76"/>
<polygon fill="midnightblue" stroke="midnightblue" points="165,-125.33 168.5,-135.33 172,-125.33 165,-125.33"/>
</g>
<!-- Node3&#45;&gt;Node1 -->
<g id="edge2" class="edge">
<title>Node3&#45;&gt;Node1</title>
<path fill="none" stroke="#9a32cd" stroke-dasharray="5,2" d="M129.82,-24.67C135.81,-28.42 141.75,-32.89 146.5,-38 154.34,-46.43 160.06,-58.18 163.7,-67.34"/>
<polygon fill="#9a32cd" stroke="#9a32cd" points="131.56,-21.63 121.15,-19.69 128.08,-27.7 131.56,-21.63"/>
<text text-anchor="middle" x="172.5" y="-41" font-family="Helvetica,sans-Serif" font-size="10.00"> rob_ptr</text>
</g>
<!-- Node3&#45;&gt;Node3 -->
<g id="edge4" class="edge">
<title>Node3&#45;&gt;Node3</title>
<path fill="none" stroke="#9a32cd" stroke-dasharray="5,2" d="M170.53,-14.41C175.48,-13.41 178.5,-11.94 178.5,-10 178.5,-6.97 171.13,-5.09 160.58,-4.35"/>
<polygon fill="#9a32cd" stroke="#9a32cd" points="170.07,-10.94 160.58,-15.65 170.93,-17.89 170.07,-10.94"/>
<text text-anchor="middle" x="227" y="-7.5" font-family="Helvetica,sans-Serif" font-size="10.00"> reg_deps_ptr_array</text>
</g>
<!-- Node4 -->
<g id="node4" class="node">
<title>Node4</title>
<g id="a_node4"><a xlink:href="classuop__package__t.html" target="_top" xlink:title=" ">
<polygon fill="white" stroke="black" points="0,-73 0,-92 89,-92 89,-73 0,-73"/>
<text text-anchor="middle" x="44.5" y="-80" font-family="Helvetica,sans-Serif" font-size="10.00">uop_package_t</text>
</a>
</g>
</g>
<!-- Node4&#45;&gt;Node3 -->
<g id="edge3" class="edge">
<title>Node4&#45;&gt;Node3</title>
<path fill="none" stroke="#9a32cd" stroke-dasharray="5,2" d="M46.94,-63.08C48.77,-54.76 51.96,-45.21 57.5,-38 63.51,-30.18 72.48,-24.1 80.75,-19.7"/>
<polygon fill="#9a32cd" stroke="#9a32cd" points="43.48,-62.55 45.23,-73 50.38,-63.74 43.48,-62.55"/>
<text text-anchor="middle" x="68.5" y="-41" font-family="Helvetica,sans-Serif" font-size="10.00"> uop</text>
</g>
</g>
</svg>
