<?xml version="1.0" encoding="UTF-8" standalone="no"?>
<!DOCTYPE svg PUBLIC "-//W3C//DTD SVG 1.1//EN"
 "http://www.w3.org/Graphics/SVG/1.1/DTD/svg11.dtd">
<!-- Generated by graphviz version 2.43.0 (0)
 -->
<!-- Title: reorder_buffer_line_t::print_all Pages: 1 -->
<!--zoomable 339 -->
<svg id="main" version="1.1" xmlns="http://www.w3.org/2000/svg" xmlns:xlink="http://www.w3.org/1999/xlink" xml:space="preserve" onload="init(evt)">
<style type="text/css"><![CDATA[
.edge:hover path { stroke: red; }
.edge:hover polygon { stroke: red; fill: red; }
]]></style>
<script type="text/javascript"><![CDATA[
var edges = document.getElementsByTagName('g');
if (edges && edges.length) {
  for (var i=0;i<edges.length;i++) {
    if (edges[i].id.substr(0,4)=='edge') {
      edges[i].setAttribute('class','edge');
    }
  }
}
]]></script>
        <defs>
                <circle id="rim" cx="0" cy="0" r="7"/>
                <circle id="rim2" cx="0" cy="0" r="3.5"/>
                <g id="zoomPlus">
                        <use xlink:href="#rim" fill="#404040">
                                <set attributeName="fill" to="#808080" begin="zoomplus.mouseover" end="zoomplus.mouseout"/>
                        </use>
                        <path d="M-4,0h8M0,-4v8" fill="none" stroke="white" stroke-width="1.5" pointer-events="none"/>
                </g>
                <g id="zoomMin">
                        <use xlink:href="#rim" fill="#404040">
                                <set attributeName="fill" to="#808080" begin="zoomminus.mouseover" end="zoomminus.mouseout"/>
                        </use>
                        <path d="M-4,0h8" fill="none" stroke="white" stroke-width="1.5" pointer-events="none"/>
                </g>
                <g id="dirArrow">
                        <path fill="none" stroke="white" stroke-width="1.5" d="M0,-3.0v7 M-2.5,-0.5L0,-3.0L2.5,-0.5"/>
                </g>
               <g id="resetDef">
                       <use xlink:href="#rim2" fill="#404040">
                               <set attributeName="fill" to="#808080" begin="reset.mouseover" end="reset.mouseout"/>
                       </use>
               </g>
        </defs>

<script type="text/javascript">
var viewWidth = 663;
var viewHeight = 339;
var sectionId = 'dynsection-5';
</script>
<script xlink:href="svgpan.js"/>
<svg id="graph" class="graph">
<g id="viewport">
<title>reorder_buffer_line_t::print_all</title>
<polygon fill="white" stroke="transparent" points="-4,4 -4,-334.5 659,-334.5 659,4 -4,4"/>
<!-- Node1 -->
<g id="node1" class="node">
<title>Node1</title>
<g id="a_node1"><a xlink:title="STATIC METHODS.">
<polygon fill="#bfbfbf" stroke="black" points="0,-67.5 0,-97.5 109,-97.5 109,-67.5 0,-67.5"/>
<text text-anchor="start" x="8" y="-85.5" font-family="Helvetica,sans-Serif" font-size="10.00">reorder_buffer_line</text>
<text text-anchor="middle" x="54.5" y="-74.5" font-family="Helvetica,sans-Serif" font-size="10.00">_t::print_all</text>
</a>
</g>
</g>
<!-- Node2 -->
<g id="node2" class="node">
<title>Node2</title>
<g id="a_node2"><a xlink:href="classreorder__buffer__line__t.html#a2a9e8c57dc5b9bf026066c34c2c96111" target="_top" xlink:title=" ">
<polygon fill="white" stroke="black" points="145,-144.5 145,-174.5 261,-174.5 261,-144.5 145,-144.5"/>
<text text-anchor="start" x="153" y="-162.5" font-family="Helvetica,sans-Serif" font-size="10.00">reorder_buffer_line</text>
<text text-anchor="middle" x="203" y="-151.5" font-family="Helvetica,sans-Serif" font-size="10.00">_t::content_to_string</text>
</a>
</g>
</g>
<!-- Node1&#45;&gt;Node2 -->
<g id="edge1" class="edge">
<title>Node1&#45;&gt;Node2</title>
<path fill="none" stroke="midnightblue" d="M84.09,-97.53C107.01,-109.57 139.36,-126.57 164.37,-139.72"/>
<polygon fill="midnightblue" stroke="midnightblue" points="162.75,-142.82 173.23,-144.38 166,-136.63 162.75,-142.82"/>
</g>
<!-- Node7 -->
<g id="node7" class="node">
<title>Node7</title>
<g id="a_node7"><a xlink:href="classutils__t.html#a07f0f224928b89eb53c4430d05799916" target="_top" xlink:title=" ">
<polygon fill="white" stroke="black" points="511,-0.5 511,-30.5 609,-30.5 609,-0.5 511,-0.5"/>
<text text-anchor="start" x="519" y="-18.5" font-family="Helvetica,sans-Serif" font-size="10.00">utils_t::uint32_to</text>
<text text-anchor="middle" x="560" y="-7.5" font-family="Helvetica,sans-Serif" font-size="10.00">_string</text>
</a>
</g>
</g>
<!-- Node1&#45;&gt;Node7 -->
<g id="edge17" class="edge">
<title>Node1&#45;&gt;Node7</title>
<path fill="none" stroke="midnightblue" d="M109.03,-71.97C157.85,-62.66 232.05,-49.23 297,-40.5 366.63,-31.14 447.12,-24 500.32,-19.8"/>
<polygon fill="midnightblue" stroke="midnightblue" points="500.89,-23.26 510.58,-19 500.34,-16.29 500.89,-23.26"/>
</g>
<!-- Node3 -->
<g id="node3" class="node">
<title>Node3</title>
<g id="a_node3"><a xlink:href="classutils__t.html#a6119f6b64f0de103f7e051345fe2e87f" target="_top" xlink:title=" ">
<polygon fill="white" stroke="black" points="499,-311 499,-330 621,-330 621,-311 499,-311"/>
<text text-anchor="middle" x="560" y="-318" font-family="Helvetica,sans-Serif" font-size="10.00">utils_t::bool_to_string</text>
</a>
</g>
</g>
<!-- Node2&#45;&gt;Node3 -->
<g id="edge2" class="edge">
<title>Node2&#45;&gt;Node3</title>
<path fill="none" stroke="midnightblue" d="M218.01,-174.77C235.06,-192.5 265.51,-221.47 297,-238.5 350.81,-267.6 373.59,-251.57 429,-277.5 446.42,-285.65 447.24,-294.12 465,-301.5 472.54,-304.63 480.65,-307.26 488.82,-309.47"/>
<polygon fill="midnightblue" stroke="midnightblue" points="488.24,-312.93 498.79,-311.95 489.93,-306.14 488.24,-312.93"/>
</g>
<!-- Node4 -->
<g id="node4" class="node">
<title>Node4</title>
<g id="a_node4"><a xlink:href="classuop__package__t.html#a61c87d245f4d27f08261c2cfcc729e90" target="_top" xlink:title="Convert Instruction variables into String.">
<polygon fill="white" stroke="black" points="297,-98.5 297,-128.5 429,-128.5 429,-98.5 297,-98.5"/>
<text text-anchor="start" x="305" y="-116.5" font-family="Helvetica,sans-Serif" font-size="10.00">uop_package_t::content</text>
<text text-anchor="middle" x="363" y="-105.5" font-family="Helvetica,sans-Serif" font-size="10.00">_to_string</text>
</a>
</g>
</g>
<!-- Node2&#45;&gt;Node4 -->
<g id="edge3" class="edge">
<title>Node2&#45;&gt;Node4</title>
<path fill="none" stroke="midnightblue" d="M255.74,-144.44C270.13,-140.25 285.9,-135.65 300.79,-131.32"/>
<polygon fill="midnightblue" stroke="midnightblue" points="301.8,-134.67 310.42,-128.52 299.84,-127.95 301.8,-134.67"/>
</g>
<!-- Node2&#45;&gt;Node7 -->
<g id="edge15" class="edge">
<title>Node2&#45;&gt;Node7</title>
<path fill="none" stroke="midnightblue" d="M220.26,-144.37C237.93,-128.66 267.59,-104.34 297,-89.5 362.95,-56.23 446.01,-36 500.72,-25.29"/>
<polygon fill="midnightblue" stroke="midnightblue" points="501.43,-28.72 510.6,-23.4 500.12,-21.85 501.43,-28.72"/>
</g>
<!-- Node8 -->
<g id="node8" class="node">
<title>Node8</title>
<g id="a_node8"><a xlink:href="classutils__t.html#aa30deed2def3a1339369e6806073e9fd" target="_top" xlink:title=" ">
<polygon fill="white" stroke="black" points="511,-147.5 511,-177.5 609,-177.5 609,-147.5 511,-147.5"/>
<text text-anchor="start" x="519" y="-165.5" font-family="Helvetica,sans-Serif" font-size="10.00">utils_t::uint64_to</text>
<text text-anchor="middle" x="560" y="-154.5" font-family="Helvetica,sans-Serif" font-size="10.00">_string</text>
</a>
</g>
</g>
<!-- Node2&#45;&gt;Node8 -->
<g id="edge16" class="edge">
<title>Node2&#45;&gt;Node8</title>
<path fill="none" stroke="midnightblue" d="M261.04,-159.98C326.8,-160.54 434.34,-161.45 500.66,-162.01"/>
<polygon fill="midnightblue" stroke="midnightblue" points="500.9,-165.51 510.93,-162.09 500.96,-158.51 500.9,-165.51"/>
</g>
<!-- Node9 -->
<g id="node9" class="node">
<title>Node9</title>
<g id="a_node9"><a xlink:href="classmemory__order__buffer__line__t.html#ab207bfff4362a0f5976d62747ab18109" target="_top" xlink:title=" ">
<polygon fill="white" stroke="black" points="302,-188 302,-229 424,-229 424,-188 302,-188"/>
<text text-anchor="start" x="310" y="-217" font-family="Helvetica,sans-Serif" font-size="10.00">memory_order_buffer</text>
<text text-anchor="start" x="310" y="-206" font-family="Helvetica,sans-Serif" font-size="10.00">_line_t::content_to</text>
<text text-anchor="middle" x="363" y="-195" font-family="Helvetica,sans-Serif" font-size="10.00">_string</text>
</a>
</g>
</g>
<!-- Node2&#45;&gt;Node9 -->
<g id="edge8" class="edge">
<title>Node2&#45;&gt;Node9</title>
<path fill="none" stroke="midnightblue" d="M252.69,-174.6C265.17,-178.47 278.84,-182.71 292.15,-186.84"/>
<polygon fill="midnightblue" stroke="midnightblue" points="291.17,-190.2 301.76,-189.82 293.25,-183.51 291.17,-190.2"/>
</g>
<!-- Node13 -->
<g id="node13" class="node">
<title>Node13</title>
<g id="a_node13"><a xlink:href="enumerations_8cpp.html#ad105be945954dbff8a0b2ce5a2a93b98" target="_top" xlink:title="Enumerates the processor stages, used to indicate when the branch will be solved.">
<polygon fill="white" stroke="black" points="304,-286.5 304,-316.5 422,-316.5 422,-286.5 304,-286.5"/>
<text text-anchor="start" x="312" y="-304.5" font-family="Helvetica,sans-Serif" font-size="10.00">get_enum_processor</text>
<text text-anchor="middle" x="363" y="-293.5" font-family="Helvetica,sans-Serif" font-size="10.00">_stage_char</text>
</a>
</g>
</g>
<!-- Node2&#45;&gt;Node13 -->
<g id="edge14" class="edge">
<title>Node2&#45;&gt;Node13</title>
<path fill="none" stroke="midnightblue" d="M213.43,-174.75C228.56,-198.2 260.32,-243.32 297,-271.5 301.92,-275.28 307.38,-278.72 313,-281.82"/>
<polygon fill="midnightblue" stroke="midnightblue" points="311.4,-284.93 321.89,-286.4 314.61,-278.71 311.4,-284.93"/>
</g>
<!-- Node5 -->
<g id="node5" class="node">
<title>Node5</title>
<g id="a_node5"><a xlink:href="classutils__t.html#ae3f4242cda49254d8d43f5d012d00419" target="_top" xlink:title=" ">
<polygon fill="white" stroke="black" points="508,-98.5 508,-128.5 612,-128.5 612,-98.5 508,-98.5"/>
<text text-anchor="start" x="516" y="-116.5" font-family="Helvetica,sans-Serif" font-size="10.00">utils_t::big_uint64</text>
<text text-anchor="middle" x="560" y="-105.5" font-family="Helvetica,sans-Serif" font-size="10.00">_to_string</text>
</a>
</g>
</g>
<!-- Node4&#45;&gt;Node5 -->
<g id="edge4" class="edge">
<title>Node4&#45;&gt;Node5</title>
<path fill="none" stroke="midnightblue" d="M429.2,-113.5C451.28,-113.5 475.85,-113.5 497.62,-113.5"/>
<polygon fill="midnightblue" stroke="midnightblue" points="497.74,-117 507.74,-113.5 497.74,-110 497.74,-117"/>
</g>
<!-- Node6 -->
<g id="node6" class="node">
<title>Node6</title>
<g id="a_node6"><a xlink:href="enumerations_8cpp.html#a29b4f0c7eca5c960bab850a56e5e411c" target="_top" xlink:title=" ">
<polygon fill="white" stroke="black" points="499,-49.5 499,-79.5 621,-79.5 621,-49.5 499,-49.5"/>
<text text-anchor="start" x="507" y="-67.5" font-family="Helvetica,sans-Serif" font-size="10.00">get_enum_instruction</text>
<text text-anchor="middle" x="560" y="-56.5" font-family="Helvetica,sans-Serif" font-size="10.00">_operation_char</text>
</a>
</g>
</g>
<!-- Node4&#45;&gt;Node6 -->
<g id="edge5" class="edge">
<title>Node4&#45;&gt;Node6</title>
<path fill="none" stroke="midnightblue" d="M423.83,-98.47C444.61,-93.24 468.08,-87.35 489.57,-81.95"/>
<polygon fill="midnightblue" stroke="midnightblue" points="490.44,-85.34 499.28,-79.51 488.73,-78.55 490.44,-85.34"/>
</g>
<!-- Node4&#45;&gt;Node7 -->
<g id="edge6" class="edge">
<title>Node4&#45;&gt;Node7</title>
<path fill="none" stroke="midnightblue" d="M398.45,-98.36C408.75,-93.09 419.74,-86.68 429,-79.5 447.9,-64.84 444.53,-51.88 465,-39.5 475.92,-32.9 488.6,-28.1 501.06,-24.62"/>
<polygon fill="midnightblue" stroke="midnightblue" points="502.13,-27.96 510.96,-22.1 500.4,-21.17 502.13,-27.96"/>
</g>
<!-- Node4&#45;&gt;Node8 -->
<g id="edge7" class="edge">
<title>Node4&#45;&gt;Node8</title>
<path fill="none" stroke="midnightblue" d="M423.83,-128.53C448.33,-134.69 476.58,-141.79 500.9,-147.9"/>
<polygon fill="midnightblue" stroke="midnightblue" points="500.16,-151.32 510.71,-150.37 501.87,-144.53 500.16,-151.32"/>
</g>
<!-- Node9&#45;&gt;Node3 -->
<g id="edge9" class="edge">
<title>Node9&#45;&gt;Node3</title>
<path fill="none" stroke="midnightblue" d="M409.77,-229.16C416.63,-233.35 423.3,-238.14 429,-243.5 451.1,-264.28 440.09,-284.18 465,-301.5 472.25,-306.54 480.53,-310.31 489.11,-313.11"/>
<polygon fill="midnightblue" stroke="midnightblue" points="488.3,-316.52 498.87,-315.89 490.21,-309.79 488.3,-316.52"/>
</g>
<!-- Node9&#45;&gt;Node8 -->
<g id="edge13" class="edge">
<title>Node9&#45;&gt;Node8</title>
<path fill="none" stroke="midnightblue" d="M424.1,-194.32C448.59,-188.55 476.79,-181.89 501.05,-176.17"/>
<polygon fill="midnightblue" stroke="midnightblue" points="501.91,-179.56 510.84,-173.86 500.3,-172.75 501.91,-179.56"/>
</g>
<!-- Node10 -->
<g id="node10" class="node">
<title>Node10</title>
<g id="a_node10"><a xlink:href="enumerations_8cpp.html#abb39d040475b58d11b29c242b33091e1" target="_top" xlink:title="Enumerates the MEMORY OPERATION OF MOB,debug only.">
<polygon fill="white" stroke="black" points="465,-273 465,-292 655,-292 655,-273 465,-273"/>
<text text-anchor="middle" x="560" y="-280" font-family="Helvetica,sans-Serif" font-size="10.00">get_enum_memory_operation_char</text>
</a>
</g>
</g>
<!-- Node9&#45;&gt;Node10 -->
<g id="edge10" class="edge">
<title>Node9&#45;&gt;Node10</title>
<path fill="none" stroke="midnightblue" d="M402.54,-229.14C411.25,-233.84 420.45,-238.83 429,-243.5 445.06,-252.28 447.83,-257.17 465,-263.5 472.3,-266.19 480.08,-268.54 487.9,-270.57"/>
<polygon fill="midnightblue" stroke="midnightblue" points="487.27,-274.02 497.81,-272.98 488.92,-267.21 487.27,-274.02"/>
</g>
<!-- Node11 -->
<g id="node11" class="node">
<title>Node11</title>
<g id="a_node11"><a xlink:href="enumerations_8cpp.html#a4f1219a7c31d137c368e36cea5be9128" target="_top" xlink:title="Enumerates the package state,.">
<polygon fill="white" stroke="black" points="476.5,-235 476.5,-254 643.5,-254 643.5,-235 476.5,-235"/>
<text text-anchor="middle" x="560" y="-242" font-family="Helvetica,sans-Serif" font-size="10.00">get_enum_package_state_char</text>
</a>
</g>
</g>
<!-- Node9&#45;&gt;Node11 -->
<g id="edge11" class="edge">
<title>Node9&#45;&gt;Node11</title>
<path fill="none" stroke="midnightblue" d="M424.1,-219.59C447.3,-223.88 473.83,-228.78 497.19,-233.09"/>
<polygon fill="midnightblue" stroke="midnightblue" points="496.86,-236.59 507.33,-234.96 498.13,-229.7 496.86,-236.59"/>
</g>
<!-- Node12 -->
<g id="node12" class="node">
<title>Node12</title>
<g id="a_node12"><a xlink:href="classutils__t.html#a710d0f0a1d8f5561bb63460d2c833391" target="_top" xlink:title=" ">
<polygon fill="white" stroke="black" points="497.5,-197 497.5,-216 622.5,-216 622.5,-197 497.5,-197"/>
<text text-anchor="middle" x="560" y="-204" font-family="Helvetica,sans-Serif" font-size="10.00">utils_t::int32_to_string</text>
</a>
</g>
</g>
<!-- Node9&#45;&gt;Node12 -->
<g id="edge12" class="edge">
<title>Node9&#45;&gt;Node12</title>
<path fill="none" stroke="midnightblue" d="M424.1,-207.88C444.1,-207.68 466.58,-207.45 487.37,-207.23"/>
<polygon fill="midnightblue" stroke="midnightblue" points="487.45,-210.73 497.42,-207.13 487.38,-203.73 487.45,-210.73"/>
</g>
</g>
</svg>
        <g id="navigator" transform="translate(0 0)" fill="#404254">
                <rect fill="#f2f5e9" fill-opacity="0.5" stroke="#606060" stroke-width=".5" x="0" y="0" width="60" height="60"/>
                <use id="zoomplus" xlink:href="#zoomPlus" x="17" y="9" onmousedown="handleZoom(evt,'in')"/>
                <use id="zoomminus" xlink:href="#zoomMin" x="42" y="9" onmousedown="handleZoom(evt,'out')"/>
                <use id="reset" xlink:href="#resetDef" x="30" y="36" onmousedown="handleReset()"/>
                <g id="arrowUp" xlink:href="#dirArrow" transform="translate(30 24)" onmousedown="handlePan(0,-1)">
                  <use xlink:href="#rim" fill="#404040">
                        <set attributeName="fill" to="#808080" begin="arrowUp.mouseover" end="arrowUp.mouseout"/>
                  </use>
                  <path fill="none" stroke="white" stroke-width="1.5" d="M0,-3.0v7 M-2.5,-0.5L0,-3.0L2.5,-0.5"/>
                </g>
                <g id="arrowRight" xlink:href="#dirArrow" transform="rotate(90) translate(36 -43)" onmousedown="handlePan(1,0)">
                  <use xlink:href="#rim" fill="#404040">
                        <set attributeName="fill" to="#808080" begin="arrowRight.mouseover" end="arrowRight.mouseout"/>
                  </use>
                  <path fill="none" stroke="white" stroke-width="1.5" d="M0,-3.0v7 M-2.5,-0.5L0,-3.0L2.5,-0.5"/>
                </g>
                <g id="arrowDown" xlink:href="#dirArrow" transform="rotate(180) translate(-30 -48)" onmousedown="handlePan(0,1)">
                  <use xlink:href="#rim" fill="#404040">
                        <set attributeName="fill" to="#808080" begin="arrowDown.mouseover" end="arrowDown.mouseout"/>
                  </use>
                  <path fill="none" stroke="white" stroke-width="1.5" d="M0,-3.0v7 M-2.5,-0.5L0,-3.0L2.5,-0.5"/>
                </g>
                <g id="arrowLeft" xlink:href="#dirArrow" transform="rotate(270) translate(-36 17)" onmousedown="handlePan(-1,0)">
                  <use xlink:href="#rim" fill="#404040">
                        <set attributeName="fill" to="#808080" begin="arrowLeft.mouseover" end="arrowLeft.mouseout"/>
                  </use>
                  <path fill="none" stroke="white" stroke-width="1.5" d="M0,-3.0v7 M-2.5,-0.5L0,-3.0L2.5,-0.5"/>
                </g>
        </g>
        <svg viewBox="0 0 15 15" width="100%" height="30px" preserveAspectRatio="xMaxYMin meet">
         <g id="arrow_out" transform="scale(0.3 0.3)">
          <a xlink:href="classreorder__buffer__line__t_a33bbf22069fd6bcf5de8970f8932a715_cgraph_org.svg" target="_base">
           <rect id="button" ry="5" rx="5" y="6" x="6" height="38" width="38"
                fill="#f2f5e9" fill-opacity="0.5" stroke="#606060" stroke-width="1.0"/>
           <path id="arrow"
             d="M 11.500037,31.436501 C 11.940474,20.09759 22.043105,11.32322 32.158766,21.979434 L 37.068811,17.246167 C 37.068811,17.246167 37.088388,32 37.088388,32 L 22.160133,31.978069 C 22.160133,31.978069 26.997745,27.140456 26.997745,27.140456 C 18.528582,18.264221 13.291696,25.230495 11.500037,31.436501 z"
             style="fill:#404040;"/>
          </a>
         </g>
        </svg>
</svg>
