<?xml version="1.0" encoding="UTF-8" standalone="no"?>
<!DOCTYPE svg PUBLIC "-//W3C//DTD SVG 1.1//EN"
 "http://www.w3.org/Graphics/SVG/1.1/DTD/svg11.dtd">
<!-- Generated by graphviz version 2.43.0 (0)
 -->
<!-- Title: opcode_package_t::content_to_string2 Pages: 1 -->
<svg width="360pt" height="225pt"
 viewBox="0.00 0.00 360.00 225.00" xmlns="http://www.w3.org/2000/svg" xmlns:xlink="http://www.w3.org/1999/xlink">
<g id="graph0" class="graph" transform="scale(1 1) rotate(0) translate(4 221)">
<title>opcode_package_t::content_to_string2</title>
<polygon fill="white" stroke="transparent" points="-4,4 -4,-221 356,-221 356,4 -4,4"/>
<!-- Node1 -->
<g id="node1" class="node">
<title>Node1</title>
<g id="a_node1"><a xlink:title=" ">
<polygon fill="#bfbfbf" stroke="black" points="0,-93.5 0,-123.5 149,-123.5 149,-93.5 0,-93.5"/>
<text text-anchor="start" x="8" y="-111.5" font-family="Helvetica,sans-Serif" font-size="10.00">opcode_package_t::content</text>
<text text-anchor="middle" x="74.5" y="-100.5" font-family="Helvetica,sans-Serif" font-size="10.00">_to_string2</text>
</a>
</g>
</g>
<!-- Node2 -->
<g id="node2" class="node">
<title>Node2</title>
<g id="a_node2"><a xlink:href="classutils__t.html#ae3f4242cda49254d8d43f5d012d00419" target="_top" xlink:title=" ">
<polygon fill="white" stroke="black" points="216.5,-186.5 216.5,-216.5 320.5,-216.5 320.5,-186.5 216.5,-186.5"/>
<text text-anchor="start" x="224.5" y="-204.5" font-family="Helvetica,sans-Serif" font-size="10.00">utils_t::big_uint64</text>
<text text-anchor="middle" x="268.5" y="-193.5" font-family="Helvetica,sans-Serif" font-size="10.00">_to_string</text>
</a>
</g>
</g>
<!-- Node1&#45;&gt;Node2 -->
<g id="edge1" class="edge">
<title>Node1&#45;&gt;Node2</title>
<path fill="none" stroke="midnightblue" d="M95.52,-123.54C116.77,-138.9 151.8,-162.57 185,-177.5 191.73,-180.53 198.95,-183.28 206.21,-185.76"/>
<polygon fill="midnightblue" stroke="midnightblue" points="205.49,-189.21 216.09,-188.96 207.65,-182.55 205.49,-189.21"/>
</g>
<!-- Node3 -->
<g id="node3" class="node">
<title>Node3</title>
<g id="a_node3"><a xlink:href="enumerations_8cpp.html#a29b4f0c7eca5c960bab850a56e5e411c" target="_top" xlink:title=" ">
<polygon fill="white" stroke="black" points="207.5,-137.5 207.5,-167.5 329.5,-167.5 329.5,-137.5 207.5,-137.5"/>
<text text-anchor="start" x="215.5" y="-155.5" font-family="Helvetica,sans-Serif" font-size="10.00">get_enum_instruction</text>
<text text-anchor="middle" x="268.5" y="-144.5" font-family="Helvetica,sans-Serif" font-size="10.00">_operation_char</text>
</a>
</g>
</g>
<!-- Node1&#45;&gt;Node3 -->
<g id="edge2" class="edge">
<title>Node1&#45;&gt;Node3</title>
<path fill="none" stroke="midnightblue" d="M141.04,-123.52C159.27,-127.7 179.14,-132.25 197.61,-136.48"/>
<polygon fill="midnightblue" stroke="midnightblue" points="196.89,-139.91 207.42,-138.73 198.45,-133.09 196.89,-139.91"/>
</g>
<!-- Node4 -->
<g id="node4" class="node">
<title>Node4</title>
<g id="a_node4"><a xlink:href="enumerations_8cpp.html#a4f1219a7c31d137c368e36cea5be9128" target="_top" xlink:title="Enumerates the package state,.">
<polygon fill="white" stroke="black" points="185,-99 185,-118 352,-118 352,-99 185,-99"/>
<text text-anchor="middle" x="268.5" y="-106" font-family="Helvetica,sans-Serif" font-size="10.00">get_enum_package_state_char</text>
</a>
</g>
</g>
<!-- Node1&#45;&gt;Node4 -->
<g id="edge3" class="edge">
<title>Node1&#45;&gt;Node4</title>
<path fill="none" stroke="midnightblue" d="M149.18,-108.5C157.54,-108.5 166.14,-108.5 174.71,-108.5"/>
<polygon fill="midnightblue" stroke="midnightblue" points="174.73,-112 184.73,-108.5 174.73,-105 174.73,-112"/>
</g>
<!-- Node5 -->
<g id="node5" class="node">
<title>Node5</title>
<g id="a_node5"><a xlink:href="classutils__t.html#a07f0f224928b89eb53c4430d05799916" target="_top" xlink:title=" ">
<polygon fill="white" stroke="black" points="219.5,-49.5 219.5,-79.5 317.5,-79.5 317.5,-49.5 219.5,-49.5"/>
<text text-anchor="start" x="227.5" y="-67.5" font-family="Helvetica,sans-Serif" font-size="10.00">utils_t::uint32_to</text>
<text text-anchor="middle" x="268.5" y="-56.5" font-family="Helvetica,sans-Serif" font-size="10.00">_string</text>
</a>
</g>
</g>
<!-- Node1&#45;&gt;Node5 -->
<g id="edge4" class="edge">
<title>Node1&#45;&gt;Node5</title>
<path fill="none" stroke="midnightblue" d="M141.04,-93.48C163.17,-88.41 187.71,-82.78 209.24,-77.85"/>
<polygon fill="midnightblue" stroke="midnightblue" points="210.26,-81.21 219.22,-75.56 208.7,-74.39 210.26,-81.21"/>
</g>
<!-- Node6 -->
<g id="node6" class="node">
<title>Node6</title>
<g id="a_node6"><a xlink:href="classutils__t.html#aa30deed2def3a1339369e6806073e9fd" target="_top" xlink:title=" ">
<polygon fill="white" stroke="black" points="219.5,-0.5 219.5,-30.5 317.5,-30.5 317.5,-0.5 219.5,-0.5"/>
<text text-anchor="start" x="227.5" y="-18.5" font-family="Helvetica,sans-Serif" font-size="10.00">utils_t::uint64_to</text>
<text text-anchor="middle" x="268.5" y="-7.5" font-family="Helvetica,sans-Serif" font-size="10.00">_string</text>
</a>
</g>
</g>
<!-- Node1&#45;&gt;Node6 -->
<g id="edge5" class="edge">
<title>Node1&#45;&gt;Node6</title>
<path fill="none" stroke="midnightblue" d="M95.99,-93.49C117.33,-78.42 152.18,-55.35 185,-40.5 192.74,-37 201.11,-33.82 209.44,-30.99"/>
<polygon fill="midnightblue" stroke="midnightblue" points="210.74,-34.25 219.17,-27.84 208.58,-27.59 210.74,-34.25"/>
</g>
</g>
</svg>
