<?xml version="1.0" encoding="UTF-8" standalone="no"?>
<!DOCTYPE svg PUBLIC "-//W3C//DTD SVG 1.1//EN"
 "http://www.w3.org/Graphics/SVG/1.1/DTD/svg11.dtd">
<!-- Generated by graphviz version 2.43.0 (0)
 -->
<!-- Title: memory_channel_t::allocate Pages: 1 -->
<svg width="634pt" height="100pt"
 viewBox="0.00 0.00 634.00 99.50" xmlns="http://www.w3.org/2000/svg" xmlns:xlink="http://www.w3.org/1999/xlink">
<g id="graph0" class="graph" transform="scale(1 1) rotate(0) translate(4 95.5)">
<title>memory_channel_t::allocate</title>
<polygon fill="white" stroke="transparent" points="-4,4 -4,-95.5 630,-95.5 630,4 -4,4"/>
<!-- Node1 -->
<g id="node1" class="node">
<title>Node1</title>
<g id="a_node1"><a xlink:title=" ">
<polygon fill="#bfbfbf" stroke="black" points="0,-50 0,-69 155,-69 155,-50 0,-50"/>
<text text-anchor="middle" x="77.5" y="-57" font-family="Helvetica,sans-Serif" font-size="10.00">memory_channel_t::allocate</text>
</a>
</g>
</g>
<!-- Node2 -->
<g id="node2" class="node">
<title>Node2</title>
<g id="a_node2"><a xlink:href="classconfigure__t.html#a15917e4f43ded0a072c8f1017a9f5035" target="_top" xlink:title=" ">
<polygon fill="white" stroke="black" points="195,-72 195,-91 318,-91 318,-72 195,-72"/>
<text text-anchor="middle" x="256.5" y="-79" font-family="Helvetica,sans-Serif" font-size="10.00">configure_t::getConfig</text>
</a>
</g>
</g>
<!-- Node1&#45;&gt;Node2 -->
<g id="edge1" class="edge">
<title>Node1&#45;&gt;Node2</title>
<path fill="none" stroke="midnightblue" d="M155.11,-69.02C164.95,-70.25 175,-71.49 184.75,-72.71"/>
<polygon fill="midnightblue" stroke="midnightblue" points="184.42,-76.19 194.77,-73.95 185.28,-69.25 184.42,-76.19"/>
</g>
<!-- Node3 -->
<g id="node3" class="node">
<title>Node3</title>
<g id="a_node3"><a xlink:href="classmemory__channel__t.html#afacf424f65027d4a2f83b45d2cf165e3" target="_top" xlink:title=" ">
<polygon fill="white" stroke="black" points="191,-22.5 191,-52.5 322,-52.5 322,-22.5 191,-22.5"/>
<text text-anchor="start" x="199" y="-40.5" font-family="Helvetica,sans-Serif" font-size="10.00">memory_channel_t::set</text>
<text text-anchor="middle" x="256.5" y="-29.5" font-family="Helvetica,sans-Serif" font-size="10.00">_masks</text>
</a>
</g>
</g>
<!-- Node1&#45;&gt;Node3 -->
<g id="edge2" class="edge">
<title>Node1&#45;&gt;Node3</title>
<path fill="none" stroke="midnightblue" d="M155.11,-49.98C163.7,-48.91 172.45,-47.82 181.02,-46.76"/>
<polygon fill="midnightblue" stroke="midnightblue" points="181.48,-50.23 190.97,-45.52 180.62,-43.28 181.48,-50.23"/>
</g>
<!-- Node4 -->
<g id="node4" class="node">
<title>Node4</title>
<g id="a_node4"><a xlink:href="classutils__t.html#a8dc759ed0961089212af1407f56dde35" target="_top" xlink:title=" ">
<polygon fill="white" stroke="black" points="498,-22.5 498,-52.5 626,-52.5 626,-22.5 498,-22.5"/>
<text text-anchor="start" x="506" y="-40.5" font-family="Helvetica,sans-Serif" font-size="10.00">utils_t::check_if_power</text>
<text text-anchor="middle" x="562" y="-29.5" font-family="Helvetica,sans-Serif" font-size="10.00">_of_two</text>
</a>
</g>
</g>
<!-- Node3&#45;&gt;Node4 -->
<g id="edge3" class="edge">
<title>Node3&#45;&gt;Node4</title>
<path fill="none" stroke="midnightblue" d="M322.1,-39.71C334.04,-40.04 346.39,-40.33 358,-40.5 404.22,-41.19 415.78,-41.2 462,-40.5 470.34,-40.37 479.08,-40.19 487.76,-39.97"/>
<polygon fill="midnightblue" stroke="midnightblue" points="487.99,-43.46 497.9,-39.7 487.81,-36.47 487.99,-43.46"/>
</g>
<!-- Node5 -->
<g id="node5" class="node">
<title>Node5</title>
<g id="a_node5"><a xlink:href="classutils__t.html#a9db286f7de201c5b004f35c6bcf3d99f" target="_top" xlink:title=" ">
<polygon fill="white" stroke="black" points="358,-0.5 358,-30.5 462,-30.5 462,-0.5 358,-0.5"/>
<text text-anchor="start" x="366" y="-18.5" font-family="Helvetica,sans-Serif" font-size="10.00">utils_t::get_power</text>
<text text-anchor="middle" x="410" y="-7.5" font-family="Helvetica,sans-Serif" font-size="10.00">_of_two</text>
</a>
</g>
</g>
<!-- Node3&#45;&gt;Node5 -->
<g id="edge4" class="edge">
<title>Node3&#45;&gt;Node5</title>
<path fill="none" stroke="midnightblue" d="M322.19,-28.11C330.65,-26.88 339.3,-25.62 347.71,-24.4"/>
<polygon fill="midnightblue" stroke="midnightblue" points="348.41,-27.84 357.8,-22.93 347.41,-20.91 348.41,-27.84"/>
</g>
<!-- Node5&#45;&gt;Node4 -->
<g id="edge5" class="edge">
<title>Node5&#45;&gt;Node4</title>
<path fill="none" stroke="midnightblue" d="M462.2,-23.01C470.44,-24.22 479.1,-25.49 487.73,-26.75"/>
<polygon fill="midnightblue" stroke="midnightblue" points="487.42,-30.25 497.82,-28.23 488.44,-23.32 487.42,-30.25"/>
</g>
</g>
</svg>
