<?xml version="1.0" encoding="UTF-8" standalone="no"?>
<!DOCTYPE svg PUBLIC "-//W3C//DTD SVG 1.1//EN"
 "http://www.w3.org/Graphics/SVG/1.1/DTD/svg11.dtd">
<!-- Generated by graphviz version 2.43.0 (0)
 -->
<!-- Title: cache_t::read Pages: 1 -->
<svg width="287pt" height="78pt"
 viewBox="0.00 0.00 287.00 77.50" xmlns="http://www.w3.org/2000/svg" xmlns:xlink="http://www.w3.org/1999/xlink">
<g id="graph0" class="graph" transform="scale(1 1) rotate(0) translate(4 73.5)">
<title>cache_t::read</title>
<polygon fill="white" stroke="transparent" points="-4,4 -4,-73.5 283,-73.5 283,4 -4,4"/>
<!-- Node1 -->
<g id="node1" class="node">
<title>Node1</title>
<g id="a_node1"><a xlink:title=" ">
<polygon fill="#bfbfbf" stroke="black" points="0,-22.5 0,-41.5 82,-41.5 82,-22.5 0,-22.5"/>
<text text-anchor="middle" x="41" y="-29.5" font-family="Helvetica,sans-Serif" font-size="10.00">cache_t::read</text>
</a>
</g>
</g>
<!-- Node2 -->
<g id="node2" class="node">
<title>Node2</title>
<g id="a_node2"><a xlink:href="classorcs__engine__t.html#a1c033e3455736ba89052a40c69ebe0af" target="_top" xlink:title=" ">
<polygon fill="white" stroke="black" points="145.5,-39 145.5,-69 251.5,-69 251.5,-39 145.5,-39"/>
<text text-anchor="start" x="153.5" y="-57" font-family="Helvetica,sans-Serif" font-size="10.00">orcs_engine_t::get</text>
<text text-anchor="middle" x="198.5" y="-46" font-family="Helvetica,sans-Serif" font-size="10.00">_global_cycle</text>
</a>
</g>
</g>
<!-- Node1&#45;&gt;Node2 -->
<g id="edge1" class="edge">
<title>Node1&#45;&gt;Node2</title>
<path fill="none" stroke="midnightblue" d="M82.05,-37.67C98.22,-39.95 117.26,-42.65 135.17,-45.18"/>
<polygon fill="midnightblue" stroke="midnightblue" points="134.87,-48.67 145.26,-46.61 135.85,-41.74 134.87,-48.67"/>
</g>
<!-- Node3 -->
<g id="node3" class="node">
<title>Node3</title>
<g id="a_node3"><a xlink:href="classcache__t.html#a8fa855f06d00efbcdbe0f4c64add2242" target="_top" xlink:title=" ">
<polygon fill="white" stroke="black" points="118,-0.5 118,-19.5 279,-19.5 279,-0.5 118,-0.5"/>
<text text-anchor="middle" x="198.5" y="-7.5" font-family="Helvetica,sans-Serif" font-size="10.00">cache_t::tagIdxSetCalculation</text>
</a>
</g>
</g>
<!-- Node1&#45;&gt;Node3 -->
<g id="edge2" class="edge">
<title>Node1&#45;&gt;Node3</title>
<path fill="none" stroke="midnightblue" d="M82.05,-26.33C93.73,-24.68 106.92,-22.81 120.1,-20.95"/>
<polygon fill="midnightblue" stroke="midnightblue" points="120.73,-24.4 130.15,-19.53 119.75,-17.46 120.73,-24.4"/>
</g>
</g>
</svg>
