<?xml version="1.0" encoding="UTF-8" standalone="no"?>
<!DOCTYPE svg PUBLIC "-//W3C//DTD SVG 1.1//EN"
 "http://www.w3.org/Graphics/SVG/1.1/DTD/svg11.dtd">
<!-- Generated by graphviz version 2.43.0 (0)
 -->
<!-- Title: cache_manager_t Pages: 1 -->
<svg width="270pt" height="240pt"
 viewBox="0.00 0.00 270.00 240.00" xmlns="http://www.w3.org/2000/svg" xmlns:xlink="http://www.w3.org/1999/xlink">
<g id="graph0" class="graph" transform="scale(1 1) rotate(0) translate(4 236)">
<title>cache_manager_t</title>
<polygon fill="white" stroke="transparent" points="-4,4 -4,-236 266,-236 266,4 -4,4"/>
<!-- Node1 -->
<g id="node1" class="node">
<title>Node1</title>
<g id="a_node1"><a xlink:title=" ">
<polygon fill="#bfbfbf" stroke="black" points="90.5,-0.5 90.5,-19.5 193.5,-19.5 193.5,-0.5 90.5,-0.5"/>
<text text-anchor="middle" x="142" y="-7.5" font-family="Helvetica,sans-Serif" font-size="10.00">cache_manager_t</text>
</a>
</g>
</g>
<!-- Node2 -->
<g id="node2" class="node">
<title>Node2</title>
<g id="a_node2"><a xlink:href="classcache__t.html" target="_top" xlink:title=" ">
<polygon fill="white" stroke="black" points="60,-78.5 60,-97.5 114,-97.5 114,-78.5 60,-78.5"/>
<text text-anchor="middle" x="87" y="-85.5" font-family="Helvetica,sans-Serif" font-size="10.00">cache_t</text>
</a>
</g>
</g>
<!-- Node2&#45;&gt;Node1 -->
<g id="edge1" class="edge">
<title>Node2&#45;&gt;Node1</title>
<path fill="none" stroke="#9a32cd" stroke-dasharray="5,2" d="M83.97,-68.3C83.36,-58.54 84.26,-46.83 90,-38 95.43,-29.64 104.33,-23.73 113.24,-19.61"/>
<polygon fill="#9a32cd" stroke="#9a32cd" points="80.49,-68.71 85.11,-78.24 87.45,-67.9 80.49,-68.71"/>
<text text-anchor="middle" x="133" y="-52" font-family="Helvetica,sans-Serif" font-size="10.00"> data_cache</text>
<text text-anchor="middle" x="133" y="-41" font-family="Helvetica,sans-Serif" font-size="10.00">instruction_cache</text>
</g>
<!-- Node3 -->
<g id="node3" class="node">
<title>Node3</title>
<g id="a_node3"><a xlink:href="classcache_set__t.html" target="_top" xlink:title=" ">
<polygon fill="white" stroke="black" points="0,-145.5 0,-164.5 70,-164.5 70,-145.5 0,-145.5"/>
<text text-anchor="middle" x="35" y="-152.5" font-family="Helvetica,sans-Serif" font-size="10.00">cacheSet_t</text>
</a>
</g>
</g>
<!-- Node3&#45;&gt;Node2 -->
<g id="edge2" class="edge">
<title>Node3&#45;&gt;Node2</title>
<path fill="none" stroke="#9a32cd" stroke-dasharray="5,2" d="M48.38,-137.27C58.52,-124.6 72.04,-107.7 80.1,-97.63"/>
<polygon fill="#9a32cd" stroke="#9a32cd" points="45.53,-135.24 42.01,-145.23 50.99,-139.61 45.53,-135.24"/>
<text text-anchor="middle" x="77" y="-119" font-family="Helvetica,sans-Serif" font-size="10.00"> sets</text>
</g>
<!-- Node4 -->
<g id="node4" class="node">
<title>Node4</title>
<g id="a_node4"><a xlink:href="classline__t.html" target="_top" xlink:title=" ">
<polygon fill="white" stroke="black" points="0,-212.5 0,-231.5 44,-231.5 44,-212.5 0,-212.5"/>
<text text-anchor="middle" x="22" y="-219.5" font-family="Helvetica,sans-Serif" font-size="10.00">line_t</text>
</a>
</g>
</g>
<!-- Node4&#45;&gt;Node3 -->
<g id="edge3" class="edge">
<title>Node4&#45;&gt;Node3</title>
<path fill="none" stroke="#9a32cd" stroke-dasharray="5,2" d="M25.72,-202.41C28.2,-189.99 31.36,-174.22 33.27,-164.63"/>
<polygon fill="#9a32cd" stroke="#9a32cd" points="22.28,-201.74 23.75,-212.23 29.15,-203.11 22.28,-201.74"/>
<text text-anchor="middle" x="43.5" y="-186" font-family="Helvetica,sans-Serif" font-size="10.00"> lines</text>
</g>
<!-- Node4&#45;&gt;Node4 -->
<g id="edge4" class="edge">
<title>Node4&#45;&gt;Node4</title>
<path fill="none" stroke="#9a32cd" stroke-dasharray="5,2" d="M54.4,-227.37C58.95,-226.49 62,-224.7 62,-222 62,-217.56 53.8,-215.59 44.21,-216.07"/>
<polygon fill="#9a32cd" stroke="#9a32cd" points="54.01,-223.89 44.21,-227.93 54.39,-230.88 54.01,-223.89"/>
<text text-anchor="middle" x="101.5" y="-219.5" font-family="Helvetica,sans-Serif" font-size="10.00"> line_ptr_caches</text>
</g>
<!-- Node5 -->
<g id="node5" class="node">
<title>Node5</title>
<g id="a_node5"><a xlink:href="classprefetcher__t.html" target="_top" xlink:title=" ">
<polygon fill="white" stroke="black" points="160,-78.5 160,-97.5 236,-97.5 236,-78.5 160,-78.5"/>
<text text-anchor="middle" x="198" y="-85.5" font-family="Helvetica,sans-Serif" font-size="10.00">prefetcher_t</text>
</a>
</g>
</g>
<!-- Node5&#45;&gt;Node1 -->
<g id="edge5" class="edge">
<title>Node5&#45;&gt;Node1</title>
<path fill="none" stroke="#9a32cd" stroke-dasharray="5,2" d="M192.22,-68.83C188.55,-59.07 183.15,-47.19 176,-38 170.45,-30.86 162.63,-24.48 155.89,-19.72"/>
<polygon fill="#9a32cd" stroke="#9a32cd" points="188.94,-70.05 195.51,-78.36 195.56,-67.77 188.94,-70.05"/>
<text text-anchor="middle" x="216" y="-46.5" font-family="Helvetica,sans-Serif" font-size="10.00"> prefetcher</text>
</g>
<!-- Node6 -->
<g id="node6" class="node">
<title>Node6</title>
<g id="a_node6"><a xlink:href="classstride__prefetcher__t.html" target="_top" xlink:title=" ">
<polygon fill="white" stroke="black" points="146.5,-145.5 146.5,-164.5 255.5,-164.5 255.5,-145.5 146.5,-145.5"/>
<text text-anchor="middle" x="201" y="-152.5" font-family="Helvetica,sans-Serif" font-size="10.00">stride_prefetcher_t</text>
</a>
</g>
</g>
<!-- Node6&#45;&gt;Node5 -->
<g id="edge6" class="edge">
<title>Node6&#45;&gt;Node5</title>
<path fill="none" stroke="#9a32cd" stroke-dasharray="5,2" d="M200.12,-135.04C199.55,-122.67 198.84,-107.12 198.4,-97.63"/>
<polygon fill="#9a32cd" stroke="#9a32cd" points="196.64,-135.41 200.6,-145.23 203.63,-135.08 196.64,-135.41"/>
<text text-anchor="middle" x="227" y="-119" font-family="Helvetica,sans-Serif" font-size="10.00"> prefetcher</text>
</g>
<!-- Node7 -->
<g id="node7" class="node">
<title>Node7</title>
<g id="a_node7"><a xlink:href="classstride__table__t.html" target="_top" xlink:title=" ">
<polygon fill="white" stroke="black" points="159.5,-212.5 159.5,-231.5 242.5,-231.5 242.5,-212.5 159.5,-212.5"/>
<text text-anchor="middle" x="201" y="-219.5" font-family="Helvetica,sans-Serif" font-size="10.00">stride_table_t</text>
</a>
</g>
</g>
<!-- Node7&#45;&gt;Node6 -->
<g id="edge7" class="edge">
<title>Node7&#45;&gt;Node6</title>
<path fill="none" stroke="#9a32cd" stroke-dasharray="5,2" d="M201,-202.04C201,-189.67 201,-174.12 201,-164.63"/>
<polygon fill="#9a32cd" stroke="#9a32cd" points="197.5,-202.23 201,-212.23 204.5,-202.23 197.5,-202.23"/>
<text text-anchor="middle" x="231.5" y="-186" font-family="Helvetica,sans-Serif" font-size="10.00"> stride_table</text>
</g>
</g>
</svg>
