<?xml version="1.0" encoding="UTF-8" standalone="no"?>
<!DOCTYPE svg PUBLIC "-//W3C//DTD SVG 1.1//EN"
 "http://www.w3.org/Graphics/SVG/1.1/DTD/svg11.dtd">
<!-- Generated by graphviz version 2.43.0 (0)
 -->
<!-- Title: uop_package_t::content_to_string2 Pages: 1 -->
<svg width="343pt" height="127pt"
 viewBox="0.00 0.00 343.00 127.00" xmlns="http://www.w3.org/2000/svg" xmlns:xlink="http://www.w3.org/1999/xlink">
<g id="graph0" class="graph" transform="scale(1 1) rotate(0) translate(4 123)">
<title>uop_package_t::content_to_string2</title>
<polygon fill="white" stroke="transparent" points="-4,4 -4,-123 339,-123 339,4 -4,4"/>
<!-- Node1 -->
<g id="node1" class="node">
<title>Node1</title>
<g id="a_node1"><a xlink:title="Convert Instruction variables into String.">
<polygon fill="#bfbfbf" stroke="black" points="0,-44.5 0,-74.5 132,-74.5 132,-44.5 0,-44.5"/>
<text text-anchor="start" x="8" y="-62.5" font-family="Helvetica,sans-Serif" font-size="10.00">uop_package_t::content</text>
<text text-anchor="middle" x="66" y="-51.5" font-family="Helvetica,sans-Serif" font-size="10.00">_to_string2</text>
</a>
</g>
</g>
<!-- Node2 -->
<g id="node2" class="node">
<title>Node2</title>
<g id="a_node2"><a xlink:href="enumerations_8cpp.html#a29b4f0c7eca5c960bab850a56e5e411c" target="_top" xlink:title=" ">
<polygon fill="white" stroke="black" points="190.5,-88.5 190.5,-118.5 312.5,-118.5 312.5,-88.5 190.5,-88.5"/>
<text text-anchor="start" x="198.5" y="-106.5" font-family="Helvetica,sans-Serif" font-size="10.00">get_enum_instruction</text>
<text text-anchor="middle" x="251.5" y="-95.5" font-family="Helvetica,sans-Serif" font-size="10.00">_operation_char</text>
</a>
</g>
</g>
<!-- Node1&#45;&gt;Node2 -->
<g id="edge1" class="edge">
<title>Node1&#45;&gt;Node2</title>
<path fill="none" stroke="midnightblue" d="M129.64,-74.52C146.04,-78.45 163.83,-82.72 180.59,-86.74"/>
<polygon fill="midnightblue" stroke="midnightblue" points="179.77,-90.14 190.31,-89.07 181.41,-83.33 179.77,-90.14"/>
</g>
<!-- Node3 -->
<g id="node3" class="node">
<title>Node3</title>
<g id="a_node3"><a xlink:href="enumerations_8cpp.html#a4f1219a7c31d137c368e36cea5be9128" target="_top" xlink:title="Enumerates the package state,.">
<polygon fill="white" stroke="black" points="168,-50 168,-69 335,-69 335,-50 168,-50"/>
<text text-anchor="middle" x="251.5" y="-57" font-family="Helvetica,sans-Serif" font-size="10.00">get_enum_package_state_char</text>
</a>
</g>
</g>
<!-- Node1&#45;&gt;Node3 -->
<g id="edge2" class="edge">
<title>Node1&#45;&gt;Node3</title>
<path fill="none" stroke="midnightblue" d="M132.21,-59.5C140.5,-59.5 149.11,-59.5 157.73,-59.5"/>
<polygon fill="midnightblue" stroke="midnightblue" points="157.84,-63 167.84,-59.5 157.84,-56 157.84,-63"/>
</g>
<!-- Node4 -->
<g id="node4" class="node">
<title>Node4</title>
<g id="a_node4"><a xlink:href="classutils__t.html#aa30deed2def3a1339369e6806073e9fd" target="_top" xlink:title=" ">
<polygon fill="white" stroke="black" points="202.5,-0.5 202.5,-30.5 300.5,-30.5 300.5,-0.5 202.5,-0.5"/>
<text text-anchor="start" x="210.5" y="-18.5" font-family="Helvetica,sans-Serif" font-size="10.00">utils_t::uint64_to</text>
<text text-anchor="middle" x="251.5" y="-7.5" font-family="Helvetica,sans-Serif" font-size="10.00">_string</text>
</a>
</g>
</g>
<!-- Node1&#45;&gt;Node4 -->
<g id="edge3" class="edge">
<title>Node1&#45;&gt;Node4</title>
<path fill="none" stroke="midnightblue" d="M129.64,-44.48C149.98,-39.6 172.45,-34.22 192.44,-29.42"/>
<polygon fill="midnightblue" stroke="midnightblue" points="193.43,-32.78 202.34,-27.05 191.79,-25.98 193.43,-32.78"/>
</g>
</g>
</svg>
