<?xml version="1.0" encoding="UTF-8" standalone="no"?>
<!DOCTYPE svg PUBLIC "-//W3C//DTD SVG 1.1//EN"
 "http://www.w3.org/Graphics/SVG/1.1/DTD/svg11.dtd">
<!-- Generated by graphviz version 2.43.0 (0)
 -->
<!-- Title: cache_manager_t::clock Pages: 1 -->
<!--zoomable 1004 -->
<svg id="main" version="1.1" xmlns="http://www.w3.org/2000/svg" xmlns:xlink="http://www.w3.org/1999/xlink" xml:space="preserve" onload="init(evt)">
<style type="text/css"><![CDATA[
.edge:hover path { stroke: red; }
.edge:hover polygon { stroke: red; fill: red; }
]]></style>
<script type="text/javascript"><![CDATA[
var edges = document.getElementsByTagName('g');
if (edges && edges.length) {
  for (var i=0;i<edges.length;i++) {
    if (edges[i].id.substr(0,4)=='edge') {
      edges[i].setAttribute('class','edge');
    }
  }
}
]]></script>
        <defs>
                <circle id="rim" cx="0" cy="0" r="7"/>
                <circle id="rim2" cx="0" cy="0" r="3.5"/>
                <g id="zoomPlus">
                        <use xlink:href="#rim" fill="#404040">
                                <set attributeName="fill" to="#808080" begin="zoomplus.mouseover" end="zoomplus.mouseout"/>
                        </use>
                        <path d="M-4,0h8M0,-4v8" fill="none" stroke="white" stroke-width="1.5" pointer-events="none"/>
                </g>
                <g id="zoomMin">
                        <use xlink:href="#rim" fill="#404040">
                                <set attributeName="fill" to="#808080" begin="zoomminus.mouseover" end="zoomminus.mouseout"/>
                        </use>
                        <path d="M-4,0h8" fill="none" stroke="white" stroke-width="1.5" pointer-events="none"/>
                </g>
                <g id="dirArrow">
                        <path fill="none" stroke="white" stroke-width="1.5" d="M0,-3.0v7 M-2.5,-0.5L0,-3.0L2.5,-0.5"/>
                </g>
               <g id="resetDef">
                       <use xlink:href="#rim2" fill="#404040">
                               <set attributeName="fill" to="#808080" begin="reset.mouseover" end="reset.mouseout"/>
                       </use>
               </g>
        </defs>

<script type="text/javascript">
var viewWidth = 1502;
var viewHeight = 1004;
var sectionId = 'dynsection-5';
</script>
<script xlink:href="svgpan.js"/>
<svg id="graph" class="graph">
<g id="viewport">
<title>cache_manager_t::clock</title>
<polygon fill="white" stroke="transparent" points="-4,4 -4,-1000.2 1498,-1000.2 1498,4 -4,4"/>
<!-- Node1 -->
<g id="node1" class="node">
<title>Node1</title>
<g id="a_node1"><a xlink:title=" ">
<polygon fill="#bfbfbf" stroke="black" points="0,-898.22 0,-917.22 134,-917.22 134,-898.22 0,-898.22"/>
<text text-anchor="middle" x="67" y="-905.22" font-family="Helvetica,sans-Serif" font-size="10.00">cache_manager_t::clock</text>
</a>
</g>
</g>
<!-- Node2 -->
<g id="node2" class="node">
<title>Node2</title>
<g id="a_node2"><a xlink:href="classcache__manager__t.html#ac2ea6d26b6ec710cd28626cc4c59ae23" target="_top" xlink:title=" ">
<polygon fill="white" stroke="black" points="905,-347.22 905,-366.22 1080,-366.22 1080,-347.22 905,-347.22"/>
<text text-anchor="middle" x="992.5" y="-354.22" font-family="Helvetica,sans-Serif" font-size="10.00">cache_manager_t::finishRequest</text>
</a>
</g>
</g>
<!-- Node1&#45;&gt;Node2 -->
<g id="edge1" class="edge">
<title>Node1&#45;&gt;Node2</title>
<path fill="none" stroke="midnightblue" d="M68.1,-897.96C69.56,-811.46 91.76,-178.72 428.5,-178.72 428.5,-178.72 428.5,-178.72 634,-178.72 778.19,-178.72 924.04,-296.19 973.7,-340.27"/>
<polygon fill="midnightblue" stroke="midnightblue" points="971.56,-343.05 981.33,-347.15 976.24,-337.85 971.56,-343.05"/>
</g>
<!-- Node5 -->
<g id="node5" class="node">
<title>Node5</title>
<g id="a_node5"><a xlink:href="classorcs__engine__t.html#a1c033e3455736ba89052a40c69ebe0af" target="_top" xlink:title=" ">
<polygon fill="white" stroke="black" points="1346,-621.72 1346,-651.72 1452,-651.72 1452,-621.72 1346,-621.72"/>
<text text-anchor="start" x="1354" y="-639.72" font-family="Helvetica,sans-Serif" font-size="10.00">orcs_engine_t::get</text>
<text text-anchor="middle" x="1399" y="-628.72" font-family="Helvetica,sans-Serif" font-size="10.00">_global_cycle</text>
</a>
</g>
</g>
<!-- Node1&#45;&gt;Node5 -->
<g id="edge11" class="edge">
<title>Node1&#45;&gt;Node5</title>
<path fill="none" stroke="midnightblue" d="M90.72,-917.3C146.93,-940.11 297.4,-995.72 428.5,-995.72 428.5,-995.72 428.5,-995.72 993.5,-995.72 1119.86,-995.72 1171.61,-1003.42 1268,-921.72 1350.84,-851.5 1383.54,-717.42 1393.92,-661.83"/>
<polygon fill="midnightblue" stroke="midnightblue" points="1397.4,-662.26 1395.71,-651.8 1390.51,-661.03 1397.4,-662.26"/>
</g>
<!-- Node9 -->
<g id="node9" class="node">
<title>Node9</title>
<g id="a_node9"><a xlink:href="classcache__manager__t.html#a1d0eab3491ced37cfc80481d8e71274f" target="_top" xlink:title=" ">
<polygon fill="white" stroke="black" points="557,-936.72 557,-966.72 709,-966.72 709,-936.72 557,-936.72"/>
<text text-anchor="start" x="565" y="-954.72" font-family="Helvetica,sans-Serif" font-size="10.00">cache_manager_t::generate</text>
<text text-anchor="middle" x="633" y="-943.72" font-family="Helvetica,sans-Serif" font-size="10.00">IndexArray</text>
</a>
</g>
</g>
<!-- Node1&#45;&gt;Node9 -->
<g id="edge10" class="edge">
<title>Node1&#45;&gt;Node9</title>
<path fill="none" stroke="midnightblue" d="M132.12,-917.23C144.66,-918.89 157.73,-920.48 170,-921.72 301.04,-934.95 453.6,-943.53 546.46,-948"/>
<polygon fill="midnightblue" stroke="midnightblue" points="546.49,-951.5 556.64,-948.48 546.82,-944.51 546.49,-951.5"/>
</g>
<!-- Node10 -->
<g id="node10" class="node">
<title>Node10</title>
<g id="a_node10"><a xlink:href="classcache__manager__t.html#a37606cca9a350138963c31b9aa4cea61" target="_top" xlink:title=" ">
<polygon fill="white" stroke="black" points="360,-898.22 360,-917.22 499,-917.22 499,-898.22 360,-898.22"/>
<text text-anchor="middle" x="429.5" y="-905.22" font-family="Helvetica,sans-Serif" font-size="10.00">cache_manager_t::install</text>
</a>
</g>
</g>
<!-- Node1&#45;&gt;Node10 -->
<g id="edge12" class="edge">
<title>Node1&#45;&gt;Node10</title>
<path fill="none" stroke="midnightblue" d="M134.12,-907.72C194.9,-907.72 285.09,-907.72 349.61,-907.72"/>
<polygon fill="midnightblue" stroke="midnightblue" points="349.73,-911.22 359.73,-907.72 349.73,-904.22 349.73,-911.22"/>
</g>
<!-- Node21 -->
<g id="node21" class="node">
<title>Node21</title>
<g id="a_node21"><a xlink:href="classcache__manager__t.html#a777bf25f873455973ba3464314947865" target="_top" xlink:title=" ">
<polygon fill="white" stroke="black" points="170,-482.22 170,-501.22 316,-501.22 316,-482.22 170,-482.22"/>
<text text-anchor="middle" x="243" y="-489.22" font-family="Helvetica,sans-Serif" font-size="10.00">cache_manager_t::process</text>
</a>
</g>
</g>
<!-- Node1&#45;&gt;Node21 -->
<g id="edge36" class="edge">
<title>Node1&#45;&gt;Node21</title>
<path fill="none" stroke="midnightblue" d="M72.13,-897.84C94.74,-843.78 203.65,-583.41 234.08,-510.64"/>
<polygon fill="midnightblue" stroke="midnightblue" points="237.36,-511.89 237.99,-501.32 230.9,-509.19 237.36,-511.89"/>
</g>
<!-- Node3 -->
<g id="node3" class="node">
<title>Node3</title>
<g id="a_node3"><a xlink:href="enumerations_8cpp.html#ab2f1f56df233c1decaf1c4736bbdba39" target="_top" xlink:title=" ">
<polygon fill="white" stroke="black" points="1116,-444.22 1116,-463.22 1268,-463.22 1268,-444.22 1116,-444.22"/>
<text text-anchor="middle" x="1192" y="-451.22" font-family="Helvetica,sans-Serif" font-size="10.00">get_enum_cache_type_char</text>
</a>
</g>
</g>
<!-- Node2&#45;&gt;Node3 -->
<g id="edge2" class="edge">
<title>Node2&#45;&gt;Node3</title>
<path fill="none" stroke="midnightblue" d="M1006.02,-366.39C1027.42,-382.52 1072.94,-414.96 1116,-433.72 1122.39,-436.5 1129.26,-438.98 1136.16,-441.16"/>
<polygon fill="midnightblue" stroke="midnightblue" points="1135.64,-444.65 1146.23,-444.14 1137.63,-437.94 1135.64,-444.65"/>
</g>
<!-- Node4 -->
<g id="node4" class="node">
<title>Node4</title>
<g id="a_node4"><a xlink:href="enumerations_8cpp.html#abb39d040475b58d11b29c242b33091e1" target="_top" xlink:title="Enumerates the MEMORY OPERATION OF MOB,debug only.">
<polygon fill="white" stroke="black" points="1304,-219.22 1304,-238.22 1494,-238.22 1494,-219.22 1304,-219.22"/>
<text text-anchor="middle" x="1399" y="-226.22" font-family="Helvetica,sans-Serif" font-size="10.00">get_enum_memory_operation_char</text>
</a>
</g>
</g>
<!-- Node2&#45;&gt;Node4 -->
<g id="edge3" class="edge">
<title>Node2&#45;&gt;Node4</title>
<path fill="none" stroke="midnightblue" d="M1013.46,-347.11C1031.01,-338.64 1057.24,-325.93 1080,-314.72 1096.05,-306.81 1099.2,-302.85 1116,-296.72 1137.53,-288.85 1271.09,-257.78 1346.42,-240.49"/>
<polygon fill="midnightblue" stroke="midnightblue" points="1347.24,-243.89 1356.2,-238.24 1345.67,-237.07 1347.24,-243.89"/>
</g>
<!-- Node2&#45;&gt;Node5 -->
<g id="edge4" class="edge">
<title>Node2&#45;&gt;Node5</title>
<path fill="none" stroke="midnightblue" d="M1080.1,-356.73C1148.87,-358.33 1238.26,-364.45 1268,-384.72 1348.14,-439.32 1381.92,-559.1 1393.24,-611.42"/>
<polygon fill="midnightblue" stroke="midnightblue" points="1389.87,-612.43 1395.32,-621.52 1396.73,-611.02 1389.87,-612.43"/>
</g>
<!-- Node6 -->
<g id="node6" class="node">
<title>Node6</title>
<g id="a_node6"><a xlink:href="classmemory__package__t.html#a6a1d3d762c49de7fd39df7534b5315f9" target="_top" xlink:title=" ">
<polygon fill="white" stroke="black" points="1116,-394.72 1116,-424.72 1268,-424.72 1268,-394.72 1116,-394.72"/>
<text text-anchor="start" x="1124" y="-412.72" font-family="Helvetica,sans-Serif" font-size="10.00">memory_package_t::update</text>
<text text-anchor="middle" x="1192" y="-401.72" font-family="Helvetica,sans-Serif" font-size="10.00">Clients</text>
</a>
</g>
</g>
<!-- Node2&#45;&gt;Node6 -->
<g id="edge5" class="edge">
<title>Node2&#45;&gt;Node6</title>
<path fill="none" stroke="midnightblue" d="M1029.27,-366.32C1055.96,-373.48 1093.2,-383.47 1125.21,-392.06"/>
<polygon fill="midnightblue" stroke="midnightblue" points="1124.4,-395.47 1134.96,-394.68 1126.21,-388.71 1124.4,-395.47"/>
</g>
<!-- Node7 -->
<g id="node7" class="node">
<title>Node7</title>
<g id="a_node7"><a xlink:href="classmemory__package__t.html#a5c0eabc68e746f6086e77a14f6150723" target="_top" xlink:title=" ">
<polygon fill="white" stroke="black" points="1116,-306.72 1116,-336.72 1268,-336.72 1268,-306.72 1116,-306.72"/>
<text text-anchor="start" x="1124" y="-324.72" font-family="Helvetica,sans-Serif" font-size="10.00">memory_package_t::update</text>
<text text-anchor="middle" x="1192" y="-313.72" font-family="Helvetica,sans-Serif" font-size="10.00">PackageReady</text>
</a>
</g>
</g>
<!-- Node2&#45;&gt;Node7 -->
<g id="edge6" class="edge">
<title>Node2&#45;&gt;Node7</title>
<path fill="none" stroke="midnightblue" d="M1047.21,-347.2C1065.28,-344 1085.93,-340.34 1105.82,-336.81"/>
<polygon fill="midnightblue" stroke="midnightblue" points="1106.58,-340.23 1115.82,-335.04 1105.36,-333.34 1106.58,-340.23"/>
</g>
<!-- Node7&#45;&gt;Node4 -->
<g id="edge7" class="edge">
<title>Node7&#45;&gt;Node4</title>
<path fill="none" stroke="midnightblue" d="M1232.14,-306.67C1243.76,-302.04 1256.45,-296.82 1268,-291.72 1303.76,-275.93 1344.16,-256.01 1370.3,-242.85"/>
<polygon fill="midnightblue" stroke="midnightblue" points="1371.9,-245.96 1379.25,-238.32 1368.75,-239.71 1371.9,-245.96"/>
</g>
<!-- Node7&#45;&gt;Node5 -->
<g id="edge9" class="edge">
<title>Node7&#45;&gt;Node5</title>
<path fill="none" stroke="midnightblue" d="M1245.71,-336.76C1253.82,-340.71 1261.61,-345.62 1268,-351.72 1346.22,-426.31 1381.34,-556.86 1393.14,-611.52"/>
<polygon fill="midnightblue" stroke="midnightblue" points="1389.73,-612.33 1395.19,-621.41 1396.58,-610.9 1389.73,-612.33"/>
</g>
<!-- Node8 -->
<g id="node8" class="node">
<title>Node8</title>
<g id="a_node8"><a xlink:href="enumerations_8cpp.html#a4f1219a7c31d137c368e36cea5be9128" target="_top" xlink:title="Enumerates the package state,.">
<polygon fill="white" stroke="black" points="1315.5,-175.22 1315.5,-194.22 1482.5,-194.22 1482.5,-175.22 1315.5,-175.22"/>
<text text-anchor="middle" x="1399" y="-182.22" font-family="Helvetica,sans-Serif" font-size="10.00">get_enum_package_state_char</text>
</a>
</g>
</g>
<!-- Node7&#45;&gt;Node8 -->
<g id="edge8" class="edge">
<title>Node7&#45;&gt;Node8</title>
<path fill="none" stroke="midnightblue" d="M1213.17,-306.51C1228.9,-294.19 1250.89,-275.94 1268,-257.72 1286.25,-238.28 1281.9,-224.63 1304,-209.72 1311.32,-204.78 1319.58,-200.81 1328.08,-197.63"/>
<polygon fill="midnightblue" stroke="midnightblue" points="1329.39,-200.88 1337.74,-194.36 1327.15,-194.25 1329.39,-200.88"/>
</g>
<!-- Node10&#45;&gt;Node5 -->
<g id="edge14" class="edge">
<title>Node10&#45;&gt;Node5</title>
<path fill="none" stroke="midnightblue" d="M499.33,-910.96C688.01,-919.28 1203.76,-938.02 1268,-897.72 1353.25,-844.23 1384.49,-716.42 1394.2,-661.97"/>
<polygon fill="midnightblue" stroke="midnightblue" points="1397.7,-662.25 1395.91,-651.81 1390.8,-661.09 1397.7,-662.25"/>
</g>
<!-- Node10&#45;&gt;Node9 -->
<g id="edge13" class="edge">
<title>Node10&#45;&gt;Node9</title>
<path fill="none" stroke="midnightblue" d="M474.22,-917.27C497.31,-922.31 526.37,-928.65 553.23,-934.52"/>
<polygon fill="midnightblue" stroke="midnightblue" points="552.49,-937.94 563.01,-936.65 553.98,-931.1 552.49,-937.94"/>
</g>
<!-- Node11 -->
<g id="node11" class="node">
<title>Node11</title>
<g id="a_node11"><a xlink:href="classcache__manager__t.html#aa76b32aba8726cac910c9d30d9bc1713" target="_top" xlink:title=" ">
<polygon fill="white" stroke="black" points="563.5,-723.72 563.5,-753.72 702.5,-753.72 702.5,-723.72 563.5,-723.72"/>
<text text-anchor="start" x="571.5" y="-741.72" font-family="Helvetica,sans-Serif" font-size="10.00">cache_manager_t::install</text>
<text text-anchor="middle" x="633" y="-730.72" font-family="Helvetica,sans-Serif" font-size="10.00">CacheLines</text>
</a>
</g>
</g>
<!-- Node10&#45;&gt;Node11 -->
<g id="edge15" class="edge">
<title>Node10&#45;&gt;Node11</title>
<path fill="none" stroke="midnightblue" d="M441.91,-898.15C473.42,-871.72 562.2,-797.26 606.38,-760.21"/>
<polygon fill="midnightblue" stroke="midnightblue" points="608.67,-762.85 614.08,-753.75 604.17,-757.49 608.67,-762.85"/>
</g>
<!-- Node20 -->
<g id="node20" class="node">
<title>Node20</title>
<g id="a_node20"><a xlink:href="classcache__t.html#a6b29703ff92a473a4ceb7dcd00d1206d" target="_top" xlink:title=" ">
<polygon fill="white" stroke="black" points="771.5,-789.22 771.5,-808.22 856.5,-808.22 856.5,-789.22 771.5,-789.22"/>
<text text-anchor="middle" x="814" y="-796.22" font-family="Helvetica,sans-Serif" font-size="10.00">cache_t::write</text>
</a>
</g>
</g>
<!-- Node10&#45;&gt;Node20 -->
<g id="edge31" class="edge">
<title>Node10&#45;&gt;Node20</title>
<path fill="none" stroke="midnightblue" d="M464.11,-898.14C533.55,-878.35 692.76,-832.98 769.75,-811.04"/>
<polygon fill="midnightblue" stroke="midnightblue" points="770.95,-814.34 779.6,-808.23 769.03,-807.61 770.95,-814.34"/>
</g>
<!-- Node12 -->
<g id="node12" class="node">
<title>Node12</title>
<g id="a_node12"><a xlink:href="classcache__t.html#a064ff4698c44668e702fda0a95278185" target="_top" xlink:title=" ">
<polygon fill="white" stroke="black" points="759,-729.22 759,-748.22 869,-748.22 869,-729.22 759,-729.22"/>
<text text-anchor="middle" x="814" y="-736.22" font-family="Helvetica,sans-Serif" font-size="10.00">cache_t::installLine</text>
</a>
</g>
</g>
<!-- Node11&#45;&gt;Node12 -->
<g id="edge16" class="edge">
<title>Node11&#45;&gt;Node12</title>
<path fill="none" stroke="midnightblue" d="M702.69,-738.72C717.83,-738.72 733.82,-738.72 748.77,-738.72"/>
<polygon fill="midnightblue" stroke="midnightblue" points="748.94,-742.22 758.94,-738.72 748.94,-735.22 748.94,-742.22"/>
</g>
<!-- Node12&#45;&gt;Node5 -->
<g id="edge17" class="edge">
<title>Node12&#45;&gt;Node5</title>
<path fill="none" stroke="midnightblue" d="M869.06,-735.43C922.8,-731.69 1007.45,-724.52 1080,-712.72 1164.6,-698.95 1184.68,-689.82 1268,-669.72 1290.18,-664.37 1314.42,-658.28 1335.91,-652.8"/>
<polygon fill="midnightblue" stroke="midnightblue" points="1337.06,-656.12 1345.88,-650.25 1335.33,-649.33 1337.06,-656.12"/>
</g>
<!-- Node13 -->
<g id="node13" class="node">
<title>Node13</title>
<g id="a_node13"><a xlink:href="classcache__t.html#a08af353e5ef8b2c78f4d7a3cc57bf8fc" target="_top" xlink:title=" ">
<polygon fill="white" stroke="black" points="939,-798.22 939,-817.22 1046,-817.22 1046,-798.22 939,-798.22"/>
<text text-anchor="middle" x="992.5" y="-805.22" font-family="Helvetica,sans-Serif" font-size="10.00">cache_t::searchLru</text>
</a>
</g>
</g>
<!-- Node12&#45;&gt;Node13 -->
<g id="edge18" class="edge">
<title>Node12&#45;&gt;Node13</title>
<path fill="none" stroke="midnightblue" d="M829.33,-748.41C846.57,-759.66 876.75,-778.03 905,-788.72 912.57,-791.58 920.67,-794.07 928.78,-796.21"/>
<polygon fill="midnightblue" stroke="midnightblue" points="928.09,-799.65 938.64,-798.67 929.78,-792.86 928.09,-799.65"/>
</g>
<!-- Node14 -->
<g id="node14" class="node">
<title>Node14</title>
<g id="a_node14"><a xlink:href="classcache__t.html#a8fa855f06d00efbcdbe0f4c64add2242" target="_top" xlink:title=" ">
<polygon fill="white" stroke="black" points="912,-684.22 912,-703.22 1073,-703.22 1073,-684.22 912,-684.22"/>
<text text-anchor="middle" x="992.5" y="-691.22" font-family="Helvetica,sans-Serif" font-size="10.00">cache_t::tagIdxSetCalculation</text>
</a>
</g>
</g>
<!-- Node12&#45;&gt;Node14 -->
<g id="edge19" class="edge">
<title>Node12&#45;&gt;Node14</title>
<path fill="none" stroke="midnightblue" d="M852.43,-729.17C879.22,-722.34 915.5,-713.09 944.28,-705.76"/>
<polygon fill="midnightblue" stroke="midnightblue" points="945.3,-709.11 954.12,-703.25 943.57,-702.33 945.3,-709.11"/>
</g>
<!-- Node15 -->
<g id="node15" class="node">
<title>Node15</title>
<g id="a_node15"><a xlink:href="classcache__t.html#ac2fe482915a79b89e82582255421f7c0" target="_top" xlink:title=" ">
<polygon fill="white" stroke="black" points="938,-760.22 938,-779.22 1047,-779.22 1047,-760.22 938,-760.22"/>
<text text-anchor="middle" x="992.5" y="-767.22" font-family="Helvetica,sans-Serif" font-size="10.00">cache_t::writeBack</text>
</a>
</g>
</g>
<!-- Node12&#45;&gt;Node15 -->
<g id="edge20" class="edge">
<title>Node12&#45;&gt;Node15</title>
<path fill="none" stroke="midnightblue" d="M869.4,-748.27C887.94,-751.53 908.84,-755.2 928.03,-758.57"/>
<polygon fill="midnightblue" stroke="midnightblue" points="927.44,-762.02 937.89,-760.3 928.65,-755.12 927.44,-762.02"/>
</g>
<!-- Node15&#45;&gt;Node5 -->
<g id="edge27" class="edge">
<title>Node15&#45;&gt;Node5</title>
<path fill="none" stroke="midnightblue" d="M1047.14,-775.85C1104.21,-780.16 1196.01,-780.69 1268,-750.72 1315.21,-731.06 1357.16,-687.07 1379.94,-659.85"/>
<polygon fill="midnightblue" stroke="midnightblue" points="1382.76,-661.94 1386.38,-651.98 1377.34,-657.5 1382.76,-661.94"/>
</g>
<!-- Node16 -->
<g id="node16" class="node">
<title>Node16</title>
<g id="a_node16"><a xlink:href="classline__t.html#a5b92a71c2f16f2a194f9863284215556" target="_top" xlink:title=" ">
<polygon fill="white" stroke="black" points="1349.5,-911.22 1349.5,-930.22 1448.5,-930.22 1448.5,-911.22 1349.5,-911.22"/>
<text text-anchor="middle" x="1399" y="-918.22" font-family="Helvetica,sans-Serif" font-size="10.00">line_t::clean_line</text>
</a>
</g>
</g>
<!-- Node15&#45;&gt;Node16 -->
<g id="edge21" class="edge">
<title>Node15&#45;&gt;Node16</title>
<path fill="none" stroke="midnightblue" d="M1047.02,-776.27C1058.38,-779.07 1069.96,-783.04 1080,-788.72 1100.25,-800.16 1096.38,-814.22 1116,-826.72 1186.16,-871.4 1279.75,-897.08 1339.47,-909.97"/>
<polygon fill="midnightblue" stroke="midnightblue" points="1338.97,-913.44 1349.48,-912.08 1340.42,-906.59 1338.97,-913.44"/>
</g>
<!-- Node17 -->
<g id="node17" class="node">
<title>Node17</title>
<g id="a_node17"><a xlink:href="classcache__t.html#a926d33bfce8203d4291ee5e11fe58678" target="_top" xlink:title=" ">
<polygon fill="white" stroke="black" points="1134.5,-798.22 1134.5,-817.22 1249.5,-817.22 1249.5,-798.22 1134.5,-798.22"/>
<text text-anchor="middle" x="1192" y="-805.22" font-family="Helvetica,sans-Serif" font-size="10.00">cache_t::copyLevels</text>
</a>
</g>
</g>
<!-- Node15&#45;&gt;Node17 -->
<g id="edge22" class="edge">
<title>Node15&#45;&gt;Node17</title>
<path fill="none" stroke="midnightblue" d="M1043.08,-779.26C1069.85,-784.41 1103.08,-790.8 1131.26,-796.22"/>
<polygon fill="midnightblue" stroke="midnightblue" points="1130.92,-799.72 1141.4,-798.17 1132.24,-792.85 1130.92,-799.72"/>
</g>
<!-- Node18 -->
<g id="node18" class="node">
<title>Node18</title>
<g id="a_node18"><a xlink:href="classcache__t.html#abaf4210052b55d606e99604f6c2056b0" target="_top" xlink:title=" ">
<polygon fill="white" stroke="black" points="1123,-722.22 1123,-741.22 1261,-741.22 1261,-722.22 1123,-722.22"/>
<text text-anchor="middle" x="1192" y="-729.22" font-family="Helvetica,sans-Serif" font-size="10.00">cache_t::copyNextLevels</text>
</a>
</g>
</g>
<!-- Node15&#45;&gt;Node18 -->
<g id="edge25" class="edge">
<title>Node15&#45;&gt;Node18</title>
<path fill="none" stroke="midnightblue" d="M1043.08,-760.18C1069.85,-755.03 1103.08,-748.63 1131.26,-743.21"/>
<polygon fill="midnightblue" stroke="midnightblue" points="1132.24,-746.59 1141.4,-741.26 1130.92,-739.71 1132.24,-746.59"/>
</g>
<!-- Node19 -->
<g id="node19" class="node">
<title>Node19</title>
<g id="a_node19"><a xlink:href="classmemory__controller__t.html#ad78d3fe5a6cf2ee6e22f9e563dd6e20e" target="_top" xlink:title=" ">
<polygon fill="white" stroke="black" points="1132.5,-520.72 1132.5,-550.72 1251.5,-550.72 1251.5,-520.72 1132.5,-520.72"/>
<text text-anchor="start" x="1140.5" y="-538.72" font-family="Helvetica,sans-Serif" font-size="10.00">memory_controller_t</text>
<text text-anchor="middle" x="1192" y="-527.72" font-family="Helvetica,sans-Serif" font-size="10.00">::requestDRAM</text>
</a>
</g>
</g>
<!-- Node15&#45;&gt;Node19 -->
<g id="edge28" class="edge">
<title>Node15&#45;&gt;Node19</title>
<path fill="none" stroke="midnightblue" d="M1012.73,-760.18C1031.48,-750.2 1060.01,-733.16 1080,-712.72 1125.89,-665.78 1162.37,-596.74 1179.81,-560.31"/>
<polygon fill="midnightblue" stroke="midnightblue" points="1183.13,-561.49 1184.22,-550.95 1176.8,-558.51 1183.13,-561.49"/>
</g>
<!-- Node17&#45;&gt;Node5 -->
<g id="edge24" class="edge">
<title>Node17&#45;&gt;Node5</title>
<path fill="none" stroke="midnightblue" d="M1236.44,-798.15C1247.27,-794.62 1258.5,-789.92 1268,-783.72 1318.59,-750.7 1361.47,-692.89 1383.05,-660.48"/>
<polygon fill="midnightblue" stroke="midnightblue" points="1386.01,-662.34 1388.56,-652.05 1380.16,-658.51 1386.01,-662.34"/>
</g>
<!-- Node17&#45;&gt;Node16 -->
<g id="edge23" class="edge">
<title>Node17&#45;&gt;Node16</title>
<path fill="none" stroke="midnightblue" d="M1210.48,-817.35C1246.49,-837.2 1329.11,-882.75 1371.64,-906.19"/>
<polygon fill="midnightblue" stroke="midnightblue" points="1370.12,-909.35 1380.57,-911.11 1373.5,-903.22 1370.12,-909.35"/>
</g>
<!-- Node18&#45;&gt;Node5 -->
<g id="edge26" class="edge">
<title>Node18&#45;&gt;Node5</title>
<path fill="none" stroke="midnightblue" d="M1227.48,-722.19C1240.39,-718.23 1255.06,-713.26 1268,-707.72 1302.25,-693.04 1339.38,-672.23 1365.16,-656.93"/>
<polygon fill="midnightblue" stroke="midnightblue" points="1367,-659.91 1373.78,-651.77 1363.4,-653.9 1367,-659.91"/>
</g>
<!-- Node19&#45;&gt;Node4 -->
<g id="edge29" class="edge">
<title>Node19&#45;&gt;Node4</title>
<path fill="none" stroke="midnightblue" d="M1215.33,-520.53C1231.39,-508.81 1252.8,-491.48 1268,-472.72 1328.44,-398.11 1373.8,-291.11 1390.75,-247.9"/>
<polygon fill="midnightblue" stroke="midnightblue" points="1394.1,-248.94 1394.43,-238.35 1387.57,-246.41 1394.1,-248.94"/>
</g>
<!-- Node19&#45;&gt;Node5 -->
<g id="edge30" class="edge">
<title>Node19&#45;&gt;Node5</title>
<path fill="none" stroke="midnightblue" d="M1233.08,-550.73C1244.48,-555.27 1256.84,-560.46 1268,-565.72 1301.3,-581.4 1338,-601.74 1363.89,-616.63"/>
<polygon fill="midnightblue" stroke="midnightblue" points="1362.16,-619.67 1372.57,-621.65 1365.67,-613.61 1362.16,-619.67"/>
</g>
<!-- Node20&#45;&gt;Node5 -->
<g id="edge32" class="edge">
<title>Node20&#45;&gt;Node5</title>
<path fill="none" stroke="midnightblue" d="M838.69,-808.29C909.06,-835.13 1121.12,-904.19 1268,-826.72 1334.95,-791.4 1373.99,-704.36 1389.77,-661.44"/>
<polygon fill="midnightblue" stroke="midnightblue" points="1393.16,-662.38 1393.21,-651.78 1386.56,-660.04 1393.16,-662.38"/>
</g>
<!-- Node20&#45;&gt;Node13 -->
<g id="edge33" class="edge">
<title>Node20&#45;&gt;Node13</title>
<path fill="none" stroke="midnightblue" d="M856.83,-800.85C878.32,-801.95 904.96,-803.3 928.85,-804.52"/>
<polygon fill="midnightblue" stroke="midnightblue" points="928.74,-808.02 938.9,-805.04 929.09,-801.03 928.74,-808.02"/>
</g>
<!-- Node20&#45;&gt;Node14 -->
<g id="edge34" class="edge">
<title>Node20&#45;&gt;Node14</title>
<path fill="none" stroke="midnightblue" d="M830.97,-789.21C861.87,-770.83 930.02,-730.29 966.8,-708.41"/>
<polygon fill="midnightblue" stroke="midnightblue" points="968.63,-711.4 975.43,-703.28 965.05,-705.38 968.63,-711.4"/>
</g>
<!-- Node20&#45;&gt;Node15 -->
<g id="edge35" class="edge">
<title>Node20&#45;&gt;Node15</title>
<path fill="none" stroke="midnightblue" d="M856.83,-791.85C878.06,-788.36 904.3,-784.05 927.96,-780.16"/>
<polygon fill="midnightblue" stroke="midnightblue" points="928.62,-783.6 937.92,-778.52 927.48,-776.69 928.62,-783.6"/>
</g>
<!-- Node21&#45;&gt;Node4 -->
<g id="edge65" class="edge">
<title>Node21&#45;&gt;Node4</title>
<path fill="none" stroke="midnightblue" d="M244.35,-482.21C246.42,-439.29 260.42,-261.44 352,-162.72 442.93,-64.7 498.3,-52.72 632,-52.72 632,-52.72 632,-52.72 993.5,-52.72 1115.79,-52.72 1173.44,5.83 1268,-71.72 1315.02,-110.28 1260.87,-160.85 1304,-203.72 1308.48,-208.17 1313.66,-211.86 1319.24,-214.9"/>
<polygon fill="midnightblue" stroke="midnightblue" points="1317.75,-218.07 1328.28,-219.18 1320.74,-211.74 1317.75,-218.07"/>
</g>
<!-- Node21&#45;&gt;Node5 -->
<g id="edge67" class="edge">
<title>Node21&#45;&gt;Node5</title>
<path fill="none" stroke="midnightblue" d="M249.86,-501.42C276.84,-545.07 394.03,-724.38 543,-799.72 688.53,-873.31 742.47,-846.34 905,-859.72 1065.79,-872.95 1128.38,-938.56 1268,-857.72 1342.67,-814.48 1378.8,-710.01 1391.94,-661.83"/>
<polygon fill="midnightblue" stroke="midnightblue" points="1395.38,-662.48 1394.53,-651.92 1388.61,-660.71 1395.38,-662.48"/>
</g>
<!-- Node21&#45;&gt;Node8 -->
<g id="edge66" class="edge">
<title>Node21&#45;&gt;Node8</title>
<path fill="none" stroke="midnightblue" d="M245.01,-481.89C251.22,-423.26 286.22,-120.1 352,-59.72 444.86,25.51 505.96,-14.72 632,-14.72 632,-14.72 632,-14.72 993.5,-14.72 1115.66,-14.72 1158.73,25.9 1268,-28.72 1328.56,-58.99 1371.42,-131.63 1389.05,-166.04"/>
<polygon fill="midnightblue" stroke="midnightblue" points="1385.94,-167.64 1393.53,-175.03 1392.21,-164.52 1385.94,-167.64"/>
</g>
<!-- Node21&#45;&gt;Node19 -->
<g id="edge68" class="edge">
<title>Node21&#45;&gt;Node19</title>
<path fill="none" stroke="midnightblue" d="M280.48,-501.25C336.46,-515.3 447.15,-540.74 543,-548.72 653.63,-557.92 978.67,-545.21 1121.89,-538.91"/>
<polygon fill="midnightblue" stroke="midnightblue" points="1122.46,-542.38 1132.29,-538.44 1122.15,-535.39 1122.46,-542.38"/>
</g>
<!-- Node22 -->
<g id="node22" class="node">
<title>Node22</title>
<g id="a_node22"><a xlink:href="classhive__controller__t.html#a864f0251e1bbb2cab301037d2995f25a" target="_top" xlink:title=" ">
<polygon fill="white" stroke="black" points="1140,-81.72 1140,-111.72 1244,-111.72 1244,-81.72 1140,-81.72"/>
<text text-anchor="start" x="1148" y="-99.72" font-family="Helvetica,sans-Serif" font-size="10.00">hive_controller_t::</text>
<text text-anchor="middle" x="1192" y="-88.72" font-family="Helvetica,sans-Serif" font-size="10.00">addRequest</text>
</a>
</g>
</g>
<!-- Node21&#45;&gt;Node22 -->
<g id="edge37" class="edge">
<title>Node21&#45;&gt;Node22</title>
<path fill="none" stroke="midnightblue" d="M248.58,-482.15C271.81,-434.84 381.88,-224.89 543,-143.72 738.27,-45.34 1009.37,-69 1129.49,-86.29"/>
<polygon fill="midnightblue" stroke="midnightblue" points="1129.2,-89.78 1139.61,-87.78 1130.23,-82.86 1129.2,-89.78"/>
</g>
<!-- Node23 -->
<g id="node23" class="node">
<title>Node23</title>
<g id="a_node23"><a xlink:href="classvima__controller__t.html#a78795ac4492ba15bc945f597dd5b9ecb" target="_top" xlink:title=" ">
<polygon fill="white" stroke="black" points="760,-602.72 760,-632.72 868,-632.72 868,-602.72 760,-602.72"/>
<text text-anchor="start" x="768" y="-620.72" font-family="Helvetica,sans-Serif" font-size="10.00">vima_controller_t::</text>
<text text-anchor="middle" x="814" y="-609.72" font-family="Helvetica,sans-Serif" font-size="10.00">addRequest</text>
</a>
</g>
</g>
<!-- Node21&#45;&gt;Node23 -->
<g id="edge41" class="edge">
<title>Node21&#45;&gt;Node23</title>
<path fill="none" stroke="midnightblue" d="M251.71,-501.26C267.92,-520.51 307.69,-563.69 352,-581.72 485.36,-635.97 658.11,-631.87 749.62,-624.56"/>
<polygon fill="midnightblue" stroke="midnightblue" points="750.15,-628.03 759.83,-623.7 749.57,-621.05 750.15,-628.03"/>
</g>
<!-- Node24 -->
<g id="node24" class="node">
<title>Node24</title>
<g id="a_node24"><a xlink:href="classcache__manager__t.html#ac6ec547ecf2b8d52bf8169bc79d66e70" target="_top" xlink:title=" ">
<polygon fill="white" stroke="black" points="361,-476.72 361,-506.72 498,-506.72 498,-476.72 361,-476.72"/>
<text text-anchor="start" x="369" y="-494.72" font-family="Helvetica,sans-Serif" font-size="10.00">cache_manager_t::cache</text>
<text text-anchor="middle" x="429.5" y="-483.72" font-family="Helvetica,sans-Serif" font-size="10.00">_search</text>
</a>
</g>
</g>
<!-- Node21&#45;&gt;Node24 -->
<g id="edge43" class="edge">
<title>Node21&#45;&gt;Node24</title>
<path fill="none" stroke="midnightblue" d="M316.13,-491.72C327.54,-491.72 339.38,-491.72 350.91,-491.72"/>
<polygon fill="midnightblue" stroke="midnightblue" points="350.95,-495.22 360.95,-491.72 350.95,-488.22 350.95,-495.22"/>
</g>
<!-- Node30 -->
<g id="node30" class="node">
<title>Node30</title>
<g id="a_node30"><a xlink:href="enumerations_8cpp.html#a78d7739a46b0406e1b2589e0e20f3643" target="_top" xlink:title="Enumerates the cache level,.">
<polygon fill="white" stroke="black" points="352,-438.22 352,-457.22 507,-457.22 507,-438.22 352,-438.22"/>
<text text-anchor="middle" x="429.5" y="-445.22" font-family="Helvetica,sans-Serif" font-size="10.00">get_enum_cache_level_char</text>
</a>
</g>
</g>
<!-- Node21&#45;&gt;Node30 -->
<g id="edge64" class="edge">
<title>Node21&#45;&gt;Node30</title>
<path fill="none" stroke="midnightblue" d="M284.03,-482.17C311.84,-475.54 349.08,-466.66 378.78,-459.57"/>
<polygon fill="midnightblue" stroke="midnightblue" points="379.63,-462.97 388.54,-457.25 378.01,-456.16 379.63,-462.97"/>
</g>
<!-- Node22&#45;&gt;Node4 -->
<g id="edge38" class="edge">
<title>Node22&#45;&gt;Node4</title>
<path fill="none" stroke="midnightblue" d="M1244.11,-111.08C1252.78,-115.14 1261.17,-120.27 1268,-126.72 1295.46,-152.66 1275.03,-179.48 1304,-203.72 1309.61,-208.41 1316.01,-212.23 1322.78,-215.34"/>
<polygon fill="midnightblue" stroke="midnightblue" points="1321.61,-218.64 1332.19,-219.16 1324.24,-212.16 1321.61,-218.64"/>
</g>
<!-- Node22&#45;&gt;Node5 -->
<g id="edge40" class="edge">
<title>Node22&#45;&gt;Node5</title>
<path fill="none" stroke="midnightblue" d="M1218.05,-111.93C1234.55,-123.19 1255.35,-139.95 1268,-159.72 1293.28,-199.23 1370.17,-519.06 1392.1,-611.67"/>
<polygon fill="midnightblue" stroke="midnightblue" points="1388.74,-612.65 1394.44,-621.57 1395.55,-611.04 1388.74,-612.65"/>
</g>
<!-- Node22&#45;&gt;Node8 -->
<g id="edge39" class="edge">
<title>Node22&#45;&gt;Node8</title>
<path fill="none" stroke="midnightblue" d="M1231.66,-111.85C1243.37,-116.52 1256.25,-121.75 1268,-126.72 1302.31,-141.23 1341.29,-158.76 1367.54,-170.72"/>
<polygon fill="midnightblue" stroke="midnightblue" points="1366.39,-174.05 1376.94,-175.02 1369.3,-167.68 1366.39,-174.05"/>
</g>
<!-- Node23&#45;&gt;Node5 -->
<g id="edge42" class="edge">
<title>Node23&#45;&gt;Node5</title>
<path fill="none" stroke="midnightblue" d="M868.02,-619.45C975.92,-622.96 1220.54,-630.93 1335.76,-634.69"/>
<polygon fill="midnightblue" stroke="midnightblue" points="1335.72,-638.19 1345.83,-635.02 1335.95,-631.19 1335.72,-638.19"/>
</g>
<!-- Node24&#45;&gt;Node3 -->
<g id="edge44" class="edge">
<title>Node24&#45;&gt;Node3</title>
<path fill="none" stroke="midnightblue" d="M498.22,-482.32C512.96,-480.55 528.48,-478.89 543,-477.72 744.1,-461.51 981.2,-456.23 1105.35,-454.53"/>
<polygon fill="midnightblue" stroke="midnightblue" points="1105.6,-458.02 1115.55,-454.39 1105.5,-451.02 1105.6,-458.02"/>
</g>
<!-- Node24&#45;&gt;Node4 -->
<g id="edge45" class="edge">
<title>Node24&#45;&gt;Node4</title>
<path fill="none" stroke="midnightblue" d="M495.17,-476.65C499.56,-473.88 503.58,-470.6 507,-466.72 563.23,-402.88 491.94,-346.76 543,-278.72 623.89,-170.93 678.23,-140.72 813,-140.72 813,-140.72 813,-140.72 993.5,-140.72 1115.79,-140.72 1159.36,-103.56 1268,-159.72 1290.45,-171.32 1282.76,-190.03 1304,-203.72 1311.9,-208.81 1320.81,-212.87 1329.92,-216.11"/>
<polygon fill="midnightblue" stroke="midnightblue" points="1328.85,-219.44 1339.44,-219.19 1331,-212.78 1328.85,-219.44"/>
</g>
<!-- Node24&#45;&gt;Node5 -->
<g id="edge46" class="edge">
<title>Node24&#45;&gt;Node5</title>
<path fill="none" stroke="midnightblue" d="M498.21,-491.72C574.66,-491.72 702.77,-491.72 813,-491.72 813,-491.72 813,-491.72 993.5,-491.72 1115.82,-491.72 1156.27,-461.92 1268,-511.72 1317.72,-533.88 1359.86,-583.58 1381.79,-613.2"/>
<polygon fill="midnightblue" stroke="midnightblue" points="1378.98,-615.29 1387.68,-621.34 1384.65,-611.19 1378.98,-615.29"/>
</g>
<!-- Node24&#45;&gt;Node20 -->
<g id="edge63" class="edge">
<title>Node24&#45;&gt;Node20</title>
<path fill="none" stroke="midnightblue" d="M431.67,-506.89C436.19,-553.86 456.8,-697.67 543,-763.72 605.83,-811.85 701.98,-811.99 760.98,-806.33"/>
<polygon fill="midnightblue" stroke="midnightblue" points="761.61,-809.78 771.19,-805.26 760.88,-802.82 761.61,-809.78"/>
</g>
<!-- Node25 -->
<g id="node25" class="node">
<title>Node25</title>
<g id="a_node25"><a xlink:href="classcache__t.html#aab55f380c45fb623cdc5160902cbdefa" target="_top" xlink:title=" ">
<polygon fill="white" stroke="black" points="578,-668.22 578,-687.22 688,-687.22 688,-668.22 578,-668.22"/>
<text text-anchor="middle" x="633" y="-675.22" font-family="Helvetica,sans-Serif" font-size="10.00">cache_t::returnLine</text>
</a>
</g>
</g>
<!-- Node24&#45;&gt;Node25 -->
<g id="edge47" class="edge">
<title>Node24&#45;&gt;Node25</title>
<path fill="none" stroke="midnightblue" d="M446.99,-506.94C484.37,-541.45 575.31,-625.39 614.05,-661.15"/>
<polygon fill="midnightblue" stroke="midnightblue" points="611.76,-663.8 621.48,-668.01 616.51,-658.66 611.76,-663.8"/>
</g>
<!-- Node26 -->
<g id="node26" class="node">
<title>Node26</title>
<g id="a_node26"><a xlink:href="classcache__manager__t.html#a926b91caae4bcb5f785cb756f4da1a52" target="_top" xlink:title=" ">
<polygon fill="white" stroke="black" points="543,-520.22 543,-539.22 723,-539.22 723,-520.22 543,-520.22"/>
<text text-anchor="middle" x="633" y="-527.22" font-family="Helvetica,sans-Serif" font-size="10.00">cache_manager_t::searchAddress</text>
</a>
</g>
</g>
<!-- Node24&#45;&gt;Node26 -->
<g id="edge51" class="edge">
<title>Node24&#45;&gt;Node26</title>
<path fill="none" stroke="midnightblue" d="M498.16,-504.48C521.86,-508.95 548.31,-513.94 571.4,-518.29"/>
<polygon fill="midnightblue" stroke="midnightblue" points="570.94,-521.76 581.41,-520.18 572.23,-514.88 570.94,-521.76"/>
</g>
<!-- Node28 -->
<g id="node28" class="node">
<title>Node28</title>
<g id="a_node28"><a xlink:href="classmemory__package__t.html#aca3c3a3d460dea3665ef057672deb04b" target="_top" xlink:title=" ">
<polygon fill="white" stroke="black" points="1116,-169.72 1116,-199.72 1268,-199.72 1268,-169.72 1116,-169.72"/>
<text text-anchor="start" x="1124" y="-187.72" font-family="Helvetica,sans-Serif" font-size="10.00">memory_package_t::update</text>
<text text-anchor="middle" x="1192" y="-176.72" font-family="Helvetica,sans-Serif" font-size="10.00">PackageUntreated</text>
</a>
</g>
</g>
<!-- Node24&#45;&gt;Node28 -->
<g id="edge55" class="edge">
<title>Node24&#45;&gt;Node28</title>
<path fill="none" stroke="midnightblue" d="M492.29,-476.67C497.59,-473.89 502.61,-470.61 507,-466.72 535.29,-441.68 514.83,-414.89 543,-389.72 705.28,-244.7 970.1,-202.23 1105.46,-189.82"/>
<polygon fill="midnightblue" stroke="midnightblue" points="1106.12,-193.28 1115.77,-188.91 1105.5,-186.31 1106.12,-193.28"/>
</g>
<!-- Node29 -->
<g id="node29" class="node">
<title>Node29</title>
<g id="a_node29"><a xlink:href="classmemory__package__t.html#a961024a3c9d618cc27d9a0237b185274" target="_top" xlink:title=" ">
<polygon fill="white" stroke="black" points="1116,-218.72 1116,-248.72 1268,-248.72 1268,-218.72 1116,-218.72"/>
<text text-anchor="start" x="1124" y="-236.72" font-family="Helvetica,sans-Serif" font-size="10.00">memory_package_t::update</text>
<text text-anchor="middle" x="1192" y="-225.72" font-family="Helvetica,sans-Serif" font-size="10.00">PackageWait</text>
</a>
</g>
</g>
<!-- Node24&#45;&gt;Node29 -->
<g id="edge59" class="edge">
<title>Node24&#45;&gt;Node29</title>
<path fill="none" stroke="midnightblue" d="M477.06,-476.63C486.96,-473.39 497.33,-469.96 507,-466.72 778.41,-375.58 843.76,-345.37 1116,-256.72 1120.89,-255.12 1125.97,-253.5 1131.08,-251.89"/>
<polygon fill="midnightblue" stroke="midnightblue" points="1132.4,-255.15 1140.9,-248.82 1130.31,-248.46 1132.4,-255.15"/>
</g>
<!-- Node25&#45;&gt;Node5 -->
<g id="edge48" class="edge">
<title>Node25&#45;&gt;Node5</title>
<path fill="none" stroke="midnightblue" d="M688.03,-674.82C825.77,-667.43 1189.48,-647.91 1335.76,-640.06"/>
<polygon fill="midnightblue" stroke="midnightblue" points="1336.11,-643.54 1345.91,-639.51 1335.74,-636.55 1336.11,-643.54"/>
</g>
<!-- Node25&#45;&gt;Node12 -->
<g id="edge49" class="edge">
<title>Node25&#45;&gt;Node12</title>
<path fill="none" stroke="midnightblue" d="M661.97,-687.25C692.49,-697.65 741.5,-714.35 775.38,-725.9"/>
<polygon fill="midnightblue" stroke="midnightblue" points="774.34,-729.24 784.93,-729.15 776.6,-722.61 774.34,-729.24"/>
</g>
<!-- Node25&#45;&gt;Node14 -->
<g id="edge50" class="edge">
<title>Node25&#45;&gt;Node14</title>
<path fill="none" stroke="midnightblue" d="M688.3,-680.15C744.87,-682.68 834.46,-686.69 901.62,-689.69"/>
<polygon fill="midnightblue" stroke="midnightblue" points="901.63,-693.2 911.77,-690.15 901.94,-686.21 901.63,-693.2"/>
</g>
<!-- Node27 -->
<g id="node27" class="node">
<title>Node27</title>
<g id="a_node27"><a xlink:href="classcache__t.html#ab35480bbdb86dc151edb0a3fa64d9e2d" target="_top" xlink:title=" ">
<polygon fill="white" stroke="black" points="773,-564.22 773,-583.22 855,-583.22 855,-564.22 773,-564.22"/>
<text text-anchor="middle" x="814" y="-571.22" font-family="Helvetica,sans-Serif" font-size="10.00">cache_t::read</text>
</a>
</g>
</g>
<!-- Node26&#45;&gt;Node27 -->
<g id="edge52" class="edge">
<title>Node26&#45;&gt;Node27</title>
<path fill="none" stroke="midnightblue" d="M672.84,-539.27C699.7,-545.87 735.63,-554.7 764.39,-561.77"/>
<polygon fill="midnightblue" stroke="midnightblue" points="763.69,-565.2 774.24,-564.19 765.36,-558.4 763.69,-565.2"/>
</g>
<!-- Node27&#45;&gt;Node5 -->
<g id="edge53" class="edge">
<title>Node27&#45;&gt;Node5</title>
<path fill="none" stroke="midnightblue" d="M855.07,-578.05C954.94,-588.84 1215.46,-616.99 1335.63,-629.98"/>
<polygon fill="midnightblue" stroke="midnightblue" points="1335.45,-633.48 1345.77,-631.07 1336.2,-626.52 1335.45,-633.48"/>
</g>
<!-- Node27&#45;&gt;Node14 -->
<g id="edge54" class="edge">
<title>Node27&#45;&gt;Node14</title>
<path fill="none" stroke="midnightblue" d="M846.07,-583.23C853.79,-586.13 861.88,-589.65 869,-593.72 910.6,-617.52 952.42,-655.36 974.83,-677.02"/>
<polygon fill="midnightblue" stroke="midnightblue" points="972.57,-679.71 982.16,-684.22 977.47,-674.72 972.57,-679.71"/>
</g>
<!-- Node28&#45;&gt;Node4 -->
<g id="edge56" class="edge">
<title>Node28&#45;&gt;Node4</title>
<path fill="none" stroke="midnightblue" d="M1262.98,-199.74C1289.38,-205.4 1319,-211.76 1343.75,-217.07"/>
<polygon fill="midnightblue" stroke="midnightblue" points="1343.17,-220.53 1353.68,-219.21 1344.64,-213.68 1343.17,-220.53"/>
</g>
<!-- Node28&#45;&gt;Node5 -->
<g id="edge58" class="edge">
<title>Node28&#45;&gt;Node5</title>
<path fill="none" stroke="midnightblue" d="M1256.67,-199.87C1260.8,-202.38 1264.64,-205.31 1268,-208.72 1382.31,-324.74 1396.58,-537.93 1398,-611.2"/>
<polygon fill="midnightblue" stroke="midnightblue" points="1394.5,-611.39 1398.13,-621.35 1401.5,-611.3 1394.5,-611.39"/>
</g>
<!-- Node28&#45;&gt;Node8 -->
<g id="edge57" class="edge">
<title>Node28&#45;&gt;Node8</title>
<path fill="none" stroke="midnightblue" d="M1268.17,-184.72C1280.13,-184.72 1292.63,-184.72 1304.95,-184.72"/>
<polygon fill="midnightblue" stroke="midnightblue" points="1305.23,-188.22 1315.23,-184.72 1305.23,-181.22 1305.23,-188.22"/>
</g>
<!-- Node29&#45;&gt;Node4 -->
<g id="edge60" class="edge">
<title>Node29&#45;&gt;Node4</title>
<path fill="none" stroke="midnightblue" d="M1268.17,-231.88C1276.55,-231.68 1285.19,-231.47 1293.84,-231.26"/>
<polygon fill="midnightblue" stroke="midnightblue" points="1294.09,-234.75 1304,-231.01 1293.92,-227.76 1294.09,-234.75"/>
</g>
<!-- Node29&#45;&gt;Node5 -->
<g id="edge62" class="edge">
<title>Node29&#45;&gt;Node5</title>
<path fill="none" stroke="midnightblue" d="M1216.74,-248.85C1233.06,-260.3 1254.19,-277.32 1268,-296.72 1342.01,-400.68 1380.15,-552.18 1392.96,-611.54"/>
<polygon fill="midnightblue" stroke="midnightblue" points="1389.57,-612.45 1395.06,-621.52 1396.42,-611.01 1389.57,-612.45"/>
</g>
<!-- Node29&#45;&gt;Node8 -->
<g id="edge61" class="edge">
<title>Node29&#45;&gt;Node8</title>
<path fill="none" stroke="midnightblue" d="M1255.9,-218.68C1285.56,-211.59 1320.46,-203.25 1348.25,-196.61"/>
<polygon fill="midnightblue" stroke="midnightblue" points="1349.23,-199.97 1358.14,-194.25 1347.6,-193.17 1349.23,-199.97"/>
</g>
</g>
</svg>
        <g id="navigator" transform="translate(0 0)" fill="#404254">
                <rect fill="#f2f5e9" fill-opacity="0.5" stroke="#606060" stroke-width=".5" x="0" y="0" width="60" height="60"/>
                <use id="zoomplus" xlink:href="#zoomPlus" x="17" y="9" onmousedown="handleZoom(evt,'in')"/>
                <use id="zoomminus" xlink:href="#zoomMin" x="42" y="9" onmousedown="handleZoom(evt,'out')"/>
                <use id="reset" xlink:href="#resetDef" x="30" y="36" onmousedown="handleReset()"/>
                <g id="arrowUp" xlink:href="#dirArrow" transform="translate(30 24)" onmousedown="handlePan(0,-1)">
                  <use xlink:href="#rim" fill="#404040">
                        <set attributeName="fill" to="#808080" begin="arrowUp.mouseover" end="arrowUp.mouseout"/>
                  </use>
                  <path fill="none" stroke="white" stroke-width="1.5" d="M0,-3.0v7 M-2.5,-0.5L0,-3.0L2.5,-0.5"/>
                </g>
                <g id="arrowRight" xlink:href="#dirArrow" transform="rotate(90) translate(36 -43)" onmousedown="handlePan(1,0)">
                  <use xlink:href="#rim" fill="#404040">
                        <set attributeName="fill" to="#808080" begin="arrowRight.mouseover" end="arrowRight.mouseout"/>
                  </use>
                  <path fill="none" stroke="white" stroke-width="1.5" d="M0,-3.0v7 M-2.5,-0.5L0,-3.0L2.5,-0.5"/>
                </g>
                <g id="arrowDown" xlink:href="#dirArrow" transform="rotate(180) translate(-30 -48)" onmousedown="handlePan(0,1)">
                  <use xlink:href="#rim" fill="#404040">
                        <set attributeName="fill" to="#808080" begin="arrowDown.mouseover" end="arrowDown.mouseout"/>
                  </use>
                  <path fill="none" stroke="white" stroke-width="1.5" d="M0,-3.0v7 M-2.5,-0.5L0,-3.0L2.5,-0.5"/>
                </g>
                <g id="arrowLeft" xlink:href="#dirArrow" transform="rotate(270) translate(-36 17)" onmousedown="handlePan(-1,0)">
                  <use xlink:href="#rim" fill="#404040">
                        <set attributeName="fill" to="#808080" begin="arrowLeft.mouseover" end="arrowLeft.mouseout"/>
                  </use>
                  <path fill="none" stroke="white" stroke-width="1.5" d="M0,-3.0v7 M-2.5,-0.5L0,-3.0L2.5,-0.5"/>
                </g>
        </g>
        <svg viewBox="0 0 15 15" width="100%" height="30px" preserveAspectRatio="xMaxYMin meet">
         <g id="arrow_out" transform="scale(0.3 0.3)">
          <a xlink:href="classcache__manager__t_aacad363e691e36066e4eb217b62f021e_cgraph_org.svg" target="_base">
           <rect id="button" ry="5" rx="5" y="6" x="6" height="38" width="38"
                fill="#f2f5e9" fill-opacity="0.5" stroke="#606060" stroke-width="1.0"/>
           <path id="arrow"
             d="M 11.500037,31.436501 C 11.940474,20.09759 22.043105,11.32322 32.158766,21.979434 L 37.068811,17.246167 C 37.068811,17.246167 37.088388,32 37.088388,32 L 22.160133,31.978069 C 22.160133,31.978069 26.997745,27.140456 26.997745,27.140456 C 18.528582,18.264221 13.291696,25.230495 11.500037,31.436501 z"
             style="fill:#404040;"/>
          </a>
         </g>
        </svg>
</svg>
