<?xml version="1.0" encoding="UTF-8" standalone="no"?>
<!DOCTYPE svg PUBLIC "-//W3C//DTD SVG 1.1//EN"
 "http://www.w3.org/Graphics/SVG/1.1/DTD/svg11.dtd">
<!-- Generated by graphviz version 2.43.0 (0)
 -->
<!-- Title: hive_controller_t::check_wait Pages: 1 -->
<svg width="541pt" height="120pt"
 viewBox="0.00 0.00 541.00 120.47" xmlns="http://www.w3.org/2000/svg" xmlns:xlink="http://www.w3.org/1999/xlink">
<g id="graph0" class="graph" transform="scale(1 1) rotate(0) translate(4 116.47)">
<title>hive_controller_t::check_wait</title>
<polygon fill="white" stroke="transparent" points="-4,4 -4,-116.47 537,-116.47 537,4 -4,4"/>
<!-- Node1 -->
<g id="node1" class="node">
<title>Node1</title>
<g id="a_node1"><a xlink:title=" ">
<polygon fill="#bfbfbf" stroke="black" points="0,-45.7 0,-75.7 104,-75.7 104,-45.7 0,-45.7"/>
<text text-anchor="start" x="8" y="-63.7" font-family="Helvetica,sans-Serif" font-size="10.00">hive_controller_t::</text>
<text text-anchor="middle" x="52" y="-52.7" font-family="Helvetica,sans-Serif" font-size="10.00">check_wait</text>
</a>
</g>
</g>
<!-- Node2 -->
<g id="node2" class="node">
<title>Node2</title>
<g id="a_node2"><a xlink:href="enumerations_8cpp.html#abb39d040475b58d11b29c242b33091e1" target="_top" xlink:title="Enumerates the MEMORY OPERATION OF MOB,debug only.">
<polygon fill="white" stroke="black" points="343,-81.2 343,-100.2 533,-100.2 533,-81.2 343,-81.2"/>
<text text-anchor="middle" x="438" y="-88.2" font-family="Helvetica,sans-Serif" font-size="10.00">get_enum_memory_operation_char</text>
</a>
</g>
</g>
<!-- Node1&#45;&gt;Node2 -->
<g id="edge1" class="edge">
<title>Node1&#45;&gt;Node2</title>
<path fill="none" stroke="midnightblue" d="M77.45,-75.8C94.33,-85.31 117.68,-96.7 140,-101.7 220.56,-119.73 316.43,-110.92 377.01,-101.79"/>
<polygon fill="midnightblue" stroke="midnightblue" points="377.82,-105.2 387.16,-100.2 376.74,-98.29 377.82,-105.2"/>
</g>
<!-- Node3 -->
<g id="node3" class="node">
<title>Node3</title>
<g id="a_node3"><a xlink:href="enumerations_8cpp.html#a4f1219a7c31d137c368e36cea5be9128" target="_top" xlink:title="Enumerates the package state,.">
<polygon fill="white" stroke="black" points="140,-73.2 140,-92.2 307,-92.2 307,-73.2 140,-73.2"/>
<text text-anchor="middle" x="223.5" y="-80.2" font-family="Helvetica,sans-Serif" font-size="10.00">get_enum_package_state_char</text>
</a>
</g>
</g>
<!-- Node1&#45;&gt;Node3 -->
<g id="edge2" class="edge">
<title>Node1&#45;&gt;Node3</title>
<path fill="none" stroke="midnightblue" d="M104.32,-67.36C115.35,-68.79 127.29,-70.34 139.19,-71.88"/>
<polygon fill="midnightblue" stroke="midnightblue" points="138.79,-75.36 149.16,-73.18 139.69,-68.42 138.79,-75.36"/>
</g>
<!-- Node4 -->
<g id="node4" class="node">
<title>Node4</title>
<g id="a_node4"><a xlink:href="classorcs__engine__t.html#a1c033e3455736ba89052a40c69ebe0af" target="_top" xlink:title=" ">
<polygon fill="white" stroke="black" points="385,-1.7 385,-31.7 491,-31.7 491,-1.7 385,-1.7"/>
<text text-anchor="start" x="393" y="-19.7" font-family="Helvetica,sans-Serif" font-size="10.00">orcs_engine_t::get</text>
<text text-anchor="middle" x="438" y="-8.7" font-family="Helvetica,sans-Serif" font-size="10.00">_global_cycle</text>
</a>
</g>
</g>
<!-- Node1&#45;&gt;Node4 -->
<g id="edge3" class="edge">
<title>Node1&#45;&gt;Node4</title>
<path fill="none" stroke="midnightblue" d="M73.93,-45.52C90.82,-34.26 115.7,-19.84 140,-13.7 219.04,6.29 313.73,0.44 374.6,-6.95"/>
<polygon fill="midnightblue" stroke="midnightblue" points="374.45,-10.46 384.81,-8.24 375.33,-3.51 374.45,-10.46"/>
</g>
<!-- Node5 -->
<g id="node5" class="node">
<title>Node5</title>
<g id="a_node5"><a xlink:href="classhive__controller__t.html#a8b7b32733e7a463f9691639e07502313" target="_top" xlink:title=" ">
<polygon fill="white" stroke="black" points="171.5,-23.7 171.5,-53.7 275.5,-53.7 275.5,-23.7 171.5,-23.7"/>
<text text-anchor="start" x="179.5" y="-41.7" font-family="Helvetica,sans-Serif" font-size="10.00">hive_controller_t::</text>
<text text-anchor="middle" x="223.5" y="-30.7" font-family="Helvetica,sans-Serif" font-size="10.00">instruction_ready</text>
</a>
</g>
</g>
<!-- Node1&#45;&gt;Node5 -->
<g id="edge4" class="edge">
<title>Node1&#45;&gt;Node5</title>
<path fill="none" stroke="midnightblue" d="M104.32,-54.04C122.24,-51.71 142.54,-49.08 161.19,-46.65"/>
<polygon fill="midnightblue" stroke="midnightblue" points="161.89,-50.09 171.36,-45.33 160.99,-43.15 161.89,-50.09"/>
</g>
<!-- Node5&#45;&gt;Node2 -->
<g id="edge5" class="edge">
<title>Node5&#45;&gt;Node2</title>
<path fill="none" stroke="midnightblue" d="M275.67,-51.22C309.73,-59.55 354.22,-70.44 387.85,-78.67"/>
<polygon fill="midnightblue" stroke="midnightblue" points="387.37,-82.16 397.92,-81.13 389.04,-75.36 387.37,-82.16"/>
</g>
<!-- Node5&#45;&gt;Node4 -->
<g id="edge6" class="edge">
<title>Node5&#45;&gt;Node4</title>
<path fill="none" stroke="midnightblue" d="M275.67,-33.4C305.48,-30.31 343.28,-26.4 374.8,-23.14"/>
<polygon fill="midnightblue" stroke="midnightblue" points="375.21,-26.61 384.8,-22.1 374.49,-19.65 375.21,-26.61"/>
</g>
</g>
</svg>
