<?xml version="1.0" encoding="UTF-8" standalone="no"?>
<!DOCTYPE svg PUBLIC "-//W3C//DTD SVG 1.1//EN"
 "http://www.w3.org/Graphics/SVG/1.1/DTD/svg11.dtd">
<!-- Generated by graphviz version 2.43.0 (0)
 -->
<!-- Title: hive_controller_t::clock Pages: 1 -->
<svg width="817pt" height="401pt"
 viewBox="0.00 0.00 817.00 400.79" xmlns="http://www.w3.org/2000/svg" xmlns:xlink="http://www.w3.org/1999/xlink">
<g id="graph0" class="graph" transform="scale(1 1) rotate(0) translate(4 396.79)">
<title>hive_controller_t::clock</title>
<polygon fill="white" stroke="transparent" points="-4,4 -4,-396.79 813,-396.79 813,4 -4,4"/>
<!-- Node1 -->
<g id="node1" class="node">
<title>Node1</title>
<g id="a_node1"><a xlink:title=" ">
<polygon fill="#bfbfbf" stroke="black" points="0,-223.83 0,-253.83 104,-253.83 104,-223.83 0,-223.83"/>
<text text-anchor="start" x="8" y="-241.83" font-family="Helvetica,sans-Serif" font-size="10.00">hive_controller_t::</text>
<text text-anchor="middle" x="52" y="-230.83" font-family="Helvetica,sans-Serif" font-size="10.00">clock</text>
</a>
</g>
</g>
<!-- Node2 -->
<g id="node2" class="node">
<title>Node2</title>
<g id="a_node2"><a xlink:href="classhive__controller__t.html#a7abfe0e54e92a108b45354a5d8347612" target="_top" xlink:title=" ">
<polygon fill="white" stroke="black" points="280,-283.83 280,-313.83 395,-313.83 395,-283.83 280,-283.83"/>
<text text-anchor="start" x="288" y="-301.83" font-family="Helvetica,sans-Serif" font-size="10.00">hive_controller_t::</text>
<text text-anchor="middle" x="337.5" y="-290.83" font-family="Helvetica,sans-Serif" font-size="10.00">check_sub_requests</text>
</a>
</g>
</g>
<!-- Node1&#45;&gt;Node2 -->
<g id="edge1" class="edge">
<title>Node1&#45;&gt;Node2</title>
<path fill="none" stroke="midnightblue" d="M104.01,-249.62C150.34,-259.43 218.98,-273.96 269.68,-284.68"/>
<polygon fill="midnightblue" stroke="midnightblue" points="269.06,-288.13 279.57,-286.78 270.51,-281.28 269.06,-288.13"/>
</g>
<!-- Node9 -->
<g id="node9" class="node">
<title>Node9</title>
<g id="a_node9"><a xlink:href="classhive__controller__t.html#a2a1a4c81752c7f26ad4b514de50eb955" target="_top" xlink:title=" ">
<polygon fill="white" stroke="black" points="140,-201.83 140,-231.83 244,-231.83 244,-201.83 140,-201.83"/>
<text text-anchor="start" x="148" y="-219.83" font-family="Helvetica,sans-Serif" font-size="10.00">hive_controller_t::</text>
<text text-anchor="middle" x="192" y="-208.83" font-family="Helvetica,sans-Serif" font-size="10.00">process</text>
</a>
</g>
</g>
<!-- Node1&#45;&gt;Node9 -->
<g id="edge11" class="edge">
<title>Node1&#45;&gt;Node9</title>
<path fill="none" stroke="midnightblue" d="M104.39,-230.63C112.56,-229.33 121.08,-227.97 129.46,-226.64"/>
<polygon fill="midnightblue" stroke="midnightblue" points="130.25,-230.06 139.57,-225.03 129.14,-223.14 130.25,-230.06"/>
</g>
<!-- Node3 -->
<g id="node3" class="node">
<title>Node3</title>
<g id="a_node3"><a xlink:href="classorcs__engine__t.html#a1c033e3455736ba89052a40c69ebe0af" target="_top" xlink:title=" ">
<polygon fill="white" stroke="black" points="661,-190.83 661,-220.83 767,-220.83 767,-190.83 661,-190.83"/>
<text text-anchor="start" x="669" y="-208.83" font-family="Helvetica,sans-Serif" font-size="10.00">orcs_engine_t::get</text>
<text text-anchor="middle" x="714" y="-197.83" font-family="Helvetica,sans-Serif" font-size="10.00">_global_cycle</text>
</a>
</g>
</g>
<!-- Node2&#45;&gt;Node3 -->
<g id="edge2" class="edge">
<title>Node2&#45;&gt;Node3</title>
<path fill="none" stroke="midnightblue" d="M351.35,-314.03C367.69,-332.08 397.82,-361.19 431,-372.83 494.75,-395.19 522.31,-402.49 583,-372.83 644.06,-342.98 684.75,-269.08 702.63,-230.37"/>
<polygon fill="midnightblue" stroke="midnightblue" points="705.98,-231.45 706.88,-220.89 699.59,-228.59 705.98,-231.45"/>
</g>
<!-- Node4 -->
<g id="node4" class="node">
<title>Node4</title>
<g id="a_node4"><a xlink:href="classmemory__controller__t.html#ad78d3fe5a6cf2ee6e22f9e563dd6e20e" target="_top" xlink:title=" ">
<polygon fill="white" stroke="black" points="447.5,-283.83 447.5,-313.83 566.5,-313.83 566.5,-283.83 447.5,-283.83"/>
<text text-anchor="start" x="455.5" y="-301.83" font-family="Helvetica,sans-Serif" font-size="10.00">memory_controller_t</text>
<text text-anchor="middle" x="507" y="-290.83" font-family="Helvetica,sans-Serif" font-size="10.00">::requestDRAM</text>
</a>
</g>
</g>
<!-- Node2&#45;&gt;Node4 -->
<g id="edge3" class="edge">
<title>Node2&#45;&gt;Node4</title>
<path fill="none" stroke="midnightblue" d="M395.21,-298.83C408.73,-298.83 423.3,-298.83 437.29,-298.83"/>
<polygon fill="midnightblue" stroke="midnightblue" points="437.35,-302.33 447.35,-298.83 437.35,-295.33 437.35,-302.33"/>
</g>
<!-- Node6 -->
<g id="node6" class="node">
<title>Node6</title>
<g id="a_node6"><a xlink:href="classhive__controller__t.html#a98425729af83e20672d96e3fe1ba5ea6" target="_top" xlink:title=" ">
<polygon fill="white" stroke="black" points="451.5,-332.83 451.5,-362.83 562.5,-362.83 562.5,-332.83 451.5,-332.83"/>
<text text-anchor="start" x="459.5" y="-350.83" font-family="Helvetica,sans-Serif" font-size="10.00">hive_controller_t::</text>
<text text-anchor="middle" x="507" y="-339.83" font-family="Helvetica,sans-Serif" font-size="10.00">reset_sub_requests</text>
</a>
</g>
</g>
<!-- Node2&#45;&gt;Node6 -->
<g id="edge6" class="edge">
<title>Node2&#45;&gt;Node6</title>
<path fill="none" stroke="midnightblue" d="M390.12,-313.93C407.4,-318.98 426.82,-324.66 444.76,-329.91"/>
<polygon fill="midnightblue" stroke="midnightblue" points="443.97,-333.33 454.55,-332.78 445.93,-326.61 443.97,-333.33"/>
</g>
<!-- Node7 -->
<g id="node7" class="node">
<title>Node7</title>
<g id="a_node7"><a xlink:href="classmemory__package__t.html#a8e3f9e4c3e46dc7fb5999868db55aa2f" target="_top" xlink:title=" ">
<polygon fill="white" stroke="black" points="431,-48.83 431,-78.83 583,-78.83 583,-48.83 431,-48.83"/>
<text text-anchor="start" x="439" y="-66.83" font-family="Helvetica,sans-Serif" font-size="10.00">memory_package_t::update</text>
<text text-anchor="middle" x="507" y="-55.83" font-family="Helvetica,sans-Serif" font-size="10.00">PackageFree</text>
</a>
</g>
</g>
<!-- Node2&#45;&gt;Node7 -->
<g id="edge7" class="edge">
<title>Node2&#45;&gt;Node7</title>
<path fill="none" stroke="midnightblue" d="M363.82,-283.82C375,-275.94 387.32,-265.33 395,-252.83 434.31,-188.88 380.5,-143.36 431,-87.83 431.88,-86.86 432.8,-85.93 433.75,-85.04"/>
<polygon fill="midnightblue" stroke="midnightblue" points="435.91,-87.8 441.67,-78.91 431.62,-82.26 435.91,-87.8"/>
</g>
<!-- Node4&#45;&gt;Node3 -->
<g id="edge5" class="edge">
<title>Node4&#45;&gt;Node3</title>
<path fill="none" stroke="midnightblue" d="M559.28,-283.77C567.31,-281.02 575.44,-278.01 583,-274.83 616.55,-260.69 653.03,-240.91 678.78,-226.15"/>
<polygon fill="midnightblue" stroke="midnightblue" points="680.86,-229 687.76,-220.96 677.35,-222.94 680.86,-229"/>
</g>
<!-- Node5 -->
<g id="node5" class="node">
<title>Node5</title>
<g id="a_node5"><a xlink:href="enumerations_8cpp.html#abb39d040475b58d11b29c242b33091e1" target="_top" xlink:title="Enumerates the MEMORY OPERATION OF MOB,debug only.">
<polygon fill="white" stroke="black" points="619,-103.33 619,-122.33 809,-122.33 809,-103.33 619,-103.33"/>
<text text-anchor="middle" x="714" y="-110.33" font-family="Helvetica,sans-Serif" font-size="10.00">get_enum_memory_operation_char</text>
</a>
</g>
</g>
<!-- Node4&#45;&gt;Node5 -->
<g id="edge4" class="edge">
<title>Node4&#45;&gt;Node5</title>
<path fill="none" stroke="midnightblue" d="M566.64,-285.97C572.61,-283 578.23,-279.33 583,-274.83 615.51,-244.09 591.74,-216.3 619,-180.83 636.56,-157.97 663.86,-139.42 684.52,-127.51"/>
<polygon fill="midnightblue" stroke="midnightblue" points="686.46,-130.43 693.49,-122.51 683.05,-124.32 686.46,-130.43"/>
</g>
<!-- Node7&#45;&gt;Node3 -->
<g id="edge10" class="edge">
<title>Node7&#45;&gt;Node3</title>
<path fill="none" stroke="midnightblue" d="M566.88,-78.98C572.55,-81.51 578.03,-84.44 583,-87.83 603.89,-102.04 600.97,-114.13 619,-131.83 638.8,-151.25 663.52,-170.55 682.64,-184.57"/>
<polygon fill="midnightblue" stroke="midnightblue" points="680.84,-187.58 691,-190.61 684.95,-181.91 680.84,-187.58"/>
</g>
<!-- Node7&#45;&gt;Node5 -->
<g id="edge8" class="edge">
<title>Node7&#45;&gt;Node5</title>
<path fill="none" stroke="midnightblue" d="M570.9,-78.86C600.56,-85.95 635.46,-94.29 663.25,-100.93"/>
<polygon fill="midnightblue" stroke="midnightblue" points="662.6,-104.38 673.14,-103.3 664.23,-97.57 662.6,-104.38"/>
</g>
<!-- Node8 -->
<g id="node8" class="node">
<title>Node8</title>
<g id="a_node8"><a xlink:href="enumerations_8cpp.html#a4f1219a7c31d137c368e36cea5be9128" target="_top" xlink:title="Enumerates the package state,.">
<polygon fill="white" stroke="black" points="630.5,-13.33 630.5,-32.33 797.5,-32.33 797.5,-13.33 630.5,-13.33"/>
<text text-anchor="middle" x="714" y="-20.33" font-family="Helvetica,sans-Serif" font-size="10.00">get_enum_package_state_char</text>
</a>
</g>
</g>
<!-- Node7&#45;&gt;Node8 -->
<g id="edge9" class="edge">
<title>Node7&#45;&gt;Node8</title>
<path fill="none" stroke="midnightblue" d="M583.17,-48.79C606.95,-44.04 632.85,-38.86 655.22,-34.38"/>
<polygon fill="midnightblue" stroke="midnightblue" points="656.11,-37.77 665.23,-32.38 654.74,-30.91 656.11,-37.77"/>
</g>
<!-- Node10 -->
<g id="node10" class="node">
<title>Node10</title>
<g id="a_node10"><a xlink:href="classhive__controller__t.html#a8095d50b2031e0fc20ef02eebb0a24af" target="_top" xlink:title=" ">
<polygon fill="white" stroke="black" points="455,-146.83 455,-176.83 559,-176.83 559,-146.83 455,-146.83"/>
<text text-anchor="start" x="463" y="-164.83" font-family="Helvetica,sans-Serif" font-size="10.00">hive_controller_t::</text>
<text text-anchor="middle" x="507" y="-153.83" font-family="Helvetica,sans-Serif" font-size="10.00">check_transmit</text>
</a>
</g>
</g>
<!-- Node9&#45;&gt;Node10 -->
<g id="edge12" class="edge">
<title>Node9&#45;&gt;Node10</title>
<path fill="none" stroke="midnightblue" d="M244.34,-207.81C299.23,-198.16 386.24,-182.87 444.69,-172.6"/>
<polygon fill="midnightblue" stroke="midnightblue" points="445.65,-175.98 454.9,-170.81 444.44,-169.09 445.65,-175.98"/>
</g>
<!-- Node11 -->
<g id="node11" class="node">
<title>Node11</title>
<g id="a_node11"><a xlink:href="classhive__controller__t.html#a4da4a2eac19b19c65a6936cfa0008087" target="_top" xlink:title=" ">
<polygon fill="white" stroke="black" points="285.5,-97.83 285.5,-127.83 389.5,-127.83 389.5,-97.83 285.5,-97.83"/>
<text text-anchor="start" x="293.5" y="-115.83" font-family="Helvetica,sans-Serif" font-size="10.00">hive_controller_t::</text>
<text text-anchor="middle" x="337.5" y="-104.83" font-family="Helvetica,sans-Serif" font-size="10.00">check_wait</text>
</a>
</g>
</g>
<!-- Node9&#45;&gt;Node11 -->
<g id="edge15" class="edge">
<title>Node9&#45;&gt;Node11</title>
<path fill="none" stroke="midnightblue" d="M213.87,-201.7C238.52,-183.84 279.69,-154 307.46,-133.88"/>
<polygon fill="midnightblue" stroke="midnightblue" points="309.57,-136.67 315.61,-127.97 305.46,-131 309.57,-136.67"/>
</g>
<!-- Node13 -->
<g id="node13" class="node">
<title>Node13</title>
<g id="a_node13"><a xlink:href="classhive__controller__t.html#a30fafb16c33a00e44c32427bc4f8c542" target="_top" xlink:title=" ">
<polygon fill="white" stroke="black" points="285.5,-212.83 285.5,-242.83 389.5,-242.83 389.5,-212.83 285.5,-212.83"/>
<text text-anchor="start" x="293.5" y="-230.83" font-family="Helvetica,sans-Serif" font-size="10.00">hive_controller_t::</text>
<text text-anchor="middle" x="337.5" y="-219.83" font-family="Helvetica,sans-Serif" font-size="10.00">hive_dispatch</text>
</a>
</g>
</g>
<!-- Node9&#45;&gt;Node13 -->
<g id="edge22" class="edge">
<title>Node9&#45;&gt;Node13</title>
<path fill="none" stroke="midnightblue" d="M244.4,-220.77C254.41,-221.53 265,-222.35 275.3,-223.14"/>
<polygon fill="midnightblue" stroke="midnightblue" points="275.22,-226.64 285.46,-223.91 275.75,-219.66 275.22,-226.64"/>
</g>
<!-- Node10&#45;&gt;Node3 -->
<g id="edge14" class="edge">
<title>Node10&#45;&gt;Node3</title>
<path fill="none" stroke="midnightblue" d="M559.2,-172.82C586.89,-178.76 621.31,-186.15 650.56,-192.42"/>
<polygon fill="midnightblue" stroke="midnightblue" points="650.16,-195.92 660.67,-194.59 651.63,-189.07 650.16,-195.92"/>
</g>
<!-- Node10&#45;&gt;Node5 -->
<g id="edge13" class="edge">
<title>Node10&#45;&gt;Node5</title>
<path fill="none" stroke="midnightblue" d="M559.2,-149.59C590.98,-141.99 631.63,-132.28 663.16,-124.74"/>
<polygon fill="midnightblue" stroke="midnightblue" points="664.14,-128.1 673.05,-122.38 662.51,-121.3 664.14,-128.1"/>
</g>
<!-- Node11&#45;&gt;Node3 -->
<g id="edge18" class="edge">
<title>Node11&#45;&gt;Node3</title>
<path fill="none" stroke="midnightblue" d="M352.12,-128.06C368.77,-145.53 398.76,-173.34 431,-185.83 502.57,-213.54 591.91,-214.86 650.62,-211.69"/>
<polygon fill="midnightblue" stroke="midnightblue" points="651.08,-215.17 660.85,-211.08 650.66,-208.18 651.08,-215.17"/>
</g>
<!-- Node11&#45;&gt;Node5 -->
<g id="edge16" class="edge">
<title>Node11&#45;&gt;Node5</title>
<path fill="none" stroke="midnightblue" d="M351.35,-97.62C367.69,-79.57 397.82,-50.47 431,-38.83 494.75,-16.47 517.69,-21.54 583,-38.83 625.48,-50.07 668.6,-78.78 692.96,-96.96"/>
<polygon fill="midnightblue" stroke="midnightblue" points="690.97,-99.84 701.04,-103.12 695.22,-94.28 690.97,-99.84"/>
</g>
<!-- Node11&#45;&gt;Node8 -->
<g id="edge17" class="edge">
<title>Node11&#45;&gt;Node8</title>
<path fill="none" stroke="midnightblue" d="M347.91,-97.79C362.55,-75.98 393.1,-36.46 431,-20.83 507.42,10.71 605.72,-0.23 663.79,-11.33"/>
<polygon fill="midnightblue" stroke="midnightblue" points="663.31,-14.8 673.8,-13.32 664.67,-7.94 663.31,-14.8"/>
</g>
<!-- Node12 -->
<g id="node12" class="node">
<title>Node12</title>
<g id="a_node12"><a xlink:href="classhive__controller__t.html#a8b7b32733e7a463f9691639e07502313" target="_top" xlink:title=" ">
<polygon fill="white" stroke="black" points="455,-97.83 455,-127.83 559,-127.83 559,-97.83 455,-97.83"/>
<text text-anchor="start" x="463" y="-115.83" font-family="Helvetica,sans-Serif" font-size="10.00">hive_controller_t::</text>
<text text-anchor="middle" x="507" y="-104.83" font-family="Helvetica,sans-Serif" font-size="10.00">instruction_ready</text>
</a>
</g>
</g>
<!-- Node11&#45;&gt;Node12 -->
<g id="edge19" class="edge">
<title>Node11&#45;&gt;Node12</title>
<path fill="none" stroke="midnightblue" d="M389.67,-112.83C407.04,-112.83 426.63,-112.83 444.71,-112.83"/>
<polygon fill="midnightblue" stroke="midnightblue" points="444.86,-116.33 454.86,-112.83 444.86,-109.33 444.86,-116.33"/>
</g>
<!-- Node12&#45;&gt;Node3 -->
<g id="edge21" class="edge">
<title>Node12&#45;&gt;Node3</title>
<path fill="none" stroke="midnightblue" d="M559.28,-127.89C567.31,-130.63 575.44,-133.64 583,-136.83 616.55,-150.97 653.03,-170.74 678.78,-185.5"/>
<polygon fill="midnightblue" stroke="midnightblue" points="677.35,-188.72 687.76,-190.69 680.86,-182.66 677.35,-188.72"/>
</g>
<!-- Node12&#45;&gt;Node5 -->
<g id="edge20" class="edge">
<title>Node12&#45;&gt;Node5</title>
<path fill="none" stroke="midnightblue" d="M559.2,-112.83C574.37,-112.83 591.56,-112.83 608.81,-112.83"/>
<polygon fill="midnightblue" stroke="midnightblue" points="608.96,-116.33 618.96,-112.83 608.96,-109.33 608.96,-116.33"/>
</g>
<!-- Node14 -->
<g id="node14" class="node">
<title>Node14</title>
<g id="a_node14"><a xlink:href="classhive__controller__t.html#a91496fe8178df85c1a83b62cd1e63150" target="_top" xlink:title=" ">
<polygon fill="white" stroke="black" points="455,-234.83 455,-264.83 559,-264.83 559,-234.83 455,-234.83"/>
<text text-anchor="start" x="463" y="-252.83" font-family="Helvetica,sans-Serif" font-size="10.00">hive_controller_t::</text>
<text text-anchor="middle" x="507" y="-241.83" font-family="Helvetica,sans-Serif" font-size="10.00">set_sub_requests</text>
</a>
</g>
</g>
<!-- Node13&#45;&gt;Node14 -->
<g id="edge23" class="edge">
<title>Node13&#45;&gt;Node14</title>
<path fill="none" stroke="midnightblue" d="M389.67,-234.55C407.04,-236.83 426.63,-239.4 444.71,-241.78"/>
<polygon fill="midnightblue" stroke="midnightblue" points="444.49,-245.28 454.86,-243.11 445.4,-238.34 444.49,-245.28"/>
</g>
<!-- Node14&#45;&gt;Node3 -->
<g id="edge24" class="edge">
<title>Node14&#45;&gt;Node3</title>
<path fill="none" stroke="midnightblue" d="M559.2,-238.84C586.89,-232.89 621.31,-225.51 650.56,-219.23"/>
<polygon fill="midnightblue" stroke="midnightblue" points="651.63,-222.58 660.67,-217.06 650.16,-215.74 651.63,-222.58"/>
</g>
</g>
</svg>
