<?xml version="1.0" encoding="UTF-8" standalone="no"?>
<!DOCTYPE svg PUBLIC "-//W3C//DTD SVG 1.1//EN"
 "http://www.w3.org/Graphics/SVG/1.1/DTD/svg11.dtd">
<!-- Generated by graphviz version 2.43.0 (0)
 -->
<!-- Title: branch_predictor_t Pages: 1 -->
<svg width="184pt" height="162pt"
 viewBox="0.00 0.00 183.50 162.00" xmlns="http://www.w3.org/2000/svg" xmlns:xlink="http://www.w3.org/1999/xlink">
<g id="graph0" class="graph" transform="scale(1 1) rotate(0) translate(4 158)">
<title>branch_predictor_t</title>
<polygon fill="white" stroke="transparent" points="-4,4 -4,-158 179.5,-158 179.5,4 -4,4"/>
<!-- Node1 -->
<g id="node1" class="node">
<title>Node1</title>
<g id="a_node1"><a xlink:title=" ">
<polygon fill="#bfbfbf" stroke="black" points="30,-0.5 30,-19.5 137,-19.5 137,-0.5 30,-0.5"/>
<text text-anchor="middle" x="83.5" y="-7.5" font-family="Helvetica,sans-Serif" font-size="10.00">branch_predictor_t</text>
</a>
</g>
</g>
<!-- Node2 -->
<g id="node2" class="node">
<title>Node2</title>
<g id="a_node2"><a xlink:href="classbtb__t.html" target="_top" xlink:title=" ">
<polygon fill="white" stroke="black" points="12,-67.5 12,-86.5 53,-86.5 53,-67.5 12,-67.5"/>
<text text-anchor="middle" x="32.5" y="-74.5" font-family="Helvetica,sans-Serif" font-size="10.00">btb_t</text>
</a>
</g>
</g>
<!-- Node2&#45;&gt;Node1 -->
<g id="edge1" class="edge">
<title>Node2&#45;&gt;Node1</title>
<path fill="none" stroke="#9a32cd" stroke-dasharray="5,2" d="M45.63,-59.27C55.57,-46.6 68.83,-29.7 76.73,-19.63"/>
<polygon fill="#9a32cd" stroke="#9a32cd" points="42.8,-57.21 39.38,-67.23 48.3,-61.53 42.8,-57.21"/>
<text text-anchor="middle" x="71" y="-41" font-family="Helvetica,sans-Serif" font-size="10.00"> btb</text>
</g>
<!-- Node3 -->
<g id="node3" class="node">
<title>Node3</title>
<g id="a_node3"><a xlink:href="classbtb__line__t.html" target="_top" xlink:title=" ">
<polygon fill="white" stroke="black" points="0,-134.5 0,-153.5 65,-153.5 65,-134.5 0,-134.5"/>
<text text-anchor="middle" x="32.5" y="-141.5" font-family="Helvetica,sans-Serif" font-size="10.00">btb_line_t</text>
</a>
</g>
</g>
<!-- Node3&#45;&gt;Node2 -->
<g id="edge2" class="edge">
<title>Node3&#45;&gt;Node2</title>
<path fill="none" stroke="#9a32cd" stroke-dasharray="5,2" d="M32.5,-124.04C32.5,-111.67 32.5,-96.12 32.5,-86.63"/>
<polygon fill="#9a32cd" stroke="#9a32cd" points="29,-124.23 32.5,-134.23 36,-124.23 29,-124.23"/>
<text text-anchor="middle" x="57.5" y="-108" font-family="Helvetica,sans-Serif" font-size="10.00"> btb_entry</text>
</g>
<!-- Node4 -->
<g id="node4" class="node">
<title>Node4</title>
<g id="a_node4"><a xlink:href="classpredictor__t.html" target="_top" xlink:title=" ">
<polygon fill="white" stroke="black" points="71,-67.5 71,-86.5 140,-86.5 140,-67.5 71,-67.5"/>
<text text-anchor="middle" x="105.5" y="-74.5" font-family="Helvetica,sans-Serif" font-size="10.00">predictor_t</text>
</a>
</g>
</g>
<!-- Node4&#45;&gt;Node1 -->
<g id="edge3" class="edge">
<title>Node4&#45;&gt;Node1</title>
<path fill="none" stroke="#9a32cd" stroke-dasharray="5,2" d="M99.21,-57.41C95,-44.99 89.67,-29.22 86.42,-19.63"/>
<polygon fill="#9a32cd" stroke="#9a32cd" points="96.01,-58.88 102.53,-67.23 102.64,-56.64 96.01,-58.88"/>
<text text-anchor="middle" x="135.5" y="-41" font-family="Helvetica,sans-Serif" font-size="10.00"> branchPredictor</text>
</g>
</g>
</svg>
