<?xml version="1.0" encoding="UTF-8" standalone="no"?>
<!DOCTYPE svg PUBLIC "-//W3C//DTD SVG 1.1//EN"
 "http://www.w3.org/Graphics/SVG/1.1/DTD/svg11.dtd">
<!-- Generated by graphviz version 2.43.0 (0)
 -->
<!-- Title: processor_t::mob_vima Pages: 1 -->
<svg width="753pt" height="223pt"
 viewBox="0.00 0.00 753.00 222.50" xmlns="http://www.w3.org/2000/svg" xmlns:xlink="http://www.w3.org/1999/xlink">
<g id="graph0" class="graph" transform="scale(1 1) rotate(0) translate(4 218.5)">
<title>processor_t::mob_vima</title>
<polygon fill="white" stroke="transparent" points="-4,4 -4,-218.5 749,-218.5 749,4 -4,4"/>
<!-- Node1 -->
<g id="node1" class="node">
<title>Node1</title>
<g id="a_node1"><a xlink:title=" ">
<polygon fill="#bfbfbf" stroke="black" points="0,-107.5 0,-126.5 131,-126.5 131,-107.5 0,-107.5"/>
<text text-anchor="middle" x="65.5" y="-114.5" font-family="Helvetica,sans-Serif" font-size="10.00">processor_t::mob_vima</text>
</a>
</g>
</g>
<!-- Node2 -->
<g id="node2" class="node">
<title>Node2</title>
<g id="a_node2"><a xlink:href="classcache__manager__t.html#a9abccd4bc20a33397cc207c091ffc0bc" target="_top" xlink:title=" ">
<polygon fill="white" stroke="black" points="172,-186.5 172,-205.5 326,-205.5 326,-186.5 172,-186.5"/>
<text text-anchor="middle" x="249" y="-193.5" font-family="Helvetica,sans-Serif" font-size="10.00">cache_manager_t::available</text>
</a>
</g>
</g>
<!-- Node1&#45;&gt;Node2 -->
<g id="edge1" class="edge">
<title>Node1&#45;&gt;Node2</title>
<path fill="none" stroke="midnightblue" d="M83.18,-126.66C102.82,-137.78 136.6,-156.16 167,-169 179.39,-174.23 193.17,-179.15 205.81,-183.31"/>
<polygon fill="midnightblue" stroke="midnightblue" points="205.05,-186.75 215.64,-186.49 207.2,-180.09 205.05,-186.75"/>
</g>
<!-- Node4 -->
<g id="node4" class="node">
<title>Node4</title>
<g id="a_node4"><a xlink:href="enumerations_8cpp.html#abb39d040475b58d11b29c242b33091e1" target="_top" xlink:title="Enumerates the MEMORY OPERATION OF MOB,debug only.">
<polygon fill="white" stroke="black" points="555,-38.5 555,-57.5 745,-57.5 745,-38.5 555,-38.5"/>
<text text-anchor="middle" x="650" y="-45.5" font-family="Helvetica,sans-Serif" font-size="10.00">get_enum_memory_operation_char</text>
</a>
</g>
</g>
<!-- Node1&#45;&gt;Node4 -->
<g id="edge3" class="edge">
<title>Node1&#45;&gt;Node4</title>
<path fill="none" stroke="midnightblue" d="M128.44,-126.51C216.72,-137.95 383.11,-151.6 519,-117 560.46,-106.44 603.3,-80.18 627.98,-63.27"/>
<polygon fill="midnightblue" stroke="midnightblue" points="630.02,-66.11 636.21,-57.51 626.01,-60.37 630.02,-66.11"/>
</g>
<!-- Node5 -->
<g id="node5" class="node">
<title>Node5</title>
<g id="a_node5"><a xlink:href="classorcs__engine__t.html#a1c033e3455736ba89052a40c69ebe0af" target="_top" xlink:title=" ">
<polygon fill="white" stroke="black" points="390,-77 390,-107 496,-107 496,-77 390,-77"/>
<text text-anchor="start" x="398" y="-95" font-family="Helvetica,sans-Serif" font-size="10.00">orcs_engine_t::get</text>
<text text-anchor="middle" x="443" y="-84" font-family="Helvetica,sans-Serif" font-size="10.00">_global_cycle</text>
</a>
</g>
</g>
<!-- Node1&#45;&gt;Node5 -->
<g id="edge4" class="edge">
<title>Node1&#45;&gt;Node5</title>
<path fill="none" stroke="midnightblue" d="M131.05,-112.7C200.66,-108.07 310.72,-100.74 379.51,-96.16"/>
<polygon fill="midnightblue" stroke="midnightblue" points="380.03,-99.63 389.77,-95.48 379.56,-92.65 380.03,-99.63"/>
</g>
<!-- Node6 -->
<g id="node6" class="node">
<title>Node6</title>
<g id="a_node6"><a xlink:href="classprocessor__t.html#a0422722ba4c1612e1feb628fbab9b9dd" target="_top" xlink:title=" ">
<polygon fill="white" stroke="black" points="188,-58 188,-88 310,-88 310,-58 188,-58"/>
<text text-anchor="start" x="196" y="-76" font-family="Helvetica,sans-Serif" font-size="10.00">processor_t::get_next</text>
<text text-anchor="middle" x="249" y="-65" font-family="Helvetica,sans-Serif" font-size="10.00">_op_vima</text>
</a>
</g>
</g>
<!-- Node1&#45;&gt;Node6 -->
<g id="edge5" class="edge">
<title>Node1&#45;&gt;Node6</title>
<path fill="none" stroke="midnightblue" d="M105.88,-107.45C126.96,-102.34 153.55,-95.9 178.01,-89.97"/>
<polygon fill="midnightblue" stroke="midnightblue" points="179.08,-93.31 187.98,-87.55 177.43,-86.51 179.08,-93.31"/>
</g>
<!-- Node7 -->
<g id="node7" class="node">
<title>Node7</title>
<g id="a_node7"><a xlink:href="classcache__manager__t.html#a0e4328a6d039b46fedab6919517db075" target="_top" xlink:title=" ">
<polygon fill="white" stroke="black" points="167,-19.5 167,-38.5 331,-38.5 331,-19.5 167,-19.5"/>
<text text-anchor="middle" x="249" y="-26.5" font-family="Helvetica,sans-Serif" font-size="10.00">cache_manager_t::searchData</text>
</a>
</g>
</g>
<!-- Node1&#45;&gt;Node7 -->
<g id="edge7" class="edge">
<title>Node1&#45;&gt;Node7</title>
<path fill="none" stroke="midnightblue" d="M77.76,-107.39C95.55,-92.68 131.77,-64.67 167,-49 173.55,-46.09 180.6,-43.55 187.7,-41.36"/>
<polygon fill="midnightblue" stroke="midnightblue" points="188.74,-44.7 197.39,-38.58 186.81,-37.97 188.74,-44.7"/>
</g>
<!-- Node3 -->
<g id="node3" class="node">
<title>Node3</title>
<g id="a_node3"><a xlink:href="classcache__manager__t.html#a1d0eab3491ced37cfc80481d8e71274f" target="_top" xlink:title=" ">
<polygon fill="white" stroke="black" points="367,-184 367,-214 519,-214 519,-184 367,-184"/>
<text text-anchor="start" x="375" y="-202" font-family="Helvetica,sans-Serif" font-size="10.00">cache_manager_t::generate</text>
<text text-anchor="middle" x="443" y="-191" font-family="Helvetica,sans-Serif" font-size="10.00">IndexArray</text>
</a>
</g>
</g>
<!-- Node2&#45;&gt;Node3 -->
<g id="edge2" class="edge">
<title>Node2&#45;&gt;Node3</title>
<path fill="none" stroke="midnightblue" d="M326.16,-197.19C336.21,-197.35 346.56,-197.51 356.76,-197.67"/>
<polygon fill="midnightblue" stroke="midnightblue" points="356.82,-201.17 366.87,-197.83 356.93,-194.17 356.82,-201.17"/>
</g>
<!-- Node6&#45;&gt;Node5 -->
<g id="edge6" class="edge">
<title>Node6&#45;&gt;Node5</title>
<path fill="none" stroke="midnightblue" d="M310.22,-78.96C332.35,-81.15 357.43,-83.63 379.73,-85.84"/>
<polygon fill="midnightblue" stroke="midnightblue" points="379.47,-89.33 389.77,-86.83 380.16,-82.36 379.47,-89.33"/>
</g>
<!-- Node7&#45;&gt;Node4 -->
<g id="edge8" class="edge">
<title>Node7&#45;&gt;Node4</title>
<path fill="none" stroke="midnightblue" d="M331.22,-32.87C392.88,-35.8 478.13,-39.86 544.82,-43.04"/>
<polygon fill="midnightblue" stroke="midnightblue" points="544.78,-46.54 554.93,-43.52 545.11,-39.55 544.78,-46.54"/>
</g>
<!-- Node7&#45;&gt;Node5 -->
<g id="edge9" class="edge">
<title>Node7&#45;&gt;Node5</title>
<path fill="none" stroke="midnightblue" d="M293.16,-38.58C305.48,-41.6 318.84,-45.16 331,-49 343.48,-52.94 370.79,-63.51 395.2,-73.19"/>
<polygon fill="midnightblue" stroke="midnightblue" points="394.14,-76.53 404.72,-76.97 396.72,-70.03 394.14,-76.53"/>
</g>
<!-- Node8 -->
<g id="node8" class="node">
<title>Node8</title>
<g id="a_node8"><a xlink:href="classcache__manager__t.html#a0a94cd6337296baa14acfe4c640ce821" target="_top" xlink:title=" ">
<polygon fill="white" stroke="black" points="380,-0.5 380,-19.5 506,-19.5 506,-0.5 380,-0.5"/>
<text text-anchor="middle" x="443" y="-7.5" font-family="Helvetica,sans-Serif" font-size="10.00">cache_manager_t::isIn</text>
</a>
</g>
</g>
<!-- Node7&#45;&gt;Node8 -->
<g id="edge10" class="edge">
<title>Node7&#45;&gt;Node8</title>
<path fill="none" stroke="midnightblue" d="M331.15,-20.97C343.99,-19.7 357.19,-18.39 369.81,-17.14"/>
<polygon fill="midnightblue" stroke="midnightblue" points="370.18,-20.62 379.78,-16.16 369.49,-13.66 370.18,-20.62"/>
</g>
<!-- Node8&#45;&gt;Node4 -->
<g id="edge11" class="edge">
<title>Node8&#45;&gt;Node4</title>
<path fill="none" stroke="midnightblue" d="M495.47,-19.54C523.37,-24.71 558.05,-31.14 587.38,-36.58"/>
<polygon fill="midnightblue" stroke="midnightblue" points="587.04,-40.07 597.51,-38.46 588.32,-33.19 587.04,-40.07"/>
</g>
</g>
</svg>
