<?xml version="1.0" encoding="UTF-8" standalone="no"?>
<!DOCTYPE svg PUBLIC "-//W3C//DTD SVG 1.1//EN"
 "http://www.w3.org/Graphics/SVG/1.1/DTD/svg11.dtd">
<!-- Generated by graphviz version 2.43.0 (0)
 -->
<!-- Title: disambiguation_hashed_t Pages: 1 -->
<svg width="517pt" height="185pt"
 viewBox="0.00 0.00 516.50 185.00" xmlns="http://www.w3.org/2000/svg" xmlns:xlink="http://www.w3.org/1999/xlink">
<g id="graph0" class="graph" transform="scale(1 1) rotate(0) translate(4 181)">
<title>disambiguation_hashed_t</title>
<polygon fill="white" stroke="transparent" points="-4,4 -4,-181 512.5,-181 512.5,4 -4,4"/>
<!-- Node1 -->
<g id="node1" class="node">
<title>Node1</title>
<g id="a_node1"><a xlink:title=" ">
<polygon fill="#bfbfbf" stroke="black" points="0,-0.5 0,-19.5 142,-19.5 142,-0.5 0,-0.5"/>
<text text-anchor="middle" x="71" y="-7.5" font-family="Helvetica,sans-Serif" font-size="10.00">disambiguation_hashed_t</text>
</a>
</g>
</g>
<!-- Node2 -->
<g id="node2" class="node">
<title>Node2</title>
<g id="a_node2"><a xlink:href="classdesambiguation__t.html" target="_top" xlink:title=" ">
<polygon fill="white" stroke="black" points="2,-95 2,-114 106,-114 106,-95 2,-95"/>
<text text-anchor="middle" x="54" y="-102" font-family="Helvetica,sans-Serif" font-size="10.00">desambiguation_t</text>
</a>
</g>
</g>
<!-- Node2&#45;&gt;Node1 -->
<g id="edge1" class="edge">
<title>Node2&#45;&gt;Node1</title>
<path fill="none" stroke="midnightblue" d="M57.41,-84.94C61.07,-65.04 66.72,-34.3 69.43,-19.52"/>
<polygon fill="midnightblue" stroke="midnightblue" points="53.93,-84.5 55.57,-94.96 60.82,-85.76 53.93,-84.5"/>
</g>
<!-- Node3 -->
<g id="node3" class="node">
<title>Node3</title>
<g id="a_node3"><a xlink:href="classmemory__order__buffer__line__t.html" target="_top" xlink:title=" ">
<polygon fill="white" stroke="black" points="154,-89.5 154,-119.5 276,-119.5 276,-89.5 154,-89.5"/>
<text text-anchor="start" x="162" y="-107.5" font-family="Helvetica,sans-Serif" font-size="10.00">memory_order_buffer</text>
<text text-anchor="middle" x="215" y="-96.5" font-family="Helvetica,sans-Serif" font-size="10.00">_line_t</text>
</a>
</g>
</g>
<!-- Node3&#45;&gt;Node1 -->
<g id="edge2" class="edge">
<title>Node3&#45;&gt;Node1</title>
<path fill="none" stroke="#9a32cd" stroke-dasharray="5,2" d="M143.85,-98.56C123.59,-93.91 102.99,-85.61 88,-71 73.89,-57.25 71.25,-32.72 70.9,-19.69"/>
<polygon fill="#9a32cd" stroke="#9a32cd" points="143.24,-102.01 153.74,-100.56 144.63,-95.15 143.24,-102.01"/>
<text text-anchor="start" x="88" y="-63" font-family="Helvetica,sans-Serif" font-size="10.00"> disambiguation_load</text>
<text text-anchor="middle" x="155.5" y="-52" font-family="Helvetica,sans-Serif" font-size="10.00">_hash</text>
<text text-anchor="middle" x="155.5" y="-41" font-family="Helvetica,sans-Serif" font-size="10.00">disambiguation_store_hash</text>
</g>
<!-- Node3&#45;&gt;Node3 -->
<g id="edge8" class="edge">
<title>Node3&#45;&gt;Node3</title>
<path fill="none" stroke="#9a32cd" stroke-dasharray="5,2" d="M286.49,-109.04C291.17,-107.99 294,-106.47 294,-104.5 294,-101.35 286.75,-99.36 276.28,-98.55"/>
<polygon fill="#9a32cd" stroke="#9a32cd" points="285.71,-105.62 276.28,-110.45 286.66,-112.55 285.71,-105.62"/>
<text text-anchor="middle" x="347.5" y="-102" font-family="Helvetica,sans-Serif" font-size="10.00"> mem_deps_ptr_array</text>
</g>
<!-- Node5 -->
<g id="node5" class="node">
<title>Node5</title>
<g id="a_node5"><a xlink:href="classreorder__buffer__line__t.html" target="_top" xlink:title=" ">
<polygon fill="white" stroke="black" points="253,-0.5 253,-19.5 371,-19.5 371,-0.5 253,-0.5"/>
<text text-anchor="middle" x="312" y="-7.5" font-family="Helvetica,sans-Serif" font-size="10.00">reorder_buffer_line_t</text>
</a>
</g>
</g>
<!-- Node3&#45;&gt;Node5 -->
<g id="edge7" class="edge">
<title>Node3&#45;&gt;Node5</title>
<path fill="none" stroke="#9a32cd" stroke-dasharray="5,2" d="M222.69,-79.42C228.23,-63.34 235.79,-44.07 242,-38 250.66,-29.53 262.27,-23.65 273.54,-19.6"/>
<polygon fill="#9a32cd" stroke="#9a32cd" points="219.21,-78.77 219.37,-89.36 225.86,-80.98 219.21,-78.77"/>
<text text-anchor="middle" x="264" y="-52" font-family="Helvetica,sans-Serif" font-size="10.00"> mob_ptr</text>
</g>
<!-- Node4 -->
<g id="node4" class="node">
<title>Node4</title>
<g id="a_node4"><a xlink:href="classmemory__request__client__t.html" target="_top" xlink:title=" ">
<polygon fill="white" stroke="black" points="144.5,-157.5 144.5,-176.5 285.5,-176.5 285.5,-157.5 144.5,-157.5"/>
<text text-anchor="middle" x="215" y="-164.5" font-family="Helvetica,sans-Serif" font-size="10.00">memory_request_client_t</text>
</a>
</g>
</g>
<!-- Node4&#45;&gt;Node3 -->
<g id="edge3" class="edge">
<title>Node4&#45;&gt;Node3</title>
<path fill="none" stroke="midnightblue" d="M215,-147.22C215,-138.36 215,-127.96 215,-119.76"/>
<polygon fill="midnightblue" stroke="midnightblue" points="211.5,-147.33 215,-157.33 218.5,-147.33 211.5,-147.33"/>
</g>
<!-- Node5&#45;&gt;Node3 -->
<g id="edge4" class="edge">
<title>Node5&#45;&gt;Node3</title>
<path fill="none" stroke="#9a32cd" stroke-dasharray="5,2" d="M309.06,-30.05C306.18,-43.01 300.6,-59.77 290,-71 282.69,-78.74 273.23,-84.73 263.5,-89.34"/>
<polygon fill="#9a32cd" stroke="#9a32cd" points="312.57,-30.36 310.96,-19.88 305.68,-29.07 312.57,-30.36"/>
<text text-anchor="middle" x="326" y="-52" font-family="Helvetica,sans-Serif" font-size="10.00"> rob_ptr</text>
</g>
<!-- Node5&#45;&gt;Node5 -->
<g id="edge6" class="edge">
<title>Node5&#45;&gt;Node5</title>
<path fill="none" stroke="#9a32cd" stroke-dasharray="5,2" d="M381.03,-16.07C385.98,-14.69 389,-12.67 389,-10 389,-5.83 381.63,-3.24 371.08,-2.23"/>
<polygon fill="#9a32cd" stroke="#9a32cd" points="380.35,-12.63 371.08,-17.77 381.53,-19.53 380.35,-12.63"/>
<text text-anchor="middle" x="437.5" y="-7.5" font-family="Helvetica,sans-Serif" font-size="10.00"> reg_deps_ptr_array</text>
</g>
<!-- Node6 -->
<g id="node6" class="node">
<title>Node6</title>
<g id="a_node6"><a xlink:href="classuop__package__t.html" target="_top" xlink:title=" ">
<polygon fill="white" stroke="black" points="419.5,-95 419.5,-114 508.5,-114 508.5,-95 419.5,-95"/>
<text text-anchor="middle" x="464" y="-102" font-family="Helvetica,sans-Serif" font-size="10.00">uop_package_t</text>
</a>
</g>
</g>
<!-- Node6&#45;&gt;Node5 -->
<g id="edge5" class="edge">
<title>Node6&#45;&gt;Node5</title>
<path fill="none" stroke="#9a32cd" stroke-dasharray="5,2" d="M441.32,-89.7C409.44,-70.3 352.32,-35.54 325.99,-19.52"/>
<polygon fill="#9a32cd" stroke="#9a32cd" points="439.61,-92.75 449.97,-94.96 443.25,-86.78 439.61,-92.75"/>
<text text-anchor="middle" x="421" y="-52" font-family="Helvetica,sans-Serif" font-size="10.00"> uop</text>
</g>
</g>
</svg>
