<?xml version="1.0" encoding="UTF-8" standalone="no"?>
<!DOCTYPE svg PUBLIC "-//W3C//DTD SVG 1.1//EN"
 "http://www.w3.org/Graphics/SVG/1.1/DTD/svg11.dtd">
<!-- Generated by graphviz version 2.43.0 (0)
 -->
<!-- Title: vima_controller_t::check_cache Pages: 1 -->
<svg width="404pt" height="137pt"
 viewBox="0.00 0.00 404.00 137.00" xmlns="http://www.w3.org/2000/svg" xmlns:xlink="http://www.w3.org/1999/xlink">
<g id="graph0" class="graph" transform="scale(1 1) rotate(0) translate(4 133)">
<title>vima_controller_t::check_cache</title>
<polygon fill="white" stroke="transparent" points="-4,4 -4,-133 400,-133 400,4 -4,4"/>
<!-- Node1 -->
<g id="node1" class="node">
<title>Node1</title>
<g id="a_node1"><a xlink:title=" ">
<polygon fill="#bfbfbf" stroke="black" points="0,-49.5 0,-79.5 108,-79.5 108,-49.5 0,-49.5"/>
<text text-anchor="start" x="8" y="-67.5" font-family="Helvetica,sans-Serif" font-size="10.00">vima_controller_t::</text>
<text text-anchor="middle" x="54" y="-56.5" font-family="Helvetica,sans-Serif" font-size="10.00">check_cache</text>
</a>
</g>
</g>
<!-- Node2 -->
<g id="node2" class="node">
<title>Node2</title>
<g id="a_node2"><a xlink:href="classorcs__engine__t.html#a1c033e3455736ba89052a40c69ebe0af" target="_top" xlink:title=" ">
<polygon fill="white" stroke="black" points="289,-98.5 289,-128.5 395,-128.5 395,-98.5 289,-98.5"/>
<text text-anchor="start" x="297" y="-116.5" font-family="Helvetica,sans-Serif" font-size="10.00">orcs_engine_t::get</text>
<text text-anchor="middle" x="342" y="-105.5" font-family="Helvetica,sans-Serif" font-size="10.00">_global_cycle</text>
</a>
</g>
</g>
<!-- Node1&#45;&gt;Node2 -->
<g id="edge1" class="edge">
<title>Node1&#45;&gt;Node2</title>
<path fill="none" stroke="midnightblue" d="M103.64,-79.61C116.65,-83.25 130.78,-86.85 144,-89.5 188.66,-98.44 239.72,-104.54 278.67,-108.36"/>
<polygon fill="midnightblue" stroke="midnightblue" points="278.52,-111.86 288.81,-109.33 279.19,-104.89 278.52,-111.86"/>
</g>
<!-- Node3 -->
<g id="node3" class="node">
<title>Node3</title>
<g id="a_node3"><a xlink:href="classvima__controller__t.html#a5204c0e05186f8b07324ce44f7c76b1a" target="_top" xlink:title=" ">
<polygon fill="white" stroke="black" points="288,-0.5 288,-30.5 396,-30.5 396,-0.5 288,-0.5"/>
<text text-anchor="start" x="296" y="-18.5" font-family="Helvetica,sans-Serif" font-size="10.00">vima_controller_t::</text>
<text text-anchor="middle" x="342" y="-7.5" font-family="Helvetica,sans-Serif" font-size="10.00">get_tag</text>
</a>
</g>
</g>
<!-- Node1&#45;&gt;Node3 -->
<g id="edge2" class="edge">
<title>Node1&#45;&gt;Node3</title>
<path fill="none" stroke="midnightblue" d="M103.64,-49.39C116.65,-45.75 130.78,-42.15 144,-39.5 188.35,-30.62 239.01,-24.54 277.86,-20.72"/>
<polygon fill="midnightblue" stroke="midnightblue" points="278.35,-24.19 287.97,-19.75 277.69,-17.22 278.35,-24.19"/>
</g>
<!-- Node4 -->
<g id="node4" class="node">
<title>Node4</title>
<g id="a_node4"><a xlink:href="classvima__controller__t.html#a9571c1c74c26f6b5e2382effa9ce20f4" target="_top" xlink:title=" ">
<polygon fill="white" stroke="black" points="144,-49.5 144,-79.5 252,-79.5 252,-49.5 144,-49.5"/>
<text text-anchor="start" x="152" y="-67.5" font-family="Helvetica,sans-Serif" font-size="10.00">vima_controller_t::</text>
<text text-anchor="middle" x="198" y="-56.5" font-family="Helvetica,sans-Serif" font-size="10.00">search_cache</text>
</a>
</g>
</g>
<!-- Node1&#45;&gt;Node4 -->
<g id="edge3" class="edge">
<title>Node1&#45;&gt;Node4</title>
<path fill="none" stroke="midnightblue" d="M108.28,-64.5C116.56,-64.5 125.18,-64.5 133.66,-64.5"/>
<polygon fill="midnightblue" stroke="midnightblue" points="133.89,-68 143.89,-64.5 133.89,-61 133.89,-68"/>
</g>
<!-- Node4&#45;&gt;Node2 -->
<g id="edge4" class="edge">
<title>Node4&#45;&gt;Node2</title>
<path fill="none" stroke="midnightblue" d="M242.76,-79.6C256.94,-84.49 272.81,-89.97 287.6,-95.07"/>
<polygon fill="midnightblue" stroke="midnightblue" points="286.54,-98.41 297.14,-98.36 288.83,-91.79 286.54,-98.41"/>
</g>
<!-- Node4&#45;&gt;Node3 -->
<g id="edge6" class="edge">
<title>Node4&#45;&gt;Node3</title>
<path fill="none" stroke="midnightblue" d="M242.76,-49.4C256.94,-44.51 272.81,-39.03 287.6,-33.93"/>
<polygon fill="midnightblue" stroke="midnightblue" points="288.83,-37.21 297.14,-30.64 286.54,-30.59 288.83,-37.21"/>
</g>
<!-- Node5 -->
<g id="node5" class="node">
<title>Node5</title>
<g id="a_node5"><a xlink:href="classvima__controller__t.html#a452fd1a40274b4e4123630adbb5c0143" target="_top" xlink:title=" ">
<polygon fill="white" stroke="black" points="288,-49.5 288,-79.5 396,-79.5 396,-49.5 288,-49.5"/>
<text text-anchor="start" x="296" y="-67.5" font-family="Helvetica,sans-Serif" font-size="10.00">vima_controller_t::</text>
<text text-anchor="middle" x="342" y="-56.5" font-family="Helvetica,sans-Serif" font-size="10.00">get_index</text>
</a>
</g>
</g>
<!-- Node4&#45;&gt;Node5 -->
<g id="edge5" class="edge">
<title>Node4&#45;&gt;Node5</title>
<path fill="none" stroke="midnightblue" d="M252.28,-64.5C260.56,-64.5 269.18,-64.5 277.66,-64.5"/>
<polygon fill="midnightblue" stroke="midnightblue" points="277.89,-68 287.89,-64.5 277.89,-61 277.89,-68"/>
</g>
</g>
</svg>
