<?xml version="1.0" encoding="UTF-8" standalone="no"?>
<!DOCTYPE svg PUBLIC "-//W3C//DTD SVG 1.1//EN"
 "http://www.w3.org/Graphics/SVG/1.1/DTD/svg11.dtd">
<!-- Generated by graphviz version 2.43.0 (0)
 -->
<!-- Title: processor_t::rename Pages: 1 -->
<svg width="493pt" height="488pt"
 viewBox="0.00 0.00 493.00 487.50" xmlns="http://www.w3.org/2000/svg" xmlns:xlink="http://www.w3.org/1999/xlink">
<g id="graph0" class="graph" transform="scale(1 1) rotate(0) translate(4 483.5)">
<title>processor_t::rename</title>
<polygon fill="white" stroke="transparent" points="-4,4 -4,-483.5 489,-483.5 489,4 -4,4"/>
<!-- Node1 -->
<g id="node1" class="node">
<title>Node1</title>
<g id="a_node1"><a xlink:title=" ">
<polygon fill="#bfbfbf" stroke="black" points="0,-230.5 0,-249.5 116,-249.5 116,-230.5 0,-230.5"/>
<text text-anchor="middle" x="58" y="-237.5" font-family="Helvetica,sans-Serif" font-size="10.00">processor_t::rename</text>
</a>
</g>
</g>
<!-- Node2 -->
<g id="node2" class="node">
<title>Node2</title>
<g id="a_node2"><a xlink:href="enumerations_8cpp.html#a29b4f0c7eca5c960bab850a56e5e411c" target="_top" xlink:title=" ">
<polygon fill="white" stroke="black" points="186.5,-449 186.5,-479 308.5,-479 308.5,-449 186.5,-449"/>
<text text-anchor="start" x="194.5" y="-467" font-family="Helvetica,sans-Serif" font-size="10.00">get_enum_instruction</text>
<text text-anchor="middle" x="247.5" y="-456" font-family="Helvetica,sans-Serif" font-size="10.00">_operation_char</text>
</a>
</g>
</g>
<!-- Node1&#45;&gt;Node2 -->
<g id="edge1" class="edge">
<title>Node1&#45;&gt;Node2</title>
<path fill="none" stroke="midnightblue" d="M60.55,-249.63C66.25,-281.8 89.09,-386.42 152,-439 159.17,-444.99 167.63,-449.57 176.5,-453.05"/>
<polygon fill="midnightblue" stroke="midnightblue" points="175.63,-456.46 186.23,-456.42 177.92,-449.84 175.63,-456.46"/>
</g>
<!-- Node3 -->
<g id="node3" class="node">
<title>Node3</title>
<g id="a_node3"><a xlink:href="enumerations_8cpp.html#abb39d040475b58d11b29c242b33091e1" target="_top" xlink:title="Enumerates the MEMORY OPERATION OF MOB,debug only.">
<polygon fill="white" stroke="black" points="152.5,-410.5 152.5,-429.5 342.5,-429.5 342.5,-410.5 152.5,-410.5"/>
<text text-anchor="middle" x="247.5" y="-417.5" font-family="Helvetica,sans-Serif" font-size="10.00">get_enum_memory_operation_char</text>
</a>
</g>
</g>
<!-- Node1&#45;&gt;Node3 -->
<g id="edge2" class="edge">
<title>Node1&#45;&gt;Node3</title>
<path fill="none" stroke="midnightblue" d="M61.91,-249.86C70.62,-277.55 99.18,-356.59 152,-396 157.78,-400.31 164.26,-403.86 171.04,-406.77"/>
<polygon fill="midnightblue" stroke="midnightblue" points="169.85,-410.06 180.44,-410.35 172.34,-403.52 169.85,-410.06"/>
</g>
<!-- Node4 -->
<g id="node4" class="node">
<title>Node4</title>
<g id="a_node4"><a xlink:href="classorcs__engine__t.html#a1c033e3455736ba89052a40c69ebe0af" target="_top" xlink:title=" ">
<polygon fill="white" stroke="black" points="379,-181 379,-211 485,-211 485,-181 379,-181"/>
<text text-anchor="start" x="387" y="-199" font-family="Helvetica,sans-Serif" font-size="10.00">orcs_engine_t::get</text>
<text text-anchor="middle" x="432" y="-188" font-family="Helvetica,sans-Serif" font-size="10.00">_global_cycle</text>
</a>
</g>
</g>
<!-- Node1&#45;&gt;Node4 -->
<g id="edge3" class="edge">
<title>Node1&#45;&gt;Node4</title>
<path fill="none" stroke="midnightblue" d="M62.75,-249.79C72.79,-274.39 102.87,-338.55 152,-363 228,-400.82 270.32,-406.86 343,-363 394.55,-331.89 417.43,-259.42 426.25,-220.98"/>
<polygon fill="midnightblue" stroke="midnightblue" points="429.69,-221.61 428.37,-211.1 422.85,-220.14 429.69,-221.61"/>
</g>
<!-- Node5 -->
<g id="node5" class="node">
<title>Node5</title>
<g id="a_node5"><a xlink:href="classdesambiguation__t.html#af16bbbb286f7b409dfa172ecaf50e9fb" target="_top" xlink:title=" ">
<polygon fill="white" stroke="black" points="179,-323 179,-353 316,-353 316,-323 179,-323"/>
<text text-anchor="start" x="187" y="-341" font-family="Helvetica,sans-Serif" font-size="10.00">desambiguation_t::make</text>
<text text-anchor="middle" x="247.5" y="-330" font-family="Helvetica,sans-Serif" font-size="10.00">_memory_dependences</text>
</a>
</g>
</g>
<!-- Node1&#45;&gt;Node5 -->
<g id="edge4" class="edge">
<title>Node1&#45;&gt;Node5</title>
<path fill="none" stroke="midnightblue" d="M68.35,-249.75C84.1,-265.61 117.62,-296.95 152,-314 157.52,-316.74 163.39,-319.18 169.38,-321.37"/>
<polygon fill="midnightblue" stroke="midnightblue" points="168.29,-324.69 178.89,-324.58 170.53,-318.06 168.29,-324.69"/>
</g>
<!-- Node6 -->
<g id="node6" class="node">
<title>Node6</title>
<g id="a_node6"><a xlink:href="classprocessor__t.html#ae7f32faaf24ecd421b145384dc6b4c2f" target="_top" xlink:title=" ">
<polygon fill="white" stroke="black" points="190.5,-274 190.5,-304 304.5,-304 304.5,-274 190.5,-274"/>
<text text-anchor="start" x="198.5" y="-292" font-family="Helvetica,sans-Serif" font-size="10.00">processor_t::search</text>
<text text-anchor="middle" x="247.5" y="-281" font-family="Helvetica,sans-Serif" font-size="10.00">_position_mob_hive</text>
</a>
</g>
</g>
<!-- Node1&#45;&gt;Node6 -->
<g id="edge5" class="edge">
<title>Node1&#45;&gt;Node6</title>
<path fill="none" stroke="midnightblue" d="M94.3,-249.61C111.66,-254.31 132.91,-260.01 152,-265 161.18,-267.4 170.86,-269.9 180.4,-272.34"/>
<polygon fill="midnightblue" stroke="midnightblue" points="179.7,-275.77 190.25,-274.85 181.43,-268.99 179.7,-275.77"/>
</g>
<!-- Node7 -->
<g id="node7" class="node">
<title>Node7</title>
<g id="a_node7"><a xlink:href="classprocessor__t.html#a3553a8460c17a003b3cce78144ed4a7d" target="_top" xlink:title=" ">
<polygon fill="white" stroke="black" points="190,-225 190,-255 305,-255 305,-225 190,-225"/>
<text text-anchor="start" x="198" y="-243" font-family="Helvetica,sans-Serif" font-size="10.00">processor_t::search</text>
<text text-anchor="middle" x="247.5" y="-232" font-family="Helvetica,sans-Serif" font-size="10.00">_position_mob_read</text>
</a>
</g>
</g>
<!-- Node1&#45;&gt;Node7 -->
<g id="edge6" class="edge">
<title>Node1&#45;&gt;Node7</title>
<path fill="none" stroke="midnightblue" d="M116.02,-240C136.11,-240 158.88,-240 179.7,-240"/>
<polygon fill="midnightblue" stroke="midnightblue" points="179.75,-243.5 189.75,-240 179.75,-236.5 179.75,-243.5"/>
</g>
<!-- Node8 -->
<g id="node8" class="node">
<title>Node8</title>
<g id="a_node8"><a xlink:href="classprocessor__t.html#ac4c74ebab487e8bed8213e00a6218357" target="_top" xlink:title=" ">
<polygon fill="white" stroke="black" points="188.5,-176 188.5,-206 306.5,-206 306.5,-176 188.5,-176"/>
<text text-anchor="start" x="196.5" y="-194" font-family="Helvetica,sans-Serif" font-size="10.00">processor_t::search</text>
<text text-anchor="middle" x="247.5" y="-183" font-family="Helvetica,sans-Serif" font-size="10.00">_position_mob_vima</text>
</a>
</g>
</g>
<!-- Node1&#45;&gt;Node8 -->
<g id="edge7" class="edge">
<title>Node1&#45;&gt;Node8</title>
<path fill="none" stroke="midnightblue" d="M95.6,-230.44C119.34,-224.23 150.98,-215.96 179.16,-208.6"/>
<polygon fill="midnightblue" stroke="midnightblue" points="180.17,-211.95 188.96,-206.04 178.4,-205.18 180.17,-211.95"/>
</g>
<!-- Node9 -->
<g id="node9" class="node">
<title>Node9</title>
<g id="a_node9"><a xlink:href="classprocessor__t.html#accd17ac6a9edb994f5570de96001bdad" target="_top" xlink:title=" ">
<polygon fill="white" stroke="black" points="188.5,-127 188.5,-157 306.5,-157 306.5,-127 188.5,-127"/>
<text text-anchor="start" x="196.5" y="-145" font-family="Helvetica,sans-Serif" font-size="10.00">processor_t::search</text>
<text text-anchor="middle" x="247.5" y="-134" font-family="Helvetica,sans-Serif" font-size="10.00">_position_mob_write</text>
</a>
</g>
</g>
<!-- Node1&#45;&gt;Node9 -->
<g id="edge8" class="edge">
<title>Node1&#45;&gt;Node9</title>
<path fill="none" stroke="midnightblue" d="M68.39,-230.43C84.22,-214.84 117.83,-184.02 152,-167 160.26,-162.89 169.26,-159.4 178.33,-156.45"/>
<polygon fill="midnightblue" stroke="midnightblue" points="179.62,-159.71 188.17,-153.45 177.58,-153.02 179.62,-159.71"/>
</g>
<!-- Node10 -->
<g id="node10" class="node">
<title>Node10</title>
<g id="a_node10"><a xlink:href="classprocessor__t.html#ac63fe46557086879ad3b0190cf65c8a0" target="_top" xlink:title=" ">
<polygon fill="white" stroke="black" points="162,-88.5 162,-107.5 333,-107.5 333,-88.5 162,-88.5"/>
<text text-anchor="middle" x="247.5" y="-95.5" font-family="Helvetica,sans-Serif" font-size="10.00">processor_t::searchPositionROB</text>
</a>
</g>
</g>
<!-- Node1&#45;&gt;Node10 -->
<g id="edge9" class="edge">
<title>Node1&#45;&gt;Node10</title>
<path fill="none" stroke="midnightblue" d="M63.43,-230.19C74.6,-206.68 106.31,-146.9 152,-118 156.04,-115.45 160.35,-113.21 164.82,-111.26"/>
<polygon fill="midnightblue" stroke="midnightblue" points="166.13,-114.51 174.19,-107.63 163.6,-107.98 166.13,-114.51"/>
</g>
<!-- Node11 -->
<g id="node11" class="node">
<title>Node11</title>
<g id="a_node11"><a xlink:href="classprocessor__t.html#a889ebb5067c94c1f6c9b6f500ed19635" target="_top" xlink:title=" ">
<polygon fill="white" stroke="black" points="191,-39 191,-69 304,-69 304,-39 191,-39"/>
<text text-anchor="start" x="199" y="-57" font-family="Helvetica,sans-Serif" font-size="10.00">processor_t::update</text>
<text text-anchor="middle" x="247.5" y="-46" font-family="Helvetica,sans-Serif" font-size="10.00">_registers</text>
</a>
</g>
</g>
<!-- Node1&#45;&gt;Node11 -->
<g id="edge10" class="edge">
<title>Node1&#45;&gt;Node11</title>
<path fill="none" stroke="midnightblue" d="M61.71,-230.26C70.07,-202.14 98.15,-120.17 152,-79 160.57,-72.45 170.7,-67.61 181.1,-64.04"/>
<polygon fill="midnightblue" stroke="midnightblue" points="182.15,-67.38 190.69,-61.1 180.1,-60.68 182.15,-67.38"/>
</g>
<!-- Node12 -->
<g id="node12" class="node">
<title>Node12</title>
<g id="a_node12"><a xlink:href="classuop__package__t.html#a5b30b643c82424f1cb1ea9e8d53239ed" target="_top" xlink:title=" ">
<polygon fill="white" stroke="black" points="152,-0.5 152,-19.5 343,-19.5 343,-0.5 152,-0.5"/>
<text text-anchor="middle" x="247.5" y="-7.5" font-family="Helvetica,sans-Serif" font-size="10.00">uop_package_t::updatePackageWait</text>
</a>
</g>
</g>
<!-- Node1&#45;&gt;Node12 -->
<g id="edge11" class="edge">
<title>Node1&#45;&gt;Node12</title>
<path fill="none" stroke="midnightblue" d="M60.2,-230.19C64.88,-196.45 85.1,-84.24 152,-30 154.61,-27.89 157.38,-25.98 160.28,-24.27"/>
<polygon fill="midnightblue" stroke="midnightblue" points="162,-27.32 169.33,-19.67 158.83,-21.08 162,-27.32"/>
</g>
<!-- Node12&#45;&gt;Node4 -->
<g id="edge12" class="edge">
<title>Node12&#45;&gt;Node4</title>
<path fill="none" stroke="midnightblue" d="M324.41,-19.67C331.05,-22.37 337.38,-25.76 343,-30 390.18,-65.56 414.65,-133.9 424.93,-170.83"/>
<polygon fill="midnightblue" stroke="midnightblue" points="421.62,-172.02 427.56,-180.79 428.39,-170.22 421.62,-172.02"/>
</g>
</g>
</svg>
