<?xml version="1.0" encoding="UTF-8" standalone="no"?>
<!DOCTYPE svg PUBLIC "-//W3C//DTD SVG 1.1//EN"
 "http://www.w3.org/Graphics/SVG/1.1/DTD/svg11.dtd">
<!-- Generated by graphviz version 2.43.0 (0)
 -->
<!-- Title: stride_prefetcher_t::verify Pages: 1 -->
<svg width="407pt" height="137pt"
 viewBox="0.00 0.00 407.00 137.00" xmlns="http://www.w3.org/2000/svg" xmlns:xlink="http://www.w3.org/1999/xlink">
<g id="graph0" class="graph" transform="scale(1 1) rotate(0) translate(4 133)">
<title>stride_prefetcher_t::verify</title>
<polygon fill="white" stroke="transparent" points="-4,4 -4,-133 403,-133 403,4 -4,4"/>
<!-- Node1 -->
<g id="node1" class="node">
<title>Node1</title>
<g id="a_node1"><a xlink:title=" ">
<polygon fill="#bfbfbf" stroke="black" points="0,-49.5 0,-79.5 109,-79.5 109,-49.5 0,-49.5"/>
<text text-anchor="start" x="8" y="-67.5" font-family="Helvetica,sans-Serif" font-size="10.00">stride_prefetcher_t</text>
<text text-anchor="middle" x="54.5" y="-56.5" font-family="Helvetica,sans-Serif" font-size="10.00">::verify</text>
</a>
</g>
</g>
<!-- Node2 -->
<g id="node2" class="node">
<title>Node2</title>
<g id="a_node2"><a xlink:href="classstride__prefetcher__t.html#ab5b2566b748e5a816b5f5bfd5be88785" target="_top" xlink:title=" ">
<polygon fill="white" stroke="black" points="145,-0.5 145,-30.5 254,-30.5 254,-0.5 145,-0.5"/>
<text text-anchor="start" x="153" y="-18.5" font-family="Helvetica,sans-Serif" font-size="10.00">stride_prefetcher_t</text>
<text text-anchor="middle" x="199.5" y="-7.5" font-family="Helvetica,sans-Serif" font-size="10.00">::installStride</text>
</a>
</g>
</g>
<!-- Node1&#45;&gt;Node2 -->
<g id="edge1" class="edge">
<title>Node1&#45;&gt;Node2</title>
<path fill="none" stroke="midnightblue" d="M99.57,-49.4C113.84,-44.51 129.83,-39.03 144.73,-33.93"/>
<polygon fill="midnightblue" stroke="midnightblue" points="146,-37.19 154.33,-30.64 143.73,-30.57 146,-37.19"/>
</g>
<!-- Node5 -->
<g id="node5" class="node">
<title>Node5</title>
<g id="a_node5"><a xlink:href="classstride__prefetcher__t.html#a2ffcbaaf9eec71f22ae884c523b735a3" target="_top" xlink:title=" ">
<polygon fill="white" stroke="black" points="145,-98.5 145,-128.5 254,-128.5 254,-98.5 145,-98.5"/>
<text text-anchor="start" x="153" y="-116.5" font-family="Helvetica,sans-Serif" font-size="10.00">stride_prefetcher_t</text>
<text text-anchor="middle" x="199.5" y="-105.5" font-family="Helvetica,sans-Serif" font-size="10.00">::searchPattern</text>
</a>
</g>
</g>
<!-- Node1&#45;&gt;Node5 -->
<g id="edge4" class="edge">
<title>Node1&#45;&gt;Node5</title>
<path fill="none" stroke="midnightblue" d="M99.57,-79.6C113.84,-84.49 129.83,-89.97 144.73,-95.07"/>
<polygon fill="midnightblue" stroke="midnightblue" points="143.73,-98.43 154.33,-98.36 146,-91.81 143.73,-98.43"/>
</g>
<!-- Node6 -->
<g id="node6" class="node">
<title>Node6</title>
<g id="a_node6"><a xlink:href="classstride__prefetcher__t.html#a6db90fcaec3c46afd893661fe2efc8fb" target="_top" xlink:title=" ">
<polygon fill="white" stroke="black" points="145,-49.5 145,-79.5 254,-79.5 254,-49.5 145,-49.5"/>
<text text-anchor="start" x="153" y="-67.5" font-family="Helvetica,sans-Serif" font-size="10.00">stride_prefetcher_t</text>
<text text-anchor="middle" x="199.5" y="-56.5" font-family="Helvetica,sans-Serif" font-size="10.00">::updateStride</text>
</a>
</g>
</g>
<!-- Node1&#45;&gt;Node6 -->
<g id="edge6" class="edge">
<title>Node1&#45;&gt;Node6</title>
<path fill="none" stroke="midnightblue" d="M109.15,-64.5C117.38,-64.5 125.94,-64.5 134.37,-64.5"/>
<polygon fill="midnightblue" stroke="midnightblue" points="134.54,-68 144.54,-64.5 134.54,-61 134.54,-68"/>
</g>
<!-- Node3 -->
<g id="node3" class="node">
<title>Node3</title>
<g id="a_node3"><a xlink:href="classorcs__engine__t.html#a1c033e3455736ba89052a40c69ebe0af" target="_top" xlink:title=" ">
<polygon fill="white" stroke="black" points="291.5,-49.5 291.5,-79.5 397.5,-79.5 397.5,-49.5 291.5,-49.5"/>
<text text-anchor="start" x="299.5" y="-67.5" font-family="Helvetica,sans-Serif" font-size="10.00">orcs_engine_t::get</text>
<text text-anchor="middle" x="344.5" y="-56.5" font-family="Helvetica,sans-Serif" font-size="10.00">_global_cycle</text>
</a>
</g>
</g>
<!-- Node2&#45;&gt;Node3 -->
<g id="edge2" class="edge">
<title>Node2&#45;&gt;Node3</title>
<path fill="none" stroke="midnightblue" d="M244.57,-30.6C258.84,-35.49 274.83,-40.97 289.73,-46.07"/>
<polygon fill="midnightblue" stroke="midnightblue" points="288.73,-49.43 299.33,-49.36 291,-42.81 288.73,-49.43"/>
</g>
<!-- Node4 -->
<g id="node4" class="node">
<title>Node4</title>
<g id="a_node4"><a xlink:href="classstride__prefetcher__t.html#a133b8d9ea4b8f14d75ccb4022209a153" target="_top" xlink:title=" ">
<polygon fill="white" stroke="black" points="290,-0.5 290,-30.5 399,-30.5 399,-0.5 290,-0.5"/>
<text text-anchor="start" x="298" y="-18.5" font-family="Helvetica,sans-Serif" font-size="10.00">stride_prefetcher_t</text>
<text text-anchor="middle" x="344.5" y="-7.5" font-family="Helvetica,sans-Serif" font-size="10.00">::searchLRU</text>
</a>
</g>
</g>
<!-- Node2&#45;&gt;Node4 -->
<g id="edge3" class="edge">
<title>Node2&#45;&gt;Node4</title>
<path fill="none" stroke="midnightblue" d="M254.15,-15.5C262.38,-15.5 270.94,-15.5 279.37,-15.5"/>
<polygon fill="midnightblue" stroke="midnightblue" points="279.54,-19 289.54,-15.5 279.54,-12 279.54,-19"/>
</g>
<!-- Node5&#45;&gt;Node3 -->
<g id="edge5" class="edge">
<title>Node5&#45;&gt;Node3</title>
<path fill="none" stroke="midnightblue" d="M244.57,-98.4C258.84,-93.51 274.83,-88.03 289.73,-82.93"/>
<polygon fill="midnightblue" stroke="midnightblue" points="291,-86.19 299.33,-79.64 288.73,-79.57 291,-86.19"/>
</g>
<!-- Node6&#45;&gt;Node3 -->
<g id="edge7" class="edge">
<title>Node6&#45;&gt;Node3</title>
<path fill="none" stroke="midnightblue" d="M254.15,-64.5C263.02,-64.5 272.28,-64.5 281.34,-64.5"/>
<polygon fill="midnightblue" stroke="midnightblue" points="281.44,-68 291.44,-64.5 281.44,-61 281.44,-68"/>
</g>
</g>
</svg>
