<?xml version="1.0" encoding="UTF-8" standalone="no"?>
<!DOCTYPE svg PUBLIC "-//W3C//DTD SVG 1.1//EN"
 "http://www.w3.org/Graphics/SVG/1.1/DTD/svg11.dtd">
<!-- Generated by graphviz version 2.43.0 (0)
 -->
<!-- Title: memory_channel_t::addRequest Pages: 1 -->
<svg width="408pt" height="116pt"
 viewBox="0.00 0.00 408.00 115.50" xmlns="http://www.w3.org/2000/svg" xmlns:xlink="http://www.w3.org/1999/xlink">
<g id="graph0" class="graph" transform="scale(1 1) rotate(0) translate(4 111.5)">
<title>memory_channel_t::addRequest</title>
<polygon fill="white" stroke="transparent" points="-4,4 -4,-111.5 404,-111.5 404,4 -4,4"/>
<!-- Node1 -->
<g id="node1" class="node">
<title>Node1</title>
<g id="a_node1"><a xlink:title=" ">
<polygon fill="#bfbfbf" stroke="black" points="0,-50 0,-69 174,-69 174,-50 0,-50"/>
<text text-anchor="middle" x="87" y="-57" font-family="Helvetica,sans-Serif" font-size="10.00">memory_channel_t::addRequest</text>
</a>
</g>
</g>
<!-- Node2 -->
<g id="node2" class="node">
<title>Node2</title>
<g id="a_node2"><a xlink:href="classmemory__channel__t.html#a287f04ba038854da0ac7063d9afa49d8" target="_top" xlink:title=" ">
<polygon fill="white" stroke="black" points="224.5,-88 224.5,-107 385.5,-107 385.5,-88 224.5,-88"/>
<text text-anchor="middle" x="305" y="-95" font-family="Helvetica,sans-Serif" font-size="10.00">memory_channel_t::get_bank</text>
</a>
</g>
</g>
<!-- Node1&#45;&gt;Node2 -->
<g id="edge1" class="edge">
<title>Node1&#45;&gt;Node2</title>
<path fill="none" stroke="midnightblue" d="M142.23,-69.04C171.88,-74.26 208.8,-80.75 239.88,-86.22"/>
<polygon fill="midnightblue" stroke="midnightblue" points="239.3,-89.67 249.75,-87.96 240.51,-82.78 239.3,-89.67"/>
</g>
<!-- Node3 -->
<g id="node3" class="node">
<title>Node3</title>
<g id="a_node3"><a xlink:href="enumerations_8cpp.html#abb39d040475b58d11b29c242b33091e1" target="_top" xlink:title="Enumerates the MEMORY OPERATION OF MOB,debug only.">
<polygon fill="white" stroke="black" points="210,-50 210,-69 400,-69 400,-50 210,-50"/>
<text text-anchor="middle" x="305" y="-57" font-family="Helvetica,sans-Serif" font-size="10.00">get_enum_memory_operation_char</text>
</a>
</g>
</g>
<!-- Node1&#45;&gt;Node3 -->
<g id="edge2" class="edge">
<title>Node1&#45;&gt;Node3</title>
<path fill="none" stroke="midnightblue" d="M174.3,-59.5C182.57,-59.5 191.02,-59.5 199.44,-59.5"/>
<polygon fill="midnightblue" stroke="midnightblue" points="199.68,-63 209.68,-59.5 199.68,-56 199.68,-63"/>
</g>
<!-- Node4 -->
<g id="node4" class="node">
<title>Node4</title>
<g id="a_node4"><a xlink:href="classorcs__engine__t.html#a1c033e3455736ba89052a40c69ebe0af" target="_top" xlink:title=" ">
<polygon fill="white" stroke="black" points="252,-0.5 252,-30.5 358,-30.5 358,-0.5 252,-0.5"/>
<text text-anchor="start" x="260" y="-18.5" font-family="Helvetica,sans-Serif" font-size="10.00">orcs_engine_t::get</text>
<text text-anchor="middle" x="305" y="-7.5" font-family="Helvetica,sans-Serif" font-size="10.00">_global_cycle</text>
</a>
</g>
</g>
<!-- Node1&#45;&gt;Node4 -->
<g id="edge3" class="edge">
<title>Node1&#45;&gt;Node4</title>
<path fill="none" stroke="midnightblue" d="M134.87,-49.95C166.26,-43.56 207.93,-35.07 242.06,-28.12"/>
<polygon fill="midnightblue" stroke="midnightblue" points="242.82,-31.53 251.92,-26.11 241.43,-24.67 242.82,-31.53"/>
</g>
</g>
</svg>
