<?xml version="1.0" encoding="UTF-8" standalone="no"?>
<!DOCTYPE svg PUBLIC "-//W3C//DTD SVG 1.1//EN"
 "http://www.w3.org/Graphics/SVG/1.1/DTD/svg11.dtd">
<!-- Generated by graphviz version 2.43.0 (0)
 -->
<!-- Title: processor_t::commit Pages: 1 -->
<!--zoomable 415 -->
<svg id="main" version="1.1" xmlns="http://www.w3.org/2000/svg" xmlns:xlink="http://www.w3.org/1999/xlink" xml:space="preserve" onload="init(evt)">
<style type="text/css"><![CDATA[
.edge:hover path { stroke: red; }
.edge:hover polygon { stroke: red; fill: red; }
]]></style>
<script type="text/javascript"><![CDATA[
var edges = document.getElementsByTagName('g');
if (edges && edges.length) {
  for (var i=0;i<edges.length;i++) {
    if (edges[i].id.substr(0,4)=='edge') {
      edges[i].setAttribute('class','edge');
    }
  }
}
]]></script>
        <defs>
                <circle id="rim" cx="0" cy="0" r="7"/>
                <circle id="rim2" cx="0" cy="0" r="3.5"/>
                <g id="zoomPlus">
                        <use xlink:href="#rim" fill="#404040">
                                <set attributeName="fill" to="#808080" begin="zoomplus.mouseover" end="zoomplus.mouseout"/>
                        </use>
                        <path d="M-4,0h8M0,-4v8" fill="none" stroke="white" stroke-width="1.5" pointer-events="none"/>
                </g>
                <g id="zoomMin">
                        <use xlink:href="#rim" fill="#404040">
                                <set attributeName="fill" to="#808080" begin="zoomminus.mouseover" end="zoomminus.mouseout"/>
                        </use>
                        <path d="M-4,0h8" fill="none" stroke="white" stroke-width="1.5" pointer-events="none"/>
                </g>
                <g id="dirArrow">
                        <path fill="none" stroke="white" stroke-width="1.5" d="M0,-3.0v7 M-2.5,-0.5L0,-3.0L2.5,-0.5"/>
                </g>
               <g id="resetDef">
                       <use xlink:href="#rim2" fill="#404040">
                               <set attributeName="fill" to="#808080" begin="reset.mouseover" end="reset.mouseout"/>
                       </use>
               </g>
        </defs>

<script type="text/javascript">
var viewWidth = 816;
var viewHeight = 415;
var sectionId = 'dynsection-6';
</script>
<script xlink:href="svgpan.js"/>
<svg id="graph" class="graph">
<g id="viewport">
<title>processor_t::commit</title>
<polygon fill="white" stroke="transparent" points="-4,4 -4,-411 812,-411 812,4 -4,4"/>
<!-- Node1 -->
<g id="node1" class="node">
<title>Node1</title>
<g id="a_node1"><a xlink:title=" ">
<polygon fill="#bfbfbf" stroke="black" points="0,-212 0,-231 116,-231 116,-212 0,-212"/>
<text text-anchor="middle" x="58" y="-219" font-family="Helvetica,sans-Serif" font-size="10.00">processor_t::commit</text>
</a>
</g>
</g>
<!-- Node2 -->
<g id="node2" class="node">
<title>Node2</title>
<g id="a_node2"><a xlink:href="enumerations_8cpp.html#a29b4f0c7eca5c960bab850a56e5e411c" target="_top" xlink:title=" ">
<polygon fill="white" stroke="black" points="186,-376.5 186,-406.5 308,-406.5 308,-376.5 186,-376.5"/>
<text text-anchor="start" x="194" y="-394.5" font-family="Helvetica,sans-Serif" font-size="10.00">get_enum_instruction</text>
<text text-anchor="middle" x="247" y="-383.5" font-family="Helvetica,sans-Serif" font-size="10.00">_operation_char</text>
</a>
</g>
</g>
<!-- Node1&#45;&gt;Node2 -->
<g id="edge1" class="edge">
<title>Node1&#45;&gt;Node2</title>
<path fill="none" stroke="midnightblue" d="M62.28,-231.01C71.76,-257.03 101.74,-329.84 152,-366.5 159.31,-371.84 167.69,-376.03 176.35,-379.33"/>
<polygon fill="midnightblue" stroke="midnightblue" points="175.24,-382.65 185.84,-382.58 177.51,-376.03 175.24,-382.65"/>
</g>
<!-- Node3 -->
<g id="node3" class="node">
<title>Node3</title>
<g id="a_node3"><a xlink:href="enumerations_8cpp.html#abb39d040475b58d11b29c242b33091e1" target="_top" xlink:title="Enumerates the MEMORY OPERATION OF MOB,debug only.">
<polygon fill="white" stroke="black" points="152,-338 152,-357 342,-357 342,-338 152,-338"/>
<text text-anchor="middle" x="247" y="-345" font-family="Helvetica,sans-Serif" font-size="10.00">get_enum_memory_operation_char</text>
</a>
</g>
</g>
<!-- Node1&#45;&gt;Node3 -->
<g id="edge2" class="edge">
<title>Node1&#45;&gt;Node3</title>
<path fill="none" stroke="midnightblue" d="M64.3,-231.06C76.63,-252.35 109.46,-303.73 152,-328.5 155.72,-330.67 159.65,-332.59 163.71,-334.3"/>
<polygon fill="midnightblue" stroke="midnightblue" points="162.78,-337.69 173.37,-337.9 165.23,-331.13 162.78,-337.69"/>
</g>
<!-- Node4 -->
<g id="node4" class="node">
<title>Node4</title>
<g id="a_node4"><a xlink:href="enumerations_8cpp.html#a4f1219a7c31d137c368e36cea5be9128" target="_top" xlink:title="Enumerates the package state,.">
<polygon fill="white" stroke="black" points="163.5,-300 163.5,-319 330.5,-319 330.5,-300 163.5,-300"/>
<text text-anchor="middle" x="247" y="-307" font-family="Helvetica,sans-Serif" font-size="10.00">get_enum_package_state_char</text>
</a>
</g>
</g>
<!-- Node1&#45;&gt;Node4 -->
<g id="edge3" class="edge">
<title>Node1&#45;&gt;Node4</title>
<path fill="none" stroke="midnightblue" d="M68.91,-231.23C84.95,-246.39 118.21,-275.45 152,-290.5 157.69,-293.03 163.72,-295.23 169.88,-297.14"/>
<polygon fill="midnightblue" stroke="midnightblue" points="169.05,-300.54 179.62,-299.9 170.96,-293.81 169.05,-300.54"/>
</g>
<!-- Node5 -->
<g id="node5" class="node">
<title>Node5</title>
<g id="a_node5"><a xlink:href="enumerations_8cpp.html#ad105be945954dbff8a0b2ce5a2a93b98" target="_top" xlink:title="Enumerates the processor stages, used to indicate when the branch will be solved.">
<polygon fill="white" stroke="black" points="188,-250.5 188,-280.5 306,-280.5 306,-250.5 188,-250.5"/>
<text text-anchor="start" x="196" y="-268.5" font-family="Helvetica,sans-Serif" font-size="10.00">get_enum_processor</text>
<text text-anchor="middle" x="247" y="-257.5" font-family="Helvetica,sans-Serif" font-size="10.00">_stage_char</text>
</a>
</g>
</g>
<!-- Node1&#45;&gt;Node5 -->
<g id="edge4" class="edge">
<title>Node1&#45;&gt;Node5</title>
<path fill="none" stroke="midnightblue" d="M99.58,-231.05C122.44,-236.43 151.59,-243.29 177.86,-249.47"/>
<polygon fill="midnightblue" stroke="midnightblue" points="177.23,-252.91 187.76,-251.8 178.83,-246.1 177.23,-252.91"/>
</g>
<!-- Node6 -->
<g id="node6" class="node">
<title>Node6</title>
<g id="a_node6"><a xlink:href="classorcs__engine__t.html#a1c033e3455736ba89052a40c69ebe0af" target="_top" xlink:title=" ">
<polygon fill="white" stroke="black" points="702,-104.5 702,-134.5 808,-134.5 808,-104.5 702,-104.5"/>
<text text-anchor="start" x="710" y="-122.5" font-family="Helvetica,sans-Serif" font-size="10.00">orcs_engine_t::get</text>
<text text-anchor="middle" x="755" y="-111.5" font-family="Helvetica,sans-Serif" font-size="10.00">_global_cycle</text>
</a>
</g>
</g>
<!-- Node1&#45;&gt;Node6 -->
<g id="edge5" class="edge">
<title>Node1&#45;&gt;Node6</title>
<path fill="none" stroke="midnightblue" d="M116.39,-223C247.88,-225.69 567.21,-227.83 666,-188.5 691.73,-178.26 716.11,-158 732.66,-142.08"/>
<polygon fill="midnightblue" stroke="midnightblue" points="735.49,-144.2 740.12,-134.67 730.56,-139.23 735.49,-144.2"/>
</g>
<!-- Node7 -->
<g id="node7" class="node">
<title>Node7</title>
<g id="a_node7"><a xlink:href="classprocessor__t.html#acbe870e9326b5517e6d7e341f8e896f1" target="_top" xlink:title=" ">
<polygon fill="white" stroke="black" points="378,-164.5 378,-194.5 494,-194.5 494,-164.5 378,-164.5"/>
<text text-anchor="start" x="386" y="-182.5" font-family="Helvetica,sans-Serif" font-size="10.00">processor_t::remove</text>
<text text-anchor="middle" x="436" y="-171.5" font-family="Helvetica,sans-Serif" font-size="10.00">_front_mob_hive</text>
</a>
</g>
</g>
<!-- Node1&#45;&gt;Node7 -->
<g id="edge6" class="edge">
<title>Node1&#45;&gt;Node7</title>
<path fill="none" stroke="midnightblue" d="M116.48,-212.38C128.22,-210.65 140.5,-208.93 152,-207.5 225.72,-198.31 310.54,-190.25 367.95,-185.17"/>
<polygon fill="midnightblue" stroke="midnightblue" points="368.34,-188.65 377.99,-184.28 367.72,-181.67 368.34,-188.65"/>
</g>
<!-- Node9 -->
<g id="node9" class="node">
<title>Node9</title>
<g id="a_node9"><a xlink:href="classprocessor__t.html#aa321c9817e68e63c76a1330dff73c83a" target="_top" xlink:title=" ">
<polygon fill="white" stroke="black" points="378,-115.5 378,-145.5 494,-145.5 494,-115.5 378,-115.5"/>
<text text-anchor="start" x="386" y="-133.5" font-family="Helvetica,sans-Serif" font-size="10.00">processor_t::remove</text>
<text text-anchor="middle" x="436" y="-122.5" font-family="Helvetica,sans-Serif" font-size="10.00">_front_mob_read</text>
</a>
</g>
</g>
<!-- Node1&#45;&gt;Node9 -->
<g id="edge10" class="edge">
<title>Node1&#45;&gt;Node9</title>
<path fill="none" stroke="midnightblue" d="M78.9,-211.99C97.44,-203.46 126.07,-191.14 152,-183.5 224.37,-162.18 309.78,-147.57 367.7,-139.18"/>
<polygon fill="midnightblue" stroke="midnightblue" points="368.42,-142.61 377.82,-137.73 367.43,-135.68 368.42,-142.61"/>
</g>
<!-- Node10 -->
<g id="node10" class="node">
<title>Node10</title>
<g id="a_node10"><a xlink:href="classprocessor__t.html#a73da897081265ba6582e2b445816d319" target="_top" xlink:title=" ">
<polygon fill="white" stroke="black" points="378,-66.5 378,-96.5 494,-96.5 494,-66.5 378,-66.5"/>
<text text-anchor="start" x="386" y="-84.5" font-family="Helvetica,sans-Serif" font-size="10.00">processor_t::remove</text>
<text text-anchor="middle" x="436" y="-73.5" font-family="Helvetica,sans-Serif" font-size="10.00">_front_mob_vima</text>
</a>
</g>
</g>
<!-- Node1&#45;&gt;Node10 -->
<g id="edge13" class="edge">
<title>Node1&#45;&gt;Node10</title>
<path fill="none" stroke="midnightblue" d="M66.79,-211.74C81.46,-194.09 115.03,-156.99 152,-138.5 220.65,-104.17 308.44,-90.52 367.9,-85.09"/>
<polygon fill="midnightblue" stroke="midnightblue" points="368.26,-88.57 377.93,-84.22 367.66,-81.59 368.26,-88.57"/>
</g>
<!-- Node11 -->
<g id="node11" class="node">
<title>Node11</title>
<g id="a_node11"><a xlink:href="classprocessor__t.html#a6f2fa03ef45b101353ea478759c307e4" target="_top" xlink:title=" ">
<polygon fill="white" stroke="black" points="166,-34 166,-53 328,-53 328,-34 166,-34"/>
<text text-anchor="middle" x="247" y="-41" font-family="Helvetica,sans-Serif" font-size="10.00">processor_t::removeFrontROB</text>
</a>
</g>
</g>
<!-- Node1&#45;&gt;Node11 -->
<g id="edge16" class="edge">
<title>Node1&#45;&gt;Node11</title>
<path fill="none" stroke="midnightblue" d="M62.28,-211.83C71.76,-185.37 101.74,-111.19 152,-72.5 161,-65.57 171.67,-60.28 182.54,-56.26"/>
<polygon fill="midnightblue" stroke="midnightblue" points="183.74,-59.54 192.09,-53.03 181.5,-52.91 183.74,-59.54"/>
</g>
<!-- Node7&#45;&gt;Node6 -->
<g id="edge7" class="edge">
<title>Node7&#45;&gt;Node6</title>
<path fill="none" stroke="midnightblue" d="M494.11,-183C541.13,-184.29 609.07,-182.48 666,-166.5 686.4,-160.77 707.4,-149.79 723.77,-139.87"/>
<polygon fill="midnightblue" stroke="midnightblue" points="725.72,-142.78 732.35,-134.52 722.02,-136.84 725.72,-142.78"/>
</g>
<!-- Node8 -->
<g id="node8" class="node">
<title>Node8</title>
<g id="a_node8"><a xlink:href="classmemory__order__buffer__line__t.html#a604d280b24282534c4785ce0c1bd7fa9" target="_top" xlink:title=" ">
<polygon fill="white" stroke="black" points="534.5,-126.5 534.5,-156.5 661.5,-156.5 661.5,-126.5 534.5,-126.5"/>
<text text-anchor="start" x="542.5" y="-144.5" font-family="Helvetica,sans-Serif" font-size="10.00">memory_order_buffer</text>
<text text-anchor="middle" x="598" y="-133.5" font-family="Helvetica,sans-Serif" font-size="10.00">_line_t::package_clean</text>
</a>
</g>
</g>
<!-- Node7&#45;&gt;Node8 -->
<g id="edge8" class="edge">
<title>Node7&#45;&gt;Node8</title>
<path fill="none" stroke="midnightblue" d="M494.31,-165.89C504.06,-163.57 514.3,-161.14 524.39,-158.75"/>
<polygon fill="midnightblue" stroke="midnightblue" points="525.48,-162.08 534.4,-156.37 523.86,-155.27 525.48,-162.08"/>
</g>
<!-- Node8&#45;&gt;Node6 -->
<g id="edge9" class="edge">
<title>Node8&#45;&gt;Node6</title>
<path fill="none" stroke="midnightblue" d="M661.6,-132.62C671.45,-131.22 681.64,-129.77 691.49,-128.37"/>
<polygon fill="midnightblue" stroke="midnightblue" points="692.19,-131.81 701.6,-126.94 691.21,-124.88 692.19,-131.81"/>
</g>
<!-- Node9&#45;&gt;Node6 -->
<g id="edge11" class="edge">
<title>Node9&#45;&gt;Node6</title>
<path fill="none" stroke="midnightblue" d="M494.4,-120.49C506.14,-118.83 518.44,-117.37 530,-116.5 590.28,-111.99 605.56,-115.47 666,-116.5 674.35,-116.64 683.14,-116.86 691.81,-117.12"/>
<polygon fill="midnightblue" stroke="midnightblue" points="691.79,-120.62 701.89,-117.43 692.01,-113.62 691.79,-120.62"/>
</g>
<!-- Node9&#45;&gt;Node8 -->
<g id="edge12" class="edge">
<title>Node9&#45;&gt;Node8</title>
<path fill="none" stroke="midnightblue" d="M494.31,-134.44C504.06,-135.11 514.3,-135.81 524.39,-136.51"/>
<polygon fill="midnightblue" stroke="midnightblue" points="524.18,-140 534.4,-137.2 524.66,-133.02 524.18,-140"/>
</g>
<!-- Node10&#45;&gt;Node6 -->
<g id="edge14" class="edge">
<title>Node10&#45;&gt;Node6</title>
<path fill="none" stroke="midnightblue" d="M494.04,-88.34C549.78,-95.02 634.41,-105.16 691.85,-112.05"/>
<polygon fill="midnightblue" stroke="midnightblue" points="691.54,-115.54 701.89,-113.25 692.37,-108.59 691.54,-115.54"/>
</g>
<!-- Node10&#45;&gt;Node8 -->
<g id="edge15" class="edge">
<title>Node10&#45;&gt;Node8</title>
<path fill="none" stroke="midnightblue" d="M477.37,-96.64C498.68,-104.63 525,-114.5 547.52,-122.95"/>
<polygon fill="midnightblue" stroke="midnightblue" points="546.32,-126.23 556.92,-126.47 548.78,-119.68 546.32,-126.23"/>
</g>
<!-- Node12 -->
<g id="node12" class="node">
<title>Node12</title>
<g id="a_node12"><a xlink:href="classreorder__buffer__line__t.html#a00c04d2e296b72626e95320fca15f52b" target="_top" xlink:title=" ">
<polygon fill="white" stroke="black" points="381.5,-9.5 381.5,-39.5 490.5,-39.5 490.5,-9.5 381.5,-9.5"/>
<text text-anchor="start" x="389.5" y="-27.5" font-family="Helvetica,sans-Serif" font-size="10.00">reorder_buffer_line</text>
<text text-anchor="middle" x="436" y="-16.5" font-family="Helvetica,sans-Serif" font-size="10.00">_t::package_clean</text>
</a>
</g>
</g>
<!-- Node11&#45;&gt;Node12 -->
<g id="edge17" class="edge">
<title>Node11&#45;&gt;Node12</title>
<path fill="none" stroke="midnightblue" d="M328.12,-35.36C342.42,-33.91 357.14,-32.41 370.92,-31.01"/>
<polygon fill="midnightblue" stroke="midnightblue" points="371.65,-34.45 381.24,-29.96 370.94,-27.49 371.65,-34.45"/>
</g>
<!-- Node13 -->
<g id="node13" class="node">
<title>Node13</title>
<g id="a_node13"><a xlink:href="classuop__package__t.html#a16775f00efc03adcde9ac66548393182" target="_top" xlink:title=" ">
<polygon fill="white" stroke="black" points="530,-0.5 530,-30.5 666,-30.5 666,-0.5 530,-0.5"/>
<text text-anchor="start" x="538" y="-18.5" font-family="Helvetica,sans-Serif" font-size="10.00">uop_package_t::package</text>
<text text-anchor="middle" x="598" y="-7.5" font-family="Helvetica,sans-Serif" font-size="10.00">_clean</text>
</a>
</g>
</g>
<!-- Node12&#45;&gt;Node13 -->
<g id="edge18" class="edge">
<title>Node12&#45;&gt;Node13</title>
<path fill="none" stroke="midnightblue" d="M490.72,-21.48C500.02,-20.96 509.85,-20.4 519.63,-19.85"/>
<polygon fill="midnightblue" stroke="midnightblue" points="519.99,-23.34 529.78,-19.28 519.6,-16.35 519.99,-23.34"/>
</g>
<!-- Node13&#45;&gt;Node6 -->
<g id="edge19" class="edge">
<title>Node13&#45;&gt;Node6</title>
<path fill="none" stroke="midnightblue" d="M637.51,-30.54C647.09,-34.87 657.15,-39.95 666,-45.5 689.83,-60.45 714.1,-81.36 731.09,-97.15"/>
<polygon fill="midnightblue" stroke="midnightblue" points="729.14,-100.12 738.82,-104.44 733.95,-95.03 729.14,-100.12"/>
</g>
</g>
</svg>
        <g id="navigator" transform="translate(0 0)" fill="#404254">
                <rect fill="#f2f5e9" fill-opacity="0.5" stroke="#606060" stroke-width=".5" x="0" y="0" width="60" height="60"/>
                <use id="zoomplus" xlink:href="#zoomPlus" x="17" y="9" onmousedown="handleZoom(evt,'in')"/>
                <use id="zoomminus" xlink:href="#zoomMin" x="42" y="9" onmousedown="handleZoom(evt,'out')"/>
                <use id="reset" xlink:href="#resetDef" x="30" y="36" onmousedown="handleReset()"/>
                <g id="arrowUp" xlink:href="#dirArrow" transform="translate(30 24)" onmousedown="handlePan(0,-1)">
                  <use xlink:href="#rim" fill="#404040">
                        <set attributeName="fill" to="#808080" begin="arrowUp.mouseover" end="arrowUp.mouseout"/>
                  </use>
                  <path fill="none" stroke="white" stroke-width="1.5" d="M0,-3.0v7 M-2.5,-0.5L0,-3.0L2.5,-0.5"/>
                </g>
                <g id="arrowRight" xlink:href="#dirArrow" transform="rotate(90) translate(36 -43)" onmousedown="handlePan(1,0)">
                  <use xlink:href="#rim" fill="#404040">
                        <set attributeName="fill" to="#808080" begin="arrowRight.mouseover" end="arrowRight.mouseout"/>
                  </use>
                  <path fill="none" stroke="white" stroke-width="1.5" d="M0,-3.0v7 M-2.5,-0.5L0,-3.0L2.5,-0.5"/>
                </g>
                <g id="arrowDown" xlink:href="#dirArrow" transform="rotate(180) translate(-30 -48)" onmousedown="handlePan(0,1)">
                  <use xlink:href="#rim" fill="#404040">
                        <set attributeName="fill" to="#808080" begin="arrowDown.mouseover" end="arrowDown.mouseout"/>
                  </use>
                  <path fill="none" stroke="white" stroke-width="1.5" d="M0,-3.0v7 M-2.5,-0.5L0,-3.0L2.5,-0.5"/>
                </g>
                <g id="arrowLeft" xlink:href="#dirArrow" transform="rotate(270) translate(-36 17)" onmousedown="handlePan(-1,0)">
                  <use xlink:href="#rim" fill="#404040">
                        <set attributeName="fill" to="#808080" begin="arrowLeft.mouseover" end="arrowLeft.mouseout"/>
                  </use>
                  <path fill="none" stroke="white" stroke-width="1.5" d="M0,-3.0v7 M-2.5,-0.5L0,-3.0L2.5,-0.5"/>
                </g>
        </g>
        <svg viewBox="0 0 15 15" width="100%" height="30px" preserveAspectRatio="xMaxYMin meet">
         <g id="arrow_out" transform="scale(0.3 0.3)">
          <a xlink:href="classprocessor__t_ad251a0c6f999d23b5d28293656a5b32c_cgraph_org.svg" target="_base">
           <rect id="button" ry="5" rx="5" y="6" x="6" height="38" width="38"
                fill="#f2f5e9" fill-opacity="0.5" stroke="#606060" stroke-width="1.0"/>
           <path id="arrow"
             d="M 11.500037,31.436501 C 11.940474,20.09759 22.043105,11.32322 32.158766,21.979434 L 37.068811,17.246167 C 37.068811,17.246167 37.088388,32 37.088388,32 L 22.160133,31.978069 C 22.160133,31.978069 26.997745,27.140456 26.997745,27.140456 C 18.528582,18.264221 13.291696,25.230495 11.500037,31.436501 z"
             style="fill:#404040;"/>
          </a>
         </g>
        </svg>
</svg>
