<?xml version="1.0" encoding="UTF-8" standalone="no"?>
<!DOCTYPE svg PUBLIC "-//W3C//DTD SVG 1.1//EN"
 "http://www.w3.org/Graphics/SVG/1.1/DTD/svg11.dtd">
<!-- Generated by graphviz version 2.43.0 (0)
 -->
<!-- Title: processor_t::clean_mob_read Pages: 1 -->
<svg width="544pt" height="339pt"
 viewBox="0.00 0.00 544.00 338.50" xmlns="http://www.w3.org/2000/svg" xmlns:xlink="http://www.w3.org/1999/xlink">
<g id="graph0" class="graph" transform="scale(1 1) rotate(0) translate(4 334.5)">
<title>processor_t::clean_mob_read</title>
<polygon fill="white" stroke="transparent" points="-4,4 -4,-334.5 540,-334.5 540,4 -4,4"/>
<!-- Node1 -->
<g id="node1" class="node">
<title>Node1</title>
<g id="a_node1"><a xlink:title=" ">
<polygon fill="#bfbfbf" stroke="black" points="0,-142.5 0,-172.5 105,-172.5 105,-142.5 0,-142.5"/>
<text text-anchor="start" x="8" y="-160.5" font-family="Helvetica,sans-Serif" font-size="10.00">processor_t::clean</text>
<text text-anchor="middle" x="52.5" y="-149.5" font-family="Helvetica,sans-Serif" font-size="10.00">_mob_read</text>
</a>
</g>
</g>
<!-- Node2 -->
<g id="node2" class="node">
<title>Node2</title>
<g id="a_node2"><a xlink:href="classmemory__order__buffer__line__t.html#ab207bfff4362a0f5976d62747ab18109" target="_top" xlink:title=" ">
<polygon fill="white" stroke="black" points="164.5,-224 164.5,-265 286.5,-265 286.5,-224 164.5,-224"/>
<text text-anchor="start" x="172.5" y="-253" font-family="Helvetica,sans-Serif" font-size="10.00">memory_order_buffer</text>
<text text-anchor="start" x="172.5" y="-242" font-family="Helvetica,sans-Serif" font-size="10.00">_line_t::content_to</text>
<text text-anchor="middle" x="225.5" y="-231" font-family="Helvetica,sans-Serif" font-size="10.00">_string</text>
</a>
</g>
</g>
<!-- Node1&#45;&gt;Node2 -->
<g id="edge1" class="edge">
<title>Node1&#45;&gt;Node2</title>
<path fill="none" stroke="midnightblue" d="M76.77,-172.54C94.12,-183.45 118.59,-198.21 141,-209.5 148.01,-213.03 155.46,-216.51 162.91,-219.84"/>
<polygon fill="midnightblue" stroke="midnightblue" points="161.76,-223.15 172.32,-223.95 164.56,-216.74 161.76,-223.15"/>
</g>
<!-- Node4 -->
<g id="node4" class="node">
<title>Node4</title>
<g id="a_node4"><a xlink:href="enumerations_8cpp.html#abb39d040475b58d11b29c242b33091e1" target="_top" xlink:title="Enumerates the MEMORY OPERATION OF MOB,debug only.">
<polygon fill="white" stroke="black" points="346,-311 346,-330 536,-330 536,-311 346,-311"/>
<text text-anchor="middle" x="441" y="-318" font-family="Helvetica,sans-Serif" font-size="10.00">get_enum_memory_operation_char</text>
</a>
</g>
</g>
<!-- Node1&#45;&gt;Node4 -->
<g id="edge7" class="edge">
<title>Node1&#45;&gt;Node4</title>
<path fill="none" stroke="midnightblue" d="M60.09,-172.68C72.09,-198.36 100.12,-249.96 141,-274.5 199.21,-309.44 274.87,-320.83 335.52,-323.53"/>
<polygon fill="midnightblue" stroke="midnightblue" points="335.77,-327.04 345.89,-323.92 336.03,-320.05 335.77,-327.04"/>
</g>
<!-- Node5 -->
<g id="node5" class="node">
<title>Node5</title>
<g id="a_node5"><a xlink:href="enumerations_8cpp.html#a4f1219a7c31d137c368e36cea5be9128" target="_top" xlink:title="Enumerates the package state,.">
<polygon fill="white" stroke="black" points="357.5,-147 357.5,-166 524.5,-166 524.5,-147 357.5,-147"/>
<text text-anchor="middle" x="441" y="-154" font-family="Helvetica,sans-Serif" font-size="10.00">get_enum_package_state_char</text>
</a>
</g>
</g>
<!-- Node1&#45;&gt;Node5 -->
<g id="edge8" class="edge">
<title>Node1&#45;&gt;Node5</title>
<path fill="none" stroke="midnightblue" d="M105.16,-167.16C116.9,-168.96 129.34,-170.57 141,-171.5 215.87,-177.45 235.01,-175.81 310,-171.5 326.25,-170.57 343.58,-168.98 360.12,-167.18"/>
<polygon fill="midnightblue" stroke="midnightblue" points="360.75,-170.63 370.3,-166.04 359.97,-163.68 360.75,-170.63"/>
</g>
<!-- Node8 -->
<g id="node8" class="node">
<title>Node8</title>
<g id="a_node8"><a xlink:href="classorcs__engine__t.html#a1c033e3455736ba89052a40c69ebe0af" target="_top" xlink:title=" ">
<polygon fill="white" stroke="black" points="388,-49.5 388,-79.5 494,-79.5 494,-49.5 388,-49.5"/>
<text text-anchor="start" x="396" y="-67.5" font-family="Helvetica,sans-Serif" font-size="10.00">orcs_engine_t::get</text>
<text text-anchor="middle" x="441" y="-56.5" font-family="Helvetica,sans-Serif" font-size="10.00">_global_cycle</text>
</a>
</g>
</g>
<!-- Node1&#45;&gt;Node8 -->
<g id="edge9" class="edge">
<title>Node1&#45;&gt;Node8</title>
<path fill="none" stroke="midnightblue" d="M105.33,-160.26C158.03,-161.55 241.44,-159.39 310,-138.5 347.78,-126.99 386.55,-103.04 411.8,-85.5"/>
<polygon fill="midnightblue" stroke="midnightblue" points="414,-88.22 420.14,-79.59 409.96,-82.51 414,-88.22"/>
</g>
<!-- Node9 -->
<g id="node9" class="node">
<title>Node9</title>
<g id="a_node9"><a xlink:href="classdesambiguation__t.html#a5c526b3dcc16c2e45af95aadd1f00c4d" target="_top" xlink:title=" ">
<polygon fill="white" stroke="black" points="157,-98.5 157,-128.5 294,-128.5 294,-98.5 157,-98.5"/>
<text text-anchor="start" x="165" y="-116.5" font-family="Helvetica,sans-Serif" font-size="10.00">desambiguation_t::solve</text>
<text text-anchor="middle" x="225.5" y="-105.5" font-family="Helvetica,sans-Serif" font-size="10.00">_memory_dependences</text>
</a>
</g>
</g>
<!-- Node1&#45;&gt;Node9 -->
<g id="edge10" class="edge">
<title>Node1&#45;&gt;Node9</title>
<path fill="none" stroke="midnightblue" d="M105.27,-144.18C121.29,-140.06 139.2,-135.45 156.17,-131.08"/>
<polygon fill="midnightblue" stroke="midnightblue" points="157.21,-134.43 166.02,-128.55 155.47,-127.65 157.21,-134.43"/>
</g>
<!-- Node10 -->
<g id="node10" class="node">
<title>Node10</title>
<g id="a_node10"><a xlink:href="classprocessor__t.html#ab540e86ab9de9721a2075a88a2349454" target="_top" xlink:title=" ">
<polygon fill="white" stroke="black" points="161,-49.5 161,-79.5 290,-79.5 290,-49.5 161,-49.5"/>
<text text-anchor="start" x="169" y="-67.5" font-family="Helvetica,sans-Serif" font-size="10.00">processor_t::solve</text>
<text text-anchor="middle" x="225.5" y="-56.5" font-family="Helvetica,sans-Serif" font-size="10.00">_registers_dependency</text>
</a>
</g>
</g>
<!-- Node1&#45;&gt;Node10 -->
<g id="edge11" class="edge">
<title>Node1&#45;&gt;Node10</title>
<path fill="none" stroke="midnightblue" d="M69.33,-142.22C85.96,-126.93 113.47,-103.69 141,-89.5 145.31,-87.28 149.86,-85.22 154.5,-83.32"/>
<polygon fill="midnightblue" stroke="midnightblue" points="156.05,-86.48 164.15,-79.64 153.56,-79.94 156.05,-86.48"/>
</g>
<!-- Node11 -->
<g id="node11" class="node">
<title>Node11</title>
<g id="a_node11"><a xlink:href="classuop__package__t.html#ab9107a1302625134f30a9afac742f110" target="_top" xlink:title=" ">
<polygon fill="white" stroke="black" points="141,-0.5 141,-30.5 310,-30.5 310,-0.5 141,-0.5"/>
<text text-anchor="start" x="149" y="-18.5" font-family="Helvetica,sans-Serif" font-size="10.00">uop_package_t::updatePackage</text>
<text text-anchor="middle" x="225.5" y="-7.5" font-family="Helvetica,sans-Serif" font-size="10.00">Ready</text>
</a>
</g>
</g>
<!-- Node1&#45;&gt;Node11 -->
<g id="edge13" class="edge">
<title>Node1&#45;&gt;Node11</title>
<path fill="none" stroke="midnightblue" d="M60.6,-142.33C73.18,-117.11 101.81,-66.68 141,-39.5 143.25,-37.94 145.59,-36.48 148.02,-35.12"/>
<polygon fill="midnightblue" stroke="midnightblue" points="149.7,-38.19 157.07,-30.58 146.56,-31.94 149.7,-38.19"/>
</g>
<!-- Node3 -->
<g id="node3" class="node">
<title>Node3</title>
<g id="a_node3"><a xlink:href="classutils__t.html#a6119f6b64f0de103f7e051345fe2e87f" target="_top" xlink:title=" ">
<polygon fill="white" stroke="black" points="380,-273 380,-292 502,-292 502,-273 380,-273"/>
<text text-anchor="middle" x="441" y="-280" font-family="Helvetica,sans-Serif" font-size="10.00">utils_t::bool_to_string</text>
</a>
</g>
</g>
<!-- Node2&#45;&gt;Node3 -->
<g id="edge2" class="edge">
<title>Node2&#45;&gt;Node3</title>
<path fill="none" stroke="midnightblue" d="M286.54,-255.19C314.67,-260.19 348.2,-266.16 376.73,-271.24"/>
<polygon fill="midnightblue" stroke="midnightblue" points="376.13,-274.69 386.59,-272.99 377.36,-267.8 376.13,-274.69"/>
</g>
<!-- Node2&#45;&gt;Node4 -->
<g id="edge3" class="edge">
<title>Node2&#45;&gt;Node4</title>
<path fill="none" stroke="midnightblue" d="M263.46,-265.04C286.58,-277.15 317.33,-291.93 346,-301.5 354.15,-304.22 362.83,-306.62 371.5,-308.71"/>
<polygon fill="midnightblue" stroke="midnightblue" points="370.72,-312.12 381.25,-310.94 372.28,-305.3 370.72,-312.12"/>
</g>
<!-- Node2&#45;&gt;Node5 -->
<g id="edge4" class="edge">
<title>Node2&#45;&gt;Node5</title>
<path fill="none" stroke="midnightblue" d="M283.1,-223.92C292.37,-219.67 301.66,-214.84 310,-209.5 328.28,-197.8 326.71,-186.44 346,-176.5 351.55,-173.64 357.48,-171.19 363.57,-169.09"/>
<polygon fill="midnightblue" stroke="midnightblue" points="364.73,-172.39 373.23,-166.07 362.64,-165.71 364.73,-172.39"/>
</g>
<!-- Node6 -->
<g id="node6" class="node">
<title>Node6</title>
<g id="a_node6"><a xlink:href="classutils__t.html#a710d0f0a1d8f5561bb63460d2c833391" target="_top" xlink:title=" ">
<polygon fill="white" stroke="black" points="378.5,-235 378.5,-254 503.5,-254 503.5,-235 378.5,-235"/>
<text text-anchor="middle" x="441" y="-242" font-family="Helvetica,sans-Serif" font-size="10.00">utils_t::int32_to_string</text>
</a>
</g>
</g>
<!-- Node2&#45;&gt;Node6 -->
<g id="edge5" class="edge">
<title>Node2&#45;&gt;Node6</title>
<path fill="none" stroke="midnightblue" d="M286.54,-244.5C311.8,-244.5 341.41,-244.5 367.84,-244.5"/>
<polygon fill="midnightblue" stroke="midnightblue" points="368.18,-248 378.18,-244.5 368.18,-241 368.18,-248"/>
</g>
<!-- Node7 -->
<g id="node7" class="node">
<title>Node7</title>
<g id="a_node7"><a xlink:href="classutils__t.html#aa30deed2def3a1339369e6806073e9fd" target="_top" xlink:title=" ">
<polygon fill="white" stroke="black" points="392,-185.5 392,-215.5 490,-215.5 490,-185.5 392,-185.5"/>
<text text-anchor="start" x="400" y="-203.5" font-family="Helvetica,sans-Serif" font-size="10.00">utils_t::uint64_to</text>
<text text-anchor="middle" x="441" y="-192.5" font-family="Helvetica,sans-Serif" font-size="10.00">_string</text>
</a>
</g>
</g>
<!-- Node2&#45;&gt;Node7 -->
<g id="edge6" class="edge">
<title>Node2&#45;&gt;Node7</title>
<path fill="none" stroke="midnightblue" d="M286.54,-232.13C316.33,-225.99 352.16,-218.6 381.71,-212.51"/>
<polygon fill="midnightblue" stroke="midnightblue" points="382.79,-215.86 391.88,-210.42 381.38,-209.01 382.79,-215.86"/>
</g>
<!-- Node10&#45;&gt;Node8 -->
<g id="edge12" class="edge">
<title>Node10&#45;&gt;Node8</title>
<path fill="none" stroke="midnightblue" d="M290.27,-64.5C317.83,-64.5 349.99,-64.5 377.42,-64.5"/>
<polygon fill="midnightblue" stroke="midnightblue" points="377.68,-68 387.68,-64.5 377.68,-61 377.68,-68"/>
</g>
<!-- Node11&#45;&gt;Node8 -->
<g id="edge14" class="edge">
<title>Node11&#45;&gt;Node8</title>
<path fill="none" stroke="midnightblue" d="M292.01,-30.53C319.29,-36.8 350.82,-44.03 377.75,-50.21"/>
<polygon fill="midnightblue" stroke="midnightblue" points="377.29,-53.7 387.82,-52.52 378.86,-46.88 377.29,-53.7"/>
</g>
</g>
</svg>
