<?xml version="1.0" encoding="UTF-8" standalone="no"?>
<!DOCTYPE svg PUBLIC "-//W3C//DTD SVG 1.1//EN"
 "http://www.w3.org/Graphics/SVG/1.1/DTD/svg11.dtd">
<!-- Generated by graphviz version 2.43.0 (0)
 -->
<!-- Title: memory_controller_t::allocate Pages: 1 -->
<svg width="590pt" height="101pt"
 viewBox="0.00 0.00 590.00 101.00" xmlns="http://www.w3.org/2000/svg" xmlns:xlink="http://www.w3.org/1999/xlink">
<g id="graph0" class="graph" transform="scale(1 1) rotate(0) translate(4 97)">
<title>memory_controller_t::allocate</title>
<polygon fill="white" stroke="transparent" points="-4,4 -4,-97 586,-97 586,4 -4,4"/>
<!-- Node1 -->
<g id="node1" class="node">
<title>Node1</title>
<g id="a_node1"><a xlink:title=" ">
<polygon fill="#bfbfbf" stroke="black" points="0,-44.5 0,-74.5 119,-74.5 119,-44.5 0,-44.5"/>
<text text-anchor="start" x="8" y="-62.5" font-family="Helvetica,sans-Serif" font-size="10.00">memory_controller_t</text>
<text text-anchor="middle" x="59.5" y="-51.5" font-family="Helvetica,sans-Serif" font-size="10.00">::allocate</text>
</a>
</g>
</g>
<!-- Node1&#45;&gt;Node1 -->
<g id="edge1" class="edge">
<title>Node1&#45;&gt;Node1</title>
<path fill="none" stroke="midnightblue" d="M32.31,-74.66C25.76,-84.06 34.82,-93 59.5,-93 74.54,-93 83.78,-89.68 87.22,-84.96"/>
<polygon fill="midnightblue" stroke="midnightblue" points="90.7,-84.46 86.69,-74.66 83.71,-84.83 90.7,-84.46"/>
</g>
<!-- Node2 -->
<g id="node2" class="node">
<title>Node2</title>
<g id="a_node2"><a xlink:href="classconfigure__t.html#a15917e4f43ded0a072c8f1017a9f5035" target="_top" xlink:title=" ">
<polygon fill="white" stroke="black" points="155,-72 155,-91 278,-91 278,-72 155,-72"/>
<text text-anchor="middle" x="216.5" y="-79" font-family="Helvetica,sans-Serif" font-size="10.00">configure_t::getConfig</text>
</a>
</g>
</g>
<!-- Node1&#45;&gt;Node2 -->
<g id="edge2" class="edge">
<title>Node1&#45;&gt;Node2</title>
<path fill="none" stroke="midnightblue" d="M119.1,-67.82C127.48,-69.01 136.17,-70.24 144.76,-71.46"/>
<polygon fill="midnightblue" stroke="midnightblue" points="144.36,-74.94 154.75,-72.88 145.35,-68.01 144.36,-74.94"/>
</g>
<!-- Node3 -->
<g id="node3" class="node">
<title>Node3</title>
<g id="a_node3"><a xlink:href="classmemory__controller__t.html#afcc0c0cfd747c3a2f5002017c2d40e28" target="_top" xlink:title=" ">
<polygon fill="white" stroke="black" points="157,-22.5 157,-52.5 276,-52.5 276,-22.5 157,-22.5"/>
<text text-anchor="start" x="165" y="-40.5" font-family="Helvetica,sans-Serif" font-size="10.00">memory_controller_t</text>
<text text-anchor="middle" x="216.5" y="-29.5" font-family="Helvetica,sans-Serif" font-size="10.00">::set_masks</text>
</a>
</g>
</g>
<!-- Node1&#45;&gt;Node3 -->
<g id="edge3" class="edge">
<title>Node1&#45;&gt;Node3</title>
<path fill="none" stroke="midnightblue" d="M119.1,-51.18C128.16,-49.9 137.6,-48.56 146.86,-47.24"/>
<polygon fill="midnightblue" stroke="midnightblue" points="147.41,-50.7 156.82,-45.83 146.43,-43.77 147.41,-50.7"/>
</g>
<!-- Node4 -->
<g id="node4" class="node">
<title>Node4</title>
<g id="a_node4"><a xlink:href="classutils__t.html#a8dc759ed0961089212af1407f56dde35" target="_top" xlink:title=" ">
<polygon fill="white" stroke="black" points="454,-22.5 454,-52.5 582,-52.5 582,-22.5 454,-22.5"/>
<text text-anchor="start" x="462" y="-40.5" font-family="Helvetica,sans-Serif" font-size="10.00">utils_t::check_if_power</text>
<text text-anchor="middle" x="518" y="-29.5" font-family="Helvetica,sans-Serif" font-size="10.00">_of_two</text>
</a>
</g>
</g>
<!-- Node3&#45;&gt;Node4 -->
<g id="edge4" class="edge">
<title>Node3&#45;&gt;Node4</title>
<path fill="none" stroke="midnightblue" d="M276.18,-39.62C288.66,-39.98 301.77,-40.31 314,-40.5 360.22,-41.22 371.78,-41.2 418,-40.5 426.34,-40.37 435.08,-40.19 443.76,-39.97"/>
<polygon fill="midnightblue" stroke="midnightblue" points="443.99,-43.46 453.9,-39.7 443.81,-36.47 443.99,-43.46"/>
</g>
<!-- Node5 -->
<g id="node5" class="node">
<title>Node5</title>
<g id="a_node5"><a xlink:href="classutils__t.html#a9db286f7de201c5b004f35c6bcf3d99f" target="_top" xlink:title=" ">
<polygon fill="white" stroke="black" points="314,-0.5 314,-30.5 418,-30.5 418,-0.5 314,-0.5"/>
<text text-anchor="start" x="322" y="-18.5" font-family="Helvetica,sans-Serif" font-size="10.00">utils_t::get_power</text>
<text text-anchor="middle" x="366" y="-7.5" font-family="Helvetica,sans-Serif" font-size="10.00">_of_two</text>
</a>
</g>
</g>
<!-- Node3&#45;&gt;Node5 -->
<g id="edge5" class="edge">
<title>Node3&#45;&gt;Node5</title>
<path fill="none" stroke="midnightblue" d="M276.22,-28.74C285.21,-27.4 294.51,-26.01 303.55,-24.66"/>
<polygon fill="midnightblue" stroke="midnightblue" points="304.26,-28.1 313.63,-23.16 303.22,-21.18 304.26,-28.1"/>
</g>
<!-- Node5&#45;&gt;Node4 -->
<g id="edge6" class="edge">
<title>Node5&#45;&gt;Node4</title>
<path fill="none" stroke="midnightblue" d="M418.2,-23.01C426.44,-24.22 435.1,-25.49 443.73,-26.75"/>
<polygon fill="midnightblue" stroke="midnightblue" points="443.42,-30.25 453.82,-28.23 444.44,-23.32 443.42,-30.25"/>
</g>
</g>
</svg>
