<?xml version="1.0" encoding="UTF-8" standalone="no"?>
<!DOCTYPE svg PUBLIC "-//W3C//DTD SVG 1.1//EN"
 "http://www.w3.org/Graphics/SVG/1.1/DTD/svg11.dtd">
<!-- Generated by graphviz version 2.43.0 (0)
 -->
<!-- Title: reorder_buffer_line_t::reorder_buffer_line_t Pages: 1 -->
<svg width="600pt" height="39pt"
 viewBox="0.00 0.00 600.00 39.00" xmlns="http://www.w3.org/2000/svg" xmlns:xlink="http://www.w3.org/1999/xlink">
<g id="graph0" class="graph" transform="scale(1 1) rotate(0) translate(4 35)">
<title>reorder_buffer_line_t::reorder_buffer_line_t</title>
<polygon fill="white" stroke="transparent" points="-4,4 -4,-35 596,-35 596,4 -4,4"/>
<!-- Node1 -->
<g id="node1" class="node">
<title>Node1</title>
<g id="a_node1"><a xlink:title="Control flag to remove robs entry.">
<polygon fill="#bfbfbf" stroke="black" points="0,-0.5 0,-30.5 133,-30.5 133,-0.5 0,-0.5"/>
<text text-anchor="start" x="8" y="-18.5" font-family="Helvetica,sans-Serif" font-size="10.00">reorder_buffer_line</text>
<text text-anchor="middle" x="66.5" y="-7.5" font-family="Helvetica,sans-Serif" font-size="10.00">_t::reorder_buffer_line_t</text>
</a>
</g>
</g>
<!-- Node2 -->
<g id="node2" class="node">
<title>Node2</title>
<g id="a_node2"><a xlink:href="classreorder__buffer__line__t.html#a00c04d2e296b72626e95320fca15f52b" target="_top" xlink:title=" ">
<polygon fill="white" stroke="black" points="169,-0.5 169,-30.5 278,-30.5 278,-0.5 169,-0.5"/>
<text text-anchor="start" x="177" y="-18.5" font-family="Helvetica,sans-Serif" font-size="10.00">reorder_buffer_line</text>
<text text-anchor="middle" x="223.5" y="-7.5" font-family="Helvetica,sans-Serif" font-size="10.00">_t::package_clean</text>
</a>
</g>
</g>
<!-- Node1&#45;&gt;Node2 -->
<g id="edge1" class="edge">
<title>Node1&#45;&gt;Node2</title>
<path fill="none" stroke="midnightblue" d="M133.23,-15.5C141.68,-15.5 150.32,-15.5 158.73,-15.5"/>
<polygon fill="midnightblue" stroke="midnightblue" points="158.86,-19 168.86,-15.5 158.86,-12 158.86,-19"/>
</g>
<!-- Node3 -->
<g id="node3" class="node">
<title>Node3</title>
<g id="a_node3"><a xlink:href="classuop__package__t.html#a16775f00efc03adcde9ac66548393182" target="_top" xlink:title=" ">
<polygon fill="white" stroke="black" points="314,-0.5 314,-30.5 450,-30.5 450,-0.5 314,-0.5"/>
<text text-anchor="start" x="322" y="-18.5" font-family="Helvetica,sans-Serif" font-size="10.00">uop_package_t::package</text>
<text text-anchor="middle" x="382" y="-7.5" font-family="Helvetica,sans-Serif" font-size="10.00">_clean</text>
</a>
</g>
</g>
<!-- Node2&#45;&gt;Node3 -->
<g id="edge2" class="edge">
<title>Node2&#45;&gt;Node3</title>
<path fill="none" stroke="midnightblue" d="M278.36,-15.5C286.56,-15.5 295.15,-15.5 303.73,-15.5"/>
<polygon fill="midnightblue" stroke="midnightblue" points="303.77,-19 313.77,-15.5 303.77,-12 303.77,-19"/>
</g>
<!-- Node4 -->
<g id="node4" class="node">
<title>Node4</title>
<g id="a_node4"><a xlink:href="classorcs__engine__t.html#a1c033e3455736ba89052a40c69ebe0af" target="_top" xlink:title=" ">
<polygon fill="white" stroke="black" points="486,-0.5 486,-30.5 592,-30.5 592,-0.5 486,-0.5"/>
<text text-anchor="start" x="494" y="-18.5" font-family="Helvetica,sans-Serif" font-size="10.00">orcs_engine_t::get</text>
<text text-anchor="middle" x="539" y="-7.5" font-family="Helvetica,sans-Serif" font-size="10.00">_global_cycle</text>
</a>
</g>
</g>
<!-- Node3&#45;&gt;Node4 -->
<g id="edge3" class="edge">
<title>Node3&#45;&gt;Node4</title>
<path fill="none" stroke="midnightblue" d="M450.08,-15.5C458.58,-15.5 467.24,-15.5 475.65,-15.5"/>
<polygon fill="midnightblue" stroke="midnightblue" points="475.77,-19 485.77,-15.5 475.77,-12 475.77,-19"/>
</g>
</g>
</svg>
