<?xml version="1.0" encoding="UTF-8" standalone="no"?>
<!DOCTYPE svg PUBLIC "-//W3C//DTD SVG 1.1//EN"
 "http://www.w3.org/Graphics/SVG/1.1/DTD/svg11.dtd">
<!-- Generated by graphviz version 2.43.0 (0)
 -->
<!-- Title: processor_t::removeFrontROB Pages: 1 -->
<svg width="629pt" height="39pt"
 viewBox="0.00 0.00 629.00 39.00" xmlns="http://www.w3.org/2000/svg" xmlns:xlink="http://www.w3.org/1999/xlink">
<g id="graph0" class="graph" transform="scale(1 1) rotate(0) translate(4 35)">
<title>processor_t::removeFrontROB</title>
<polygon fill="white" stroke="transparent" points="-4,4 -4,-35 625,-35 625,4 -4,4"/>
<!-- Node1 -->
<g id="node1" class="node">
<title>Node1</title>
<g id="a_node1"><a xlink:title=" ">
<polygon fill="#bfbfbf" stroke="black" points="0,-6 0,-25 162,-25 162,-6 0,-6"/>
<text text-anchor="middle" x="81" y="-13" font-family="Helvetica,sans-Serif" font-size="10.00">processor_t::removeFrontROB</text>
</a>
</g>
</g>
<!-- Node2 -->
<g id="node2" class="node">
<title>Node2</title>
<g id="a_node2"><a xlink:href="classreorder__buffer__line__t.html#a00c04d2e296b72626e95320fca15f52b" target="_top" xlink:title=" ">
<polygon fill="white" stroke="black" points="198,-0.5 198,-30.5 307,-30.5 307,-0.5 198,-0.5"/>
<text text-anchor="start" x="206" y="-18.5" font-family="Helvetica,sans-Serif" font-size="10.00">reorder_buffer_line</text>
<text text-anchor="middle" x="252.5" y="-7.5" font-family="Helvetica,sans-Serif" font-size="10.00">_t::package_clean</text>
</a>
</g>
</g>
<!-- Node1&#45;&gt;Node2 -->
<g id="edge1" class="edge">
<title>Node1&#45;&gt;Node2</title>
<path fill="none" stroke="midnightblue" d="M162.28,-15.5C170.71,-15.5 179.19,-15.5 187.39,-15.5"/>
<polygon fill="midnightblue" stroke="midnightblue" points="187.62,-19 197.62,-15.5 187.62,-12 187.62,-19"/>
</g>
<!-- Node3 -->
<g id="node3" class="node">
<title>Node3</title>
<g id="a_node3"><a xlink:href="classuop__package__t.html#a16775f00efc03adcde9ac66548393182" target="_top" xlink:title=" ">
<polygon fill="white" stroke="black" points="343,-0.5 343,-30.5 479,-30.5 479,-0.5 343,-0.5"/>
<text text-anchor="start" x="351" y="-18.5" font-family="Helvetica,sans-Serif" font-size="10.00">uop_package_t::package</text>
<text text-anchor="middle" x="411" y="-7.5" font-family="Helvetica,sans-Serif" font-size="10.00">_clean</text>
</a>
</g>
</g>
<!-- Node2&#45;&gt;Node3 -->
<g id="edge2" class="edge">
<title>Node2&#45;&gt;Node3</title>
<path fill="none" stroke="midnightblue" d="M307.36,-15.5C315.56,-15.5 324.15,-15.5 332.73,-15.5"/>
<polygon fill="midnightblue" stroke="midnightblue" points="332.77,-19 342.77,-15.5 332.77,-12 332.77,-19"/>
</g>
<!-- Node4 -->
<g id="node4" class="node">
<title>Node4</title>
<g id="a_node4"><a xlink:href="classorcs__engine__t.html#a1c033e3455736ba89052a40c69ebe0af" target="_top" xlink:title=" ">
<polygon fill="white" stroke="black" points="515,-0.5 515,-30.5 621,-30.5 621,-0.5 515,-0.5"/>
<text text-anchor="start" x="523" y="-18.5" font-family="Helvetica,sans-Serif" font-size="10.00">orcs_engine_t::get</text>
<text text-anchor="middle" x="568" y="-7.5" font-family="Helvetica,sans-Serif" font-size="10.00">_global_cycle</text>
</a>
</g>
</g>
<!-- Node3&#45;&gt;Node4 -->
<g id="edge3" class="edge">
<title>Node3&#45;&gt;Node4</title>
<path fill="none" stroke="midnightblue" d="M479.08,-15.5C487.58,-15.5 496.24,-15.5 504.65,-15.5"/>
<polygon fill="midnightblue" stroke="midnightblue" points="504.77,-19 514.77,-15.5 504.77,-12 504.77,-19"/>
</g>
</g>
</svg>
