<?xml version="1.0" encoding="UTF-8" standalone="no"?>
<!DOCTYPE svg PUBLIC "-//W3C//DTD SVG 1.1//EN"
 "http://www.w3.org/Graphics/SVG/1.1/DTD/svg11.dtd">
<!-- Generated by graphviz version 2.43.0 (0)
 -->
<!-- Title: disambiguation_hashed_t::allocate Pages: 1 -->
<svg width="464pt" height="100pt"
 viewBox="0.00 0.00 464.00 99.50" xmlns="http://www.w3.org/2000/svg" xmlns:xlink="http://www.w3.org/1999/xlink">
<g id="graph0" class="graph" transform="scale(1 1) rotate(0) translate(4 95.5)">
<title>disambiguation_hashed_t::allocate</title>
<polygon fill="white" stroke="transparent" points="-4,4 -4,-95.5 460,-95.5 460,4 -4,4"/>
<!-- Node1 -->
<g id="node1" class="node">
<title>Node1</title>
<g id="a_node1"><a xlink:title=" ">
<polygon fill="#bfbfbf" stroke="black" points="0,-39 0,-69 133,-69 133,-39 0,-39"/>
<text text-anchor="start" x="8" y="-57" font-family="Helvetica,sans-Serif" font-size="10.00">disambiguation_hashed</text>
<text text-anchor="middle" x="66.5" y="-46" font-family="Helvetica,sans-Serif" font-size="10.00">_t::allocate</text>
</a>
</g>
</g>
<!-- Node2 -->
<g id="node2" class="node">
<title>Node2</title>
<g id="a_node2"><a xlink:href="classutils__t.html#a8dc759ed0961089212af1407f56dde35" target="_top" xlink:title=" ">
<polygon fill="white" stroke="black" points="328,-61 328,-91 456,-91 456,-61 328,-61"/>
<text text-anchor="start" x="336" y="-79" font-family="Helvetica,sans-Serif" font-size="10.00">utils_t::check_if_power</text>
<text text-anchor="middle" x="392" y="-68" font-family="Helvetica,sans-Serif" font-size="10.00">_of_two</text>
</a>
</g>
</g>
<!-- Node1&#45;&gt;Node2 -->
<g id="edge1" class="edge">
<title>Node1&#45;&gt;Node2</title>
<path fill="none" stroke="midnightblue" d="M118.17,-69.03C134.27,-73.11 152.25,-76.97 169,-79 218.24,-84.97 274.07,-84.18 317.43,-81.92"/>
<polygon fill="midnightblue" stroke="midnightblue" points="317.81,-85.41 327.6,-81.35 317.42,-78.42 317.81,-85.41"/>
</g>
<!-- Node3 -->
<g id="node3" class="node">
<title>Node3</title>
<g id="a_node3"><a xlink:href="classutils__t.html#a9db286f7de201c5b004f35c6bcf3d99f" target="_top" xlink:title=" ">
<polygon fill="white" stroke="black" points="178.5,-39 178.5,-69 282.5,-69 282.5,-39 178.5,-39"/>
<text text-anchor="start" x="186.5" y="-57" font-family="Helvetica,sans-Serif" font-size="10.00">utils_t::get_power</text>
<text text-anchor="middle" x="230.5" y="-46" font-family="Helvetica,sans-Serif" font-size="10.00">_of_two</text>
</a>
</g>
</g>
<!-- Node1&#45;&gt;Node3 -->
<g id="edge2" class="edge">
<title>Node1&#45;&gt;Node3</title>
<path fill="none" stroke="midnightblue" d="M133.39,-54C144.86,-54 156.75,-54 168.09,-54"/>
<polygon fill="midnightblue" stroke="midnightblue" points="168.33,-57.5 178.33,-54 168.33,-50.5 168.33,-57.5"/>
</g>
<!-- Node4 -->
<g id="node4" class="node">
<title>Node4</title>
<g id="a_node4"><a xlink:href="classconfigure__t.html#a15917e4f43ded0a072c8f1017a9f5035" target="_top" xlink:title=" ">
<polygon fill="white" stroke="black" points="169,-0.5 169,-19.5 292,-19.5 292,-0.5 169,-0.5"/>
<text text-anchor="middle" x="230.5" y="-7.5" font-family="Helvetica,sans-Serif" font-size="10.00">configure_t::getConfig</text>
</a>
</g>
</g>
<!-- Node1&#45;&gt;Node4 -->
<g id="edge4" class="edge">
<title>Node1&#45;&gt;Node4</title>
<path fill="none" stroke="midnightblue" d="M122.8,-38.98C142.94,-33.51 165.44,-27.4 184.57,-22.2"/>
<polygon fill="midnightblue" stroke="midnightblue" points="185.5,-25.58 194.23,-19.58 183.67,-18.82 185.5,-25.58"/>
</g>
<!-- Node3&#45;&gt;Node2 -->
<g id="edge3" class="edge">
<title>Node3&#45;&gt;Node2</title>
<path fill="none" stroke="midnightblue" d="M282.84,-61.08C293.9,-62.61 305.8,-64.25 317.51,-65.86"/>
<polygon fill="midnightblue" stroke="midnightblue" points="317.35,-69.37 327.74,-67.27 318.31,-62.44 317.35,-69.37"/>
</g>
</g>
</svg>
