<?xml version="1.0" encoding="UTF-8" standalone="no"?>
<!DOCTYPE svg PUBLIC "-//W3C//DTD SVG 1.1//EN"
 "http://www.w3.org/Graphics/SVG/1.1/DTD/svg11.dtd">
<!-- Generated by graphviz version 2.43.0 (0)
 -->
<!-- Title: memory_package_t::printPackage Pages: 1 -->
<svg width="415pt" height="116pt"
 viewBox="0.00 0.00 415.00 115.50" xmlns="http://www.w3.org/2000/svg" xmlns:xlink="http://www.w3.org/1999/xlink">
<g id="graph0" class="graph" transform="scale(1 1) rotate(0) translate(4 111.5)">
<title>memory_package_t::printPackage</title>
<polygon fill="white" stroke="transparent" points="-4,4 -4,-111.5 411,-111.5 411,4 -4,4"/>
<!-- Node1 -->
<g id="node1" class="node">
<title>Node1</title>
<g id="a_node1"><a xlink:title=" ">
<polygon fill="#bfbfbf" stroke="black" points="0,-50 0,-69 181,-69 181,-50 0,-50"/>
<text text-anchor="middle" x="90.5" y="-57" font-family="Helvetica,sans-Serif" font-size="10.00">memory_package_t::printPackage</text>
</a>
</g>
</g>
<!-- Node2 -->
<g id="node2" class="node">
<title>Node2</title>
<g id="a_node2"><a xlink:href="enumerations_8cpp.html#abb39d040475b58d11b29c242b33091e1" target="_top" xlink:title="Enumerates the MEMORY OPERATION OF MOB,debug only.">
<polygon fill="white" stroke="black" points="217,-88 217,-107 407,-107 407,-88 217,-88"/>
<text text-anchor="middle" x="312" y="-95" font-family="Helvetica,sans-Serif" font-size="10.00">get_enum_memory_operation_char</text>
</a>
</g>
</g>
<!-- Node1&#45;&gt;Node2 -->
<g id="edge1" class="edge">
<title>Node1&#45;&gt;Node2</title>
<path fill="none" stroke="midnightblue" d="M146.61,-69.04C176.74,-74.26 214.26,-80.75 245.84,-86.22"/>
<polygon fill="midnightblue" stroke="midnightblue" points="245.42,-89.7 255.87,-87.96 246.62,-82.8 245.42,-89.7"/>
</g>
<!-- Node3 -->
<g id="node3" class="node">
<title>Node3</title>
<g id="a_node3"><a xlink:href="enumerations_8cpp.html#a4f1219a7c31d137c368e36cea5be9128" target="_top" xlink:title="Enumerates the package state,.">
<polygon fill="white" stroke="black" points="228.5,-50 228.5,-69 395.5,-69 395.5,-50 228.5,-50"/>
<text text-anchor="middle" x="312" y="-57" font-family="Helvetica,sans-Serif" font-size="10.00">get_enum_package_state_char</text>
</a>
</g>
</g>
<!-- Node1&#45;&gt;Node3 -->
<g id="edge2" class="edge">
<title>Node1&#45;&gt;Node3</title>
<path fill="none" stroke="midnightblue" d="M181.1,-59.5C193.32,-59.5 205.89,-59.5 218.17,-59.5"/>
<polygon fill="midnightblue" stroke="midnightblue" points="218.4,-63 228.4,-59.5 218.4,-56 218.4,-63"/>
</g>
<!-- Node4 -->
<g id="node4" class="node">
<title>Node4</title>
<g id="a_node4"><a xlink:href="classorcs__engine__t.html#a1c033e3455736ba89052a40c69ebe0af" target="_top" xlink:title=" ">
<polygon fill="white" stroke="black" points="259,-0.5 259,-30.5 365,-30.5 365,-0.5 259,-0.5"/>
<text text-anchor="start" x="267" y="-18.5" font-family="Helvetica,sans-Serif" font-size="10.00">orcs_engine_t::get</text>
<text text-anchor="middle" x="312" y="-7.5" font-family="Helvetica,sans-Serif" font-size="10.00">_global_cycle</text>
</a>
</g>
</g>
<!-- Node1&#45;&gt;Node4 -->
<g id="edge3" class="edge">
<title>Node1&#45;&gt;Node4</title>
<path fill="none" stroke="midnightblue" d="M139.13,-49.95C171.26,-43.51 213.99,-34.95 248.8,-27.97"/>
<polygon fill="midnightblue" stroke="midnightblue" points="249.74,-31.35 258.86,-25.95 248.37,-24.49 249.74,-31.35"/>
</g>
</g>
</svg>
