<?xml version="1.0" encoding="UTF-8" standalone="no"?>
<!DOCTYPE svg PUBLIC "-//W3C//DTD SVG 1.1//EN"
 "http://www.w3.org/Graphics/SVG/1.1/DTD/svg11.dtd">
<!-- Generated by graphviz version 2.43.0 (0)
 -->
<!-- Title: reorder_buffer_line_t::content_to_string2 Pages: 1 -->
<svg width="456pt" height="225pt"
 viewBox="0.00 0.00 456.00 225.00" xmlns="http://www.w3.org/2000/svg" xmlns:xlink="http://www.w3.org/1999/xlink">
<g id="graph0" class="graph" transform="scale(1 1) rotate(0) translate(4 221)">
<title>reorder_buffer_line_t::content_to_string2</title>
<polygon fill="white" stroke="transparent" points="-4,4 -4,-221 452,-221 452,4 -4,4"/>
<!-- Node1 -->
<g id="node1" class="node">
<title>Node1</title>
<g id="a_node1"><a xlink:title=" ">
<polygon fill="#bfbfbf" stroke="black" points="0,-82.5 0,-112.5 122,-112.5 122,-82.5 0,-82.5"/>
<text text-anchor="start" x="8" y="-100.5" font-family="Helvetica,sans-Serif" font-size="10.00">reorder_buffer_line</text>
<text text-anchor="middle" x="61" y="-89.5" font-family="Helvetica,sans-Serif" font-size="10.00">_t::content_to_string2</text>
</a>
</g>
</g>
<!-- Node2 -->
<g id="node2" class="node">
<title>Node2</title>
<g id="a_node2"><a xlink:href="classutils__t.html#a6119f6b64f0de103f7e051345fe2e87f" target="_top" xlink:title=" ">
<polygon fill="white" stroke="black" points="163,-176 163,-195 285,-195 285,-176 163,-176"/>
<text text-anchor="middle" x="224" y="-183" font-family="Helvetica,sans-Serif" font-size="10.00">utils_t::bool_to_string</text>
</a>
</g>
</g>
<!-- Node1&#45;&gt;Node2 -->
<g id="edge1" class="edge">
<title>Node1&#45;&gt;Node2</title>
<path fill="none" stroke="midnightblue" d="M79.24,-112.68C97.61,-128.16 128.11,-151.92 158,-166.5 162.64,-168.76 167.59,-170.81 172.62,-172.64"/>
<polygon fill="midnightblue" stroke="midnightblue" points="171.73,-176.03 182.32,-175.91 173.97,-169.4 171.73,-176.03"/>
</g>
<!-- Node3 -->
<g id="node3" class="node">
<title>Node3</title>
<g id="a_node3"><a xlink:href="classuop__package__t.html#a61c87d245f4d27f08261c2cfcc729e90" target="_top" xlink:title="Convert Instruction variables into String.">
<polygon fill="white" stroke="black" points="158,-126.5 158,-156.5 290,-156.5 290,-126.5 158,-126.5"/>
<text text-anchor="start" x="166" y="-144.5" font-family="Helvetica,sans-Serif" font-size="10.00">uop_package_t::content</text>
<text text-anchor="middle" x="224" y="-133.5" font-family="Helvetica,sans-Serif" font-size="10.00">_to_string</text>
</a>
</g>
</g>
<!-- Node1&#45;&gt;Node3 -->
<g id="edge2" class="edge">
<title>Node1&#45;&gt;Node3</title>
<path fill="none" stroke="midnightblue" d="M116.96,-112.52C130.22,-116.15 144.53,-120.05 158.2,-123.79"/>
<polygon fill="midnightblue" stroke="midnightblue" points="157.45,-127.21 168.02,-126.47 159.29,-120.46 157.45,-127.21"/>
</g>
<!-- Node6 -->
<g id="node6" class="node">
<title>Node6</title>
<g id="a_node6"><a xlink:href="classutils__t.html#a07f0f224928b89eb53c4430d05799916" target="_top" xlink:title=" ">
<polygon fill="white" stroke="black" points="338,-88.5 338,-118.5 436,-118.5 436,-88.5 338,-88.5"/>
<text text-anchor="start" x="346" y="-106.5" font-family="Helvetica,sans-Serif" font-size="10.00">utils_t::uint32_to</text>
<text text-anchor="middle" x="387" y="-95.5" font-family="Helvetica,sans-Serif" font-size="10.00">_string</text>
</a>
</g>
</g>
<!-- Node1&#45;&gt;Node6 -->
<g id="edge8" class="edge">
<title>Node1&#45;&gt;Node6</title>
<path fill="none" stroke="midnightblue" d="M122.18,-98.61C180.88,-99.7 269.57,-101.34 327.64,-102.42"/>
<polygon fill="midnightblue" stroke="midnightblue" points="327.69,-105.92 337.75,-102.61 327.82,-98.92 327.69,-105.92"/>
</g>
<!-- Node7 -->
<g id="node7" class="node">
<title>Node7</title>
<g id="a_node7"><a xlink:href="classutils__t.html#aa30deed2def3a1339369e6806073e9fd" target="_top" xlink:title=" ">
<polygon fill="white" stroke="black" points="338,-39.5 338,-69.5 436,-69.5 436,-39.5 338,-39.5"/>
<text text-anchor="start" x="346" y="-57.5" font-family="Helvetica,sans-Serif" font-size="10.00">utils_t::uint64_to</text>
<text text-anchor="middle" x="387" y="-46.5" font-family="Helvetica,sans-Serif" font-size="10.00">_string</text>
</a>
</g>
</g>
<!-- Node1&#45;&gt;Node7 -->
<g id="edge9" class="edge">
<title>Node1&#45;&gt;Node7</title>
<path fill="none" stroke="midnightblue" d="M122.18,-89.51C180.88,-81.72 269.57,-69.95 327.64,-62.25"/>
<polygon fill="midnightblue" stroke="midnightblue" points="328.3,-65.69 337.75,-60.9 327.38,-58.75 328.3,-65.69"/>
</g>
<!-- Node8 -->
<g id="node8" class="node">
<title>Node8</title>
<g id="a_node8"><a xlink:href="enumerations_8cpp.html#ad105be945954dbff8a0b2ce5a2a93b98" target="_top" xlink:title="Enumerates the processor stages, used to indicate when the branch will be solved.">
<polygon fill="white" stroke="black" points="165,-0.5 165,-30.5 283,-30.5 283,-0.5 165,-0.5"/>
<text text-anchor="start" x="173" y="-18.5" font-family="Helvetica,sans-Serif" font-size="10.00">get_enum_processor</text>
<text text-anchor="middle" x="224" y="-7.5" font-family="Helvetica,sans-Serif" font-size="10.00">_stage_char</text>
</a>
</g>
</g>
<!-- Node1&#45;&gt;Node8 -->
<g id="edge7" class="edge">
<title>Node1&#45;&gt;Node8</title>
<path fill="none" stroke="midnightblue" d="M88.66,-82.47C107.79,-71.82 134.27,-57.39 158,-45.5 165.11,-41.94 172.73,-38.28 180.15,-34.8"/>
<polygon fill="midnightblue" stroke="midnightblue" points="181.81,-37.89 189.4,-30.51 178.86,-31.54 181.81,-37.89"/>
</g>
<!-- Node4 -->
<g id="node4" class="node">
<title>Node4</title>
<g id="a_node4"><a xlink:href="classutils__t.html#ae3f4242cda49254d8d43f5d012d00419" target="_top" xlink:title=" ">
<polygon fill="white" stroke="black" points="335,-186.5 335,-216.5 439,-216.5 439,-186.5 335,-186.5"/>
<text text-anchor="start" x="343" y="-204.5" font-family="Helvetica,sans-Serif" font-size="10.00">utils_t::big_uint64</text>
<text text-anchor="middle" x="387" y="-193.5" font-family="Helvetica,sans-Serif" font-size="10.00">_to_string</text>
</a>
</g>
</g>
<!-- Node3&#45;&gt;Node4 -->
<g id="edge3" class="edge">
<title>Node3&#45;&gt;Node4</title>
<path fill="none" stroke="midnightblue" d="M265.63,-156.64C287.06,-164.63 313.55,-174.5 336.21,-182.95"/>
<polygon fill="midnightblue" stroke="midnightblue" points="335.07,-186.26 345.67,-186.47 337.52,-179.7 335.07,-186.26"/>
</g>
<!-- Node5 -->
<g id="node5" class="node">
<title>Node5</title>
<g id="a_node5"><a xlink:href="enumerations_8cpp.html#a29b4f0c7eca5c960bab850a56e5e411c" target="_top" xlink:title=" ">
<polygon fill="white" stroke="black" points="326,-137.5 326,-167.5 448,-167.5 448,-137.5 326,-137.5"/>
<text text-anchor="start" x="334" y="-155.5" font-family="Helvetica,sans-Serif" font-size="10.00">get_enum_instruction</text>
<text text-anchor="middle" x="387" y="-144.5" font-family="Helvetica,sans-Serif" font-size="10.00">_operation_char</text>
</a>
</g>
</g>
<!-- Node3&#45;&gt;Node5 -->
<g id="edge4" class="edge">
<title>Node3&#45;&gt;Node5</title>
<path fill="none" stroke="midnightblue" d="M290.02,-145.94C298.55,-146.53 307.32,-147.12 315.93,-147.71"/>
<polygon fill="midnightblue" stroke="midnightblue" points="315.73,-151.21 325.94,-148.4 316.2,-144.22 315.73,-151.21"/>
</g>
<!-- Node3&#45;&gt;Node6 -->
<g id="edge5" class="edge">
<title>Node3&#45;&gt;Node6</title>
<path fill="none" stroke="midnightblue" d="M288.63,-126.48C301.53,-123.44 315.04,-120.25 327.74,-117.25"/>
<polygon fill="midnightblue" stroke="midnightblue" points="328.8,-120.6 337.73,-114.89 327.19,-113.78 328.8,-120.6"/>
</g>
<!-- Node3&#45;&gt;Node7 -->
<g id="edge6" class="edge">
<title>Node3&#45;&gt;Node7</title>
<path fill="none" stroke="midnightblue" d="M247.28,-126.43C267.37,-113.18 297.97,-93.83 326,-79.5 329.79,-77.56 333.76,-75.66 337.78,-73.81"/>
<polygon fill="midnightblue" stroke="midnightblue" points="339.47,-76.89 347.19,-69.63 336.63,-70.49 339.47,-76.89"/>
</g>
</g>
</svg>
