<?xml version="1.0" encoding="UTF-8" standalone="no"?>
<!DOCTYPE svg PUBLIC "-//W3C//DTD SVG 1.1//EN"
 "http://www.w3.org/Graphics/SVG/1.1/DTD/svg11.dtd">
<!-- Generated by graphviz version 2.43.0 (0)
 -->
<!-- Title: cache_manager_t::searchAddress Pages: 1 -->
<svg width="503pt" height="78pt"
 viewBox="0.00 0.00 503.00 77.50" xmlns="http://www.w3.org/2000/svg" xmlns:xlink="http://www.w3.org/1999/xlink">
<g id="graph0" class="graph" transform="scale(1 1) rotate(0) translate(4 73.5)">
<title>cache_manager_t::searchAddress</title>
<polygon fill="white" stroke="transparent" points="-4,4 -4,-73.5 499,-73.5 499,4 -4,4"/>
<!-- Node1 -->
<g id="node1" class="node">
<title>Node1</title>
<g id="a_node1"><a xlink:title=" ">
<polygon fill="#bfbfbf" stroke="black" points="0,-22.5 0,-41.5 180,-41.5 180,-22.5 0,-22.5"/>
<text text-anchor="middle" x="90" y="-29.5" font-family="Helvetica,sans-Serif" font-size="10.00">cache_manager_t::searchAddress</text>
</a>
</g>
</g>
<!-- Node2 -->
<g id="node2" class="node">
<title>Node2</title>
<g id="a_node2"><a xlink:href="classcache__t.html#ab35480bbdb86dc151edb0a3fa64d9e2d" target="_top" xlink:title=" ">
<polygon fill="white" stroke="black" points="216,-22.5 216,-41.5 298,-41.5 298,-22.5 216,-22.5"/>
<text text-anchor="middle" x="257" y="-29.5" font-family="Helvetica,sans-Serif" font-size="10.00">cache_t::read</text>
</a>
</g>
</g>
<!-- Node1&#45;&gt;Node2 -->
<g id="edge1" class="edge">
<title>Node1&#45;&gt;Node2</title>
<path fill="none" stroke="midnightblue" d="M180.26,-32C189.02,-32 197.67,-32 205.82,-32"/>
<polygon fill="midnightblue" stroke="midnightblue" points="205.85,-35.5 215.85,-32 205.85,-28.5 205.85,-35.5"/>
</g>
<!-- Node3 -->
<g id="node3" class="node">
<title>Node3</title>
<g id="a_node3"><a xlink:href="classorcs__engine__t.html#a1c033e3455736ba89052a40c69ebe0af" target="_top" xlink:title=" ">
<polygon fill="white" stroke="black" points="361.5,-39 361.5,-69 467.5,-69 467.5,-39 361.5,-39"/>
<text text-anchor="start" x="369.5" y="-57" font-family="Helvetica,sans-Serif" font-size="10.00">orcs_engine_t::get</text>
<text text-anchor="middle" x="414.5" y="-46" font-family="Helvetica,sans-Serif" font-size="10.00">_global_cycle</text>
</a>
</g>
</g>
<!-- Node2&#45;&gt;Node3 -->
<g id="edge2" class="edge">
<title>Node2&#45;&gt;Node3</title>
<path fill="none" stroke="midnightblue" d="M298.05,-37.67C314.22,-39.95 333.26,-42.65 351.17,-45.18"/>
<polygon fill="midnightblue" stroke="midnightblue" points="350.87,-48.67 361.26,-46.61 351.85,-41.74 350.87,-48.67"/>
</g>
<!-- Node4 -->
<g id="node4" class="node">
<title>Node4</title>
<g id="a_node4"><a xlink:href="classcache__t.html#a8fa855f06d00efbcdbe0f4c64add2242" target="_top" xlink:title=" ">
<polygon fill="white" stroke="black" points="334,-0.5 334,-19.5 495,-19.5 495,-0.5 334,-0.5"/>
<text text-anchor="middle" x="414.5" y="-7.5" font-family="Helvetica,sans-Serif" font-size="10.00">cache_t::tagIdxSetCalculation</text>
</a>
</g>
</g>
<!-- Node2&#45;&gt;Node4 -->
<g id="edge3" class="edge">
<title>Node2&#45;&gt;Node4</title>
<path fill="none" stroke="midnightblue" d="M298.05,-26.33C309.73,-24.68 322.92,-22.81 336.1,-20.95"/>
<polygon fill="midnightblue" stroke="midnightblue" points="336.73,-24.4 346.15,-19.53 335.75,-17.46 336.73,-24.4"/>
</g>
</g>
</svg>
