<?xml version="1.0" encoding="UTF-8" standalone="no"?>
<!DOCTYPE svg PUBLIC "-//W3C//DTD SVG 1.1//EN"
 "http://www.w3.org/Graphics/SVG/1.1/DTD/svg11.dtd">
<!-- Generated by graphviz version 2.43.0 (0)
 -->
<!-- Title: cache_manager_t::statistics Pages: 1 -->
<svg width="575pt" height="192pt"
 viewBox="0.00 0.00 575.00 191.50" xmlns="http://www.w3.org/2000/svg" xmlns:xlink="http://www.w3.org/1999/xlink">
<g id="graph0" class="graph" transform="scale(1 1) rotate(0) translate(4 187.5)">
<title>cache_manager_t::statistics</title>
<polygon fill="white" stroke="transparent" points="-4,4 -4,-187.5 571,-187.5 571,4 -4,4"/>
<!-- Node1 -->
<g id="node1" class="node">
<title>Node1</title>
<g id="a_node1"><a xlink:title=" ">
<polygon fill="#bfbfbf" stroke="black" points="0,-76.5 0,-95.5 153,-95.5 153,-76.5 0,-76.5"/>
<text text-anchor="middle" x="76.5" y="-83.5" font-family="Helvetica,sans-Serif" font-size="10.00">cache_manager_t::statistics</text>
</a>
</g>
</g>
<!-- Node2 -->
<g id="node2" class="node">
<title>Node2</title>
<g id="a_node2"><a xlink:href="classcache__manager__t.html#a1d0eab3491ced37cfc80481d8e71274f" target="_top" xlink:title=" ">
<polygon fill="white" stroke="black" points="189,-153 189,-183 341,-183 341,-153 189,-153"/>
<text text-anchor="start" x="197" y="-171" font-family="Helvetica,sans-Serif" font-size="10.00">cache_manager_t::generate</text>
<text text-anchor="middle" x="265" y="-160" font-family="Helvetica,sans-Serif" font-size="10.00">IndexArray</text>
</a>
</g>
</g>
<!-- Node1&#45;&gt;Node2 -->
<g id="edge1" class="edge">
<title>Node1&#45;&gt;Node2</title>
<path fill="none" stroke="midnightblue" d="M97.09,-95.54C119.24,-106.23 156.46,-123.92 189,-138 197.6,-141.72 206.82,-145.55 215.75,-149.16"/>
<polygon fill="midnightblue" stroke="midnightblue" points="214.71,-152.51 225.29,-152.99 217.31,-146.02 214.71,-152.51"/>
</g>
<!-- Node3 -->
<g id="node3" class="node">
<title>Node3</title>
<g id="a_node3"><a xlink:href="enumerations_8cpp.html#abb39d040475b58d11b29c242b33091e1" target="_top" xlink:title="Enumerates the MEMORY OPERATION OF MOB,debug only.">
<polygon fill="white" stroke="black" points="377,-95.5 377,-114.5 567,-114.5 567,-95.5 377,-95.5"/>
<text text-anchor="middle" x="472" y="-102.5" font-family="Helvetica,sans-Serif" font-size="10.00">get_enum_memory_operation_char</text>
</a>
</g>
</g>
<!-- Node1&#45;&gt;Node3 -->
<g id="edge2" class="edge">
<title>Node1&#45;&gt;Node3</title>
<path fill="none" stroke="midnightblue" d="M122.85,-95.51C143,-99.28 167.09,-103.15 189,-105 247.66,-109.96 313.44,-110.26 366.7,-109.19"/>
<polygon fill="midnightblue" stroke="midnightblue" points="366.91,-112.68 376.83,-108.96 366.76,-105.68 366.91,-112.68"/>
</g>
<!-- Node4 -->
<g id="node4" class="node">
<title>Node4</title>
<g id="a_node4"><a xlink:href="classutils__t.html#abafa243d8076ea3a7469a3a84920dcf2" target="_top" xlink:title=" ">
<polygon fill="white" stroke="black" points="198,-76.5 198,-95.5 332,-95.5 332,-76.5 198,-76.5"/>
<text text-anchor="middle" x="265" y="-83.5" font-family="Helvetica,sans-Serif" font-size="10.00">utils_t::largestSeparator</text>
</a>
</g>
</g>
<!-- Node1&#45;&gt;Node4 -->
<g id="edge3" class="edge">
<title>Node1&#45;&gt;Node4</title>
<path fill="none" stroke="midnightblue" d="M153.09,-86C164.45,-86 176.18,-86 187.56,-86"/>
<polygon fill="midnightblue" stroke="midnightblue" points="187.9,-89.5 197.9,-86 187.9,-82.5 187.9,-89.5"/>
</g>
<!-- Node5 -->
<g id="node5" class="node">
<title>Node5</title>
<g id="a_node5"><a xlink:href="classcache__t.html#a8179690788b94336b2c071cf3f0b8333" target="_top" xlink:title=" ">
<polygon fill="white" stroke="black" points="213,-38.5 213,-57.5 317,-57.5 317,-38.5 213,-38.5"/>
<text text-anchor="middle" x="265" y="-45.5" font-family="Helvetica,sans-Serif" font-size="10.00">cache_t::statistics</text>
</a>
</g>
</g>
<!-- Node1&#45;&gt;Node5 -->
<g id="edge4" class="edge">
<title>Node1&#45;&gt;Node5</title>
<path fill="none" stroke="midnightblue" d="M124.56,-76.41C149.73,-71.28 180.9,-64.93 207.38,-59.54"/>
<polygon fill="midnightblue" stroke="midnightblue" points="208.18,-62.95 217.28,-57.52 206.78,-56.09 208.18,-62.95"/>
</g>
<!-- Node7 -->
<g id="node7" class="node">
<title>Node7</title>
<g id="a_node7"><a xlink:href="classprefetcher__t.html#a6c0d830ef107dc0e1ba0c8d405cbdc1c" target="_top" xlink:title=" ">
<polygon fill="white" stroke="black" points="202,-0.5 202,-19.5 328,-19.5 328,-0.5 202,-0.5"/>
<text text-anchor="middle" x="265" y="-7.5" font-family="Helvetica,sans-Serif" font-size="10.00">prefetcher_t::statistics</text>
</a>
</g>
</g>
<!-- Node1&#45;&gt;Node7 -->
<g id="edge7" class="edge">
<title>Node1&#45;&gt;Node7</title>
<path fill="none" stroke="midnightblue" d="M93.6,-76.31C114.81,-63.88 153.6,-42.34 189,-29 195.5,-26.55 202.44,-24.31 209.37,-22.31"/>
<polygon fill="midnightblue" stroke="midnightblue" points="210.76,-25.56 219.47,-19.53 208.9,-18.81 210.76,-25.56"/>
</g>
<!-- Node5&#45;&gt;Node3 -->
<g id="edge6" class="edge">
<title>Node5&#45;&gt;Node3</title>
<path fill="none" stroke="midnightblue" d="M305,-57.59C316.6,-60.53 329.34,-63.82 341,-67 370.84,-75.14 404.34,-84.95 429.85,-92.56"/>
<polygon fill="midnightblue" stroke="midnightblue" points="428.98,-95.95 439.57,-95.47 430.99,-89.25 428.98,-95.95"/>
</g>
<!-- Node6 -->
<g id="node6" class="node">
<title>Node6</title>
<g id="a_node6"><a xlink:href="enumerations_8cpp.html#ab2f1f56df233c1decaf1c4736bbdba39" target="_top" xlink:title=" ">
<polygon fill="white" stroke="black" points="396,-38.5 396,-57.5 548,-57.5 548,-38.5 396,-38.5"/>
<text text-anchor="middle" x="472" y="-45.5" font-family="Helvetica,sans-Serif" font-size="10.00">get_enum_cache_type_char</text>
</a>
</g>
</g>
<!-- Node5&#45;&gt;Node6 -->
<g id="edge5" class="edge">
<title>Node5&#45;&gt;Node6</title>
<path fill="none" stroke="midnightblue" d="M317.2,-48C337.86,-48 362.27,-48 385.48,-48"/>
<polygon fill="midnightblue" stroke="midnightblue" points="385.69,-51.5 395.69,-48 385.69,-44.5 385.69,-51.5"/>
</g>
<!-- Node8 -->
<g id="node8" class="node">
<title>Node8</title>
<g id="a_node8"><a xlink:href="classutils__t.html#aeb2b5b79b513745a3fd1196b8c192f88" target="_top" xlink:title=" ">
<polygon fill="white" stroke="black" points="409.5,-0.5 409.5,-19.5 534.5,-19.5 534.5,-0.5 409.5,-0.5"/>
<text text-anchor="middle" x="472" y="-7.5" font-family="Helvetica,sans-Serif" font-size="10.00">utils_t::largeSeparator</text>
</a>
</g>
</g>
<!-- Node7&#45;&gt;Node8 -->
<g id="edge8" class="edge">
<title>Node7&#45;&gt;Node8</title>
<path fill="none" stroke="midnightblue" d="M328.06,-10C350.44,-10 375.88,-10 399.04,-10"/>
<polygon fill="midnightblue" stroke="midnightblue" points="399.15,-13.5 409.15,-10 399.15,-6.5 399.15,-13.5"/>
</g>
</g>
</svg>
