<?xml version="1.0" encoding="UTF-8" standalone="no"?>
<!DOCTYPE svg PUBLIC "-//W3C//DTD SVG 1.1//EN"
 "http://www.w3.org/Graphics/SVG/1.1/DTD/svg11.dtd">
<!-- Generated by graphviz version 2.43.0 (0)
 -->
<!-- Title: hive_controller_t Pages: 1 -->
<svg width="224pt" height="229pt"
 viewBox="0.00 0.00 224.00 229.00" xmlns="http://www.w3.org/2000/svg" xmlns:xlink="http://www.w3.org/1999/xlink">
<g id="graph0" class="graph" transform="scale(1 1) rotate(0) translate(4 225)">
<title>hive_controller_t</title>
<polygon fill="white" stroke="transparent" points="-4,4 -4,-225 220,-225 220,4 -4,4"/>
<!-- Node1 -->
<g id="node1" class="node">
<title>Node1</title>
<g id="a_node1"><a xlink:title=" ">
<polygon fill="#bfbfbf" stroke="black" points="37,-0.5 37,-19.5 135,-19.5 135,-0.5 37,-0.5"/>
<text text-anchor="middle" x="86" y="-7.5" font-family="Helvetica,sans-Serif" font-size="10.00">hive_controller_t</text>
</a>
</g>
</g>
<!-- Node2 -->
<g id="node2" class="node">
<title>Node2</title>
<g id="a_node2"><a xlink:href="classcache__t.html" target="_top" xlink:title=" ">
<polygon fill="white" stroke="black" points="8,-67.5 8,-86.5 62,-86.5 62,-67.5 8,-67.5"/>
<text text-anchor="middle" x="35" y="-74.5" font-family="Helvetica,sans-Serif" font-size="10.00">cache_t</text>
</a>
</g>
</g>
<!-- Node2&#45;&gt;Node1 -->
<g id="edge1" class="edge">
<title>Node2&#45;&gt;Node1</title>
<path fill="none" stroke="#9a32cd" stroke-dasharray="5,2" d="M43.18,-58.37C46.67,-51.68 51.09,-44.19 56,-38 61.41,-31.2 68.61,-24.65 74.61,-19.71"/>
<polygon fill="#9a32cd" stroke="#9a32cd" points="40.03,-56.83 38.76,-67.35 46.32,-59.92 40.03,-56.83"/>
<text text-anchor="middle" x="85.5" y="-41" font-family="Helvetica,sans-Serif" font-size="10.00"> data_cache</text>
</g>
<!-- Node3 -->
<g id="node3" class="node">
<title>Node3</title>
<g id="a_node3"><a xlink:href="classcache_set__t.html" target="_top" xlink:title=" ">
<polygon fill="white" stroke="black" points="0,-134.5 0,-153.5 70,-153.5 70,-134.5 0,-134.5"/>
<text text-anchor="middle" x="35" y="-141.5" font-family="Helvetica,sans-Serif" font-size="10.00">cacheSet_t</text>
</a>
</g>
</g>
<!-- Node3&#45;&gt;Node2 -->
<g id="edge2" class="edge">
<title>Node3&#45;&gt;Node2</title>
<path fill="none" stroke="#9a32cd" stroke-dasharray="5,2" d="M35,-124.04C35,-111.67 35,-96.12 35,-86.63"/>
<polygon fill="#9a32cd" stroke="#9a32cd" points="31.5,-124.23 35,-134.23 38.5,-124.23 31.5,-124.23"/>
<text text-anchor="middle" x="47" y="-108" font-family="Helvetica,sans-Serif" font-size="10.00"> sets</text>
</g>
<!-- Node4 -->
<g id="node4" class="node">
<title>Node4</title>
<g id="a_node4"><a xlink:href="classline__t.html" target="_top" xlink:title=" ">
<polygon fill="white" stroke="black" points="13,-201.5 13,-220.5 57,-220.5 57,-201.5 13,-201.5"/>
<text text-anchor="middle" x="35" y="-208.5" font-family="Helvetica,sans-Serif" font-size="10.00">line_t</text>
</a>
</g>
</g>
<!-- Node4&#45;&gt;Node3 -->
<g id="edge3" class="edge">
<title>Node4&#45;&gt;Node3</title>
<path fill="none" stroke="#9a32cd" stroke-dasharray="5,2" d="M35,-191.04C35,-178.67 35,-163.12 35,-153.63"/>
<polygon fill="#9a32cd" stroke="#9a32cd" points="31.5,-191.23 35,-201.23 38.5,-191.23 31.5,-191.23"/>
<text text-anchor="middle" x="48.5" y="-175" font-family="Helvetica,sans-Serif" font-size="10.00"> lines</text>
</g>
<!-- Node4&#45;&gt;Node4 -->
<g id="edge4" class="edge">
<title>Node4&#45;&gt;Node4</title>
<path fill="none" stroke="#9a32cd" stroke-dasharray="5,2" d="M67.4,-216.37C71.95,-215.49 75,-213.7 75,-211 75,-206.56 66.8,-204.59 57.21,-205.07"/>
<polygon fill="#9a32cd" stroke="#9a32cd" points="67.01,-212.89 57.21,-216.93 67.39,-219.88 67.01,-212.89"/>
<text text-anchor="middle" x="114.5" y="-208.5" font-family="Helvetica,sans-Serif" font-size="10.00"> line_ptr_caches</text>
</g>
<!-- Node5 -->
<g id="node5" class="node">
<title>Node5</title>
<g id="a_node5"><a xlink:href="classmemory__package__t.html" target="_top" xlink:title=" ">
<polygon fill="white" stroke="black" points="80.5,-67.5 80.5,-86.5 193.5,-86.5 193.5,-67.5 80.5,-67.5"/>
<text text-anchor="middle" x="137" y="-74.5" font-family="Helvetica,sans-Serif" font-size="10.00">memory_package_t</text>
</a>
</g>
</g>
<!-- Node5&#45;&gt;Node1 -->
<g id="edge5" class="edge">
<title>Node5&#45;&gt;Node1</title>
<path fill="none" stroke="#9a32cd" stroke-dasharray="5,2" d="M128.25,-58.43C124.57,-51.75 119.98,-44.25 115,-38 109.6,-31.22 102.49,-24.58 96.66,-19.57"/>
<polygon fill="#9a32cd" stroke="#9a32cd" points="125.21,-60.16 132.94,-67.39 131.41,-56.91 125.21,-60.16"/>
<text text-anchor="middle" x="169" y="-41" font-family="Helvetica,sans-Serif" font-size="10.00"> hive_sub_requests</text>
</g>
</g>
</svg>
