<?xml version="1.0" encoding="UTF-8" standalone="no"?>
<!DOCTYPE svg PUBLIC "-//W3C//DTD SVG 1.1//EN"
 "http://www.w3.org/Graphics/SVG/1.1/DTD/svg11.dtd">
<!-- Generated by graphviz version 2.43.0 (0)
 -->
<!-- Title: reorder_buffer_line_t::content_to_string Pages: 1 -->
<svg width="518pt" height="339pt"
 viewBox="0.00 0.00 518.00 338.50" xmlns="http://www.w3.org/2000/svg" xmlns:xlink="http://www.w3.org/1999/xlink">
<g id="graph0" class="graph" transform="scale(1 1) rotate(0) translate(4 334.5)">
<title>reorder_buffer_line_t::content_to_string</title>
<polygon fill="white" stroke="transparent" points="-4,4 -4,-334.5 514,-334.5 514,4 -4,4"/>
<!-- Node1 -->
<g id="node1" class="node">
<title>Node1</title>
<g id="a_node1"><a xlink:title=" ">
<polygon fill="#bfbfbf" stroke="black" points="0,-120.5 0,-150.5 116,-150.5 116,-120.5 0,-120.5"/>
<text text-anchor="start" x="8" y="-138.5" font-family="Helvetica,sans-Serif" font-size="10.00">reorder_buffer_line</text>
<text text-anchor="middle" x="58" y="-127.5" font-family="Helvetica,sans-Serif" font-size="10.00">_t::content_to_string</text>
</a>
</g>
</g>
<!-- Node2 -->
<g id="node2" class="node">
<title>Node2</title>
<g id="a_node2"><a xlink:href="classutils__t.html#a6119f6b64f0de103f7e051345fe2e87f" target="_top" xlink:title=" ">
<polygon fill="white" stroke="black" points="354,-311 354,-330 476,-330 476,-311 354,-311"/>
<text text-anchor="middle" x="415" y="-318" font-family="Helvetica,sans-Serif" font-size="10.00">utils_t::bool_to_string</text>
</a>
</g>
</g>
<!-- Node1&#45;&gt;Node2 -->
<g id="edge1" class="edge">
<title>Node1&#45;&gt;Node2</title>
<path fill="none" stroke="midnightblue" d="M68.99,-150.52C84.39,-172.63 115.95,-213.96 152,-238.5 210.05,-278.01 288.06,-299.2 343.83,-310.07"/>
<polygon fill="midnightblue" stroke="midnightblue" points="343.5,-313.57 353.98,-311.99 344.8,-306.69 343.5,-313.57"/>
</g>
<!-- Node3 -->
<g id="node3" class="node">
<title>Node3</title>
<g id="a_node3"><a xlink:href="classuop__package__t.html#a61c87d245f4d27f08261c2cfcc729e90" target="_top" xlink:title="Convert Instruction variables into String.">
<polygon fill="white" stroke="black" points="152,-98.5 152,-128.5 284,-128.5 284,-98.5 152,-98.5"/>
<text text-anchor="start" x="160" y="-116.5" font-family="Helvetica,sans-Serif" font-size="10.00">uop_package_t::content</text>
<text text-anchor="middle" x="218" y="-105.5" font-family="Helvetica,sans-Serif" font-size="10.00">_to_string</text>
</a>
</g>
</g>
<!-- Node1&#45;&gt;Node3 -->
<g id="edge2" class="edge">
<title>Node1&#45;&gt;Node3</title>
<path fill="none" stroke="midnightblue" d="M116.04,-127.56C124.43,-126.39 133.17,-125.17 141.86,-123.96"/>
<polygon fill="midnightblue" stroke="midnightblue" points="142.57,-127.4 151.99,-122.55 141.61,-120.46 142.57,-127.4"/>
</g>
<!-- Node6 -->
<g id="node6" class="node">
<title>Node6</title>
<g id="a_node6"><a xlink:href="classutils__t.html#a07f0f224928b89eb53c4430d05799916" target="_top" xlink:title=" ">
<polygon fill="white" stroke="black" points="366,-0.5 366,-30.5 464,-30.5 464,-0.5 366,-0.5"/>
<text text-anchor="start" x="374" y="-18.5" font-family="Helvetica,sans-Serif" font-size="10.00">utils_t::uint32_to</text>
<text text-anchor="middle" x="415" y="-7.5" font-family="Helvetica,sans-Serif" font-size="10.00">_string</text>
</a>
</g>
</g>
<!-- Node1&#45;&gt;Node6 -->
<g id="edge14" class="edge">
<title>Node1&#45;&gt;Node6</title>
<path fill="none" stroke="midnightblue" d="M86.52,-120.34C104.74,-110.7 129.37,-98.39 152,-89.5 170.13,-82.38 301.23,-44.69 320,-39.5 331.54,-36.31 343.92,-33.04 355.79,-29.98"/>
<polygon fill="midnightblue" stroke="midnightblue" points="356.78,-33.34 365.6,-27.47 355.04,-26.56 356.78,-33.34"/>
</g>
<!-- Node7 -->
<g id="node7" class="node">
<title>Node7</title>
<g id="a_node7"><a xlink:href="classutils__t.html#aa30deed2def3a1339369e6806073e9fd" target="_top" xlink:title=" ">
<polygon fill="white" stroke="black" points="366,-147.5 366,-177.5 464,-177.5 464,-147.5 366,-147.5"/>
<text text-anchor="start" x="374" y="-165.5" font-family="Helvetica,sans-Serif" font-size="10.00">utils_t::uint64_to</text>
<text text-anchor="middle" x="415" y="-154.5" font-family="Helvetica,sans-Serif" font-size="10.00">_string</text>
</a>
</g>
</g>
<!-- Node1&#45;&gt;Node7 -->
<g id="edge15" class="edge">
<title>Node1&#45;&gt;Node7</title>
<path fill="none" stroke="midnightblue" d="M116.04,-139.84C181.8,-144.84 289.34,-153.02 355.66,-158.06"/>
<polygon fill="midnightblue" stroke="midnightblue" points="355.7,-161.58 365.93,-158.84 356.23,-154.6 355.7,-161.58"/>
</g>
<!-- Node8 -->
<g id="node8" class="node">
<title>Node8</title>
<g id="a_node8"><a xlink:href="classmemory__order__buffer__line__t.html#ab207bfff4362a0f5976d62747ab18109" target="_top" xlink:title=" ">
<polygon fill="white" stroke="black" points="157,-188 157,-229 279,-229 279,-188 157,-188"/>
<text text-anchor="start" x="165" y="-217" font-family="Helvetica,sans-Serif" font-size="10.00">memory_order_buffer</text>
<text text-anchor="start" x="165" y="-206" font-family="Helvetica,sans-Serif" font-size="10.00">_line_t::content_to</text>
<text text-anchor="middle" x="218" y="-195" font-family="Helvetica,sans-Serif" font-size="10.00">_string</text>
</a>
</g>
</g>
<!-- Node1&#45;&gt;Node8 -->
<g id="edge7" class="edge">
<title>Node1&#45;&gt;Node8</title>
<path fill="none" stroke="midnightblue" d="M91.74,-150.63C112.41,-160.17 139.59,-172.74 163.36,-183.72"/>
<polygon fill="midnightblue" stroke="midnightblue" points="162.07,-186.98 172.62,-187.99 165.01,-180.62 162.07,-186.98"/>
</g>
<!-- Node12 -->
<g id="node12" class="node">
<title>Node12</title>
<g id="a_node12"><a xlink:href="enumerations_8cpp.html#ad105be945954dbff8a0b2ce5a2a93b98" target="_top" xlink:title="Enumerates the processor stages, used to indicate when the branch will be solved.">
<polygon fill="white" stroke="black" points="159,-10.5 159,-40.5 277,-40.5 277,-10.5 159,-10.5"/>
<text text-anchor="start" x="167" y="-28.5" font-family="Helvetica,sans-Serif" font-size="10.00">get_enum_processor</text>
<text text-anchor="middle" x="218" y="-17.5" font-family="Helvetica,sans-Serif" font-size="10.00">_stage_char</text>
</a>
</g>
</g>
<!-- Node1&#45;&gt;Node12 -->
<g id="edge13" class="edge">
<title>Node1&#45;&gt;Node12</title>
<path fill="none" stroke="midnightblue" d="M73.74,-120.5C91.26,-103.26 121.9,-74.85 152,-55.5 157.76,-51.8 164.05,-48.3 170.38,-45.09"/>
<polygon fill="midnightblue" stroke="midnightblue" points="172.15,-48.12 179.62,-40.6 169.09,-41.82 172.15,-48.12"/>
</g>
<!-- Node4 -->
<g id="node4" class="node">
<title>Node4</title>
<g id="a_node4"><a xlink:href="classutils__t.html#ae3f4242cda49254d8d43f5d012d00419" target="_top" xlink:title=" ">
<polygon fill="white" stroke="black" points="363,-98.5 363,-128.5 467,-128.5 467,-98.5 363,-98.5"/>
<text text-anchor="start" x="371" y="-116.5" font-family="Helvetica,sans-Serif" font-size="10.00">utils_t::big_uint64</text>
<text text-anchor="middle" x="415" y="-105.5" font-family="Helvetica,sans-Serif" font-size="10.00">_to_string</text>
</a>
</g>
</g>
<!-- Node3&#45;&gt;Node4 -->
<g id="edge3" class="edge">
<title>Node3&#45;&gt;Node4</title>
<path fill="none" stroke="midnightblue" d="M284.2,-113.5C306.28,-113.5 330.85,-113.5 352.62,-113.5"/>
<polygon fill="midnightblue" stroke="midnightblue" points="352.74,-117 362.74,-113.5 352.74,-110 352.74,-117"/>
</g>
<!-- Node5 -->
<g id="node5" class="node">
<title>Node5</title>
<g id="a_node5"><a xlink:href="enumerations_8cpp.html#a29b4f0c7eca5c960bab850a56e5e411c" target="_top" xlink:title=" ">
<polygon fill="white" stroke="black" points="354,-49.5 354,-79.5 476,-79.5 476,-49.5 354,-49.5"/>
<text text-anchor="start" x="362" y="-67.5" font-family="Helvetica,sans-Serif" font-size="10.00">get_enum_instruction</text>
<text text-anchor="middle" x="415" y="-56.5" font-family="Helvetica,sans-Serif" font-size="10.00">_operation_char</text>
</a>
</g>
</g>
<!-- Node3&#45;&gt;Node5 -->
<g id="edge4" class="edge">
<title>Node3&#45;&gt;Node5</title>
<path fill="none" stroke="midnightblue" d="M278.83,-98.47C299.61,-93.24 323.08,-87.35 344.57,-81.95"/>
<polygon fill="midnightblue" stroke="midnightblue" points="345.44,-85.34 354.28,-79.51 343.73,-78.55 345.44,-85.34"/>
</g>
<!-- Node3&#45;&gt;Node6 -->
<g id="edge5" class="edge">
<title>Node3&#45;&gt;Node6</title>
<path fill="none" stroke="midnightblue" d="M259.14,-98.44C267.77,-94.27 276.53,-89.28 284,-83.5 303.98,-68.03 298.69,-53.08 320,-39.5 330.76,-32.64 343.38,-27.74 355.82,-24.24"/>
<polygon fill="midnightblue" stroke="midnightblue" points="356.89,-27.58 365.72,-21.72 355.17,-20.79 356.89,-27.58"/>
</g>
<!-- Node3&#45;&gt;Node7 -->
<g id="edge6" class="edge">
<title>Node3&#45;&gt;Node7</title>
<path fill="none" stroke="midnightblue" d="M278.83,-128.53C303.33,-134.69 331.58,-141.79 355.9,-147.9"/>
<polygon fill="midnightblue" stroke="midnightblue" points="355.16,-151.32 365.71,-150.37 356.87,-144.53 355.16,-151.32"/>
</g>
<!-- Node8&#45;&gt;Node2 -->
<g id="edge8" class="edge">
<title>Node8&#45;&gt;Node2</title>
<path fill="none" stroke="midnightblue" d="M239.01,-229.39C262.88,-253.85 301.85,-292.24 320,-301.5 327.46,-305.31 335.62,-308.35 343.92,-310.79"/>
<polygon fill="midnightblue" stroke="midnightblue" points="343.12,-314.2 353.68,-313.37 344.91,-307.43 343.12,-314.2"/>
</g>
<!-- Node8&#45;&gt;Node7 -->
<g id="edge12" class="edge">
<title>Node8&#45;&gt;Node7</title>
<path fill="none" stroke="midnightblue" d="M279.1,-194.32C303.59,-188.55 331.79,-181.89 356.05,-176.17"/>
<polygon fill="midnightblue" stroke="midnightblue" points="356.91,-179.56 365.84,-173.86 355.3,-172.75 356.91,-179.56"/>
</g>
<!-- Node9 -->
<g id="node9" class="node">
<title>Node9</title>
<g id="a_node9"><a xlink:href="enumerations_8cpp.html#abb39d040475b58d11b29c242b33091e1" target="_top" xlink:title="Enumerates the MEMORY OPERATION OF MOB,debug only.">
<polygon fill="white" stroke="black" points="320,-273 320,-292 510,-292 510,-273 320,-273"/>
<text text-anchor="middle" x="415" y="-280" font-family="Helvetica,sans-Serif" font-size="10.00">get_enum_memory_operation_char</text>
</a>
</g>
</g>
<!-- Node8&#45;&gt;Node9 -->
<g id="edge9" class="edge">
<title>Node8&#45;&gt;Node9</title>
<path fill="none" stroke="midnightblue" d="M251.04,-229.17C270.34,-240.79 295.8,-254.69 320,-263.5 327.45,-266.21 335.39,-268.57 343.36,-270.62"/>
<polygon fill="midnightblue" stroke="midnightblue" points="342.54,-274.02 353.09,-272.96 344.18,-267.22 342.54,-274.02"/>
</g>
<!-- Node10 -->
<g id="node10" class="node">
<title>Node10</title>
<g id="a_node10"><a xlink:href="enumerations_8cpp.html#a4f1219a7c31d137c368e36cea5be9128" target="_top" xlink:title="Enumerates the package state,.">
<polygon fill="white" stroke="black" points="331.5,-235 331.5,-254 498.5,-254 498.5,-235 331.5,-235"/>
<text text-anchor="middle" x="415" y="-242" font-family="Helvetica,sans-Serif" font-size="10.00">get_enum_package_state_char</text>
</a>
</g>
</g>
<!-- Node8&#45;&gt;Node10 -->
<g id="edge10" class="edge">
<title>Node8&#45;&gt;Node10</title>
<path fill="none" stroke="midnightblue" d="M279.1,-219.59C302.3,-223.88 328.83,-228.78 352.19,-233.09"/>
<polygon fill="midnightblue" stroke="midnightblue" points="351.86,-236.59 362.33,-234.96 353.13,-229.7 351.86,-236.59"/>
</g>
<!-- Node11 -->
<g id="node11" class="node">
<title>Node11</title>
<g id="a_node11"><a xlink:href="classutils__t.html#a710d0f0a1d8f5561bb63460d2c833391" target="_top" xlink:title=" ">
<polygon fill="white" stroke="black" points="352.5,-197 352.5,-216 477.5,-216 477.5,-197 352.5,-197"/>
<text text-anchor="middle" x="415" y="-204" font-family="Helvetica,sans-Serif" font-size="10.00">utils_t::int32_to_string</text>
</a>
</g>
</g>
<!-- Node8&#45;&gt;Node11 -->
<g id="edge11" class="edge">
<title>Node8&#45;&gt;Node11</title>
<path fill="none" stroke="midnightblue" d="M279.1,-207.88C299.1,-207.68 321.58,-207.45 342.37,-207.23"/>
<polygon fill="midnightblue" stroke="midnightblue" points="342.45,-210.73 352.42,-207.13 342.38,-203.73 342.45,-210.73"/>
</g>
</g>
</svg>
