<?xml version="1.0" encoding="UTF-8" standalone="no"?>
<!DOCTYPE svg PUBLIC "-//W3C//DTD SVG 1.1//EN"
 "http://www.w3.org/Graphics/SVG/1.1/DTD/svg11.dtd">
<!-- Generated by graphviz version 2.43.0 (0)
 -->
<!-- Title: opcode_package_t::content_to_string Pages: 1 -->
<svg width="315pt" height="137pt"
 viewBox="0.00 0.00 315.00 137.00" xmlns="http://www.w3.org/2000/svg" xmlns:xlink="http://www.w3.org/1999/xlink">
<g id="graph0" class="graph" transform="scale(1 1) rotate(0) translate(4 133)">
<title>opcode_package_t::content_to_string</title>
<polygon fill="white" stroke="transparent" points="-4,4 -4,-133 311,-133 311,4 -4,4"/>
<!-- Node1 -->
<g id="node1" class="node">
<title>Node1</title>
<g id="a_node1"><a xlink:title="Convert Instruction variables into String.">
<polygon fill="#bfbfbf" stroke="black" points="0,-49.5 0,-79.5 149,-79.5 149,-49.5 0,-49.5"/>
<text text-anchor="start" x="8" y="-67.5" font-family="Helvetica,sans-Serif" font-size="10.00">opcode_package_t::content</text>
<text text-anchor="middle" x="74.5" y="-56.5" font-family="Helvetica,sans-Serif" font-size="10.00">_to_string</text>
</a>
</g>
</g>
<!-- Node2 -->
<g id="node2" class="node">
<title>Node2</title>
<g id="a_node2"><a xlink:href="classutils__t.html#ae3f4242cda49254d8d43f5d012d00419" target="_top" xlink:title=" ">
<polygon fill="white" stroke="black" points="194,-98.5 194,-128.5 298,-128.5 298,-98.5 194,-98.5"/>
<text text-anchor="start" x="202" y="-116.5" font-family="Helvetica,sans-Serif" font-size="10.00">utils_t::big_uint64</text>
<text text-anchor="middle" x="246" y="-105.5" font-family="Helvetica,sans-Serif" font-size="10.00">_to_string</text>
</a>
</g>
</g>
<!-- Node1&#45;&gt;Node2 -->
<g id="edge1" class="edge">
<title>Node1&#45;&gt;Node2</title>
<path fill="none" stroke="midnightblue" d="M127.74,-79.6C145.55,-84.75 165.62,-90.55 184.05,-95.88"/>
<polygon fill="midnightblue" stroke="midnightblue" points="183.23,-99.29 193.81,-98.7 185.17,-92.56 183.23,-99.29"/>
</g>
<!-- Node3 -->
<g id="node3" class="node">
<title>Node3</title>
<g id="a_node3"><a xlink:href="enumerations_8cpp.html#a29b4f0c7eca5c960bab850a56e5e411c" target="_top" xlink:title=" ">
<polygon fill="white" stroke="black" points="185,-49.5 185,-79.5 307,-79.5 307,-49.5 185,-49.5"/>
<text text-anchor="start" x="193" y="-67.5" font-family="Helvetica,sans-Serif" font-size="10.00">get_enum_instruction</text>
<text text-anchor="middle" x="246" y="-56.5" font-family="Helvetica,sans-Serif" font-size="10.00">_operation_char</text>
</a>
</g>
</g>
<!-- Node1&#45;&gt;Node3 -->
<g id="edge2" class="edge">
<title>Node1&#45;&gt;Node3</title>
<path fill="none" stroke="midnightblue" d="M149.35,-64.5C157.79,-64.5 166.37,-64.5 174.76,-64.5"/>
<polygon fill="midnightblue" stroke="midnightblue" points="174.87,-68 184.87,-64.5 174.87,-61 174.87,-68"/>
</g>
<!-- Node4 -->
<g id="node4" class="node">
<title>Node4</title>
<g id="a_node4"><a xlink:href="classutils__t.html#a07f0f224928b89eb53c4430d05799916" target="_top" xlink:title=" ">
<polygon fill="white" stroke="black" points="197,-0.5 197,-30.5 295,-30.5 295,-0.5 197,-0.5"/>
<text text-anchor="start" x="205" y="-18.5" font-family="Helvetica,sans-Serif" font-size="10.00">utils_t::uint32_to</text>
<text text-anchor="middle" x="246" y="-7.5" font-family="Helvetica,sans-Serif" font-size="10.00">_string</text>
</a>
</g>
</g>
<!-- Node1&#45;&gt;Node4 -->
<g id="edge3" class="edge">
<title>Node1&#45;&gt;Node4</title>
<path fill="none" stroke="midnightblue" d="M127.74,-49.4C146.54,-43.96 167.86,-37.8 187.12,-32.23"/>
<polygon fill="midnightblue" stroke="midnightblue" points="188.34,-35.52 196.97,-29.38 186.4,-28.8 188.34,-35.52"/>
</g>
</g>
</svg>
