<?xml version="1.0" encoding="UTF-8" standalone="no"?>
<!DOCTYPE svg PUBLIC "-//W3C//DTD SVG 1.1//EN"
 "http://www.w3.org/Graphics/SVG/1.1/DTD/svg11.dtd">
<!-- Generated by graphviz version 2.43.0 (0)
 -->
<!-- Title: trace_reader_t::trace_fetch Pages: 1 -->
<svg width="297pt" height="127pt"
 viewBox="0.00 0.00 297.00 126.50" xmlns="http://www.w3.org/2000/svg" xmlns:xlink="http://www.w3.org/1999/xlink">
<g id="graph0" class="graph" transform="scale(1 1) rotate(0) translate(4 122.5)">
<title>trace_reader_t::trace_fetch</title>
<polygon fill="white" stroke="transparent" points="-4,4 -4,-122.5 293,-122.5 293,4 -4,4"/>
<!-- Node1 -->
<g id="node1" class="node">
<title>Node1</title>
<g id="a_node1"><a xlink:title=" ">
<polygon fill="#bfbfbf" stroke="black" points="0,-49.5 0,-79.5 118,-79.5 118,-49.5 0,-49.5"/>
<text text-anchor="start" x="8" y="-67.5" font-family="Helvetica,sans-Serif" font-size="10.00">trace_reader_t::trace</text>
<text text-anchor="middle" x="59" y="-56.5" font-family="Helvetica,sans-Serif" font-size="10.00">_fetch</text>
</a>
</g>
</g>
<!-- Node2 -->
<g id="node2" class="node">
<title>Node2</title>
<g id="a_node2"><a xlink:href="classtrace__reader__t.html#a3e15e6fd52af798652b7575d45416707" target="_top" xlink:title=" ">
<polygon fill="white" stroke="black" points="154,-99 154,-118 289,-118 289,-99 154,-99"/>
<text text-anchor="middle" x="221.5" y="-106" font-family="Helvetica,sans-Serif" font-size="10.00">trace_reader_t::pin_next</text>
</a>
</g>
</g>
<!-- Node1&#45;&gt;Node2 -->
<g id="edge1" class="edge">
<title>Node1&#45;&gt;Node2</title>
<path fill="none" stroke="midnightblue" d="M114.79,-79.52C134.65,-84.96 156.83,-91.04 175.72,-96.22"/>
<polygon fill="midnightblue" stroke="midnightblue" points="174.99,-99.65 185.56,-98.92 176.84,-92.9 174.99,-99.65"/>
</g>
<!-- Node3 -->
<g id="node3" class="node">
<title>Node3</title>
<g id="a_node3"><a xlink:href="classtrace__reader__t.html#a88a2bc1524df3a15805e80782a66b123" target="_top" xlink:title=" ">
<polygon fill="white" stroke="black" points="162.5,-49.5 162.5,-79.5 280.5,-79.5 280.5,-49.5 162.5,-49.5"/>
<text text-anchor="start" x="170.5" y="-67.5" font-family="Helvetica,sans-Serif" font-size="10.00">trace_reader_t::trace</text>
<text text-anchor="middle" x="221.5" y="-56.5" font-family="Helvetica,sans-Serif" font-size="10.00">_next_dynamic</text>
</a>
</g>
</g>
<!-- Node1&#45;&gt;Node3 -->
<g id="edge2" class="edge">
<title>Node1&#45;&gt;Node3</title>
<path fill="none" stroke="midnightblue" d="M118.4,-64.5C129.38,-64.5 140.95,-64.5 152.2,-64.5"/>
<polygon fill="midnightblue" stroke="midnightblue" points="152.41,-68 162.41,-64.5 152.41,-61 152.41,-68"/>
</g>
<!-- Node4 -->
<g id="node4" class="node">
<title>Node4</title>
<g id="a_node4"><a xlink:href="classtrace__reader__t.html#aa4ece66726f19a6036d739463e303256" target="_top" xlink:title=" ">
<polygon fill="white" stroke="black" points="162.5,-0.5 162.5,-30.5 280.5,-30.5 280.5,-0.5 162.5,-0.5"/>
<text text-anchor="start" x="170.5" y="-18.5" font-family="Helvetica,sans-Serif" font-size="10.00">trace_reader_t::trace</text>
<text text-anchor="middle" x="221.5" y="-7.5" font-family="Helvetica,sans-Serif" font-size="10.00">_next_memory</text>
</a>
</g>
</g>
<!-- Node1&#45;&gt;Node4 -->
<g id="edge3" class="edge">
<title>Node1&#45;&gt;Node4</title>
<path fill="none" stroke="midnightblue" d="M109.46,-49.4C125.86,-44.39 144.29,-38.77 161.34,-33.56"/>
<polygon fill="midnightblue" stroke="midnightblue" points="162.66,-36.82 171.2,-30.55 160.61,-30.12 162.66,-36.82"/>
</g>
</g>
</svg>
