<?xml version="1.0" encoding="UTF-8" standalone="no"?>
<!DOCTYPE svg PUBLIC "-//W3C//DTD SVG 1.1//EN"
 "http://www.w3.org/Graphics/SVG/1.1/DTD/svg11.dtd">
<!-- Generated by graphviz version 2.43.0 (0)
 -->
<!-- Title: vima_controller_t::instruction_ready Pages: 1 -->
<svg width="486pt" height="121pt"
 viewBox="0.00 0.00 486.00 120.50" xmlns="http://www.w3.org/2000/svg" xmlns:xlink="http://www.w3.org/1999/xlink">
<g id="graph0" class="graph" transform="scale(1 1) rotate(0) translate(4 116.5)">
<title>vima_controller_t::instruction_ready</title>
<polygon fill="white" stroke="transparent" points="-4,4 -4,-116.5 482,-116.5 482,4 -4,4"/>
<!-- Node1 -->
<g id="node1" class="node">
<title>Node1</title>
<g id="a_node1"><a xlink:title=" ">
<polygon fill="#bfbfbf" stroke="black" points="0,-49.5 0,-79.5 108,-79.5 108,-49.5 0,-49.5"/>
<text text-anchor="start" x="8" y="-67.5" font-family="Helvetica,sans-Serif" font-size="10.00">vima_controller_t::</text>
<text text-anchor="middle" x="54" y="-56.5" font-family="Helvetica,sans-Serif" font-size="10.00">instruction_ready</text>
</a>
</g>
</g>
<!-- Node2 -->
<g id="node2" class="node">
<title>Node2</title>
<g id="a_node2"><a xlink:href="enumerations_8cpp.html#abb39d040475b58d11b29c242b33091e1" target="_top" xlink:title="Enumerates the MEMORY OPERATION OF MOB,debug only.">
<polygon fill="white" stroke="black" points="144,-93 144,-112 334,-112 334,-93 144,-93"/>
<text text-anchor="middle" x="239" y="-100" font-family="Helvetica,sans-Serif" font-size="10.00">get_enum_memory_operation_char</text>
</a>
</g>
</g>
<!-- Node1&#45;&gt;Node2 -->
<g id="edge1" class="edge">
<title>Node1&#45;&gt;Node2</title>
<path fill="none" stroke="midnightblue" d="M108.42,-75.59C131.59,-80.4 158.73,-86.04 182.16,-90.91"/>
<polygon fill="midnightblue" stroke="midnightblue" points="181.45,-94.33 191.96,-92.94 182.88,-87.48 181.45,-94.33"/>
</g>
<!-- Node3 -->
<g id="node3" class="node">
<title>Node3</title>
<g id="a_node3"><a xlink:href="classorcs__engine__t.html#a1c033e3455736ba89052a40c69ebe0af" target="_top" xlink:title=" ">
<polygon fill="white" stroke="black" points="371,-49.5 371,-79.5 477,-79.5 477,-49.5 371,-49.5"/>
<text text-anchor="start" x="379" y="-67.5" font-family="Helvetica,sans-Serif" font-size="10.00">orcs_engine_t::get</text>
<text text-anchor="middle" x="424" y="-56.5" font-family="Helvetica,sans-Serif" font-size="10.00">_global_cycle</text>
</a>
</g>
</g>
<!-- Node1&#45;&gt;Node3 -->
<g id="edge2" class="edge">
<title>Node1&#45;&gt;Node3</title>
<path fill="none" stroke="midnightblue" d="M108.12,-64.5C174.99,-64.5 289.69,-64.5 360.65,-64.5"/>
<polygon fill="midnightblue" stroke="midnightblue" points="360.79,-68 370.79,-64.5 360.79,-61 360.79,-68"/>
</g>
<!-- Node4 -->
<g id="node4" class="node">
<title>Node4</title>
<g id="a_node4"><a xlink:href="classvima__controller__t.html#ad9e225754f26f5c6a7d56315b77fe001" target="_top" xlink:title=" ">
<polygon fill="white" stroke="black" points="185,-5.5 185,-35.5 293,-35.5 293,-5.5 185,-5.5"/>
<text text-anchor="start" x="193" y="-23.5" font-family="Helvetica,sans-Serif" font-size="10.00">vima_controller_t::</text>
<text text-anchor="middle" x="239" y="-12.5" font-family="Helvetica,sans-Serif" font-size="10.00">write_to_cache</text>
</a>
</g>
</g>
<!-- Node1&#45;&gt;Node4 -->
<g id="edge3" class="edge">
<title>Node1&#45;&gt;Node4</title>
<path fill="none" stroke="midnightblue" d="M108.42,-51.66C129.28,-46.64 153.35,-40.85 175.05,-35.64"/>
<polygon fill="midnightblue" stroke="midnightblue" points="175.92,-39.03 184.83,-33.28 174.29,-32.22 175.92,-39.03"/>
</g>
<!-- Node4&#45;&gt;Node3 -->
<g id="edge4" class="edge">
<title>Node4&#45;&gt;Node3</title>
<path fill="none" stroke="midnightblue" d="M293.42,-33.34C314.56,-38.43 338.99,-44.3 360.9,-49.57"/>
<polygon fill="midnightblue" stroke="midnightblue" points="360.23,-53.01 370.77,-51.94 361.87,-46.2 360.23,-53.01"/>
</g>
<!-- Node5 -->
<g id="node5" class="node">
<title>Node5</title>
<g id="a_node5"><a xlink:href="classvima__controller__t.html#a5204c0e05186f8b07324ce44f7c76b1a" target="_top" xlink:title=" ">
<polygon fill="white" stroke="black" points="370,-0.5 370,-30.5 478,-30.5 478,-0.5 370,-0.5"/>
<text text-anchor="start" x="378" y="-18.5" font-family="Helvetica,sans-Serif" font-size="10.00">vima_controller_t::</text>
<text text-anchor="middle" x="424" y="-7.5" font-family="Helvetica,sans-Serif" font-size="10.00">get_tag</text>
</a>
</g>
</g>
<!-- Node4&#45;&gt;Node5 -->
<g id="edge5" class="edge">
<title>Node4&#45;&gt;Node5</title>
<path fill="none" stroke="midnightblue" d="M293.42,-19.04C314.19,-18.47 338.14,-17.82 359.75,-17.23"/>
<polygon fill="midnightblue" stroke="midnightblue" points="359.93,-20.72 369.83,-16.95 359.73,-13.73 359.93,-20.72"/>
</g>
</g>
</svg>
