<?xml version="1.0" encoding="UTF-8" standalone="no"?>
<!DOCTYPE svg PUBLIC "-//W3C//DTD SVG 1.1//EN"
 "http://www.w3.org/Graphics/SVG/1.1/DTD/svg11.dtd">
<!-- Generated by graphviz version 2.43.0 (0)
 -->
<!-- Title: prefetcher_t::allocate Pages: 1 -->
<svg width="433pt" height="39pt"
 viewBox="0.00 0.00 433.00 39.00" xmlns="http://www.w3.org/2000/svg" xmlns:xlink="http://www.w3.org/1999/xlink">
<g id="graph0" class="graph" transform="scale(1 1) rotate(0) translate(4 35)">
<title>prefetcher_t::allocate</title>
<polygon fill="white" stroke="transparent" points="-4,4 -4,-35 429,-35 429,4 -4,4"/>
<!-- Node1 -->
<g id="node1" class="node">
<title>Node1</title>
<g id="a_node1"><a xlink:title=" ">
<polygon fill="#bfbfbf" stroke="black" points="0,-6 0,-25 121,-25 121,-6 0,-6"/>
<text text-anchor="middle" x="60.5" y="-13" font-family="Helvetica,sans-Serif" font-size="10.00">prefetcher_t::allocate</text>
</a>
</g>
</g>
<!-- Node2 -->
<g id="node2" class="node">
<title>Node2</title>
<g id="a_node2"><a xlink:href="classstride__prefetcher__t.html#aea73a6e5159b3979a81f9583f3658b91" target="_top" xlink:title=" ">
<polygon fill="white" stroke="black" points="157,-0.5 157,-30.5 266,-30.5 266,-0.5 157,-0.5"/>
<text text-anchor="start" x="165" y="-18.5" font-family="Helvetica,sans-Serif" font-size="10.00">stride_prefetcher_t</text>
<text text-anchor="middle" x="211.5" y="-7.5" font-family="Helvetica,sans-Serif" font-size="10.00">::allocate</text>
</a>
</g>
</g>
<!-- Node1&#45;&gt;Node2 -->
<g id="edge1" class="edge">
<title>Node1&#45;&gt;Node2</title>
<path fill="none" stroke="midnightblue" d="M121.25,-15.5C129.53,-15.5 138.08,-15.5 146.44,-15.5"/>
<polygon fill="midnightblue" stroke="midnightblue" points="146.52,-19 156.52,-15.5 146.52,-12 146.52,-19"/>
</g>
<!-- Node3 -->
<g id="node3" class="node">
<title>Node3</title>
<g id="a_node3"><a xlink:href="classconfigure__t.html#a15917e4f43ded0a072c8f1017a9f5035" target="_top" xlink:title=" ">
<polygon fill="white" stroke="black" points="302,-6 302,-25 425,-25 425,-6 302,-6"/>
<text text-anchor="middle" x="363.5" y="-13" font-family="Helvetica,sans-Serif" font-size="10.00">configure_t::getConfig</text>
</a>
</g>
</g>
<!-- Node2&#45;&gt;Node3 -->
<g id="edge2" class="edge">
<title>Node2&#45;&gt;Node3</title>
<path fill="none" stroke="midnightblue" d="M266.23,-15.5C274.51,-15.5 283.16,-15.5 291.74,-15.5"/>
<polygon fill="midnightblue" stroke="midnightblue" points="291.75,-19 301.75,-15.5 291.75,-12 291.75,-19"/>
</g>
</g>
</svg>
