<?xml version="1.0" encoding="UTF-8" standalone="no"?>
<!DOCTYPE svg PUBLIC "-//W3C//DTD SVG 1.1//EN"
 "http://www.w3.org/Graphics/SVG/1.1/DTD/svg11.dtd">
<!-- Generated by graphviz version 2.43.0 (0)
 -->
<!-- Title: processor_t::mob_read Pages: 1 -->
<svg width="750pt" height="223pt"
 viewBox="0.00 0.00 750.00 222.50" xmlns="http://www.w3.org/2000/svg" xmlns:xlink="http://www.w3.org/1999/xlink">
<g id="graph0" class="graph" transform="scale(1 1) rotate(0) translate(4 218.5)">
<title>processor_t::mob_read</title>
<polygon fill="white" stroke="transparent" points="-4,4 -4,-218.5 746,-218.5 746,4 -4,4"/>
<!-- Node1 -->
<g id="node1" class="node">
<title>Node1</title>
<g id="a_node1"><a xlink:title=" ">
<polygon fill="#bfbfbf" stroke="black" points="0,-107.5 0,-126.5 128,-126.5 128,-107.5 0,-107.5"/>
<text text-anchor="middle" x="64" y="-114.5" font-family="Helvetica,sans-Serif" font-size="10.00">processor_t::mob_read</text>
</a>
</g>
</g>
<!-- Node2 -->
<g id="node2" class="node">
<title>Node2</title>
<g id="a_node2"><a xlink:href="classcache__manager__t.html#a9abccd4bc20a33397cc207c091ffc0bc" target="_top" xlink:title=" ">
<polygon fill="white" stroke="black" points="169,-186.5 169,-205.5 323,-205.5 323,-186.5 169,-186.5"/>
<text text-anchor="middle" x="246" y="-193.5" font-family="Helvetica,sans-Serif" font-size="10.00">cache_manager_t::available</text>
</a>
</g>
</g>
<!-- Node1&#45;&gt;Node2 -->
<g id="edge1" class="edge">
<title>Node1&#45;&gt;Node2</title>
<path fill="none" stroke="midnightblue" d="M81.42,-126.68C100.73,-137.82 133.99,-156.22 164,-169 176.27,-174.23 189.91,-179.11 202.46,-183.25"/>
<polygon fill="midnightblue" stroke="midnightblue" points="201.64,-186.67 212.23,-186.41 203.79,-180.01 201.64,-186.67"/>
</g>
<!-- Node4 -->
<g id="node4" class="node">
<title>Node4</title>
<g id="a_node4"><a xlink:href="enumerations_8cpp.html#abb39d040475b58d11b29c242b33091e1" target="_top" xlink:title="Enumerates the MEMORY OPERATION OF MOB,debug only.">
<polygon fill="white" stroke="black" points="552,-38.5 552,-57.5 742,-57.5 742,-38.5 552,-38.5"/>
<text text-anchor="middle" x="647" y="-45.5" font-family="Helvetica,sans-Serif" font-size="10.00">get_enum_memory_operation_char</text>
</a>
</g>
</g>
<!-- Node1&#45;&gt;Node4 -->
<g id="edge3" class="edge">
<title>Node1&#45;&gt;Node4</title>
<path fill="none" stroke="midnightblue" d="M127.1,-126.53C215.19,-137.92 380.75,-151.43 516,-117 557.46,-106.44 600.3,-80.18 624.98,-63.27"/>
<polygon fill="midnightblue" stroke="midnightblue" points="627.02,-66.11 633.21,-57.51 623.01,-60.37 627.02,-66.11"/>
</g>
<!-- Node5 -->
<g id="node5" class="node">
<title>Node5</title>
<g id="a_node5"><a xlink:href="classorcs__engine__t.html#a1c033e3455736ba89052a40c69ebe0af" target="_top" xlink:title=" ">
<polygon fill="white" stroke="black" points="387,-77 387,-107 493,-107 493,-77 387,-77"/>
<text text-anchor="start" x="395" y="-95" font-family="Helvetica,sans-Serif" font-size="10.00">orcs_engine_t::get</text>
<text text-anchor="middle" x="440" y="-84" font-family="Helvetica,sans-Serif" font-size="10.00">_global_cycle</text>
</a>
</g>
</g>
<!-- Node1&#45;&gt;Node5 -->
<g id="edge4" class="edge">
<title>Node1&#45;&gt;Node5</title>
<path fill="none" stroke="midnightblue" d="M128.02,-112.79C197.23,-108.16 307.66,-100.78 376.62,-96.17"/>
<polygon fill="midnightblue" stroke="midnightblue" points="377.15,-99.64 386.9,-95.48 376.68,-92.66 377.15,-99.64"/>
</g>
<!-- Node6 -->
<g id="node6" class="node">
<title>Node6</title>
<g id="a_node6"><a xlink:href="classprocessor__t.html#ab59aa9f941d650e1ea0c30356720ef5b" target="_top" xlink:title=" ">
<polygon fill="white" stroke="black" points="185,-58 185,-88 307,-88 307,-58 185,-58"/>
<text text-anchor="start" x="193" y="-76" font-family="Helvetica,sans-Serif" font-size="10.00">processor_t::get_next</text>
<text text-anchor="middle" x="246" y="-65" font-family="Helvetica,sans-Serif" font-size="10.00">_op_load</text>
</a>
</g>
</g>
<!-- Node1&#45;&gt;Node6 -->
<g id="edge5" class="edge">
<title>Node1&#45;&gt;Node6</title>
<path fill="none" stroke="midnightblue" d="M104.06,-107.45C124.78,-102.39 150.87,-96.01 174.95,-90.12"/>
<polygon fill="midnightblue" stroke="midnightblue" points="175.89,-93.5 184.77,-87.72 174.23,-86.7 175.89,-93.5"/>
</g>
<!-- Node7 -->
<g id="node7" class="node">
<title>Node7</title>
<g id="a_node7"><a xlink:href="classcache__manager__t.html#a0e4328a6d039b46fedab6919517db075" target="_top" xlink:title=" ">
<polygon fill="white" stroke="black" points="164,-19.5 164,-38.5 328,-38.5 328,-19.5 164,-19.5"/>
<text text-anchor="middle" x="246" y="-26.5" font-family="Helvetica,sans-Serif" font-size="10.00">cache_manager_t::searchData</text>
</a>
</g>
</g>
<!-- Node1&#45;&gt;Node7 -->
<g id="edge7" class="edge">
<title>Node1&#45;&gt;Node7</title>
<path fill="none" stroke="midnightblue" d="M76.07,-107.38C93.56,-92.66 129.19,-64.63 164,-49 170.54,-46.06 177.58,-43.51 184.68,-41.31"/>
<polygon fill="midnightblue" stroke="midnightblue" points="185.72,-44.66 194.36,-38.52 183.78,-37.93 185.72,-44.66"/>
</g>
<!-- Node3 -->
<g id="node3" class="node">
<title>Node3</title>
<g id="a_node3"><a xlink:href="classcache__manager__t.html#a1d0eab3491ced37cfc80481d8e71274f" target="_top" xlink:title=" ">
<polygon fill="white" stroke="black" points="364,-184 364,-214 516,-214 516,-184 364,-184"/>
<text text-anchor="start" x="372" y="-202" font-family="Helvetica,sans-Serif" font-size="10.00">cache_manager_t::generate</text>
<text text-anchor="middle" x="440" y="-191" font-family="Helvetica,sans-Serif" font-size="10.00">IndexArray</text>
</a>
</g>
</g>
<!-- Node2&#45;&gt;Node3 -->
<g id="edge2" class="edge">
<title>Node2&#45;&gt;Node3</title>
<path fill="none" stroke="midnightblue" d="M323.16,-197.19C333.21,-197.35 343.56,-197.51 353.76,-197.67"/>
<polygon fill="midnightblue" stroke="midnightblue" points="353.82,-201.17 363.87,-197.83 353.93,-194.17 353.82,-201.17"/>
</g>
<!-- Node6&#45;&gt;Node5 -->
<g id="edge6" class="edge">
<title>Node6&#45;&gt;Node5</title>
<path fill="none" stroke="midnightblue" d="M307.22,-78.96C329.35,-81.15 354.43,-83.63 376.73,-85.84"/>
<polygon fill="midnightblue" stroke="midnightblue" points="376.47,-89.33 386.77,-86.83 377.16,-82.36 376.47,-89.33"/>
</g>
<!-- Node7&#45;&gt;Node4 -->
<g id="edge8" class="edge">
<title>Node7&#45;&gt;Node4</title>
<path fill="none" stroke="midnightblue" d="M328.22,-32.87C389.88,-35.8 475.13,-39.86 541.82,-43.04"/>
<polygon fill="midnightblue" stroke="midnightblue" points="541.78,-46.54 551.93,-43.52 542.11,-39.55 541.78,-46.54"/>
</g>
<!-- Node7&#45;&gt;Node5 -->
<g id="edge9" class="edge">
<title>Node7&#45;&gt;Node5</title>
<path fill="none" stroke="midnightblue" d="M290.16,-38.58C302.48,-41.6 315.84,-45.16 328,-49 340.48,-52.94 367.79,-63.51 392.2,-73.19"/>
<polygon fill="midnightblue" stroke="midnightblue" points="391.14,-76.53 401.72,-76.97 393.72,-70.03 391.14,-76.53"/>
</g>
<!-- Node8 -->
<g id="node8" class="node">
<title>Node8</title>
<g id="a_node8"><a xlink:href="classcache__manager__t.html#a0a94cd6337296baa14acfe4c640ce821" target="_top" xlink:title=" ">
<polygon fill="white" stroke="black" points="377,-0.5 377,-19.5 503,-19.5 503,-0.5 377,-0.5"/>
<text text-anchor="middle" x="440" y="-7.5" font-family="Helvetica,sans-Serif" font-size="10.00">cache_manager_t::isIn</text>
</a>
</g>
</g>
<!-- Node7&#45;&gt;Node8 -->
<g id="edge10" class="edge">
<title>Node7&#45;&gt;Node8</title>
<path fill="none" stroke="midnightblue" d="M328.15,-20.97C340.99,-19.7 354.19,-18.39 366.81,-17.14"/>
<polygon fill="midnightblue" stroke="midnightblue" points="367.18,-20.62 376.78,-16.16 366.49,-13.66 367.18,-20.62"/>
</g>
<!-- Node8&#45;&gt;Node4 -->
<g id="edge11" class="edge">
<title>Node8&#45;&gt;Node4</title>
<path fill="none" stroke="midnightblue" d="M492.47,-19.54C520.37,-24.71 555.05,-31.14 584.38,-36.58"/>
<polygon fill="midnightblue" stroke="midnightblue" points="584.04,-40.07 594.51,-38.46 585.32,-33.19 584.04,-40.07"/>
</g>
</g>
</svg>
