<?xml version="1.0" encoding="UTF-8" standalone="no"?>
<!DOCTYPE svg PUBLIC "-//W3C//DTD SVG 1.1//EN"
 "http://www.w3.org/Graphics/SVG/1.1/DTD/svg11.dtd">
<!-- Generated by graphviz version 2.43.0 (0)
 -->
<!-- Title: memory_channel_t::clock Pages: 1 -->
<!--zoomable 337 -->
<svg id="main" version="1.1" xmlns="http://www.w3.org/2000/svg" xmlns:xlink="http://www.w3.org/1999/xlink" xml:space="preserve" onload="init(evt)">
<style type="text/css"><![CDATA[
.edge:hover path { stroke: red; }
.edge:hover polygon { stroke: red; fill: red; }
]]></style>
<script type="text/javascript"><![CDATA[
var edges = document.getElementsByTagName('g');
if (edges && edges.length) {
  for (var i=0;i<edges.length;i++) {
    if (edges[i].id.substr(0,4)=='edge') {
      edges[i].setAttribute('class','edge');
    }
  }
}
]]></script>
        <defs>
                <circle id="rim" cx="0" cy="0" r="7"/>
                <circle id="rim2" cx="0" cy="0" r="3.5"/>
                <g id="zoomPlus">
                        <use xlink:href="#rim" fill="#404040">
                                <set attributeName="fill" to="#808080" begin="zoomplus.mouseover" end="zoomplus.mouseout"/>
                        </use>
                        <path d="M-4,0h8M0,-4v8" fill="none" stroke="white" stroke-width="1.5" pointer-events="none"/>
                </g>
                <g id="zoomMin">
                        <use xlink:href="#rim" fill="#404040">
                                <set attributeName="fill" to="#808080" begin="zoomminus.mouseover" end="zoomminus.mouseout"/>
                        </use>
                        <path d="M-4,0h8" fill="none" stroke="white" stroke-width="1.5" pointer-events="none"/>
                </g>
                <g id="dirArrow">
                        <path fill="none" stroke="white" stroke-width="1.5" d="M0,-3.0v7 M-2.5,-0.5L0,-3.0L2.5,-0.5"/>
                </g>
               <g id="resetDef">
                       <use xlink:href="#rim2" fill="#404040">
                               <set attributeName="fill" to="#808080" begin="reset.mouseover" end="reset.mouseout"/>
                       </use>
               </g>
        </defs>

<script type="text/javascript">
var viewWidth = 764;
var viewHeight = 337;
var sectionId = 'dynsection-2';
</script>
<script xlink:href="svgpan.js"/>
<svg id="graph" class="graph">
<g id="viewport">
<title>memory_channel_t::clock</title>
<polygon fill="white" stroke="transparent" points="-4,4 -4,-333.24 760,-333.24 760,4 -4,4"/>
<!-- Node1 -->
<g id="node1" class="node">
<title>Node1</title>
<g id="a_node1"><a xlink:title=" ">
<polygon fill="#bfbfbf" stroke="black" points="0,-160 0,-179 142,-179 142,-160 0,-160"/>
<text text-anchor="middle" x="71" y="-167" font-family="Helvetica,sans-Serif" font-size="10.00">memory_channel_t::clock</text>
</a>
</g>
</g>
<!-- Node2 -->
<g id="node2" class="node">
<title>Node2</title>
<g id="a_node2"><a xlink:href="classmemory__channel__t.html#a8f6b07ba264aed10de3ba60d947d055f" target="_top" xlink:title=" ">
<polygon fill="white" stroke="black" points="179.5,-264 179.5,-283 337.5,-283 337.5,-264 179.5,-264"/>
<text text-anchor="middle" x="258.5" y="-271" font-family="Helvetica,sans-Serif" font-size="10.00">memory_channel_t::findNext</text>
</a>
</g>
</g>
<!-- Node1&#45;&gt;Node2 -->
<g id="edge1" class="edge">
<title>Node1&#45;&gt;Node2</title>
<path fill="none" stroke="midnightblue" d="M80.94,-179.05C98.04,-196.73 137.32,-234.59 178,-254.5 182.94,-256.92 188.2,-259.04 193.58,-260.9"/>
<polygon fill="midnightblue" stroke="midnightblue" points="192.76,-264.31 203.34,-263.97 194.86,-257.63 192.76,-264.31"/>
</g>
<!-- Node4 -->
<g id="node4" class="node">
<title>Node4</title>
<g id="a_node4"><a xlink:href="classmemory__channel__t.html#ad4cc8246cce2330a41968f544dac9319" target="_top" xlink:title=" ">
<polygon fill="white" stroke="black" points="601,-264 601,-283 756,-283 756,-264 601,-264"/>
<text text-anchor="middle" x="678.5" y="-271" font-family="Helvetica,sans-Serif" font-size="10.00">memory_channel_t::get_row</text>
</a>
</g>
</g>
<!-- Node1&#45;&gt;Node4 -->
<g id="edge11" class="edge">
<title>Node1&#45;&gt;Node4</title>
<path fill="none" stroke="midnightblue" d="M76.69,-179.33C89.1,-204.03 125.47,-268.42 178,-292.5 336.22,-365.02 553.11,-312.25 639.63,-285.99"/>
<polygon fill="midnightblue" stroke="midnightblue" points="640.76,-289.3 649.28,-283.01 638.69,-282.62 640.76,-289.3"/>
</g>
<!-- Node6 -->
<g id="node6" class="node">
<title>Node6</title>
<g id="a_node6"><a xlink:href="classmemory__channel__t.html#a287f04ba038854da0ac7063d9afa49d8" target="_top" xlink:title=" ">
<polygon fill="white" stroke="black" points="178,-226 178,-245 339,-245 339,-226 178,-226"/>
<text text-anchor="middle" x="258.5" y="-233" font-family="Helvetica,sans-Serif" font-size="10.00">memory_channel_t::get_bank</text>
</a>
</g>
</g>
<!-- Node1&#45;&gt;Node6 -->
<g id="edge6" class="edge">
<title>Node1&#45;&gt;Node6</title>
<path fill="none" stroke="midnightblue" d="M90.73,-179.06C111.59,-189.41 146.53,-205.86 178,-216.5 185.47,-219.02 193.44,-221.35 201.34,-223.44"/>
<polygon fill="midnightblue" stroke="midnightblue" points="200.72,-226.89 211.27,-225.96 202.44,-220.11 200.72,-226.89"/>
</g>
<!-- Node7 -->
<g id="node7" class="node">
<title>Node7</title>
<g id="a_node7"><a xlink:href="classmemory__channel__t.html#aee2879c9b9c8c3e7c0c1d9503a1980b2" target="_top" xlink:title=" ">
<polygon fill="white" stroke="black" points="192.5,-176.5 192.5,-206.5 324.5,-206.5 324.5,-176.5 192.5,-176.5"/>
<text text-anchor="start" x="200.5" y="-194.5" font-family="Helvetica,sans-Serif" font-size="10.00">memory_channel_t::get</text>
<text text-anchor="middle" x="258.5" y="-183.5" font-family="Helvetica,sans-Serif" font-size="10.00">_channel</text>
</a>
</g>
</g>
<!-- Node1&#45;&gt;Node7 -->
<g id="edge7" class="edge">
<title>Node1&#45;&gt;Node7</title>
<path fill="none" stroke="midnightblue" d="M142.13,-177.82C155.29,-179.38 169.1,-181.02 182.41,-182.59"/>
<polygon fill="midnightblue" stroke="midnightblue" points="182.13,-186.09 192.47,-183.79 182.95,-179.13 182.13,-186.09"/>
</g>
<!-- Node8 -->
<g id="node8" class="node">
<title>Node8</title>
<g id="a_node8"><a xlink:href="enumerations_8cpp.html#abb39d040475b58d11b29c242b33091e1" target="_top" xlink:title="Enumerates the MEMORY OPERATION OF MOB,debug only.">
<polygon fill="white" stroke="black" points="375,-135 375,-154 565,-154 565,-135 375,-135"/>
<text text-anchor="middle" x="470" y="-142" font-family="Helvetica,sans-Serif" font-size="10.00">get_enum_memory_operation_char</text>
</a>
</g>
</g>
<!-- Node1&#45;&gt;Node8 -->
<g id="edge8" class="edge">
<title>Node1&#45;&gt;Node8</title>
<path fill="none" stroke="midnightblue" d="M142.06,-165.09C203.7,-161.21 294.28,-155.5 364.48,-151.08"/>
<polygon fill="midnightblue" stroke="midnightblue" points="364.92,-154.56 374.68,-150.44 364.48,-147.57 364.92,-154.56"/>
</g>
<!-- Node9 -->
<g id="node9" class="node">
<title>Node9</title>
<g id="a_node9"><a xlink:href="classorcs__engine__t.html#a1c033e3455736ba89052a40c69ebe0af" target="_top" xlink:title=" ">
<polygon fill="white" stroke="black" points="417,-44.5 417,-74.5 523,-74.5 523,-44.5 417,-44.5"/>
<text text-anchor="start" x="425" y="-62.5" font-family="Helvetica,sans-Serif" font-size="10.00">orcs_engine_t::get</text>
<text text-anchor="middle" x="470" y="-51.5" font-family="Helvetica,sans-Serif" font-size="10.00">_global_cycle</text>
</a>
</g>
</g>
<!-- Node1&#45;&gt;Node9 -->
<g id="edge9" class="edge">
<title>Node1&#45;&gt;Node9</title>
<path fill="none" stroke="midnightblue" d="M79.49,-159.81C95.23,-140.26 133.98,-96.45 178,-78.5 252.23,-48.22 345.96,-48.13 406.67,-52.47"/>
<polygon fill="midnightblue" stroke="midnightblue" points="406.62,-55.97 416.87,-53.26 407.17,-48.99 406.62,-55.97"/>
</g>
<!-- Node10 -->
<g id="node10" class="node">
<title>Node10</title>
<g id="a_node10"><a xlink:href="classmemory__channel__t.html#a151f2722f51e3b756606850121cb5938" target="_top" xlink:title=" ">
<polygon fill="white" stroke="black" points="192.5,-0.5 192.5,-30.5 324.5,-30.5 324.5,-0.5 192.5,-0.5"/>
<text text-anchor="start" x="200.5" y="-18.5" font-family="Helvetica,sans-Serif" font-size="10.00">memory_channel_t::get</text>
<text text-anchor="middle" x="258.5" y="-7.5" font-family="Helvetica,sans-Serif" font-size="10.00">_minimum_latency</text>
</a>
</g>
</g>
<!-- Node1&#45;&gt;Node10 -->
<g id="edge10" class="edge">
<title>Node1&#45;&gt;Node10</title>
<path fill="none" stroke="midnightblue" d="M77.91,-159.66C92.25,-136.57 131.18,-78.38 178,-45.5 183.68,-41.51 189.95,-37.98 196.41,-34.86"/>
<polygon fill="midnightblue" stroke="midnightblue" points="198.26,-37.87 205.97,-30.6 195.41,-31.48 198.26,-37.87"/>
</g>
<!-- Node11 -->
<g id="node11" class="node">
<title>Node11</title>
<g id="a_node11"><a xlink:href="classmemory__package__t.html#a3c72eb673475f0042eaf97c317bca563" target="_top" xlink:title=" ">
<polygon fill="white" stroke="black" points="182.5,-88.5 182.5,-118.5 334.5,-118.5 334.5,-88.5 182.5,-88.5"/>
<text text-anchor="start" x="190.5" y="-106.5" font-family="Helvetica,sans-Serif" font-size="10.00">memory_package_t::update</text>
<text text-anchor="middle" x="258.5" y="-95.5" font-family="Helvetica,sans-Serif" font-size="10.00">PackageDRAMReady</text>
</a>
</g>
</g>
<!-- Node1&#45;&gt;Node11 -->
<g id="edge12" class="edge">
<title>Node1&#45;&gt;Node11</title>
<path fill="none" stroke="midnightblue" d="M98.97,-159.9C126.8,-150 170.91,-134.31 205.54,-121.99"/>
<polygon fill="midnightblue" stroke="midnightblue" points="206.79,-125.26 215.04,-118.61 204.45,-118.66 206.79,-125.26"/>
</g>
<!-- Node3 -->
<g id="node3" class="node">
<title>Node3</title>
<g id="a_node3"><a xlink:href="classmemory__channel__t.html#a5a7c4d7ec380f17380d540b5eec3ac8d" target="_top" xlink:title=" ">
<polygon fill="white" stroke="black" points="379,-264 379,-283 561,-283 561,-264 379,-264"/>
<text text-anchor="middle" x="470" y="-271" font-family="Helvetica,sans-Serif" font-size="10.00">memory_channel_t::findNextRead</text>
</a>
</g>
</g>
<!-- Node2&#45;&gt;Node3 -->
<g id="edge2" class="edge">
<title>Node2&#45;&gt;Node3</title>
<path fill="none" stroke="midnightblue" d="M337.51,-273.5C347.74,-273.5 358.33,-273.5 368.86,-273.5"/>
<polygon fill="midnightblue" stroke="midnightblue" points="368.92,-277 378.92,-273.5 368.92,-270 368.92,-277"/>
</g>
<!-- Node5 -->
<g id="node5" class="node">
<title>Node5</title>
<g id="a_node5"><a xlink:href="classmemory__channel__t.html#a28d10a6f02013776ba244115822aab60" target="_top" xlink:title=" ">
<polygon fill="white" stroke="black" points="391,-214.5 391,-244.5 549,-244.5 549,-214.5 391,-214.5"/>
<text text-anchor="start" x="399" y="-232.5" font-family="Helvetica,sans-Serif" font-size="10.00">memory_channel_t::findNext</text>
<text text-anchor="middle" x="470" y="-221.5" font-family="Helvetica,sans-Serif" font-size="10.00">Write</text>
</a>
</g>
</g>
<!-- Node2&#45;&gt;Node5 -->
<g id="edge4" class="edge">
<title>Node2&#45;&gt;Node5</title>
<path fill="none" stroke="midnightblue" d="M304.96,-263.95C329.07,-258.89 359.44,-252.51 387.47,-246.62"/>
<polygon fill="midnightblue" stroke="midnightblue" points="388.2,-250.05 397.27,-244.57 386.76,-243.2 388.2,-250.05"/>
</g>
<!-- Node3&#45;&gt;Node4 -->
<g id="edge3" class="edge">
<title>Node3&#45;&gt;Node4</title>
<path fill="none" stroke="midnightblue" d="M561.27,-273.5C571.1,-273.5 581.09,-273.5 590.87,-273.5"/>
<polygon fill="midnightblue" stroke="midnightblue" points="590.97,-277 600.97,-273.5 590.97,-270 590.97,-277"/>
</g>
<!-- Node5&#45;&gt;Node4 -->
<g id="edge5" class="edge">
<title>Node5&#45;&gt;Node4</title>
<path fill="none" stroke="midnightblue" d="M541.49,-244.52C568.08,-250.19 597.92,-256.54 622.85,-261.86"/>
<polygon fill="midnightblue" stroke="midnightblue" points="622.35,-265.33 632.86,-263.99 623.81,-258.48 622.35,-265.33"/>
</g>
<!-- Node11&#45;&gt;Node8 -->
<g id="edge13" class="edge">
<title>Node11&#45;&gt;Node8</title>
<path fill="none" stroke="midnightblue" d="M334.54,-118.19C359.51,-123.07 386.93,-128.44 410.45,-133.04"/>
<polygon fill="midnightblue" stroke="midnightblue" points="409.8,-136.48 420.28,-134.97 411.14,-129.61 409.8,-136.48"/>
</g>
<!-- Node11&#45;&gt;Node9 -->
<g id="edge15" class="edge">
<title>Node11&#45;&gt;Node9</title>
<path fill="none" stroke="midnightblue" d="M331.01,-88.48C355.7,-83.3 383.13,-77.53 406.99,-72.52"/>
<polygon fill="midnightblue" stroke="midnightblue" points="407.91,-75.91 416.98,-70.43 406.47,-69.06 407.91,-75.91"/>
</g>
<!-- Node12 -->
<g id="node12" class="node">
<title>Node12</title>
<g id="a_node12"><a xlink:href="enumerations_8cpp.html#a4f1219a7c31d137c368e36cea5be9128" target="_top" xlink:title="Enumerates the package state,.">
<polygon fill="white" stroke="black" points="386.5,-94 386.5,-113 553.5,-113 553.5,-94 386.5,-94"/>
<text text-anchor="middle" x="470" y="-101" font-family="Helvetica,sans-Serif" font-size="10.00">get_enum_package_state_char</text>
</a>
</g>
</g>
<!-- Node11&#45;&gt;Node12 -->
<g id="edge14" class="edge">
<title>Node11&#45;&gt;Node12</title>
<path fill="none" stroke="midnightblue" d="M334.54,-103.5C348.05,-103.5 362.28,-103.5 376.22,-103.5"/>
<polygon fill="midnightblue" stroke="midnightblue" points="376.31,-107 386.31,-103.5 376.31,-100 376.31,-107"/>
</g>
</g>
</svg>
        <g id="navigator" transform="translate(0 0)" fill="#404254">
                <rect fill="#f2f5e9" fill-opacity="0.5" stroke="#606060" stroke-width=".5" x="0" y="0" width="60" height="60"/>
                <use id="zoomplus" xlink:href="#zoomPlus" x="17" y="9" onmousedown="handleZoom(evt,'in')"/>
                <use id="zoomminus" xlink:href="#zoomMin" x="42" y="9" onmousedown="handleZoom(evt,'out')"/>
                <use id="reset" xlink:href="#resetDef" x="30" y="36" onmousedown="handleReset()"/>
                <g id="arrowUp" xlink:href="#dirArrow" transform="translate(30 24)" onmousedown="handlePan(0,-1)">
                  <use xlink:href="#rim" fill="#404040">
                        <set attributeName="fill" to="#808080" begin="arrowUp.mouseover" end="arrowUp.mouseout"/>
                  </use>
                  <path fill="none" stroke="white" stroke-width="1.5" d="M0,-3.0v7 M-2.5,-0.5L0,-3.0L2.5,-0.5"/>
                </g>
                <g id="arrowRight" xlink:href="#dirArrow" transform="rotate(90) translate(36 -43)" onmousedown="handlePan(1,0)">
                  <use xlink:href="#rim" fill="#404040">
                        <set attributeName="fill" to="#808080" begin="arrowRight.mouseover" end="arrowRight.mouseout"/>
                  </use>
                  <path fill="none" stroke="white" stroke-width="1.5" d="M0,-3.0v7 M-2.5,-0.5L0,-3.0L2.5,-0.5"/>
                </g>
                <g id="arrowDown" xlink:href="#dirArrow" transform="rotate(180) translate(-30 -48)" onmousedown="handlePan(0,1)">
                  <use xlink:href="#rim" fill="#404040">
                        <set attributeName="fill" to="#808080" begin="arrowDown.mouseover" end="arrowDown.mouseout"/>
                  </use>
                  <path fill="none" stroke="white" stroke-width="1.5" d="M0,-3.0v7 M-2.5,-0.5L0,-3.0L2.5,-0.5"/>
                </g>
                <g id="arrowLeft" xlink:href="#dirArrow" transform="rotate(270) translate(-36 17)" onmousedown="handlePan(-1,0)">
                  <use xlink:href="#rim" fill="#404040">
                        <set attributeName="fill" to="#808080" begin="arrowLeft.mouseover" end="arrowLeft.mouseout"/>
                  </use>
                  <path fill="none" stroke="white" stroke-width="1.5" d="M0,-3.0v7 M-2.5,-0.5L0,-3.0L2.5,-0.5"/>
                </g>
        </g>
        <svg viewBox="0 0 15 15" width="100%" height="30px" preserveAspectRatio="xMaxYMin meet">
         <g id="arrow_out" transform="scale(0.3 0.3)">
          <a xlink:href="classmemory__channel__t_a523c70366dd2b7e7bbe92bbc1d8ceebc_cgraph_org.svg" target="_base">
           <rect id="button" ry="5" rx="5" y="6" x="6" height="38" width="38"
                fill="#f2f5e9" fill-opacity="0.5" stroke="#606060" stroke-width="1.0"/>
           <path id="arrow"
             d="M 11.500037,31.436501 C 11.940474,20.09759 22.043105,11.32322 32.158766,21.979434 L 37.068811,17.246167 C 37.068811,17.246167 37.088388,32 37.088388,32 L 22.160133,31.978069 C 22.160133,31.978069 26.997745,27.140456 26.997745,27.140456 C 18.528582,18.264221 13.291696,25.230495 11.500037,31.436501 z"
             style="fill:#404040;"/>
          </a>
         </g>
        </svg>
</svg>
