<?xml version="1.0" encoding="UTF-8" standalone="no"?>
<!DOCTYPE svg PUBLIC "-//W3C//DTD SVG 1.1//EN"
 "http://www.w3.org/Graphics/SVG/1.1/DTD/svg11.dtd">
<!-- Generated by graphviz version 2.43.0 (0)
 -->
<!-- Title: memory_channel_t::findNext Pages: 1 -->
<svg width="575pt" height="78pt"
 viewBox="0.00 0.00 575.00 77.50" xmlns="http://www.w3.org/2000/svg" xmlns:xlink="http://www.w3.org/1999/xlink">
<g id="graph0" class="graph" transform="scale(1 1) rotate(0) translate(4 73.5)">
<title>memory_channel_t::findNext</title>
<polygon fill="white" stroke="transparent" points="-4,4 -4,-73.5 571,-73.5 571,4 -4,4"/>
<!-- Node1 -->
<g id="node1" class="node">
<title>Node1</title>
<g id="a_node1"><a xlink:title=" ">
<polygon fill="#bfbfbf" stroke="black" points="0,-28 0,-47 158,-47 158,-28 0,-28"/>
<text text-anchor="middle" x="79" y="-35" font-family="Helvetica,sans-Serif" font-size="10.00">memory_channel_t::findNext</text>
</a>
</g>
</g>
<!-- Node2 -->
<g id="node2" class="node">
<title>Node2</title>
<g id="a_node2"><a xlink:href="classmemory__channel__t.html#a5a7c4d7ec380f17380d540b5eec3ac8d" target="_top" xlink:title=" ">
<polygon fill="white" stroke="black" points="194,-50 194,-69 376,-69 376,-50 194,-50"/>
<text text-anchor="middle" x="285" y="-57" font-family="Helvetica,sans-Serif" font-size="10.00">memory_channel_t::findNextRead</text>
</a>
</g>
</g>
<!-- Node1&#45;&gt;Node2 -->
<g id="edge1" class="edge">
<title>Node1&#45;&gt;Node2</title>
<path fill="none" stroke="midnightblue" d="M158.29,-45.94C167.28,-46.91 176.54,-47.91 185.75,-48.9"/>
<polygon fill="midnightblue" stroke="midnightblue" points="185.4,-52.39 195.72,-49.98 186.15,-45.43 185.4,-52.39"/>
</g>
<!-- Node4 -->
<g id="node4" class="node">
<title>Node4</title>
<g id="a_node4"><a xlink:href="classmemory__channel__t.html#a28d10a6f02013776ba244115822aab60" target="_top" xlink:title=" ">
<polygon fill="white" stroke="black" points="206,-0.5 206,-30.5 364,-30.5 364,-0.5 206,-0.5"/>
<text text-anchor="start" x="214" y="-18.5" font-family="Helvetica,sans-Serif" font-size="10.00">memory_channel_t::findNext</text>
<text text-anchor="middle" x="285" y="-7.5" font-family="Helvetica,sans-Serif" font-size="10.00">Write</text>
</a>
</g>
</g>
<!-- Node1&#45;&gt;Node4 -->
<g id="edge3" class="edge">
<title>Node1&#45;&gt;Node4</title>
<path fill="none" stroke="midnightblue" d="M158.29,-29.06C170.61,-27.73 183.42,-26.35 195.95,-25"/>
<polygon fill="midnightblue" stroke="midnightblue" points="196.35,-28.47 205.92,-23.92 195.6,-21.51 196.35,-28.47"/>
</g>
<!-- Node3 -->
<g id="node3" class="node">
<title>Node3</title>
<g id="a_node3"><a xlink:href="classmemory__channel__t.html#ad4cc8246cce2330a41968f544dac9319" target="_top" xlink:title=" ">
<polygon fill="white" stroke="black" points="412,-28 412,-47 567,-47 567,-28 412,-28"/>
<text text-anchor="middle" x="489.5" y="-35" font-family="Helvetica,sans-Serif" font-size="10.00">memory_channel_t::get_row</text>
</a>
</g>
</g>
<!-- Node2&#45;&gt;Node3 -->
<g id="edge2" class="edge">
<title>Node2&#45;&gt;Node3</title>
<path fill="none" stroke="midnightblue" d="M373.64,-49.98C382.98,-48.96 392.48,-47.93 401.81,-46.92"/>
<polygon fill="midnightblue" stroke="midnightblue" points="402.29,-50.39 411.85,-45.83 401.53,-43.43 402.29,-50.39"/>
</g>
<!-- Node4&#45;&gt;Node3 -->
<g id="edge4" class="edge">
<title>Node4&#45;&gt;Node3</title>
<path fill="none" stroke="midnightblue" d="M364,-23.97C376.4,-25.32 389.29,-26.72 401.87,-28.09"/>
<polygon fill="midnightblue" stroke="midnightblue" points="401.55,-31.57 411.87,-29.18 402.31,-24.62 401.55,-31.57"/>
</g>
</g>
</svg>
