<?xml version="1.0" encoding="UTF-8" standalone="no"?>
<!DOCTYPE svg PUBLIC "-//W3C//DTD SVG 1.1//EN"
 "http://www.w3.org/Graphics/SVG/1.1/DTD/svg11.dtd">
<!-- Generated by graphviz version 2.43.0 (0)
 -->
<!-- Title: memory_channel_t::set_masks Pages: 1 -->
<svg width="443pt" height="61pt"
 viewBox="0.00 0.00 443.00 61.00" xmlns="http://www.w3.org/2000/svg" xmlns:xlink="http://www.w3.org/1999/xlink">
<g id="graph0" class="graph" transform="scale(1 1) rotate(0) translate(4 57)">
<title>memory_channel_t::set_masks</title>
<polygon fill="white" stroke="transparent" points="-4,4 -4,-57 439,-57 439,4 -4,4"/>
<!-- Node1 -->
<g id="node1" class="node">
<title>Node1</title>
<g id="a_node1"><a xlink:title=" ">
<polygon fill="#bfbfbf" stroke="black" points="0,-22.5 0,-52.5 131,-52.5 131,-22.5 0,-22.5"/>
<text text-anchor="start" x="8" y="-40.5" font-family="Helvetica,sans-Serif" font-size="10.00">memory_channel_t::set</text>
<text text-anchor="middle" x="65.5" y="-29.5" font-family="Helvetica,sans-Serif" font-size="10.00">_masks</text>
</a>
</g>
</g>
<!-- Node2 -->
<g id="node2" class="node">
<title>Node2</title>
<g id="a_node2"><a xlink:href="classutils__t.html#a8dc759ed0961089212af1407f56dde35" target="_top" xlink:title=" ">
<polygon fill="white" stroke="black" points="307,-22.5 307,-52.5 435,-52.5 435,-22.5 307,-22.5"/>
<text text-anchor="start" x="315" y="-40.5" font-family="Helvetica,sans-Serif" font-size="10.00">utils_t::check_if_power</text>
<text text-anchor="middle" x="371" y="-29.5" font-family="Helvetica,sans-Serif" font-size="10.00">_of_two</text>
</a>
</g>
</g>
<!-- Node1&#45;&gt;Node2 -->
<g id="edge1" class="edge">
<title>Node1&#45;&gt;Node2</title>
<path fill="none" stroke="midnightblue" d="M131.1,-39.71C143.04,-40.04 155.39,-40.33 167,-40.5 213.22,-41.19 224.78,-41.2 271,-40.5 279.34,-40.37 288.08,-40.19 296.76,-39.97"/>
<polygon fill="midnightblue" stroke="midnightblue" points="296.99,-43.46 306.9,-39.7 296.81,-36.47 296.99,-43.46"/>
</g>
<!-- Node3 -->
<g id="node3" class="node">
<title>Node3</title>
<g id="a_node3"><a xlink:href="classutils__t.html#a9db286f7de201c5b004f35c6bcf3d99f" target="_top" xlink:title=" ">
<polygon fill="white" stroke="black" points="167,-0.5 167,-30.5 271,-30.5 271,-0.5 167,-0.5"/>
<text text-anchor="start" x="175" y="-18.5" font-family="Helvetica,sans-Serif" font-size="10.00">utils_t::get_power</text>
<text text-anchor="middle" x="219" y="-7.5" font-family="Helvetica,sans-Serif" font-size="10.00">_of_two</text>
</a>
</g>
</g>
<!-- Node1&#45;&gt;Node3 -->
<g id="edge2" class="edge">
<title>Node1&#45;&gt;Node3</title>
<path fill="none" stroke="midnightblue" d="M131.19,-28.11C139.65,-26.88 148.3,-25.62 156.71,-24.4"/>
<polygon fill="midnightblue" stroke="midnightblue" points="157.41,-27.84 166.8,-22.93 156.41,-20.91 157.41,-27.84"/>
</g>
<!-- Node3&#45;&gt;Node2 -->
<g id="edge3" class="edge">
<title>Node3&#45;&gt;Node2</title>
<path fill="none" stroke="midnightblue" d="M271.2,-23.01C279.44,-24.22 288.1,-25.49 296.73,-26.75"/>
<polygon fill="midnightblue" stroke="midnightblue" points="296.42,-30.25 306.82,-28.23 297.44,-23.32 296.42,-30.25"/>
</g>
</g>
</svg>
