<?xml version="1.0" encoding="UTF-8" standalone="no"?>
<!DOCTYPE svg PUBLIC "-//W3C//DTD SVG 1.1//EN"
 "http://www.w3.org/Graphics/SVG/1.1/DTD/svg11.dtd">
<!-- Generated by graphviz version 2.43.0 (0)
 -->
<!-- Title: memory_controller_t::clock Pages: 1 -->
<svg width="353pt" height="127pt"
 viewBox="0.00 0.00 353.00 127.00" xmlns="http://www.w3.org/2000/svg" xmlns:xlink="http://www.w3.org/1999/xlink">
<g id="graph0" class="graph" transform="scale(1 1) rotate(0) translate(4 123)">
<title>memory_controller_t::clock</title>
<polygon fill="white" stroke="transparent" points="-4,4 -4,-123 349,-123 349,4 -4,4"/>
<!-- Node1 -->
<g id="node1" class="node">
<title>Node1</title>
<g id="a_node1"><a xlink:title=" ">
<polygon fill="#bfbfbf" stroke="black" points="0,-44.5 0,-74.5 119,-74.5 119,-44.5 0,-44.5"/>
<text text-anchor="start" x="8" y="-62.5" font-family="Helvetica,sans-Serif" font-size="10.00">memory_controller_t</text>
<text text-anchor="middle" x="59.5" y="-51.5" font-family="Helvetica,sans-Serif" font-size="10.00">::clock</text>
</a>
</g>
</g>
<!-- Node1&#45;&gt;Node1 -->
<g id="edge1" class="edge">
<title>Node1&#45;&gt;Node1</title>
<path fill="none" stroke="midnightblue" d="M26.39,-74.66C18.4,-84.06 29.44,-93 59.5,-93 77.82,-93 89.07,-89.68 93.26,-84.96"/>
<polygon fill="midnightblue" stroke="midnightblue" points="96.73,-84.42 92.61,-74.66 89.75,-84.86 96.73,-84.42"/>
</g>
<!-- Node2 -->
<g id="node2" class="node">
<title>Node2</title>
<g id="a_node2"><a xlink:href="classmemory__controller__t.html#a9053d0cce5ecb02b7e4261492a50a4af" target="_top" xlink:title=" ">
<polygon fill="white" stroke="black" points="190.5,-88.5 190.5,-118.5 309.5,-118.5 309.5,-88.5 190.5,-88.5"/>
<text text-anchor="start" x="198.5" y="-106.5" font-family="Helvetica,sans-Serif" font-size="10.00">memory_controller_t</text>
<text text-anchor="middle" x="250" y="-95.5" font-family="Helvetica,sans-Serif" font-size="10.00">::get_channel</text>
</a>
</g>
</g>
<!-- Node1&#45;&gt;Node2 -->
<g id="edge2" class="edge">
<title>Node1&#45;&gt;Node2</title>
<path fill="none" stroke="midnightblue" d="M119.11,-73.18C138.61,-77.73 160.51,-82.84 180.68,-87.55"/>
<polygon fill="midnightblue" stroke="midnightblue" points="179.89,-90.96 190.43,-89.83 181.48,-84.15 179.89,-90.96"/>
</g>
<!-- Node3 -->
<g id="node3" class="node">
<title>Node3</title>
<g id="a_node3"><a xlink:href="enumerations_8cpp.html#abb39d040475b58d11b29c242b33091e1" target="_top" xlink:title="Enumerates the MEMORY OPERATION OF MOB,debug only.">
<polygon fill="white" stroke="black" points="155,-50 155,-69 345,-69 345,-50 155,-50"/>
<text text-anchor="middle" x="250" y="-57" font-family="Helvetica,sans-Serif" font-size="10.00">get_enum_memory_operation_char</text>
</a>
</g>
</g>
<!-- Node1&#45;&gt;Node3 -->
<g id="edge3" class="edge">
<title>Node1&#45;&gt;Node3</title>
<path fill="none" stroke="midnightblue" d="M119.11,-59.5C127.27,-59.5 135.84,-59.5 144.53,-59.5"/>
<polygon fill="midnightblue" stroke="midnightblue" points="144.77,-63 154.77,-59.5 144.77,-56 144.77,-63"/>
</g>
<!-- Node4 -->
<g id="node4" class="node">
<title>Node4</title>
<g id="a_node4"><a xlink:href="classorcs__engine__t.html#a1c033e3455736ba89052a40c69ebe0af" target="_top" xlink:title=" ">
<polygon fill="white" stroke="black" points="197,-0.5 197,-30.5 303,-30.5 303,-0.5 197,-0.5"/>
<text text-anchor="start" x="205" y="-18.5" font-family="Helvetica,sans-Serif" font-size="10.00">orcs_engine_t::get</text>
<text text-anchor="middle" x="250" y="-7.5" font-family="Helvetica,sans-Serif" font-size="10.00">_global_cycle</text>
</a>
</g>
</g>
<!-- Node1&#45;&gt;Node4 -->
<g id="edge4" class="edge">
<title>Node1&#45;&gt;Node4</title>
<path fill="none" stroke="midnightblue" d="M119.11,-45.82C140.67,-40.79 165.14,-35.08 186.98,-29.98"/>
<polygon fill="midnightblue" stroke="midnightblue" points="187.87,-33.36 196.82,-27.68 186.28,-26.55 187.87,-33.36"/>
</g>
</g>
</svg>
