<?xml version="1.0" encoding="UTF-8" standalone="no"?>
<!DOCTYPE svg PUBLIC "-//W3C//DTD SVG 1.1//EN"
 "http://www.w3.org/Graphics/SVG/1.1/DTD/svg11.dtd">
<!-- Generated by graphviz version 2.43.0 (0)
 -->
<!-- Title: cache_manager_t::searchData Pages: 1 -->
<svg width="560pt" height="91pt"
 viewBox="0.00 0.00 560.00 91.27" xmlns="http://www.w3.org/2000/svg" xmlns:xlink="http://www.w3.org/1999/xlink">
<g id="graph0" class="graph" transform="scale(1 1) rotate(0) translate(4 87.27)">
<title>cache_manager_t::searchData</title>
<polygon fill="white" stroke="transparent" points="-4,4 -4,-87.27 556,-87.27 556,4 -4,4"/>
<!-- Node1 -->
<g id="node1" class="node">
<title>Node1</title>
<g id="a_node1"><a xlink:title=" ">
<polygon fill="#bfbfbf" stroke="black" points="0,-44.5 0,-63.5 164,-63.5 164,-44.5 0,-44.5"/>
<text text-anchor="middle" x="82" y="-51.5" font-family="Helvetica,sans-Serif" font-size="10.00">cache_manager_t::searchData</text>
</a>
</g>
</g>
<!-- Node2 -->
<g id="node2" class="node">
<title>Node2</title>
<g id="a_node2"><a xlink:href="enumerations_8cpp.html#abb39d040475b58d11b29c242b33091e1" target="_top" xlink:title="Enumerates the MEMORY OPERATION OF MOB,debug only.">
<polygon fill="white" stroke="black" points="362,-44.5 362,-63.5 552,-63.5 552,-44.5 362,-44.5"/>
<text text-anchor="middle" x="457" y="-51.5" font-family="Helvetica,sans-Serif" font-size="10.00">get_enum_memory_operation_char</text>
</a>
</g>
</g>
<!-- Node1&#45;&gt;Node2 -->
<g id="edge1" class="edge">
<title>Node1&#45;&gt;Node2</title>
<path fill="none" stroke="midnightblue" d="M118.02,-63.5C141.1,-69.26 172.11,-76.05 200,-79 255.69,-84.88 270.25,-84.31 326,-79 353.03,-76.42 382.79,-70.9 407.01,-65.7"/>
<polygon fill="midnightblue" stroke="midnightblue" points="408.01,-69.07 417.03,-63.5 406.51,-62.23 408.01,-69.07"/>
</g>
<!-- Node3 -->
<g id="node3" class="node">
<title>Node3</title>
<g id="a_node3"><a xlink:href="classorcs__engine__t.html#a1c033e3455736ba89052a40c69ebe0af" target="_top" xlink:title=" ">
<polygon fill="white" stroke="black" points="210,-39 210,-69 316,-69 316,-39 210,-39"/>
<text text-anchor="start" x="218" y="-57" font-family="Helvetica,sans-Serif" font-size="10.00">orcs_engine_t::get</text>
<text text-anchor="middle" x="263" y="-46" font-family="Helvetica,sans-Serif" font-size="10.00">_global_cycle</text>
</a>
</g>
</g>
<!-- Node1&#45;&gt;Node3 -->
<g id="edge2" class="edge">
<title>Node1&#45;&gt;Node3</title>
<path fill="none" stroke="midnightblue" d="M164.12,-54C176.02,-54 188.12,-54 199.56,-54"/>
<polygon fill="midnightblue" stroke="midnightblue" points="199.87,-57.5 209.87,-54 199.86,-50.5 199.87,-57.5"/>
</g>
<!-- Node4 -->
<g id="node4" class="node">
<title>Node4</title>
<g id="a_node4"><a xlink:href="classcache__manager__t.html#a0a94cd6337296baa14acfe4c640ce821" target="_top" xlink:title=" ">
<polygon fill="white" stroke="black" points="200,-0.5 200,-19.5 326,-19.5 326,-0.5 200,-0.5"/>
<text text-anchor="middle" x="263" y="-7.5" font-family="Helvetica,sans-Serif" font-size="10.00">cache_manager_t::isIn</text>
</a>
</g>
</g>
<!-- Node1&#45;&gt;Node4 -->
<g id="edge3" class="edge">
<title>Node1&#45;&gt;Node4</title>
<path fill="none" stroke="midnightblue" d="M121.84,-44.45C148.7,-37.85 184.63,-29.02 213.39,-21.95"/>
<polygon fill="midnightblue" stroke="midnightblue" points="214.36,-25.31 223.24,-19.53 212.69,-18.52 214.36,-25.31"/>
</g>
<!-- Node4&#45;&gt;Node2 -->
<g id="edge4" class="edge">
<title>Node4&#45;&gt;Node2</title>
<path fill="none" stroke="midnightblue" d="M305.66,-19.55C334.72,-26.21 373.69,-35.14 404.67,-42.24"/>
<polygon fill="midnightblue" stroke="midnightblue" points="403.89,-45.65 414.42,-44.47 405.45,-38.83 403.89,-45.65"/>
</g>
</g>
</svg>
