<?xml version="1.0" encoding="UTF-8" standalone="no"?>
<!DOCTYPE svg PUBLIC "-//W3C//DTD SVG 1.1//EN"
 "http://www.w3.org/Graphics/SVG/1.1/DTD/svg11.dtd">
<!-- Generated by graphviz version 2.43.0 (0)
 -->
<!-- Title: hive_controller_t::check_sub_requests Pages: 1 -->
<svg width="537pt" height="158pt"
 viewBox="0.00 0.00 537.00 158.39" xmlns="http://www.w3.org/2000/svg" xmlns:xlink="http://www.w3.org/1999/xlink">
<g id="graph0" class="graph" transform="scale(1 1) rotate(0) translate(4 154.39)">
<title>hive_controller_t::check_sub_requests</title>
<polygon fill="white" stroke="transparent" points="-4,4 -4,-154.39 533,-154.39 533,4 -4,4"/>
<!-- Node1 -->
<g id="node1" class="node">
<title>Node1</title>
<g id="a_node1"><a xlink:title=" ">
<polygon fill="#bfbfbf" stroke="black" points="0,-73.5 0,-103.5 115,-103.5 115,-73.5 0,-73.5"/>
<text text-anchor="start" x="8" y="-91.5" font-family="Helvetica,sans-Serif" font-size="10.00">hive_controller_t::</text>
<text text-anchor="middle" x="57.5" y="-80.5" font-family="Helvetica,sans-Serif" font-size="10.00">check_sub_requests</text>
</a>
</g>
</g>
<!-- Node2 -->
<g id="node2" class="node">
<title>Node2</title>
<g id="a_node2"><a xlink:href="classorcs__engine__t.html#a1c033e3455736ba89052a40c69ebe0af" target="_top" xlink:title=" ">
<polygon fill="white" stroke="black" points="381,-114.5 381,-144.5 487,-144.5 487,-114.5 381,-114.5"/>
<text text-anchor="start" x="389" y="-132.5" font-family="Helvetica,sans-Serif" font-size="10.00">orcs_engine_t::get</text>
<text text-anchor="middle" x="434" y="-121.5" font-family="Helvetica,sans-Serif" font-size="10.00">_global_cycle</text>
</a>
</g>
</g>
<!-- Node1&#45;&gt;Node2 -->
<g id="edge1" class="edge">
<title>Node1&#45;&gt;Node2</title>
<path fill="none" stroke="midnightblue" d="M79.29,-103.66C97.26,-115.77 124.45,-131.78 151,-138.5 224.8,-157.17 312.93,-149.85 370.79,-141.22"/>
<polygon fill="midnightblue" stroke="midnightblue" points="371.53,-144.65 380.88,-139.66 370.46,-137.73 371.53,-144.65"/>
</g>
<!-- Node3 -->
<g id="node3" class="node">
<title>Node3</title>
<g id="a_node3"><a xlink:href="classmemory__controller__t.html#ad78d3fe5a6cf2ee6e22f9e563dd6e20e" target="_top" xlink:title=" ">
<polygon fill="white" stroke="black" points="167.5,-98.5 167.5,-128.5 286.5,-128.5 286.5,-98.5 167.5,-98.5"/>
<text text-anchor="start" x="175.5" y="-116.5" font-family="Helvetica,sans-Serif" font-size="10.00">memory_controller_t</text>
<text text-anchor="middle" x="227" y="-105.5" font-family="Helvetica,sans-Serif" font-size="10.00">::requestDRAM</text>
</a>
</g>
</g>
<!-- Node1&#45;&gt;Node3 -->
<g id="edge2" class="edge">
<title>Node1&#45;&gt;Node3</title>
<path fill="none" stroke="midnightblue" d="M115.21,-96.96C128.73,-98.98 143.3,-101.16 157.29,-103.24"/>
<polygon fill="midnightblue" stroke="midnightblue" points="156.94,-106.73 167.35,-104.75 157.98,-99.81 156.94,-106.73"/>
</g>
<!-- Node5 -->
<g id="node5" class="node">
<title>Node5</title>
<g id="a_node5"><a xlink:href="classhive__controller__t.html#a98425729af83e20672d96e3fe1ba5ea6" target="_top" xlink:title=" ">
<polygon fill="white" stroke="black" points="171.5,-0.5 171.5,-30.5 282.5,-30.5 282.5,-0.5 171.5,-0.5"/>
<text text-anchor="start" x="179.5" y="-18.5" font-family="Helvetica,sans-Serif" font-size="10.00">hive_controller_t::</text>
<text text-anchor="middle" x="227" y="-7.5" font-family="Helvetica,sans-Serif" font-size="10.00">reset_sub_requests</text>
</a>
</g>
</g>
<!-- Node1&#45;&gt;Node5 -->
<g id="edge5" class="edge">
<title>Node1&#45;&gt;Node5</title>
<path fill="none" stroke="midnightblue" d="M84.21,-73.29C102.45,-62.9 127.72,-49.3 151,-39.5 155.49,-37.61 160.18,-35.78 164.93,-34.03"/>
<polygon fill="midnightblue" stroke="midnightblue" points="166.47,-37.2 174.72,-30.57 164.13,-30.61 166.47,-37.2"/>
</g>
<!-- Node6 -->
<g id="node6" class="node">
<title>Node6</title>
<g id="a_node6"><a xlink:href="classmemory__package__t.html#a8e3f9e4c3e46dc7fb5999868db55aa2f" target="_top" xlink:title=" ">
<polygon fill="white" stroke="black" points="151,-49.5 151,-79.5 303,-79.5 303,-49.5 151,-49.5"/>
<text text-anchor="start" x="159" y="-67.5" font-family="Helvetica,sans-Serif" font-size="10.00">memory_package_t::update</text>
<text text-anchor="middle" x="227" y="-56.5" font-family="Helvetica,sans-Serif" font-size="10.00">PackageFree</text>
</a>
</g>
</g>
<!-- Node1&#45;&gt;Node6 -->
<g id="edge6" class="edge">
<title>Node1&#45;&gt;Node6</title>
<path fill="none" stroke="midnightblue" d="M115.21,-80.37C123.46,-79.19 132.11,-77.95 140.78,-76.71"/>
<polygon fill="midnightblue" stroke="midnightblue" points="141.54,-80.14 150.94,-75.26 140.54,-73.21 141.54,-80.14"/>
</g>
<!-- Node3&#45;&gt;Node2 -->
<g id="edge4" class="edge">
<title>Node3&#45;&gt;Node2</title>
<path fill="none" stroke="midnightblue" d="M286.74,-118.08C313.08,-120.14 344.15,-122.57 370.87,-124.65"/>
<polygon fill="midnightblue" stroke="midnightblue" points="370.64,-128.14 380.88,-125.43 371.18,-121.16 370.64,-128.14"/>
</g>
<!-- Node4 -->
<g id="node4" class="node">
<title>Node4</title>
<g id="a_node4"><a xlink:href="enumerations_8cpp.html#abb39d040475b58d11b29c242b33091e1" target="_top" xlink:title="Enumerates the MEMORY OPERATION OF MOB,debug only.">
<polygon fill="white" stroke="black" points="339,-76 339,-95 529,-95 529,-76 339,-76"/>
<text text-anchor="middle" x="434" y="-83" font-family="Helvetica,sans-Serif" font-size="10.00">get_enum_memory_operation_char</text>
</a>
</g>
</g>
<!-- Node3&#45;&gt;Node4 -->
<g id="edge3" class="edge">
<title>Node3&#45;&gt;Node4</title>
<path fill="none" stroke="midnightblue" d="M286.74,-105.48C307.47,-102.65 331.13,-99.41 353.3,-96.39"/>
<polygon fill="midnightblue" stroke="midnightblue" points="353.93,-99.83 363.36,-95.01 352.98,-92.9 353.93,-99.83"/>
</g>
<!-- Node6&#45;&gt;Node2 -->
<g id="edge9" class="edge">
<title>Node6&#45;&gt;Node2</title>
<path fill="none" stroke="midnightblue" d="M274.99,-79.58C284.32,-82.74 294,-86.13 303,-89.5 319.23,-95.58 322.59,-98.93 339,-104.5 349.28,-107.99 360.33,-111.31 371.11,-114.31"/>
<polygon fill="midnightblue" stroke="midnightblue" points="370.34,-117.73 380.91,-116.99 372.18,-110.98 370.34,-117.73"/>
</g>
<!-- Node6&#45;&gt;Node4 -->
<g id="edge7" class="edge">
<title>Node6&#45;&gt;Node4</title>
<path fill="none" stroke="midnightblue" d="M303.17,-72.2C311.89,-73.09 320.89,-74.02 329.9,-74.94"/>
<polygon fill="midnightblue" stroke="midnightblue" points="329.75,-78.44 340.06,-75.98 330.47,-71.48 329.75,-78.44"/>
</g>
<!-- Node7 -->
<g id="node7" class="node">
<title>Node7</title>
<g id="a_node7"><a xlink:href="enumerations_8cpp.html#a4f1219a7c31d137c368e36cea5be9128" target="_top" xlink:title="Enumerates the package state,.">
<polygon fill="white" stroke="black" points="350.5,-38 350.5,-57 517.5,-57 517.5,-38 350.5,-38"/>
<text text-anchor="middle" x="434" y="-45" font-family="Helvetica,sans-Serif" font-size="10.00">get_enum_package_state_char</text>
</a>
</g>
</g>
<!-- Node6&#45;&gt;Node7 -->
<g id="edge8" class="edge">
<title>Node6&#45;&gt;Node7</title>
<path fill="none" stroke="midnightblue" d="M303.17,-58.27C315.13,-57.27 327.63,-56.24 339.95,-55.22"/>
<polygon fill="midnightblue" stroke="midnightblue" points="340.56,-58.68 350.23,-54.36 339.98,-51.7 340.56,-58.68"/>
</g>
</g>
</svg>
