<?xml version="1.0" encoding="UTF-8" standalone="no"?>
<!DOCTYPE svg PUBLIC "-//W3C//DTD SVG 1.1//EN"
 "http://www.w3.org/Graphics/SVG/1.1/DTD/svg11.dtd">
<!-- Generated by graphviz version 2.43.0 (0)
 -->
<!-- Title: cache_manager_t::finishRequest Pages: 1 -->
<!--zoomable 188 -->
<svg id="main" version="1.1" xmlns="http://www.w3.org/2000/svg" xmlns:xlink="http://www.w3.org/1999/xlink" xml:space="preserve" onload="init(evt)">
<style type="text/css"><![CDATA[
.edge:hover path { stroke: red; }
.edge:hover polygon { stroke: red; fill: red; }
]]></style>
<script type="text/javascript"><![CDATA[
var edges = document.getElementsByTagName('g');
if (edges && edges.length) {
  for (var i=0;i<edges.length;i++) {
    if (edges[i].id.substr(0,4)=='edge') {
      edges[i].setAttribute('class','edge');
    }
  }
}
]]></script>
        <defs>
                <circle id="rim" cx="0" cy="0" r="7"/>
                <circle id="rim2" cx="0" cy="0" r="3.5"/>
                <g id="zoomPlus">
                        <use xlink:href="#rim" fill="#404040">
                                <set attributeName="fill" to="#808080" begin="zoomplus.mouseover" end="zoomplus.mouseout"/>
                        </use>
                        <path d="M-4,0h8M0,-4v8" fill="none" stroke="white" stroke-width="1.5" pointer-events="none"/>
                </g>
                <g id="zoomMin">
                        <use xlink:href="#rim" fill="#404040">
                                <set attributeName="fill" to="#808080" begin="zoomminus.mouseover" end="zoomminus.mouseout"/>
                        </use>
                        <path d="M-4,0h8" fill="none" stroke="white" stroke-width="1.5" pointer-events="none"/>
                </g>
                <g id="dirArrow">
                        <path fill="none" stroke="white" stroke-width="1.5" d="M0,-3.0v7 M-2.5,-0.5L0,-3.0L2.5,-0.5"/>
                </g>
               <g id="resetDef">
                       <use xlink:href="#rim2" fill="#404040">
                               <set attributeName="fill" to="#808080" begin="reset.mouseover" end="reset.mouseout"/>
                       </use>
               </g>
        </defs>

<script type="text/javascript">
var viewWidth = 597;
var viewHeight = 188;
var sectionId = 'dynsection-6';
</script>
<script xlink:href="svgpan.js"/>
<svg id="graph" class="graph">
<g id="viewport">
<title>cache_manager_t::finishRequest</title>
<polygon fill="white" stroke="transparent" points="-4,4 -4,-183.61 593,-183.61 593,4 -4,4"/>
<!-- Node1 -->
<g id="node1" class="node">
<title>Node1</title>
<g id="a_node1"><a xlink:title=" ">
<polygon fill="#bfbfbf" stroke="black" points="0,-78.11 0,-97.11 175,-97.11 175,-78.11 0,-78.11"/>
<text text-anchor="middle" x="87.5" y="-85.11" font-family="Helvetica,sans-Serif" font-size="10.00">cache_manager_t::finishRequest</text>
</a>
</g>
</g>
<!-- Node2 -->
<g id="node2" class="node">
<title>Node2</title>
<g id="a_node2"><a xlink:href="enumerations_8cpp.html#ab2f1f56df233c1decaf1c4736bbdba39" target="_top" xlink:title=" ">
<polygon fill="white" stroke="black" points="211,-160.11 211,-179.11 363,-179.11 363,-160.11 211,-160.11"/>
<text text-anchor="middle" x="287" y="-167.11" font-family="Helvetica,sans-Serif" font-size="10.00">get_enum_cache_type_char</text>
</a>
</g>
</g>
<!-- Node1&#45;&gt;Node2 -->
<g id="edge1" class="edge">
<title>Node1&#45;&gt;Node2</title>
<path fill="none" stroke="midnightblue" d="M106.84,-97.23C130.5,-109.43 173.13,-130.66 211,-145.61 221.21,-149.64 232.4,-153.51 242.95,-156.91"/>
<polygon fill="midnightblue" stroke="midnightblue" points="242.22,-160.35 252.81,-160.03 244.33,-153.68 242.22,-160.35"/>
</g>
<!-- Node3 -->
<g id="node3" class="node">
<title>Node3</title>
<g id="a_node3"><a xlink:href="enumerations_8cpp.html#abb39d040475b58d11b29c242b33091e1" target="_top" xlink:title="Enumerates the MEMORY OPERATION OF MOB,debug only.">
<polygon fill="white" stroke="black" points="399,-119.11 399,-138.11 589,-138.11 589,-119.11 399,-119.11"/>
<text text-anchor="middle" x="494" y="-126.11" font-family="Helvetica,sans-Serif" font-size="10.00">get_enum_memory_operation_char</text>
</a>
</g>
</g>
<!-- Node1&#45;&gt;Node3 -->
<g id="edge2" class="edge">
<title>Node1&#45;&gt;Node3</title>
<path fill="none" stroke="midnightblue" d="M127.7,-97.12C151.63,-102.54 182.91,-108.97 211,-112.61 269.48,-120.2 335.24,-124.19 388.54,-126.28"/>
<polygon fill="midnightblue" stroke="midnightblue" points="388.56,-129.79 398.68,-126.67 388.82,-122.79 388.56,-129.79"/>
</g>
<!-- Node4 -->
<g id="node4" class="node">
<title>Node4</title>
<g id="a_node4"><a xlink:href="classorcs__engine__t.html#a1c033e3455736ba89052a40c69ebe0af" target="_top" xlink:title=" ">
<polygon fill="white" stroke="black" points="441,-4.61 441,-34.61 547,-34.61 547,-4.61 441,-4.61"/>
<text text-anchor="start" x="449" y="-22.61" font-family="Helvetica,sans-Serif" font-size="10.00">orcs_engine_t::get</text>
<text text-anchor="middle" x="494" y="-11.61" font-family="Helvetica,sans-Serif" font-size="10.00">_global_cycle</text>
</a>
</g>
</g>
<!-- Node1&#45;&gt;Node4 -->
<g id="edge3" class="edge">
<title>Node1&#45;&gt;Node4</title>
<path fill="none" stroke="midnightblue" d="M99.66,-77.92C120.07,-60.91 165.52,-26.28 211,-13.61 284.43,6.85 372.82,0.21 430.83,-8.14"/>
<polygon fill="midnightblue" stroke="midnightblue" points="430.53,-11.63 440.94,-9.65 431.57,-4.71 430.53,-11.63"/>
</g>
<!-- Node5 -->
<g id="node5" class="node">
<title>Node5</title>
<g id="a_node5"><a xlink:href="classmemory__package__t.html#a6a1d3d762c49de7fd39df7534b5315f9" target="_top" xlink:title=" ">
<polygon fill="white" stroke="black" points="211,-23.61 211,-53.61 363,-53.61 363,-23.61 211,-23.61"/>
<text text-anchor="start" x="219" y="-41.61" font-family="Helvetica,sans-Serif" font-size="10.00">memory_package_t::update</text>
<text text-anchor="middle" x="287" y="-30.61" font-family="Helvetica,sans-Serif" font-size="10.00">Clients</text>
</a>
</g>
</g>
<!-- Node1&#45;&gt;Node5 -->
<g id="edge4" class="edge">
<title>Node1&#45;&gt;Node5</title>
<path fill="none" stroke="midnightblue" d="M127.05,-78.05C152.16,-71.82 185.68,-63.5 215.45,-56.11"/>
<polygon fill="midnightblue" stroke="midnightblue" points="216.53,-59.45 225.39,-53.65 214.84,-52.66 216.53,-59.45"/>
</g>
<!-- Node6 -->
<g id="node6" class="node">
<title>Node6</title>
<g id="a_node6"><a xlink:href="classmemory__package__t.html#a5c0eabc68e746f6086e77a14f6150723" target="_top" xlink:title=" ">
<polygon fill="white" stroke="black" points="211,-72.61 211,-102.61 363,-102.61 363,-72.61 211,-72.61"/>
<text text-anchor="start" x="219" y="-90.61" font-family="Helvetica,sans-Serif" font-size="10.00">memory_package_t::update</text>
<text text-anchor="middle" x="287" y="-79.61" font-family="Helvetica,sans-Serif" font-size="10.00">PackageReady</text>
</a>
</g>
</g>
<!-- Node1&#45;&gt;Node6 -->
<g id="edge5" class="edge">
<title>Node1&#45;&gt;Node6</title>
<path fill="none" stroke="midnightblue" d="M175.13,-87.61C183.6,-87.61 192.19,-87.61 200.66,-87.61"/>
<polygon fill="midnightblue" stroke="midnightblue" points="200.89,-91.11 210.89,-87.61 200.89,-84.11 200.89,-91.11"/>
</g>
<!-- Node6&#45;&gt;Node3 -->
<g id="edge6" class="edge">
<title>Node6&#45;&gt;Node3</title>
<path fill="none" stroke="midnightblue" d="M363.17,-102.64C386.95,-107.4 412.85,-112.58 435.22,-117.05"/>
<polygon fill="midnightblue" stroke="midnightblue" points="434.74,-120.53 445.23,-119.06 436.11,-113.66 434.74,-120.53"/>
</g>
<!-- Node6&#45;&gt;Node4 -->
<g id="edge8" class="edge">
<title>Node6&#45;&gt;Node4</title>
<path fill="none" stroke="midnightblue" d="M335.65,-72.49C344.74,-69.57 354.17,-66.52 363,-63.61 388.15,-55.33 415.96,-45.95 439.38,-37.98"/>
<polygon fill="midnightblue" stroke="midnightblue" points="440.8,-41.2 449.13,-34.66 438.54,-34.57 440.8,-41.2"/>
</g>
<!-- Node7 -->
<g id="node7" class="node">
<title>Node7</title>
<g id="a_node7"><a xlink:href="enumerations_8cpp.html#a4f1219a7c31d137c368e36cea5be9128" target="_top" xlink:title="Enumerates the package state,.">
<polygon fill="white" stroke="black" points="410.5,-78.11 410.5,-97.11 577.5,-97.11 577.5,-78.11 410.5,-78.11"/>
<text text-anchor="middle" x="494" y="-85.11" font-family="Helvetica,sans-Serif" font-size="10.00">get_enum_package_state_char</text>
</a>
</g>
</g>
<!-- Node6&#45;&gt;Node7 -->
<g id="edge7" class="edge">
<title>Node6&#45;&gt;Node7</title>
<path fill="none" stroke="midnightblue" d="M363.17,-87.61C375.13,-87.61 387.63,-87.61 399.95,-87.61"/>
<polygon fill="midnightblue" stroke="midnightblue" points="400.23,-91.11 410.23,-87.61 400.23,-84.11 400.23,-91.11"/>
</g>
</g>
</svg>
        <g id="navigator" transform="translate(0 0)" fill="#404254">
                <rect fill="#f2f5e9" fill-opacity="0.5" stroke="#606060" stroke-width=".5" x="0" y="0" width="60" height="60"/>
                <use id="zoomplus" xlink:href="#zoomPlus" x="17" y="9" onmousedown="handleZoom(evt,'in')"/>
                <use id="zoomminus" xlink:href="#zoomMin" x="42" y="9" onmousedown="handleZoom(evt,'out')"/>
                <use id="reset" xlink:href="#resetDef" x="30" y="36" onmousedown="handleReset()"/>
                <g id="arrowUp" xlink:href="#dirArrow" transform="translate(30 24)" onmousedown="handlePan(0,-1)">
                  <use xlink:href="#rim" fill="#404040">
                        <set attributeName="fill" to="#808080" begin="arrowUp.mouseover" end="arrowUp.mouseout"/>
                  </use>
                  <path fill="none" stroke="white" stroke-width="1.5" d="M0,-3.0v7 M-2.5,-0.5L0,-3.0L2.5,-0.5"/>
                </g>
                <g id="arrowRight" xlink:href="#dirArrow" transform="rotate(90) translate(36 -43)" onmousedown="handlePan(1,0)">
                  <use xlink:href="#rim" fill="#404040">
                        <set attributeName="fill" to="#808080" begin="arrowRight.mouseover" end="arrowRight.mouseout"/>
                  </use>
                  <path fill="none" stroke="white" stroke-width="1.5" d="M0,-3.0v7 M-2.5,-0.5L0,-3.0L2.5,-0.5"/>
                </g>
                <g id="arrowDown" xlink:href="#dirArrow" transform="rotate(180) translate(-30 -48)" onmousedown="handlePan(0,1)">
                  <use xlink:href="#rim" fill="#404040">
                        <set attributeName="fill" to="#808080" begin="arrowDown.mouseover" end="arrowDown.mouseout"/>
                  </use>
                  <path fill="none" stroke="white" stroke-width="1.5" d="M0,-3.0v7 M-2.5,-0.5L0,-3.0L2.5,-0.5"/>
                </g>
                <g id="arrowLeft" xlink:href="#dirArrow" transform="rotate(270) translate(-36 17)" onmousedown="handlePan(-1,0)">
                  <use xlink:href="#rim" fill="#404040">
                        <set attributeName="fill" to="#808080" begin="arrowLeft.mouseover" end="arrowLeft.mouseout"/>
                  </use>
                  <path fill="none" stroke="white" stroke-width="1.5" d="M0,-3.0v7 M-2.5,-0.5L0,-3.0L2.5,-0.5"/>
                </g>
        </g>
        <svg viewBox="0 0 15 15" width="100%" height="30px" preserveAspectRatio="xMaxYMin meet">
         <g id="arrow_out" transform="scale(0.3 0.3)">
          <a xlink:href="classcache__manager__t_ac2ea6d26b6ec710cd28626cc4c59ae23_cgraph_org.svg" target="_base">
           <rect id="button" ry="5" rx="5" y="6" x="6" height="38" width="38"
                fill="#f2f5e9" fill-opacity="0.5" stroke="#606060" stroke-width="1.0"/>
           <path id="arrow"
             d="M 11.500037,31.436501 C 11.940474,20.09759 22.043105,11.32322 32.158766,21.979434 L 37.068811,17.246167 C 37.068811,17.246167 37.088388,32 37.088388,32 L 22.160133,31.978069 C 22.160133,31.978069 26.997745,27.140456 26.997745,27.140456 C 18.528582,18.264221 13.291696,25.230495 11.500037,31.436501 z"
             style="fill:#404040;"/>
          </a>
         </g>
        </svg>
</svg>
