<?xml version="1.0" encoding="UTF-8" standalone="no"?>
<!DOCTYPE svg PUBLIC "-//W3C//DTD SVG 1.1//EN"
 "http://www.w3.org/Graphics/SVG/1.1/DTD/svg11.dtd">
<!-- Generated by graphviz version 2.43.0 (0)
 -->
<!-- Title: Graphical Class Hierarchy Pages: 1 -->
<svg width="307pt" height="78pt"
 viewBox="0.00 0.00 307.00 77.50" xmlns="http://www.w3.org/2000/svg" xmlns:xlink="http://www.w3.org/1999/xlink">
<g id="graph0" class="graph" transform="scale(1 1) rotate(0) translate(4 73.5)">
<title>Graphical Class Hierarchy</title>
<polygon fill="white" stroke="transparent" points="-4,4 -4,-73.5 303,-73.5 303,4 -4,4"/>
<!-- Node0 -->
<g id="node1" class="node">
<title>Node0</title>
<g id="a_node1"><a xlink:href="classmemory__request__client__t.html" target="_top" xlink:title=" ">
<polygon fill="white" stroke="black" points="0,-22.5 0,-41.5 141,-41.5 141,-22.5 0,-22.5"/>
<text text-anchor="middle" x="70.5" y="-29.5" font-family="Helvetica,sans-Serif" font-size="10.00">memory_request_client_t</text>
</a>
</g>
</g>
<!-- Node1 -->
<g id="node2" class="node">
<title>Node1</title>
<g id="a_node2"><a xlink:href="classmemory__order__buffer__line__t.html" target="_top" xlink:title=" ">
<polygon fill="white" stroke="black" points="177,-39 177,-69 299,-69 299,-39 177,-39"/>
<text text-anchor="start" x="185" y="-57" font-family="Helvetica,sans-Serif" font-size="10.00">memory_order_buffer</text>
<text text-anchor="middle" x="238" y="-46" font-family="Helvetica,sans-Serif" font-size="10.00">_line_t</text>
</a>
</g>
</g>
<!-- Node0&#45;&gt;Node1 -->
<g id="edge1" class="edge">
<title>Node0&#45;&gt;Node1</title>
<path fill="none" stroke="midnightblue" d="M151.26,-42.6C159.86,-43.75 168.5,-44.89 176.81,-46"/>
<polygon fill="midnightblue" stroke="midnightblue" points="151.58,-39.11 141.21,-41.27 150.66,-46.05 151.58,-39.11"/>
</g>
<!-- Node2 -->
<g id="node3" class="node">
<title>Node2</title>
<g id="a_node3"><a xlink:href="classopcode__package__t.html" target="_top" xlink:title=" ">
<polygon fill="white" stroke="black" points="184.5,-0.5 184.5,-19.5 291.5,-19.5 291.5,-0.5 184.5,-0.5"/>
<text text-anchor="middle" x="238" y="-7.5" font-family="Helvetica,sans-Serif" font-size="10.00">opcode_package_t</text>
</a>
</g>
</g>
<!-- Node0&#45;&gt;Node2 -->
<g id="edge2" class="edge">
<title>Node0&#45;&gt;Node2</title>
<path fill="none" stroke="midnightblue" d="M151.46,-21.37C162.67,-19.88 173.95,-18.38 184.47,-16.98"/>
<polygon fill="midnightblue" stroke="midnightblue" points="150.66,-17.95 141.21,-22.73 151.58,-24.89 150.66,-17.95"/>
</g>
</g>
</svg>
