<?xml version="1.0" encoding="UTF-8" standalone="no"?>
<!DOCTYPE svg PUBLIC "-//W3C//DTD SVG 1.1//EN"
 "http://www.w3.org/Graphics/SVG/1.1/DTD/svg11.dtd">
<!-- Generated by graphviz version 2.43.0 (0)
 -->
<!-- Title: package/opcode_package.cpp Pages: 1 -->
<svg width="5152pt" height="162pt"
 viewBox="0.00 0.00 5151.50 162.00" xmlns="http://www.w3.org/2000/svg" xmlns:xlink="http://www.w3.org/1999/xlink">
<g id="graph0" class="graph" transform="scale(1 1) rotate(0) translate(4 158)">
<title>package/opcode_package.cpp</title>
<polygon fill="white" stroke="transparent" points="-4,4 -4,-158 5147.5,-158 5147.5,4 -4,4"/>
<!-- Node1 -->
<g id="node1" class="node">
<title>Node1</title>
<g id="a_node1"><a xlink:title=" ">
<polygon fill="#bfbfbf" stroke="black" points="824.5,-134.5 824.5,-153.5 985.5,-153.5 985.5,-134.5 824.5,-134.5"/>
<text text-anchor="middle" x="905" y="-141.5" font-family="Helvetica,sans-Serif" font-size="10.00">package/opcode_package.cpp</text>
</a>
</g>
</g>
<!-- Node2 -->
<g id="node2" class="node">
<title>Node2</title>
<g id="a_node2"><a xlink:href="simulator_8hpp.html" target="_top" xlink:title=" ">
<polygon fill="white" stroke="red" points="1682,-78.5 1682,-97.5 1774,-97.5 1774,-78.5 1682,-78.5"/>
<text text-anchor="middle" x="1728" y="-85.5" font-family="Helvetica,sans-Serif" font-size="10.00">../simulator.hpp</text>
</a>
</g>
</g>
<!-- Node1&#45;&gt;Node2 -->
<g id="edge1" class="edge">
<title>Node1&#45;&gt;Node2</title>
<path fill="none" stroke="midnightblue" d="M985.79,-137.7C1151.93,-126.8 1528.32,-102.1 1671.38,-92.71"/>
<polygon fill="midnightblue" stroke="midnightblue" points="1671.93,-96.19 1681.68,-92.04 1671.47,-89.2 1671.93,-96.19"/>
</g>
<!-- Node16 -->
<g id="node16" class="node">
<title>Node16</title>
<g id="a_node16"><a xlink:title=" ">
<polygon fill="white" stroke="#bfbfbf" points="0,-11.5 0,-30.5 44,-30.5 44,-11.5 0,-11.5"/>
<text text-anchor="middle" x="22" y="-18.5" font-family="Helvetica,sans-Serif" font-size="10.00">string</text>
</a>
</g>
</g>
<!-- Node1&#45;&gt;Node16 -->
<g id="edge52" class="edge">
<title>Node1&#45;&gt;Node16</title>
<path fill="none" stroke="midnightblue" d="M824.45,-138.1C640.42,-126.17 194.11,-92.79 53,-42 48.98,-40.55 44.95,-38.5 41.19,-36.26"/>
<polygon fill="midnightblue" stroke="midnightblue" points="42.81,-33.14 32.55,-30.53 38.94,-38.97 42.81,-33.14"/>
</g>
<!-- Node2&#45;&gt;Node2 -->
<g id="edge28" class="edge">
<title>Node2&#45;&gt;Node2</title>
<path fill="none" stroke="midnightblue" d="M1755.3,-97.53C1773.84,-100.31 1792,-97.13 1792,-88 1792,-80.58 1780.01,-77.09 1765.57,-77.54"/>
<polygon fill="midnightblue" stroke="midnightblue" points="1764.94,-74.08 1755.3,-78.47 1765.57,-81.05 1764.94,-74.08"/>
</g>
<!-- Node3 -->
<g id="node3" class="node">
<title>Node3</title>
<g id="a_node3"><a xlink:title=" ">
<polygon fill="white" stroke="#bfbfbf" points="62,-11.5 62,-30.5 118,-30.5 118,-11.5 62,-11.5"/>
<text text-anchor="middle" x="90" y="-18.5" font-family="Helvetica,sans-Serif" font-size="10.00">unistd.h</text>
</a>
</g>
</g>
<!-- Node2&#45;&gt;Node3 -->
<g id="edge2" class="edge">
<title>Node2&#45;&gt;Node3</title>
<path fill="none" stroke="midnightblue" d="M1681.76,-86.29C1427.19,-82.31 205.03,-62.19 128,-42 122.41,-40.54 116.72,-38.12 111.51,-35.47"/>
<polygon fill="midnightblue" stroke="midnightblue" points="113.2,-32.41 102.76,-30.6 109.79,-38.52 113.2,-32.41"/>
</g>
<!-- Node4 -->
<g id="node4" class="node">
<title>Node4</title>
<g id="a_node4"><a xlink:title=" ">
<polygon fill="white" stroke="#bfbfbf" points="136.5,-11.5 136.5,-30.5 193.5,-30.5 193.5,-11.5 136.5,-11.5"/>
<text text-anchor="middle" x="165" y="-18.5" font-family="Helvetica,sans-Serif" font-size="10.00">getopt.h</text>
</a>
</g>
</g>
<!-- Node2&#45;&gt;Node4 -->
<g id="edge3" class="edge">
<title>Node2&#45;&gt;Node4</title>
<path fill="none" stroke="midnightblue" d="M1681.93,-86.23C1434.95,-82.01 276.21,-61.24 203,-42 197.41,-40.53 191.72,-38.12 186.51,-35.47"/>
<polygon fill="midnightblue" stroke="midnightblue" points="188.2,-32.4 177.76,-30.59 184.79,-38.52 188.2,-32.4"/>
</g>
<!-- Node5 -->
<g id="node5" class="node">
<title>Node5</title>
<g id="a_node5"><a xlink:title=" ">
<polygon fill="white" stroke="#bfbfbf" points="211.5,-11.5 211.5,-30.5 276.5,-30.5 276.5,-11.5 211.5,-11.5"/>
<text text-anchor="middle" x="244" y="-18.5" font-family="Helvetica,sans-Serif" font-size="10.00">inttypes.h</text>
</a>
</g>
</g>
<!-- Node2&#45;&gt;Node5 -->
<g id="edge4" class="edge">
<title>Node2&#45;&gt;Node5</title>
<path fill="none" stroke="midnightblue" d="M1682,-86.69C1451.1,-84.97 424.14,-75.48 286,-42 279.77,-40.49 273.36,-37.99 267.48,-35.26"/>
<polygon fill="midnightblue" stroke="midnightblue" points="268.73,-31.97 258.22,-30.59 265.57,-38.22 268.73,-31.97"/>
</g>
<!-- Node6 -->
<g id="node6" class="node">
<title>Node6</title>
<g id="a_node6"><a xlink:title=" ">
<polygon fill="white" stroke="#bfbfbf" points="294.5,-11.5 294.5,-30.5 337.5,-30.5 337.5,-11.5 294.5,-11.5"/>
<text text-anchor="middle" x="316" y="-18.5" font-family="Helvetica,sans-Serif" font-size="10.00">zlib.h</text>
</a>
</g>
</g>
<!-- Node2&#45;&gt;Node6 -->
<g id="edge5" class="edge">
<title>Node2&#45;&gt;Node6</title>
<path fill="none" stroke="midnightblue" d="M1681.63,-86.96C1455.78,-86.55 476.51,-82.46 347,-42 342.74,-40.67 338.49,-38.58 334.58,-36.24"/>
<polygon fill="midnightblue" stroke="midnightblue" points="336.43,-33.27 326.18,-30.58 332.52,-39.07 336.43,-33.27"/>
</g>
<!-- Node7 -->
<g id="node7" class="node">
<title>Node7</title>
<g id="a_node7"><a xlink:title=" ">
<polygon fill="white" stroke="#bfbfbf" points="356,-11.5 356,-30.5 412,-30.5 412,-11.5 356,-11.5"/>
<text text-anchor="middle" x="384" y="-18.5" font-family="Helvetica,sans-Serif" font-size="10.00">assert.h</text>
</a>
</g>
</g>
<!-- Node2&#45;&gt;Node7 -->
<g id="edge6" class="edge">
<title>Node2&#45;&gt;Node7</title>
<path fill="none" stroke="midnightblue" d="M1681.66,-86.66C1463.53,-84.89 544.46,-75.5 421,-42 415.68,-40.55 410.27,-38.22 405.3,-35.65"/>
<polygon fill="midnightblue" stroke="midnightblue" points="406.82,-32.49 396.4,-30.58 403.35,-38.57 406.82,-32.49"/>
</g>
<!-- Node8 -->
<g id="node8" class="node">
<title>Node8</title>
<g id="a_node8"><a xlink:title=" ">
<polygon fill="white" stroke="#bfbfbf" points="430,-11.5 430,-30.5 498,-30.5 498,-11.5 430,-11.5"/>
<text text-anchor="middle" x="464" y="-18.5" font-family="Helvetica,sans-Serif" font-size="10.00">sys/time.h</text>
</a>
</g>
</g>
<!-- Node2&#45;&gt;Node8 -->
<g id="edge7" class="edge">
<title>Node2&#45;&gt;Node8</title>
<path fill="none" stroke="midnightblue" d="M1682,-86.38C1473.54,-83.45 622.69,-69.83 507,-42 500.49,-40.43 493.77,-37.84 487.63,-35.03"/>
<polygon fill="midnightblue" stroke="midnightblue" points="489.11,-31.86 478.59,-30.56 486,-38.13 489.11,-31.86"/>
</g>
<!-- Node9 -->
<g id="node9" class="node">
<title>Node9</title>
<g id="a_node9"><a xlink:title=" ">
<polygon fill="white" stroke="#bfbfbf" points="516,-11.5 516,-30.5 576,-30.5 576,-11.5 516,-11.5"/>
<text text-anchor="middle" x="546" y="-18.5" font-family="Helvetica,sans-Serif" font-size="10.00">iostream</text>
</a>
</g>
</g>
<!-- Node2&#45;&gt;Node9 -->
<g id="edge8" class="edge">
<title>Node2&#45;&gt;Node9</title>
<path fill="none" stroke="midnightblue" d="M1681.93,-86.36C1481.69,-83.42 692.21,-70.13 585,-42 579.3,-40.5 573.47,-38.08 568.12,-35.43"/>
<polygon fill="midnightblue" stroke="midnightblue" points="569.59,-32.25 559.13,-30.56 566.26,-38.4 569.59,-32.25"/>
</g>
<!-- Node10 -->
<g id="node10" class="node">
<title>Node10</title>
<g id="a_node10"><a xlink:title=" ">
<polygon fill="white" stroke="#bfbfbf" points="594,-11.5 594,-30.5 650,-30.5 650,-11.5 594,-11.5"/>
<text text-anchor="middle" x="622" y="-18.5" font-family="Helvetica,sans-Serif" font-size="10.00">iomanip</text>
</a>
</g>
</g>
<!-- Node2&#45;&gt;Node10 -->
<g id="edge9" class="edge">
<title>Node2&#45;&gt;Node10</title>
<path fill="none" stroke="midnightblue" d="M1681.75,-86.25C1489.57,-82.96 759.45,-68.81 660,-42 654.42,-40.5 648.74,-38.07 643.52,-35.42"/>
<polygon fill="midnightblue" stroke="midnightblue" points="645.21,-32.35 634.77,-30.55 641.81,-38.47 645.21,-32.35"/>
</g>
<!-- Node11 -->
<g id="node11" class="node">
<title>Node11</title>
<g id="a_node11"><a xlink:title=" ">
<polygon fill="white" stroke="#bfbfbf" points="668.5,-11.5 668.5,-30.5 715.5,-30.5 715.5,-11.5 668.5,-11.5"/>
<text text-anchor="middle" x="692" y="-18.5" font-family="Helvetica,sans-Serif" font-size="10.00">cmath</text>
</a>
</g>
</g>
<!-- Node2&#45;&gt;Node11 -->
<g id="edge10" class="edge">
<title>Node2&#45;&gt;Node11</title>
<path fill="none" stroke="midnightblue" d="M1681.74,-86.27C1496.92,-83.17 817.1,-69.97 725,-42 720.4,-40.6 715.8,-38.42 711.54,-36"/>
<polygon fill="midnightblue" stroke="midnightblue" points="713.25,-32.94 702.93,-30.54 709.5,-38.86 713.25,-32.94"/>
</g>
<!-- Node12 -->
<g id="node12" class="node">
<title>Node12</title>
<g id="a_node12"><a xlink:title=" ">
<polygon fill="white" stroke="#bfbfbf" points="734,-11.5 734,-30.5 784,-30.5 784,-11.5 734,-11.5"/>
<text text-anchor="middle" x="759" y="-18.5" font-family="Helvetica,sans-Serif" font-size="10.00">chrono</text>
</a>
</g>
</g>
<!-- Node2&#45;&gt;Node12 -->
<g id="edge11" class="edge">
<title>Node2&#45;&gt;Node12</title>
<path fill="none" stroke="midnightblue" d="M1681.91,-86.08C1505.47,-82.37 878.51,-67.51 793,-42 788.17,-40.56 783.3,-38.29 778.82,-35.79"/>
<polygon fill="midnightblue" stroke="midnightblue" points="780.65,-32.81 770.31,-30.53 776.97,-38.77 780.65,-32.81"/>
</g>
<!-- Node13 -->
<g id="node13" class="node">
<title>Node13</title>
<g id="a_node13"><a xlink:title=" ">
<polygon fill="white" stroke="#bfbfbf" points="802,-11.5 802,-30.5 850,-30.5 850,-11.5 802,-11.5"/>
<text text-anchor="middle" x="826" y="-18.5" font-family="Helvetica,sans-Serif" font-size="10.00">thread</text>
</a>
</g>
</g>
<!-- Node2&#45;&gt;Node13 -->
<g id="edge12" class="edge">
<title>Node2&#45;&gt;Node13</title>
<path fill="none" stroke="midnightblue" d="M1681.73,-85.93C1513.19,-81.83 937.74,-66.21 859,-42 854.41,-40.59 849.8,-38.4 845.55,-35.98"/>
<polygon fill="midnightblue" stroke="midnightblue" points="847.26,-32.92 836.94,-30.52 843.51,-38.83 847.26,-32.92"/>
</g>
<!-- Node14 -->
<g id="node14" class="node">
<title>Node14</title>
<g id="a_node14"><a xlink:title=" ">
<polygon fill="white" stroke="#bfbfbf" points="868,-11.5 868,-30.5 914,-30.5 914,-11.5 868,-11.5"/>
<text text-anchor="middle" x="891" y="-18.5" font-family="Helvetica,sans-Serif" font-size="10.00">cstdio</text>
</a>
</g>
</g>
<!-- Node2&#45;&gt;Node14 -->
<g id="edge13" class="edge">
<title>Node2&#45;&gt;Node14</title>
<path fill="none" stroke="midnightblue" d="M1681.98,-87.34C1533.26,-87.97 1066.97,-86.29 924,-42 919.41,-40.58 914.81,-38.39 910.55,-35.96"/>
<polygon fill="midnightblue" stroke="midnightblue" points="912.26,-32.9 901.94,-30.51 908.52,-38.82 912.26,-32.9"/>
</g>
<!-- Node15 -->
<g id="node15" class="node">
<title>Node15</title>
<g id="a_node15"><a xlink:title=" ">
<polygon fill="white" stroke="#bfbfbf" points="932.5,-11.5 932.5,-30.5 981.5,-30.5 981.5,-11.5 932.5,-11.5"/>
<text text-anchor="middle" x="957" y="-18.5" font-family="Helvetica,sans-Serif" font-size="10.00">cstdlib</text>
</a>
</g>
</g>
<!-- Node2&#45;&gt;Node15 -->
<g id="edge14" class="edge">
<title>Node2&#45;&gt;Node15</title>
<path fill="none" stroke="midnightblue" d="M1681.69,-86.99C1541.1,-86.5 1120.96,-81.68 991,-42 986.38,-40.59 981.73,-38.44 977.41,-36.06"/>
<polygon fill="midnightblue" stroke="midnightblue" points="978.98,-32.92 968.63,-30.7 975.33,-38.9 978.98,-32.92"/>
</g>
<!-- Node2&#45;&gt;Node16 -->
<g id="edge15" class="edge">
<title>Node2&#45;&gt;Node16</title>
<path fill="none" stroke="midnightblue" d="M1681.72,-86.46C1419.87,-83.32 132.86,-66.7 53,-42 48.73,-40.68 44.49,-38.59 40.57,-36.26"/>
<polygon fill="midnightblue" stroke="midnightblue" points="42.42,-33.29 32.17,-30.6 38.51,-39.09 42.42,-33.29"/>
</g>
<!-- Node17 -->
<g id="node17" class="node">
<title>Node17</title>
<g id="a_node17"><a xlink:title=" ">
<polygon fill="white" stroke="#bfbfbf" points="1000,-11.5 1000,-30.5 1050,-30.5 1050,-11.5 1000,-11.5"/>
<text text-anchor="middle" x="1025" y="-18.5" font-family="Helvetica,sans-Serif" font-size="10.00">cstring</text>
</a>
</g>
</g>
<!-- Node2&#45;&gt;Node17 -->
<g id="edge16" class="edge">
<title>Node2&#45;&gt;Node17</title>
<path fill="none" stroke="midnightblue" d="M1681.9,-86.57C1550.6,-84.94 1176.7,-77.23 1060,-42 1055.15,-40.53 1050.24,-38.3 1045.69,-35.84"/>
<polygon fill="midnightblue" stroke="midnightblue" points="1047.39,-32.78 1037.01,-30.67 1043.81,-38.8 1047.39,-32.78"/>
</g>
<!-- Node18 -->
<g id="node18" class="node">
<title>Node18</title>
<g id="a_node18"><a xlink:title=" ">
<polygon fill="white" stroke="#bfbfbf" points="1068.5,-11.5 1068.5,-30.5 1123.5,-30.5 1123.5,-11.5 1068.5,-11.5"/>
<text text-anchor="middle" x="1096" y="-18.5" font-family="Helvetica,sans-Serif" font-size="10.00">fstream</text>
</a>
</g>
</g>
<!-- Node2&#45;&gt;Node18 -->
<g id="edge17" class="edge">
<title>Node2&#45;&gt;Node18</title>
<path fill="none" stroke="midnightblue" d="M1681.82,-85.99C1560.62,-82.96 1235.75,-72.16 1133,-42 1127.79,-40.47 1122.49,-38.14 1117.58,-35.61"/>
<polygon fill="midnightblue" stroke="midnightblue" points="1119.2,-32.51 1108.77,-30.64 1115.76,-38.6 1119.2,-32.51"/>
</g>
<!-- Node19 -->
<g id="node19" class="node">
<title>Node19</title>
<g id="a_node19"><a xlink:title=" ">
<polygon fill="white" stroke="#bfbfbf" points="1141.5,-11.5 1141.5,-30.5 1188.5,-30.5 1188.5,-11.5 1141.5,-11.5"/>
<text text-anchor="middle" x="1165" y="-18.5" font-family="Helvetica,sans-Serif" font-size="10.00">vector</text>
</a>
</g>
</g>
<!-- Node2&#45;&gt;Node19 -->
<g id="edge18" class="edge">
<title>Node2&#45;&gt;Node19</title>
<path fill="none" stroke="midnightblue" d="M1681.96,-85.78C1570.25,-82.4 1287.45,-71.13 1198,-42 1193.51,-40.54 1188.98,-38.36 1184.79,-35.98"/>
<polygon fill="midnightblue" stroke="midnightblue" points="1186.6,-32.98 1176.27,-30.62 1182.87,-38.91 1186.6,-32.98"/>
</g>
<!-- Node20 -->
<g id="node20" class="node">
<title>Node20</title>
<g id="a_node20"><a xlink:title=" ">
<polygon fill="white" stroke="#bfbfbf" points="1207,-11.5 1207,-30.5 1239,-30.5 1239,-11.5 1207,-11.5"/>
<text text-anchor="middle" x="1223" y="-18.5" font-family="Helvetica,sans-Serif" font-size="10.00">list</text>
</a>
</g>
</g>
<!-- Node2&#45;&gt;Node20 -->
<g id="edge19" class="edge">
<title>Node2&#45;&gt;Node20</title>
<path fill="none" stroke="midnightblue" d="M1681.99,-85.92C1577.86,-82.94 1327.12,-72.72 1249,-42 1245.82,-40.75 1242.7,-38.99 1239.79,-37.02"/>
<polygon fill="midnightblue" stroke="midnightblue" points="1241.87,-34.2 1231.83,-30.82 1237.57,-39.73 1241.87,-34.2"/>
</g>
<!-- Node21 -->
<g id="node21" class="node">
<title>Node21</title>
<g id="a_node21"><a xlink:title=" ">
<polygon fill="white" stroke="#bfbfbf" points="1257.5,-11.5 1257.5,-30.5 1304.5,-30.5 1304.5,-11.5 1257.5,-11.5"/>
<text text-anchor="middle" x="1281" y="-18.5" font-family="Helvetica,sans-Serif" font-size="10.00">queue</text>
</a>
</g>
</g>
<!-- Node2&#45;&gt;Node21 -->
<g id="edge20" class="edge">
<title>Node2&#45;&gt;Node21</title>
<path fill="none" stroke="midnightblue" d="M1681.85,-84.51C1588.66,-79.07 1381.19,-64.76 1314,-42 1309.52,-40.48 1305.01,-38.29 1300.82,-35.9"/>
<polygon fill="midnightblue" stroke="midnightblue" points="1302.63,-32.9 1292.3,-30.55 1298.91,-38.83 1302.63,-32.9"/>
</g>
<!-- Node22 -->
<g id="node22" class="node">
<title>Node22</title>
<g id="a_node22"><a xlink:title=" ">
<polygon fill="white" stroke="#bfbfbf" points="1323,-11.5 1323,-30.5 1387,-30.5 1387,-11.5 1323,-11.5"/>
<text text-anchor="middle" x="1355" y="-18.5" font-family="Helvetica,sans-Serif" font-size="10.00">algorithm</text>
</a>
</g>
</g>
<!-- Node2&#45;&gt;Node22 -->
<g id="edge21" class="edge">
<title>Node2&#45;&gt;Node22</title>
<path fill="none" stroke="midnightblue" d="M1681.91,-85.38C1616.89,-82.06 1495.08,-72.03 1396,-42 1390.32,-40.28 1384.44,-37.85 1378.98,-35.27"/>
<polygon fill="midnightblue" stroke="midnightblue" points="1380.22,-31.98 1369.72,-30.6 1377.07,-38.23 1380.22,-31.98"/>
</g>
<!-- Node23 -->
<g id="node23" class="node">
<title>Node23</title>
<g id="a_node23"><a xlink:title=" ">
<polygon fill="white" stroke="#bfbfbf" points="1405,-11.5 1405,-30.5 1443,-30.5 1443,-11.5 1405,-11.5"/>
<text text-anchor="middle" x="1424" y="-18.5" font-family="Helvetica,sans-Serif" font-size="10.00">map</text>
</a>
</g>
</g>
<!-- Node2&#45;&gt;Node23 -->
<g id="edge22" class="edge">
<title>Node2&#45;&gt;Node23</title>
<path fill="none" stroke="midnightblue" d="M1681.81,-85.85C1625.55,-83.03 1528.53,-73.54 1452,-42 1448.58,-40.59 1445.18,-38.7 1441.99,-36.63"/>
<polygon fill="midnightblue" stroke="midnightblue" points="1443.85,-33.66 1433.7,-30.62 1439.74,-39.33 1443.85,-33.66"/>
</g>
<!-- Node24 -->
<g id="node24" class="node">
<title>Node24</title>
<g id="a_node24"><a xlink:title=" ">
<polygon fill="white" stroke="#bfbfbf" points="1461,-11.5 1461,-30.5 1513,-30.5 1513,-11.5 1461,-11.5"/>
<text text-anchor="middle" x="1487" y="-18.5" font-family="Helvetica,sans-Serif" font-size="10.00">cassert</text>
</a>
</g>
</g>
<!-- Node2&#45;&gt;Node24 -->
<g id="edge23" class="edge">
<title>Node2&#45;&gt;Node24</title>
<path fill="none" stroke="midnightblue" d="M1681.71,-80.78C1639.42,-74.18 1575.66,-61.92 1523,-42 1518.31,-40.23 1513.5,-37.93 1508.97,-35.52"/>
<polygon fill="midnightblue" stroke="midnightblue" points="1510.65,-32.45 1500.23,-30.57 1507.2,-38.54 1510.65,-32.45"/>
</g>
<!-- Node25 -->
<g id="node25" class="node">
<title>Node25</title>
<g id="a_node25"><a xlink:title=" ">
<polygon fill="white" stroke="#bfbfbf" points="1531.5,-11.5 1531.5,-30.5 1614.5,-30.5 1614.5,-11.5 1531.5,-11.5"/>
<text text-anchor="middle" x="1573" y="-18.5" font-family="Helvetica,sans-Serif" font-size="10.00">libconfig.h++</text>
</a>
</g>
</g>
<!-- Node2&#45;&gt;Node25 -->
<g id="edge24" class="edge">
<title>Node2&#45;&gt;Node25</title>
<path fill="none" stroke="midnightblue" d="M1707.42,-78.37C1680.67,-67.15 1633.75,-47.48 1603.03,-34.59"/>
<polygon fill="midnightblue" stroke="midnightblue" points="1604.24,-31.31 1593.67,-30.67 1601.54,-37.76 1604.24,-31.31"/>
</g>
<!-- Node26 -->
<g id="node26" class="node">
<title>Node26</title>
<g id="a_node26"><a xlink:href="defines_8hpp.html" target="_top" xlink:title=" ">
<polygon fill="white" stroke="black" points="1632.5,-11.5 1632.5,-30.5 1705.5,-30.5 1705.5,-11.5 1632.5,-11.5"/>
<text text-anchor="middle" x="1669" y="-18.5" font-family="Helvetica,sans-Serif" font-size="10.00">defines.hpp</text>
</a>
</g>
</g>
<!-- Node2&#45;&gt;Node26 -->
<g id="edge25" class="edge">
<title>Node2&#45;&gt;Node26</title>
<path fill="none" stroke="midnightblue" d="M1720.04,-78.23C1710.75,-68 1695.2,-50.86 1683.7,-38.19"/>
<polygon fill="midnightblue" stroke="midnightblue" points="1686.14,-35.68 1676.83,-30.63 1680.96,-40.38 1686.14,-35.68"/>
</g>
<!-- Node27 -->
<g id="node27" class="node">
<title>Node27</title>
<g id="a_node27"><a xlink:href="enumerations_8hpp.html" target="_top" xlink:title=" ">
<polygon fill="white" stroke="black" points="1723.5,-11.5 1723.5,-30.5 1852.5,-30.5 1852.5,-11.5 1723.5,-11.5"/>
<text text-anchor="middle" x="1788" y="-18.5" font-family="Helvetica,sans-Serif" font-size="10.00">utils/enumerations.hpp</text>
</a>
</g>
</g>
<!-- Node2&#45;&gt;Node27 -->
<g id="edge26" class="edge">
<title>Node2&#45;&gt;Node27</title>
<path fill="none" stroke="midnightblue" d="M1736.09,-78.23C1745.54,-68 1761.36,-50.86 1773.05,-38.19"/>
<polygon fill="midnightblue" stroke="midnightblue" points="1775.83,-40.35 1780.04,-30.63 1770.68,-35.6 1775.83,-40.35"/>
</g>
<!-- Node28 -->
<g id="node28" class="node">
<title>Node28</title>
<g id="a_node28"><a xlink:href="macros_8hpp.html" target="_top" xlink:title=" ">
<polygon fill="white" stroke="black" points="1871,-11.5 1871,-30.5 1969,-30.5 1969,-11.5 1871,-11.5"/>
<text text-anchor="middle" x="1920" y="-18.5" font-family="Helvetica,sans-Serif" font-size="10.00">utils/macros.hpp</text>
</a>
</g>
</g>
<!-- Node2&#45;&gt;Node28 -->
<g id="edge27" class="edge">
<title>Node2&#45;&gt;Node28</title>
<path fill="none" stroke="midnightblue" d="M1753.71,-78.43C1780.7,-69.43 1824.36,-54.81 1862,-42 1869.73,-39.37 1878.03,-36.52 1885.86,-33.82"/>
<polygon fill="midnightblue" stroke="midnightblue" points="1887.15,-37.08 1895.46,-30.51 1884.87,-30.46 1887.15,-37.08"/>
</g>
<!-- Node29 -->
<g id="node29" class="node">
<title>Node29</title>
<g id="a_node29"><a xlink:href="orcs__engine_8hpp.html" target="_top" xlink:title=" ">
<polygon fill="white" stroke="black" points="1987,-11.5 1987,-30.5 2089,-30.5 2089,-11.5 1987,-11.5"/>
<text text-anchor="middle" x="2038" y="-18.5" font-family="Helvetica,sans-Serif" font-size="10.00">./orcs_engine.hpp</text>
</a>
</g>
</g>
<!-- Node2&#45;&gt;Node29 -->
<g id="edge29" class="edge">
<title>Node2&#45;&gt;Node29</title>
<path fill="none" stroke="midnightblue" d="M1774.04,-80.74C1824.53,-73.41 1907.71,-59.94 1978,-42 1986.97,-39.71 1996.53,-36.76 2005.33,-33.83"/>
<polygon fill="midnightblue" stroke="midnightblue" points="2006.54,-37.12 2014.87,-30.58 2004.27,-30.5 2006.54,-37.12"/>
</g>
<!-- Node30 -->
<g id="node30" class="node">
<title>Node30</title>
<g id="a_node30"><a xlink:href="config_8hpp.html" target="_top" xlink:title=" ">
<polygon fill="white" stroke="black" points="2107.5,-11.5 2107.5,-30.5 2212.5,-30.5 2212.5,-11.5 2107.5,-11.5"/>
<text text-anchor="middle" x="2160" y="-18.5" font-family="Helvetica,sans-Serif" font-size="10.00">./config/config.hpp</text>
</a>
</g>
</g>
<!-- Node2&#45;&gt;Node30 -->
<g id="edge30" class="edge">
<title>Node2&#45;&gt;Node30</title>
<path fill="none" stroke="midnightblue" d="M1774.04,-84.24C1844.49,-79.37 1982.98,-67.3 2098,-42 2107.65,-39.88 2117.94,-36.87 2127.3,-33.84"/>
<polygon fill="midnightblue" stroke="midnightblue" points="2128.66,-37.07 2137.03,-30.57 2126.44,-30.44 2128.66,-37.07"/>
</g>
<!-- Node31 -->
<g id="node31" class="node">
<title>Node31</title>
<g id="a_node31"><a xlink:href="trace__reader_8hpp.html" target="_top" xlink:title=" ">
<polygon fill="white" stroke="black" points="2231,-11.5 2231,-30.5 2335,-30.5 2335,-11.5 2231,-11.5"/>
<text text-anchor="middle" x="2283" y="-18.5" font-family="Helvetica,sans-Serif" font-size="10.00">./trace_reader.hpp</text>
</a>
</g>
</g>
<!-- Node2&#45;&gt;Node31 -->
<g id="edge31" class="edge">
<title>Node2&#45;&gt;Node31</title>
<path fill="none" stroke="midnightblue" d="M1774.14,-86.26C1862.14,-84.09 2059.65,-75.56 2222,-42 2231.7,-40 2242.01,-36.97 2251.35,-33.88"/>
<polygon fill="midnightblue" stroke="midnightblue" points="2252.71,-37.11 2261.02,-30.54 2250.42,-30.5 2252.71,-37.11"/>
</g>
<!-- Node32 -->
<g id="node32" class="node">
<title>Node32</title>
<g id="a_node32"><a xlink:href="memory__request__client_8hpp.html" target="_top" xlink:title=" ">
<polygon fill="white" stroke="black" points="2353,-6 2353,-36 2491,-36 2491,-6 2353,-6"/>
<text text-anchor="start" x="2361" y="-24" font-family="Helvetica,sans-Serif" font-size="10.00">./main_memory/memory</text>
<text text-anchor="middle" x="2422" y="-13" font-family="Helvetica,sans-Serif" font-size="10.00">_request_client.hpp</text>
</a>
</g>
</g>
<!-- Node2&#45;&gt;Node32 -->
<g id="edge32" class="edge">
<title>Node2&#45;&gt;Node32</title>
<path fill="none" stroke="midnightblue" d="M1774.31,-86.43C1877.35,-84.54 2133.14,-76.45 2344,-42 2350.16,-40.99 2356.54,-39.73 2362.88,-38.33"/>
<polygon fill="midnightblue" stroke="midnightblue" points="2363.82,-41.71 2372.77,-36.04 2362.23,-34.89 2363.82,-41.71"/>
</g>
<!-- Node33 -->
<g id="node33" class="node">
<title>Node33</title>
<g id="a_node33"><a xlink:href="opcode__package_8hpp.html" target="_top" xlink:title=" ">
<polygon fill="white" stroke="black" points="2509,-11.5 2509,-30.5 2677,-30.5 2677,-11.5 2509,-11.5"/>
<text text-anchor="middle" x="2593" y="-18.5" font-family="Helvetica,sans-Serif" font-size="10.00">./package/opcode_package.hpp</text>
</a>
</g>
</g>
<!-- Node2&#45;&gt;Node33 -->
<g id="edge33" class="edge">
<title>Node2&#45;&gt;Node33</title>
<path fill="none" stroke="midnightblue" d="M1774.36,-86.77C1894.68,-85.65 2226.62,-79.14 2500,-42 2516.24,-39.79 2533.87,-36.29 2549.37,-32.83"/>
<polygon fill="midnightblue" stroke="midnightblue" points="2550.24,-36.22 2559.21,-30.58 2548.68,-29.4 2550.24,-36.22"/>
</g>
<!-- Node34 -->
<g id="node34" class="node">
<title>Node34</title>
<g id="a_node34"><a xlink:href="circular__buffer_8hpp.html" target="_top" xlink:title=" ">
<polygon fill="white" stroke="black" points="2695.5,-11.5 2695.5,-30.5 2832.5,-30.5 2832.5,-11.5 2695.5,-11.5"/>
<text text-anchor="middle" x="2764" y="-18.5" font-family="Helvetica,sans-Serif" font-size="10.00">./utils/circular_buffer.hpp</text>
</a>
</g>
</g>
<!-- Node2&#45;&gt;Node34 -->
<g id="edge34" class="edge">
<title>Node2&#45;&gt;Node34</title>
<path fill="none" stroke="midnightblue" d="M1774.24,-86C1939.41,-82.38 2499.17,-68.69 2677,-42 2690.55,-39.97 2705.16,-36.56 2718.53,-33.13"/>
<polygon fill="midnightblue" stroke="midnightblue" points="2719.7,-36.44 2728.48,-30.52 2717.92,-29.67 2719.7,-36.44"/>
</g>
<!-- Node35 -->
<g id="node35" class="node">
<title>Node35</title>
<g id="a_node35"><a xlink:href="utils_8hpp.html" target="_top" xlink:title=" ">
<polygon fill="white" stroke="black" points="2850.5,-11.5 2850.5,-30.5 2939.5,-30.5 2939.5,-11.5 2850.5,-11.5"/>
<text text-anchor="middle" x="2895" y="-18.5" font-family="Helvetica,sans-Serif" font-size="10.00">./utils/utils.hpp</text>
</a>
</g>
</g>
<!-- Node2&#45;&gt;Node35 -->
<g id="edge36" class="edge">
<title>Node2&#45;&gt;Node35</title>
<path fill="none" stroke="midnightblue" d="M1774.26,-87.1C1957.54,-87.18 2632.88,-84.52 2842,-42 2850.5,-40.27 2859.43,-37.36 2867.48,-34.29"/>
<polygon fill="midnightblue" stroke="midnightblue" points="2868.83,-37.52 2876.79,-30.53 2866.21,-31.03 2868.83,-37.52"/>
</g>
<!-- Node36 -->
<g id="node36" class="node">
<title>Node36</title>
<g id="a_node36"><a xlink:href="disambiguation_8hpp.html" target="_top" xlink:title=" ">
<polygon fill="white" stroke="black" points="2957.5,-6 2957.5,-36 3154.5,-36 3154.5,-6 2957.5,-6"/>
<text text-anchor="start" x="2965.5" y="-24" font-family="Helvetica,sans-Serif" font-size="10.00">./processor/memory</text>
<text text-anchor="middle" x="3056" y="-13" font-family="Helvetica,sans-Serif" font-size="10.00">_disambiguation/disambiguation.hpp</text>
</a>
</g>
</g>
<!-- Node2&#45;&gt;Node36 -->
<g id="edge37" class="edge">
<title>Node2&#45;&gt;Node36</title>
<path fill="none" stroke="midnightblue" d="M1774.18,-86.21C1967.79,-82.77 2714.86,-68.05 2949,-42 2958.86,-40.9 2969.18,-39.41 2979.35,-37.74"/>
<polygon fill="midnightblue" stroke="midnightblue" points="2980.18,-41.15 2989.45,-36.01 2979,-34.25 2980.18,-41.15"/>
</g>
<!-- Node37 -->
<g id="node37" class="node">
<title>Node37</title>
<g id="a_node37"><a xlink:href="disambiguation__hashed_8hpp.html" target="_top" xlink:title=" ">
<polygon fill="white" stroke="black" points="3173,-0.5 3173,-41.5 3349,-41.5 3349,-0.5 3173,-0.5"/>
<text text-anchor="start" x="3181" y="-29.5" font-family="Helvetica,sans-Serif" font-size="10.00">./processor/memory</text>
<text text-anchor="start" x="3181" y="-18.5" font-family="Helvetica,sans-Serif" font-size="10.00">_disambiguation/disambiguation</text>
<text text-anchor="middle" x="3261" y="-7.5" font-family="Helvetica,sans-Serif" font-size="10.00">_hashed.hpp</text>
</a>
</g>
</g>
<!-- Node2&#45;&gt;Node37 -->
<g id="edge38" class="edge">
<title>Node2&#45;&gt;Node37</title>
<path fill="none" stroke="midnightblue" d="M1774.17,-86.62C1985.72,-84.73 2864.54,-75.06 3162.47,-42.04"/>
<polygon fill="midnightblue" stroke="midnightblue" points="3163.28,-45.47 3172.82,-40.85 3162.48,-38.51 3163.28,-45.47"/>
</g>
<!-- Node38 -->
<g id="node38" class="node">
<title>Node38</title>
<g id="a_node38"><a xlink:href="uop__package_8hpp.html" target="_top" xlink:title=" ">
<polygon fill="white" stroke="black" points="3367.5,-11.5 3367.5,-30.5 3518.5,-30.5 3518.5,-11.5 3367.5,-11.5"/>
<text text-anchor="middle" x="3443" y="-18.5" font-family="Helvetica,sans-Serif" font-size="10.00">./package/uop_package.hpp</text>
</a>
</g>
</g>
<!-- Node2&#45;&gt;Node38 -->
<g id="edge39" class="edge">
<title>Node2&#45;&gt;Node38</title>
<path fill="none" stroke="midnightblue" d="M1774.13,-86.99C2005.33,-86.77 3039.55,-83.42 3358,-42 3373,-40.05 3389.22,-36.58 3403.43,-33.07"/>
<polygon fill="midnightblue" stroke="midnightblue" points="3404.55,-36.4 3413.38,-30.53 3402.82,-29.62 3404.55,-36.4"/>
</g>
<!-- Node39 -->
<g id="node39" class="node">
<title>Node39</title>
<g id="a_node39"><a xlink:href="memory__package_8hpp.html" target="_top" xlink:title=" ">
<polygon fill="white" stroke="black" points="3537,-11.5 3537,-30.5 3711,-30.5 3711,-11.5 3537,-11.5"/>
<text text-anchor="middle" x="3624" y="-18.5" font-family="Helvetica,sans-Serif" font-size="10.00">./package/memory_package.hpp</text>
</a>
</g>
</g>
<!-- Node2&#45;&gt;Node39 -->
<g id="edge40" class="edge">
<title>Node2&#45;&gt;Node39</title>
<path fill="none" stroke="midnightblue" d="M1774.37,-86.97C2020.25,-86.66 3173.61,-83.01 3528,-42 3545.37,-39.99 3564.25,-36.38 3580.63,-32.77"/>
<polygon fill="midnightblue" stroke="midnightblue" points="3581.5,-36.16 3590.48,-30.53 3579.95,-29.33 3581.5,-36.16"/>
</g>
<!-- Node40 -->
<g id="node40" class="node">
<title>Node40</title>
<g id="a_node40"><a xlink:href="reorder__buffer__line_8hpp.html" target="_top" xlink:title=" ">
<polygon fill="white" stroke="black" points="3729,-6 3729,-36 3837,-36 3837,-6 3729,-6"/>
<text text-anchor="start" x="3737" y="-24" font-family="Helvetica,sans-Serif" font-size="10.00">./processor/reorder</text>
<text text-anchor="middle" x="3783" y="-13" font-family="Helvetica,sans-Serif" font-size="10.00">_buffer_line.hpp</text>
</a>
</g>
</g>
<!-- Node2&#45;&gt;Node40 -->
<g id="edge41" class="edge">
<title>Node2&#45;&gt;Node40</title>
<path fill="none" stroke="midnightblue" d="M1774.27,-86.74C2054.82,-85.08 3522.62,-74.86 3720,-42 3724.97,-41.17 3730.08,-40.04 3735.15,-38.74"/>
<polygon fill="midnightblue" stroke="midnightblue" points="3736.09,-42.11 3744.78,-36.04 3734.2,-35.36 3736.09,-42.11"/>
</g>
<!-- Node41 -->
<g id="node41" class="node">
<title>Node41</title>
<g id="a_node41"><a xlink:href="memory__order__buffer__line_8hpp.html" target="_top" xlink:title=" ">
<polygon fill="white" stroke="black" points="3855.5,-6 3855.5,-36 3980.5,-36 3980.5,-6 3855.5,-6"/>
<text text-anchor="start" x="3863.5" y="-24" font-family="Helvetica,sans-Serif" font-size="10.00">./processor/memory</text>
<text text-anchor="middle" x="3918" y="-13" font-family="Helvetica,sans-Serif" font-size="10.00">_order_buffer_line.hpp</text>
</a>
</g>
</g>
<!-- Node2&#45;&gt;Node41 -->
<g id="edge42" class="edge">
<title>Node2&#45;&gt;Node41</title>
<path fill="none" stroke="midnightblue" d="M1774.32,-86.71C2065.25,-84.79 3634.84,-73.07 3846,-42 3851.92,-41.13 3858.04,-39.92 3864.11,-38.53"/>
<polygon fill="midnightblue" stroke="midnightblue" points="3865.34,-41.83 3874.2,-36.04 3863.66,-35.04 3865.34,-41.83"/>
</g>
<!-- Node42 -->
<g id="node42" class="node">
<title>Node42</title>
<g id="a_node42"><a xlink:href="processor_8hpp.html" target="_top" xlink:title=" ">
<polygon fill="white" stroke="black" points="3999,-11.5 3999,-30.5 4139,-30.5 4139,-11.5 3999,-11.5"/>
<text text-anchor="middle" x="4069" y="-18.5" font-family="Helvetica,sans-Serif" font-size="10.00">./processor/processor.hpp</text>
</a>
</g>
</g>
<!-- Node2&#45;&gt;Node42 -->
<g id="edge43" class="edge">
<title>Node2&#45;&gt;Node42</title>
<path fill="none" stroke="midnightblue" d="M1774,-86.72C2075.45,-84.77 3763.25,-72.55 3990,-42 4003.72,-40.15 4018.49,-36.79 4031.51,-33.35"/>
<polygon fill="midnightblue" stroke="midnightblue" points="4032.8,-36.63 4041.52,-30.6 4030.95,-29.88 4032.8,-36.63"/>
</g>
<!-- Node43 -->
<g id="node43" class="node">
<title>Node43</title>
<g id="a_node43"><a xlink:href="btb__line_8hpp.html" target="_top" xlink:title=" ">
<polygon fill="white" stroke="black" points="4157,-6 4157,-36 4261,-36 4261,-6 4157,-6"/>
<text text-anchor="start" x="4165" y="-24" font-family="Helvetica,sans-Serif" font-size="10.00">./branch_predictor</text>
<text text-anchor="middle" x="4209" y="-13" font-family="Helvetica,sans-Serif" font-size="10.00">/btb_line.hpp</text>
</a>
</g>
</g>
<!-- Node2&#45;&gt;Node43 -->
<g id="edge44" class="edge">
<title>Node2&#45;&gt;Node43</title>
<path fill="none" stroke="midnightblue" d="M1774.18,-86.97C2088.3,-86.64 3905.88,-82.99 4148,-42 4152.7,-41.2 4157.53,-40.12 4162.31,-38.86"/>
<polygon fill="midnightblue" stroke="midnightblue" points="4163.38,-42.19 4172.02,-36.07 4161.45,-35.47 4163.38,-42.19"/>
</g>
<!-- Node44 -->
<g id="node44" class="node">
<title>Node44</title>
<g id="a_node44"><a xlink:href="btb_8hpp.html" target="_top" xlink:title=" ">
<polygon fill="white" stroke="black" points="4279,-6 4279,-36 4383,-36 4383,-6 4279,-6"/>
<text text-anchor="start" x="4287" y="-24" font-family="Helvetica,sans-Serif" font-size="10.00">./branch_predictor</text>
<text text-anchor="middle" x="4331" y="-13" font-family="Helvetica,sans-Serif" font-size="10.00">/btb.hpp</text>
</a>
</g>
</g>
<!-- Node2&#45;&gt;Node44 -->
<g id="edge45" class="edge">
<title>Node2&#45;&gt;Node44</title>
<path fill="none" stroke="midnightblue" d="M1774.15,-87.01C2097.26,-86.99 4015.05,-85.05 4270,-42 4274.7,-41.21 4279.53,-40.12 4284.31,-38.86"/>
<polygon fill="midnightblue" stroke="midnightblue" points="4285.38,-42.2 4294.02,-36.07 4283.45,-35.47 4285.38,-42.2"/>
</g>
<!-- Node45 -->
<g id="node45" class="node">
<title>Node45</title>
<g id="a_node45"><a xlink:href="predictor_8hpp.html" target="_top" xlink:title=" ">
<polygon fill="white" stroke="black" points="4401,-6 4401,-36 4505,-36 4505,-6 4401,-6"/>
<text text-anchor="start" x="4409" y="-24" font-family="Helvetica,sans-Serif" font-size="10.00">./branch_predictor</text>
<text text-anchor="middle" x="4453" y="-13" font-family="Helvetica,sans-Serif" font-size="10.00">/predictor.hpp</text>
</a>
</g>
</g>
<!-- Node2&#45;&gt;Node45 -->
<g id="edge46" class="edge">
<title>Node2&#45;&gt;Node45</title>
<path fill="none" stroke="midnightblue" d="M1774.22,-87.05C2106.39,-87.32 4124.23,-87.1 4392,-42 4396.7,-41.21 4401.53,-40.12 4406.32,-38.87"/>
<polygon fill="midnightblue" stroke="midnightblue" points="4407.38,-42.2 4416.02,-36.08 4405.45,-35.47 4407.38,-42.2"/>
</g>
<!-- Node46 -->
<g id="node46" class="node">
<title>Node46</title>
<g id="a_node46"><a xlink:href="piecewise_8hpp.html" target="_top" xlink:title=" ">
<polygon fill="white" stroke="black" points="4523,-6 4523,-36 4627,-36 4627,-6 4523,-6"/>
<text text-anchor="start" x="4531" y="-24" font-family="Helvetica,sans-Serif" font-size="10.00">./branch_predictor</text>
<text text-anchor="middle" x="4575" y="-13" font-family="Helvetica,sans-Serif" font-size="10.00">/piecewise.hpp</text>
</a>
</g>
</g>
<!-- Node2&#45;&gt;Node46 -->
<g id="edge47" class="edge">
<title>Node2&#45;&gt;Node46</title>
<path fill="none" stroke="midnightblue" d="M1774.14,-87.09C2114.73,-87.64 4233.36,-89.16 4514,-42 4518.7,-41.21 4523.53,-40.13 4528.32,-38.87"/>
<polygon fill="midnightblue" stroke="midnightblue" points="4529.38,-42.21 4538.03,-36.08 4527.45,-35.48 4529.38,-42.21"/>
</g>
<!-- Node47 -->
<g id="node47" class="node">
<title>Node47</title>
<g id="a_node47"><a xlink:href="two_bit_8hpp.html" target="_top" xlink:title=" ">
<polygon fill="white" stroke="black" points="4645,-6 4645,-36 4749,-36 4749,-6 4645,-6"/>
<text text-anchor="start" x="4653" y="-24" font-family="Helvetica,sans-Serif" font-size="10.00">./branch_predictor</text>
<text text-anchor="middle" x="4697" y="-13" font-family="Helvetica,sans-Serif" font-size="10.00">/twoBit.hpp</text>
</a>
</g>
</g>
<!-- Node2&#45;&gt;Node47 -->
<g id="edge48" class="edge">
<title>Node2&#45;&gt;Node47</title>
<path fill="none" stroke="midnightblue" d="M1774.2,-87.12C2123.43,-87.95 4342.51,-91.22 4636,-42 4640.7,-41.21 4645.53,-40.13 4650.32,-38.87"/>
<polygon fill="midnightblue" stroke="midnightblue" points="4651.38,-42.21 4660.03,-36.09 4649.45,-35.48 4651.38,-42.21"/>
</g>
<!-- Node48 -->
<g id="node48" class="node">
<title>Node48</title>
<g id="a_node48"><a xlink:href="branch__predictor_8hpp.html" target="_top" xlink:title=" ">
<polygon fill="white" stroke="black" points="4767,-6 4767,-36 4889,-36 4889,-6 4767,-6"/>
<text text-anchor="start" x="4775" y="-24" font-family="Helvetica,sans-Serif" font-size="10.00">./branch_predictor</text>
<text text-anchor="middle" x="4828" y="-13" font-family="Helvetica,sans-Serif" font-size="10.00">/branch_predictor.hpp</text>
</a>
</g>
</g>
<!-- Node2&#45;&gt;Node48 -->
<g id="edge49" class="edge">
<title>Node2&#45;&gt;Node48</title>
<path fill="none" stroke="midnightblue" d="M1774.11,-87.05C2131.28,-87.33 4450.69,-87.37 4758,-42 4763.77,-41.15 4769.73,-39.95 4775.63,-38.57"/>
<polygon fill="midnightblue" stroke="midnightblue" points="4776.61,-41.93 4785.45,-36.08 4774.9,-35.14 4776.61,-41.93"/>
</g>
<!-- Node49 -->
<g id="node49" class="node">
<title>Node49</title>
<g id="a_node49"><a xlink:href="linha_8hpp.html" target="_top" xlink:title=" ">
<polygon fill="white" stroke="black" points="4907.5,-11.5 4907.5,-30.5 5006.5,-30.5 5006.5,-11.5 4907.5,-11.5"/>
<text text-anchor="middle" x="4957" y="-18.5" font-family="Helvetica,sans-Serif" font-size="10.00">./cache/linha.hpp</text>
</a>
</g>
</g>
<!-- Node2&#45;&gt;Node49 -->
<g id="edge50" class="edge">
<title>Node2&#45;&gt;Node49</title>
<path fill="none" stroke="midnightblue" d="M1774.23,-86.76C2153.15,-84.7 4737.18,-69.69 4898,-42 4907.78,-40.32 4918.14,-37.27 4927.39,-34.05"/>
<polygon fill="midnightblue" stroke="midnightblue" points="4928.75,-37.28 4936.93,-30.55 4926.34,-30.71 4928.75,-37.28"/>
</g>
<!-- Node50 -->
<g id="node50" class="node">
<title>Node50</title>
<g id="a_node50"><a xlink:href="cache_set_8hpp.html" target="_top" xlink:title=" ">
<polygon fill="white" stroke="black" points="5024.5,-11.5 5024.5,-30.5 5143.5,-30.5 5143.5,-11.5 5024.5,-11.5"/>
<text text-anchor="middle" x="5084" y="-18.5" font-family="Helvetica,sans-Serif" font-size="10.00">./cache/cacheSet.hpp</text>
</a>
</g>
</g>
<!-- Node2&#45;&gt;Node50 -->
<g id="edge51" class="edge">
<title>Node2&#45;&gt;Node50</title>
<path fill="none" stroke="midnightblue" d="M1774.12,-87.13C2148.3,-88.06 4681.54,-92.5 5016,-42 5027.64,-40.24 5040.09,-37 5051.1,-33.64"/>
<polygon fill="midnightblue" stroke="midnightblue" points="5052.3,-36.93 5060.75,-30.55 5050.16,-30.26 5052.3,-36.93"/>
</g>
<!-- Node34&#45;&gt;Node2 -->
<g id="edge35" class="edge">
<title>Node34&#45;&gt;Node2</title>
<path fill="none" stroke="midnightblue" d="M2744.49,-30.52C2730.68,-34.73 2712,-39.45 2695,-42 2518.12,-68.55 1963.39,-82.23 1784.28,-85.94"/>
<polygon fill="midnightblue" stroke="midnightblue" points="1783.96,-82.45 1774.03,-86.15 1784.1,-89.45 1783.96,-82.45"/>
</g>
</g>
</svg>
