<?xml version="1.0" encoding="UTF-8" standalone="no"?>
<!DOCTYPE svg PUBLIC "-//W3C//DTD SVG 1.1//EN"
 "http://www.w3.org/Graphics/SVG/1.1/DTD/svg11.dtd">
<!-- Generated by graphviz version 2.43.0 (0)
 -->
<!-- Title: processor/reorder_buffer_line.hpp Pages: 1 -->
<!--zoomable 162 -->
<svg id="main" version="1.1" xmlns="http://www.w3.org/2000/svg" xmlns:xlink="http://www.w3.org/1999/xlink" xml:space="preserve" onload="init(evt)">
<style type="text/css"><![CDATA[
.edge:hover path { stroke: red; }
.edge:hover polygon { stroke: red; fill: red; }
]]></style>
<script type="text/javascript"><![CDATA[
var edges = document.getElementsByTagName('g');
if (edges && edges.length) {
  for (var i=0;i<edges.length;i++) {
    if (edges[i].id.substr(0,4)=='edge') {
      edges[i].setAttribute('class','edge');
    }
  }
}
]]></script>
        <defs>
                <circle id="rim" cx="0" cy="0" r="7"/>
                <circle id="rim2" cx="0" cy="0" r="3.5"/>
                <g id="zoomPlus">
                        <use xlink:href="#rim" fill="#404040">
                                <set attributeName="fill" to="#808080" begin="zoomplus.mouseover" end="zoomplus.mouseout"/>
                        </use>
                        <path d="M-4,0h8M0,-4v8" fill="none" stroke="white" stroke-width="1.5" pointer-events="none"/>
                </g>
                <g id="zoomMin">
                        <use xlink:href="#rim" fill="#404040">
                                <set attributeName="fill" to="#808080" begin="zoomminus.mouseover" end="zoomminus.mouseout"/>
                        </use>
                        <path d="M-4,0h8" fill="none" stroke="white" stroke-width="1.5" pointer-events="none"/>
                </g>
                <g id="dirArrow">
                        <path fill="none" stroke="white" stroke-width="1.5" d="M0,-3.0v7 M-2.5,-0.5L0,-3.0L2.5,-0.5"/>
                </g>
               <g id="resetDef">
                       <use xlink:href="#rim2" fill="#404040">
                               <set attributeName="fill" to="#808080" begin="reset.mouseover" end="reset.mouseout"/>
                       </use>
               </g>
        </defs>

<script type="text/javascript">
var viewWidth = 4074;
var viewHeight = 162;
var sectionId = 'dynsection-0';
</script>
<script xlink:href="svgpan.js"/>
<svg id="graph" class="graph">
<g id="viewport">
<title>processor/reorder_buffer_line.hpp</title>
<polygon fill="white" stroke="transparent" points="-4,4 -4,-158 4069.5,-158 4069.5,4 -4,4"/>
<!-- Node1 -->
<g id="node1" class="node">
<title>Node1</title>
<g id="a_node1"><a xlink:title=" ">
<polygon fill="#bfbfbf" stroke="black" points="2070,-123.5 2070,-153.5 2206,-153.5 2206,-123.5 2070,-123.5"/>
<text text-anchor="start" x="2078" y="-141.5" font-family="Helvetica,sans-Serif" font-size="10.00">processor/reorder_buffer</text>
<text text-anchor="middle" x="2138" y="-130.5" font-family="Helvetica,sans-Serif" font-size="10.00">_line.hpp</text>
</a>
</g>
</g>
<!-- Node2 -->
<g id="node2" class="node">
<title>Node2</title>
<g id="a_node2"><a xlink:href="simulator_8hpp.html" target="_top" xlink:title=" ">
<polygon fill="white" stroke="black" points="2096.5,-67.5 2096.5,-86.5 2179.5,-86.5 2179.5,-67.5 2096.5,-67.5"/>
<text text-anchor="middle" x="2138" y="-74.5" font-family="Helvetica,sans-Serif" font-size="10.00">simulator.hpp</text>
</a>
</g>
</g>
<!-- Node1&#45;&gt;Node2 -->
<g id="edge1" class="edge">
<title>Node1&#45;&gt;Node2</title>
<path fill="none" stroke="midnightblue" d="M2138,-113.29C2138,-103.86 2138,-93.65 2138,-86.66"/>
<polygon fill="midnightblue" stroke="midnightblue" points="2134.5,-113.4 2138,-123.4 2141.5,-113.4 2134.5,-113.4"/>
</g>
<!-- Node2&#45;&gt;Node2 -->
<g id="edge23" class="edge">
<title>Node2&#45;&gt;Node2</title>
<path fill="none" stroke="midnightblue" d="M2170.25,-88.06C2184.84,-89.16 2197.5,-85.47 2197.5,-77 2197.5,-66.57 2178.32,-63.39 2159.97,-67.47"/>
<polygon fill="midnightblue" stroke="midnightblue" points="2170.38,-84.54 2159.97,-86.53 2169.35,-91.46 2170.38,-84.54"/>
</g>
<!-- Node3 -->
<g id="node3" class="node">
<title>Node3</title>
<g id="a_node3"><a xlink:href="branch__predictor_8cpp.html" target="_top" xlink:title=" ">
<polygon fill="white" stroke="black" points="0,-0.5 0,-30.5 134,-30.5 134,-0.5 0,-0.5"/>
<text text-anchor="start" x="8" y="-18.5" font-family="Helvetica,sans-Serif" font-size="10.00">branch_predictor/branch</text>
<text text-anchor="middle" x="67" y="-7.5" font-family="Helvetica,sans-Serif" font-size="10.00">_predictor.cpp</text>
</a>
</g>
</g>
<!-- Node2&#45;&gt;Node3 -->
<g id="edge2" class="edge">
<title>Node2&#45;&gt;Node3</title>
<path fill="none" stroke="midnightblue" d="M2086.4,-76C1813.51,-75.8 536.08,-72.64 143,-31 140.06,-30.69 137.07,-30.32 134.05,-29.92"/>
<polygon fill="midnightblue" stroke="midnightblue" points="2086.43,-79.5 2096.43,-76 2086.43,-72.5 2086.43,-79.5"/>
</g>
<!-- Node4 -->
<g id="node4" class="node">
<title>Node4</title>
<g id="a_node4"><a xlink:href="piecewise_8cpp.html" target="_top" xlink:title=" ">
<polygon fill="white" stroke="black" points="152,-6 152,-25 322,-25 322,-6 152,-6"/>
<text text-anchor="middle" x="237" y="-13" font-family="Helvetica,sans-Serif" font-size="10.00">branch_predictor/piecewise.cpp</text>
</a>
</g>
</g>
<!-- Node2&#45;&gt;Node4 -->
<g id="edge3" class="edge">
<title>Node2&#45;&gt;Node4</title>
<path fill="none" stroke="midnightblue" d="M2086.02,-75.61C1828.22,-73.51 685.16,-62.59 331,-31 315.87,-29.65 299.47,-27.4 284.68,-25.07"/>
<polygon fill="midnightblue" stroke="midnightblue" points="2086.2,-79.11 2096.22,-75.69 2086.25,-72.11 2086.2,-79.11"/>
</g>
<!-- Node5 -->
<g id="node5" class="node">
<title>Node5</title>
<g id="a_node5"><a xlink:href="two_bit_8cpp.html" target="_top" xlink:title=" ">
<polygon fill="white" stroke="black" points="340.5,-6 340.5,-25 493.5,-25 493.5,-6 340.5,-6"/>
<text text-anchor="middle" x="417" y="-13" font-family="Helvetica,sans-Serif" font-size="10.00">branch_predictor/twoBit.cpp</text>
</a>
</g>
</g>
<!-- Node2&#45;&gt;Node5 -->
<g id="edge4" class="edge">
<title>Node2&#45;&gt;Node5</title>
<path fill="none" stroke="midnightblue" d="M2085.93,-75.56C1843.08,-73.36 820.15,-62.35 502,-31 488.29,-29.65 473.46,-27.4 460.08,-25.06"/>
<polygon fill="midnightblue" stroke="midnightblue" points="2086.21,-79.06 2096.24,-75.65 2086.27,-72.06 2086.21,-79.06"/>
</g>
<!-- Node6 -->
<g id="node6" class="node">
<title>Node6</title>
<g id="a_node6"><a xlink:href="cache_8cpp.html" target="_top" xlink:title=" ">
<polygon fill="white" stroke="black" points="511.5,-6 511.5,-25 608.5,-25 608.5,-6 511.5,-6"/>
<text text-anchor="middle" x="560" y="-13" font-family="Helvetica,sans-Serif" font-size="10.00">cache/cache.cpp</text>
</a>
</g>
</g>
<!-- Node2&#45;&gt;Node6 -->
<g id="edge5" class="edge">
<title>Node2&#45;&gt;Node6</title>
<path fill="none" stroke="midnightblue" d="M2086.17,-75.99C1854.21,-75.72 909.92,-72.08 617,-31 607.6,-29.68 597.5,-27.41 588.46,-25.05"/>
<polygon fill="midnightblue" stroke="midnightblue" points="2086.35,-79.49 2096.36,-76 2086.36,-72.49 2086.35,-79.49"/>
</g>
<!-- Node7 -->
<g id="node7" class="node">
<title>Node7</title>
<g id="a_node7"><a xlink:href="cache__manager_8cpp.html" target="_top" xlink:title=" ">
<polygon fill="white" stroke="black" points="626.5,-6 626.5,-25 771.5,-25 771.5,-6 626.5,-6"/>
<text text-anchor="middle" x="699" y="-13" font-family="Helvetica,sans-Serif" font-size="10.00">cache/cache_manager.cpp</text>
</a>
</g>
</g>
<!-- Node2&#45;&gt;Node7 -->
<g id="edge6" class="edge">
<title>Node2&#45;&gt;Node7</title>
<path fill="none" stroke="midnightblue" d="M2086.29,-75.27C1870.53,-72.06 1041.22,-58.18 781,-31 767.77,-29.62 753.46,-27.36 740.55,-25.03"/>
<polygon fill="midnightblue" stroke="midnightblue" points="2086.34,-78.77 2096.39,-75.42 2086.44,-71.77 2086.34,-78.77"/>
</g>
<!-- Node8 -->
<g id="node8" class="node">
<title>Node8</title>
<g id="a_node8"><a xlink:href="config_8cpp.html" target="_top" xlink:title=" ">
<polygon fill="white" stroke="black" points="790,-6 790,-25 888,-25 888,-6 790,-6"/>
<text text-anchor="middle" x="839" y="-13" font-family="Helvetica,sans-Serif" font-size="10.00">config/config.cpp</text>
</a>
</g>
</g>
<!-- Node2&#45;&gt;Node8 -->
<g id="edge7" class="edge">
<title>Node2&#45;&gt;Node8</title>
<path fill="none" stroke="midnightblue" d="M2086.03,-75.56C1881.56,-73.61 1132.13,-64.28 897,-31 887.44,-29.65 877.17,-27.36 867.97,-25"/>
<polygon fill="midnightblue" stroke="midnightblue" points="2086.17,-79.06 2096.2,-75.66 2086.23,-72.06 2086.17,-79.06"/>
</g>
<!-- Node9 -->
<g id="node9" class="node">
<title>Node9</title>
<g id="a_node9"><a xlink:href="hive__controller_8cpp.html" target="_top" xlink:title=" ">
<polygon fill="white" stroke="black" points="906.5,-6 906.5,-25 1039.5,-25 1039.5,-6 906.5,-6"/>
<text text-anchor="middle" x="973" y="-13" font-family="Helvetica,sans-Serif" font-size="10.00">hive/hive_controller.cpp</text>
</a>
</g>
</g>
<!-- Node2&#45;&gt;Node9 -->
<g id="edge8" class="edge">
<title>Node2&#45;&gt;Node9</title>
<path fill="none" stroke="midnightblue" d="M2085.98,-76.56C1928.92,-77.67 1445.91,-76.81 1049,-31 1036.86,-29.6 1023.74,-27.36 1011.88,-25.06"/>
<polygon fill="midnightblue" stroke="midnightblue" points="2086.31,-80.06 2096.29,-76.48 2086.26,-73.06 2086.31,-80.06"/>
</g>
<!-- Node10 -->
<g id="node10" class="node">
<title>Node10</title>
<g id="a_node10"><a xlink:href="memory__channel_8cpp.html" target="_top" xlink:title=" ">
<polygon fill="white" stroke="black" points="1058,-0.5 1058,-30.5 1190,-30.5 1190,-0.5 1058,-0.5"/>
<text text-anchor="start" x="1066" y="-18.5" font-family="Helvetica,sans-Serif" font-size="10.00">main_memory/memory</text>
<text text-anchor="middle" x="1124" y="-7.5" font-family="Helvetica,sans-Serif" font-size="10.00">_channel.cpp</text>
</a>
</g>
</g>
<!-- Node2&#45;&gt;Node10 -->
<g id="edge9" class="edge">
<title>Node2&#45;&gt;Node10</title>
<path fill="none" stroke="midnightblue" d="M2085.98,-76.11C1943.53,-75.86 1535.33,-71.36 1199,-31 1196.1,-30.65 1193.15,-30.26 1190.17,-29.83"/>
<polygon fill="midnightblue" stroke="midnightblue" points="2086.17,-79.61 2096.17,-76.12 2086.18,-72.61 2086.17,-79.61"/>
</g>
<!-- Node11 -->
<g id="node11" class="node">
<title>Node11</title>
<g id="a_node11"><a xlink:href="memory__controller_8cpp.html" target="_top" xlink:title=" ">
<polygon fill="white" stroke="black" points="1208,-0.5 1208,-30.5 1340,-30.5 1340,-0.5 1208,-0.5"/>
<text text-anchor="start" x="1216" y="-18.5" font-family="Helvetica,sans-Serif" font-size="10.00">main_memory/memory</text>
<text text-anchor="middle" x="1274" y="-7.5" font-family="Helvetica,sans-Serif" font-size="10.00">_controller.cpp</text>
</a>
</g>
</g>
<!-- Node2&#45;&gt;Node11 -->
<g id="edge10" class="edge">
<title>Node2&#45;&gt;Node11</title>
<path fill="none" stroke="midnightblue" d="M2086.17,-75.44C1959.7,-73.56 1625.44,-65.45 1349,-31 1346.1,-30.64 1343.15,-30.23 1340.18,-29.79"/>
<polygon fill="midnightblue" stroke="midnightblue" points="2086.28,-78.94 2096.33,-75.59 2086.38,-71.94 2086.28,-78.94"/>
</g>
<!-- Node12 -->
<g id="node12" class="node">
<title>Node12</title>
<g id="a_node12"><a xlink:href="memory__request__client_8cpp.html" target="_top" xlink:title=" ">
<polygon fill="white" stroke="black" points="1358,-0.5 1358,-30.5 1490,-30.5 1490,-0.5 1358,-0.5"/>
<text text-anchor="start" x="1366" y="-18.5" font-family="Helvetica,sans-Serif" font-size="10.00">main_memory/memory</text>
<text text-anchor="middle" x="1424" y="-7.5" font-family="Helvetica,sans-Serif" font-size="10.00">_request_client.cpp</text>
</a>
</g>
</g>
<!-- Node2&#45;&gt;Node12 -->
<g id="edge11" class="edge">
<title>Node2&#45;&gt;Node12</title>
<path fill="none" stroke="midnightblue" d="M2086.27,-74.47C1977.26,-70.79 1716.11,-59.53 1499,-31 1496.11,-30.62 1493.16,-30.2 1490.18,-29.74"/>
<polygon fill="midnightblue" stroke="midnightblue" points="2086.22,-77.97 2096.33,-74.81 2086.46,-70.98 2086.22,-77.97"/>
</g>
<!-- Node13 -->
<g id="node13" class="node">
<title>Node13</title>
<g id="a_node13"><a xlink:href="orcs__engine_8cpp.html" target="_top" xlink:title=" ">
<polygon fill="white" stroke="black" points="1508.5,-6 1508.5,-25 1603.5,-25 1603.5,-6 1508.5,-6"/>
<text text-anchor="middle" x="1556" y="-13" font-family="Helvetica,sans-Serif" font-size="10.00">orcs_engine.cpp</text>
</a>
</g>
</g>
<!-- Node2&#45;&gt;Node13 -->
<g id="edge12" class="edge">
<title>Node2&#45;&gt;Node13</title>
<path fill="none" stroke="midnightblue" d="M2086.27,-74.45C1991.57,-70.99 1784.2,-60.44 1612,-31 1603.19,-29.49 1593.74,-27.28 1585.15,-25.04"/>
<polygon fill="midnightblue" stroke="midnightblue" points="2086.32,-77.96 2096.44,-74.82 2086.57,-70.96 2086.32,-77.96"/>
</g>
<!-- Node14 -->
<g id="node14" class="node">
<title>Node14</title>
<g id="a_node14"><a xlink:href="memory__package_8cpp.html" target="_top" xlink:title=" ">
<polygon fill="white" stroke="black" points="1621.5,-6 1621.5,-25 1788.5,-25 1788.5,-6 1621.5,-6"/>
<text text-anchor="middle" x="1705" y="-13" font-family="Helvetica,sans-Serif" font-size="10.00">package/memory_package.cpp</text>
</a>
</g>
</g>
<!-- Node2&#45;&gt;Node14 -->
<g id="edge13" class="edge">
<title>Node2&#45;&gt;Node14</title>
<path fill="none" stroke="midnightblue" d="M2086.22,-69.58C2019.35,-61.19 1899.38,-45.82 1797,-31 1784.2,-29.15 1770.41,-27.04 1757.51,-25.01"/>
<polygon fill="midnightblue" stroke="midnightblue" points="2086.13,-73.09 2096.49,-70.86 2087,-66.15 2086.13,-73.09"/>
</g>
<!-- Node15 -->
<g id="node15" class="node">
<title>Node15</title>
<g id="a_node15"><a xlink:href="opcode__package_8cpp.html" target="_top" xlink:title=" ">
<polygon fill="white" stroke="black" points="1806.5,-6 1806.5,-25 1967.5,-25 1967.5,-6 1806.5,-6"/>
<text text-anchor="middle" x="1887" y="-13" font-family="Helvetica,sans-Serif" font-size="10.00">package/opcode_package.cpp</text>
</a>
</g>
</g>
<!-- Node2&#45;&gt;Node15 -->
<g id="edge14" class="edge">
<title>Node2&#45;&gt;Node15</title>
<path fill="none" stroke="midnightblue" d="M2092.08,-65.11C2043.36,-53.57 1967.41,-35.56 1922.9,-25.01"/>
<polygon fill="midnightblue" stroke="midnightblue" points="2091.5,-68.57 2102.04,-67.48 2093.11,-61.76 2091.5,-68.57"/>
</g>
<!-- Node16 -->
<g id="node16" class="node">
<title>Node16</title>
<g id="a_node16"><a xlink:href="uop__package_8cpp.html" target="_top" xlink:title=" ">
<polygon fill="white" stroke="black" points="1986,-6 1986,-25 2130,-25 2130,-6 1986,-6"/>
<text text-anchor="middle" x="2058" y="-13" font-family="Helvetica,sans-Serif" font-size="10.00">package/uop_package.cpp</text>
</a>
</g>
</g>
<!-- Node2&#45;&gt;Node16 -->
<g id="edge15" class="edge">
<title>Node2&#45;&gt;Node16</title>
<path fill="none" stroke="midnightblue" d="M2118.23,-61.29C2102.88,-49.88 2082.14,-34.46 2069.44,-25.01"/>
<polygon fill="midnightblue" stroke="midnightblue" points="2116.43,-64.32 2126.54,-67.48 2120.6,-58.7 2116.43,-64.32"/>
</g>
<!-- Node17 -->
<g id="node17" class="node">
<title>Node17</title>
<g id="a_node17"><a xlink:href="prefetcher_8cpp.html" target="_top" xlink:title=" ">
<polygon fill="white" stroke="black" points="2148,-6 2148,-25 2288,-25 2288,-6 2148,-6"/>
<text text-anchor="middle" x="2218" y="-13" font-family="Helvetica,sans-Serif" font-size="10.00">prefetcher/prefetcher.cpp</text>
</a>
</g>
</g>
<!-- Node2&#45;&gt;Node17 -->
<g id="edge16" class="edge">
<title>Node2&#45;&gt;Node17</title>
<path fill="none" stroke="midnightblue" d="M2157.77,-61.29C2173.12,-49.88 2193.86,-34.46 2206.56,-25.01"/>
<polygon fill="midnightblue" stroke="midnightblue" points="2155.4,-58.7 2149.46,-67.48 2159.57,-64.32 2155.4,-58.7"/>
</g>
<!-- Node18 -->
<g id="node18" class="node">
<title>Node18</title>
<g id="a_node18"><a xlink:href="stride__prefetcher_8cpp.html" target="_top" xlink:title=" ">
<polygon fill="white" stroke="black" points="2306.5,-6 2306.5,-25 2479.5,-25 2479.5,-6 2306.5,-6"/>
<text text-anchor="middle" x="2393" y="-13" font-family="Helvetica,sans-Serif" font-size="10.00">prefetcher/stride_prefetcher.cpp</text>
</a>
</g>
</g>
<!-- Node2&#45;&gt;Node18 -->
<g id="edge17" class="edge">
<title>Node2&#45;&gt;Node18</title>
<path fill="none" stroke="midnightblue" d="M2184.35,-65.19C2233.83,-53.64 2311.21,-35.58 2356.53,-25.01"/>
<polygon fill="midnightblue" stroke="midnightblue" points="2183.48,-61.79 2174.54,-67.48 2185.07,-68.61 2183.48,-61.79"/>
</g>
<!-- Node19 -->
<g id="node19" class="node">
<title>Node19</title>
<g id="a_node19"><a xlink:href="disambiguation__hashed_8cpp.html" target="_top" xlink:title=" ">
<polygon fill="white" stroke="black" points="2497.5,-0.5 2497.5,-30.5 2686.5,-30.5 2686.5,-0.5 2497.5,-0.5"/>
<text text-anchor="start" x="2505.5" y="-18.5" font-family="Helvetica,sans-Serif" font-size="10.00">processor/memory_disambiguation</text>
<text text-anchor="middle" x="2592" y="-7.5" font-family="Helvetica,sans-Serif" font-size="10.00">/disambiguation_hashed.cpp</text>
</a>
</g>
</g>
<!-- Node2&#45;&gt;Node19 -->
<g id="edge18" class="edge">
<title>Node2&#45;&gt;Node19</title>
<path fill="none" stroke="midnightblue" d="M2189.72,-69.57C2258.21,-61.01 2382.73,-45.29 2489,-31 2491.77,-30.63 2494.59,-30.25 2497.43,-29.86"/>
<polygon fill="midnightblue" stroke="midnightblue" points="2189.12,-66.12 2179.63,-70.83 2189.98,-73.07 2189.12,-66.12"/>
</g>
<!-- Node20 -->
<g id="node20" class="node">
<title>Node20</title>
<g id="a_node20"><a xlink:href="memory__order__buffer__line_8cpp.html" target="_top" xlink:title=" ">
<polygon fill="white" stroke="black" points="2704.5,-0.5 2704.5,-30.5 2843.5,-30.5 2843.5,-0.5 2704.5,-0.5"/>
<text text-anchor="start" x="2712.5" y="-18.5" font-family="Helvetica,sans-Serif" font-size="10.00">processor/memory_order</text>
<text text-anchor="middle" x="2774" y="-7.5" font-family="Helvetica,sans-Serif" font-size="10.00">_buffer_line.cpp</text>
</a>
</g>
</g>
<!-- Node2&#45;&gt;Node20 -->
<g id="edge19" class="edge">
<title>Node2&#45;&gt;Node20</title>
<path fill="none" stroke="midnightblue" d="M2189.83,-73.61C2288.62,-68.66 2510.6,-55.64 2696,-31 2698.73,-30.64 2701.51,-30.24 2704.32,-29.82"/>
<polygon fill="midnightblue" stroke="midnightblue" points="2189.62,-70.12 2179.81,-74.11 2189.97,-77.11 2189.62,-70.12"/>
</g>
<!-- Node21 -->
<g id="node21" class="node">
<title>Node21</title>
<g id="a_node21"><a xlink:href="processor_8cpp.html" target="_top" xlink:title=" ">
<polygon fill="white" stroke="black" points="2862,-6 2862,-25 2996,-25 2996,-6 2862,-6"/>
<text text-anchor="middle" x="2929" y="-13" font-family="Helvetica,sans-Serif" font-size="10.00">processor/processor.cpp</text>
</a>
</g>
</g>
<!-- Node2&#45;&gt;Node21 -->
<g id="edge20" class="edge">
<title>Node2&#45;&gt;Node21</title>
<path fill="none" stroke="midnightblue" d="M2189.88,-74.97C2308.01,-72.13 2605.95,-62.22 2853,-31 2864.86,-29.5 2877.66,-27.29 2889.31,-25.05"/>
<polygon fill="midnightblue" stroke="midnightblue" points="2189.59,-71.47 2179.68,-75.21 2189.76,-78.47 2189.59,-71.47"/>
</g>
<!-- Node22 -->
<g id="node22" class="node">
<title>Node22</title>
<g id="a_node22"><a xlink:href="reorder__buffer__line_8cpp.html" target="_top" xlink:title=" ">
<polygon fill="white" stroke="black" points="3014,-0.5 3014,-30.5 3150,-30.5 3150,-0.5 3014,-0.5"/>
<text text-anchor="start" x="3022" y="-18.5" font-family="Helvetica,sans-Serif" font-size="10.00">processor/reorder_buffer</text>
<text text-anchor="middle" x="3082" y="-7.5" font-family="Helvetica,sans-Serif" font-size="10.00">_line.cpp</text>
</a>
</g>
</g>
<!-- Node2&#45;&gt;Node22 -->
<g id="edge21" class="edge">
<title>Node2&#45;&gt;Node22</title>
<path fill="none" stroke="midnightblue" d="M2189.72,-75.73C2324.47,-74.51 2697.24,-67.8 3005,-31 3007.84,-30.66 3010.73,-30.28 3013.64,-29.87"/>
<polygon fill="midnightblue" stroke="midnightblue" points="2189.65,-72.23 2179.68,-75.82 2189.71,-79.23 2189.65,-72.23"/>
</g>
<!-- Node23 -->
<g id="node23" class="node">
<title>Node23</title>
<g id="a_node23"><a xlink:href="simulator_8cpp.html" target="_top" xlink:title=" ">
<polygon fill="white" stroke="black" points="3168.5,-6 3168.5,-25 3251.5,-25 3251.5,-6 3168.5,-6"/>
<text text-anchor="middle" x="3210" y="-13" font-family="Helvetica,sans-Serif" font-size="10.00">simulator.cpp</text>
</a>
</g>
</g>
<!-- Node2&#45;&gt;Node23 -->
<g id="edge22" class="edge">
<title>Node2&#45;&gt;Node23</title>
<path fill="none" stroke="midnightblue" d="M2189.76,-75.31C2370,-72.66 2969.36,-61.71 3159,-31 3167.36,-29.65 3176.3,-27.39 3184.32,-25.06"/>
<polygon fill="midnightblue" stroke="midnightblue" points="2189.7,-71.81 2179.75,-75.46 2189.8,-78.81 2189.7,-71.81"/>
</g>
<!-- Node24 -->
<g id="node24" class="node">
<title>Node24</title>
<g id="a_node24"><a xlink:href="trace__reader_8cpp.html" target="_top" xlink:title=" ">
<polygon fill="white" stroke="black" points="3270,-6 3270,-25 3368,-25 3368,-6 3270,-6"/>
<text text-anchor="middle" x="3319" y="-13" font-family="Helvetica,sans-Serif" font-size="10.00">trace_reader.cpp</text>
</a>
</g>
</g>
<!-- Node2&#45;&gt;Node24 -->
<g id="edge24" class="edge">
<title>Node2&#45;&gt;Node24</title>
<path fill="none" stroke="midnightblue" d="M2189.7,-75.33C2381.21,-72.65 3050.01,-61.27 3261,-31 3270.45,-29.64 3280.6,-27.39 3289.73,-25.06"/>
<polygon fill="midnightblue" stroke="midnightblue" points="2189.57,-71.84 2179.62,-75.47 2189.67,-78.84 2189.57,-71.84"/>
</g>
<!-- Node25 -->
<g id="node25" class="node">
<title>Node25</title>
<g id="a_node25"><a xlink:href="circular__buffer_8hpp.html" target="_top" xlink:title=" ">
<polygon fill="white" stroke="black" points="3386.5,-6 3386.5,-25 3517.5,-25 3517.5,-6 3386.5,-6"/>
<text text-anchor="middle" x="3452" y="-13" font-family="Helvetica,sans-Serif" font-size="10.00">utils/circular_buffer.hpp</text>
</a>
</g>
</g>
<!-- Node2&#45;&gt;Node25 -->
<g id="edge25" class="edge">
<title>Node2&#45;&gt;Node25</title>
<path fill="none" stroke="midnightblue" d="M2189.6,-75.14C2392.3,-71.68 3133.62,-57.75 3368,-31 3380.12,-29.62 3393.22,-27.35 3405.44,-25.02"/>
<polygon fill="midnightblue" stroke="midnightblue" points="2189.46,-71.64 2179.52,-75.31 2189.58,-78.64 2189.46,-71.64"/>
</g>
<!-- Node26 -->
<g id="node26" class="node">
<title>Node26</title>
<g id="a_node26"><a xlink:href="enumerations_8cpp.html" target="_top" xlink:title=" ">
<polygon fill="white" stroke="black" points="3536,-6 3536,-25 3664,-25 3664,-6 3536,-6"/>
<text text-anchor="middle" x="3600" y="-13" font-family="Helvetica,sans-Serif" font-size="10.00">utils/enumerations.cpp</text>
</a>
</g>
</g>
<!-- Node2&#45;&gt;Node26 -->
<g id="edge27" class="edge">
<title>Node2&#45;&gt;Node26</title>
<path fill="none" stroke="midnightblue" d="M2189.85,-75.46C2409.04,-72.99 3260.5,-61.58 3527,-31 3538.81,-29.65 3551.56,-27.39 3563.05,-25.06"/>
<polygon fill="midnightblue" stroke="midnightblue" points="2189.56,-71.96 2179.6,-75.57 2189.63,-78.96 2189.56,-71.96"/>
</g>
<!-- Node27 -->
<g id="node27" class="node">
<title>Node27</title>
<g id="a_node27"><a xlink:href="utils_8cpp.html" target="_top" xlink:title=" ">
<polygon fill="white" stroke="black" points="3682,-6 3682,-25 3764,-25 3764,-6 3682,-6"/>
<text text-anchor="middle" x="3723" y="-13" font-family="Helvetica,sans-Serif" font-size="10.00">utils/utils.cpp</text>
</a>
</g>
</g>
<!-- Node2&#45;&gt;Node27 -->
<g id="edge28" class="edge">
<title>Node2&#45;&gt;Node27</title>
<path fill="none" stroke="midnightblue" d="M2189.95,-76.24C2423.54,-77.04 3377.94,-77.34 3673,-31 3681.3,-29.7 3690.17,-27.43 3698.1,-25.06"/>
<polygon fill="midnightblue" stroke="midnightblue" points="2189.71,-72.74 2179.7,-76.2 2189.69,-79.74 2189.71,-72.74"/>
</g>
<!-- Node28 -->
<g id="node28" class="node">
<title>Node28</title>
<g id="a_node28"><a xlink:href="vima__controller_8cpp.html" target="_top" xlink:title=" ">
<polygon fill="white" stroke="black" points="3782,-6 3782,-25 3922,-25 3922,-6 3782,-6"/>
<text text-anchor="middle" x="3852" y="-13" font-family="Helvetica,sans-Serif" font-size="10.00">vima/vima_controller.cpp</text>
</a>
</g>
</g>
<!-- Node2&#45;&gt;Node28 -->
<g id="edge29" class="edge">
<title>Node2&#45;&gt;Node28</title>
<path fill="none" stroke="midnightblue" d="M2190.05,-75.65C2432.79,-73.84 3455.24,-64.33 3773,-31 3785.9,-29.65 3799.85,-27.36 3812.39,-25"/>
<polygon fill="midnightblue" stroke="midnightblue" points="2189.72,-72.15 2179.74,-75.72 2189.77,-79.15 2189.72,-72.15"/>
</g>
<!-- Node29 -->
<g id="node29" class="node">
<title>Node29</title>
<g id="a_node29"><a xlink:href="vima__vector_8cpp.html" target="_top" xlink:title=" ">
<polygon fill="white" stroke="black" points="3940.5,-6 3940.5,-25 4065.5,-25 4065.5,-6 3940.5,-6"/>
<text text-anchor="middle" x="4003" y="-13" font-family="Helvetica,sans-Serif" font-size="10.00">vima/vima_vector.cpp</text>
</a>
</g>
</g>
<!-- Node2&#45;&gt;Node29 -->
<g id="edge30" class="edge">
<title>Node2&#45;&gt;Node29</title>
<path fill="none" stroke="midnightblue" d="M2190.03,-75.91C2446.8,-75.3 3580.59,-70.38 3931,-31 3942.78,-29.68 3955.51,-27.4 3966.93,-25.04"/>
<polygon fill="midnightblue" stroke="midnightblue" points="2189.85,-72.41 2179.86,-75.94 2189.87,-79.41 2189.85,-72.41"/>
</g>
<!-- Node25&#45;&gt;Node2 -->
<g id="edge26" class="edge">
<title>Node25&#45;&gt;Node2</title>
<path fill="none" stroke="midnightblue" d="M3412.65,-26.96C3403.93,-28.56 3394.71,-30.01 3386,-31 3145.14,-58.49 2368.91,-72.44 2179.78,-75.4"/>
<polygon fill="midnightblue" stroke="midnightblue" points="3413.45,-30.37 3422.6,-25.02 3412.12,-23.49 3413.45,-30.37"/>
</g>
</g>
</svg>
        <g id="navigator" transform="translate(0 0)" fill="#404254">
                <rect fill="#f2f5e9" fill-opacity="0.5" stroke="#606060" stroke-width=".5" x="0" y="0" width="60" height="60"/>
                <use id="zoomplus" xlink:href="#zoomPlus" x="17" y="9" onmousedown="handleZoom(evt,'in')"/>
                <use id="zoomminus" xlink:href="#zoomMin" x="42" y="9" onmousedown="handleZoom(evt,'out')"/>
                <use id="reset" xlink:href="#resetDef" x="30" y="36" onmousedown="handleReset()"/>
                <g id="arrowUp" xlink:href="#dirArrow" transform="translate(30 24)" onmousedown="handlePan(0,-1)">
                  <use xlink:href="#rim" fill="#404040">
                        <set attributeName="fill" to="#808080" begin="arrowUp.mouseover" end="arrowUp.mouseout"/>
                  </use>
                  <path fill="none" stroke="white" stroke-width="1.5" d="M0,-3.0v7 M-2.5,-0.5L0,-3.0L2.5,-0.5"/>
                </g>
                <g id="arrowRight" xlink:href="#dirArrow" transform="rotate(90) translate(36 -43)" onmousedown="handlePan(1,0)">
                  <use xlink:href="#rim" fill="#404040">
                        <set attributeName="fill" to="#808080" begin="arrowRight.mouseover" end="arrowRight.mouseout"/>
                  </use>
                  <path fill="none" stroke="white" stroke-width="1.5" d="M0,-3.0v7 M-2.5,-0.5L0,-3.0L2.5,-0.5"/>
                </g>
                <g id="arrowDown" xlink:href="#dirArrow" transform="rotate(180) translate(-30 -48)" onmousedown="handlePan(0,1)">
                  <use xlink:href="#rim" fill="#404040">
                        <set attributeName="fill" to="#808080" begin="arrowDown.mouseover" end="arrowDown.mouseout"/>
                  </use>
                  <path fill="none" stroke="white" stroke-width="1.5" d="M0,-3.0v7 M-2.5,-0.5L0,-3.0L2.5,-0.5"/>
                </g>
                <g id="arrowLeft" xlink:href="#dirArrow" transform="rotate(270) translate(-36 17)" onmousedown="handlePan(-1,0)">
                  <use xlink:href="#rim" fill="#404040">
                        <set attributeName="fill" to="#808080" begin="arrowLeft.mouseover" end="arrowLeft.mouseout"/>
                  </use>
                  <path fill="none" stroke="white" stroke-width="1.5" d="M0,-3.0v7 M-2.5,-0.5L0,-3.0L2.5,-0.5"/>
                </g>
        </g>
        <svg viewBox="0 0 15 15" width="100%" height="30px" preserveAspectRatio="xMaxYMin meet">
         <g id="arrow_out" transform="scale(0.3 0.3)">
          <a xlink:href="reorder__buffer__line_8hpp__dep__incl_org.svg" target="_base">
           <rect id="button" ry="5" rx="5" y="6" x="6" height="38" width="38"
                fill="#f2f5e9" fill-opacity="0.5" stroke="#606060" stroke-width="1.0"/>
           <path id="arrow"
             d="M 11.500037,31.436501 C 11.940474,20.09759 22.043105,11.32322 32.158766,21.979434 L 37.068811,17.246167 C 37.068811,17.246167 37.088388,32 37.088388,32 L 22.160133,31.978069 C 22.160133,31.978069 26.997745,27.140456 26.997745,27.140456 C 18.528582,18.264221 13.291696,25.230495 11.500037,31.436501 z"
             style="fill:#404040;"/>
          </a>
         </g>
        </svg>
</svg>
