<?xml version="1.0" encoding="UTF-8" standalone="no"?>
<!DOCTYPE svg PUBLIC "-//W3C//DTD SVG 1.1//EN"
 "http://www.w3.org/Graphics/SVG/1.1/DTD/svg11.dtd">
<!-- Generated by graphviz version 2.43.0 (0)
 -->
<!-- Title: get_status_execution Pages: 1 -->
<svg width="285pt" height="127pt"
 viewBox="0.00 0.00 285.00 127.00" xmlns="http://www.w3.org/2000/svg" xmlns:xlink="http://www.w3.org/1999/xlink">
<g id="graph0" class="graph" transform="scale(1 1) rotate(0) translate(4 123)">
<title>get_status_execution</title>
<polygon fill="white" stroke="transparent" points="-4,4 -4,-123 281,-123 281,4 -4,4"/>
<!-- Node1 -->
<g id="node1" class="node">
<title>Node1</title>
<g id="a_node1"><a xlink:title=" ">
<polygon fill="#bfbfbf" stroke="black" points="0,-50 0,-69 120,-69 120,-50 0,-50"/>
<text text-anchor="middle" x="60" y="-57" font-family="Helvetica,sans-Serif" font-size="10.00">get_status_execution</text>
</a>
</g>
</g>
<!-- Node2 -->
<g id="node2" class="node">
<title>Node2</title>
<g id="a_node2"><a xlink:href="classorcs__engine__t.html#a1c033e3455736ba89052a40c69ebe0af" target="_top" xlink:title=" ">
<polygon fill="white" stroke="black" points="163.5,-88.5 163.5,-118.5 269.5,-118.5 269.5,-88.5 163.5,-88.5"/>
<text text-anchor="start" x="171.5" y="-106.5" font-family="Helvetica,sans-Serif" font-size="10.00">orcs_engine_t::get</text>
<text text-anchor="middle" x="216.5" y="-95.5" font-family="Helvetica,sans-Serif" font-size="10.00">_global_cycle</text>
</a>
</g>
</g>
<!-- Node1&#45;&gt;Node2 -->
<g id="edge1" class="edge">
<title>Node1&#45;&gt;Node2</title>
<path fill="none" stroke="midnightblue" d="M94.52,-69.05C111.76,-73.96 133.33,-80.1 153.46,-85.83"/>
<polygon fill="midnightblue" stroke="midnightblue" points="152.63,-89.23 163.2,-88.61 154.54,-82.5 152.63,-89.23"/>
</g>
<!-- Node3 -->
<g id="node3" class="node">
<title>Node3</title>
<g id="a_node3"><a xlink:href="classprocessor__t.html#a30f1e48e34d87b416d06cbd7032a8ee3" target="_top" xlink:title=" ">
<polygon fill="white" stroke="black" points="161,-50 161,-69 272,-69 272,-50 161,-50"/>
<text text-anchor="middle" x="216.5" y="-57" font-family="Helvetica,sans-Serif" font-size="10.00">processor_t::isBusy</text>
</a>
</g>
</g>
<!-- Node1&#45;&gt;Node3 -->
<g id="edge2" class="edge">
<title>Node1&#45;&gt;Node3</title>
<path fill="none" stroke="midnightblue" d="M120.29,-59.5C130.31,-59.5 140.76,-59.5 150.91,-59.5"/>
<polygon fill="midnightblue" stroke="midnightblue" points="150.93,-63 160.93,-59.5 150.93,-56 150.93,-63"/>
</g>
<!-- Node4 -->
<g id="node4" class="node">
<title>Node4</title>
<g id="a_node4"><a xlink:href="classutils__t.html#a78406e6a4a89aa7586c75b46744ae479" target="_top" xlink:title=" ">
<polygon fill="white" stroke="black" points="156,-0.5 156,-30.5 277,-30.5 277,-0.5 156,-0.5"/>
<text text-anchor="start" x="164" y="-18.5" font-family="Helvetica,sans-Serif" font-size="10.00">utils_t::process_mem</text>
<text text-anchor="middle" x="216.5" y="-7.5" font-family="Helvetica,sans-Serif" font-size="10.00">_usage</text>
</a>
</g>
</g>
<!-- Node1&#45;&gt;Node4 -->
<g id="edge3" class="edge">
<title>Node1&#45;&gt;Node4</title>
<path fill="none" stroke="midnightblue" d="M94.52,-49.95C111.61,-45.09 132.95,-39.01 152.93,-33.32"/>
<polygon fill="midnightblue" stroke="midnightblue" points="153.94,-36.67 162.6,-30.57 152.02,-29.94 153.94,-36.67"/>
</g>
</g>
</svg>
