<?xml version="1.0" encoding="UTF-8" standalone="no"?>
<!DOCTYPE svg PUBLIC "-//W3C//DTD SVG 1.1//EN"
 "http://www.w3.org/Graphics/SVG/1.1/DTD/svg11.dtd">
<!-- Generated by graphviz version 2.43.0 (0)
 -->
<!-- Title: branch_predictor/twoBit.cpp Pages: 1 -->
<!--zoomable 162 -->
<svg id="main" version="1.1" xmlns="http://www.w3.org/2000/svg" xmlns:xlink="http://www.w3.org/1999/xlink" xml:space="preserve" onload="init(evt)">
<style type="text/css"><![CDATA[
.edge:hover path { stroke: red; }
.edge:hover polygon { stroke: red; fill: red; }
]]></style>
<script type="text/javascript"><![CDATA[
var edges = document.getElementsByTagName('g');
if (edges && edges.length) {
  for (var i=0;i<edges.length;i++) {
    if (edges[i].id.substr(0,4)=='edge') {
      edges[i].setAttribute('class','edge');
    }
  }
}
]]></script>
        <defs>
                <circle id="rim" cx="0" cy="0" r="7"/>
                <circle id="rim2" cx="0" cy="0" r="3.5"/>
                <g id="zoomPlus">
                        <use xlink:href="#rim" fill="#404040">
                                <set attributeName="fill" to="#808080" begin="zoomplus.mouseover" end="zoomplus.mouseout"/>
                        </use>
                        <path d="M-4,0h8M0,-4v8" fill="none" stroke="white" stroke-width="1.5" pointer-events="none"/>
                </g>
                <g id="zoomMin">
                        <use xlink:href="#rim" fill="#404040">
                                <set attributeName="fill" to="#808080" begin="zoomminus.mouseover" end="zoomminus.mouseout"/>
                        </use>
                        <path d="M-4,0h8" fill="none" stroke="white" stroke-width="1.5" pointer-events="none"/>
                </g>
                <g id="dirArrow">
                        <path fill="none" stroke="white" stroke-width="1.5" d="M0,-3.0v7 M-2.5,-0.5L0,-3.0L2.5,-0.5"/>
                </g>
               <g id="resetDef">
                       <use xlink:href="#rim2" fill="#404040">
                               <set attributeName="fill" to="#808080" begin="reset.mouseover" end="reset.mouseout"/>
                       </use>
               </g>
        </defs>

<script type="text/javascript">
var viewWidth = 5152;
var viewHeight = 162;
var sectionId = 'dynsection-0';
</script>
<script xlink:href="svgpan.js"/>
<svg id="graph" class="graph">
<g id="viewport">
<title>branch_predictor/twoBit.cpp</title>
<polygon fill="white" stroke="transparent" points="-4,4 -4,-158 5147.5,-158 5147.5,4 -4,4"/>
<!-- Node1 -->
<g id="node1" class="node">
<title>Node1</title>
<g id="a_node1"><a xlink:title=" ">
<polygon fill="#bfbfbf" stroke="black" points="1711.5,-134.5 1711.5,-153.5 1864.5,-153.5 1864.5,-134.5 1711.5,-134.5"/>
<text text-anchor="middle" x="1788" y="-141.5" font-family="Helvetica,sans-Serif" font-size="10.00">branch_predictor/twoBit.cpp</text>
</a>
</g>
</g>
<!-- Node2 -->
<g id="node2" class="node">
<title>Node2</title>
<g id="a_node2"><a xlink:href="simulator_8hpp.html" target="_top" xlink:title=" ">
<polygon fill="white" stroke="red" points="1742,-78.5 1742,-97.5 1834,-97.5 1834,-78.5 1742,-78.5"/>
<text text-anchor="middle" x="1788" y="-85.5" font-family="Helvetica,sans-Serif" font-size="10.00">../simulator.hpp</text>
</a>
</g>
</g>
<!-- Node1&#45;&gt;Node2 -->
<g id="edge1" class="edge">
<title>Node1&#45;&gt;Node2</title>
<path fill="none" stroke="midnightblue" d="M1788,-134.08C1788,-127.01 1788,-116.86 1788,-107.99"/>
<polygon fill="midnightblue" stroke="midnightblue" points="1791.5,-107.75 1788,-97.75 1784.5,-107.75 1791.5,-107.75"/>
</g>
<!-- Node2&#45;&gt;Node2 -->
<g id="edge28" class="edge">
<title>Node2&#45;&gt;Node2</title>
<path fill="none" stroke="midnightblue" d="M1815.3,-97.53C1833.84,-100.31 1852,-97.13 1852,-88 1852,-80.58 1840.01,-77.09 1825.57,-77.54"/>
<polygon fill="midnightblue" stroke="midnightblue" points="1824.94,-74.08 1815.3,-78.47 1825.57,-81.05 1824.94,-74.08"/>
</g>
<!-- Node3 -->
<g id="node3" class="node">
<title>Node3</title>
<g id="a_node3"><a xlink:title=" ">
<polygon fill="white" stroke="#bfbfbf" points="0,-11.5 0,-30.5 56,-30.5 56,-11.5 0,-11.5"/>
<text text-anchor="middle" x="28" y="-18.5" font-family="Helvetica,sans-Serif" font-size="10.00">unistd.h</text>
</a>
</g>
</g>
<!-- Node2&#45;&gt;Node3 -->
<g id="edge2" class="edge">
<title>Node2&#45;&gt;Node3</title>
<path fill="none" stroke="midnightblue" d="M1741.77,-87.08C1484.09,-87.33 230.88,-86.27 65,-42 59.67,-40.58 54.26,-38.25 49.29,-35.68"/>
<polygon fill="midnightblue" stroke="midnightblue" points="50.81,-32.52 40.39,-30.61 47.34,-38.6 50.81,-32.52"/>
</g>
<!-- Node4 -->
<g id="node4" class="node">
<title>Node4</title>
<g id="a_node4"><a xlink:title=" ">
<polygon fill="white" stroke="#bfbfbf" points="74.5,-11.5 74.5,-30.5 131.5,-30.5 131.5,-11.5 74.5,-11.5"/>
<text text-anchor="middle" x="103" y="-18.5" font-family="Helvetica,sans-Serif" font-size="10.00">getopt.h</text>
</a>
</g>
</g>
<!-- Node2&#45;&gt;Node4 -->
<g id="edge3" class="edge">
<title>Node2&#45;&gt;Node4</title>
<path fill="none" stroke="midnightblue" d="M1741.74,-87.02C1490.79,-86.94 298.21,-84.33 140,-42 134.67,-40.57 129.26,-38.25 124.29,-35.68"/>
<polygon fill="midnightblue" stroke="midnightblue" points="125.81,-32.52 115.39,-30.6 122.34,-38.6 125.81,-32.52"/>
</g>
<!-- Node5 -->
<g id="node5" class="node">
<title>Node5</title>
<g id="a_node5"><a xlink:title=" ">
<polygon fill="white" stroke="#bfbfbf" points="149.5,-11.5 149.5,-30.5 214.5,-30.5 214.5,-11.5 149.5,-11.5"/>
<text text-anchor="middle" x="182" y="-18.5" font-family="Helvetica,sans-Serif" font-size="10.00">inttypes.h</text>
</a>
</g>
</g>
<!-- Node2&#45;&gt;Node5 -->
<g id="edge4" class="edge">
<title>Node2&#45;&gt;Node5</title>
<path fill="none" stroke="midnightblue" d="M1741.73,-86.83C1498.52,-85.8 373.53,-79.04 223,-42 216.89,-40.5 210.63,-38 204.89,-35.27"/>
<polygon fill="midnightblue" stroke="midnightblue" points="206.34,-32.08 195.85,-30.6 203.13,-38.3 206.34,-32.08"/>
</g>
<!-- Node6 -->
<g id="node6" class="node">
<title>Node6</title>
<g id="a_node6"><a xlink:title=" ">
<polygon fill="white" stroke="#bfbfbf" points="232.5,-11.5 232.5,-30.5 275.5,-30.5 275.5,-11.5 232.5,-11.5"/>
<text text-anchor="middle" x="254" y="-18.5" font-family="Helvetica,sans-Serif" font-size="10.00">zlib.h</text>
</a>
</g>
</g>
<!-- Node2&#45;&gt;Node6 -->
<g id="edge5" class="edge">
<title>Node2&#45;&gt;Node6</title>
<path fill="none" stroke="midnightblue" d="M1741.93,-87.09C1504.73,-87.35 426.86,-86.11 285,-42 280.73,-40.67 276.49,-38.59 272.58,-36.25"/>
<polygon fill="midnightblue" stroke="midnightblue" points="274.43,-33.27 264.18,-30.59 270.51,-39.08 274.43,-33.27"/>
</g>
<!-- Node7 -->
<g id="node7" class="node">
<title>Node7</title>
<g id="a_node7"><a xlink:title=" ">
<polygon fill="white" stroke="#bfbfbf" points="294,-11.5 294,-30.5 350,-30.5 350,-11.5 294,-11.5"/>
<text text-anchor="middle" x="322" y="-18.5" font-family="Helvetica,sans-Serif" font-size="10.00">assert.h</text>
</a>
</g>
</g>
<!-- Node2&#45;&gt;Node7 -->
<g id="edge6" class="edge">
<title>Node2&#45;&gt;Node7</title>
<path fill="none" stroke="midnightblue" d="M1742,-86.81C1512.27,-85.69 494.92,-78.67 359,-42 353.67,-40.56 348.27,-38.23 343.29,-35.66"/>
<polygon fill="midnightblue" stroke="midnightblue" points="344.82,-32.5 334.39,-30.59 341.35,-38.58 344.82,-32.5"/>
</g>
<!-- Node8 -->
<g id="node8" class="node">
<title>Node8</title>
<g id="a_node8"><a xlink:title=" ">
<polygon fill="white" stroke="#bfbfbf" points="368,-11.5 368,-30.5 436,-30.5 436,-11.5 368,-11.5"/>
<text text-anchor="middle" x="402" y="-18.5" font-family="Helvetica,sans-Serif" font-size="10.00">sys/time.h</text>
</a>
</g>
</g>
<!-- Node2&#45;&gt;Node8 -->
<g id="edge7" class="edge">
<title>Node2&#45;&gt;Node8</title>
<path fill="none" stroke="midnightblue" d="M1741.91,-86.55C1520.68,-84.23 573.13,-72.6 445,-42 438.48,-40.44 431.76,-37.86 425.63,-35.05"/>
<polygon fill="midnightblue" stroke="midnightblue" points="427.1,-31.87 416.59,-30.58 424,-38.15 427.1,-31.87"/>
</g>
<!-- Node9 -->
<g id="node9" class="node">
<title>Node9</title>
<g id="a_node9"><a xlink:title=" ">
<polygon fill="white" stroke="#bfbfbf" points="454,-11.5 454,-30.5 514,-30.5 514,-11.5 454,-11.5"/>
<text text-anchor="middle" x="484" y="-18.5" font-family="Helvetica,sans-Serif" font-size="10.00">iostream</text>
</a>
</g>
</g>
<!-- Node2&#45;&gt;Node9 -->
<g id="edge8" class="edge">
<title>Node2&#45;&gt;Node9</title>
<path fill="none" stroke="midnightblue" d="M1741.75,-86.55C1528.17,-84.29 642.56,-73.13 523,-42 517.29,-40.51 511.47,-38.09 506.12,-35.44"/>
<polygon fill="midnightblue" stroke="midnightblue" points="507.59,-32.26 497.13,-30.57 504.25,-38.41 507.59,-32.26"/>
</g>
<!-- Node10 -->
<g id="node10" class="node">
<title>Node10</title>
<g id="a_node10"><a xlink:title=" ">
<polygon fill="white" stroke="#bfbfbf" points="532,-11.5 532,-30.5 588,-30.5 588,-11.5 532,-11.5"/>
<text text-anchor="middle" x="560" y="-18.5" font-family="Helvetica,sans-Serif" font-size="10.00">iomanip</text>
</a>
</g>
</g>
<!-- Node2&#45;&gt;Node10 -->
<g id="edge9" class="edge">
<title>Node2&#45;&gt;Node10</title>
<path fill="none" stroke="midnightblue" d="M1741.72,-86.49C1535.88,-84.07 708.72,-72.52 597,-42 591.68,-40.55 586.27,-38.21 581.3,-35.63"/>
<polygon fill="midnightblue" stroke="midnightblue" points="582.82,-32.47 572.4,-30.57 579.36,-38.56 582.82,-32.47"/>
</g>
<!-- Node11 -->
<g id="node11" class="node">
<title>Node11</title>
<g id="a_node11"><a xlink:title=" ">
<polygon fill="white" stroke="#bfbfbf" points="606.5,-11.5 606.5,-30.5 653.5,-30.5 653.5,-11.5 606.5,-11.5"/>
<text text-anchor="middle" x="630" y="-18.5" font-family="Helvetica,sans-Serif" font-size="10.00">cmath</text>
</a>
</g>
</g>
<!-- Node2&#45;&gt;Node11 -->
<g id="edge10" class="edge">
<title>Node2&#45;&gt;Node11</title>
<path fill="none" stroke="midnightblue" d="M1741.94,-86.52C1543.56,-84.25 767.35,-73.41 663,-42 658.4,-40.62 653.79,-38.44 649.53,-36.02"/>
<polygon fill="midnightblue" stroke="midnightblue" points="651.25,-32.96 640.93,-30.56 647.5,-38.87 651.25,-32.96"/>
</g>
<!-- Node12 -->
<g id="node12" class="node">
<title>Node12</title>
<g id="a_node12"><a xlink:title=" ">
<polygon fill="white" stroke="#bfbfbf" points="672,-11.5 672,-30.5 722,-30.5 722,-11.5 672,-11.5"/>
<text text-anchor="middle" x="697" y="-18.5" font-family="Helvetica,sans-Serif" font-size="10.00">chrono</text>
</a>
</g>
</g>
<!-- Node2&#45;&gt;Node12 -->
<g id="edge11" class="edge">
<title>Node2&#45;&gt;Node12</title>
<path fill="none" stroke="midnightblue" d="M1741.87,-86.35C1551.03,-83.49 828.71,-70.85 731,-42 726.16,-40.57 721.3,-38.31 716.82,-35.81"/>
<polygon fill="midnightblue" stroke="midnightblue" points="718.65,-32.83 708.3,-30.55 714.97,-38.79 718.65,-32.83"/>
</g>
<!-- Node13 -->
<g id="node13" class="node">
<title>Node13</title>
<g id="a_node13"><a xlink:title=" ">
<polygon fill="white" stroke="#bfbfbf" points="740,-11.5 740,-30.5 788,-30.5 788,-11.5 740,-11.5"/>
<text text-anchor="middle" x="764" y="-18.5" font-family="Helvetica,sans-Serif" font-size="10.00">thread</text>
</a>
</g>
</g>
<!-- Node2&#45;&gt;Node13 -->
<g id="edge12" class="edge">
<title>Node2&#45;&gt;Node13</title>
<path fill="none" stroke="midnightblue" d="M1741.98,-86.25C1558.92,-83.07 887.94,-69.64 797,-42 792.41,-40.6 787.8,-38.42 783.54,-36"/>
<polygon fill="midnightblue" stroke="midnightblue" points="785.25,-32.94 774.93,-30.54 781.5,-38.85 785.25,-32.94"/>
</g>
<!-- Node14 -->
<g id="node14" class="node">
<title>Node14</title>
<g id="a_node14"><a xlink:title=" ">
<polygon fill="white" stroke="#bfbfbf" points="806,-11.5 806,-30.5 852,-30.5 852,-11.5 806,-11.5"/>
<text text-anchor="middle" x="829" y="-18.5" font-family="Helvetica,sans-Serif" font-size="10.00">cstdio</text>
</a>
</g>
</g>
<!-- Node2&#45;&gt;Node14 -->
<g id="edge13" class="edge">
<title>Node2&#45;&gt;Node14</title>
<path fill="none" stroke="midnightblue" d="M1741.99,-86.13C1566.57,-82.62 945.38,-68.43 861,-42 856.64,-40.63 852.28,-38.53 848.24,-36.19"/>
<polygon fill="midnightblue" stroke="midnightblue" points="849.86,-33.06 839.57,-30.53 846.03,-38.92 849.86,-33.06"/>
</g>
<!-- Node15 -->
<g id="node15" class="node">
<title>Node15</title>
<g id="a_node15"><a xlink:title=" ">
<polygon fill="white" stroke="#bfbfbf" points="870.5,-11.5 870.5,-30.5 919.5,-30.5 919.5,-11.5 870.5,-11.5"/>
<text text-anchor="middle" x="895" y="-18.5" font-family="Helvetica,sans-Serif" font-size="10.00">cstdlib</text>
</a>
</g>
</g>
<!-- Node2&#45;&gt;Node15 -->
<g id="edge14" class="edge">
<title>Node2&#45;&gt;Node15</title>
<path fill="none" stroke="midnightblue" d="M1741.88,-87.46C1586.46,-88.55 1083.1,-88.33 929,-42 924.17,-40.55 919.31,-38.28 914.83,-35.78"/>
<polygon fill="midnightblue" stroke="midnightblue" points="916.66,-32.79 906.31,-30.52 912.98,-38.75 916.66,-32.79"/>
</g>
<!-- Node16 -->
<g id="node16" class="node">
<title>Node16</title>
<g id="a_node16"><a xlink:title=" ">
<polygon fill="white" stroke="#bfbfbf" points="938,-11.5 938,-30.5 982,-30.5 982,-11.5 938,-11.5"/>
<text text-anchor="middle" x="960" y="-18.5" font-family="Helvetica,sans-Serif" font-size="10.00">string</text>
</a>
</g>
</g>
<!-- Node2&#45;&gt;Node16 -->
<g id="edge15" class="edge">
<title>Node2&#45;&gt;Node16</title>
<path fill="none" stroke="midnightblue" d="M1741.81,-87.47C1593.67,-88.51 1131.93,-87.87 991,-42 986.75,-40.62 982.52,-38.5 978.6,-36.16"/>
<polygon fill="midnightblue" stroke="midnightblue" points="980.45,-33.19 970.2,-30.51 976.55,-38.99 980.45,-33.19"/>
</g>
<!-- Node17 -->
<g id="node17" class="node">
<title>Node17</title>
<g id="a_node17"><a xlink:title=" ">
<polygon fill="white" stroke="#bfbfbf" points="1000,-11.5 1000,-30.5 1050,-30.5 1050,-11.5 1000,-11.5"/>
<text text-anchor="middle" x="1025" y="-18.5" font-family="Helvetica,sans-Serif" font-size="10.00">cstring</text>
</a>
</g>
</g>
<!-- Node2&#45;&gt;Node17 -->
<g id="edge16" class="edge">
<title>Node2&#45;&gt;Node17</title>
<path fill="none" stroke="midnightblue" d="M1741.7,-86.95C1602.15,-86.36 1187.39,-81.25 1059,-42 1054.38,-40.59 1049.73,-38.44 1045.41,-36.06"/>
<polygon fill="midnightblue" stroke="midnightblue" points="1046.99,-32.92 1036.63,-30.69 1043.34,-38.9 1046.99,-32.92"/>
</g>
<!-- Node18 -->
<g id="node18" class="node">
<title>Node18</title>
<g id="a_node18"><a xlink:title=" ">
<polygon fill="white" stroke="#bfbfbf" points="1068.5,-11.5 1068.5,-30.5 1123.5,-30.5 1123.5,-11.5 1068.5,-11.5"/>
<text text-anchor="middle" x="1096" y="-18.5" font-family="Helvetica,sans-Serif" font-size="10.00">fstream</text>
</a>
</g>
</g>
<!-- Node2&#45;&gt;Node18 -->
<g id="edge17" class="edge">
<title>Node2&#45;&gt;Node18</title>
<path fill="none" stroke="midnightblue" d="M1741.82,-86.44C1612.11,-84.45 1246.52,-75.9 1132,-42 1127.03,-40.53 1122,-38.29 1117.32,-35.83"/>
<polygon fill="midnightblue" stroke="midnightblue" points="1118.8,-32.64 1108.39,-30.67 1115.29,-38.7 1118.8,-32.64"/>
</g>
<!-- Node19 -->
<g id="node19" class="node">
<title>Node19</title>
<g id="a_node19"><a xlink:title=" ">
<polygon fill="white" stroke="#bfbfbf" points="1141.5,-11.5 1141.5,-30.5 1188.5,-30.5 1188.5,-11.5 1141.5,-11.5"/>
<text text-anchor="middle" x="1165" y="-18.5" font-family="Helvetica,sans-Serif" font-size="10.00">vector</text>
</a>
</g>
</g>
<!-- Node2&#45;&gt;Node19 -->
<g id="edge18" class="edge">
<title>Node2&#45;&gt;Node19</title>
<path fill="none" stroke="midnightblue" d="M1741.68,-86.24C1620.95,-83.81 1298.99,-74.41 1198,-42 1193.5,-40.56 1188.98,-38.39 1184.78,-36.01"/>
<polygon fill="midnightblue" stroke="midnightblue" points="1186.59,-33.01 1176.26,-30.65 1182.86,-38.94 1186.59,-33.01"/>
</g>
<!-- Node20 -->
<g id="node20" class="node">
<title>Node20</title>
<g id="a_node20"><a xlink:title=" ">
<polygon fill="white" stroke="#bfbfbf" points="1207,-11.5 1207,-30.5 1239,-30.5 1239,-11.5 1207,-11.5"/>
<text text-anchor="middle" x="1223" y="-18.5" font-family="Helvetica,sans-Serif" font-size="10.00">list</text>
</a>
</g>
</g>
<!-- Node2&#45;&gt;Node20 -->
<g id="edge19" class="edge">
<title>Node2&#45;&gt;Node20</title>
<path fill="none" stroke="midnightblue" d="M1741.66,-86.58C1627.83,-85.01 1337.26,-77.54 1248,-42 1245,-40.8 1242.07,-39.12 1239.34,-37.23"/>
<polygon fill="midnightblue" stroke="midnightblue" points="1241.4,-34.4 1231.42,-30.85 1237.01,-39.85 1241.4,-34.4"/>
</g>
<!-- Node21 -->
<g id="node21" class="node">
<title>Node21</title>
<g id="a_node21"><a xlink:title=" ">
<polygon fill="white" stroke="#bfbfbf" points="1257.5,-11.5 1257.5,-30.5 1304.5,-30.5 1304.5,-11.5 1257.5,-11.5"/>
<text text-anchor="middle" x="1281" y="-18.5" font-family="Helvetica,sans-Serif" font-size="10.00">queue</text>
</a>
</g>
</g>
<!-- Node2&#45;&gt;Node21 -->
<g id="edge20" class="edge">
<title>Node2&#45;&gt;Node21</title>
<path fill="none" stroke="midnightblue" d="M1741.92,-85.24C1638.86,-80.9 1392.67,-68.05 1314,-42 1309.51,-40.51 1305,-38.33 1300.8,-35.94"/>
<polygon fill="midnightblue" stroke="midnightblue" points="1302.61,-32.95 1292.28,-30.59 1298.89,-38.87 1302.61,-32.95"/>
</g>
<!-- Node22 -->
<g id="node22" class="node">
<title>Node22</title>
<g id="a_node22"><a xlink:title=" ">
<polygon fill="white" stroke="#bfbfbf" points="1323,-11.5 1323,-30.5 1387,-30.5 1387,-11.5 1323,-11.5"/>
<text text-anchor="middle" x="1355" y="-18.5" font-family="Helvetica,sans-Serif" font-size="10.00">algorithm</text>
</a>
</g>
</g>
<!-- Node2&#45;&gt;Node22 -->
<g id="edge21" class="edge">
<title>Node2&#45;&gt;Node22</title>
<path fill="none" stroke="midnightblue" d="M1741.74,-86.72C1667.38,-85.16 1517.32,-77.42 1396,-42 1390.3,-40.34 1384.42,-37.93 1378.95,-35.36"/>
<polygon fill="midnightblue" stroke="midnightblue" points="1380.2,-32.07 1369.7,-30.68 1377.04,-38.31 1380.2,-32.07"/>
</g>
<!-- Node23 -->
<g id="node23" class="node">
<title>Node23</title>
<g id="a_node23"><a xlink:title=" ">
<polygon fill="white" stroke="#bfbfbf" points="1405,-11.5 1405,-30.5 1443,-30.5 1443,-11.5 1405,-11.5"/>
<text text-anchor="middle" x="1424" y="-18.5" font-family="Helvetica,sans-Serif" font-size="10.00">map</text>
</a>
</g>
</g>
<!-- Node2&#45;&gt;Node23 -->
<g id="edge22" class="edge">
<title>Node2&#45;&gt;Node23</title>
<path fill="none" stroke="midnightblue" d="M1741.96,-87.76C1675.55,-87.33 1550.1,-80.81 1452,-42 1448.56,-40.64 1445.15,-38.77 1441.95,-36.71"/>
<polygon fill="midnightblue" stroke="midnightblue" points="1443.82,-33.74 1433.67,-30.7 1439.71,-39.41 1443.82,-33.74"/>
</g>
<!-- Node24 -->
<g id="node24" class="node">
<title>Node24</title>
<g id="a_node24"><a xlink:title=" ">
<polygon fill="white" stroke="#bfbfbf" points="1461,-11.5 1461,-30.5 1513,-30.5 1513,-11.5 1461,-11.5"/>
<text text-anchor="middle" x="1487" y="-18.5" font-family="Helvetica,sans-Serif" font-size="10.00">cassert</text>
</a>
</g>
</g>
<!-- Node2&#45;&gt;Node24 -->
<g id="edge23" class="edge">
<title>Node2&#45;&gt;Node24</title>
<path fill="none" stroke="midnightblue" d="M1741.58,-84.09C1687.5,-79.59 1596.09,-68.49 1522,-42 1517.43,-40.37 1512.76,-38.15 1508.39,-35.78"/>
<polygon fill="midnightblue" stroke="midnightblue" points="1509.84,-32.58 1499.44,-30.54 1506.3,-38.62 1509.84,-32.58"/>
</g>
<!-- Node25 -->
<g id="node25" class="node">
<title>Node25</title>
<g id="a_node25"><a xlink:title=" ">
<polygon fill="white" stroke="#bfbfbf" points="1531.5,-11.5 1531.5,-30.5 1614.5,-30.5 1614.5,-11.5 1531.5,-11.5"/>
<text text-anchor="middle" x="1573" y="-18.5" font-family="Helvetica,sans-Serif" font-size="10.00">libconfig.h++</text>
</a>
</g>
</g>
<!-- Node2&#45;&gt;Node25 -->
<g id="edge24" class="edge">
<title>Node2&#45;&gt;Node25</title>
<path fill="none" stroke="midnightblue" d="M1751.92,-78.42C1718.25,-70.12 1666.78,-56.67 1623,-42 1616.21,-39.72 1609.01,-37.02 1602.25,-34.35"/>
<polygon fill="midnightblue" stroke="midnightblue" points="1603.34,-31.01 1592.76,-30.51 1600.71,-37.5 1603.34,-31.01"/>
</g>
<!-- Node26 -->
<g id="node26" class="node">
<title>Node26</title>
<g id="a_node26"><a xlink:href="defines_8hpp.html" target="_top" xlink:title=" ">
<polygon fill="white" stroke="black" points="1632.5,-11.5 1632.5,-30.5 1705.5,-30.5 1705.5,-11.5 1632.5,-11.5"/>
<text text-anchor="middle" x="1669" y="-18.5" font-family="Helvetica,sans-Serif" font-size="10.00">defines.hpp</text>
</a>
</g>
</g>
<!-- Node2&#45;&gt;Node26 -->
<g id="edge25" class="edge">
<title>Node2&#45;&gt;Node26</title>
<path fill="none" stroke="midnightblue" d="M1771.95,-78.23C1751.88,-67.27 1717.3,-48.38 1693.81,-35.55"/>
<polygon fill="midnightblue" stroke="midnightblue" points="1695.25,-32.35 1684.79,-30.63 1691.89,-38.49 1695.25,-32.35"/>
</g>
<!-- Node27 -->
<g id="node27" class="node">
<title>Node27</title>
<g id="a_node27"><a xlink:href="enumerations_8hpp.html" target="_top" xlink:title=" ">
<polygon fill="white" stroke="black" points="1723.5,-11.5 1723.5,-30.5 1852.5,-30.5 1852.5,-11.5 1723.5,-11.5"/>
<text text-anchor="middle" x="1788" y="-18.5" font-family="Helvetica,sans-Serif" font-size="10.00">utils/enumerations.hpp</text>
</a>
</g>
</g>
<!-- Node2&#45;&gt;Node27 -->
<g id="edge26" class="edge">
<title>Node2&#45;&gt;Node27</title>
<path fill="none" stroke="midnightblue" d="M1788,-78.23C1788,-68.68 1788,-53.12 1788,-40.78"/>
<polygon fill="midnightblue" stroke="midnightblue" points="1791.5,-40.63 1788,-30.63 1784.5,-40.63 1791.5,-40.63"/>
</g>
<!-- Node28 -->
<g id="node28" class="node">
<title>Node28</title>
<g id="a_node28"><a xlink:href="macros_8hpp.html" target="_top" xlink:title=" ">
<polygon fill="white" stroke="black" points="1871,-11.5 1871,-30.5 1969,-30.5 1969,-11.5 1871,-11.5"/>
<text text-anchor="middle" x="1920" y="-18.5" font-family="Helvetica,sans-Serif" font-size="10.00">utils/macros.hpp</text>
</a>
</g>
</g>
<!-- Node2&#45;&gt;Node28 -->
<g id="edge27" class="edge">
<title>Node2&#45;&gt;Node28</title>
<path fill="none" stroke="midnightblue" d="M1805.53,-78.37C1828.01,-67.3 1867.23,-47.99 1893.4,-35.1"/>
<polygon fill="midnightblue" stroke="midnightblue" points="1894.97,-38.22 1902.4,-30.67 1891.88,-31.94 1894.97,-38.22"/>
</g>
<!-- Node29 -->
<g id="node29" class="node">
<title>Node29</title>
<g id="a_node29"><a xlink:href="orcs__engine_8hpp.html" target="_top" xlink:title=" ">
<polygon fill="white" stroke="black" points="1987,-11.5 1987,-30.5 2089,-30.5 2089,-11.5 1987,-11.5"/>
<text text-anchor="middle" x="2038" y="-18.5" font-family="Helvetica,sans-Serif" font-size="10.00">./orcs_engine.hpp</text>
</a>
</g>
</g>
<!-- Node2&#45;&gt;Node29 -->
<g id="edge29" class="edge">
<title>Node2&#45;&gt;Node29</title>
<path fill="none" stroke="midnightblue" d="M1828.67,-78.47C1867.33,-70.1 1926.97,-56.52 1978,-42 1986.58,-39.56 1995.75,-36.65 2004.28,-33.83"/>
<polygon fill="midnightblue" stroke="midnightblue" points="2005.57,-37.09 2013.92,-30.57 2003.33,-30.45 2005.57,-37.09"/>
</g>
<!-- Node30 -->
<g id="node30" class="node">
<title>Node30</title>
<g id="a_node30"><a xlink:href="config_8hpp.html" target="_top" xlink:title=" ">
<polygon fill="white" stroke="black" points="2107.5,-11.5 2107.5,-30.5 2212.5,-30.5 2212.5,-11.5 2107.5,-11.5"/>
<text text-anchor="middle" x="2160" y="-18.5" font-family="Helvetica,sans-Serif" font-size="10.00">./config/config.hpp</text>
</a>
</g>
</g>
<!-- Node2&#45;&gt;Node30 -->
<g id="edge30" class="edge">
<title>Node2&#45;&gt;Node30</title>
<path fill="none" stroke="midnightblue" d="M1834.15,-82.75C1895.1,-76.57 2005.56,-63.46 2098,-42 2107.55,-39.78 2117.73,-36.78 2127.04,-33.77"/>
<polygon fill="midnightblue" stroke="midnightblue" points="2128.33,-37.02 2136.71,-30.54 2126.11,-30.39 2128.33,-37.02"/>
</g>
<!-- Node31 -->
<g id="node31" class="node">
<title>Node31</title>
<g id="a_node31"><a xlink:href="trace__reader_8hpp.html" target="_top" xlink:title=" ">
<polygon fill="white" stroke="black" points="2231,-11.5 2231,-30.5 2335,-30.5 2335,-11.5 2231,-11.5"/>
<text text-anchor="middle" x="2283" y="-18.5" font-family="Helvetica,sans-Serif" font-size="10.00">./trace_reader.hpp</text>
</a>
</g>
</g>
<!-- Node2&#45;&gt;Node31 -->
<g id="edge31" class="edge">
<title>Node2&#45;&gt;Node31</title>
<path fill="none" stroke="midnightblue" d="M1834.12,-85.45C1913.95,-82.05 2082.72,-71.7 2222,-42 2231.61,-39.95 2241.83,-36.94 2251.1,-33.88"/>
<polygon fill="midnightblue" stroke="midnightblue" points="2252.4,-37.13 2260.72,-30.58 2250.12,-30.51 2252.4,-37.13"/>
</g>
<!-- Node32 -->
<g id="node32" class="node">
<title>Node32</title>
<g id="a_node32"><a xlink:href="memory__request__client_8hpp.html" target="_top" xlink:title=" ">
<polygon fill="white" stroke="black" points="2353,-6 2353,-36 2491,-36 2491,-6 2353,-6"/>
<text text-anchor="start" x="2361" y="-24" font-family="Helvetica,sans-Serif" font-size="10.00">./main_memory/memory</text>
<text text-anchor="middle" x="2422" y="-13" font-family="Helvetica,sans-Serif" font-size="10.00">_request_client.hpp</text>
</a>
</g>
</g>
<!-- Node2&#45;&gt;Node32 -->
<g id="edge32" class="edge">
<title>Node2&#45;&gt;Node32</title>
<path fill="none" stroke="midnightblue" d="M1834.09,-85.92C1929.75,-83.09 2156.55,-73.38 2344,-42 2350.06,-40.99 2356.34,-39.73 2362.59,-38.34"/>
<polygon fill="midnightblue" stroke="midnightblue" points="2363.39,-41.75 2372.34,-36.08 2361.8,-34.93 2363.39,-41.75"/>
</g>
<!-- Node33 -->
<g id="node33" class="node">
<title>Node33</title>
<g id="a_node33"><a xlink:href="opcode__package_8hpp.html" target="_top" xlink:title=" ">
<polygon fill="white" stroke="black" points="2509,-11.5 2509,-30.5 2677,-30.5 2677,-11.5 2509,-11.5"/>
<text text-anchor="middle" x="2593" y="-18.5" font-family="Helvetica,sans-Serif" font-size="10.00">./package/opcode_package.hpp</text>
</a>
</g>
</g>
<!-- Node2&#45;&gt;Node33 -->
<g id="edge33" class="edge">
<title>Node2&#45;&gt;Node33</title>
<path fill="none" stroke="midnightblue" d="M1834.05,-86.46C1947.68,-84.6 2250.33,-76.54 2500,-42 2516.24,-39.75 2533.86,-36.24 2549.36,-32.79"/>
<polygon fill="midnightblue" stroke="midnightblue" points="2550.24,-36.18 2559.2,-30.53 2548.67,-29.35 2550.24,-36.18"/>
</g>
<!-- Node34 -->
<g id="node34" class="node">
<title>Node34</title>
<g id="a_node34"><a xlink:href="circular__buffer_8hpp.html" target="_top" xlink:title=" ">
<polygon fill="white" stroke="black" points="2695.5,-11.5 2695.5,-30.5 2832.5,-30.5 2832.5,-11.5 2695.5,-11.5"/>
<text text-anchor="middle" x="2764" y="-18.5" font-family="Helvetica,sans-Serif" font-size="10.00">./utils/circular_buffer.hpp</text>
</a>
</g>
</g>
<!-- Node2&#45;&gt;Node34 -->
<g id="edge34" class="edge">
<title>Node2&#45;&gt;Node34</title>
<path fill="none" stroke="midnightblue" d="M1834.11,-85.82C1992.28,-81.75 2511.38,-67.12 2677,-42 2690.44,-39.96 2704.92,-36.59 2718.2,-33.19"/>
<polygon fill="midnightblue" stroke="midnightblue" points="2719.3,-36.52 2728.09,-30.6 2717.53,-29.74 2719.3,-36.52"/>
</g>
<!-- Node35 -->
<g id="node35" class="node">
<title>Node35</title>
<g id="a_node35"><a xlink:href="utils_8hpp.html" target="_top" xlink:title=" ">
<polygon fill="white" stroke="black" points="2850.5,-11.5 2850.5,-30.5 2939.5,-30.5 2939.5,-11.5 2850.5,-11.5"/>
<text text-anchor="middle" x="2895" y="-18.5" font-family="Helvetica,sans-Serif" font-size="10.00">./utils/utils.hpp</text>
</a>
</g>
</g>
<!-- Node2&#45;&gt;Node35 -->
<g id="edge36" class="edge">
<title>Node2&#45;&gt;Node35</title>
<path fill="none" stroke="midnightblue" d="M1834.16,-86.97C2010.97,-86.57 2645.07,-82.28 2842,-42 2850.49,-40.26 2859.42,-37.35 2867.48,-34.28"/>
<polygon fill="midnightblue" stroke="midnightblue" points="2868.83,-37.51 2876.79,-30.52 2866.2,-31.02 2868.83,-37.51"/>
</g>
<!-- Node36 -->
<g id="node36" class="node">
<title>Node36</title>
<g id="a_node36"><a xlink:href="disambiguation_8hpp.html" target="_top" xlink:title=" ">
<polygon fill="white" stroke="black" points="2957.5,-6 2957.5,-36 3154.5,-36 3154.5,-6 2957.5,-6"/>
<text text-anchor="start" x="2965.5" y="-24" font-family="Helvetica,sans-Serif" font-size="10.00">./processor/memory</text>
<text text-anchor="middle" x="3056" y="-13" font-family="Helvetica,sans-Serif" font-size="10.00">_disambiguation/disambiguation.hpp</text>
</a>
</g>
</g>
<!-- Node2&#45;&gt;Node36 -->
<g id="edge37" class="edge">
<title>Node2&#45;&gt;Node36</title>
<path fill="none" stroke="midnightblue" d="M1834.11,-86.11C2021.6,-82.37 2727.25,-66.89 2949,-42 2958.79,-40.9 2969.03,-39.42 2979.13,-37.76"/>
<polygon fill="midnightblue" stroke="midnightblue" points="2979.89,-41.18 2989.16,-36.05 2978.71,-34.28 2979.89,-41.18"/>
</g>
<!-- Node37 -->
<g id="node37" class="node">
<title>Node37</title>
<g id="a_node37"><a xlink:href="disambiguation__hashed_8hpp.html" target="_top" xlink:title=" ">
<polygon fill="white" stroke="black" points="3173,-0.5 3173,-41.5 3349,-41.5 3349,-0.5 3173,-0.5"/>
<text text-anchor="start" x="3181" y="-29.5" font-family="Helvetica,sans-Serif" font-size="10.00">./processor/memory</text>
<text text-anchor="start" x="3181" y="-18.5" font-family="Helvetica,sans-Serif" font-size="10.00">_disambiguation/disambiguation</text>
<text text-anchor="middle" x="3261" y="-7.5" font-family="Helvetica,sans-Serif" font-size="10.00">_hashed.hpp</text>
</a>
</g>
</g>
<!-- Node2&#45;&gt;Node37 -->
<g id="edge38" class="edge">
<title>Node2&#45;&gt;Node37</title>
<path fill="none" stroke="midnightblue" d="M1834.31,-86.55C2040.54,-84.37 2877.24,-73.8 3162.5,-42.03"/>
<polygon fill="midnightblue" stroke="midnightblue" points="3163.28,-45.47 3172.82,-40.85 3162.48,-38.51 3163.28,-45.47"/>
</g>
<!-- Node38 -->
<g id="node38" class="node">
<title>Node38</title>
<g id="a_node38"><a xlink:href="uop__package_8hpp.html" target="_top" xlink:title=" ">
<polygon fill="white" stroke="black" points="3367.5,-11.5 3367.5,-30.5 3518.5,-30.5 3518.5,-11.5 3367.5,-11.5"/>
<text text-anchor="middle" x="3443" y="-18.5" font-family="Helvetica,sans-Serif" font-size="10.00">./package/uop_package.hpp</text>
</a>
</g>
</g>
<!-- Node2&#45;&gt;Node38 -->
<g id="edge39" class="edge">
<title>Node2&#45;&gt;Node38</title>
<path fill="none" stroke="midnightblue" d="M1834.29,-86.94C2060.61,-86.43 3052.13,-81.95 3358,-42 3373,-40.04 3389.22,-36.57 3403.43,-33.06"/>
<polygon fill="midnightblue" stroke="midnightblue" points="3404.55,-36.39 3413.38,-30.53 3402.82,-29.61 3404.55,-36.39"/>
</g>
<!-- Node39 -->
<g id="node39" class="node">
<title>Node39</title>
<g id="a_node39"><a xlink:href="memory__package_8hpp.html" target="_top" xlink:title=" ">
<polygon fill="white" stroke="black" points="3537,-11.5 3537,-30.5 3711,-30.5 3711,-11.5 3537,-11.5"/>
<text text-anchor="middle" x="3624" y="-18.5" font-family="Helvetica,sans-Serif" font-size="10.00">./package/memory_package.hpp</text>
</a>
</g>
</g>
<!-- Node2&#45;&gt;Node39 -->
<g id="edge40" class="edge">
<title>Node2&#45;&gt;Node39</title>
<path fill="none" stroke="midnightblue" d="M1834.01,-86.93C2074.18,-86.38 3186,-81.72 3528,-42 3545.37,-39.98 3564.25,-36.37 3580.63,-32.76"/>
<polygon fill="midnightblue" stroke="midnightblue" points="3581.5,-36.15 3590.48,-30.53 3579.95,-29.32 3581.5,-36.15"/>
</g>
<!-- Node40 -->
<g id="node40" class="node">
<title>Node40</title>
<g id="a_node40"><a xlink:href="reorder__buffer__line_8hpp.html" target="_top" xlink:title=" ">
<polygon fill="white" stroke="black" points="3729,-6 3729,-36 3837,-36 3837,-6 3729,-6"/>
<text text-anchor="start" x="3737" y="-24" font-family="Helvetica,sans-Serif" font-size="10.00">./processor/reorder</text>
<text text-anchor="middle" x="3783" y="-13" font-family="Helvetica,sans-Serif" font-size="10.00">_buffer_line.hpp</text>
</a>
</g>
</g>
<!-- Node2&#45;&gt;Node40 -->
<g id="edge41" class="edge">
<title>Node2&#45;&gt;Node40</title>
<path fill="none" stroke="midnightblue" d="M1834.21,-86.71C2109.59,-84.87 3528.89,-73.89 3720,-42 3724.97,-41.17 3730.08,-40.04 3735.15,-38.73"/>
<polygon fill="midnightblue" stroke="midnightblue" points="3736.09,-42.1 3744.78,-36.04 3734.2,-35.36 3736.09,-42.1"/>
</g>
<!-- Node41 -->
<g id="node41" class="node">
<title>Node41</title>
<g id="a_node41"><a xlink:href="memory__order__buffer__line_8hpp.html" target="_top" xlink:title=" ">
<polygon fill="white" stroke="black" points="3855.5,-6 3855.5,-36 3980.5,-36 3980.5,-6 3855.5,-6"/>
<text text-anchor="start" x="3863.5" y="-24" font-family="Helvetica,sans-Serif" font-size="10.00">./processor/memory</text>
<text text-anchor="middle" x="3918" y="-13" font-family="Helvetica,sans-Serif" font-size="10.00">_order_buffer_line.hpp</text>
</a>
</g>
</g>
<!-- Node2&#45;&gt;Node41 -->
<g id="edge42" class="edge">
<title>Node2&#45;&gt;Node41</title>
<path fill="none" stroke="midnightblue" d="M1834.39,-86.68C2120.62,-84.6 3641.16,-72.21 3846,-42 3851.92,-41.13 3858.04,-39.92 3864.11,-38.53"/>
<polygon fill="midnightblue" stroke="midnightblue" points="3865.33,-41.83 3874.2,-36.03 3863.66,-35.03 3865.33,-41.83"/>
</g>
<!-- Node42 -->
<g id="node42" class="node">
<title>Node42</title>
<g id="a_node42"><a xlink:href="processor_8hpp.html" target="_top" xlink:title=" ">
<polygon fill="white" stroke="black" points="3999,-11.5 3999,-30.5 4139,-30.5 4139,-11.5 3999,-11.5"/>
<text text-anchor="middle" x="4069" y="-18.5" font-family="Helvetica,sans-Serif" font-size="10.00">./processor/processor.hpp</text>
</a>
</g>
</g>
<!-- Node2&#45;&gt;Node42 -->
<g id="edge43" class="edge">
<title>Node2&#45;&gt;Node42</title>
<path fill="none" stroke="midnightblue" d="M1834.21,-86.69C2131.52,-84.59 3769.63,-71.75 3990,-42 4003.72,-40.15 4018.49,-36.79 4031.51,-33.35"/>
<polygon fill="midnightblue" stroke="midnightblue" points="4032.8,-36.62 4041.52,-30.6 4030.95,-29.87 4032.8,-36.62"/>
</g>
<!-- Node43 -->
<g id="node43" class="node">
<title>Node43</title>
<g id="a_node43"><a xlink:href="btb__line_8hpp.html" target="_top" xlink:title=" ">
<polygon fill="white" stroke="black" points="4157,-6 4157,-36 4261,-36 4261,-6 4157,-6"/>
<text text-anchor="start" x="4165" y="-24" font-family="Helvetica,sans-Serif" font-size="10.00">./branch_predictor</text>
<text text-anchor="middle" x="4209" y="-13" font-family="Helvetica,sans-Serif" font-size="10.00">/btb_line.hpp</text>
</a>
</g>
</g>
<!-- Node2&#45;&gt;Node43 -->
<g id="edge44" class="edge">
<title>Node2&#45;&gt;Node43</title>
<path fill="none" stroke="midnightblue" d="M1834.02,-86.94C2143.15,-86.47 3912.15,-81.99 4148,-42 4152.7,-41.2 4157.53,-40.12 4162.31,-38.86"/>
<polygon fill="midnightblue" stroke="midnightblue" points="4163.38,-42.19 4172.02,-36.07 4161.44,-35.46 4163.38,-42.19"/>
</g>
<!-- Node44 -->
<g id="node44" class="node">
<title>Node44</title>
<g id="a_node44"><a xlink:href="btb_8hpp.html" target="_top" xlink:title=" ">
<polygon fill="white" stroke="black" points="4279,-6 4279,-36 4383,-36 4383,-6 4279,-6"/>
<text text-anchor="start" x="4287" y="-24" font-family="Helvetica,sans-Serif" font-size="10.00">./branch_predictor</text>
<text text-anchor="middle" x="4331" y="-13" font-family="Helvetica,sans-Serif" font-size="10.00">/btb.hpp</text>
</a>
</g>
</g>
<!-- Node2&#45;&gt;Node44 -->
<g id="edge45" class="edge">
<title>Node2&#45;&gt;Node44</title>
<path fill="none" stroke="midnightblue" d="M1834.08,-86.99C2152.54,-86.82 4021.34,-84.04 4270,-42 4274.7,-41.21 4279.53,-40.12 4284.31,-38.86"/>
<polygon fill="midnightblue" stroke="midnightblue" points="4285.38,-42.2 4294.02,-36.07 4283.45,-35.47 4285.38,-42.2"/>
</g>
<!-- Node45 -->
<g id="node45" class="node">
<title>Node45</title>
<g id="a_node45"><a xlink:href="predictor_8hpp.html" target="_top" xlink:title=" ">
<polygon fill="white" stroke="black" points="4401,-6 4401,-36 4505,-36 4505,-6 4401,-6"/>
<text text-anchor="start" x="4409" y="-24" font-family="Helvetica,sans-Serif" font-size="10.00">./branch_predictor</text>
<text text-anchor="middle" x="4453" y="-13" font-family="Helvetica,sans-Serif" font-size="10.00">/predictor.hpp</text>
</a>
</g>
</g>
<!-- Node2&#45;&gt;Node45 -->
<g id="edge46" class="edge">
<title>Node2&#45;&gt;Node45</title>
<path fill="none" stroke="midnightblue" d="M1834.22,-87.03C2162.07,-87.16 4130.55,-86.09 4392,-42 4396.7,-41.21 4401.53,-40.12 4406.32,-38.86"/>
<polygon fill="midnightblue" stroke="midnightblue" points="4407.38,-42.2 4416.02,-36.08 4405.45,-35.47 4407.38,-42.2"/>
</g>
<!-- Node46 -->
<g id="node46" class="node">
<title>Node46</title>
<g id="a_node46"><a xlink:href="piecewise_8hpp.html" target="_top" xlink:title=" ">
<polygon fill="white" stroke="black" points="4523,-6 4523,-36 4627,-36 4627,-6 4523,-6"/>
<text text-anchor="start" x="4531" y="-24" font-family="Helvetica,sans-Serif" font-size="10.00">./branch_predictor</text>
<text text-anchor="middle" x="4575" y="-13" font-family="Helvetica,sans-Serif" font-size="10.00">/piecewise.hpp</text>
</a>
</g>
</g>
<!-- Node2&#45;&gt;Node46 -->
<g id="edge47" class="edge">
<title>Node2&#45;&gt;Node46</title>
<path fill="none" stroke="midnightblue" d="M1834.22,-87.07C2170.8,-87.49 4239.7,-88.14 4514,-42 4518.7,-41.21 4523.53,-40.13 4528.32,-38.87"/>
<polygon fill="midnightblue" stroke="midnightblue" points="4529.38,-42.2 4538.03,-36.08 4527.45,-35.48 4529.38,-42.2"/>
</g>
<!-- Node47 -->
<g id="node47" class="node">
<title>Node47</title>
<g id="a_node47"><a xlink:href="two_bit_8hpp.html" target="_top" xlink:title=" ">
<polygon fill="white" stroke="black" points="4645,-6 4645,-36 4749,-36 4749,-6 4645,-6"/>
<text text-anchor="start" x="4653" y="-24" font-family="Helvetica,sans-Serif" font-size="10.00">./branch_predictor</text>
<text text-anchor="middle" x="4697" y="-13" font-family="Helvetica,sans-Serif" font-size="10.00">/twoBit.hpp</text>
</a>
</g>
</g>
<!-- Node2&#45;&gt;Node47 -->
<g id="edge48" class="edge">
<title>Node2&#45;&gt;Node47</title>
<path fill="none" stroke="midnightblue" d="M1834.07,-87.11C2178.73,-87.8 4348.8,-90.21 4636,-42 4640.7,-41.21 4645.53,-40.13 4650.32,-38.87"/>
<polygon fill="midnightblue" stroke="midnightblue" points="4651.38,-42.21 4660.03,-36.09 4649.45,-35.48 4651.38,-42.21"/>
</g>
<!-- Node48 -->
<g id="node48" class="node">
<title>Node48</title>
<g id="a_node48"><a xlink:href="branch__predictor_8hpp.html" target="_top" xlink:title=" ">
<polygon fill="white" stroke="black" points="4767,-6 4767,-36 4889,-36 4889,-6 4767,-6"/>
<text text-anchor="start" x="4775" y="-24" font-family="Helvetica,sans-Serif" font-size="10.00">./branch_predictor</text>
<text text-anchor="middle" x="4828" y="-13" font-family="Helvetica,sans-Serif" font-size="10.00">/branch_predictor.hpp</text>
</a>
</g>
</g>
<!-- Node2&#45;&gt;Node48 -->
<g id="edge49" class="edge">
<title>Node2&#45;&gt;Node48</title>
<path fill="none" stroke="midnightblue" d="M1834.04,-87.03C2186.91,-87.19 4457.02,-86.48 4758,-42 4763.77,-41.15 4769.73,-39.95 4775.63,-38.57"/>
<polygon fill="midnightblue" stroke="midnightblue" points="4776.61,-41.93 4785.45,-36.08 4774.9,-35.14 4776.61,-41.93"/>
</g>
<!-- Node49 -->
<g id="node49" class="node">
<title>Node49</title>
<g id="a_node49"><a xlink:href="linha_8hpp.html" target="_top" xlink:title=" ">
<polygon fill="white" stroke="black" points="4907.5,-11.5 4907.5,-30.5 5006.5,-30.5 5006.5,-11.5 4907.5,-11.5"/>
<text text-anchor="middle" x="4957" y="-18.5" font-family="Helvetica,sans-Serif" font-size="10.00">./cache/linha.hpp</text>
</a>
</g>
</g>
<!-- Node2&#45;&gt;Node49 -->
<g id="edge50" class="edge">
<title>Node2&#45;&gt;Node49</title>
<path fill="none" stroke="midnightblue" d="M1834.25,-86.74C2209.11,-84.6 4740.35,-69.17 4898,-42 4907.78,-40.31 4918.14,-37.27 4927.39,-34.05"/>
<polygon fill="midnightblue" stroke="midnightblue" points="4928.75,-37.28 4936.93,-30.55 4926.34,-30.71 4928.75,-37.28"/>
</g>
<!-- Node50 -->
<g id="node50" class="node">
<title>Node50</title>
<g id="a_node50"><a xlink:href="cache_set_8hpp.html" target="_top" xlink:title=" ">
<polygon fill="white" stroke="black" points="5024.5,-11.5 5024.5,-30.5 5143.5,-30.5 5143.5,-11.5 5024.5,-11.5"/>
<text text-anchor="middle" x="5084" y="-18.5" font-family="Helvetica,sans-Serif" font-size="10.00">./cache/cacheSet.hpp</text>
</a>
</g>
</g>
<!-- Node2&#45;&gt;Node50 -->
<g id="edge51" class="edge">
<title>Node2&#45;&gt;Node50</title>
<path fill="none" stroke="midnightblue" d="M1834.15,-87.12C2204.57,-87.94 4687.91,-91.58 5016,-42 5027.64,-40.24 5040.09,-37 5051.1,-33.63"/>
<polygon fill="midnightblue" stroke="midnightblue" points="5052.3,-36.93 5060.75,-30.55 5050.16,-30.26 5052.3,-36.93"/>
</g>
<!-- Node34&#45;&gt;Node2 -->
<g id="edge35" class="edge">
<title>Node34&#45;&gt;Node2</title>
<path fill="none" stroke="midnightblue" d="M2744.15,-30.6C2730.37,-34.78 2711.86,-39.44 2695,-42 2530.24,-66.99 2015.65,-81.6 1844.16,-85.76"/>
<polygon fill="midnightblue" stroke="midnightblue" points="1844,-82.26 1834.08,-86 1844.16,-89.26 1844,-82.26"/>
</g>
</g>
</svg>
        <g id="navigator" transform="translate(0 0)" fill="#404254">
                <rect fill="#f2f5e9" fill-opacity="0.5" stroke="#606060" stroke-width=".5" x="0" y="0" width="60" height="60"/>
                <use id="zoomplus" xlink:href="#zoomPlus" x="17" y="9" onmousedown="handleZoom(evt,'in')"/>
                <use id="zoomminus" xlink:href="#zoomMin" x="42" y="9" onmousedown="handleZoom(evt,'out')"/>
                <use id="reset" xlink:href="#resetDef" x="30" y="36" onmousedown="handleReset()"/>
                <g id="arrowUp" xlink:href="#dirArrow" transform="translate(30 24)" onmousedown="handlePan(0,-1)">
                  <use xlink:href="#rim" fill="#404040">
                        <set attributeName="fill" to="#808080" begin="arrowUp.mouseover" end="arrowUp.mouseout"/>
                  </use>
                  <path fill="none" stroke="white" stroke-width="1.5" d="M0,-3.0v7 M-2.5,-0.5L0,-3.0L2.5,-0.5"/>
                </g>
                <g id="arrowRight" xlink:href="#dirArrow" transform="rotate(90) translate(36 -43)" onmousedown="handlePan(1,0)">
                  <use xlink:href="#rim" fill="#404040">
                        <set attributeName="fill" to="#808080" begin="arrowRight.mouseover" end="arrowRight.mouseout"/>
                  </use>
                  <path fill="none" stroke="white" stroke-width="1.5" d="M0,-3.0v7 M-2.5,-0.5L0,-3.0L2.5,-0.5"/>
                </g>
                <g id="arrowDown" xlink:href="#dirArrow" transform="rotate(180) translate(-30 -48)" onmousedown="handlePan(0,1)">
                  <use xlink:href="#rim" fill="#404040">
                        <set attributeName="fill" to="#808080" begin="arrowDown.mouseover" end="arrowDown.mouseout"/>
                  </use>
                  <path fill="none" stroke="white" stroke-width="1.5" d="M0,-3.0v7 M-2.5,-0.5L0,-3.0L2.5,-0.5"/>
                </g>
                <g id="arrowLeft" xlink:href="#dirArrow" transform="rotate(270) translate(-36 17)" onmousedown="handlePan(-1,0)">
                  <use xlink:href="#rim" fill="#404040">
                        <set attributeName="fill" to="#808080" begin="arrowLeft.mouseover" end="arrowLeft.mouseout"/>
                  </use>
                  <path fill="none" stroke="white" stroke-width="1.5" d="M0,-3.0v7 M-2.5,-0.5L0,-3.0L2.5,-0.5"/>
                </g>
        </g>
        <svg viewBox="0 0 15 15" width="100%" height="30px" preserveAspectRatio="xMaxYMin meet">
         <g id="arrow_out" transform="scale(0.3 0.3)">
          <a xlink:href="two_bit_8cpp__incl_org.svg" target="_base">
           <rect id="button" ry="5" rx="5" y="6" x="6" height="38" width="38"
                fill="#f2f5e9" fill-opacity="0.5" stroke="#606060" stroke-width="1.0"/>
           <path id="arrow"
             d="M 11.500037,31.436501 C 11.940474,20.09759 22.043105,11.32322 32.158766,21.979434 L 37.068811,17.246167 C 37.068811,17.246167 37.088388,32 37.088388,32 L 22.160133,31.978069 C 22.160133,31.978069 26.997745,27.140456 26.997745,27.140456 C 18.528582,18.264221 13.291696,25.230495 11.500037,31.436501 z"
             style="fill:#404040;"/>
          </a>
         </g>
        </svg>
</svg>
